<svg version="1.1" xmlns="http://www.w3.org/2000/svg" xmlns:xlink="http://www.w3.org/1999/xlink" width="97.43743" height="251.70838" viewBox="0,0,97.43743,251.70838"><g transform="translate(-271.2813,-55.09679)"><g data-paper-data="{&quot;isPaintingLayer&quot;:true}" fill-rule="nonzero" stroke-linejoin="miter" stroke-miterlimit="10" stroke-dasharray="" stroke-dashoffset="0" style="mix-blend-mode: normal"><g stroke-linecap="butt"><path d="M281.0304,304.3916c0,0 -0.63536,-94.38387 -0.79335,-118.01201c-0.03195,-4.77872 6.81946,-7.44418 15.60528,-16.43043c1.59711,-1.63355 -0.64163,-12.31547 1.36859,-13.70343c5.79726,-4.00271 13.39027,-6.73813 23.22814,-6.78724c8.40361,-0.04195 15.15623,2.02349 20.54154,5.21785c0.33594,0.19927 0.2643,10.05102 3.21459,14.56257c5.70986,8.73147 16.09477,15.17775 16.09271,17.11632c-0.07659,46.24274 0.65429,117.98648 0.65429,117.98648l-10.49667,0.09614l-0.15882,-114.84311c0,0 0.07549,-3.0993 -2.81625,-3.15415c-3.43441,-0.06514 -2.94538,3.11562 -2.94538,3.11562l0.20548,114.86995l-48.21366,0.07222l-0.30539,-115.23309c0,0 0.27949,-2.919 -2.8856,-2.93443c-3.11083,-0.01515 -2.81569,2.90899 -2.81569,2.90899l0.35311,115.0668z" fill="#000000" stroke="#000000" stroke-width="2"/><path d="M279.21585,175.81465c1.6198,-5.36988 17.47824,-21.11312 17.47824,-21.11312l-1.52643,87.55471c0,0 -2.35582,3.5379 -6.33533,4.27893c-5.30001,0.9869 -12.90649,-0.87012 -16.10509,-2.13671c-5.10145,-2.02007 4.80381,-62.99843 6.48861,-68.58381z" fill="#37253a" stroke="none" stroke-width="0"/><path d="M367.27279,245.31047c-3.1986,1.26659 -10.80508,3.12361 -16.10509,2.13671c-3.97951,-0.74101 -6.33533,-4.27893 -6.33533,-4.27893l-2.33304,-88.90774c0,0 16.66507,17.09629 18.28486,22.46618c1.6848,5.58538 11.59005,66.56373 6.4886,68.5838z" data-paper-data="{&quot;index&quot;:null}" fill="#37253a" stroke="none" stroke-width="0"/><path d="M279.21585,175.81465c1.6198,-5.36988 17.47824,-21.11312 17.47824,-21.11312c0,0 -19.16304,26.6985 -17.47824,21.11312z" fill="#4a314d" stroke="none" stroke-width="0"/><path d="M342.49932,154.26051c0,0 16.66507,17.09629 18.28486,22.46618c1.6848,5.58538 -18.28486,-22.46618 -18.28486,-22.46618z" data-paper-data="{&quot;index&quot;:null}" fill="#4a314d" stroke="none" stroke-width="0"/><path d="M291.2201,306.5639c0,0 0.1352,-73.32448 0.18542,-100.56315c0.03437,-18.64024 13.87602,-17.47564 29.95165,-17.00075c16.07563,0.47489 29.34015,-2.66624 29.18494,15.50036c-0.23298,27.26951 -0.87405,102.30481 -0.87405,102.30481z" fill="#241826" stroke="none" stroke-width="0"/><path d="M320.35715,178.00003c13.88535,0.0052 22.06567,-25.54694 22.06567,-25.54694c0,0 7.6157,33.95281 8.01569,57.54311c0.02693,1.58808 0.24662,4.20852 -0.24235,7.48633c-3.09958,-2.7868 -7.69985,-4.48252 -12.19617,-4.48252c-6.55977,0 -12.27655,3.60922 -15.27286,8.95019c-2.78172,-1.86338 -6.12752,-2.95019 -9.72714,-2.95019c-1.20169,0 -2.37511,0.12113 -3.50868,0.35183c-2.93097,-5.56086 -8.76843,-9.35183 -15.49132,-9.35183c-0.87006,0 -1.72529,0.06349 -2.56131,0.1861c-0.04159,-0.24923 -0.06222,-0.48111 -0.06096,-0.69474c0.05891,-9.97579 3.73357,-57.05582 3.73357,-57.05582c0,0 11.36051,25.55928 25.24586,25.56448z" fill="#6b6570" stroke="none" stroke-width="0"/><path d="M295.61131,152.43557c0,0 10.86052,25.55927 24.74586,25.56446c13.88534,0.00519 22.06567,-25.54694 22.06567,-25.54694c0,0 0.60639,2.70344 1.48594,7.11464c-3.93635,2.99699 -6.56437,7.62415 -6.87734,12.87475c-3.66089,1.59093 -6.67155,4.39712 -8.52275,7.90937c-1.13358,-0.23071 -2.30699,-0.35183 -3.50868,-0.35183c-2.35621,0 -5.761,1.93671 -11.28522,-0.08645c-4.60663,-1.68711 -11.29629,-7.34631 -14.37045,-7.75788c-0.49709,-3.71285 -2.15839,-7.05718 -4.60467,-9.65369c0.51089,-5.99814 0.87164,-10.06642 0.87164,-10.06642z" fill="#ace894" stroke="none" stroke-width="0"/><path d="M294.15001,196.30001c1.25,0 1.25,1.25 1.25,1.25v1c-0.00312,0.54909 -0.00624,1.09818 -0.00937,1.64727c0.79147,3.14718 3.85802,4.94875 6.43799,2.108c1.79031,-1.97127 1.89898,-6.07973 2.07452,-8.64388c0.05827,-0.85119 0.09994,-2.81035 -0.72445,-3.52773c-0.72953,-0.63484 -3.09782,0.13411 -3.67667,0.26541c-6.33605,-1.97235 -7.54475,-12.64443 -1.10122,-15.77197c4.18211,-2.02991 9.70074,1.10164 10.38663,5.34612c0,0 0.17677,1.23744 -1.06066,1.41421c-1.23744,0.17677 -1.41421,-1.06066 -1.41421,-1.06066c-0.30343,-2.63419 -4.29538,-4.78591 -6.81338,-3.45388c-3.78071,2 -3.93296,9.45966 0.09878,11.02803c1.2403,-0.34706 1.76205,-0.62936 3.12541,-0.38884c5.79089,1.02159 3.1907,8.26493 2.66455,12.01129c-0.25252,1.798 -0.40535,3.00508 -1.71654,4.47136c-2.5057,2.80206 -7.32188,3.01377 -9.56751,-0.16055c-0.78776,-1.11355 -0.86771,-2.01882 -1.1945,-3.33145c-0.00312,-0.65091 -0.00624,-1.30182 -0.00937,-1.95273v-1c0,0 0,-1.25 1.25,-1.25z" fill="#4a314d" stroke="none" stroke-width="0.5"/><path d="M311.60661,191.64812c2.52804,-0.72173 6.22639,-0.92607 7.78855,-3.47645c0.51131,-0.83477 -1.04272,-1.78529 -1.48672,-2.04886c-2.19628,-1.30371 -4.29363,-0.41426 -6.39941,0.64524c0,0 -0.04266,0.02133 -0.11548,0.04733c-0.02182,1.64181 -0.09794,3.28928 -0.21499,4.93935zM310.39099,184.53199c2.17839,-1.08321 4.44852,-1.99359 6.96218,-1.49465c2.42422,0.48119 5.45656,3.38774 4.35168,6.09104c-1.44238,3.52905 -6.3453,4.04685 -9.41145,4.92355l-0.84023,0.21077c0,0 -0.21395,0.05349 -0.48459,0.02566c-0.5596,5.94714 -1.56118,11.90765 -2.38114,17.73843l0.01256,0.42323c0,0 0,1.25 -1.25,1.25c-1.25,0 -1.25,-1.25 -1.25,-1.25l0.01256,-0.77677c1.22622,-8.46632 2.78743,-17.25038 2.78743,-25.82323c0,0 0,-1.25 1.25,-1.25c0.04193,0 0.08245,0.00141 0.12161,0.00413c0.07126,-0.0481 0.11937,-0.07216 0.11937,-0.07216z" fill="#4a314d" stroke="none" stroke-width="0.5"/><path d="M318.78558,199.2855c-1.36117,-0.92431 -2.79145,1.28572 -3.43646,2.45991c-2.07982,3.78615 0.31466,14.02767 5.23512,8.15146c0.66594,-1.59473 1.46569,-5.50842 0.73071,-8.02424c-0.46881,-1.6047 -2.51108,-2.2848 -2.52936,-2.58713zM322.71579,211.20318c-1.10624,1.33159 -1.29534,1.81345 -2.89855,2.66074c-2.84663,1.50443 -4.37949,0.01966 -5.97625,-2.17608c-2.15353,-2.96137 -2.46532,-7.78725 -0.69008,-11.13319c1.57977,-2.97753 4.36283,-5.20172 7.47997,-2.98071c0,0 2.08508,0.97266 2.80069,3.83077c0.74802,2.98754 0.11089,7.90547 -0.71579,9.79847z" fill="#4a314d" stroke="none" stroke-width="0.5"/><path d="M325.9491,192.76486c-2.07982,6.33832 0.31467,25.28348 5.23513,15.44622c0.66594,-2.6697 1.46569,-11.02156 0.73071,-15.23324c-0.22008,-1.26116 -2.00619,-5.81835 -3.26953,-5.85122c-1.42773,-0.03715 -2.3541,4.59536 -2.6963,5.63825zM333.31577,208.59796c-1.10624,2.2292 -1.29534,3.03586 -2.89855,4.4543c-2.84663,2.51854 -4.37949,0.0329 -5.97625,-3.64294c-2.15353,-4.95757 -2.46531,-13.0365 -0.69007,-18.63789c1.57977,-4.98463 4.36282,-8.70811 7.47997,-4.98995c0,0 2.08508,1.62832 2.8007,6.41304c0.74802,5.00138 0.11088,13.23442 -0.71579,16.40345z" fill="#4a314d" stroke="none" stroke-width="0.5"/><path d="M343.35001,212.11063c-1.25,0 -1.25,-1.52934 -1.25,-1.52934l0.01256,-0.02841c-0.41127,-3.57809 -1.04117,-8.77963 -2.28492,-12.02238c-0.32653,-0.85136 -0.8769,-1.65725 -1.42791,-2.48454c-0.01955,4.47963 -1.09602,9.53701 -0.04784,13.87051l0.04809,1.15421c0,0 0,1.52934 -1.25,1.52934c-1.25,0 -1.25,-1.52934 -1.25,-1.52934l0.0481,-0.31394c-1.24268,-5.47469 0.41769,-11.11919 -0.04384,-16.68845c-0.49086,-5.92333 -1.119,-11.60923 -2.1745,-17.4123c0,0 -0.27116,-1.49292 0.94907,-1.82468c1.22024,-0.33176 1.4914,1.16116 1.4914,1.16116c0.73219,4.03698 1.4145,8.17323 1.82677,12.33174c0.15739,-0.27708 0.3,-0.56234 0.4072,-0.86599c1.04143,-2.94996 1.67246,-8.02112 0.42777,-10.93943c0,0 -0.55902,-1.36788 0.55902,-2.05181c1.11804,-0.68393 1.67705,0.68394 1.67705,0.68394c1.52474,3.84993 0.9853,9.63093 -0.37223,13.52991c-0.36114,1.03723 -1.26231,1.74538 -1.51403,2.82992c-0.3617,1.55841 2.44646,4.52108 2.89058,5.67326c1.3503,3.50312 2.0566,9.06348 2.51508,12.93634l0.01256,0.46097c0,0 0,1.52934 -1.25,1.52934z" fill="#4a314d" stroke="none" stroke-width="0.5"/><path d="M347.81165,211.88239c-1.24884,0.0539 -2.31483,-1.45357 -2.31483,-1.45357l0.93936,-1.4267c-0.26357,-6.10727 -1.91761,-12.86281 -2.79735,-18.80733c-0.46646,-3.15195 0.19712,-6.41476 -0.21757,-9.52291c-0.37532,-2.81308 -0.96653,-7.42349 -1.6649,-10.03432c-0.25371,-0.94847 -2.07121,-0.41608 -2.20158,-1.43503c0,0 1.4462,-1.60446 2.26266,-1.79448c0.70295,-0.1636 2.34674,0.72168 2.34674,0.72168c0.10046,0.89342 -0.75448,1.08081 -0.53933,1.92394c0.69162,2.71042 1.88021,7.15568 2.25651,10.07403c0.39816,3.08787 -0.28103,6.29983 0.19816,9.38752c0.94847,6.11157 2.60263,13.54659 2.87492,19.85622l0.71546,1.1163c0,0 -0.60942,1.34077 -1.85826,1.39467z" fill="#4a314d" stroke="none" stroke-width="0.5"/><path d="M323.62501,199.12502c0,-2.07107 1.67893,-3.75 3.75,-3.75c2.07107,0 3.75,1.67893 3.75,3.75c0,2.07107 -1.67893,3.75 -3.75,3.75c-2.07107,0 -3.75,-1.67893 -3.75,-3.75z" fill="#4a314d" stroke="none" stroke-width="0.5"/><path d="M312.12501,204.62502c0,-2.07107 1.67893,-3.75 3.75,-3.75c2.07107,0 3.75,1.67893 3.75,3.75c0,2.07107 -1.67893,3.75 -3.75,3.75c-2.07107,0 -3.75,-1.67893 -3.75,-3.75z" fill="#4a314d" stroke="none" stroke-width="0.5"/><g fill="#37253a" stroke="none" stroke-width="0.5"><path d="M294.15001,196.30001c1.25,0 1.25,1.25 1.25,1.25v1c-0.00312,0.54909 -0.00624,1.09818 -0.00937,1.64727c0.79147,3.14718 3.85802,4.94875 6.43799,2.108c1.54162,-1.69744 1.83634,-4.97955 2.00055,-7.49579c0.74448,0.30397 1.5069,0.57308 2.28523,0.80529c-0.24628,1.43905 -0.57376,2.82114 -0.72648,3.90859c-0.25252,1.798 -0.40535,3.00508 -1.71654,4.47136c-2.5057,2.80206 -7.32188,3.01377 -9.56751,-0.16055c-0.78776,-1.11355 -0.86771,-2.01882 -1.1945,-3.33145c-0.00312,-0.65091 -0.00624,-1.30182 -0.00937,-1.95273v-1c0,0 0,-1.25 1.25,-1.25z"/><path d="M308.58745,212.02679l0.01256,0.42323c0,0 0,1.25 -1.25,1.25c-1.25,0 -1.25,-1.25 -1.25,-1.25l0.01256,-0.77677c0.73806,-5.09589 1.59749,-10.30688 2.16479,-15.51765c0.80687,0.16365 1.62784,0.28844 2.46088,0.37233c-0.5778,5.2017 -1.43374,10.39988 -2.15079,15.49886z"/><path d="M318.78558,199.2855c-1.36117,-0.92431 -2.79145,1.28572 -3.43646,2.45991c-2.07982,3.78615 0.31466,14.02767 5.23512,8.15146c0.66594,-1.59473 1.46569,-5.50842 0.73071,-8.02424c-0.46881,-1.6047 -2.51108,-2.2848 -2.52936,-2.58713zM322.71579,211.20318c-1.10624,1.33159 -1.29534,1.81345 -2.89855,2.66074c-2.84663,1.50443 -4.37949,0.01966 -5.97625,-2.17608c-2.15353,-2.96137 -2.46532,-7.78725 -0.69008,-11.13319c1.57977,-2.97753 4.36283,-5.20172 7.47997,-2.98071c0,0 2.08508,0.97266 2.80069,3.83077c0.74802,2.98754 0.11089,7.90547 -0.71579,9.79847z"/><path d="M331.18424,208.21108c0.61523,-2.46642 1.34467,-9.7826 0.87265,-14.20347c0.72924,-0.03055 1.4504,-0.09234 2.16218,-0.18406c0.42807,5.00524 -0.16125,11.92987 -0.90328,14.77442l-0.00001,-0.00001c-1.10624,2.2292 -1.29534,3.03586 -2.89855,4.4543c-2.84663,2.51854 -4.37949,0.0329 -5.97625,-3.64294c-1.68281,-3.87394 -2.24102,-9.65384 -1.55759,-14.66819c0.91885,-0.38293 1.80996,-0.81911 2.66945,-1.3047c0.06436,0.01428 0.12882,0.02831 0.19336,0.0421c-1.70538,6.92154 0.69061,24.22386 5.43804,14.73255z"/><path d="M343.35001,212.11063c-1.25,0 -1.25,-1.52934 -1.25,-1.52934l0.01256,-0.02841c-0.41127,-3.57809 -1.04117,-8.77963 -2.28492,-12.02238c-0.32653,-0.85136 -0.8769,-1.65725 -1.42791,-2.48454c-0.01955,4.47963 -1.09602,9.53701 -0.04784,13.87051l0.04809,1.15421c0,0 0,1.52934 -1.25,1.52934c-1.25,0 -1.25,-1.52934 -1.25,-1.52934l0.0481,-0.31394c-1.24268,-5.47469 0.41769,-11.11919 -0.04384,-16.68845c-0.01417,-0.17097 -0.02845,-0.34174 -0.04285,-0.51232c1.18134,-0.23321 2.33279,-0.54963 3.44797,-0.94292c0.55846,1.58999 2.4095,3.65392 2.76298,4.57096c1.3503,3.50312 2.0566,9.06348 2.51508,12.93634l0.01256,0.46097c0,0 0,1.52934 -1.25,1.52934z"/><path d="M347.81165,211.88239c-1.24884,0.0539 -2.31483,-1.45357 -2.31483,-1.45357l0.93936,-1.4267c-0.25809,-5.98018 -1.84937,-12.58193 -2.74144,-18.43519c0.80231,-0.47422 1.57582,-0.99199 2.31727,-1.55006c0.01939,0.16645 0.04178,0.33258 0.06751,0.49835c0.94847,6.11157 2.60263,13.54659 2.87492,19.85622l0.71546,1.1163c0,0 -0.60942,1.34077 -1.85826,1.39467z"/></g><path d="M291.2201,306.5639c0,0 0.08574,-46.50403 0.14603,-79.20003c1.32817,1.61588 2.85507,3.06222 4.54333,4.30166c-0.0197,0.14782 0.87949,0.29164 2.44875,0.42816c10.01145,0.87097 47.2956,1.44481 47.24843,0.86191c1.6746,-0.72447 3.25431,-1.62681 4.71529,-2.68321c-0.28042,32.82228 -0.65386,76.53278 -0.65386,76.53278z" fill-opacity="0.10588" fill="#000000" stroke="none" stroke-width="0"/></g><path d="M275.92692,104.83465c0,0 6.16329,-5.92187 6.29161,-6.78761c0.33654,-2.27063 -0.16776,-40.17317 35.96775,-41.57382c44.63633,-0.91362 39.01489,35.34872 41.53088,42.1903c3.44981,9.38084 6.15664,17.40016 6.15664,17.40016c0,0 -2.76715,-2.05351 -4.0797,-3.13397c-1.2242,-1.00773 -3.80143,-3.14585 -3.80143,-3.14585c0,0 3.09111,10.3481 1.31092,20.69498c-1.5623,9.48098 -7.29782,17.22543 -7.29782,17.22543l-1.15522,-2.34735c0,0 -1.02266,2.19794 -2.16005,3.33274c-1.1374,1.13479 -3.43873,2.91273 -3.43873,2.91273l-0.09205,-3.70421c0,0 -21.05851,9.07551 -29.90399,9.10995c-7.84039,0.03053 -20.51818,-8.91361 -20.51818,-8.91361l-0.1162,2.65484c0,0 -3.89477,-3.29276 -6.18145,-9.70754c-2.72545,-7.64567 -3.23946,-12.24324 -3.23946,-12.24324c0,0 -2.33908,1.89916 -5.71704,2.7744c-4.23278,1.09673 -6.94665,0.34526 -6.94665,0.34526c0,0 3.60795,-2.71717 5.58396,-4.76989c1.76007,-1.8284 2.64658,-3.37722 2.64658,-3.37722c0,0 -2.10758,1.0847 -4.23277,1.61795c-2.21739,0.5564 -4.03008,0.53093 -4.03008,0.53093c0,0 4.97492,-5.03728 7.03074,-10.87429c1.94102,-5.51108 2.09972,-10.95731 2.09972,-10.95731c0,0 -1.36165,0.66163 -3.33013,0.79513c-1.24776,0.08463 -2.37785,-0.0489 -2.37785,-0.0489z" fill="#000000" stroke="none" stroke-width="1.5" stroke-linecap="butt"/><path d="M297.22326,115.67603c0.07093,-4.89188 4.83834,-8.93609 10.21137,-8.8582c5.37302,0.0779 9.02724,4.2484 8.95632,9.14029c-0.07093,4.89188 -4.12352,8.79439 -9.49655,8.7165c-5.37302,-0.0779 -9.74207,-4.1067 -9.67114,-8.99859z" fill="#6b6570" stroke="#6b6570" stroke-width="1.4" stroke-linecap="butt"/><path d="M299.91089,115.79397c0.03999,-2.75843 2.30855,-4.96213 5.06696,-4.92214c2.75843,0.03999 4.96213,2.30855 4.92214,5.06696c-0.03999,2.75843 -2.30854,4.96213 -5.06696,4.92214c-2.75843,-0.03999 -4.96213,-2.30855 -4.92214,-5.06696z" fill="#ace894" stroke-opacity="0.50196" stroke="#ace895" stroke-width="4.5" stroke-linecap="butt"/><path d="M324.27954,115.67676c0.20353,-4.88817 4.45264,-8.85847 9.77048,-8.85847c5.31783,0 9.27453,3.96607 9.27453,8.85847c0,4.8924 -3.88585,9.07104 -9.69964,9.14188c-5.52997,0.06739 -9.55792,-4.03692 -9.34537,-9.14188z" fill="#6b6570" stroke="#6b6570" stroke-width="1.4" stroke-linecap="butt"/><path d="M327.13229,115.76231c0,-2.81845 2.2848,-5.10325 5.10325,-5.10325c2.81845,0 5.10325,2.2848 5.10325,5.10325c0,2.81845 -2.28479,5.10325 -5.10325,5.10325c-2.81845,0 -5.10325,-2.2848 -5.10325,-5.10325z" fill="#ace894" stroke-opacity="0.50196" stroke="#ace895" stroke-width="4.5" stroke-linecap="butt"/><path d="M296.04249,115.14385c0,0 0.43857,-9.01512 10.97611,-8.8249c9.47101,0.16586 10.91365,9.40723 10.91365,9.40723c0,0 -1.23226,-3.49871 -11.46881,-3.77517c-10.48022,-0.28304 -10.42095,3.19284 -10.42095,3.19284z" fill="#000000" stroke="#000000" stroke-width="1.15" stroke-linecap="butt"/><path d="M322.78955,115.27475c0,0 0.86547,-9.4582 12.31046,-9.1032c9.71427,0.33347 9.92177,9.65229 9.92177,9.65229c0,0 0.08383,-2.60588 -9.81117,-2.75063c-11.74634,-0.17183 -12.42106,2.20154 -12.42106,2.20154z" fill="#000000" stroke="#000000" stroke-width="1.15" stroke-linecap="butt"/><path d="M327.07187,56.83796l0.42734,-0.41554c-0.01239,0.17157 -0.02045,0.34433 -0.02407,0.51819c-0.2538,-0.0645 -0.40328,-0.10265 -0.40328,-0.10265z" fill="#ace894" stroke="none" stroke-width="0.5" stroke-linecap="butt"/><g><path d="M355.66605,132.26823c0.50516,-0.1339 2.81562,-0.53312 2.93952,-0.97729c1.25988,-4.51693 1.50034,-7.02469 0.82189,-11.85727c-0.12457,-0.88741 -1.57103,-9.92561 -1.57103,-9.92561l3.22776,2.65604c0,0 1.33432,7.99309 1.514,11.11105c0.18462,3.20362 -0.4207,9.66068 -0.4207,9.66068c0,0 2.47962,4.50254 2.05421,4.94142c-0.46786,0.48265 -4.74612,-2.16429 -4.74612,-2.16429c0,0 -11.94188,3.22525 -13.90481,2.53885c-2.88926,-1.01033 -1.28596,-4.25837 -0.91463,-4.96249c-0.03276,-0.94323 0.55306,-1.83467 1.49402,-2.14791c0.70894,-0.23601 1.45323,-0.08846 2.00774,0.32994c2.44433,0.60309 4.21992,1.66577 7.49816,0.79686z" data-paper-data="{&quot;index&quot;:null}" fill="#4a314d" stroke="none" stroke-width="0.5" stroke-linecap="butt"/><path d="M287.96028,92.83892c3.05395,1.47489 4.99886,0.76825 7.51321,0.63969c0.6238,-0.30564 1.38256,-0.30934 2.03387,0.05684c0.86447,0.48602 1.2706,1.47238 1.05954,2.39228c0.23105,0.76177 1.18923,4.25494 -1.83921,4.69896c-2.05749,0.30166 -13.17093,-5.12994 -13.17093,-5.12994c0,0 -4.70262,1.78749 -5.07045,1.22486c-0.33445,-0.51159 2.95411,-4.46213 2.95411,-4.46213c0,0 0.6303,-6.45467 1.41917,-9.56513c0.76777,-3.02729 3.25244,-8.85491 3.25244,-8.85491l2.58398,-0.57642c0,0 -1.70406,5.41326 -1.99468,6.26093c-1.58267,4.61619 -1.8222,7.12405 -1.44186,11.79794c0.03741,0.45961 2.23021,1.28978 2.70081,1.51706z" data-paper-data="{&quot;index&quot;:null}" fill="#4a314d" stroke="none" stroke-width="0.5" stroke-linecap="butt"/><path d="M344.49643,66.019c0.03251,-0.52159 0.3835,-2.83986 0.0012,-3.09771c-3.88774,-2.62208 -6.19119,-3.64232 -10.99066,-4.525c-0.88133,-0.16209 -6.43508,-1.32958 -6.43508,-1.32958l1.76879,-1.96992c0,0 6.29749,0.69011 9.31259,1.50445c3.09794,0.83671 9.03325,3.45054 9.03325,3.45054c0,0 5.05525,-0.93053 5.33729,-0.38828c0.31018,0.59636 -3.55257,3.81955 -3.55257,3.81955c0,0 -0.71176,12.34926 -1.98303,13.9949c-1.87119,2.42224 -4.44655,-0.12489 -4.99734,-0.69962c-0.9053,-0.26684 -1.56606,-1.10424 -1.56606,-2.09597c0,-0.74719 0.37507,-1.40677 0.9472,-1.80074c1.34428,-2.12871 2.91339,-3.47774 3.12441,-6.86262z" fill="#4a314d" stroke="none" stroke-width="0.5" stroke-linecap="butt"/><path d="M294.76532,144.37183l20.73802,8.21075l20.45735,-11.30081l15.31022,-16.9067c0,0 0.0172,26.32898 -7.58612,31.20767c-8.47402,5.43738 -20.0152,11.19876 -30.9344,11.25231c-8.22947,0.04036 -14.6244,-3.16871 -19.34368,-7.05194c-7.1608,-5.89222 -7.23342,-18.79056 -5.64804,-21.46731c1.54669,-2.61142 4.58344,-7.73869 4.58344,-7.73869z" data-paper-data="{&quot;index&quot;:null}" fill="#6b6570" stroke="#000000" stroke-width="0" stroke-linecap="round"/><path d="M294.76532,144.37183l20.73802,8.21075l20.45735,-11.30081l15.31022,-16.9067c0,0 0.00415,6.35779 -0.89384,13.40383c-1.10827,0.03438 -24.19452,26.02438 -24.1632,26.53667c-4.38381,1.50637 -8.91357,2.48 -13.34328,2.51866c-2.54233,-11.11139 -25.21159,-19.39045 -25.62819,-19.36981c-0.63193,-4.14408 -0.25302,-7.84974 0.51627,-9.14862c1.54669,-2.61142 4.58344,-7.73869 4.58344,-7.73869z" data-paper-data="{&quot;index&quot;:null}" fill-opacity="0.10588" fill="#000000" stroke="#000000" stroke-width="0" stroke-linecap="round"/><path d="M347.29173,91.29077l-20.73801,-8.21075l-20.45735,11.30082l-15.3102,16.90671c0,0 -2.04857,-8.63414 -2.96135,-12.48126c-0.78494,-3.3083 0.57241,-11.71444 5.04537,-14.96408c8.42139,-6.1182 22.90645,-14.94828 36.43651,-15.01463c13.507,-0.06624 22.07202,8.62098 26.39757,14.67542c2.30879,3.2316 0.48501,10.65133 -1.03717,13.22138c-1.60631,2.7121 -4.95209,8.36114 -4.95209,8.36114z" data-paper-data="{&quot;index&quot;:null}" fill="#6b6570" stroke="#000000" stroke-width="0" stroke-linecap="round"/><path d="M347.29173,91.29077l-20.73801,-8.21075l-20.45735,11.30082l-15.3102,16.90671c0,0 -1.80516,-7.60822 -2.78145,-11.72305c11.32571,-2.38213 19.82862,-12.43033 19.82862,-24.46449c0,-0.13039 -0.001,-0.26055 -0.00299,-0.39047c6.71439,-3.29869 14.23225,-5.84643 21.47635,-5.88196c2.92976,-0.01437 5.62701,0.3831 8.09892,1.07621c1.43135,10.30673 9.14617,18.60374 19.15105,20.89764c-0.38698,2.42091 -1.17181,4.71108 -1.88957,5.92295c-1.60631,2.7121 -4.95209,8.36114 -4.95209,8.36114z" data-paper-data="{&quot;index&quot;:null}" fill-opacity="0.10588" fill="#000000" stroke="#000000" stroke-width="0" stroke-linecap="round"/><path d="M290.78617,111.28755c0,0 -2.04857,-8.63414 -2.96135,-12.48126c-0.78494,-3.3083 0.57241,-11.71444 5.04537,-14.96408c0.33712,-0.24492 0.68396,-0.49419 1.04006,-0.74706c0.4364,6.39862 3.28045,12.13604 7.63322,16.31336z" data-paper-data="{&quot;index&quot;:null}" fill="#37253a" stroke="#000000" stroke-width="0" stroke-linecap="butt"/><path d="M347.29173,91.29077l-4.27594,-1.69296c3.46625,-3.31388 5.98075,-7.61499 7.09204,-12.45186c2.33091,2.13615 4.18832,4.3861 5.59644,6.35705c2.30879,3.2316 0.48501,10.65133 -1.03717,13.22138c-1.60631,2.7121 -4.95209,8.36114 -4.95209,8.36114z" data-paper-data="{&quot;index&quot;:null}" fill="#37253a" stroke="#000000" stroke-width="0" stroke-linecap="butt"/><path d="M347.29173,91.29077l-20.73801,-8.21075l-20.45735,11.30082l-15.3102,16.90671l-1.78957,-7.54254c0.70038,0.22457 1.43977,0.3448 2.20407,0.3448c4.43888,0 6.70318,-9.20554 6.7016,-9.27943c0.26529,0.02979 8.64308,-2.49777 9.73455,-6.04009c0.6073,0.16531 9.78601,-3.64052 9.92686,-8.50334c0.97547,0.47419 7.99338,-0.59544 9.46606,-2.67479c1.15102,3.41485 9.30557,5.67045 10.12306,5.35473c1.40801,2.6224 9.43739,4.01946 10.53304,3.38871c0.59881,1.29383 1.46679,2.40431 2.52022,3.23714c-0.67102,1.32295 0.09201,9.83317 1.88905,11.4942l-2.38011,4.01859z" data-paper-data="{&quot;index&quot;:null}" fill="#4a314d" stroke="#000000" stroke-width="0" stroke-linecap="butt"/><path d="M351.27091,124.37507c0,0 0.0172,26.32898 -7.58612,31.20767c-0.25781,0.16542 -0.51846,0.33115 -0.78184,0.497c0.19251,-1.25033 0.29237,-2.53121 0.29237,-3.83542c0,-5.24179 -1.61322,-10.10679 -4.37027,-14.1256z" data-paper-data="{&quot;index&quot;:null}" fill="#37253a" stroke="#000000" stroke-width="0" stroke-linecap="butt"/><path d="M293.40671,159.78311c-7.1608,-5.89222 -7.23342,-18.79056 -5.64804,-21.46731c1.54669,-2.61142 4.58344,-7.73869 4.58344,-7.73869l2.3203,13.20891c-0.94964,2.64173 -1.46709,5.48959 -1.46709,8.4583c0,3.00284 0.52941,5.88202 1.5,8.5493c-0.44266,-0.33041 -0.87216,-0.66783 -1.28861,-1.01051z" data-paper-data="{&quot;index&quot;:null}" fill="#37253a" stroke="#000000" stroke-width="0" stroke-linecap="butt"/><path d="M294.76532,144.37183l20.73802,8.21075l20.45735,-11.30081l15.31022,-16.9067l-0.00603,1.77824c-0.92453,1.32453 -1.27825,2.1968 -1.42924,3.96809c-1.48688,1.64365 -2.4093,3.93344 -2.4093,6.46598c0,0.32557 0.01525,0.64715 0.04498,0.96384c-1.64656,1.10651 -2.91246,2.85756 -3.52348,4.94419c-0.46189,-0.093 -0.93743,-0.14153 -1.42305,-0.14153c-3.77242,0 -6.93781,2.92877 -7.80329,6.8786c-0.67435,-0.20689 -1.38398,-0.31733 -2.11651,-0.31733c-3.16863,0 -5.90899,2.06627 -7.21791,5.06834c-1.07416,-0.59993 -2.28437,-0.93717 -3.56447,-0.93717c-2.92245,0 -5.48061,1.75769 -6.88738,4.38612c-1.34116,-2.89552 -4.03058,-4.87214 -7.12971,-4.87214c-1.70436,0 -3.28481,0.59781 -4.58524,1.61752c-0.9857,-3.74552 -4.06304,-6.47772 -7.70667,-6.47772c-1.15472,0 -2.25257,0.27442 -3.24498,0.76852c0.04526,-0.38903 0.06862,-0.78584 0.06862,-1.18879c0,-2.77827 -1.11009,-5.26438 -2.8577,-6.92579c1.74761,-1.66141 2.8577,-4.14752 2.8577,-6.92579c0,-0.82094 -0.09692,-1.61638 -0.27858,-2.37256l0.28346,-0.47858z" data-paper-data="{&quot;index&quot;:null}" fill="#4a314d" stroke="#000000" stroke-width="0" stroke-linecap="butt"/></g><g fill="none" stroke-linecap="round"><g stroke-opacity="0.50196" stroke="#ace895" stroke-width="2.5"><path d="M326.3512,83.14639c0,0 -3.6407,23.46716 -5.44696,35.10993c-1.78767,11.52295 -5.33542,34.39097 -5.33542,34.39097"/><path d="M347.05339,91.16574c0,0 -2.17529,17.03393 -3.85151,25.36977c-1.62903,8.10114 -6.06829,23.96129 -6.06829,23.96129"/><path d="M295.08232,144.14197c0,0 3.65257,-17.49314 5.41593,-25.93835c1.68327,-8.06165 4.93515,-23.63573 4.93515,-23.63573"/></g><g stroke="#ace894" stroke-width="1.5"><path d="M326.3512,83.14639c0,0 -3.6407,23.46716 -5.44696,35.10993c-1.78767,11.52295 -5.33542,34.39097 -5.33542,34.39097"/><path d="M347.05339,91.16574c0,0 -2.17529,17.03393 -3.85151,25.36977c-1.62903,8.10114 -6.06829,23.96129 -6.06829,23.96129"/><path d="M295.08232,144.14197c0,0 3.65257,-17.49314 5.41593,-25.93835c1.68327,-8.06165 4.93515,-23.63573 4.93515,-23.63573"/></g></g></g></g></svg>