<svg version="1.1" xmlns="http://www.w3.org/2000/svg" xmlns:xlink="http://www.w3.org/1999/xlink" width="71.14978" height="366.47662" viewBox="0,0,71.14978,366.47662"><g transform="translate(-284.42511,37.16093)"><g data-paper-data="{&quot;isPaintingLayer&quot;:true}" fill-rule="nonzero" stroke="none" stroke-width="0" stroke-linecap="butt" stroke-linejoin="miter" stroke-miterlimit="10" stroke-dasharray="" stroke-dashoffset="0" style="mix-blend-mode: normal"><g><path d="M284.42511,317.24582v-11.31995h71.10047v11.31995c0,0 -0.55111,12.22535 -35.08247,12.06837c-35.29944,-0.16048 -36.018,-12.06837 -36.018,-12.06837z" fill="#290025"/><path d="M299.80174,322.90106c-0.16107,-5.07894 -0.60566,-10.1714 -0.73555,-15.25218c-0.01618,-0.63311 -0.00678,-1.20458 0.01788,-1.723h6.44835c0.02476,3.18928 0.03363,6.37873 0.08269,9.56771c0.03304,2.14722 0.08224,4.29431 0.09336,6.44175c0.01351,2.60922 -0.33509,4.67494 -0.61083,6.36981c-1.90096,-0.27346 -3.62722,-0.59352 -5.19483,-0.949c0,0 -0.05449,-2.98616 -0.10107,-4.45509z" fill="#11001c"/><path d="M284.42511,305.92587h11.35593c0.00504,0.59253 24.98951,11.60061 24.98951,11.60061c0,0 -9.94261,0.41394 -14.36158,0.47002c-3.53141,0.04481 -10.0916,-0.15973 -10.0916,-0.15973c0,0 0.20264,3.44737 0.22289,5.16773c0.01363,1.15865 0.02237,2.31733 0.02744,3.47603c-11.80062,-3.56785 -12.14259,-9.2347 -12.14259,-9.2347z" fill="#11001c"/><path d="M355.57489,305.77854c0,6.54246 -15.91114,11.84617 -35.53852,11.84617c-19.62738,0 -35.53852,-5.30371 -35.53852,-11.84617c0,-6.54246 15.91114,-11.84617 35.53852,-11.84617c19.62738,0 35.53852,5.30371 35.53852,11.84617z" fill="#35012c"/></g><path d="M318.72662,111.1857v-148.34663h2.61949v148.34663z" fill="#3a015c"/><g><g><path d="M287.34965,150.44354c0,-13.36682 3.70133,-34.36445 32.25248,-34.7004c30.60053,-0.36006 33.72595,20.13082 33.72595,33.06323c0,18.35914 0,66.6333 0,66.6333c0,0 -4.88196,9.39406 -34.38082,9.82309c-26.84098,0.39038 -31.59761,-9.82309 -31.59761,-9.82309c0,0 0,-46.70231 0,-64.99613z" fill-opacity="0.35294" fill="#4f0147"/><path d="M287.31896,215.43966c0,0 0,-46.7023 0,-64.99612c0,-13.26519 3.64526,-34.04559 31.60553,-34.68917c-3.55934,6.06084 -6.5548,11.20024 -7.662,32.89035c-1.40839,27.59057 -0.36856,72.44955 -0.1629,76.40914c-1.76676,-0.12846 -3.40702,-0.30937 -4.92933,-0.53247c0.08006,-20.69125 0.06304,-41.38303 -0.03714,-62.07415c0,-0.02198 -0.00024,-0.0439 -0.00072,-0.06576c-0.00861,-0.50146 -2.60038,22.23747 -4.28773,42.09494c-0.6069,7.14226 -1.66695,13.45563 -1.64718,18.8212c-10.55616,-2.87135 -12.87853,-7.85796 -12.87853,-7.85796z" fill-opacity="0.43529" fill="#11001c"/><path d="M348.44346,138.31949c1.09842,6.81938 -3.99267,15.20651 -3.99267,15.20651c0,0 2.27553,0.51856 3.06268,1.92264c0.83016,1.4808 0.04159,3.86382 -5.35791,4.3776c-3.88685,0.21545 -5.61338,-0.27166 -6.06632,-2.18118c-0.48806,-2.05756 2.95105,-3.88028 2.95105,-3.88028c0,0 -0.37841,-0.19858 -0.56542,-0.3124c-3.17761,-1.93398 -5.90838,-6.63251 -6.84144,-12.42522c-1.30488,-8.10111 -0.15496,-14.4559 4.487,-15.2036c4.64196,-0.7477 11.01815,4.39483 12.32303,12.49594z" fill-opacity="0.35294" fill="#ffffff"/><path d="M346.09602,164.72219c0,0.74595 -1.26441,1.35068 -2.82414,1.35068c-1.55973,0 -2.82414,-0.60472 -2.82414,-1.35068c0,-0.74595 1.26441,-1.35068 2.82414,-1.35068c1.55973,0 2.82414,0.60472 2.82414,1.35068z" fill-opacity="0.35294" fill="#ffffff"/><path d="M328.24659,115.74313c0,1.86233 -3.67584,3.37205 -8.21022,3.37205c-4.53438,0 -8.21022,-1.50972 -8.21022,-3.37205c0,-1.86233 3.67584,-3.37205 8.21022,-3.37205c4.53438,0 8.21022,1.50972 8.21022,3.37205z" fill="#35012c"/><path d="M314.54925,114.04639c0,-3.04841 2.42934,-5.51964 5.42609,-5.51964c2.99674,0 5.42609,2.47123 5.42609,5.51964c0,0.34455 -0.03103,0.68174 -0.09042,1.00881c-0.88041,0.00198 -1.76083,0.00154 -2.64127,-0.00055c0.16232,-0.36533 0.25252,-0.76982 0.25252,-1.19537c0,-1.62754 -1.31939,-2.94693 -2.94693,-2.94693c-1.62754,0 -2.94693,1.31939 -2.94693,2.94693c0,0.41501 0.08579,0.80998 0.24059,1.16815c-0.95513,-0.01551 -1.84794,-0.14921 -2.66937,-0.22571c-0.03322,-0.24695 -0.05039,-0.4991 -0.05039,-0.75534z" fill="#4f0147"/></g><path d="M322.43111,109.89216c0,1.7481 -1.09949,3.16522 -2.45577,3.16522c-1.35629,0 -2.45577,-1.41712 -2.45577,-3.16522c0,-1.7481 1.09949,-3.16522 2.45577,-3.16522c1.35629,0 2.45577,1.41712 2.45577,3.16522z" fill="#3a015c"/></g></g></g></svg>