<svg version="1.1" xmlns="http://www.w3.org/2000/svg" xmlns:xlink="http://www.w3.org/1999/xlink" width="93.36936" height="249.99815" viewBox="0,0,93.36936,249.99815"><g transform="translate(-272.50442,-55.50173)"><g data-paper-data="{&quot;isPaintingLayer&quot;:true}" fill-rule="nonzero" stroke-linejoin="miter" stroke-miterlimit="10" stroke-dasharray="" stroke-dashoffset="0" style="mix-blend-mode: normal"><g stroke-linecap="butt"><path d="M280.0304,304.39162c0,0 0.36464,-94.38387 0.20665,-118.01201c-0.05451,-8.15261 8.18688,-36.76129 40.20201,-36.9211c31.60235,-0.15775 39.85672,29.48704 39.84884,36.89673c-0.05641,34.0601 1.15429,117.98648 1.15429,117.98648l-10.99667,0.09614l-0.15882,-114.84311c0,0 0.07549,-3.0993 -2.81625,-3.15415c-3.43441,-0.06514 -2.94538,3.11562 -2.94538,3.11562l0.20548,114.86995l-48.21366,0.07222l-0.30539,-115.23309c0,0 0.27949,-2.919 -2.8856,-2.93443c-3.11083,-0.01515 -2.81569,2.90899 -2.81569,2.90899l0.35311,115.0668z" fill="#000000" stroke="#000000" stroke-width="2"/><path d="M277.23705,193.87962c-0.05451,-8.15261 4.18688,-44.26129 43.20201,-44.4211c39.01513,-0.15981 42.85672,36.98704 42.84884,44.39673c-0.00772,4.65759 -13.45986,12.13276 -13.45986,12.13276l-0.59749,98.43818l-57.21366,0.07222l-0.91231,-98.50872c0,0 -13.84412,-8.60969 -13.86752,-12.11006z" fill="#4a314d" stroke="#4a314d" stroke-width="2"/><g stroke="#4a314d" stroke-width="0"><path d="M299.42325,215.95803c0,0 -3.97341,-25.56495 5.59978,-34.67379c9.5732,-9.10884 21.28814,-8.45732 30.17661,0c8.88846,8.45732 5.59978,34.67379 5.59978,34.67379c0,0 -1.15857,7.6039 -21.04902,7.6039c-19.25168,0 -20.32715,-7.6039 -20.32715,-7.6039z" fill="#000000"/><path d="M298.92325,215.34457c0,0 15.08818,-26.68961 20.82715,-26.68961c5.8082,0 21.54902,26.68961 21.54902,26.68961c0,0 -1.65856,9.60696 -21.54902,9.60696c-19.25167,0 -20.82715,-9.60696 -20.82715,-9.60696z" fill="#6b6570"/><path d="M311.6156,223.69077c-8.09262,-5.23366 7.93227,-31.75894 7.93227,-31.75894c0,0 16.93345,26.27632 8.31811,31.68209c-4.60873,2.89178 -11.84484,2.92601 -16.25038,0.07686z" data-paper-data="{&quot;index&quot;:null}" fill="#a8ba9a"/><path d="M319.78626,197.81374c0,0 14.86663,26.28695 0,26.28695c-14.38918,0 0,-26.28695 0,-26.28695z" data-paper-data="{&quot;index&quot;:null}" fill="#ace894"/></g><path d="M319.93906,242.45852c25.57025,-0.10474 30.88898,-36.47052 30.88898,-36.47052l-0.59749,98.43818l-59.21366,0.07222l-0.91231,-98.50872c0,0 5.81543,36.56723 29.83448,36.46884z" fill-opacity="0.25098" fill="#000000" stroke="#4a314d" stroke-width="0"/><path d="M319.93906,265.95851c25.57025,-0.10474 30.88898,-39.47052 30.88898,-39.47052l-0.59749,77.93818l-59.21366,0.07222l-0.91231,-78.00872c0,0 5.81542,39.56723 29.83448,39.46884z" fill-opacity="0.09804" fill="#000000" stroke="#4a314d" stroke-width="0"/></g><path d="" fill="#a8ba9a" stroke="#4a314d" stroke-width="0" stroke-linecap="butt"/><path d="" fill="#a8ba9a" stroke="#4a314d" stroke-width="0" stroke-linecap="butt"/><path d="" fill-opacity="0.10588" fill="#000000" stroke="none" stroke-width="0.60142" stroke-linecap="butt"/><path d="M275.9269,103.88013c0,0 6.16329,-5.92187 6.29161,-6.78761c0.33654,-2.27063 -0.16776,-40.17317 35.96775,-41.57382c44.63633,-0.91362 39.01489,35.34872 41.53088,42.1903c3.44981,9.38084 6.15664,17.40016 6.15664,17.40016c0,0 -2.76715,-2.05351 -4.0797,-3.13397c-1.2242,-1.00773 -3.80143,-3.14585 -3.80143,-3.14585c0,0 3.09111,10.3481 1.31092,20.69498c-1.5623,9.48098 -7.29782,17.22543 -7.29782,17.22543l-1.15522,-2.34735c0,0 -1.02266,2.19794 -2.16005,3.33274c-1.1374,1.13479 -3.43873,2.91273 -3.43873,2.91273l-0.09205,-3.70421c0,0 -7.0601,11.01795 -24.35066,10.87154c-16.30625,-0.25547 -26.07151,-10.6752 -26.07151,-10.6752l-0.1162,2.65484c0,0 -3.89477,-3.29276 -6.18145,-9.70754c-2.72545,-7.64567 -3.23946,-12.24324 -3.23946,-12.24324c0,0 -2.33908,1.89916 -5.71704,2.7744c-4.23278,1.09673 -6.94665,0.34526 -6.94665,0.34526c0,0 3.60795,-2.71717 5.58396,-4.76989c1.76007,-1.8284 2.64658,-3.37722 2.64658,-3.37722c0,0 -2.10758,1.0847 -4.23277,1.61795c-2.21739,0.5564 -4.03008,0.53093 -4.03008,0.53093c0,0 4.97492,-5.03728 7.03074,-10.87429c1.94102,-5.51108 2.09972,-10.95731 2.09972,-10.95731c0,0 -1.36165,0.66163 -3.33013,0.79513c-1.24776,0.08463 -2.37785,-0.0489 -2.37785,-0.0489z" fill="#000000" stroke="none" stroke-width="1.5" stroke-linecap="butt"/><path d="M301.6609,114.83945c0.03999,-2.75843 10.02909,-2.61359 9.9891,0.14482c-0.03999,2.75843 -10.02909,2.61359 -9.9891,-0.14482z" fill="#ace894" stroke-opacity="0.25098" stroke="#ace895" stroke-width="8" stroke-linecap="butt"/><path d="M328.88228,114.80779c0,-2.81845 10.2065,-2.81845 10.2065,0c0,2.81845 -10.2065,2.81845 -10.2065,0z" fill="#ace894" stroke-opacity="0.25098" stroke="#ace895" stroke-width="8" stroke-linecap="butt"/><g><path d="M307.00976,170.01497c0.25283,-6.21244 5.49397,-11.04366 11.70641,-10.79083c6.21244,0.25283 11.04366,5.49397 10.79083,11.70641c-0.25283,6.21244 -5.49397,11.04366 -11.70641,10.79083c-6.21244,-0.25283 -11.04366,-5.49397 -10.79083,-11.70641z" fill="#544f57" stroke="none" stroke-width="0.5" stroke-linecap="butt"/><g><path d="M320.21855,124.55548c4.78282,0.26638 9.54134,3.26506 12.75976,7.17087c2.23797,2.8582 1.68431,7.42926 2.07634,11.22073c0.40931,3.96282 -0.19771,7.99664 0.31464,11.82214c0.3385,2.73054 1.31903,5.18071 2.21424,7.66064c0.9492,2.63122 4.31101,5.14843 3.17854,7.69736c-1.41661,3.42133 -5.46919,4.43687 -8.70148,5.23938c-5.05347,1.25379 -10.32613,0.82787 -15.48086,0.74749c-3.56221,-0.24443 -7.11005,-0.77218 -10.5558,-1.73904c-3.20176,-0.89469 -6.58035,-1.63124 -9.32108,-3.69744c-0.98065,-0.75219 -1.25286,-2.8407 -0.80059,-4.26429c0.82707,-2.29404 3.19094,-3.53429 4.28281,-5.85342c1.18957,-2.52615 1.81815,-5.37144 2.44044,-8.15186c0.71923,-3.17071 1.08804,-6.63864 1.73787,-9.9613c0.78252,-3.98698 0.0051,-9.0575 2.58688,-11.93444c3.36973,-3.84121 8.54863,-6.21903 13.26831,-5.95682z" fill="#a8ba9a" stroke="none" stroke-width="0.60142" stroke-linecap="round"/><path d="M336.45876,161.72112c0,0 -2.34508,4.037 -17.96941,3.10198c-16.05654,-0.96089 -17.64646,-4.88434 -17.64646,-4.88434" fill="none" stroke="#6b6570" stroke-width="1.5" stroke-linecap="round"/><path d="M331.85904,135.13071c0,0 -1.59836,2.75155 -12.24766,2.11425c-10.94389,-0.65493 -12.02754,-3.32908 -12.02754,-3.32908" fill="none" stroke="#6b6570" stroke-width="1.5" stroke-linecap="round"/><path d="M340.76824,169.97575c-1.41293,3.33108 -5.46428,4.316 -8.69558,5.09428c-5.05193,1.21592 -10.32481,0.7955 -15.47941,0.71175c-3.56231,-0.24184 -7.11056,-0.75966 -10.55719,-1.70508c-0.5147,-0.14061 -1.03396,-0.27722 -1.5544,-0.41589c-0.54473,-0.60949 -4.48473,-0.59537 -6.55377,-1.66944c-1.88875,-0.98049 -1.93529,-3.07818 -2.11478,-3.14996c-0.18265,-0.82556 -0.15252,-1.77452 0.09333,-2.53058c0.55258,-1.49678 1.7957,-2.53191 2.88357,-3.73138c2.35995,3.81448 6.12873,6.35008 10.46463,6.52654c1.188,0.04835 2.34794,-0.08328 3.46079,-0.37414c2.18446,2.04391 4.92733,3.30932 7.94486,3.43213c3.30608,0.13455 6.39499,-1.12474 8.8559,-3.33089c0.55648,0.10503 1.12506,0.1706 1.70375,0.19415c3.16732,0.1289 6.1353,-1.02149 8.54274,-3.05814c0.91932,1.34197 1.61381,2.67051 1.00556,4.00662z" fill-opacity="0.10588" fill="#000000" stroke="none" stroke-width="0.60142" stroke-linecap="butt"/><path d="M313.41881,127.49582c0.08217,-2.01893 3.14783,-4.86503 6.78061,-4.71719c3.63278,0.14785 6.45703,3.23366 6.37486,5.25258c-0.08217,2.01893 -3.03963,2.20642 -6.67241,2.05858c-3.63278,-0.14785 -6.56523,-0.57505 -6.48306,-2.59397z" fill="#6b6570" stroke="none" stroke-width="0.5" stroke-linecap="butt"/></g></g></g></g></svg>