<svg version="1.1" xmlns="http://www.w3.org/2000/svg" xmlns:xlink="http://www.w3.org/1999/xlink" width="35.12501" height="35.12434" viewBox="0,0,35.12501,35.12434"><g transform="translate(-302.43752,-162.43783)"><g data-paper-data="{&quot;isPaintingLayer&quot;:true}" stroke-miterlimit="10" stroke-dasharray="" stroke-dashoffset="0" style="mix-blend-mode: normal"><path d="M337.56252,169.8317v20.49804c0,4.00745 -3.22497,7.23243 -7.23242,7.23243h-20.5c-3.66107,0 -6.66147,-2.69385 -7.1543,-6.21484c0.7952,3.03475 3.54108,5.26367 6.83204,5.26367h20.0332c3.9166,0 7.07032,-3.15372 7.07032,-7.07031v-20.03321c0,-3.2976 -2.23906,-6.0451 -5.28321,-6.83398c3.52994,0.48496 6.23438,3.49081 6.23438,7.15821z" fill-opacity="0.29839" fill="#000000" fill-rule="evenodd" stroke="none" stroke-width="4.54219" stroke-linecap="round" stroke-linejoin="round"/><path d="M309.50719,162.43783h20.03378c3.9166,0 7.06966,3.15307 7.06966,7.06966v20.03379c0,3.91659 -3.15307,7.06966 -7.06966,7.06966h-20.03378c-3.91659,0 -7.06967,-3.15307 -7.06967,-7.06966v-20.03379c0,-3.91659 3.15308,-7.06966 7.06967,-7.06966z" fill-opacity="0.3451" fill="#bdffa3" fill-rule="evenodd" stroke="none" stroke-width="4.43922" stroke-linecap="round" stroke-linejoin="round"/><g fill-rule="nonzero" stroke-linejoin="miter"><path d="M314.42707,171.63671l8.66278,-3.19475l9.55148,5.78863l-4.61908,11.61944l-2.23507,3.12317l-13.50752,0.50168l-2.17199,-6.08952l2.81287,-8.66673z" fill="#000000" stroke="#000000" stroke-width="1.4" stroke-linecap="round"/><path d="M310.80847,185.38878l5.29779,4.21599l6.93933,-1.47548l5.93952,-3.55812c0,0 -2.3201,7.64815 -4.95914,8.3936c-2.94126,0.83082 -6.80191,1.4849 -9.97787,0.53618c-2.39362,-0.71501 -3.96749,-2.21176 -4.99517,-3.7563c-1.55935,-2.34363 -0.44139,-6.09607 0.25543,-6.73345c0.6798,-0.62184 2.01454,-1.84276 2.01454,-1.84276z" data-paper-data="{&quot;index&quot;:null}" fill="#bdffa3" stroke="#000000" stroke-width="0" stroke-linecap="round"/><path d="M330.7511,174.61121l-5.29778,-4.21599l-6.93933,1.47548l-5.93952,3.55812c0,0 0.16753,-2.68849 0.24216,-3.8864c0.06417,-1.03015 1.20073,-3.35164 2.78678,-3.90042c2.98609,-1.03321 7.97272,-2.31853 11.90807,-1.14297c3.92864,1.17355 5.649,4.45294 6.37059,6.5933c0.38516,1.14243 -0.79975,3.13625 -1.46879,3.74824c-0.70602,0.64582 -2.17658,1.99098 -2.17658,1.99098z" data-paper-data="{&quot;index&quot;:null}" fill="#bdffa3" stroke="#000000" stroke-width="0" stroke-linecap="round"/><path d="M325.39052,170.39044l-9.26909,19.23273" fill="none" stroke="#bdffa3" stroke-width="1.5" stroke-linecap="round"/><path d="M330.69479,174.54768l-7.23737,13.45105" fill="none" stroke="#bdffa3" stroke-width="1.5" stroke-linecap="round"/><path d="M318.30679,171.86031l-7.38408,13.48354" fill="none" stroke="#bdffa3" stroke-width="1.5" stroke-linecap="round"/><path d="M330.64964,174.69667l-5.21231,-4.11453l-1.32418,0.09802c0.14795,-0.77462 0.28231,-1.54666 0.34089,-2.33837c0.05648,-0.76322 0.15831,-1.53454 0.13029,-2.29973c1.00759,0.03868 1.99674,0.17905 2.92715,0.45697c3.92864,1.17355 5.64899,4.45293 6.37057,6.5933c0.38516,1.14243 -0.79975,3.13625 -1.46879,3.74825c-0.70602,0.64582 -2.40348,2.44231 -2.40348,2.44231z" data-paper-data="{&quot;index&quot;:null}" fill="#000000" stroke="#000000" stroke-width="0" stroke-linecap="butt"/><path d="M316.10625,189.60476l6.9873,-2.03626l6.10246,-3.26173c0,0 -2.53101,7.91255 -5.17006,8.65802c-2.94126,0.83082 -6.80191,1.48488 -9.97787,0.53617c-0.66512,-0.19869 -1.26696,-0.45773 -1.81135,-0.76139c1.3145,-0.97784 2.50212,-2.12231 3.52957,-3.40534z" data-paper-data="{&quot;index&quot;:null}" fill="#000000" stroke="#000000" stroke-width="0" stroke-linecap="round"/></g></g></g></svg>