<svg version="1.1" xmlns="http://www.w3.org/2000/svg" xmlns:xlink="http://www.w3.org/1999/xlink" width="59.62363" height="128.14791" viewBox="0,0,59.62363,128.14791"><g transform="translate(-290.05,-79.51551)"><g data-paper-data="{&quot;isPaintingLayer&quot;:true}" fill-rule="nonzero" stroke="none" stroke-linecap="butt" stroke-linejoin="miter" stroke-miterlimit="10" stroke-dasharray="" stroke-dashoffset="0" style="mix-blend-mode: normal"><g><path d="M299.98645,86.64184c0,-2.07107 1.67893,-3.75 3.75,-3.75c2.07107,0 3.75,1.67893 3.75,3.75c0,2.07107 -1.67893,3.75 -3.75,3.75c-2.07107,0 -3.75,-1.67893 -3.75,-3.75z" fill="#000000" stroke-width="0.5"/><path d="M333.48645,85.80851c0,-2.07107 1.67893,-3.75 3.75,-3.75c2.07107,0 3.75,1.67893 3.75,3.75c0,2.07107 -1.67893,3.75 -3.75,3.75c-2.07107,0 -3.75,-1.67893 -3.75,-3.75z" fill="#000000" stroke-width="0.5"/><path d="M292.54499,91.12693c0,-3.21278 2.60448,-5.81725 5.81725,-5.81725c3.21278,0 5.81725,2.60448 5.81725,5.81725c0,3.21278 -2.60448,5.81725 -5.81725,5.81725c-3.21278,0 -5.81725,-2.60448 -5.81725,-5.81725z" fill="#000000" stroke-width="0.5"/><path d="M336.47255,90.46641c0,-3.21278 2.60448,-5.81725 5.81725,-5.81725c3.21278,0 5.81725,2.60448 5.81725,5.81725c0,3.21278 -2.60448,5.81725 -5.81725,5.81725c-3.21278,0 -5.81725,-2.60448 -5.81725,-5.81725z" fill="#000000" stroke-width="0.5"/><path d="M293.12072,191.22026c0.48909,-10.33016 1.20557,-27.19414 1.20557,-37.33959c0,-15.3477 -1.6514,-45.96087 -1.6514,-45.96087c0,0 0.48502,-28.40429 27.48603,-28.40429c27.0085,0 27.53098,28.40429 27.53098,28.40429c0,0 -1.6514,31.16441 -1.6514,46.62143c0,10.01638 0.70852,26.48844 1.1974,36.66165c0.25747,5.35811 2.43573,8.9689 2.43573,8.9689c0,0 -0.00766,0.03539 -0.02806,0.10196c-1.00876,-0.84092 -2.30659,1.29541 -3.72258,1.29541c-2.55666,0 -1.09497,2.97043 -1.87527,5.26312c-1.12964,0.38445 -5.73618,-2.85676 -6.43311,-1.91716c-1.66562,0.20323 -3.11386,1.11044 -4.03813,2.41507c-1.06688,-1.29918 -2.68562,-2.1279 -4.4979,-2.1279c-1.96281,0 -3.69856,0.97211 -4.75209,2.46114c-0.97204,-1.85561 -2.91635,-3.1217 -5.15637,-3.1217c-1.71204,0 -3.25133,0.73958 -4.31582,1.91667c-0.99205,-0.78645 -2.24667,-1.25611 -3.61095,-1.25611c-1.91576,0 -3.61524,0.92608 -4.67519,2.35499c-1.0337,-1.61487 -2.84336,-2.68527 -4.90301,-2.68527c-0.51315,0 -1.01081,0.06646 -1.4848,0.1912c0.02366,-0.21317 0.03583,-0.42983 0.03583,-0.64932c0,-3.21278 -2.60448,-2.84471 -5.81725,-2.84471c-1.30209,0 -2.50428,-2.54475 -3.47364,-1.82203c0.56734,-1.09948 1.9932,-4.25432 2.1955,-8.5269z" fill="#a8ba9a" stroke-width="NaN"/><path d="M329.07857,205.20228c-1.96281,0 -3.69856,0.97211 -4.75209,2.46114c-0.97204,-1.85561 -2.91635,-3.1217 -5.15637,-3.1217c-1.71204,0 -3.25133,0.73958 -4.31582,1.91667c-0.99205,-0.78645 -2.24667,-1.25611 -3.61095,-1.25611c-1.91576,0 -3.61524,0.92608 -4.67519,2.35499c-1.0337,-1.61487 -2.84336,-2.68527 -4.90301,-2.68527c-0.51315,0 -1.01081,0.06646 -1.4848,0.1912c0.02366,-0.21317 0.03583,-0.42983 0.03583,-0.64932c0,-3.21278 -2.60448,-2.84471 -5.81725,-2.84471c-1.30209,0 -2.50428,-2.54475 -3.47364,-1.82203c0.45619,-0.88404 1.46739,-3.09692 1.95132,-6.15119c1.37029,0.09654 2.7537,0.14566 4.14856,0.14566c17.78946,0 33.71386,-7.98513 44.38447,-20.56666c-6.11347,9.20743 -9.67486,20.25604 -9.67486,32.13648c0,0.17771 0.00079,0.3552 0.00237,0.53253c-0.79685,-0.41016 -1.70066,-0.64169 -2.65858,-0.64169z" fill-opacity="0.09804" fill="#000000" stroke-width="NaN"/><path d="M320.16091,79.51551c23.86823,0 27.05143,22.18314 27.46899,27.34162c-7.22735,-12.71081 -19.10551,-22.43225 -33.31957,-26.84943c1.79688,-0.31911 3.74296,-0.49216 5.85057,-0.49216z" fill-opacity="0.09804" fill="#000000" stroke-width="NaN"/><path d="M302.21819,121.30753c-0.54012,0.21605 -0.75617,-0.32407 -0.75617,-0.32407l-0.085,-0.21247c-1.19263,-3.05431 -1.21052,-7.45367 -0.18529,-10.52932c0,0 0.18396,-0.55187 0.73584,-0.36793c0.55187,0.18396 0.36793,0.73584 0.36793,0.73584c-0.93616,2.80848 -0.97609,6.96483 0.16179,9.72931l0.085,0.21249c0,0 0.21605,0.5401 -0.32407,0.75615z" fill-opacity="0.09804" fill="#000000" stroke-width="0.5"/><path d="M347.23789,191.20286c0.25747,5.35811 2.43573,8.9689 2.43573,8.9689c0,0 -0.00766,0.03539 -0.02806,0.10196c-1.00876,-0.84092 -2.30659,1.29541 -3.72258,1.29541c-2.55666,0 -1.09497,2.97043 -1.87527,5.26312c-1.12964,0.38445 -5.73618,-2.85676 -6.43311,-1.91716c-1.66562,0.20323 -3.11386,1.11044 -4.03813,2.41507c-1.06688,-1.29918 -2.68562,-2.1279 -4.4979,-2.1279c-1.96281,0 -3.69856,0.97211 -4.75209,2.46114c-0.97204,-1.85561 -2.91635,-3.1217 -5.15637,-3.1217c-1.71204,0 -3.25133,0.73958 -4.31582,1.91667c-0.99205,-0.78645 -2.24667,-1.25611 -3.61095,-1.25611c-1.91576,0 -3.61524,0.92608 -4.67519,2.35499c-1.0337,-1.61487 -2.84336,-2.68527 -4.90301,-2.68527c-0.51315,0 -1.01081,0.06646 -1.4848,0.1912c0.02366,-0.21317 0.03583,-0.42983 0.03583,-0.64932c0,-3.21278 -2.60448,-2.84471 -5.81725,-2.84471c-1.30209,0 -2.50428,-2.54475 -3.47364,-1.82203c0.14639,-0.28365 0.3499,-0.70412 0.57479,-1.24529c5.51818,1.73659 11.39113,2.67291 17.48277,2.67291c14.5523,0 27.85659,-5.34345 38.05781,-14.17534c0.06806,1.48701 0.13445,2.89713 0.19723,4.20343z" fill-opacity="0.09804" fill="#000000" stroke-width="NaN"/><path d="M302.90636,115.96313c0,-5.40169 3.3801,-12.10754 6.59288,-12.10754c3.21278,0 7.36853,5.93022 7.36853,11.33191c0,5.40169 -3.3801,11.33191 -6.59288,11.33191c-3.21278,0 -7.36853,-5.15457 -7.36853,-10.55626z" fill-opacity="0.09804" fill="#000000" stroke-width="0.5"/><path d="M323.49897,115.18748c0,-5.40169 4.15575,-11.33191 7.36853,-11.33191c3.21278,0 6.59288,6.70585 6.59288,12.10754c0,5.40169 -4.15575,10.55626 -7.36853,10.55626c-3.21278,0 -6.59288,-5.93022 -6.59288,-11.33191z" fill-opacity="0.09804" fill="#000000" stroke-width="0.5"/></g><path d="" fill-opacity="0.09804" fill="#000000" stroke-width="0.5"/><g stroke-width="0.5"><path d="M302.65591,93.42759c2.40185,0 4.46372,1.45564 5.35157,3.53284c0.98488,-0.76522 2.22226,-1.22086 3.56607,-1.22086c0.66903,0 1.3117,0.11295 1.90994,0.32081c1.066,-1.20931 2.62661,-1.97221 4.36543,-1.97221c2.10373,0 3.94663,1.1167 4.96831,2.78967c0.42015,-0.09645 0.85765,-0.14743 1.30707,-0.14743c1.88779,0 3.56553,0.89921 4.62832,2.29267c0.67606,-2.46396 2.93183,-4.27438 5.61044,-4.27438c1.29813,0 2.49695,0.42519 3.46478,1.14393c0.78621,-2.10987 2.76192,-3.64047 5.11171,-3.77636c0.49915,2.87399 1.18907,2.34626 2.58027,4.79403c1.3912,2.44777 1.35985,5.22591 1.44417,5.3448c-1.02979,0.92387 -2.19091,1.48584 -3.68328,1.48584c-1.29813,0 -2.49695,-0.42519 -3.46478,-1.14393c-0.82398,2.21123 -2.95449,3.78619 -5.45286,3.78619c-1.88779,0 -7.56015,1.98171 -10.23876,1.98171c-2.10373,0 -3.94663,-1.1167 -4.96831,-2.78967c-0.42015,0.09645 -0.85765,0.14743 -1.30707,0.14743c-0.66903,0 -1.3117,-0.11295 -1.90994,-0.32081c-1.066,1.20931 -2.62661,1.97221 -4.36543,1.97221c-1.5314,0 -2.92459,-0.59175 -3.96339,-1.55905c-1.0388,0.96732 -2.43198,1.55905 -3.96339,1.55905c-2.69076,0 -4.95483,-1.82687 -5.61954,-4.30793c-0.61719,0.22299 -1.28287,0.34454 -1.97696,0.34454c-0.91465,0 -1.78001,-0.2111 -2.55,-0.58722c0.78844,-5.42685 0.90285,-4.36751 0.90285,-6.68162c0,-1.36982 -0.11017,-2.71391 -0.32214,-4.02389c0.61502,-0.22123 1.27807,-0.34177 1.96928,-0.34177c1.7831,0 3.37885,0.80227 4.44594,2.06552c0.66775,-0.26715 1.39656,-0.4141 2.15971,-0.4141z" fill-opacity="0.09804" fill="#000000"/><path d="M302.65591,90.59425c2.40185,0 4.46372,1.45564 5.35157,3.53284c0.98488,-0.76522 2.22226,-1.22086 3.56607,-1.22086c0.66903,0 1.3117,0.11295 1.90994,0.32081c1.066,-1.20931 2.62661,-1.97221 4.36543,-1.97221c2.10373,0 3.94663,1.1167 4.96831,2.78967c0.42015,-0.09645 0.85765,-0.14743 1.30707,-0.14743c1.88779,0 3.56553,0.89921 4.62832,2.29267c0.67606,-2.46396 2.93183,-4.27438 5.61044,-4.27438c1.29813,0 2.49695,0.42519 3.46478,1.14393c0.82398,-2.21123 2.95449,-3.78619 5.45286,-3.78619c3.21278,0 5.81725,2.60448 5.81725,5.81725c0,3.21278 -2.60448,5.81725 -5.81725,5.81725c-1.29813,0 -2.49695,-0.42519 -3.46478,-1.14393c-0.82398,2.21123 -2.95449,3.78619 -5.45286,3.78619c-1.88779,0 -3.56553,-0.89921 -4.62832,-2.29267c-0.67606,2.46396 -2.93183,4.27438 -5.61044,4.27438c-2.10373,0 -3.94663,-1.1167 -4.96831,-2.78967c-0.42015,0.09645 -0.85765,0.14743 -1.30707,0.14743c-0.66903,0 -1.3117,-0.11295 -1.90994,-0.32081c-1.066,1.20931 -2.62661,1.97221 -4.36543,1.97221c-1.5314,0 -2.92459,-0.59175 -3.96339,-1.55905c-1.0388,0.96732 -2.43198,1.55905 -3.96339,1.55905c-2.69076,0 -4.95483,-1.82687 -5.61954,-4.30793c-0.61719,0.22299 -1.28287,0.34454 -1.97696,0.34454c-3.21278,0 -5.81725,-2.60448 -5.81725,-5.81725c0,-3.21278 2.60448,-5.81725 5.81725,-5.81725c1.7831,0 3.37885,0.80227 4.44594,2.06552c0.66775,-0.26715 1.39656,-0.4141 2.15971,-0.4141z" fill="#1a090d"/><path d="M290.05,94.78738c0,-2.34586 1.38855,-4.36743 3.3886,-5.28758c-0.80948,0.9994 -1.29439,2.27245 -1.29439,3.65875c0,3.21278 2.60448,5.81725 5.81725,5.81725c0.86691,0 -0.26773,1.62883 -2.09421,1.62883c-3.21278,0 -5.81725,-2.60448 -5.81725,-5.81725z" fill="#4a314d"/><path d="M343.67045,101.30272c-1.82648,0 -3.45636,-0.84176 -4.52284,-2.1585c0.73912,0.34003 1.56172,0.52967 2.42863,0.52967c3.21278,0 5.81725,-2.60448 5.81725,-5.81725c0,-1.3863 -0.48493,-2.65935 -1.29441,-3.65875c2.00004,0.92015 3.38862,2.94171 3.38862,5.28758c0,3.21278 -2.60448,5.81725 -5.81725,5.81725z" data-paper-data="{&quot;index&quot;:null}" fill="#ace894"/><path d="M334.82822,104.095c-1.82648,0 -3.45636,-0.84176 -4.52287,-2.1585c0.73912,0.34003 1.56172,0.52967 2.42863,0.52967c3.21278,0 5.81725,-2.60448 5.81725,-5.81725c0,-1.3863 -0.48493,-2.65935 -1.29439,-3.65875c2.00004,0.92015 3.38862,2.94171 3.38862,5.28758c0,3.21278 -2.60448,5.81725 -5.81725,5.81725z" data-paper-data="{&quot;index&quot;:null}" fill="#4a314d"/><path d="M296.79801,99.20849c0,-2.34586 1.38855,-4.36741 3.38862,-5.28758c-0.80946,0.9994 -1.29441,2.27245 -1.29441,3.65875c0,3.21278 2.60448,5.81725 5.81725,5.81725c0.86691,0 2.35621,-0.18964 3.0953,-0.52967c-1.06649,1.31675 -3.36304,2.1585 -5.18951,2.1585c-3.21278,0 -5.81725,-2.60448 -5.81725,-5.81725z" fill="#6b6570"/><path d="M305.21353,100.15779c-0.42871,-2.30635 0.56702,-4.54762 2.36522,-5.81781c-0.61318,1.1305 -0.8573,2.47073 -0.60395,3.83369c0.58715,3.15867 3.62373,5.24332 6.7824,4.65617c0.85232,-0.15844 2.29308,-0.49521 2.95762,-0.96459c-0.8079,1.48947 -2.92316,2.61492 -4.71887,2.94872c-3.15867,0.58715 -6.19526,-1.4975 -6.7824,-4.65617z" fill="#ace894"/><path d="M311.69018,97.34692c0,-3.21278 2.60448,-5.81725 5.81725,-5.81725c3.21278,0 5.81725,2.60448 5.81725,5.81725c0,3.21278 -2.60448,5.81725 -5.81725,5.81725c-3.21278,0 -5.81725,-2.60448 -5.81725,-5.81725z" fill="#6b6570"/><path d="M319.83432,94.08931c0,-3.21278 2.60448,-5.81725 5.81725,-5.81725c3.21278,0 5.81725,2.60448 5.81725,5.81725c0,3.21278 -2.60448,5.81725 -5.81725,5.81725c-3.21278,0 -5.81725,-2.60448 -5.81725,-5.81725z" fill="#6b6570"/><path d="M318.2055,100.83727c0,-3.21278 2.60448,-5.81725 5.81725,-5.81725c3.21278,0 5.81725,2.60448 5.81725,5.81725c0,3.21278 -2.60448,5.81725 -5.81725,5.81725c-3.21278,0 -5.81725,-2.60448 -5.81725,-5.81725z" fill="#6b6570"/><path d="M314.01707,90.1336c0,-3.21278 2.60448,-5.81725 5.81725,-5.81725c3.21278,0 5.81725,2.60448 5.81725,5.81725c0,3.21278 -2.60448,5.81725 -5.81725,5.81725c-3.21278,0 -5.81725,-2.60448 -5.81725,-5.81725z" fill="#6b6570"/><path d="M317.22269,93.57601c0.24558,0.03162 0.49593,0.04791 0.75012,0.04791c2.24886,0 4.19966,-1.2761 5.16784,-3.14367c0.80627,0.91806 1.89705,1.58006 3.13461,1.84823c-0.68544,0.95442 -1.08906,2.1249 -1.08906,3.38964c0,0.84529 0.18029,1.64845 0.5045,2.37316c-0.24144,-0.03053 -0.48749,-0.04626 -0.73719,-0.04626c-1.86133,0 -3.51848,0.87419 -4.58327,2.23438c-0.15339,-0.07274 -0.3031,-0.15197 -0.44877,-0.23737c0.09526,-0.41766 0.14557,-0.85244 0.14557,-1.29895c0,-2.14112 -1.15675,-4.01207 -2.8794,-5.02199c0.01108,-0.04861 0.02278,-0.09699 0.03507,-0.14511z" fill="#1a090d"/></g><g fill="#1a090d" stroke-width="0.5"><path d="M328.95589,141.88311l0.29642,0.00002c0.28535,0.04451 0.86386,-0.86256 0.9635,-1.21979c0.59757,-2.14239 -0.36662,-2.92867 -0.99996,-4.76034c-0.55843,-2.2697 -2.85534,-3.24588 -3.10002,-5.62313c-0.02447,-0.23781 -0.31493,0.36017 -0.48318,0.53001c-1.18007,1.06709 -2.22502,-0.75861 -2.75835,-1.44046c-0.33506,-0.42838 -0.98611,0.47274 -1.51063,0.61645c-1.31705,0.36085 -2.61452,0.52347 -3.90347,0.97821c-0.27844,-0.52539 -0.51381,-1.27311 -1.33188,-1.09169c-0.39495,0.08758 -0.90594,1.48846 -1.15948,1.82921c-0.98845,1.32842 -2.82205,1.97906 -3.69382,3.45182c-0.83465,1.64626 -3.5136,7.35104 0.6209,7.33293c1.0668,0.34512 2.08196,1.14025 3.2,1.3c1.8573,0.26538 3.82067,-0.14944 5.6941,0.05352c2.80331,0.30567 5.54725,0.0806 7.91586,-1.70675c0,-0.25 0.25,-0.25 0.25,-0.25zM329.00589,142.53311c-2.4799,1.84971 -5.3343,2.12379 -8.27005,1.80381c-1.8829,-0.20661 -3.85126,0.20989 -5.72,-0.05704c-1.126,-0.16083 -2.13955,-0.93372 -3.2,-1.3c-4.62327,-0.01931 -1.9393,-6.11594 -0.97911,-8.06707c0.83119,-1.36999 2.34,-2.06763 3.46248,-3.13781c0.60624,-0.57798 0.74863,-1.48852 1.26555,-2.10305c0.55235,-0.65664 2.37982,-0.08752 2.08679,0.83019c0.98618,-0.88952 2.80775,-0.72732 4.0351,-1.15882c0.18797,-0.06608 1.1692,-0.54586 1.3508,-0.44653c0.34174,0.18691 1.45905,2.51927 2.24165,1.55954c0.11816,-0.11722 0.76706,-0.72646 0.91683,-0.67c0.60836,0.22938 0.74002,1.77117 0.97899,2.22015c0.87419,1.64247 2.00893,1.74726 2.521,3.75672c0.42458,1.34483 2.87981,6.27217 -0.43646,6.61987l-0.1538,0.00001c-0.0224,0.09199 -0.09977,0.15001 -0.09977,0.15001z" data-paper-data="{&quot;index&quot;:null}"/><path d="M317.45,130.03311c0,-0.25 0.25,-0.25 0.25,-0.25h0.3c1.15645,0.01436 2.23044,-0.29699 3.42322,-0.02678c-0.25571,-1.07862 1.02362,-1.48841 1.80821,-0.93589c0.5333,0.37557 0.12772,2.04629 0.73678,1.81282c0.67155,-0.25743 0.09214,-1.36171 0.51555,-1.62149c0.45066,-0.27649 2.01291,1.48442 2.31012,1.8091c2.03551,2.22364 5.04455,5.16292 4.94484,8.32668c-0.05803,1.56563 -2.51419,6.52709 -4.6344,5.81652c-0.42509,-0.14247 -0.84308,-0.92172 -1.1874,-1.21576c-1.72388,-1.50873 -6.6554,0.53479 -8.81693,0.53479c-2.52102,0 -7.63931,0.74696 -9.29259,-1.71638c-0.14368,-0.17949 -0.97015,-0.79432 -1.02549,-0.91137c-0.27456,-0.58077 0.4227,-1.59153 0.67086,-2.08684c0.43802,-0.87428 0.43998,-1.89281 1.28781,-2.52233c1.12342,-0.83413 1.88933,-1.08007 2.27118,-2.58c0.59245,-0.99844 1.09177,-2.1463 1.683,-3.07586c1.08192,-1.70103 2.95522,0.11593 2.95522,-2.35723c0,0 0,-0.25 0.25,-0.25c0.25,0 0.25,0.25 0.25,0.25c0,2.8782 -2.05948,0.93745 -3.04478,2.64277c-0.54602,0.94504 -1.0347,1.99994 -1.6315,2.98164c-0.51577,2.10704 -2.52208,2.74932 -3.34169,4.66865c-0.13798,0.32311 -1.11603,1.75454 -0.91396,2.08469c0.12018,0.19637 0.79669,0.6162 0.99921,0.8695c1.15732,2.27374 6.84789,1.50275 8.88272,1.50275c2.40679,0 7.15438,-2.08925 9.14233,-0.41442c0.36281,0.31203 0.66263,0.88778 1.05334,1.13345c0.1436,0.09029 1.18908,-0.74153 1.35122,-0.86666c1.36805,-1.05579 2.52891,-2.7328 2.59216,-4.5061c0.12107,-2.99027 -2.89322,-5.87262 -4.81398,-7.9709c-0.39711,-0.43381 -0.80063,-0.79604 -1.25334,-1.1735c-0.09763,-0.0814 -0.26987,-0.28397 -0.38143,-0.4229c0.28731,0.5396 -0.24499,1.54318 -0.83928,1.57089c-0.37672,0.01756 -1.78641,-4.05034 -2.17425,-1.02308c-1.21035,0.13095 -2.57992,0.16186 -3.77678,0.17322h-0.3c0,0 -0.25,0 -0.25,-0.25z"/></g><path d="M336.03179,117.43157c0.49001,-1.46236 0.68063,-3.08961 0.50134,-4.54553c-0.43001,-1.92715 -1.28279,-4.67644 -2.93927,-5.86477c1.04162,2.05339 1.13047,4.48219 1.23682,6.82622c0.12832,0.65774 0.25468,1.3619 0.42606,2.12011c0.04094,0.18442 0.07789,0.40265 0.10902,0.64595c0.2244,0.2587 0.48599,0.48051 0.66602,0.81799zM325.10458,110.51833c-0.1318,0.24334 -0.25013,0.49644 -0.35361,0.75899c-0.98867,2.45864 0.40306,6.80529 1.22411,9.21608c0.39043,0.85975 0.85748,1.55935 1.3983,2.0976c-1.05546,-1.43139 -1.78925,-3.40676 -2.059,-4.60898c-0.51909,-2.33785 -0.164,-4.62881 -0.17472,-6.99421c-0.00073,-0.16096 -0.01433,-0.31688 -0.03507,-0.4695zM331.45182,123.87806c0.45162,-0.05948 0.92375,-0.16833 1.41591,-0.32673c0.26818,-0.12487 0.57277,-0.36019 0.88217,-0.67082c-0.65602,0.23144 -1.52919,0.40169 -2.04595,0.81358c-0.08452,0.06684 -0.16857,0.1281 -0.25211,0.18397zM335.77754,118.11058c-0.02662,-0.11468 -0.06316,-0.22454 -0.11043,-0.3286c-0.06663,-0.1467 -0.14455,-0.27323 -0.22826,-0.3884c0.02776,0.43837 0.03747,0.91594 0.02246,1.40048c0.11325,-0.22068 0.21879,-0.44905 0.31625,-0.68349zM334.90349,116.75915c-0.19602,-0.2439 -0.36367,-0.52284 -0.43523,-0.94601c-0.05416,-0.65934 -0.0845,-1.3371 -0.11514,-2.02153c-0.41609,-2.18245 -0.93052,-3.82223 -3.55037,-5.24219c-0.92408,-0.50086 -1.52392,-1.07813 -2.28833,-1.23854c-1.21293,0.59968 -2.29079,1.48782 -3.05838,2.62736c0.07633,0.34726 0.1591,0.69748 0.16192,1.05121c0.0186,2.32787 -0.34861,4.58268 0.16219,6.8832c0.46957,2.09266 2.7347,7.74871 5.63166,5.423c0.64341,-0.51203 2.3676,-0.78444 2.70032,-1.14793c0.91683,-1.00167 0.99179,-3.74404 0.79134,-5.38857zM334.21654,111.49964c-0.13616,-1.52296 -0.40671,-3.0145 -1.07743,-4.3456c-0.73103,-0.46291 -2.29754,-0.26555 -3.6416,-0.10348c0.53059,0.35378 1.08129,0.81649 1.52252,1.05564c1.83469,0.9944 2.6924,2.09178 3.19649,3.39344zM326.20627,106.9393c-0.35914,0.11608 -0.70189,1.36695 -0.8291,1.6724c-0.00425,0.01737 -0.00817,0.03477 -0.01181,0.05216c0.62484,-0.1486 0.94722,-1.09644 1.58552,-1.67493c-0.27349,-0.06909 -0.54116,-0.11539 -0.74461,-0.04963zM327.41509,107.36952c-0.0505,0.01438 -0.10196,0.03035 -0.15444,0.04803c-0.34045,0.11462 -0.61585,0.41584 -0.87754,0.73724c0.32381,-0.28786 0.66941,-0.55001 1.03199,-0.78526zM324.87513,109.11961c-0.05751,-0.03974 -0.11344,-0.11228 -0.09443,-0.24157c0.01353,-0.09224 0.05507,-0.14437 0.10178,-0.17352c0.00856,-0.08374 0.02187,-0.16858 0.04083,-0.25482c0.19659,-0.47692 0.52796,-1.75011 1.06333,-1.95643c0.45917,-0.17696 1.01652,0.04773 1.51742,0.14716c0.30052,-0.11414 0.66191,-0.14267 1.11274,-0.03146c0.04607,0.01135 0.09307,0.02571 0.14089,0.04273c0.00106,-0.00009 0.00212,-0.00016 0.00316,-0.00025c0.85623,-0.36791 1.76535,-0.60346 2.67869,-0.69458c3.39937,-0.33035 4.92285,3.94272 5.56433,6.84477c0.21715,1.74614 -0.06498,3.7039 -0.74047,5.39051c0.276,2.1033 -1.78378,5.15978 -3.22407,5.82731c-3.40395,1.10236 -6.01669,-0.04847 -7.50596,-3.33845c-0.87857,-2.56947 -2.2536,-6.97628 -1.22446,-9.59867c0.18197,-0.45551 0.40512,-0.88463 0.66331,-1.28585c-0.04425,-0.22466 -0.0835,-0.44819 -0.09708,-0.67686zM335.77363,119.23865c-0.05919,0.10906 -0.12021,0.21623 -0.18305,0.32141l-0.07152,0.11932c0,0 -0.04529,0.07557 -0.12519,0.1075c-0.03662,0.33842 -0.08785,0.66932 -0.15598,0.98135c0.25162,-0.50792 0.44384,-1.03293 0.53575,-1.52958zM325.33061,109.14142c0.00197,0.04413 0.00513,0.08831 0.00932,0.13252c0.05454,-0.0711 0.11024,-0.14116 0.16704,-0.21019c-0.05706,0.03245 -0.11572,0.05872 -0.17636,0.07767z" data-paper-data="{&quot;index&quot;:null}" fill="#1a090d" stroke-width="0.5"/><path d="M304.13953,117.90697c0.18557,-0.33448 0.45077,-0.55196 0.6794,-0.80692c0.03513,-0.24276 0.07566,-0.46035 0.11963,-0.64407c0.18384,-0.75528 0.32178,-1.45727 0.4609,-2.11281c0.14492,-2.34196 0.27376,-4.76897 1.34904,-6.80492c-1.67582,1.1609 -2.57375,3.89578 -3.03543,5.81559c-0.20323,1.45278 -0.03943,3.08294 0.42644,4.55317zM315.17907,111.17458c-0.02324,0.15226 -0.03942,0.30793 -0.0428,0.46885c-0.04966,2.3649 0.26767,4.6614 -0.28984,6.99039c-0.28951,1.19761 -1.05571,3.16064 -2.1346,4.57445c0.5496,-0.52927 1.0281,-1.22109 1.43263,-2.0743c0.86062,-2.39695 2.32373,-6.72009 1.37567,-9.19467c-0.09914,-0.26422 -0.21329,-0.51923 -0.34107,-0.7647zM308.6127,124.42801c-0.08261,-0.05724 -0.16564,-0.11987 -0.24904,-0.18809c-0.5099,-0.42034 -1.38016,-0.60494 -2.03227,-0.84716c0.30423,0.31568 0.60492,0.55598 0.87101,0.68525c0.48948,0.16648 0.95975,0.28309 1.41034,0.35zM304.38253,118.59009c0.09359,0.23601 0.19535,0.46608 0.30495,0.6886c-0.00702,-0.48473 0.01054,-0.96207 0.04552,-1.39993c-0.0856,0.11379 -0.16558,0.23901 -0.23462,0.38459c-0.04898,0.10328 -0.08732,0.21251 -0.11582,0.32675zM305.27874,117.25323c-0.22751,1.64101 -0.1977,4.38424 0.70252,5.40087c0.32669,0.36892 2.04617,0.66968 2.68106,1.19223c2.85828,2.37309 5.21622,-3.2449 5.72018,-5.32955c0.54861,-2.2918 0.21858,-4.55235 0.27549,-6.87959c0.00865,-0.35363 0.09716,-0.70244 0.1792,-1.0484c-0.74872,-1.15202 -1.8118,-2.05779 -3.01471,-2.67735c-0.76694,0.14781 -1.3762,0.71512 -2.3084,1.2007c-2.64287,1.37664 -3.18423,3.00772 -3.63619,5.18303c-0.0419,0.68384 -0.08338,1.36101 -0.1484,2.01937c-0.07852,0.42193 -0.25076,0.69808 -0.45075,0.93871zM306.05219,112.00575c0.52546,-1.29318 1.40112,-2.37629 3.25193,-3.34035c0.44512,-0.23186 1.00335,-0.68544 1.53969,-1.03043c-1.34121,-0.18417 -2.90425,-0.40729 -3.6428,0.04352c-0.69254,1.31987 -0.98762,2.80675 -1.14883,4.32727zM313.39111,107.61528c0.62868,0.58892 0.93542,1.54194 1.55772,1.70081c-0.00334,-0.01744 -0.00699,-0.03491 -0.01095,-0.05235c-0.12215,-0.30751 -0.44427,-1.56386 -0.80145,-1.68583c-0.20234,-0.0691 -0.47074,-0.02721 -0.74533,0.03737zM312.92069,107.98817c0.35866,0.24119 0.6999,0.50898 1.01892,0.80214c-0.25636,-0.32567 -0.52678,-0.63138 -0.86529,-0.75159c-0.05219,-0.01854 -0.10337,-0.03537 -0.15363,-0.05057zM315.43151,109.77984c-0.01735,0.22843 -0.06028,0.45127 -0.10822,0.67517c0.25154,0.40541 0.46759,0.83815 0.64204,1.29659c0.98583,2.63898 -0.46157,7.02256 -1.38232,9.57722c-1.54323,3.26502 -4.17457,4.37268 -7.5599,3.21442c-1.42911,-0.69115 -3.43829,-3.78112 -3.1277,-5.8796c-0.64763,-1.6975 -0.8975,-3.65964 -0.65162,-5.40197c0.68918,-2.89109 2.2828,-7.13851 5.67627,-6.75223c0.91172,0.10615 1.81684,0.35662 2.66689,0.73859c0.00105,0.00011 0.0021,0.0002 0.00316,0.00031c0.0481,-0.01622 0.09533,-0.0298 0.14159,-0.0404c0.4526,-0.10377 0.81346,-0.0693 1.11207,0.04977c0.50247,-0.09118 1.06344,-0.30666 1.51964,-0.12217c0.5319,0.21512 0.84227,1.49359 1.03097,1.97368c0.01753,0.08653 0.02945,0.17158 0.03663,0.25546c0.04623,0.0299 0.0869,0.08271 0.09891,0.17517c0.01687,0.12958 -0.04024,0.2012 -0.09839,0.23998zM304.36787,119.71808c0.08372,0.49809 0.26728,1.02619 0.51049,1.53819c-0.06299,-0.31311 -0.10876,-0.64481 -0.1398,-0.98378c-0.07937,-0.03324 -0.12341,-0.10956 -0.12341,-0.10956l-0.06955,-0.12048c-0.0611,-0.10619 -0.12035,-0.21435 -0.17773,-0.32437zM314.80066,109.71358c0.05566,0.06996 0.11019,0.14093 0.16356,0.21291c0.00492,-0.04413 0.00882,-0.08826 0.01151,-0.13235c-0.06033,-0.01993 -0.11854,-0.04719 -0.17507,-0.08056z" fill="#1a090d" stroke-width="0.5"/></g></g></svg>