<svg version="1.1" xmlns="http://www.w3.org/2000/svg" xmlns:xlink="http://www.w3.org/1999/xlink" width="639.63018" height="333.57581" viewBox="0,0,639.63018,333.57581"><g transform="translate(0.06508,-31.33335)"><g data-paper-data="{&quot;isPaintingLayer&quot;:true}" fill-rule="nonzero" stroke-linejoin="miter" stroke-miterlimit="10" stroke-dasharray="" stroke-dashoffset="0" style="mix-blend-mode: normal"><g stroke="none" stroke-width="0" stroke-linecap="butt"><path d="M320.1601,310.78355v-278.9336h223.98643v278.9336z" fill="#413927"/><g data-paper-data="{&quot;index&quot;:null}" fill-opacity="0.04706" fill="#000000"><path d="M544.14652,72.8157c-13.5795,-9.77817 -111.31722,-11.40878 -121.17142,11.5031c-8.37842,-24.66957 -94.57187,-29.44171 -102.81499,-27.1157v-25.35315h223.98643z"/><path d=""/><path d="M320.1601,310.78355v-67.13511c13.86908,13.03602 120.08876,5.42951 130.43756,-16.81874c35.77965,4.37233 84.71196,1.34182 93.54886,-9.39742v93.35126z"/></g></g><g stroke="none" stroke-width="0" stroke-linecap="butt"><path d="M95.01912,310.78355v-278.9336h223.98643v278.9336z" fill="#a89d84"/><g fill-opacity="0.04706" fill="#000000"><path d="M95.01912,31.84997h223.98643v25.35315c-8.24313,-2.32601 -94.43657,2.44613 -102.81499,27.1157c-9.8542,-22.91188 -107.59193,-21.28127 -121.17142,-11.5031z"/><path d=""/><path d="M95.01912,310.78355v-93.35126c8.8369,10.73924 57.76922,13.76975 93.54886,9.39742c10.3488,22.24825 116.56848,29.85476 130.43756,16.81874v67.13511z"/></g></g><g stroke="none" stroke-width="0" stroke-linecap="butt"><path d="M103.27653,310.78355v-278.9336h215.75026v278.9336z" fill="#b0a58b"/><g fill-opacity="0.04706" fill="#000000"><path d="M103.27653,31.84997h215.75026v25.35315c-7.94002,-2.32601 -90.96406,2.44613 -99.0344,27.1157c-9.49186,-22.91188 -103.63569,-21.28127 -116.71584,-11.5031z"/><path d=""/><path d="M103.27653,310.78355v-93.35126c8.51196,10.73924 55.64499,13.76975 90.109,9.39742c9.96827,22.24825 112.28216,29.85476 125.64126,16.81874v67.13511z"/></g></g><g stroke="none" stroke-width="0" stroke-linecap="butt"><path d="M119.51913,310.78355v-278.9336h199.54941v278.9336z" fill="#b9ad92"/><g fill-opacity="0.04706" fill="#000000"><path d="M119.51913,31.84997h199.54941v25.35315c-7.3438,-2.32601 -84.13351,2.44613 -91.59783,27.1157c-8.77911,-22.91188 -95.8536,-21.28127 -107.95156,-11.5031z"/><path d=""/><path d="M119.51913,310.78355v-93.35126c7.87279,10.73924 51.46657,13.76975 83.34264,9.39742c9.21974,22.24825 103.85081,29.85476 116.20677,16.81874v67.13511z"/></g></g><g data-paper-data="{&quot;index&quot;:null}"><path d="M75.59312,242.82354l9.32149,-11.51575l6.71148,-27.14425l14.54153,-21.38637h7.08433l4.84717,7.81425l-2.61002,18.09617l-3.72859,13.57212l-5.96575,15.21723l2.61002,25.49915l-2.61002,12.74957l-10.81294,17.27361v16.86234l-30.20165,43.18403l-7.08433,11.10447l-56.30183,-1.23383l27.21876,-37.01488l13.42295,-16.03978l5.22004,-13.16085l3.72859,-17.68488l1.49144,-41.53893l0.74572,-10.69318v-13.57212l5.5929,-6.16915l29.08307,-30.43445l6.71148,-2.05639l-0.37286,25.08787l-3.35574,4.93532l-4.47432,20.56382l-1.49144,6.16915z" fill="#ffffff" stroke="none" stroke-width="0" stroke-linecap="round"/><path d="M75.5931,242.82354l9.32149,-11.51575l6.71148,-27.14425l14.54153,-21.38637h7.08433l4.84717,7.81425l-2.61002,18.09617l-3.72859,13.57212l-5.96575,15.21723l2.61002,25.49915l-2.61002,12.74957l-10.81294,17.27361v16.86234l-30.20165,43.18403l-7.08433,11.10447l-56.30183,-1.23383l27.21876,-37.01488l13.42295,-16.03978l5.22004,-13.16085l3.72859,-17.68488l1.49144,-41.53893l0.74572,-10.69318v-13.57212l5.5929,-6.16915l29.08307,-30.43445l6.71148,-2.05639l-0.37286,25.08787l-3.35574,4.93532l-4.47432,20.56382l-1.49144,6.16915z" fill="none" stroke="#000000" stroke-width="1.5" stroke-linecap="round"/><path d="M106.13032,182.48929h6.93519l5.25732,7.93764l-6.56234,15.79302h-3.35574l-7.4572,-2.46766l-1.8643,-3.70149l5.22004,-14.39468z" fill-opacity="0.01176" fill="#000000" stroke="#000000" stroke-width="1.5" stroke-linecap="round"/><path d="M75.47737,241.83178c-2.59645,-1.14559 2.43891,-10.43302 3.86154,-12.38207c1.20235,-1.64726 8.91263,-31.38037 10.09668,-32.90136c0.00454,-6.43979 0.27959,-12.83871 0.27959,-19.272c0,0 0,-3.08457 2.79645,-3.08457c2.79645,0 2.79645,3.08457 2.79645,3.08457c0,6.48783 -0.27964,12.9385 -0.27964,19.43281v0.26546c0.23931,1.33615 -0.55929,2.51066 -0.55929,2.51066c-1.04664,1.53712 -2.57353,2.70542 -3.35369,4.42443c-0.50654,1.1161 -0.18033,4.6588 -0.30643,5.54717c-0.363,2.55726 -1.79888,4.78153 -2.68019,7.18047c-0.69472,1.89099 -0.79736,3.98861 -1.32802,5.94321c-0.79662,2.93412 -1.28995,8.04937 -2.92875,10.48252c-1.33851,1.9873 -3.57376,2.99955 -5.29145,4.59312l-0.81051,2.45722z" fill-opacity="0.10196" fill="#000000" stroke="none" stroke-width="0.5" stroke-linecap="butt"/><path d="M95.30809,306.8284c0,0 0,0.70819 -0.30763,1.4459c0.48493,1.87757 -1.09059,3.18096 -1.09059,3.18096c-1.46697,1.15621 -2.32338,3.04229 -3.51627,4.53352c-1.30568,1.63225 -3.11443,2.10132 -4.21636,3.95057c-1.15924,1.94542 -1.08032,4.59499 -2.26432,6.5222c-0.84871,1.38148 -2.01283,2.50029 -3.28243,3.52896c-0.10761,0.36568 -0.27545,0.70141 -0.49063,0.99294l-2.22324,3.06539l-0.22941,-0.20243c-0.39069,0.91347 -0.84581,1.78605 -1.39497,2.59392l-0.67816,1.27854c0,0 -0.37261,0.68501 -1.05463,1.14866c-0.46034,0.84987 -0.91621,1.74433 -1.40083,2.74264c-1.73531,3.57466 -4.60397,6.47266 -6.93294,9.69311c-0.76891,1.29178 -1.54895,2.58158 -2.34179,3.85855c-1.00027,1.8545 -2.37228,4.40312 -2.44581,4.46034c-0.09488,0.07382 -0.19075,0.14572 -0.28758,0.21578l0.06078,0.06705l-2.79645,3.08457c-0.50606,0.5582 -1.20724,0.84114 -1.97739,0.90345c-9.15077,0.7403 38.87064,-74.2971 38.87064,-71.00689c0,3.29022 0,10.65206 0,13.94227z" fill-opacity="0.10196" fill="#000000" stroke="none" stroke-width="0.5" stroke-linecap="butt"/></g><g><path d="M554.58543,231.30778l-1.49144,-6.16915l-4.47432,-20.56382l-3.35574,-4.93532l-0.37286,-25.08787l6.71148,2.05639l29.08307,30.43445l5.5929,6.16915v13.57212l0.74572,10.69318l1.49144,41.53893l3.72859,17.68488l5.22004,13.16085l13.42295,16.03978l27.21876,37.01488l-56.30183,1.23383l-7.08433,-11.10447l-30.20165,-43.18403v-16.86234l-10.81294,-17.27361l-2.61002,-12.74957l2.61002,-25.49915l-5.96575,-15.21723l-3.72859,-13.57212l-2.61002,-18.09617l4.84717,-7.81425h7.08433l14.54153,21.38637l6.71148,27.14425l9.32149,11.51575z" fill="#ffffff" stroke="none" stroke-width="0" stroke-linecap="round"/><path d="M554.58543,231.30778l-1.49144,-6.16915l-4.47432,-20.56382l-3.35574,-4.93532l-0.37286,-25.08787l6.71148,2.05639l29.08307,30.43445l5.5929,6.16915v13.57212l0.74572,10.69318l1.49144,41.53893l3.72859,17.68488l5.22004,13.16085l13.42295,16.03978l27.21876,37.01488l-56.30183,1.23383l-7.08433,-11.10447l-30.20165,-43.18403v-16.86234l-10.81294,-17.27361l-2.61002,-12.74957l2.61002,-25.49915l-5.96575,-15.21723l-3.72859,-13.57212l-2.61002,-18.09617l4.84717,-7.81425h7.08433l14.54153,21.38637l6.71148,27.14425l9.32149,11.51575z" fill="none" stroke="#000000" stroke-width="1.5" stroke-linecap="round"/><path d="M535.19673,185.65612l5.22004,14.39468l-1.8643,3.70149l-7.4572,2.46766h-3.35574l-6.56234,-15.79302l5.25732,-7.93764h6.93519z" fill-opacity="0.01176" fill="#000000" stroke="#000000" stroke-width="1.5" stroke-linecap="round"/><path d="M561.72996,240.11336l-0.81051,-2.45722c-1.71769,-1.59356 -3.95294,-2.60581 -5.29145,-4.59312c-1.63881,-2.43315 -2.13214,-7.5484 -2.92875,-10.48252c-0.53067,-1.9546 -0.63331,-4.05222 -1.32802,-5.94321c-0.88132,-2.39893 -2.31719,-4.62321 -2.68019,-7.18047c-0.12611,-0.88837 0.2001,-4.43108 -0.30643,-5.54717c-0.78016,-1.71901 -2.30705,-2.88731 -3.35369,-4.42443c0,0 -0.7986,-1.17451 -0.55929,-2.51066v-0.26546c0,-6.49431 -0.27964,-12.94498 -0.27964,-19.43281c0,0 0,-3.08457 2.79645,-3.08457c2.79645,0 2.79645,3.08457 2.79645,3.08457c0,6.43329 0.27505,12.83221 0.27959,19.272c1.18405,1.52099 8.89433,31.2541 10.09668,32.90136c1.42263,1.94906 6.45798,11.23648 3.86154,12.38207z" fill-opacity="0.10196" fill="#000000" stroke="none" stroke-width="0.5" stroke-linecap="butt"/><path d="M544.19197,306.8284c0,-3.29022 0,-10.65206 0,-13.94227c0,-3.29022 48.02141,71.74718 38.87064,71.00689c-0.77015,-0.06231 -1.47133,-0.34525 -1.97739,-0.90345l-2.79645,-3.08457l0.06078,-0.06705c-0.09682,-0.07007 -0.1927,-0.14196 -0.28758,-0.21578c-0.07352,-0.05723 -1.44554,-2.60585 -2.44581,-4.46034c-0.79284,-1.27698 -1.57288,-2.56677 -2.34179,-3.85855c-2.32897,-3.22046 -5.19764,-6.11845 -6.93294,-9.69311c-0.48462,-0.99832 -0.94049,-1.89277 -1.40083,-2.74264c-0.68202,-0.46365 -1.05463,-1.14866 -1.05463,-1.14866l-0.67816,-1.27854c-0.54916,-0.80786 -1.00428,-1.68045 -1.39497,-2.59392l-0.22941,0.20243l-2.22324,-3.06539c-0.21518,-0.29153 -0.38302,-0.62725 -0.49063,-0.99294c-1.2696,-1.02867 -2.43372,-2.14748 -3.28243,-3.52896c-1.18399,-1.9272 -1.10508,-4.57678 -2.26432,-6.5222c-1.10193,-1.84925 -2.91068,-2.31833 -4.21636,-3.95057c-1.19289,-1.49123 -2.04929,-3.37731 -3.51627,-4.53352c0,0 -1.57552,-1.30339 -1.09059,-3.18096c-0.30763,-0.73771 -0.30763,-1.4459 -0.30763,-1.4459z" fill-opacity="0.10196" fill="#000000" stroke="none" stroke-width="0.5" stroke-linecap="butt"/></g><text transform="translate(126.44371,53.6501) scale(0.5,0.5)" font-size="40" xml:space="preserve" fill="#1a1814" fill-rule="nonzero" stroke="none" stroke-width="1" stroke-linecap="butt" stroke-linejoin="miter" stroke-miterlimit="10" stroke-dasharray="" stroke-dashoffset="0" font-family="Handwriting" font-weight="normal" text-anchor="start" style="mix-blend-mode: normal"><tspan x="0" dy="0">Piano Bitch</tspan></text><text transform="translate(126.44371,67.8409) scale(0.31011,0.31011)" font-size="40" xml:space="preserve" fill="#1a1814" fill-rule="nonzero" stroke="none" stroke-width="1" stroke-linecap="butt" stroke-linejoin="miter" stroke-miterlimit="10" stroke-dasharray="" stroke-dashoffset="0" font-family="Handwriting" font-weight="normal" text-anchor="start" style="mix-blend-mode: normal"><tspan x="0" dy="0">PLEASE JUST LET ME SLEEP</tspan></text><path d="M320.00001,33.83335v275.33333" fill="none" stroke="#a89d84" stroke-width="5" stroke-linecap="round"/><path d="M65.28017,353.04564l-7.08433,11.10447l-56.30183,-1.23383l27.21876,-37.01488c0,0 52.95109,0.0373 56.23131,-1.54427z" fill-opacity="0.10196" fill="#000000" stroke="none" stroke-width="0" stroke-linecap="butt"/><path d="M611.12532,325.90137l27.21876,37.01488l-56.30183,1.23383l-7.08433,-11.10447l-20.0639,-28.6885c3.28021,1.58157 56.23131,1.54426 56.23131,1.54426z" data-paper-data="{&quot;index&quot;:null}" fill-opacity="0.10196" fill="#000000" stroke="none" stroke-width="0" stroke-linecap="butt"/><path d="M190.1,54.41254v-16.2h31.2v16.2z" fill="#1a1814" stroke="none" stroke-width="0" stroke-linecap="butt"/><g fill="#1a1814" stroke="none" stroke-linecap="butt"><text transform="translate(126.36432,80.51555) scale(0.22115,0.22115)" font-size="40" xml:space="preserve" fill="#1a1814" fill-rule="nonzero" stroke="none" stroke-width="1" stroke-linecap="butt" stroke-linejoin="miter" stroke-miterlimit="10" stroke-dasharray="" stroke-dashoffset="0" font-family="Handwriting" font-weight="normal" text-anchor="start" style="mix-blend-mode: normal"><tspan x="0" dy="0">I swear to god I'll kill this motherfucker one day. The</tspan><tspan x="0" dy="48px">semi-transparent bastard I call the Piano Bitch likes</tspan><tspan x="0" dy="48px">to play piano. Very loudly. At the most inconvienient</tspan><tspan x="0" dy="48px">times possible, including 2:15am on the dot every day</tspan><tspan x="0" dy="48px">for the past THREE FUCKING YEARS. I'm not</tspan><tspan x="0" dy="48px">even kidding. Imagine how startling it was the very</tspan><tspan x="0" dy="48px">first night he decided to become the most hated</tspan><tspan x="0" dy="48px">little piece of shit in this mansion, three-ish years ago.</tspan><tspan x="0" dy="48px">I was getting a good night's sleep, when all of a sudden</tspan><tspan x="0" dy="48px">this asshole decides, "Hey, what if I play my piano as</tspan><tspan x="0" dy="48px">LOUD AS I POSSIBLY FUCKING CAN?!" Long </tspan><tspan x="0" dy="48px">story short, kiss your sleep schedule goodbye.</tspan></text><path d="M279.1,91.41255v-7h14.6v7z" stroke-width="0"/><path d="M242.9,80.81254v-7.8h20v7.8z" stroke-width="0"/><path d="M207.7,123.81254v-7.4h30.8v7.4z" stroke-width="0"/></g><path d="M220.3,186.81255v-6.4h31.6v6.4z" fill="#1a1814" stroke="none" stroke-width="0" stroke-linecap="butt"/><path d="M178.7,154.81255v-6.2h8v6.2z" fill="#1a1814" stroke="none" stroke-width="0" stroke-linecap="butt"/><text transform="translate(334.11904,134.39854) scale(0.24743,0.24743)" font-size="40" xml:space="preserve" fill="#1a1814" fill-rule="nonzero" stroke="none" stroke-width="1" stroke-linecap="butt" stroke-linejoin="miter" stroke-miterlimit="10" stroke-dasharray="" stroke-dashoffset="0" font-family="Handwriting" font-weight="normal" text-anchor="start" style="mix-blend-mode: normal"><tspan x="0" dy="0">Anyways, that's pretty much everybody who lives in </tspan><tspan x="0" dy="46.15px">the mansion. I'm also making cookies as a house-</tspan><tspan x="0" dy="46.15px">warming gift for you; be on the lookout for those!</tspan><tspan x="0" dy="46.15px">See you soon,</tspan><tspan x="0" dy="46.15px">Heather ^^</tspan></text></g></g></svg>