<svg version="1.1" xmlns="http://www.w3.org/2000/svg" xmlns:xlink="http://www.w3.org/1999/xlink" width="35.12501" height="35.12434" viewBox="0,0,35.12501,35.12434"><g transform="translate(-302.43752,-162.43783)"><g data-paper-data="{&quot;isPaintingLayer&quot;:true}" stroke="none" stroke-miterlimit="10" stroke-dasharray="" stroke-dashoffset="0" style="mix-blend-mode: normal"><path d="M337.56251,169.8317v20.49804c0,4.00745 -3.22497,7.23243 -7.23242,7.23243h-20.5c-3.66107,0 -6.66147,-2.69385 -7.1543,-6.21484c0.7952,3.03475 3.54108,5.26367 6.83204,5.26367h20.0332c3.9166,0 7.07032,-3.15372 7.07032,-7.07031v-20.03321c0,-3.2976 -2.23906,-6.0451 -5.28321,-6.83398c3.52994,0.48496 6.23438,3.49081 6.23438,7.15821z" fill-opacity="0.29839" fill="#000000" fill-rule="evenodd" stroke-width="4.54219" stroke-linecap="round" stroke-linejoin="round"/><path d="M309.50719,162.43783h20.03378c3.9166,0 7.06966,3.15307 7.06966,7.06966v20.03379c0,3.91659 -3.15307,7.06966 -7.06966,7.06966h-20.03378c-3.91659,0 -7.06967,-3.15307 -7.06967,-7.06966v-20.03379c0,-3.91659 3.15308,-7.06966 7.06967,-7.06966z" fill-opacity="0.35294" fill="#ff672b" fill-rule="evenodd" stroke-width="4.43922" stroke-linecap="round" stroke-linejoin="round"/><g fill-rule="nonzero" stroke-width="0" stroke-linecap="butt" stroke-linejoin="miter"><g fill="#eb5e28"><path d="M308.48535,175.48729c0.73798,-4.00903 4.27168,-6.71864 7.89274,-6.05208c3.62106,0.66656 5.95826,4.45689 5.22028,8.46592c-0.73798,4.00903 -6.85492,9.62034 -6.85492,9.62034c0,0 -6.99608,-8.02517 -6.2581,-12.03419z"/><path d="M318.32009,177.29768c0.73798,-4.00903 4.27168,-6.71864 7.89274,-6.05208c3.62106,0.66656 5.95825,4.45689 5.22027,8.46592c-0.73798,4.00903 -10.12671,8.98175 -10.12671,8.98175c0,0 -3.72427,-7.38656 -2.98629,-11.39559z"/><path d="M312.40053,181.83672c0.73798,-4.00903 4.27168,-6.71865 7.89274,-6.05208c3.62106,0.66656 5.95826,4.45689 5.22028,8.46592c-0.73798,4.00903 -7.95956,6.41502 -7.95956,6.41502c0,0 -5.89144,-4.81983 -5.15346,-8.82886z"/></g><g fill="#000000"><path d=""/><path d="M331.43309,179.71151c-0.73798,4.00903 -10.12671,8.98176 -10.12671,8.98176c0,0 -0.98267,-1.61049 4.39552,-7.5362c0.64755,-0.71348 4.40417,-3.65456 5.66575,-4.70391c0.23748,1.02615 0.27247,2.13364 0.06543,3.25836z"/><path d="M325.51355,184.25056c-0.47284,2.56866 -3.60733,4.47924 -5.79862,5.52054c0.68453,-1.4922 4.55176,-7.01373 5.81268,-8.39034c0.16295,0.91477 0.1671,1.8857 -0.01406,2.8698z"/></g><g fill="#000000"><path d="M321.59836,177.90113c-0.73798,4.00903 -6.85492,9.62034 -6.85492,9.62034c0,0 -3.86127,-4.42925 -5.54404,-8.35046c4.48167,0.03611 8.78063,-1.13892 12.51862,-3.2644c0.04176,0.64935 0.00472,1.31883 -0.11966,1.99452z"/><path d="M318.28289,177.52911c3.41386,-1.30595 6.50588,-3.34703 9.04699,-5.96543c1.92382,0.75341 3.35377,2.44812 3.94304,4.52168c-4.61016,1.95404 -8.57945,5.26781 -11.31631,9.53368c-0.94887,-2.4189 -1.99621,-5.75907 -1.67373,-8.08993z"/><path d="M312.40053,181.83672c0.20747,-1.12709 0.63592,-2.15149 1.22515,-3.02702c2.7437,-0.47397 5.36243,-1.40192 7.75907,-2.71692c1.68801,0.65226 2.9987,2.02783 3.69939,3.74936c-3.37781,2.78811 -6.04116,6.47102 -7.5903,10.77325c-0.61868,-0.52157 -5.78729,-5.00862 -5.0933,-8.77867z"/></g></g></g></g></svg>