<svg version="1.1" xmlns="http://www.w3.org/2000/svg" xmlns:xlink="http://www.w3.org/1999/xlink" width="34.17311" height="34.17311" viewBox="0,0,34.17311,34.17311"><g transform="translate(-302.91346,-162.91346)"><g data-paper-data="{&quot;isPaintingLayer&quot;:true}" stroke="none" stroke-miterlimit="10" stroke-dasharray="" stroke-dashoffset="0" style="mix-blend-mode: normal"><path d="M309.98312,162.91346h20.03379c3.9166,0 7.06966,3.15307 7.06966,7.06966v20.03379c0,3.91659 -3.15306,7.06966 -7.06966,7.06966h-20.03379c-3.91659,0 -7.06966,-3.15307 -7.06966,-7.06966v-20.03379c0,-3.91659 3.15307,-7.06966 7.06966,-7.06966z" fill-opacity="0.3451" fill="#bdffa3" fill-rule="evenodd" stroke-width="4.43922" stroke-linecap="round" stroke-linejoin="round"/><g fill-rule="nonzero" stroke-linecap="butt" stroke-linejoin="miter"><g><path d="M329.46439,179.78083c-0.90222,6.23356 -2.11564,11.2171 -10.5972,9.98951c-8.75318,-1.2669 -8.23218,-6.35066 -7.32996,-12.58422c0.90222,-6.23356 18.82938,-3.63885 17.92716,2.59471z" fill="#000000" stroke-width="NaN"/><path d="M318.09522,187.29978c-3.0462,1.44682 -10.25922,-3.58976 -10.25922,-3.58976c0,0 1.89227,-0.26571 4.36048,-1.90165c2.38142,-1.57841 8.94494,4.0446 5.89874,5.49141z" fill="#000000" stroke-width="NaN"/><path d="M331.164,187.08644c0,0 -8.34505,2.78476 -10.85602,0.53362c-2.51097,-2.25114 5.35692,-5.80044 7.18811,-3.62398c1.91529,2.27643 3.66791,3.09036 3.66791,3.09036z" data-paper-data="{&quot;index&quot;:null}" fill="#000000" stroke-width="NaN"/><path d="M318.40035,181.69654c2.75826,2.47285 2.52484,5.65036 -0.52136,7.09717c-3.0462,1.44682 -9.51032,-3.01604 -9.51032,-3.01604c0,0 7.27341,-6.55398 10.03168,-4.08114z" fill="#000000" stroke-width="NaN"/><path d="M320.09175,189.11398c-2.51097,-2.25114 -1.83388,-5.36444 1.51232,-6.95375c3.3462,-1.5893 8.46286,6.75797 8.46286,6.75797c0,0 -7.46421,2.44692 -9.97518,0.19578z" data-paper-data="{&quot;index&quot;:null}" fill="#000000" stroke-width="NaN"/><g fill="#ace894" stroke-width="0"><path d="M322.04526,186.01335c-0.04024,0.27805 -1.40115,1.53199 -2.82618,1.32573c-1.42503,-0.20625 -2.37456,-1.79459 -2.33431,-2.07265c0.04024,-0.27805 5.20074,0.46886 5.16049,0.74691z"/><path d="M320.82764,185.99163c-0.06945,0.47985 -1.04429,2.84265 -1.80894,2.73198c-0.76465,-0.11067 -1.02956,-2.65291 -0.9601,-3.13276c0.06945,-0.47985 2.8385,-0.07907 2.76905,0.40078z"/></g></g><g fill="#000000"><g stroke-width="NaN"><path d="M318.46693,178.46512c-2.47285,2.75826 -5.65036,2.52484 -7.09718,-0.52136c-1.44682,-3.0462 1.85779,-10.5099 1.85779,-10.5099c0,0 7.71223,8.273 5.23939,11.03126z" stroke-width="NaN"/></g><g stroke-width="NaN"><path d="M330.60853,169.94953c0,0 1.05279,8.09437 -1.19835,10.60534c-2.25114,2.51097 -5.36444,1.83388 -6.95375,-1.51232c-1.5893,-3.3462 8.1521,-9.09302 8.1521,-9.09302z" data-paper-data="{&quot;index&quot;:null}" stroke-width="NaN"/></g></g><g fill="none" stroke-width="1" font-family="sans-serif" font-weight="normal" font-size="12" text-anchor="start"><g/><g data-paper-data="{&quot;index&quot;:null}"/></g></g></g></g></svg>