<svg version="1.1" xmlns="http://www.w3.org/2000/svg" xmlns:xlink="http://www.w3.org/1999/xlink" width="34.17311" height="34.17311" viewBox="0,0,34.17311,34.17311"><g transform="translate(-302.91346,-162.91346)"><g data-paper-data="{&quot;isPaintingLayer&quot;:true}" stroke="none" stroke-miterlimit="10" stroke-dasharray="" stroke-dashoffset="0" style="mix-blend-mode: normal"><path d="M309.98312,162.91347h20.03379c3.9166,0 7.06966,3.15307 7.06966,7.06966v20.03379c0,3.91659 -3.15306,7.06966 -7.06966,7.06966h-20.03379c-3.91659,0 -7.06966,-3.15307 -7.06966,-7.06966v-20.03379c0,-3.91659 3.15307,-7.06966 7.06966,-7.06966z" fill-opacity="0.35294" fill="#000000" fill-rule="evenodd" stroke-width="4.43922" stroke-linecap="round" stroke-linejoin="round"/><g fill="#ffffff" fill-rule="nonzero" stroke-width="0" stroke-linecap="butt" stroke-linejoin="miter"><path d="M335.02476,180.69489c0,2.75278 -30.04952,2.75278 -30.04952,0c0,-2.75278 30.04952,-2.75278 30.04952,0z"/><path d="M329.83439,178.39245c0,5.87831 -19.66878,5.87831 -19.66878,0c0,-11.75662 4.40301,-10.16475 9.83439,-10.16475c5.43138,0 9.83439,-1.59188 9.83439,10.16475z"/></g><path d="M328.52176,187.14793c0,0 -3.81532,4.69665 -8.52176,4.69665c-4.70644,0 -8.52176,-4.69665 -8.52176,-4.69665c0,0 3.81532,1.11364 8.52176,1.11364c4.70644,0 8.52176,-1.11364 8.52176,-1.11364z" fill="#ffffff" fill-rule="nonzero" stroke-width="0" stroke-linecap="butt" stroke-linejoin="miter"/></g></g></svg>