<svg version="1.1" xmlns="http://www.w3.org/2000/svg" xmlns:xlink="http://www.w3.org/1999/xlink" width="129.54113" height="251.58414" viewBox="0,0,129.54113,251.58414"><g transform="translate(-255.22942,-52.39998)"><g data-paper-data="{&quot;isPaintingLayer&quot;:true}" fill-rule="nonzero" stroke-linejoin="miter" stroke-miterlimit="10" stroke-dasharray="" stroke-dashoffset="0" style="mix-blend-mode: normal"><g><g data-paper-data="{&quot;index&quot;:null}" stroke="none" stroke-width="0" stroke-linecap="butt"><path d="M335.53524,282.49778c-8.40616,-2.36458 -2.44548,-25.04487 -0.7415,-62.99088c0.78621,-17.50815 4.7415,-51.34245 4.7415,-51.34245c0,0 3.34858,1.48489 15.09082,-0.10441c17.02881,-2.30483 11.32425,-6.34906 27.90918,-5.89559c5.24984,0.14354 -0.21787,29.8366 -1.54299,54.72544c-3.72721,70.00569 -10.94447,71.27286 -14.45701,71.69123c-2.72812,0.32493 -7.80603,-4.96362 -7.80603,-4.96362c0,0 -3.7762,2.94763 -9.22595,2.67167c-2.35712,-0.11935 -5.48239,-4.86921 -5.48239,-4.86921c0,0 -4.20321,2.28243 -8.48563,1.07782z" fill="#5c162e"/><path d="M335.39166,282.64135c-11.27807,-2.50818 -0.57814,-64.05273 -0.46436,-65.81674c14.4141,3.52418 18.01652,-1.91078 18.01652,-1.91078c0,0 -3.08297,7.22987 4.62328,9.60377c8.92392,2.749 11.80603,-3.95539 11.80603,-3.95539c0,0 -0.28257,3.63249 4.56806,6.71111c4.77267,3.02913 6.25024,1.83006 6.32166,1.82545c-3.87581,57.95019 -10.43216,59.08982 -13.7276,59.48233c-2.72812,0.32493 -7.80603,-4.96362 -7.80603,-4.96362c0,0 -3.7762,2.94763 -9.22595,2.67167c-2.35712,-0.11935 -5.48239,-4.86921 -5.48239,-4.86921c0,0 -4.34681,2.42603 -8.62923,1.22142z" fill="#3c162f"/><path d="M335.39166,282.84138c-6.36591,-1.41575 -5.72954,-21.64071 -3.9471,-39.30734c0.67811,-0.28281 0.22745,4.29937 8.02751,2.44314c3.92792,-0.93475 5.64956,-6.23094 5.64956,-6.23094c0,0 -0.66496,12.77834 9.2748,15.78453c8.03056,2.42878 10.4856,-2.43796 10.4856,-2.43796c0,0 -2.072,3.3743 3.13981,8.92452c4.88004,5.1969 8.70778,2.41232 8.70778,2.41232c0,0 -1.37173,23.86291 -9.99437,24.35146c-2.72812,0.32493 -8.00603,-4.96362 -8.00603,-4.96362c0,0 -3.7762,2.94763 -9.22595,2.67167c-2.35712,-0.11935 -5.48239,-4.86921 -5.48239,-4.86921c0,0 -4.34681,2.42603 -8.62923,1.22142z" fill="#191528"/></g><g data-paper-data="{&quot;index&quot;:null}" stroke="none" stroke-width="0" stroke-linecap="butt"><path d="M295.97911,281.41992c0,0 -3.12528,4.74986 -5.48239,4.86921c-5.44975,0.27596 -9.22595,-2.67167 -9.22595,-2.67167c0,0 -5.07792,5.28855 -7.80603,4.96362c-3.51254,-0.41836 -10.7298,-1.68554 -14.45701,-71.69123c-1.32512,-24.88884 -6.79283,-54.58189 -1.54299,-54.72544c16.58493,-0.45347 10.88037,3.59076 27.90918,5.89559c11.74224,1.5893 15.09082,0.10441 15.09082,0.10441c0,0 3.95529,33.83431 4.7415,51.34246c1.70398,37.94601 7.66466,60.6263 -0.7415,62.99088c-4.28241,1.20461 -8.48563,-1.07782 -8.48563,-1.07782z" fill="#5c162e"/><path d="M295.97911,281.41992c0,0 -3.12528,4.74986 -5.48239,4.86921c-5.44975,0.27596 -9.22595,-2.67167 -9.22595,-2.67167c0,0 -5.07792,5.28855 -7.80603,4.96362c-3.29544,-0.39251 -9.85179,-1.53214 -13.7276,-59.48233c0.07143,0.00462 1.549,1.20369 6.32166,-1.82545c4.85064,-3.07862 4.56807,-6.71111 4.56807,-6.71111c0,0 2.88211,6.70439 11.80603,3.95539c7.70624,-2.3739 4.62328,-9.60377 4.62328,-9.60377c0,0 3.60242,5.43496 18.01652,1.91078c0.11378,1.76402 10.8137,63.30856 -0.46437,65.81674c-4.28241,1.20461 -8.62922,-1.22142 -8.62922,-1.22142z" fill="#3c162f"/><path d="M295.97911,281.61994c0,0 -3.12528,4.74986 -5.48239,4.86921c-5.44975,0.27596 -9.22595,-2.67167 -9.22595,-2.67167c0,0 -5.27792,5.28855 -8.00603,4.96362c-8.62264,-0.48855 -9.99437,-24.35146 -9.99437,-24.35146c0,0 3.82775,2.78458 8.70778,-2.41232c5.21182,-5.55022 3.13981,-8.92452 3.13981,-8.92452c0,0 2.45504,4.86674 10.4856,2.43796c9.93975,-3.00619 9.27479,-15.78453 9.27479,-15.78453c0,0 1.72164,5.29619 5.64956,6.23094c7.80006,1.85623 7.3494,-2.72596 8.02751,-2.44314c1.78244,17.66663 2.41881,37.89159 -3.9471,39.30734c-4.28241,1.20461 -8.62922,-1.22142 -8.62922,-1.22142z" fill="#191528"/></g><g stroke-linecap="butt"><path d="M280.62766,302.87586c0,0 -0.63536,-94.38387 -0.79335,-118.01201c-0.05451,-8.15261 8.18688,-36.76129 40.20201,-36.9211c31.60235,-0.15775 39.85672,29.48704 39.84884,36.89673c-0.07659,46.24274 0.65429,117.98648 0.65429,117.98648l-10.49667,0.09614l-5.71497,-0.01169l-48.21366,0.07222l-5.65357,-0.19173z" fill="#191528" stroke="#000000" stroke-width="0"/><path d="M319.72666,259.60537c-0.81895,0 -1.48284,-0.66389 -1.48284,-1.48284c0,-0.81895 0.66389,-1.48284 1.48284,-1.48284c0.81895,0 1.48284,0.66389 1.48284,1.48284c0,0.81895 -0.66389,1.48284 -1.48284,1.48284z" data-paper-data="{&quot;index&quot;:null}" fill="#000000" stroke="none" stroke-width="1.5"/></g><g fill="#000000" stroke-linecap="butt"><path d="M280.62766,302.87586c0,0 -0.63536,-94.38387 -0.79335,-118.01201c-0.05451,-8.15261 8.18688,-36.76129 40.20201,-36.9211c31.60235,-0.15775 39.85672,29.48704 39.84884,36.89673c-0.07659,46.24274 0.65429,117.98648 0.65429,117.98648l-10.49667,0.09614l-0.15882,-114.84311c0,0 0.07549,-3.0993 -2.81625,-3.15415c-3.43441,-0.06514 -2.94538,3.11562 -2.94538,3.11562l0.20548,114.86995l-48.21366,0.07222l-0.30539,-115.23309c0,0 0.27949,-2.919 -2.8856,-2.93443c-3.11083,-0.01515 -2.81569,2.90899 -2.81569,2.90899l0.35311,115.0668z" stroke="#000000" stroke-width="2"/><path d="M319.72666,259.60537c-0.81895,0 -1.48284,-0.66389 -1.48284,-1.48284c0,-0.81895 0.66389,-1.48284 1.48284,-1.48284c0.81895,0 1.48284,0.66389 1.48284,1.48284c0,0.81895 -0.66389,1.48284 -1.48284,1.48284z" data-paper-data="{&quot;index&quot;:null}" stroke="none" stroke-width="1.5"/></g><path d="M310.14063,186.48829c2.15639,0.9277 1.53092,4.07795 1.11485,6.95882c-0.39415,2.72911 -19.33804,7.35656 -24.58802,5.52907c-1.23005,-0.60383 -7.78185,-3.37914 -8.7474,-5.3606c-0.69086,-1.41774 -0.11323,-3.21945 -0.08731,-4.82927c0.05727,-3.55756 0.75696,-6.68004 1.55501,-10.07981c2.89653,-12.33947 9.68122,-23.4675 20.32385,-28.32118c2.7465,0.10204 -3.13371,30.26817 10.42902,36.10297z" fill="#5c162e" stroke="none" stroke-width="0.5" stroke-linecap="butt"/><path d="M340.28839,150.3853c10.64263,4.85369 17.42732,15.98171 20.32385,28.32118c0.79805,3.39977 1.49775,6.52225 1.55501,10.07982c0.02591,1.60982 0.60354,3.41152 -0.08731,4.82927c-0.96555,1.98145 -7.51736,4.75676 -8.7474,5.36059c-5.24998,1.8275 -24.19387,-2.79994 -24.58802,-5.52905c-0.41607,-2.88087 -1.65671,-7.06517 1.11485,-6.95882c17.05151,0.65432 7.68253,-36.00094 10.42902,-36.10299z" data-paper-data="{&quot;index&quot;:null}" fill="#5c162e" stroke="none" stroke-width="0.5" stroke-linecap="butt"/><path d="M277.92006,193.61557c-0.69085,-1.41774 -0.11323,-3.21945 -0.08731,-4.82927c0.05726,-3.55756 0.75696,-6.68004 1.55501,-10.07982c2.89653,-12.33947 9.68122,-23.4675 20.32385,-28.32118c2.74649,0.10204 5.6959,0.43894 7.1601,2.24595c0.10306,0.1272 0.21747,0.27373 0.34183,0.43715c-0.64419,-0.15181 -1.31084,-0.2315 -1.99346,-0.2315c-4.15115,0 -7.71153,2.94678 -9.22403,7.14276c-2.54573,1.54947 -4.44758,4.33844 -5.1155,7.67948c-3.67033,1.72524 -6.26047,5.9144 -6.26047,10.80833c0,0.75207 0.06117,1.48749 0.17802,2.19988c-1.95547,2.12649 -3.17802,5.15609 -3.17802,8.51836c0,3.78907 1.55264,7.15567 3.95714,9.28335c-2.28065,-1.05269 -6.86221,-3.22216 -7.65717,-4.85351z" fill="#3c162f" stroke="none" stroke-width="0.5" stroke-linecap="butt"/><path d="M354.41829,198.46908c2.4045,-2.12768 3.95714,-5.49427 3.95714,-9.28335c0,-3.36227 -1.22255,-6.39187 -3.17802,-8.51836c0.11685,-0.7124 0.17802,-1.44782 0.17802,-2.19988c0,-4.89394 -2.59014,-9.0831 -6.26047,-10.80834c-0.66792,-3.34104 -2.56977,-6.13001 -5.1155,-7.67948c-1.5125,-4.19598 -5.07288,-7.14276 -9.22403,-7.14276c-0.68262,0 -1.34927,0.07968 -1.99346,0.2315c0.12436,-0.16342 0.23877,-0.30997 0.34183,-0.43716c1.4642,-1.80702 4.41361,-2.1439 7.1601,-2.24596c10.64263,4.85369 17.42732,15.98171 20.32385,28.32118c0.79805,3.39977 1.49775,6.52225 1.55501,10.07981c0.02591,1.60982 0.60354,3.41152 -0.08731,4.82927c-0.79495,1.63136 -5.37652,3.80083 -7.65717,4.85352z" data-paper-data="{&quot;index&quot;:null}" fill="#3c162f" stroke="none" stroke-width="0.5" stroke-linecap="butt"/><g fill="none" stroke="#3c162f" stroke-width="1" stroke-linecap="round"><path d="M314.16003,193.94349l-2.52414,0.45154l-1.27486,-2.31022l2.62417,0.11633z"/><path d="M317.97936,196.0209l-2.52413,0.45154l-1.27486,-2.31022l2.62417,0.11632z"/><path d="M322.07462,196.28358l-2.17476,1.3585l-2.04307,-1.66981l2.47895,-0.86866z"/><path d="M326.07934,194.44042l-1.33885,2.18692l-2.57381,-0.58127l1.82981,-1.88456z"/><path d="M329.77236,192.34111l-0.97758,2.37054l-2.63325,-0.1685l1.51005,-2.14931z"/></g></g><g stroke-width="1.5" stroke-linecap="butt"><path d="M317.09488,52.41228c18.20642,-0.37265 30.05854,7.76518 35.93465,19.01321c8.53025,16.32855 8.37787,41.07725 8.37787,41.07725l-4.50613,-6.77982c0,0 3.09111,10.3481 1.31092,20.69498c-1.5623,9.48098 -10.54782,20.72543 -10.54782,20.72543l4.34478,-10.59735c0,0 -3.27266,6.94794 -4.41005,8.08274c-1.1374,1.13479 -3.43873,2.91273 -3.43873,2.91273l-0.09205,-3.70421c0,0 -7.34581,12.44652 -24.63637,12.30011c-16.30625,-0.25547 -25.7858,-12.10377 -25.7858,-12.10377l-0.1162,2.65484c0,0 -3.89477,-3.29276 -6.18145,-9.70754c-2.72545,-7.64567 -2.98946,-17.49324 -2.98946,-17.49324l-0.16369,9.49466c0,0 -4.87421,-8.12112 -5.26946,-12.02211c-0.49442,-4.87978 1.61761,-16.93272 1.61761,-16.93272l-4.08013,6.79513c0,0 -1.12411,-7.54377 -0.06494,-11.84684c1.44762,-5.88122 4.56094,-41.16283 40.69645,-42.56348z" data-paper-data="{&quot;index&quot;:null}" fill="#000000" stroke="none"/><path d="M291.86589,111.01751c-0.57709,-7.29323 0.335,-17.15448 0.335,-17.15448c0,0 3.41059,-0.04124 13.91429,-3.14424c8.0696,-2.38394 20.54731,-9.48722 20.54731,-9.48722c0,0 -2.16005,3.00503 -3.40781,4.46015c-1.32651,1.54696 -3.99292,4.56297 -3.99292,4.56297c0,0 7.838,-1.66761 14.67476,-4.72931c8.56837,-3.53575 10.59252,-6.05309 12.95042,-4.5927c2.7829,1.72362 1.03006,23.1827 0.71846,28.74062c-0.42163,5.66922 -2.53327,9.49969 -3.15031,12.52053c-0.61704,3.02084 -4.99879,18.80271 -10.85638,24.53886c-8.28616,13.45045 -10.42304,15.4144 -14.38285,15.48338c-2.40603,0.04191 -5.33592,-2.00223 -8.42743,-4.84445c-1.80494,-1.6594 -16.64559,-13.51687 -18.48862,-15.46402c-1.45493,-2.60921 -2.02025,-8.31119 -0.40393,-12.15347c2.60395,-6.19004 2.89251,-2.96877 2.54638,-8.30859c-0.25298,-3.90273 -2.26119,-6.44504 -2.57636,-10.42801z" fill="#ffffff" stroke="#000000"/></g><path d="M339.84342,101.06364h-0.32579c0.0138,-0.13596 0.02457,-0.27202 0.03208,-0.408c0.09605,0.13906 0.19469,0.27511 0.29371,0.408z" fill-opacity="0.37229" fill="#000000" stroke="none" stroke-width="0" stroke-linecap="butt"/><path d="M333.15398,96.59117c-0.00137,0.02397 -0.00206,0.04813 -0.00206,0.07245c0,0.03629 0.00155,0.07221 0.00458,0.10771c-0.03387,-0.03254 -0.06782,-0.06499 -0.10186,-0.09737z" fill-opacity="0.37229" fill="#000000" stroke="none" stroke-width="0" stroke-linecap="butt"/><path d="M343.37015,97.95335l0.0279,-0.03489c0.00229,0.02091 0.00466,0.0418 0.00709,0.06268c-0.01161,-0.00928 -0.02327,-0.01854 -0.035,-0.02779z" fill-opacity="0.37229" fill="#000000" stroke="none" stroke-width="0" stroke-linecap="butt"/><path d="M336.81372,97.88908l0.00463,0.04166c-0.00834,-0.00806 -0.01669,-0.01611 -0.02505,-0.02415z" fill-opacity="0.37229" fill="#000000" stroke="none" stroke-width="0" stroke-linecap="butt"/><g stroke="#000000"><path d="M292.99394,120.40765c0,0 -4.93211,-3.51705 -6.16417,-8.97502c-1.29636,-5.74284 -1.46118,-9.7328 0.48013,-9.99193c1.94131,-0.25915 2.70321,2.37692 3.73262,8.35569c1.0294,5.97877 1.95143,10.61127 1.95143,10.61127z" data-paper-data="{&quot;index&quot;:null}" fill="#ffffff" stroke-width="1" stroke-linecap="butt"/><path d="M292.79134,116.4601c0,0 -3.56385,-2.92338 -4.31816,-8.45061c-0.42079,-3.08327 2.15675,-2.28016 2.15675,-2.28016" fill="none" stroke-width="0.25" stroke-linecap="round"/><path d="M295.80475,109.8042c0.07093,-4.89188 4.83834,-8.93609 10.21137,-8.8582c5.37302,0.0779 9.02724,4.2484 8.95632,9.14029c-0.07093,4.89188 -4.12352,8.79439 -9.49655,8.7165c-5.37302,-0.0779 -9.74207,-4.1067 -9.67114,-8.99859z" fill="#ffffff" stroke-width="1.4" stroke-linecap="butt"/><path d="M322.86103,109.80493c0.20353,-4.88817 4.45264,-8.85847 9.77048,-8.85847c5.31783,0 9.27453,3.96607 9.27453,8.85847c0,4.8924 -3.88585,9.07104 -9.69964,9.14188c-5.52997,0.06739 -9.55792,-4.03692 -9.34537,-9.14188z" fill="#ffffff" stroke-width="1.4" stroke-linecap="butt"/></g><path d="M339.87696,95.82702c0,0 1.44231,0.58683 3.98697,1.85704c2.32426,1.1602 4.06348,2.51525 4.06348,2.51525l-0.01841,1.18636c0,0 -6.5691,-4.38188 -14.42569,-5.14691c-6.28195,-0.61168 -10.30641,0.97608 -10.30641,0.97608l0.79564,-4.1006c0,0 3.38283,-1.11441 8.0691,-0.41214c4.8526,0.7272 7.85285,2.03567 7.85285,2.03567z" data-paper-data="{&quot;index&quot;:null}" fill="#000000" stroke="none" stroke-width="1.5" stroke-linecap="butt"/><path d="M298.17399,97.7407c0,0 3.14038,-2.19117 7.72007,-3.18232c5.07487,-1.09834 7.71007,-0.95115 7.71007,-0.95115l0.76468,4.07689c0,0 -3.88812,-0.2391 -8.0251,0.39602c-5.53271,0.84939 -6.43828,2.18087 -10.61121,3.12082c-3.57559,0.8054 -6.67523,0.92561 -6.67523,0.92561l-0.16607,-1.22058c0,0 3.58018,-0.33622 5.19182,-0.66437c1.33019,-0.27085 3.84289,-1.38506 3.84289,-1.38506z" fill="#000000" stroke="none" stroke-width="1.5" stroke-linecap="butt"/><g stroke="none" stroke-width="0" stroke-linecap="butt"><g><path d="M294.36522,137.88083c2.53701,-2.95342 4.51297,-8.47292 9.48606,-8.25291c2.88548,0.12765 13.49745,7.60869 13.49745,7.60869c0,0 6.78798,-2.04688 9.76363,-0.70321c3.01231,1.36024 8.45617,8.43369 8.45617,8.43369c0,0 -3.47967,8.18063 -11.75605,12.63544c-5.60114,3.01484 -14.72214,3.08299 -20.32083,2.38468c-14.71727,-1.83565 -12.09247,-19.46615 -12.09247,-19.46615c0,0 1.60109,-1.05125 2.96603,-2.64023z" fill="#000000"/><path d="M294.69322,140.23215c0,0 0.85858,-0.27047 1.59914,-1.26899c0.75351,-1.01601 1.3983,-2.77007 2.47381,-3.91454c1.47177,-1.56613 2.73504,-2.75834 4.73729,-2.74478c1.86062,0.01259 4.37355,1.62049 6.98949,2.93142c2.92903,1.46785 6.78106,4.11041 6.78106,4.11041c0,0 4.79076,-1.78507 8.32323,-0.85923c2.38905,0.62615 6.5463,5.00065 6.5463,5.00065c0,0 -2.84211,0.28977 -7.80249,-0.55291c-4.66186,-0.79197 -12.89958,-3.62078 -16.02911,-3.85512c-1.45546,-0.10898 -3.78276,-0.64717 -5.09206,-0.18426c-1.5934,0.56336 -2.36932,2.00835 -4.10877,2.14434c-2.78474,0.2177 -4.41787,-0.80704 -4.41787,-0.80704z" fill="#ffffff"/><path d="M293.12031,141.91421c0,0 2.39568,0.44125 4.36823,1.23127c4.06405,1.62766 4.19235,5.48057 8.8315,6.28922c2.84674,0.49621 6.20777,-0.04824 9.56815,-0.90926c3.09836,-0.7939 6.02795,-2.24787 8.42447,-2.41826c5.6745,-0.40344 7.44901,-0.28336 7.44901,-0.28336c0,0 -4.50888,13.58675 -25.63967,12.09247c-14.63139,-1.03467 -13.00169,-16.00208 -13.00169,-16.00208z" fill="#ffffff"/></g><path d="M302.89861,142.21124l-0.12729,-1.8457c0,0 1.33455,-0.08684 7.76312,0.96932c1.67565,0.27529 4.46013,1.11134 7.05521,1.74803c3.30989,0.81208 6.88448,0.97404 6.88448,0.97404c0,0 -2.93287,0.66922 -11.13451,0.09054c-3.48775,-0.24608 -10.44101,-1.93622 -10.44101,-1.93622z" fill="#ffffff"/><path d="M307.99018,147.93924c-5.28291,-0.59736 -5.91895,-4.5824 -5.91895,-4.5824c0,0 4.98025,1.17192 7.82492,1.49357c3.13153,0.35409 10.18649,0.54305 10.18649,0.54305c0,0 -2.40002,0.36039 -5.32309,1.0328c-2.61094,0.60062 -4.27691,1.79481 -6.76939,1.51299z" fill="#ffffff"/></g><path d="M347.10945,109.79639c1.0294,-5.97877 1.7913,-8.61483 3.73262,-8.35569c1.94131,0.25914 1.77649,4.24909 0.48013,9.99193c-1.23206,5.45797 -6.16417,8.97502 -6.16417,8.97502c0,0 0.92203,-4.6325 1.95143,-10.61127z" data-paper-data="{&quot;index&quot;:null}" fill="#ffffff" stroke="#000000" stroke-width="1" stroke-linecap="butt"/><path d="M347.522,105.72933c0,0 2.57754,-0.80312 2.15675,2.28016c-0.75431,5.52723 -4.31816,8.45061 -4.31816,8.45061" data-paper-data="{&quot;index&quot;:null}" fill="none" stroke="#000000" stroke-width="0.25" stroke-linecap="round"/><g stroke="none" stroke-width="0" stroke-linecap="butt"><path d="M323.36474,133.75155c0,1.02839 -0.16199,3.68161 -1.20052,5.40921c-1.32361,2.20183 -3.5936,3.41432 -3.5936,3.41432c0,0 -4.92017,-7.05587 -4.92017,-9.39496c0,-2.33909 2.72901,-3.66386 5.21429,-3.66386c2.48528,0 4.5,1.8962 4.5,4.23529z" fill="#000000"/><path d="M315.05383,133.02883c0,-1.26701 1.42848,-1.27731 2.5168,-1.27731c1.08832,0 3.14706,0.85064 3.14706,2.11765c0,1.26701 -1.11756,5.11765 -2.20588,5.11765c-1.08833,0 -3.45799,-4.26241 -3.45799,-5.52942z" fill="#ffffff"/></g><g fill="#5c162e" stroke="none" stroke-width="0" stroke-linecap="butt"><path d="M302.93222,140.25385l2.32031,0.23056l-0.75046,7.63787z"/><path d="M319.77005,149.8217l-1.32171,-7.45962l2.26226,-0.61945z" data-paper-data="{&quot;index&quot;:null}"/></g><g stroke="none" stroke-width="0" stroke-linecap="butt"><path d="M316.81578,145.22538l-1.91688,-35.94118l8.18182,0.47601l-0.79774,20.83109c0,0 -0.04775,1.74557 -0.10279,3.75745c-0.04773,1.74452 -0.10092,3.68927 -0.13322,4.86986c-0.05508,2.01356 -0.69429,5.94736 -0.69429,5.94736z" fill="#000000"/><path d="M318.11264,143.89535l-1.94958,-34.68208l5.72198,0.10726l-1.59593,34.51541z" fill="#ffffff"/></g><g stroke="none" stroke-width="1.5" stroke-linecap="butt"><path d="M337.55059,110.12998c-0.07996,2.75756 -2.38021,4.92816 -5.13775,4.8482c-2.75756,-0.07996 -4.92816,-2.38021 -4.8482,-5.13775c0.07996,-2.75756 2.3802,-4.92816 5.13775,-4.8482c2.75756,0.07996 4.92816,2.38021 4.8482,5.13775z" fill="#7c162e"/><path d="M336.15601,108.06368c-0.0459,1.19434 -1.68116,2.12533 -3.65245,2.07943c-1.97131,-0.04589 -3.53214,-1.0513 -3.48625,-2.24563c0.0459,-1.19434 1.68115,-2.12533 3.65245,-2.07943c1.97131,0.04589 3.53214,1.0513 3.48625,2.24563z" fill="#5c162e"/></g><g stroke="none" stroke-width="1.5" stroke-linecap="butt"><path d="M310.33161,109.7672c-0.04084,2.81815 -2.35851,5.06961 -5.17666,5.02877c-2.81815,-0.04084 -5.06961,-2.35851 -5.02877,-5.17666c0.04084,-2.81815 2.3585,-5.06961 5.17666,-5.02877c2.81815,0.04084 5.06961,2.35851 5.02877,5.17666z" fill="#7c162e"/><path d="M308.83202,107.44547c-0.0459,1.19434 -1.68116,2.12533 -3.65245,2.07943c-1.97131,-0.04589 -3.53214,-1.0513 -3.48625,-2.24563c0.0459,-1.19434 1.68115,-2.12533 3.65245,-2.07943c1.97131,0.04589 3.53214,1.0513 3.48625,2.24563z" fill="#5c162e"/></g><g fill-opacity="0.37229" fill="#000000" stroke="none" stroke-width="0" stroke-linecap="butt"><path d="M284.93658,123.36364v-13c0,0 -14.07697,-34.13538 36,-36.2c46.29764,-6.6 31.8,36.2 31.8,36.2v13c0,0 -2.88762,-7.41345 -34.2923,-7.5c-32.94175,-0.09079 -33.5077,7.5 -33.5077,7.5z"/><path d="M284.27792,109.96364v-13c0,0 -3.81666,-28.44494 34.35866,-28c50.62253,0.2 33.44134,28 33.44134,28v13c0,0 4.87162,-6 -33.63364,-6c-32.34404,0 -34.16636,6 -34.16636,6z"/></g><path d="M287.11284,121.4986c0,0 -0.35758,4.41619 6.59566,5.56759c2.87979,0.47687 8.725,0.91966 8.725,0.91966c0,0 -5.6739,1.10125 -8.597,1.19319c-6.83632,0.21503 -6.72366,-7.68044 -6.72366,-7.68044z" fill="#000000" stroke="none" stroke-width="0" stroke-linecap="butt"/><path d="M339.86038,136.00555c-2.92311,-0.09194 -8.597,-1.1932 -8.597,-1.1932c0,0 5.84522,-0.4428 8.725,-0.91966c6.95324,-1.15139 6.59566,-5.56759 6.59566,-5.56759c0,0 0.11266,7.89547 -6.72366,7.68045z" data-paper-data="{&quot;index&quot;:null}" fill="#000000" stroke="none" stroke-width="0" stroke-linecap="butt"/><path d="M295.1864,132.35907v-4.28571" fill="none" stroke="#000000" stroke-width="0.5" stroke-linecap="round"/><path d="M338.22736,127.29781v8" fill="none" stroke="#000000" stroke-width="0.5" stroke-linecap="round"/><path d="M326.76905,129.12321c0,0 0.23443,-2.33333 10.66667,-2.33333c8.75248,0 7.22222,9.11111 7.22222,9.11111c0,0 -0.48848,-3.57554 -7.07293,-6.54523c-7.37738,-3.32732 -10.81596,-0.23255 -10.81596,-0.23255z" fill="#000000" stroke="none" stroke-width="0" stroke-linecap="butt"/><g fill="#000000" stroke="none" stroke-width="0" stroke-linecap="butt"><path d="M295.30478,109.43054c0,0 -0.04408,-10.34524 12.11088,-9.18244c9.15802,0.8761 9.23668,10.99497 9.23668,10.99497h-1.30905c0,0 -0.67699,-5.92383 -8.79172,-6.29944c-6.88781,-0.31882 -11.24678,4.48691 -11.24678,4.48691z"/><path d="M321.93889,109.26303c0,0 -0.14581,-10.33851 12.29581,-9.16514c8.61879,0.78337 8.79999,8.92987 8.79999,8.92987l-1.33992,0.90627c0,0 -0.74331,-4.56789 -9.04943,-4.94691c-7.05026,-0.32171 -10.70646,4.27592 -10.70646,4.27592z"/><g><path d="M314.99086,112.1745c0,0 -1.71552,7.14836 -9.41508,7.27528c-8.07597,0.13313 -9.26404,-7.07389 -9.26404,-7.07389c0,0 3.94885,4.06481 9.16334,3.95232c6.32647,-0.13647 9.51577,-4.15371 9.51577,-4.15371z"/></g><g><path d="M341.88585,112.23401c0,0 -1.75923,7.14836 -9.65502,7.27528c-8.28178,0.13313 -9.50012,-7.07389 -9.50012,-7.07389c0,0 4.04949,4.06481 9.39685,3.95232c6.4877,-0.13647 9.75828,-4.15371 9.75828,-4.15371z"/></g></g></g></g></svg>