<svg version="1.1" xmlns="http://www.w3.org/2000/svg" xmlns:xlink="http://www.w3.org/1999/xlink" width="329.63081" height="475.75002" viewBox="0,0,329.63081,475.75002"><defs><linearGradient x1="156" y1="-6.99999" x2="156" y2="367.00003" gradientUnits="userSpaceOnUse" id="color-1"><stop offset="0" stop-color="#593b20"/><stop offset="1" stop-color="#382414"/></linearGradient><linearGradient x1="154" y1="-59.99999" x2="154" y2="178.50003" gradientUnits="userSpaceOnUse" id="color-2"><stop offset="0" stop-color="#52361d"/><stop offset="1" stop-color="#3e2816"/></linearGradient><radialGradient cx="154.25" cy="59.75001" r="123.5" gradientUnits="userSpaceOnUse" id="color-3"><stop offset="0" stop-color="#5e3e22"/><stop offset="1" stop-color="#593b20"/></radialGradient><linearGradient x1="53.63334" y1="122.50001" x2="53.63334" y2="172.50003" gradientUnits="userSpaceOnUse" id="color-4"><stop offset="0" stop-color="#5e3e22"/><stop offset="1" stop-color="#4a311b"/></linearGradient><linearGradient x1="252.23334" y1="120.26162" x2="252.23334" y2="172.33337" gradientUnits="userSpaceOnUse" id="color-5"><stop offset="0" stop-color="#5e3e22"/><stop offset="1" stop-color="#4a311b"/></linearGradient><linearGradient x1="155.24414" y1="205.25003" x2="155.24414" y2="382.75003" gradientUnits="userSpaceOnUse" id="color-6"><stop offset="0" stop-color="#2c1d10" stop-opacity="0"/><stop offset="1" stop-color="#2c1d10"/></linearGradient><linearGradient x1="155.74414" y1="300.25003" x2="155.74414" y2="415.75003" gradientUnits="userSpaceOnUse" id="color-7"><stop offset="0" stop-color="#1d140b" stop-opacity="0"/><stop offset="1" stop-color="#1d140b"/></linearGradient><linearGradient x1="225.36778" y1="196.75383" x2="225.36778" y2="230.33506" gradientUnits="userSpaceOnUse" id="color-8"><stop offset="0" stop-color="#342213" stop-opacity="0"/><stop offset="1" stop-color="#342213"/></linearGradient><linearGradient x1="282.36153" y1="188.04434" x2="282.36153" y2="238.00001" gradientUnits="userSpaceOnUse" id="color-9"><stop offset="0" stop-color="#342213" stop-opacity="0"/><stop offset="1" stop-color="#342213"/></linearGradient><linearGradient x1="227.12404" y1="188.67627" x2="227.12404" y2="220.20151" gradientUnits="userSpaceOnUse" id="color-10"><stop offset="0" stop-color="#e2d87e"/><stop offset="1" stop-color="#b6925d"/></linearGradient><linearGradient x1="229.33801" y1="189.0406" x2="229.33801" y2="220.20151" gradientUnits="userSpaceOnUse" id="color-11"><stop offset="0" stop-color="#87733e" stop-opacity="0"/><stop offset="1" stop-color="#87733e" stop-opacity="0.45882"/></linearGradient><radialGradient cx="281.03618" cy="194.16525" r="23.44858" gradientUnits="userSpaceOnUse" id="color-12"><stop offset="0" stop-color="#e1d67d"/><stop offset="1" stop-color="#b49b5c"/></radialGradient></defs><g transform="translate(9.32125,59.99999)"><g data-paper-data="{&quot;isPaintingLayer&quot;:true}" fill-rule="nonzero" stroke="none" stroke-linecap="butt" stroke-linejoin="miter" stroke-miterlimit="10" stroke-dasharray="" stroke-dashoffset="0" style="mix-blend-mode: normal"><g stroke-width="0"><path d="M33.5,182.00003v-234h235.5v234z" fill-opacity="0.25882" fill="#fff7f1"/><path d="M31.5,181.00003v-234h235.5v234zM73.85362,7.22651l-4.97589,0.27644c-1.30123,0.06266 -2.34153,1.12016 -2.37681,2.4284c-0.87152,0.50908 -1.71405,1.04376 -2.20511,1.88902c-0.70161,1.20768 -0.24398,2.78391 -0.29582,4.17965c-0.11028,2.96931 -0.16657,7.52765 2.02307,9.80122c0.30047,0.31198 0.69502,0.20423 1.10935,-0.06409c-0.09086,0.17641 -0.18665,0.34933 -0.29673,0.51158c-0.4702,0.69297 -1.12175,1.26675 -1.50617,2.01074c-2.0977,4.05966 -2.27519,5.29998 -1.79745,10.08874c0.1883,1.88754 0.46063,3.8051 1.14442,5.57447c0.97541,2.52396 3.44128,4.28334 4.43079,6.80181c0.77293,1.96726 -1.12256,7.19389 -1.4765,8.48195c-1.26004,5.18492 -2.20243,10.45787 -1.41942,15.83579c0.57197,3.92846 2.24562,7.76922 2.80358,11.73059c0.34744,2.46672 -0.29826,2.98064 -0.50641,5.52101c-0.41101,5.01616 -0.61902,11.9396 1.16327,16.61695c0.62189,1.63205 1.87807,2.94525 2.82901,4.41019c1.85052,2.85076 3.83429,5.62783 6.03131,8.22095c1.38472,1.63437 2.2068,4.11935 4.22246,4.8444c4.53361,1.63075 5.48673,-1.47722 6.4115,-4.12262c0.3844,1.00553 1.08101,1.86874 1.58262,2.82336c0.58279,1.10912 1.12251,2.24032 1.68376,3.36048c4.50442,1.07822 7.92011,1.07462 12.56754,1.05249c2.37225,-0.01129 6.42454,0.5241 8.31893,-1.78492c2.37547,-2.89539 3.52132,-10.41191 4.57949,-14.00966c1.64836,-5.60442 3.04586,-11.3629 4.9614,-16.88004c1.69255,-4.87489 3.98812,-9.51444 5.61653,-14.41065c-0.04528,0.18413 -0.07582,0.37679 -0.04652,0.48684c0.25447,0.95555 0.92329,1.77166 1.15221,2.73364c0.28598,1.20174 0.2447,2.45847 0.37565,3.6868c0.33888,3.17857 0.52082,6.38031 0.49795,9.57681c-0.3317,3.65165 -1.15138,8.90927 -0.40812,12.58633c1.22498,6.06015 5.24341,12.62741 7.96796,18.13563c1.0334,2.08924 2.91935,7.86064 6.83807,7.35409c5.99427,-0.77486 2.85016,-10.44482 7.19108,-12.70359c0.70057,-0.36454 1.57159,0.1582 2.35834,0.22683c2.46931,0.21541 4.94281,0.38 7.41354,0.57859c7.34955,0.59072 15.09205,1.90233 21.32148,-2.68807c2.29872,-2.31606 4.7539,-5.01624 5.31689,-8.41586c0.06191,-0.37389 0.04511,-9.42651 0.04511,-9.47277c0,-0.20851 0.00138,-10.03065 -0.00429,-10.1463c-0.45218,-9.21893 6.07499,-49.4001 6.07499,-49.4001c0,0 5.8967,49.71575 7.46156,59.44674c1.39118,8.651 5.05008,16.18894 9.90563,23.36284c1.73535,-0.18009 3.595,0.12933 5.20606,-0.54025c6.68906,-2.78008 3.87505,-13.34319 5.26358,-18.54928c0.74508,-2.79355 1.53045,-2.43571 3.28597,-5.47425c0.95387,-1.65099 0.9636,-3.69084 1.52108,-5.51426c0.06367,-0.20825 0.1116,0.44256 0.26499,0.59713c0.47364,0.4773 1.00437,0.90529 1.57649,1.25859c1.44047,0.88952 2.76616,2.68565 4.44393,2.45915c2.17789,-0.29403 4.61618,-1.73313 5.39636,-3.78763c1.01613,-2.67584 -2.40867,-6.70586 -4.35783,-8.18288c-0.53468,-0.40516 -1.39738,-0.27831 -1.86303,-0.76123c-0.21186,-0.21972 0.19383,-0.57887 0.29222,-0.8678c0.93048,-2.73233 1.79609,-5.48796 2.58216,-8.26527c2.00436,-7.20457 1.41587,-14.45738 2.05779,-21.84381c0.01994,0.19707 0.0747,0.35805 0.19127,0.40122c2.15144,0.79677 4.82738,2.48124 6.76712,1.25611c1.63575,-1.03313 0.46197,-3.85552 0.41059,-5.78953c-0.15115,-5.68952 -2.34368,-12.4376 -6.98273,-15.873c0.01039,-0.00127 0.02047,-0.00312 0.0302,-0.00557c1.31268,-0.33095 2.61181,-0.95464 3.59994,-1.87998c1.3428,-1.25747 2.50417,-2.79199 3.20528,-4.49281c2.288,-5.55053 0.18715,-14.3397 -4.7225,-18.32393c1.9136,-0.57834 3.91159,-1.37064 4.87991,-2.56639c1.43837,-1.77619 1.18015,-6.30692 0.24889,-8.13634c-0.68938,-1.35425 -2.03105,-2.2612 -3.06915,-3.37095c-3.53108,-3.77478 -7.1837,-7.56605 -12.20979,-9.31989c-2.04812,-0.71468 -4.21972,-2.06159 -6.32407,-1.53502c-4.1621,1.04148 -1.97237,5.75213 -4.56905,7.52672c-2.59007,0.25977 -7.72344,1.57583 -9.98802,-0.06476c-2.34187,-1.69659 -2.55076,-5.76561 -5.18712,-6.95404c-1.25393,-0.56524 -2.67182,0.66021 -4.02276,0.91862c-2.37321,0.45394 -4.79156,0.62752 -7.18765,0.939c-3.06891,0.39895 -6.11339,1.17075 -9.20809,1.18637c-1.39055,0.00702 -2.80416,-0.15506 -4.13351,-0.56311c-1.07715,-0.33063 -1.84852,-1.49335 -2.96848,-1.61686c-1.39396,-0.15372 -2.75666,0.5213 -4.12359,0.83474c-6.18417,1.41807 -11.79224,4.17765 -17.79153,6.18519c-2.38114,0.7968 -4.94577,0.98302 -7.30154,1.85198c-0.14964,0.0552 -0.30052,0.11338 -0.45097,0.17532c1.64063,-3.58968 3.58373,-6.97144 0.71354,-11.1829c-0.98473,-1.44491 -3.19939,-1.53395 -4.92789,-1.79801c-5.42617,-0.82892 -10.15944,1.45691 -15.23233,2.41862c-0.83935,0.15912 -1.82155,0.23278 -2.55464,-0.20587c-1.31682,-0.78794 -1.7583,-2.88735 -3.24569,-3.26485c-1.31629,-0.33407 -2.52536,1.00012 -3.79671,1.47751c-3.70929,1.39283 -7.54154,2.54613 -11.51247,2.96988c-3.72191,0.39718 -4.57002,0.35316 -7.54976,-1.91443c-1.38161,-1.05141 -2.09292,-3.26536 -3.80434,-3.55752c-1.51908,-0.25933 -2.82713,1.28783 -4.05781,2.21535c-0.60681,0.45734 -0.91097,1.21725 -1.33411,1.84839c-0.22481,0.33531 -0.30945,1.31989 -0.60756,1.04767c-0.34571,-0.31569 0.13966,-0.95479 0.07452,-1.41666l0.00662,-0.00221l-0.01638,-0.04915c-0.00634,-0.02614 -0.01472,-0.05161 -0.02544,-0.07632l-0.93995,-2.81983c-0.31418,-1.02156 -1.26534,-1.76412 -2.38994,-1.76412c-1.22888,0 -2.25067,0.88666 -2.46053,2.05513l-0.47596,2.3798c-0.76494,2.64895 -3.92778,8.437 -4.06167,10.66101c-0.07617,1.26526 1.21366,2.23055 1.70472,3.39912c0.90469,2.1529 1.13963,2.90104 0.21073,5.12208c-0.39116,0.93528 -2.04875,0.37648 -2.48665,0.38382c-1.36089,0.02283 -2.74259,-0.04251 -4.07701,0.22554z" fill-opacity="0.20392" fill="#2b1b0f"/></g><g stroke-width="0"><path d="M269.5,-52.99999v119.62512c-2.61055,-0.37847 -5.22077,-0.75425 -7.79267,-1.24984c-2.11098,-0.40677 -5.1073,-0.40906 -7.22273,-0.0382c-1.12616,0.19743 -14.18892,2.10513 -18.28303,3.83308c-16.56596,6.99177 -27.63035,20.78318 -31.4917,38.49214c-2.02373,9.28124 2.67297,16.75105 -3.27987,26.54059c-0.64628,1.0628 -5.64543,2.56972 -6.87023,3.37862c-5.85431,3.86641 -14.74621,10.462 -18.17616,16.73389c-4.36373,7.97939 -4.21854,17.58669 -2.70917,26.6846h-42.07317c2.78779,-2.27122 4.96253,-5.24858 6.08924,-8.78966c1.8076,-5.68104 0.7823,-22.50703 -0.79963,-28.91847c-0.7844,-3.17914 -1.59491,-6.35309 -2.5,-9.5c-0.36927,-1.2839 -1.58689,-2.33222 -1.61538,-3.66787c-0.24737,-11.59561 1.32783,-19.32926 -5.53072,-30.60479c-1.63578,-2.68924 -2.96086,-5.68171 -5.23206,-7.86103c-2.01103,-1.92968 -4.63811,-3.25401 -6.3148,-5.48036c-2.46156,-3.26853 -2.19012,-7.89192 -3.55664,-11.74876c-0.86073,-2.42932 -2.01554,-5.24794 -3.45677,-8.08949c2.36871,-0.51055 4.67474,-1.45819 6.82282,-2.86503c-0.00487,0.17456 -0.00732,0.34972 -0.00732,0.52546c0,7.70902 4.71523,14.31674 11.41894,17.09642c2.18115,0.90441 4.57281,1.40358 7.08106,1.40358c0.06885,0 0.13761,-0.00038 0.20628,-0.00113c9.99892,6.76268 29.01028,17.5277 40.00245,6.04999c2.03779,-2.1278 3.21905,-4.9748 4.34191,-7.69865c1.28577,-3.11906 2.35935,-6.32439 3.28881,-9.58044c1.27255,1.03223 2.67701,2.00261 4.27831,2.93234c13.02615,7.56306 31.29283,-9.0387 31.4975,-22.66793c0.1248,-8.31058 -4.97267,-15.9029 -12.28837,-19.53522c8.13965,-11.17447 13.83037,-28.95638 10.88404,-41.38958c-0.1851,-0.78114 -1.97451,-7.49967 -3.10156,-8.80468c-15.04562,-17.42124 -31.64522,-2.42841 -45.65984,7.49472c-4.76899,3.37672 -6.89237,3.36739 -10.98712,7.76913c-1.35586,-2.72767 -2.65416,-5.75158 -5.2671,-7.17791c-8.73109,-4.76605 -14.36753,-2.44808 -22.40982,1.18012c-6.53469,2.94806 -10.65964,4.71029 -12.83222,12.18773c-0.20719,0.71309 -1.19288,3.06341 -1.06853,4.20735c0.7836,7.20889 4.49494,20.43256 10.51248,23.85641c0.21781,0.12393 0.43394,0.2434 0.64851,0.35851c-0.58407,0.93918 -1.14483,1.86348 -1.68205,2.77755c-0.89025,-2.92662 -2.1749,-5.70846 -3.7662,-8.17975c-2.8144,-4.37079 -6.25116,-8.93904 -11.71086,-9.90731c6.03974,-11.78148 8.24822,-23.14199 8.11338,-36.37122c-0.07834,-7.68601 -1.38122,-16.86601 -4.82318,-23.87073c-1.59157,-3.23898 -4.13817,-5.95181 -5.83911,-9.12927z" fill-opacity="0.25882" fill="#c3beba"/><path d="M34,56.99342v-27.80192c3.19619,1.34699 6.35263,2.27601 9.27387,2.6741c5.85639,0.79806 11.71594,1.66712 17.61571,2.02338c1.29943,0.07847 3.64031,0.7647 4.75062,0.49866c2.7238,-0.65266 5.32402,-1.74225 7.98138,-2.62741c0.69952,-0.233 0.9563,-1.38896 1.69279,-1.42375c0.10834,-0.00511 1.91623,1.59134 2.43564,1.85104c1.34762,0.67381 3.26162,1.46887 5.25344,2.04997c-0.1518,0.47525 -0.27752,0.92243 -0.40125,1.24491c-1.77292,4.62085 -1.74431,8.41876 -0.75663,12.63893c-15.91774,-1.45814 -33.91985,3.34293 -47.84556,8.87209z" fill-opacity="0.25882" fill="#b9b3af"/><path d="M267.5,-53.99999v120.33354c-1.94168,-0.28672 -3.87779,-0.58929 -5.79267,-0.95826c-2.11098,-0.40677 -5.1073,-0.40906 -7.22273,-0.0382c-1.02083,0.17897 -11.8496,1.7632 -16.91585,3.34502c0.20405,-3.76893 0.20619,-7.56187 0.53893,-11.39072c0.01994,0.19707 0.0747,0.35805 0.19127,0.40122c2.15144,0.79677 4.82738,2.48124 6.76712,1.25611c1.63575,-1.03313 0.46197,-3.85552 0.41059,-5.78953c-0.15115,-5.68952 -2.34368,-12.4376 -6.98273,-15.873c0.01039,-0.00127 0.02047,-0.00312 0.0302,-0.00557c1.31268,-0.33095 2.61181,-0.95464 3.59994,-1.87998c1.3428,-1.25747 2.50417,-2.79199 3.20528,-4.49281c2.288,-5.55053 0.18715,-14.3397 -4.7225,-18.32393c1.9136,-0.57834 3.91159,-1.37064 4.87991,-2.56639c1.43837,-1.77619 1.18015,-6.30692 0.24889,-8.13634c-0.68938,-1.35425 -2.03105,-2.2612 -3.06915,-3.37096c-3.53108,-3.77477 -7.1837,-7.56605 -12.20979,-9.31989c-2.04812,-0.71468 -4.21972,-2.06159 -6.32407,-1.53502c-4.1621,1.04148 -1.97237,5.75213 -4.56905,7.52672c-0.72083,0.0723 -1.63864,0.2264 -2.63679,0.37582c-0.10888,-1.71888 -0.34333,-3.37642 -0.71586,-4.94845c-0.1851,-0.78114 -1.97451,-7.49967 -3.10156,-8.80468c-15.04562,-17.42124 -31.64522,-2.42841 -45.65984,7.49472c-3.60115,2.54982 -5.69376,3.1689 -8.26577,5.21445c-1.115,0.42697 -2.23582,0.84477 -3.36908,1.23905c-1.1541,-2.33305 -2.42178,-4.66268 -4.61937,-5.86229c-0.78448,-0.42822 -1.54398,-0.79927 -2.28248,-1.1173c-0.23219,-0.61026 -0.55904,-1.23627 -0.99896,-1.88177c-0.98473,-1.44491 -3.19939,-1.53395 -4.92789,-1.79801c-5.42617,-0.82892 -10.15944,1.45691 -15.23233,2.41862c-0.83935,0.15912 -1.82155,0.23278 -2.55464,-0.20587c-1.31682,-0.78794 -1.7583,-2.88735 -3.24569,-3.26485c-1.31629,-0.33407 -2.52536,1.00012 -3.79671,1.47751c-0.4205,0.15789 -0.84257,0.31271 -1.26625,0.46374c0.09565,-1.95554 0.13039,-3.94699 0.10963,-5.98269c-0.07834,-7.68601 -1.38122,-16.86601 -4.82318,-23.87073c-1.75586,-3.57335 -4.67413,-6.50632 -6.33687,-10.12927z" fill-opacity="0.20392" fill="#2b1b0f"/><path d="M132.74015,180.00003c2.24003,-2.12002 3.98215,-4.7467 4.95036,-7.78966c1.8076,-5.68104 0.7823,-22.50703 -0.79963,-28.91847c-0.7844,-3.17914 -1.59491,-6.35309 -2.5,-9.5c-0.36927,-1.2839 -1.58689,-2.33222 -1.61538,-3.66787c-0.10468,-4.90689 0.11701,-9.12221 -0.11212,-13.20701c1.74422,4.06211 4.07378,8.10854 5.85211,11.70379c1.0334,2.08924 2.91935,7.86064 6.83807,7.35409c5.99427,-0.77486 2.85016,-10.44482 7.19108,-12.70359c0.70057,-0.36454 1.57159,0.1582 2.35834,0.22683c2.46931,0.21541 4.94281,0.38 7.41354,0.57859c7.34955,0.59072 15.09205,1.90233 21.32148,-2.68807c2.29872,-2.31606 4.7539,-5.01624 5.31689,-8.41586c0.06191,-0.37389 0.04511,-9.42651 0.04511,-9.47277c0,-0.20851 0.00138,-10.03065 -0.00429,-10.1463c-0.15494,-3.15904 0.50964,-9.95373 1.45029,-17.52149c2.75159,0.53666 5.61123,0.23769 8.3974,-0.68552c1.48768,12.06377 3.0036,23.99242 3.68886,28.25364c0.39983,2.48637 0.987,4.8808 1.73605,7.20107c-0.6945,7.97701 2.4738,14.86563 -2.83832,23.60149c-0.64628,1.0628 -5.64543,2.56972 -6.87023,3.37862c-5.85431,3.86641 -14.74621,10.462 -18.17616,16.73389c-4.20416,7.6876 -4.22313,16.88624 -2.86912,25.6846z" fill-opacity="0.20392" fill="#2b1b0f"/><path d="M64.03206,37.34819c0.1883,1.88754 0.46063,3.8051 1.14442,5.57447c0.7649,1.97925 2.44634,3.48832 3.61365,5.26197c-12.97508,1.16174 -26.22069,5.24995 -36.79014,9.61914v-29.50705c3.87148,1.83186 7.74435,3.0879 11.27387,3.56887c5.85639,0.79806 11.71594,1.66712 17.61571,2.02338c0.76823,0.04639 1.90048,0.30521 2.92724,0.45409c0.01859,0.84823 0.09677,1.81757 0.21524,3.00513z" fill-opacity="0.20392" fill="#2b1b0f"/><path d="M128.92983,81.90157c0.25447,0.95555 0.92329,1.77166 1.15221,2.73364c0.28598,1.20174 0.2447,2.45847 0.37565,3.6868c0.33888,3.17857 0.52082,6.38031 0.49795,9.57681c-0.19909,2.19181 -0.574,4.96219 -0.6812,7.6221c-0.75974,-1.90901 -1.74728,-3.89345 -3.02967,-6.00171c-1.09395,-1.79847 -2.04894,-3.73256 -3.24089,-5.46835c1.55392,-4.11764 3.43417,-8.10759 4.85124,-12.27567c0.02104,0.00608 0.0421,0.01212 0.06317,0.01813c-0.00009,0.04111 0.00343,0.07783 0.01154,0.10825z" fill-opacity="0.20392" fill="#2b1b0f"/></g><path d="M-7.5,367.00003v-374h48.34275c-0.12156,0.39145 -0.2096,0.6834 -0.25251,0.82775c-2.76172,9.29026 -3.33185,19.37938 -4.03852,29.07193c-1.53721,21.08403 -1.55563,43.17958 -0.41514,63.7716c0.4885,8.82008 4.03081,16.66012 7.03804,24.86968c3.37078,9.20206 5.86903,20.39141 12.31152,28.09097c2.68884,3.21349 5.59752,4.56822 8.63201,7.25333c6.16822,5.45804 9.58587,12.24812 17.66797,15.0245c16.29055,5.59616 39.11183,6.48627 55.53554,4.62752c9.56931,-1.08301 19.11115,-2.86137 28.73222,-3.41228c16.22868,-0.92927 32.23868,-0.92759 48.31202,-3.15831c4.74718,-0.65883 9.95179,-0.63057 14.55949,-2.14026c9.60042,-3.14555 14.35122,-13.49631 20.28331,-20.76795c7.0632,-8.65819 18.90274,-10.33577 24.65463,-19.92223c6.66653,-11.11088 0.77988,-26.59565 -0.98144,-38.05632c-0.97435,-6.33999 -2.10652,-14.98556 -2.38185,-21.38888c-0.04397,-1.0227 0.31974,-8.49157 -0.06117,-12.17035c-0.6078,-5.87004 -1.53341,-11.70966 -1.95511,-17.596c-0.39191,-5.47059 -0.43004,-10.96236 -0.48372,-16.44671c-0.06029,-6.15898 -0.09358,-12.31853 -0.08846,-18.47797h51.58846v374z" fill="#382414" stroke-width="0"/><path d="M-7.5,367.00003v-374h48.34275c-0.12156,0.39145 -0.2096,0.6834 -0.25251,0.82775c-2.76172,9.29026 -3.33185,19.37938 -4.03852,29.07193c-1.53721,21.08403 -1.55563,43.17958 -0.41514,63.7716c0.4885,8.82008 4.03081,16.66012 7.03804,24.86968c3.37078,9.20206 5.86903,20.39141 12.31152,28.09097c2.68884,3.21349 5.59752,4.56822 8.63201,7.25333c6.16822,5.45804 9.58587,12.24812 17.66797,15.0245c16.29055,5.59616 39.11183,6.48627 55.53554,4.62752c9.56931,-1.08301 19.11115,-2.86137 28.73222,-3.41228c16.22868,-0.92927 32.23868,-0.92759 48.31202,-3.15831c4.74718,-0.65883 9.95179,-0.63057 14.55949,-2.14026c9.60042,-3.14555 14.35122,-13.49631 20.28331,-20.76795c7.0632,-8.65819 18.90274,-10.33577 24.65463,-19.92223c6.66653,-11.11088 0.77988,-26.59565 -0.98144,-38.05632c-0.97435,-6.33999 -2.10652,-14.98556 -2.38185,-21.38888c-0.04397,-1.0227 0.31974,-8.49157 -0.06117,-12.17035c-0.6078,-5.87004 -1.53341,-11.70966 -1.95511,-17.596c-0.39191,-5.47059 -0.43004,-10.96236 -0.48372,-16.44671c-0.06029,-6.15898 -0.09358,-12.31853 -0.08846,-18.47797h51.58846v374z" fill="url(#color-1)" stroke-width="0"/><path d="M23.38027,137.7805v-197.78049h261.23947v197.25167c0,0 -6.45027,1.1754 -13.57781,3.73253c-1.21641,0.43641 -2.45256,-3.21316 -3.67973,-2.40541c-1.59816,1.05194 -3.1811,12.09502 -4.68545,13.08798c-1.30995,0.86464 -3.541,-3.94773 -4.64594,-2.93353c-13.31814,12.22457 -14.13058,29.76676 -14.13058,29.76676c0,0 -2.28787,15.51194 -6.33477,15.53491c-1.32096,0.0075 -2.57934,-8.30367 -4.25674,-8.42417c-1.10113,-0.0791 -2.27565,2.33464 -3.51831,2.24214c-1.77123,-0.13186 -3.68089,-9.7889 -5.71377,-9.96673c-1.04664,-0.09156 -2.62594,2.07593 -3.73583,2.00192c-7.64496,-0.50976 -16.95162,-0.5432 -26.76329,-0.67788c-1.40501,-0.01928 -2.82472,-2.0363 -4.2573,-2.05119c-1.40598,-0.01461 -3.57434,4.47958 -5.00334,4.48164c-1.49344,0.00216 -2.99538,-4.50575 -4.50427,-4.52239c-0.83005,-0.00915 -2.16218,1.73552 -2.99615,1.73376c-21.17675,-0.0449 -43.03544,0.45546 -62.25546,0.698c-5.38252,0.06793 -12.67502,1.86872 -17.24465,1.89799c-3.15919,0.02023 -6.59017,-1.21433 -9.24876,-1.2044c-1.13477,0.00423 -2.71955,1.50641 -3.75091,1.50641c-3.09597,0 -5.71045,-3.25 -7.75,-3.25c-1.51028,0 -6.02294,38.5 -7.5,38.5c-1.66944,0 -2.41061,-22.45453 -3.72461,-25.14629c-1.23296,-2.52573 -2.10683,5.87672 -3.09907,4.15114c-1.0262,-1.78463 -0.69133,-10.91992 -1.44998,-13.607c-1.44143,-5.10544 -3.56795,-3.89785 -3.56795,-3.89785c0,0 -4.27788,-16.71776 -11.6496,-25.98885c-0.52338,-0.65822 0.18867,11.21019 -0.3604,10.60437c-0.97242,-1.07294 -1.99474,-15.21595 -3.04427,-16.40068c-0.83904,-0.94713 -1.69547,2.20566 -2.55768,1.44788c-7.87519,-6.92137 -16.23284,-10.38223 -16.23284,-10.38223zM72.13792,161.15455l158.85898,-0.10577c0,0 2.20701,-16.28956 11.1646,-24.43651c9.80672,-8.91923 24.72417,-13.18593 24.72417,-13.18593l-1.21373,-142.48799l-222.72515,-25.60242v170.2816c0,0 13.44536,5.33267 19.85612,14.36802c5.10168,7.19032 9.33501,21.16901 9.33501,21.16901z" fill="url(#color-2)" stroke-width="0"/><path d="M30.75,134v-187h247v186.5c0,0 -16.57597,2.99524 -25.13964,10.85574c-12.59221,11.55825 -13.36036,28.14426 -13.36036,28.14426h-176.5c0,0 -4.04471,-15.80651 -11.01461,-24.57227c-8.47129,-10.65396 -20.98538,-13.92773 -20.98538,-13.92773zM76.85,156.10001l150.2,-0.1c0,0 2.08671,-15.40166 10.55604,-23.10454c9.27218,-8.43307 23.37653,-12.4672 23.37653,-12.4672l-1.14757,-134.72135l-210.585,-24.2069v161c0,0 12.71249,5.042 18.77382,13.58486c4.82359,6.79839 8.82618,20.01514 8.82618,20.01514z" fill="url(#color-3)" stroke-width="0"/><path d="M30.58334,134l18.5,-11.5c0,0 12.71249,5.042 18.77382,13.58486c4.82359,6.79839 8.82618,20.01514 8.82618,20.01514l-14.1,16.4c0,0 -4.04471,-15.80651 -11.01461,-24.57227c-8.47129,-10.65396 -20.98538,-13.92773 -20.98538,-13.92773z" fill="url(#color-4)" stroke-width="0"/><path d="M277.58333,133.33335c0,0 -16.57597,2.99524 -25.13964,10.85574c-12.59221,11.55825 -13.36036,28.14426 -13.36036,28.14426l-12.2,-16.5c0,0 2.08671,-15.40166 10.55605,-23.10454c9.27218,-8.43307 23.37652,-12.4672 23.37652,-12.4672z" fill="url(#color-5)" stroke-width="0"/><path d="M319.25,265.00003c0,10 0,20.5 0,30.5c0,11.87865 0.5,23.57931 0.5,35.5c0,12 0,24 0,36c-0.03172,0.82612 0.20657,1.70866 -0.09515,2.47836c-1.21046,3.08787 -8.00263,2.75535 -10.64103,3.49454c-10.5485,2.95535 -21.06713,4.29251 -31.89738,5.64728c-17.17833,2.14729 -34.2883,4.12982 -51.61644,4.12982c-17.29389,0 -34.31715,-2.11169 -51.55395,-2.80116c-16.59589,-0.66384 -33.07398,-0.03965 -49.62995,-1.87825c-16.98495,-1.88722 -33.98504,-1.69056 -51.01294,-2.865c-10.05743,-0.3788 -19.88896,-1.72148 -29.90331,-2.45924c-7.11906,-0.52447 -14.18929,-0.40512 -21.2937,-1.23273c-5.8177,-0.67772 -11.65419,-1.29719 -17.41888,-2.34593c-2.38045,-0.43306 -5.78937,-0.50261 -7.63157,-2.34868c-1.08956,-1.09184 -1.29851,-3.89675 -1.30568,-5.319c-0.02522,-4.99973 0,-10.0002 0,-15c0,-7.88049 -2.34956,-15.08934 -2.99574,-22.8969c-0.45212,-5.46286 -0.39292,-10.99957 -0.99489,-16.45037c-0.30488,-2.76066 -1.00607,-5.31423 -1.00937,-8.15273c0,-10.05144 -0.47118,-20.30854 1.00937,-30.15273c0.23143,-1.53883 0.7923,-3.09124 1.38454,-4.62248c-0.17109,-0.05619 -0.34945,-0.16256 -0.5278,-0.34091c-0.88389,-0.88389 0,-1.76777 0,-1.76777c0.80234,-0.65425 1.38582,-3.21351 1.58818,-4.19005c1.10649,-5.33961 1.73499,-11.77286 4.10911,-16.81911c0.37589,-0.79897 0.43363,-2.23099 1.31389,-2.30009c2.71211,-0.21292 4.08642,2.82881 4.52589,4.76415c0.51557,2.27045 0.5619,4.82953 1.07051,7.17389c1.31486,6.64989 1.98283,13.35434 2.52024,20.10272c0.12777,1.60435 0.89416,3.09544 1.22158,4.67122c1.63963,7.89111 2.68308,16.15475 3.75274,24.16511c1.45017,7.34807 0.74339,15.19642 7.04049,20.32267c1.95265,1.58958 6.43058,2.03438 8.51037,0.47933c1.63619,-1.22337 1.76481,-2.75378 4.47832,-2.21121c1.54681,0.30929 3.39034,2.46861 5.10206,3.02511c2.3814,0.60685 5.89356,1.26402 7.74245,-0.65887c2.22588,-2.31495 1.15807,-7.27946 1.15807,-10.14098c0,-7.16667 0,-14.33333 0,-21.5c0,-6.67133 0,-13.34265 0,-20.01398c-0.16331,-1.71193 -0.27831,-3.51555 0,-5.05288c0,-0.47771 0,-0.95542 0,-1.43314v-2.5c0,-0.69036 0.55965,-1.25 1.25,-1.25c0.69035,0 1.25,0.55964 1.25,1.25c0,0.33333 0,2.16667 0,2.5c0,0.75221 0,1.50441 0,2.25662c0.57281,5.47212 -0.05382,11.08952 0.49392,16.62021c0.78517,7.92816 1.48543,16.51551 3.44545,24.23859c0.67201,1.67518 1.12201,3.72482 1.93353,5.3354c0.53066,1.05318 0.89096,2.24318 1.69611,3.10487c1.84515,1.97474 4.09725,0.29856 4.78369,-1.60155c2.46744,-6.83005 3.11246,-14.8656 4.15047,-22.04286c-0.00933,-7.13707 -0.00316,-14.27419 -0.00316,-21.41127c0,-3.3664 0.3858,-7.01185 0.00937,-10.34727c-0.33755,-2.99087 -1.00937,-5.58515 -1.00937,-8.65273c0,-1.82929 0,-3.65858 0,-5.48786c-0.23175,-1.71989 -0.3783,-3.47336 0,-4.97694c0,-0.34507 0,-0.69013 0,-1.03519v-2.5c0,-0.69036 0.55965,-1.25 1.25,-1.25c0.69035,0 1.25,0.55964 1.25,1.25c0,0.33334 0,2.16666 0,2.5c0,0.78181 0,1.56363 0,2.34545c0.43243,4.14526 0.23779,8.40401 0.49759,12.57688c0.06191,0.99437 0.13893,1.98475 0.22898,2.9718c0.09858,0.63678 0.19084,1.28428 0.26407,1.95314c0.06284,0.57394 0.105,1.15572 0.13165,1.74285c0.82265,6.75082 2.13904,13.38567 3.2646,20.13149c1.10999,4.77508 1.53473,9.77185 2.01786,14.61942c0.56209,5.63991 0.40091,12.35292 5.61453,16.17371c1.94366,1.42441 4.83815,2.55659 7.12602,3.2994c5.26171,1.76493 10.67834,3.22892 15.95847,4.99265c2.25714,0.75396 5.83412,2.55919 8.35906,1.97664c5.17911,-1.19491 8.38729,-7.39166 9.54655,-11.93617c-0.11548,-16.61137 0.49063,-33.22095 0.49063,-49.84727c0,-16.8873 -3,-33.6222 -3,-50.5v-2.5c0,-0.69036 0.55965,-1.25 1.25,-1.25c0.69035,0 1.25,0.55964 1.25,1.25v2.5c0,0.19292 0.00039,0.38582 0.00117,0.57871c1.09346,4.50573 1.65209,9.09644 2.47942,13.70185c1.88831,10.51144 4.16121,20.94917 4.82887,31.63174c0.81329,13.12037 3.47695,26.69937 7.13028,39.20427c0.90392,3.094 1.14836,6.25229 2.24562,9.2894c1.75539,5.15042 3.06885,10.402 6.53133,14.80156c5.40018,6.86168 15.96103,7.59756 23.89919,6.19784c11.4912,-11.88454 11.38413,-29.75759 11.38413,-45.40536c0,-9.66667 0,-19.33333 0,-29v-1.5c0,-0.69036 0.55964,-1.25 1.25,-1.25c0.5623,0 1.03789,0.37128 1.19497,0.88206l0.49088,1.47266l-0.33264,0.11088c1.8586,3.71326 2.21929,8.13559 3.02422,12.25632c2.17255,11.12198 2.93027,22.65799 5.38125,33.6737c0.9812,4.42989 2.55997,8.7614 3.47385,13.14623c0.27884,1.33789 0.32829,2.73719 1.59471,3.77105c2.31003,1.88585 5.50427,3.34912 8.32547,3.69646c1.51799,0.18689 2.39563,0.94084 3.98504,0.54427c3.21809,-0.80294 5.34796,-4.92235 6.17192,-7.70153c1.37229,-4.56007 2.96012,-9.47573 3.44714,-14.23253c0.65777,-6.42451 0.3014,-13.07546 1.00235,-19.49601c0.22698,-2.07909 0.20173,-5.30473 1.04068,-7.22305c0.3726,-0.85198 0.53008,-2.36288 1.45986,-2.3772c1.00437,-0.01547 3.48746,3.09831 4.26206,4.00662c1.16588,2.03019 2.1913,3.87227 3.11196,6.02553c0.15469,0.36179 0.39221,0.69956 0.46306,1.08617c0.66123,-3.71741 2.69155,-7.19206 3.16569,-11.06787c0.96149,-7.85964 0.48752,-15.92388 0.48752,-23.82376c0,-5.85556 -0.79932,-12.35359 0.00937,-18.15273c0.40757,-2.92272 1.258,-5.59394 1.99063,-8.46329v-1.38398v0c0,-0.69036 0.55964,-1.25 1.25,-1.25c0.49901,0 0.92971,0.2924 1.13014,0.7152l0.98789,1.97578l-0.02082,0.01041c0.0316,0.05327 0.06212,0.10726 0.09151,0.16205c0.81126,1.51254 0.60019,3.38005 0.93144,5.06414c0.78535,3.99274 0.90435,7.73201 1.12828,11.76014c0.54323,9.77179 0.91952,19.58369 1.98014,29.33187c1.73495,6.46788 2.68666,12.93403 3.99724,19.48576c0.57355,2.86723 1.06089,6.06019 1.88456,8.85855c0.47016,1.59735 1.35625,3.07965 1.62883,4.72229c0.28307,1.70587 0.11062,3.71617 0.47734,5.3766c0.54892,2.48541 2.13898,4.87112 2.66733,7.4033c3.88055,0.9003 6.58286,-4.91879 7.93406,-7.56815c4.30029,-8.43176 2.43205,-19.35539 2.43205,-28.54796v-1.5c0,-0.69036 0.55964,-1.25 1.25,-1.25c0.59488,0 1.09269,0.41555 1.21902,0.9722l0.59999,2.39999l-0.24105,0.06027c3.71904,8.54802 4.16645,18.60656 7.76201,27.23898c1.21492,2.91684 3.14285,7.10864 4.97903,9.63425c0.48363,0.66523 1.15924,-0.33133 1.38851,-0.52236c4.66039,-4.68322 5.78873,-10.82792 6.80828,-17.17478c1.29911,-8.08713 1.7342,-16.18103 1.7342,-24.35854c0,-10.83333 0,-21.66666 0,-32.5c0,-2.36903 0.11362,-4.42133 0.51614,-6.70023c0.1032,-0.58425 -0.2629,-1.29326 0.07901,-1.77812c0.5711,-0.80989 1.46275,-2.04944 2.40618,-1.74612c1.70128,0.54699 2.93152,6.33749 3.45168,7.88898c2.8653,8.61563 3.12068,18.22634 5.02085,27.08119c1.3926,6.48957 3.71405,12.86366 4.48652,19.4421c1.64227,4.07806 1.94415,8.32893 3.46197,12.37851c0.15646,0.41744 1.17445,1.85474 1.46576,2.99016c0.07481,-0.1893 0.14351,-0.36182 0.18815,-0.48641c0.76883,-2.14544 1.1458,-2.70988 1.43309,-4.72279c0.71173,-4.98674 3.21062,-9.53866 3.81038,-14.48301c0.17754,-1.35366 0.85773,-2.59863 1.13403,-3.93563c0.47994,-2.32234 0.18801,-5.02431 0.5393,-7.40695c0.99104,-6.72176 2.58564,-13.50009 3.25961,-20.2982c-0.15308,9.25538 -0.3978,18.02752 -0.78635,20.66285c-0.01815,0.12314 -0.03468,0.24702 -0.04977,0.37155c1.08343,0.1058 1.08343,1.24212 1.08343,1.24212zM319.00269,242.72351c0.20938,-12.65968 0.24732,-26.22348 0.24732,-26.22348c0,2.33334 0,6.16666 0,8.5c0,4.79912 0.23907,9.67034 -0.00092,14.46229c-0.05446,1.08747 -0.13867,2.17458 -0.2464,3.26119z" fill="url(#color-6)" stroke-width="0.5"/><path d="M82.41192,289.36938c-0.59991,-12.62482 -0.65867,-25.20319 -0.66192,-37.86919c0,-4.50321 -0.53996,-8.87439 -0.98397,-13.32607c-0.33955,-3.40437 0.58132,-7.11078 0.00011,-10.47386c-1.03343,-5.97979 -1.01614,-12.05928 -1.01614,-18.20023c0,-3.97249 -1.30805,-11.7064 1.20865,-15.19144c1.96859,-2.72603 5.30253,-2.77905 8.03566,-3.95171c2.19306,-0.94093 3.99855,-1.59421 6.50569,-1.60685c0.5585,-0.00281 3.29162,-0.03136 3.58982,0.14791c1.83458,1.10293 2.67717,4.81086 3.56896,6.60799c2.37738,4.84359 2.73667,10.46608 3.96872,15.67264c2.56706,10.8482 2.1225,21.72965 2.1225,32.82146c0,4.89248 -0.44414,10.01821 -0.00505,14.88774c0.70092,7.7734 1.54693,15.24523 1.50505,23.11226c-0.01667,3.13029 -1.51614,6.01693 -1.51614,9.20023c-0.83519,2.5439 -2.65033,6.8408 -5.0767,8.36309c-2.67051,1.67546 -6.07088,2.42288 -9.04467,3.53751c-2.30922,0.86554 -6.66566,2.35413 -8.89465,0.37422c-2.94867,-2.61915 -2.84133,-6.94371 -3.9517,-10.27482c-0.00538,-0.56675 -0.01076,-1.13348 -0.01614,-1.70023v-1c0,0 0,-0.81816 0.66192,-1.13065z" fill-opacity="0.02353" fill="#ffa55c" stroke-width="0.5"/><path d="M143.43408,286.82241c-1.04522,-3.53503 -2.24402,-7.03807 -3.14292,-10.5043c-1.4538,-5.60595 -2.11619,-11.31585 -2.74578,-17.05648c-1.76137,-16.06329 -2.79538,-32.10196 -2.79538,-48.26162c0,-5.43052 -0.2997,-12.49245 4.42274,-16.4371c1.82433,-1.52387 4.70857,-2.06579 6.79034,-3.19634c1.93674,-1.05179 6.73583,-3.48936 9.10413,-1.98046c2.27264,1.44796 4.45334,5.8778 5.71219,8.23154c2.53931,4.76121 3.33764,8.92853 4.44461,14.12883c0.93418,4.38858 2.30683,8.64246 2.52356,13.17585c0.31827,6.65739 0.00242,13.4123 0.00242,20.07767c0,7.33334 0,14.66667 0,22c0,3.7981 0.39032,7.82735 -0.00426,11.6031c-0.54316,5.19758 -2.999,10.35544 -3.01188,15.59713c-1.87764,5.8078 -8.26408,17.03793 -15.52634,11.26645c-0.54441,-0.43266 -1.26377,-0.66712 -1.7009,-1.20794c-2.91213,-3.60294 -2.82326,-8.51745 -3.70563,-12.89164c-0.34725,-1.08299 -0.54042,-2.22985 -0.55098,-3.3671v-0.5c0,0 0,-0.34859 0.18408,-0.67759z" fill-opacity="0.02353" fill="#ffa55c" stroke-width="0.5"/><path d="M190.99551,274.72398c-2.19822,-8.59587 -1.75535,-17.86299 -2.243,-26.64475c-0.73044,-10.22391 -1.00251,-20.32925 -1.00251,-30.5792c0,-5.58453 -0.30322,-10.93719 1.04985,-16.34948c0.59943,-1.79056 1.2646,-4.13087 2.1124,-5.76639c1.43623,-2.77067 4.95611,-3.81114 7.70362,-2.47188c1.65591,0.80717 3.63083,3.88491 4.52963,5.38357c1.36621,2.278 1.8036,4.91082 2.44906,7.44427c1.69699,6.66069 2.14078,12.82213 2.15429,19.67701c0.00322,17.02764 0.00115,34.05527 0.00115,51.08291c0,3.26511 -0.20756,10.24905 -4.27165,11.65485c-2.23415,0.77281 -4.36098,0.03967 -6.22057,-1.42923c-1.0791,0.26324 -1.44364,-0.83034 -1.44364,-0.83034c-0.09412,-0.28238 -0.1951,-0.56002 -0.30178,-0.83373c-2.39287,-2.68588 -4.12581,-6.3659 -4.72504,-8.75838l-0.03732,-0.80317c0,0 0,-0.42235 0.24551,-0.77605z" fill-opacity="0.02353" fill="#ffa55c" stroke-width="0.5"/><path d="M214.59041,233.3089c-0.14774,-8.45135 -0.34399,-16.90241 -0.33885,-25.37114c0.41512,-4.17677 0.84492,-8.39997 1.47553,-12.53852c0.10664,-0.69988 0.40485,-1.35967 0.53279,-2.05598c0.12568,-0.68402 -0.29149,-1.60957 0.22607,-2.07412c0.79344,-0.71218 2.04789,-1.17999 3.07307,-0.88715c0.50673,0.14475 3.02049,5.42926 3.20653,5.85841c3.13533,7.23237 2.48445,15.0524 2.48445,22.75963c0,2.83606 0.21929,5.76256 -0.00314,8.58861c-0.31763,4.03562 -1.53861,7.9456 -1.9841,11.94323c-0.17127,1.53689 -0.03952,3.98313 -0.6079,5.44652c-0.17067,0.43942 -0.82493,0.56231 -1,1c-0.1857,0.46424 0.21837,1.05021 0,1.5c-1.14927,2.3673 -2.99774,2.61107 -4.53055,1.58116c-0.14461,0.33273 -0.45558,0.69048 -1.1243,0.69048c-1.25,0 -1.25,-1.25 -1.25,-1.25c0,-1.03369 -0.00296,-2.06723 -0.00842,-3.10063c-0.62311,-2.30928 -0.49221,-5.11825 -0.48732,-7.29627c-0.13275,-0.78786 -0.2655,-1.57573 -0.39825,-2.36359l-0.1014,-1.13232c0,0 -0.0889,-1.03284 0.8358,-1.29832z" fill-opacity="0.02353" fill="#ffa55c" stroke-width="0.5"/><path d="M247.2171,253.48873c-0.11135,-10.8047 -0.4671,-21.63273 -0.4671,-32.4887c0,-8.42753 -0.86042,-17.45998 0.51614,-25.70023c0.62142,-3.71993 0.53381,-7.18842 2.69379,-10.49314c1.93797,-2.89816 3.64904,-6.20663 6.15618,-8.69051c2.61244,-2.58821 6.22265,-4.28074 9.0914,-6.5828c1.93192,-1.55029 3.17709,-3.1857 4.9086,-4.9172c2.93156,-2.93157 6.02166,-4.92714 8.4223,-8.41477c3.44968,-3.46614 7.65133,-7.33446 9.83869,-11.75054c3.31946,-6.70168 2.8729,-14.17801 2.8729,-21.45081c0,-7.83334 0,-15.66666 0,-23.5c0,-5.07335 -0.53732,-10.03782 1.30568,-14.819c2.63644,-1.42344 5.23275,-3.22216 7.78715,-4.74431c1.11341,-0.66348 2.58223,-1.60732 3.74698,-1.03878c2.16618,1.05736 3.11472,5.25227 3.62286,7.29893c0.34444,1.38733 1.19164,2.62105 1.50388,4.01598c0.64889,2.89887 0.56869,6.13327 1.02175,9.11665c0.51082,3.36369 1.35249,6.55838 1.47191,9.97268c0.45551,6.02869 1.23775,12.09794 1.53786,18.12873c0.49581,9.96332 0.00191,20.09236 0.00191,30.06913c0,16.84933 0.49979,33.64498 0.49999,50.47518c0.00002,7.17494 0.00001,14.34989 0.00001,21.52482c0,8.21573 0.07194,15.82671 -2.68669,23.65716c-0.71082,0.53031 -1.26571,1.77869 -2.13244,1.59092c-2.3902,-0.51782 -4.56388,-6.73583 -5.12912,-8.89214c-1.78944,-6.82642 -1.6021,-14.21841 -3.02819,-21.11437c-1.13078,-5.46798 -2.64038,-10.96294 -3.97435,-16.39425c-2.28463,-6.84449 -4.85303,-12.62389 -8.84236,-18.65858c-1.31532,-1.9897 -2.59861,-4.02035 -3.97728,-5.96677c-0.19885,-0.28074 -0.43406,-0.53945 -0.66236,-0.80183c-0.04349,0.84811 -0.2833,1.72609 -0.35252,2.20022c-0.55542,3.80441 -0.69672,7.51147 -0.70845,11.35662c-0.01484,4.80769 0.45837,9.86529 -0.01233,14.6462c-0.45931,4.66522 -1.45205,9.29946 -1.91082,13.96417c-0.70575,7.17609 -0.0831,14.70136 -0.0831,21.91266c0,4.66666 0,9.33333 0,14c0,2.48766 0.55665,5.78692 -0.02256,8.23638c-0.60944,2.57734 -2.43669,8.01536 -6.38461,5.82693c-0.8226,-0.45598 -0.93077,-1.63506 -1.42397,-2.4359c-1.21312,-1.96978 -2.21246,-3.82661 -3.02034,-6.01668c-0.87244,-2.36509 -1.71108,-4.74764 -2.45218,-7.15688c-2.51263,-8.18269 -4.07378,-16.80161 -5.18473,-25.28384c-1.07999,-8.24593 -1.15085,-16.5403 -3.06933,-24.65375c-0.20437,-0.8647 -0.3936,-1.73225 -0.57711,-2.60084c-0.29187,1.9178 -0.706,3.83319 -0.74262,5.54352c-0.23048,10.7642 -0.52357,22.17013 -2.63087,32.70403c-0.53249,3.70467 -1.3991,7.39004 -2.00782,11.03726c-0.23849,1.42893 0.67906,3.10084 -0.9646,4.28503c-1.20967,0.87151 -2.09849,0.76925 -2.76954,0.18252c-0.13916,0.05163 -0.30415,0.08222 -0.49972,0.08222c-1.25,0 -1.25,-1.25 -1.25,-1.25c0,-0.85426 -0.00223,-1.70865 -0.00638,-2.56319c-0.16511,-0.60685 -0.30088,-1.15574 -0.42947,-1.54152l-0.06414,-0.89529c0,0 0,-0.6485 0.4671,-1.0113z" fill-opacity="0.02353" fill="#ffa55c" stroke-width="0.5"/><path d="M5.36697,138.24505c-1.11697,-0.08538 -1.11697,-1.24504 -1.11697,-1.24504c0,-13.01382 -0.49026,-27.414 3.56415,-39.89528c0.42673,-0.76235 0.41777,-2.14737 1.28018,-2.28706c4.0355,-0.65365 3.65084,6.039 3.65567,8.18234c0.02406,10.66654 0,21.33343 0,32c-0.00208,3.96375 0.46683,7.90879 0.98926,11.83648c0.16182,1.21655 0.13216,3.80863 0.82406,5.00636c0.81262,1.40673 2.87021,1.3598 4.09385,2.09385c0.86713,0.52019 1.41507,1.53137 2.34853,1.92017c1.72919,0.72023 3.72372,0.74237 5.47266,1.48829c2.97325,1.26809 5.62015,3.0036 7.90553,5.27097c1.99305,1.99305 4.28062,3.92299 6.08279,6.0914c1.43754,1.72967 2.14809,3.76875 3.14348,5.71799c1.82643,3.57665 3.79434,7.32759 5.07218,11.16883c1.82519,5.48656 2.52829,11.41729 4.0904,17.02152c1.23887,4.48201 2.34976,9.67621 2.96522,14.21109c0.79936,5.88989 3.02999,11.56813 3.50838,17.57752c0.3451,4.33498 0.23107,8.57361 0.84629,12.90392c0.2448,4.918 0.65737,9.75878 0.65737,14.69163c0,0.72815 0.0759,3.5395 -0.36612,3.88388c-3.31729,2.58454 -4.54939,-2.16904 -5.08403,-4.0344c-1.14866,-4.00762 -0.02676,-8.13916 -0.54377,-12.22631c-0.21038,-1.66313 -0.4943,-3.32763 -0.50234,-5.00399c-0.83919,-7.55696 -2.97976,-14.7719 -4.85475,-22.05539c-0.07238,1.04067 -0.14899,2.04413 -0.14899,2.93621c0,5.5716 -1.23064,11.19254 -2.01614,16.70023c-0.54355,3.81122 -0.54975,7.6786 -1.49322,11.4525c0.00628,2.81343 -1.10459,5.26836 -1.5,8c-0.40726,2.81351 -0.33368,5.86783 -1.02407,8.63446c-0.3421,1.37092 -1.21408,2.58214 -1.49275,3.96735c-1.18726,5.90159 -2.11218,11.86342 -4.03796,17.64075c-0.68499,2.05497 -1.02983,4.93374 -3.02869,6.16803c-3.86359,2.38576 -7.87663,-0.14169 -9.57236,-3.67043c-3.80546,-7.91902 -5.62711,-17.76456 -7.31878,-26.2188c-0.09318,-16.80625 -2.7856,-33.3116 -4.32248,-50.01339c-1.4867,-16.19088 -5.59203,-32.34398 -5.69332,-48.62163c-0.00116,-10.52556 -1.88952,-20.81064 -2.38325,-31.29403z" fill-opacity="0.02353" fill="#ffa55c" stroke-width="0.5"/><path d="M319.75,339.12961c0,6.50704 0,13.33944 0,19.84648c0,7.72948 0.5,15.34316 0.5,23.1c0,7.80845 0,15.6169 0,23.42535c-0.03172,0.53756 0.20657,1.11183 -0.09515,1.61268c-1.21046,2.00929 -8.00263,1.79292 -10.64103,2.27392c-10.5485,1.92306 -21.06713,2.79315 -31.89738,3.67471c-17.17833,1.39725 -34.2883,2.68729 -51.61644,2.68729c-17.29389,0 -34.31715,-1.37409 -51.55395,-1.82273c-16.59589,-0.43196 -33.07398,-0.0258 -49.62995,-1.22219c-16.98495,-1.22802 -33.98504,-1.10005 -51.01294,-1.86427c-10.05743,-0.24649 -19.88896,-1.12017 -29.90331,-1.60024c-7.11906,-0.34127 -14.18929,-0.26361 -21.2937,-0.80214c-5.8177,-0.441 -11.65419,-0.84408 -17.41888,-1.52651c-2.38045,-0.2818 -5.78937,-0.32705 -7.63157,-1.5283c-1.08956,-0.71047 -1.29851,-2.53563 -1.30569,-3.4611c-0.02522,-3.25335 0,-6.50718 0,-9.76056c0,-5.12786 -2.34956,-9.81869 -2.99574,-14.89911c-0.45212,-3.55471 -0.39292,-7.15747 -0.99489,-10.70433c-0.30488,-1.79637 -1.00607,-3.45799 -1.00937,-5.30502c0,-6.54051 -0.47118,-13.21485 1.00937,-19.62051c0.23143,-1.00132 0.7923,-2.01148 1.38454,-3.00786c-0.17109,-0.03656 -0.34945,-0.10578 -0.52779,-0.22183c-0.88389,-0.57515 0,-1.1503 0,-1.1503c0.80234,-0.42572 1.38582,-2.09104 1.58818,-2.72648c1.10649,-3.4745 1.73499,-7.66065 4.10911,-10.94427c0.37589,-0.51989 0.43363,-1.45171 1.31389,-1.49668c2.7121,-0.13854 4.08642,1.84072 4.5259,3.10006c0.51557,1.47739 0.5619,3.1426 1.07051,4.66808c1.31486,4.32711 1.98283,8.68972 2.52024,13.08092c0.12777,1.04396 0.89416,2.01422 1.22158,3.03958c1.63962,5.13478 2.68308,10.51196 3.75274,15.72434c1.45017,4.78142 0.74339,9.88837 7.04049,13.22404c1.95265,1.03435 6.43058,1.32378 8.51037,0.3119c1.63619,-0.79605 1.76481,-1.7919 4.47832,-1.43884c1.54681,0.20126 3.39034,1.60633 5.10206,1.96846c2.3814,0.39488 5.89356,0.8225 7.74245,-0.42873c2.22588,-1.50635 1.15807,-4.73678 1.15807,-6.59878c0,-4.66338 0,-9.32676 0,-13.99014c0,-4.34106 0,-8.68212 0,-13.02318c-0.16331,-1.11396 -0.27831,-2.28758 0,-3.28793c0,-0.31085 0,-0.6217 0,-0.93255v-1.62676c0,-0.44922 0.55965,-0.81338 1.25,-0.81338c0.69035,0 1.25,0.36416 1.25,0.81338c0,0.2169 0,1.40986 0,1.62676c0,0.48946 0,0.97893 0,1.46839c0.57281,3.56073 -0.05382,7.21599 0.49392,10.81484c0.78517,5.15889 1.48543,10.74672 3.44545,15.77215c0.67201,1.09004 1.12201,2.42376 1.93353,3.47176c0.53066,0.68531 0.89096,1.45965 1.69611,2.02036c1.84515,1.28497 4.09725,0.19427 4.78369,-1.04214c2.46744,-4.44434 3.11246,-9.67311 4.15047,-14.34338c-0.00933,-4.64412 -0.00316,-9.28828 -0.00316,-13.93241c0,-2.19053 0.3858,-4.56264 0.00937,-6.73301c-0.33755,-1.94617 -1.00937,-3.63428 -1.00937,-5.63037c0,-1.19033 0,-2.38065 0,-3.57098c-0.23175,-1.11914 -0.3783,-2.26013 0,-3.23852c0,-0.22454 0,-0.44907 0,-0.67361v-1.62676c0,-0.44922 0.55965,-0.81338 1.25,-0.81338c0.69035,0 1.25,0.36416 1.25,0.81338c0,0.2169 0,1.40986 0,1.62676c0,0.50873 0,1.01746 0,1.52619c0.43243,2.69734 0.23779,5.46853 0.49759,8.18383c0.06191,0.64704 0.13893,1.29148 0.22898,1.93376c0.09858,0.41435 0.19084,0.83569 0.26407,1.27092c0.06284,0.37347 0.105,0.75203 0.13165,1.13408c0.82265,4.39279 2.13904,8.71012 3.2646,13.09965c1.10999,3.10716 1.53473,6.35858 2.01786,9.51292c0.56209,3.66992 0.40091,8.0381 5.61453,10.5243c1.94366,0.92687 4.83815,1.66358 7.12602,2.14693c5.26171,1.14844 10.67834,2.10107 15.95847,3.24874c2.25714,0.4906 5.83412,1.66528 8.35906,1.28621c5.17911,-0.77753 8.38729,-4.80979 9.54655,-7.76692c-0.11548,-10.80909 0.49063,-21.61701 0.49063,-32.43583c0,-10.98864 -3,-21.87811 -3,-32.86056v-1.62676c0,-0.44922 0.55965,-0.81338 1.25,-0.81338c0.69035,0 1.25,0.36416 1.25,0.81338v1.62676c0,0.12553 0.00039,0.25105 0.00117,0.37657c1.09346,2.9319 1.65209,5.9191 2.47942,8.91585c1.88831,6.83984 4.16121,13.63171 4.82887,20.5829c0.81329,8.53748 3.47695,17.37339 7.13028,25.51038c0.90392,2.01328 1.14836,4.06839 2.24562,6.04465c1.75539,3.3514 3.06885,6.76862 6.53133,9.63144c5.40018,4.46492 15.96103,4.94377 23.89919,4.03296c11.4912,-7.73332 11.38413,-19.36339 11.38413,-29.54546c0,-6.29014 0,-12.58028 0,-18.87042v-0.97606c0,-0.44922 0.55964,-0.81338 1.25,-0.81338c0.5623,0 1.03789,0.24159 1.19497,0.57396l0.49088,0.95826l-0.33264,0.07215c1.8586,2.41623 2.21929,5.29386 3.02422,7.97524c2.17255,7.23712 2.93027,14.74365 5.38125,21.91162c0.9812,2.88254 2.55997,5.70108 3.47385,8.55431c0.27884,0.87057 0.32829,1.7811 1.59471,2.45384c2.31003,1.22713 5.50427,2.17929 8.32547,2.40531c1.51799,0.12161 2.39563,0.61221 3.98504,0.35416c3.21809,-0.52248 5.34796,-3.20299 6.17192,-5.01142c1.37229,-2.96726 2.96012,-6.1659 3.44714,-9.26117c0.65777,-4.18046 0.3014,-8.50825 1.00235,-12.68614c0.22698,-1.35287 0.20173,-3.45181 1.04068,-4.70007c0.3726,-0.55439 0.53008,-1.53754 1.45986,-1.54685c1.00437,-0.01007 3.48746,2.01608 4.26206,2.60713c1.16588,1.32105 2.1913,2.5197 3.11196,3.92083c0.15469,0.23542 0.39221,0.45521 0.46306,0.70678c0.66123,-2.41893 2.69155,-4.6799 3.16569,-7.20191c0.96149,-5.1143 0.48752,-10.36174 0.48752,-15.50222c0,-3.81023 -0.79932,-8.03853 0.00937,-11.81206c0.40757,-1.90183 1.258,-3.64 1.99063,-5.5071v-0.90056v0c0,-0.44922 0.55964,-0.81338 1.25,-0.81338c0.49901,0 0.92971,0.19027 1.13014,0.46539l0.98789,1.28565l-0.02082,0.00677c0.0316,0.03466 0.06212,0.06979 0.09151,0.10545c0.81126,0.98421 0.60019,2.19941 0.93144,3.29526c0.78535,2.59809 0.90435,5.03125 1.12828,7.65238c0.54323,6.35855 0.91952,12.74319 1.98014,19.08637c1.73495,4.20868 2.68666,8.41623 3.99724,12.67947c0.57355,1.86572 1.06089,3.94339 1.88456,5.7643c0.47016,1.0394 1.35625,2.00394 1.62883,3.07281c0.28307,1.11001 0.11062,2.41813 0.47734,3.49858c0.54892,1.61727 2.13898,3.16966 2.66733,4.81736c3.88055,0.58583 6.58286,-3.20068 7.93406,-4.92463c4.30029,-5.48658 2.43205,-12.59464 2.43205,-18.57628v-0.97606c0,-0.44922 0.55964,-0.81338 1.25,-0.81338c0.59488,0 1.09269,0.2704 1.21902,0.63261l0.59999,1.56168l-0.24105,0.03921c3.71904,5.56224 4.16645,12.10737 7.76201,17.72452c1.21492,1.898 3.14285,4.62562 4.97903,6.26905c0.48363,0.43286 1.15924,-0.2156 1.38851,-0.33991c4.66039,-3.04739 5.78873,-7.04577 6.80828,-11.1757c1.29911,-5.26233 1.7342,-10.52906 1.7342,-15.85021c0,-7.0493 0,-14.09859 0,-21.14789c0,-1.54154 0.11362,-2.87698 0.51614,-4.35987c0.1032,-0.38017 -0.2629,-0.84153 0.07901,-1.15703c0.5711,-0.527 1.46275,-1.33358 2.40618,-1.1362c1.70128,0.35593 2.93152,4.12383 3.45168,5.1334c2.8653,5.60623 3.12068,11.85995 5.02085,17.62184c1.3926,4.22279 3.71405,8.37044 4.48652,12.65106c1.64227,2.65361 1.94415,5.41967 3.46197,8.05475c0.15646,0.27163 1.17445,1.20688 1.46576,1.94571c0.07481,-0.12318 0.14351,-0.23544 0.18815,-0.31651c0.76883,-1.39604 1.1458,-1.76333 1.43309,-3.07314c0.71173,-3.24489 3.21062,-6.20685 3.81038,-9.42416c0.17754,-0.88083 0.85773,-1.69094 1.13403,-2.56093c0.47994,-1.51116 0.18801,-3.26934 0.5393,-4.81974c0.99104,-4.37388 2.58564,-8.78457 3.25961,-13.20812c-0.15308,6.02252 -0.3978,11.73059 -0.78635,13.4454c-0.01815,0.08013 -0.03468,0.16073 -0.04977,0.24177c1.08343,0.06884 1.08343,0.80826 1.08343,0.80826zM319.50269,324.63417c0.20938,-8.23771 0.24732,-17.06373 0.24732,-17.06373c0,1.51831 0,4.01267 0,5.53099c0,3.12281 0.23907,6.29253 -0.00092,9.41067c-0.05446,0.70762 -0.13867,1.41501 -0.2464,2.12207z" fill="url(#color-7)" stroke-width="0.5"/><path d="M183.67475,211.23294c7.68869,-6.3054 21.87214,-12.42211 38.73185,-13.7413c26.98149,-2.11117 50.69958,0.9794 50.69958,0.9794l-3.51765,31.864c0,0 -22.06183,-4.05239 -45.03019,-6.77503c-17.38762,-2.06111 -34.29747,1.34248 -42.56338,3.78267c-6.69726,1.97711 -5.33676,-10.35555 1.6798,-16.10974z" fill="url(#color-8)" stroke-width="0"/><path d="M257.3837,213.02217c0,-13.79488 11.18296,-24.97784 24.97784,-24.97784c13.79488,0 24.97784,11.18296 24.97784,24.97784c0,13.79488 -11.18296,24.97784 -24.97784,24.97784c-13.79488,0 -24.97784,-11.18296 -24.97784,-24.97784z" fill="url(#color-9)" stroke-width="0"/><path d="M187.98364,202.26892c7.21795,-5.91936 20.53303,-11.66157 36.36051,-12.89999c25.32956,-1.98191 47.59552,0.91944 47.59552,0.91944l-3.30229,29.91315c0,0 -20.71111,-3.80428 -42.27324,-6.36023c-16.32307,-1.93492 -32.19763,1.26029 -39.95746,3.55107c-6.28723,1.85606 -5.01002,-9.72153 1.57696,-15.12343z" fill="url(#color-10)" stroke-width="0"/><path d="M271.93967,190.28836l-3.30229,29.91315c0,0 -20.71111,-3.80428 -42.27324,-6.36023c-16.09523,-1.90791 -31.75439,1.17209 -39.62781,3.45464c2.18834,-1.45579 4.41747,-2.83279 6.62359,-4.03777c2.43654,-1.33083 5.11013,-1.88356 7.71648,-2.66536c7.85389,-2.35584 16.24411,-3.79431 24.49878,-3.78958c5.9131,0 11.82626,0.0078 17.73936,0c3.46812,-0.00458 6.22679,0.08822 8.72219,-2.79614c0.94266,-1.08959 1.79332,-3.84485 2.20096,-5.17682c0.98449,-3.21688 1.62513,-6.5539 2.5594,-9.78964c9.21609,0.47551 15.14257,1.24776 15.14257,1.24776z" fill="url(#color-11)" stroke-width="0"/><path d="M257.1798,203.7486c0,-12.95029 10.49829,-23.44858 23.44858,-23.44858c12.95029,0 23.44858,10.49829 23.44858,23.44858c0,12.95029 -10.49829,23.44858 -23.44858,23.44858c-12.95029,0 -23.44858,-10.49829 -23.44858,-23.44858z" fill="url(#color-12)" stroke-width="0"/><path d="M290.41561,192.53015c0,3.26573 -4.42754,5.91312 -9.88918,5.91312c-5.46165,0 -9.88918,-2.64739 -9.88918,-5.91312c0,-3.26573 4.42754,-5.91312 9.88918,-5.91312c5.46165,0 9.88918,2.64739 9.88918,5.91312z" fill="#f3eebb" stroke-width="0"/><path d="M280.73033,203.74469c-3.43464,0 -6.21897,-1.18676 -6.21897,-2.65071c0,-1.46395 2.78433,-2.65071 6.21897,-2.65071c3.43464,0 6.21897,1.18676 6.21897,2.65071c0,1.46395 -2.78433,2.65071 -6.21897,2.65071z" fill="#f3eebb" stroke-width="0"/></g></g></svg>