<svg version="1.1" xmlns="http://www.w3.org/2000/svg" xmlns:xlink="http://www.w3.org/1999/xlink" width="35.125" height="35.12434" viewBox="0,0,35.125,35.12434"><g transform="translate(-302.43752,-162.43783)"><g data-paper-data="{&quot;isPaintingLayer&quot;:true}" stroke-miterlimit="10" stroke-dasharray="" stroke-dashoffset="0" style="mix-blend-mode: normal"><path d="M337.56251,169.8317v20.49804c0,4.00745 -3.22497,7.23243 -7.23242,7.23243h-20.5c-3.66107,0 -6.66147,-2.69385 -7.1543,-6.21484c0.7952,3.03475 3.54108,5.26367 6.83204,5.26367h20.0332c3.9166,0 7.07032,-3.15372 7.07032,-7.07031v-20.03321c0,-3.2976 -2.23906,-6.0451 -5.28321,-6.83398c3.52994,0.48496 6.23438,3.49081 6.23438,7.15821z" fill-opacity="0.29839" fill="#000000" fill-rule="evenodd" stroke="none" stroke-width="4.54219" stroke-linecap="round" stroke-linejoin="round"/><path d="M309.50719,162.43783h20.03378c3.9166,0 7.06966,3.15307 7.06966,7.06966v20.03379c0,3.91659 -3.15307,7.06966 -7.06966,7.06966h-20.03378c-3.91659,0 -7.06967,-3.15307 -7.06967,-7.06966v-20.03379c0,-3.91659 3.15308,-7.06966 7.06967,-7.06966z" fill-opacity="0.35294" fill="#bc47ff" fill-rule="evenodd" stroke="none" stroke-width="4.43922" stroke-linecap="round" stroke-linejoin="round"/><g fill-rule="nonzero" stroke-linejoin="miter"><g fill="#bc47ff" stroke="none" stroke-width="0" stroke-linecap="butt"><path d="M323.99034,176.00283c-3.93883,3.97082 -3.68224,-1.64669 -3.68224,-1.64669c0,0 4.02388,-2.13441 8.61228,-2.27441c4.58839,-0.14 6.71576,3.39866 6.11287,7.40315c-0.60289,4.00449 -7.38737,-7.16729 -11.0429,-3.48206z"/><path d="M322.86482,175.05424c-0.72581,5.54572 -3.92681,0.92231 -3.92681,0.92231c0,0 1.90661,-4.13668 5.47111,-7.0293c3.5645,-2.89262 7.40148,-1.36767 9.34931,2.18274c1.94783,3.55041 -10.22,-1.2226 -10.89361,3.92425z"/></g><g><path d="M326.30955,184.34215c-0.36508,5.00296 -4.49697,8.67712 -9.24291,8.43241c-11.19344,-0.57716 -8.28592,-4.68194 -7.92084,-9.68489c0.36508,-5.00295 4.50327,-8.77827 9.24291,-8.43241c4.73964,0.34587 8.28592,4.68194 7.92084,9.68489z" fill="#000000" stroke="none" stroke-width="0" stroke-linecap="butt"/><path d="M323.25639,185.67711c0,0 -8.76212,6.031 -12.60211,5.75078c-1.92765,-0.14067 -3.94986,0.70579 -3.42588,-6.96028c0.50772,-7.42815 2.4819,-6.44939 4.39424,-6.30984c3.83999,0.28021 11.63375,7.51934 11.63375,7.51934z" fill="#bc47ff" stroke="none" stroke-width="0" stroke-linecap="butt"/><path d="M309.97821,188.10327c0,0 0.02059,-2.4561 0.14898,-3.66511c0.12694,-1.19538 0.61707,-3.54852 0.61707,-3.54852" fill="none" stroke="#000000" stroke-width="1" stroke-linecap="round"/><path d="M313.45304,187.55799c0,0 0.11957,-1.97726 0.21697,-2.94206c0.09466,-0.93765 0.35945,-2.76759 0.35945,-2.76759" fill="none" stroke="#000000" stroke-width="1" stroke-linecap="round"/><path d="M307.68541,187.77619c0,0 -0.26869,-2.21562 -0.12957,-3.68586c0.13913,-1.47024 0.82776,-3.69249 0.82776,-3.69249" fill="none" stroke="#000000" stroke-width="1" stroke-linecap="round"/></g></g></g></g></svg>