<svg version="1.1" xmlns="http://www.w3.org/2000/svg" xmlns:xlink="http://www.w3.org/1999/xlink" width="112.90575" height="222.35771" viewBox="0,0,112.90575,222.35771"><defs><linearGradient x1="272.01019" y1="125.50583" x2="272.01019" y2="130.50583" gradientUnits="userSpaceOnUse" id="color-1"><stop offset="0" stop-color="#000000"/><stop offset="1" stop-color="#ffffff"/></linearGradient></defs><g transform="translate(-250.57972,-86.26046)"><g data-paper-data="{&quot;isPaintingLayer&quot;:true}" fill-rule="nonzero" stroke-linejoin="miter" stroke-miterlimit="10" stroke-dasharray="" stroke-dashoffset="0" style="mix-blend-mode: normal"><g data-paper-data="{&quot;index&quot;:null}"><path d="M277.82362,128.00583h-11.62687" fill="url(#color-1)" stroke="#341c34" stroke-width="2.5" stroke-linecap="round"/><path d="M267.63825,127.9885c0,0.84493 -0.7461,1.48256 -0.7461,1.48256c0,0 -0.42957,0.42823 -1.24993,0.42823c-0.65626,0 -1.19852,-0.52304 -1.19852,-0.52304c0,0 -0.58092,-0.64947 -0.58092,-1.38775c0,-1.04257 0.84517,-1.88774 1.88774,-1.88774c1.04257,0 1.88774,0.84517 1.88774,1.88774z" fill="#ace894" stroke="none" stroke-width="0" stroke-linecap="butt"/></g><g stroke-linecap="butt"><path d="M278.97436,305.79046c0,0 -0.63536,-94.38387 -0.79335,-118.01201c-0.05451,-8.15261 8.18688,-36.76129 40.20201,-36.9211c31.60235,-0.15775 39.85672,29.48704 39.84884,36.89673c-0.07659,46.24274 0.65429,117.98648 0.65429,117.98648l-10.49667,0.09614l-0.15882,-114.84311c0,0 0.07549,-3.0993 -2.81625,-3.15415c-3.43441,-0.06514 -2.94538,3.11562 -2.94538,3.11562l0.20548,114.86995l-48.21366,0.07222l-0.30539,-115.23309c0,0 0.27949,-2.919 -2.8856,-2.93443c-3.11083,-0.01515 -2.81569,2.90899 -2.81569,2.90899l0.35311,115.0668z" fill="#583558" stroke="#583558" stroke-width="3.5"/><path d="M273.39525,308.61816c0,0 -0.43555,-24.7918 -0.01486,-56.16841c0.30836,-22.99863 2.53071,-30.93113 2.53071,-30.93113c0,0 -1.1086,-8.56325 -1.33938,-14.07694c-1.51579,-36.21361 18.2353,-49.11765 18.2353,-49.11765v150.29412z" fill="#452d46" stroke="none" stroke-width="0"/><path d="M332.29278,308.27434c0,0 8.63636,-82.60374 8.63636,-96.36363c0,-13.26763 -9.0909,-37.04545 -9.0909,-37.04545l12.49999,-17.27273c0,0 -0.40755,54.41624 -0.82568,74.7791c-0.15289,7.44584 1.13296,17.79441 1.09345,25.2199c-0.03746,7.04272 -0.72231,50.001 -0.72231,50.001z" data-paper-data="{&quot;index&quot;:null}" fill-opacity="0.28235" fill="#000000" stroke="none" stroke-width="0"/><path d="M293.24285,307.59252c0,0 -0.68484,-42.95828 -0.72231,-50.00099c-0.0395,-7.42549 2.38271,-18.45588 2.22982,-25.90172c-0.41813,-20.36286 -1.96205,-74.09729 -1.96205,-74.09729l12.5,17.27273c0,0 -9.09091,23.77783 -9.09091,37.04545c0,13.75989 8.63636,96.36363 8.63636,96.36363z" fill-opacity="0.28235" fill="#000000" stroke="none" stroke-width="0"/><path d="M273.58759,307.65662c0,0 -0.09298,-5.29251 -0.15152,-14.08168c0.15997,-0.30937 0.31605,-0.62229 0.46798,-0.93903c7.53018,-15.69851 11.22806,-36.72708 8.0844,-53.85834c-0.81229,-4.42652 -2.9353,-11.53441 -6.46505,-15.35693c0.33675,-1.99516 0.58004,-2.86355 0.58004,-2.86355c0,0 -0.82707,-7.10436 -0.83839,-8.01754c0.82362,-0.83936 5.75883,-9.4611 6.77629,-11.34463c4.25974,-7.88563 4.47144,-21.55785 0.34059,-30.74378c0.47652,-0.64234 1.18727,-2.4768 1.73031,-3.17678c3.90426,-5.0326 8.88712,-9.91187 8.88712,-9.91187v150.29412z" fill="#382238" stroke="none" stroke-width="0"/><path d="M276.07239,220.9417c0,0 -0.01345,-0.10389 -0.03769,-0.29616c8.19093,-7.86815 12.15383,-24.64155 12.30932,-33.15979c0.08912,-4.88204 -0.01323,-9.60385 -0.78122,-14.38592c-0.46502,-2.89557 -0.92562,-5.68621 -1.4776,-8.45677c3.70711,-4.82095 6.88312,-6.89594 6.88312,-6.89594c0,0 2.04546,44.05208 2.04546,67.34541c0,11.06984 -2.1775,29.70434 -2.59493,44.97748c-0.57854,21.16748 0.54948,37.97123 0.54948,37.97123h-14.87475c0.13306,-0.23465 0.26319,-0.4695 0.39009,-0.7046c9.98882,-18.50545 13.40101,-49.73333 9.15303,-70.17874c-1.49993,-7.2191 -5.5506,-13.16172 -11.60602,-16.05548c0.02709,-0.10842 0.04174,-0.16072 0.04174,-0.16072z" fill="#341c34" stroke="none" stroke-width="0"/><path d="M343.87565,308.61816v-150.29412c0,0 19.75109,12.90404 18.2353,49.11765c-0.23078,5.51369 -1.33938,14.07694 -1.33938,14.07694c0,0 2.22235,7.9325 2.53071,30.93113c0.42068,31.37661 -0.01486,56.16841 -0.01486,56.16841z" data-paper-data="{&quot;index&quot;:null}" fill="#452d46" stroke="none" stroke-width="0"/><path d="M343.82223,307.65662v-150.29412c0,0 4.98287,4.87927 8.88712,9.91187c0.54304,0.69997 1.25379,2.53444 1.7303,3.17678c-4.13085,9.18593 -3.91915,22.85815 0.34059,30.74378c1.01746,1.88352 5.95267,10.50526 6.77629,11.34463c-0.01132,0.91318 -0.83839,8.01754 -0.83839,8.01754c0,0 0.24329,0.86839 0.58004,2.86355c-3.52974,3.82252 -5.65276,10.93041 -6.46505,15.35693c-3.14366,17.13126 0.55422,38.15983 8.0844,53.85834c0.15194,0.31674 0.30802,0.62966 0.46798,0.93903c-0.05855,8.78918 -0.15152,14.08168 -0.15152,14.08168z" data-paper-data="{&quot;index&quot;:null}" fill="#382238" stroke="none" stroke-width="0"/><path d="M360.7909,221.10241c-6.05542,2.89376 -10.1061,8.83638 -11.60602,16.05548c-4.24798,20.44541 -0.83579,51.6733 9.15302,70.17874c0.1269,0.2351 0.25704,0.46995 0.3901,0.7046h-14.87475c0,0 1.11305,-18.48885 0.875,-40.90696c-0.21536,-20.28126 -1.78409,-43.94347 -1.78409,-57.04175c0,-20.15955 0.90909,-52.34541 0.90909,-52.34541c0,0 3.17601,2.07499 6.88312,6.89594c-0.55199,2.77057 -1.01258,5.5612 -1.47761,8.45677c-0.768,4.78207 -0.87034,9.50388 -0.78123,14.38592c0.15549,8.51825 4.1184,25.29164 12.30932,33.15979c-0.02425,0.19227 -0.0377,0.29616 -0.0377,0.29616c0,0 0.01465,0.0523 0.04174,0.16072z" data-paper-data="{&quot;index&quot;:null}" fill="#341c34" stroke="none" stroke-width="0"/><path d="M301.56104,195.77434v-28.18182c0,0 10.85343,11.13636 16.36364,11.13636c5.62383,0 17.04546,-11.13636 17.04546,-11.13636v28.18182z" fill-opacity="0.28235" fill="#000000" stroke="none" stroke-width="0"/><path d="M297.72103,182.26474l-0.16129,-28.93145l5.21169,-2.74194l2.74193,28.77016z" fill="#70a35b" stroke="none" stroke-width="0"/><path d="M331.10814,179.52281l2.74193,-28.77016l5.21169,2.74193l-0.16129,28.93145z" data-paper-data="{&quot;index&quot;:null}" fill="#70a35b" stroke="none" stroke-width="0"/><path d="M297.74625,308.36354c0,0 -2.1875,-17.83431 -2.1875,-40.61492c0,-10.18311 2.56047,-34.01185 2.89895,-54.39106c0.28118,-16.92902 -0.71145,-31.76821 -0.71145,-31.76821l7.74194,-2.73185l12.25414,11.37704l13.66112,-11.31924l7.47182,2.67406c0,0 -0.55616,15.16717 -0.17026,33.6482c0.39524,18.92825 2.67026,41.62986 2.67026,53.44858c0,14.42203 -2.5,39.67742 -2.5,39.67742z" fill="#70a35b" stroke="none" stroke-width="0"/><path d="M297.74625,308.36354c0,0 -2.1875,-17.83431 -2.1875,-40.61492c0,-6.72842 1.11785,-19.41425 1.97397,-33.1261c5.2365,2.90963 11.73099,3.61232 17.56288,3.84583c8.06599,0.32296 16.53703,0.23507 24.28655,-2.36284c0.08661,-0.02903 0.17312,-0.05833 0.25951,-0.08788c0.77975,12.79979 1.73362,25.01565 1.73362,32.6685c0,14.42203 -2.5,39.67742 -2.5,39.67742z" fill="#52853d" stroke="none" stroke-width="0"/><path d="M297.74625,307.22718c0,0 -2.1875,-17.83431 -2.1875,-40.61492c0,-2.95266 0.21527,-7.05259 0.52923,-11.88303c1.24442,0.80521 2.54941,1.53203 3.9305,2.15958c5.78616,2.62919 11.63225,2.54317 17.84201,2.70621c4.50689,0.11833 9.54025,0.40143 13.91971,-0.95862c0.30007,-0.09319 7.06716,-2.91273 9.12174,-3.76925c0.2817,4.9054 0.47334,9.25238 0.47334,12.6826c0,14.42203 -2.5,39.67742 -2.5,39.67742z" fill="#386924" stroke="none" stroke-width="0"/><path d="M296.20246,290.90834l-0.13889,-3.47222h44.58333l-0.13888,3.47222z" fill-opacity="0.28235" fill="#000000" stroke="none" stroke-width="0"/><path d="M295.78578,280.49168v-3.19445h45.27778v3.19445z" fill-opacity="0.28235" fill="#000000" stroke="none" stroke-width="0"/><path d="M295.64689,270.76945v-3.19445h45.83334v3.19445z" fill-opacity="0.28235" fill="#000000" stroke="none" stroke-width="0"/><path d="M295.78578,260.35279l0.27778,-3.19445h45l0.27777,3.33334z" fill-opacity="0.28235" fill="#000000" stroke="none" stroke-width="0"/><path d="M296.48022,249.93612v-3.19445h43.88889v3.19445z" fill-opacity="0.28235" fill="#000000" stroke="none" stroke-width="0"/><path d="M297.45246,239.24168v-3.33334h42.22222v3.33334z" fill-opacity="0.28235" fill="#000000" stroke="none" stroke-width="0"/><path d="M298.008,228.54723v-3.33334h41.11111v3.33334z" fill-opacity="0.28235" fill="#000000" stroke="none" stroke-width="0"/><path d="M298.28578,218.9639v-2.91666h40.83334v2.91666z" fill-opacity="0.28235" fill="#000000" stroke="none" stroke-width="0"/><path d="M298.28578,209.65834v-3.47222h40.41667v3.47222z" fill-opacity="0.28235" fill="#000000" stroke="none" stroke-width="0"/><path d="M298.28578,199.51945v-3.33333h40.13889v3.33333z" fill-opacity="0.28235" fill="#000000" stroke="none" stroke-width="0"/><path d="M298.008,189.10279v-3.61111l14.81104,0.12447l3.66118,3.48664l2.84619,-0.02898l3.85194,-3.68275l15.66297,0.10062v3.61111c0,0 -21.80553,0 -22.36111,0c-6.45129,0 -18.47222,0 -18.47222,0z" fill-opacity="0.28235" fill="#000000" stroke="none" stroke-width="0"/><path d="M297.59135,178.825v-3.19444h7.5v3.19444z" fill-opacity="0.28235" fill="#000000" stroke="none" stroke-width="0"/><path d="M331.34135,179.10279v-4.30555h7.77778v4.30555z" fill-opacity="0.28235" fill="#000000" stroke="none" stroke-width="0"/><path d="M296.92467,302.36525v-5h42.72727v5z" fill-opacity="0.28235" fill="#000000" stroke="none" stroke-width="0"/><path d="M299.8622,308.07548v-155.36932l3.30907,-2.04545l0.22727,157.41477z" fill-opacity="0.28235" fill="#000000" stroke="none" stroke-width="0"/><path d="M307.81672,308.27434v-127.95454l3.63637,3.40909v124.54546z" fill-opacity="0.28235" fill="#000000" stroke="none" stroke-width="0"/><path d="M315.77126,308.04707v-120.22727l2.41683,2.57796l0.99225,-1.4416l0.22727,119.09091z" fill-opacity="0.28235" fill="#000000" stroke="none" stroke-width="0"/><path d="M324.18035,308.27434v-122.5l3.18182,-2.5v125z" fill-opacity="0.28235" fill="#000000" stroke="none" stroke-width="0"/><path d="M332.22308,307.8198l1.13636,-156.13637l2.41182,-1.13636l-0.22727,157.27273z" fill-opacity="0.28235" fill="#000000" stroke="none" stroke-width="0"/></g><path d="M278.16668,163.23475l-2.50318,-68.67259h86.89977l-2.50318,68.6726z" fill="#6b6570" stroke="#000000" stroke-width="0" stroke-linecap="butt"/><path d="M347.5442,86.26046l15.01909,8.44724h-86.89977l15.01909,-8.44724z" fill="#4a454d" stroke="#000000" stroke-width="0" stroke-linecap="butt"/><path d="M278.16668,163.23475l-0.99626,-27.33162c5.18443,5.27322 12.39978,8.5434 20.37892,8.5434c11.33467,0 21.12807,-6.59899 25.74789,-16.16464c1.96398,0.42666 4.00329,0.65141 6.09508,0.65141c6.70269,0 15.26042,-4.28908 21.08745,-11.28276c7.8937,-9.47414 12.08353,-22.41748 12.08353,-22.41748l-2.50318,68.00169z" fill-opacity="0.09804" fill="#000000" stroke="#000000" stroke-width="0" stroke-linecap="butt"/><path d="M278.16668,163.23475l-0.00477,-0.13099c9.41852,-0.8686 17.51303,-6.30766 22.04538,-14.07901c3.2246,1.2613 6.73437,1.95368 10.40584,1.95368c1.99162,0 3.93565,-0.20374 5.81239,-0.59151c2.79641,0.91385 5.78268,1.40799 8.88436,1.40799c9.87518,0 18.58046,-5.00898 23.71372,-12.62485c4.67579,-1.39826 8.84864,-3.96144 12.18169,-7.35267l-1.14519,31.41737z" fill-opacity="0.09804" fill="#000000" stroke="#000000" stroke-width="0" stroke-linecap="butt"/><path d="M297.31147,130.84026c-1.25016,-0.62508 -0.62507,-1.87524 -0.62507,-1.87524l0.12779,-0.23842c0.59146,-1.54561 0.53014,-3.13386 1.12322,-4.6723c0.04264,-0.11061 0.08885,-0.2216 0.13842,-0.33293c-1.34331,-1.1928 -2.50891,-2.72583 -3.73669,-3.95196c0,0 -0.98834,-0.98834 0,-1.97668c0.98834,-0.98834 1.97668,0 1.97668,0c1.07455,1.07591 2.10215,2.43403 3.26189,3.52313c1.65556,-2.12699 3.99826,-4.17538 5.63022,-5.62946c0,0 1.04467,-0.9286 1.97325,0.11607c0.9286,1.04466 -0.11607,1.97327 -0.11607,1.97327c-1.40773,1.2481 -3.7312,3.19671 -5.24499,5.13472c2.34569,1.24814 4.66532,1.59716 6.68216,3.90637l0.74373,0.56364c0,0 1.09144,0.87315 0.21829,1.96459c-0.87315,1.09143 -1.96459,0.21829 -1.96459,0.21829l-1.11989,-0.92726c-1.6784,-2.00669 -3.81507,-2.33285 -5.91674,-3.33363c-0.46656,1.44867 -0.49026,2.9382 -1.03143,4.40568l-0.24493,0.50704c0,0 -0.62508,1.25015 -1.87523,0.62508z" fill="#ace894" stroke="none" stroke-width="0.5" stroke-linecap="butt"/><path d="M327.16562,127.77128c-1.16297,-0.77532 -0.38766,-1.93829 -0.38766,-1.93829l0.17971,-0.12277c0.5505,-2.20202 1.65273,-4.39465 3.0181,-6.5002c-2.35378,-0.95703 -4.68524,-1.74836 -6.62558,-2.47474c0,0 -1.30872,-0.49078 -0.81796,-1.7995c0.49078,-1.30872 1.7995,-0.81794 1.7995,-0.81794c2.18563,0.82111 4.72505,1.71112 7.2603,2.78506c1.60637,-2.14392 3.3866,-4.15851 5.00083,-5.95226c0,0 0.93503,-1.03892 1.97395,-0.10389c1.03892,0.93503 0.10389,1.97395 0.10389,1.97395c-1.54141,1.71255 -2.69921,3.65563 -3.9304,5.53244c3.59204,1.81493 6.85887,4.12077 8.69862,7.27162l0.85748,1.02058c0,0 0.89479,1.07375 -0.17897,1.96855c-1.07375,0.89479 -1.96855,-0.17896 -1.96855,-0.17896l-1.00613,-1.21578c-1.59244,-2.85871 -4.63945,-4.95427 -7.99426,-6.59985c-0.18951,0.24519 -0.38402,0.48678 -0.58476,0.72397c-1.75628,2.07509 -2.22342,2.36222 -2.8941,5.04497l-0.56573,0.99541c0,0 -0.77532,1.16297 -1.93829,0.38766z" fill="#ace894" stroke="none" stroke-width="0.5" stroke-linecap="butt"/><path d="M281.21594,129.30832c1.21357,-0.69347 1.90703,0.5201 1.90703,0.5201l0.80788,1.42749c1.05974,3.14743 2.3363,6.77088 4.3306,9.4441c1.67826,2.24959 5.39625,4.23731 7.73865,5.55561c0.87154,0.49051 2.02643,0.11828 2.96364,0.46732c2.63853,0.98268 5.04115,2.94233 7.62784,4.09542c3.07058,0.78137 6.77591,1.04317 9.84998,0.01789c1.87939,-0.62682 3.21767,-2.1361 5.23595,-2.67057c3.10174,-0.82139 6.61192,-0.68438 9.76817,-1.64866c4.03625,-1.23313 7.96343,-3.9158 11.40293,-6.3676c5.37856,-2.98809 6.32369,-6.95599 8.39513,-12.19834c0.86134,-2.17986 2.8563,-4.59817 3.28242,-6.84199c0.33688,-1.7739 -0.00657,-4.12434 -0.20636,-5.90094c0,0 -0.15435,-1.38917 1.23483,-1.54352c1.38918,-0.15435 1.54352,1.23481 1.54352,1.23481c0.2242,2.04045 0.58668,4.73542 0.16636,6.77171c-0.50898,2.46576 -2.46927,4.96099 -3.42663,7.32157c-2.33357,5.75391 -3.57531,10.23061 -9.49567,13.51969c-3.62546,2.59511 -7.81649,5.38497 -12.07875,6.67777c-3.23257,0.98048 -6.80701,0.89231 -9.98625,1.70586c-1.80118,0.46093 -3.107,1.96866 -4.82762,2.54757c-3.76646,1.26724 -7.99696,0.94921 -11.76808,0.01789c-2.59447,-1.15038 -5.0269,-3.11029 -7.65389,-4.10453c-1.07085,-0.40528 -2.35436,-0.12745 -3.37269,-0.65086c-2.74781,-1.4123 -6.76069,-3.84791 -8.66124,-6.37159c-2.11646,-2.81037 -3.51845,-6.61187 -4.6148,-9.9376l-0.68303,-1.18158c0,0 -0.69347,-1.21356 0.5201,-1.90702z" fill="#ace894" stroke="none" stroke-width="0.5" stroke-linecap="butt"/><path d="M352.54081,144.03319c-1.39772,0 -1.39772,-1.39772 -1.39772,-1.39772l0.04174,-0.40646c-0.91588,-3.76137 -0.2281,-7.52584 -0.2281,-11.33438c0,0 0,-1.39772 1.39772,-1.39772c1.39772,0 1.39772,1.39772 1.39772,1.39772c0,3.54176 -0.75384,7.17613 0.14463,10.65639l0.04173,1.08445c0,0 0,1.39772 -1.39772,1.39772z" fill="#ace894" stroke="none" stroke-width="0.5" stroke-linecap="butt"/><path d="M302.782,131.91964c-0.83863,0 -0.83863,-0.83863 -0.83863,-0.83863c0,-1.55302 0,-3.66513 0,-5.21815c0,0 0,-0.83863 0.83863,-0.83863c0.83863,0 0.83864,0.83863 0.83864,0.83863c0,1.55302 0,3.10604 0,4.65906v0.55909c0,0 0,0.83863 -0.83864,0.83863z" fill="#ace894" stroke="none" stroke-width="0.5" stroke-linecap="butt"/><path d="M298.68199,138.25596c-0.83863,0 -0.83863,-0.83863 -0.83863,-0.83863v-0.93181c0,-2.48422 -0.18637,-4.95326 -0.18637,-7.4545c0,0 0,-0.83863 0.83863,-0.83863c0.83863,0 0.83863,0.83863 0.83863,0.83863c0,2.50221 0.18637,4.96839 0.18637,7.4545v0.93181c0,0 0,0.83863 -0.83864,0.83863z" fill="#ace894" stroke="none" stroke-width="0.5" stroke-linecap="butt"/><path d="M335.20905,128.37873c-0.83863,0 -0.83863,-0.83863 -0.83863,-0.83863c0,-1.92575 0,-4.59694 0,-6.52268c0,0 0,-0.83863 0.83863,-0.83863c0.83863,0 0.83863,0.83863 0.83863,0.83863c0,1.92575 0,3.85149 0,5.77724v0.74545c0,0 0,0.83863 -0.83863,0.83863z" fill="#ace894" stroke="none" stroke-width="0.5" stroke-linecap="butt"/><path d="M330.36364,135.64688c-0.83863,0 -0.83863,-0.83863 -0.83863,-0.83863v-0.55909c0.01835,-3.81824 -0.18636,-7.67063 -0.18636,-11.55447c0,0 0,-0.83863 0.83863,-0.83863c0.83863,0 0.83863,0.83863 0.83863,0.83863c0,3.90111 0.17092,7.71564 0.18637,11.55447v0.55909c0,0 0,0.83863 -0.83864,0.83863z" fill="#ace894" stroke="none" stroke-width="0.5" stroke-linecap="butt"/><path d="M341.34043,135.27394c-0.83842,-0.01863 -0.81979,-0.85706 -0.81979,-0.85706c0.0621,-2.79475 0.12426,-5.59157 0.18637,-8.38631c0,0 0.01862,-0.83842 0.85706,-0.81979c0.83842,0.01863 0.81979,0.85706 0.81979,0.85706c-0.0621,2.79474 -0.1242,5.5895 -0.18632,8.38425l-0.00005,0.00206c0,0 -0.01863,0.83842 -0.85706,0.81979z" fill="#ace894" stroke="none" stroke-width="0.5" stroke-linecap="butt"/><path d="M329.71137,137.79006c0,-0.46316 0.37547,-0.83864 0.83863,-0.83864c0.46316,0 0.83864,0.37548 0.83864,0.83864c0,0.46316 -0.37547,0.83863 -0.83864,0.83863c-0.46316,0 -0.83863,-0.37547 -0.83863,-0.83863z" fill="#ace894" stroke="none" stroke-width="0.5" stroke-linecap="butt"/><path d="M302.12971,133.87644c0,-0.46316 0.37547,-0.83863 0.83863,-0.83863c0.46316,0 0.83864,0.37547 0.83864,0.83863c0,0.46316 -0.37547,0.83863 -0.83864,0.83863c-0.46316,0 -0.83863,-0.37547 -0.83863,-0.83863z" fill="#ace894" stroke="none" stroke-width="0.5" stroke-linecap="butt"/><path d="M348.81356,148.13318c-0.83863,0 -0.83863,-0.83864 -0.83863,-0.83864l0.05998,-0.24763c-1.00516,-2.61097 -0.08805,-5.58932 -0.78039,-8.30801c0,0 -0.2034,-0.8136 0.6102,-1.017c0.8136,-0.2034 1.01699,0.6102 1.01699,0.6102c0.63011,2.56217 -0.29058,5.71358 0.71051,8.09189l0.05998,0.87054c0,0 0,0.83864 -0.83863,0.83864z" fill="#ace894" stroke="none" stroke-width="0.5" stroke-linecap="butt"/><path d="M319.64779,163.12736l0.01628,-0.02249c-0.31103,-1.63064 -0.20265,-3.29513 -0.20265,-4.95374c0,0 0,-0.31618 0.18653,-0.56539c-0.00018,-0.00573 -0.00018,-0.00878 -0.00018,-0.00878v-0.1914c0.0095,-2.42398 0.37272,-4.82431 0.37272,-7.27293c0,0 0,-0.86127 0.83863,-0.86127c0.83863,0 0.83863,0.86127 0.83863,0.86127c0,2.44355 -0.38402,4.85757 -0.37272,7.27293v0.1914c0,0 0,0.31618 -0.18654,0.56539c0.00018,0.00573 0.00018,0.00877 0.00018,0.00877c0,1.5353 -0.13041,3.10979 0.17007,4.61592l0.01628,0.36029c0,0 0,0.13859 -0.05413,0.30457c-0.52672,-0.0574 -1.05967,-0.09336 -1.59801,-0.10697c-0.02512,-0.11453 -0.02512,-0.19759 -0.02512,-0.19759z" fill="#ace894" stroke="none" stroke-width="0.5" stroke-linecap="butt"/><path d="M291.97297,159.31493c-0.83863,0 -0.83863,-0.83864 -0.83863,-0.83864v-0.37272c0.00489,-1.21493 0.462,-1.79764 0.76623,-2.79459c0.15689,-0.51412 -0.84945,-1.97105 -0.93745,-2.45133c-0.42915,-2.34198 -0.57422,-4.82046 -0.57422,-7.24036c0,0 0,-0.83863 0.83863,-0.83863c0.83863,0 0.83863,0.83863 0.83863,0.83863c0,2.32182 0.1399,4.6771 0.54396,6.92318c0.1943,1.08013 1.1462,1.93041 0.92618,3.13955c-0.19401,1.06614 -0.73054,1.20481 -0.72468,2.42356v0.37273c0,0 0,0.83863 -0.83863,0.83863z" fill="#ace894" stroke="none" stroke-width="0.5" stroke-linecap="butt"/><path d="M290.7616,161.27174c0,-0.46316 0.37547,-0.83863 0.83863,-0.83863c0.46316,0 0.83863,0.37547 0.83863,0.83863c0,0.46316 -0.37547,0.83863 -0.83863,0.83863c-0.46316,0 -0.83863,-0.37547 -0.83863,-0.83863z" fill="#ace894" stroke="none" stroke-width="0.5" stroke-linecap="butt"/><g fill="#58525b"><g data-paper-data="{&quot;index&quot;:null}"><path d="M255.09594,130.55046h8.39808" stroke="#615b65" stroke-width="8.5" stroke-linecap="round"/><path d="M265.2615,135.04528c-0.41077,0 -1.24273,-0.62393 -1.24273,-0.62393c0,0 0.42314,-0.72921 0.44065,-3.7552c0.01707,-2.94876 -0.47431,-4.0868 -0.47431,-4.0868c0,0 0.81685,-0.38678 1.27639,-0.38678c1.553,0 2.81196,1.98175 2.81196,4.42635c0,2.4446 -1.25896,4.42635 -2.81196,4.42635z" stroke="none" stroke-width="0" stroke-linecap="butt"/><path d="M254.78146,134.46774c0,0 -0.88427,0.57753 -1.38978,0.57753c-1.553,0 -2.81196,-1.98173 -2.81196,-4.42634c0,-2.4446 1.25896,-4.42635 2.81196,-4.42635c0.44224,0 1.2329,0.44703 1.2329,0.44703c0,0 -0.34579,1.14506 -0.37083,3.97932c-0.03,3.39605 0.52771,3.84881 0.52771,3.84881z" stroke="none" stroke-width="0" stroke-linecap="butt"/></g><path d="M264.78554,133.13349h-10.98112" stroke-opacity="0.09804" stroke="#000000" stroke-width="5" stroke-linecap="round"/></g></g></g></svg>