<svg version="1.1" xmlns="http://www.w3.org/2000/svg" xmlns:xlink="http://www.w3.org/1999/xlink" width="744" height="427" viewBox="0,0,744,427"><g transform="translate(52,33.5)"><g data-paper-data="{&quot;isPaintingLayer&quot;:true}" fill-rule="nonzero" stroke-linecap="butt" stroke-linejoin="miter" stroke-miterlimit="10" stroke-dasharray="" stroke-dashoffset="0" style="mix-blend-mode: normal"><path d="M-52,393.5v-427h744v427z" fill="#000000" stroke="none" stroke-width="0"/><text transform="translate(199.02004,185.76875) scale(0.5,0.5)" font-size="40" xml:space="preserve" fill-opacity="0.01176" fill="#ffffff" fill-rule="nonzero" stroke="none" stroke-width="1" stroke-linecap="butt" stroke-linejoin="miter" stroke-miterlimit="10" stroke-dasharray="" stroke-dashoffset="0" font-family="Sans Serif" font-weight="normal" text-anchor="start" style="mix-blend-mode: normal"><tspan x="0" dy="0">made by the spooki team</tspan></text><text transform="translate(199.12309,187.62909) rotate(-0.88125) scale(0.5,0.5)" font-size="40" xml:space="preserve" fill-opacity="0.01176" fill="#ffffff" fill-rule="nonzero" stroke="none" stroke-width="1" stroke-linecap="butt" stroke-linejoin="miter" stroke-miterlimit="10" stroke-dasharray="" stroke-dashoffset="0" font-family="Sans Serif" font-weight="normal" text-anchor="start" style="mix-blend-mode: normal"><tspan x="0" dy="0">made by the spooki team</tspan></text><text transform="translate(200.89949,181.84463) rotate(1.85729) scale(0.5,0.5)" font-size="40" xml:space="preserve" fill-opacity="0.01176" fill="#ffffff" fill-rule="nonzero" stroke="none" stroke-width="1" stroke-linecap="butt" stroke-linejoin="miter" stroke-miterlimit="10" stroke-dasharray="" stroke-dashoffset="0" font-family="Sans Serif" font-weight="normal" text-anchor="start" style="mix-blend-mode: normal"><tspan x="0" dy="0">made by the spooki team</tspan></text><text transform="translate(200.94219,183.70732) rotate(0.97637) scale(0.5,0.5)" font-size="40" xml:space="preserve" fill-opacity="0.01176" fill="#ffffff" fill-rule="nonzero" stroke="none" stroke-width="1" stroke-linecap="butt" stroke-linejoin="miter" stroke-miterlimit="10" stroke-dasharray="" stroke-dashoffset="0" font-family="Sans Serif" font-weight="normal" text-anchor="start" style="mix-blend-mode: normal"><tspan x="0" dy="0">made by the spooki team</tspan></text><text transform="translate(199.02004,185.76875) scale(0.5,0.5)" font-size="40" xml:space="preserve" fill-opacity="0.01176" fill="#ffffff" fill-rule="nonzero" stroke="none" stroke-width="1" stroke-linecap="butt" stroke-linejoin="miter" stroke-miterlimit="10" stroke-dasharray="" stroke-dashoffset="0" font-family="Sans Serif" font-weight="normal" text-anchor="start" style="mix-blend-mode: normal"><tspan x="0" dy="0">made by the spooki team</tspan></text><text transform="translate(199.12309,187.62909) rotate(-0.88125) scale(0.5,0.5)" font-size="40" xml:space="preserve" fill-opacity="0.01176" fill="#ffffff" fill-rule="nonzero" stroke="none" stroke-width="1" stroke-linecap="butt" stroke-linejoin="miter" stroke-miterlimit="10" stroke-dasharray="" stroke-dashoffset="0" font-family="Sans Serif" font-weight="normal" text-anchor="start" style="mix-blend-mode: normal"><tspan x="0" dy="0">made by the spooki team</tspan></text><text transform="translate(200.89949,181.84463) rotate(1.85729) scale(0.5,0.5)" font-size="40" xml:space="preserve" fill-opacity="0.01176" fill="#ffffff" fill-rule="nonzero" stroke="none" stroke-width="1" stroke-linecap="butt" stroke-linejoin="miter" stroke-miterlimit="10" stroke-dasharray="" stroke-dashoffset="0" font-family="Sans Serif" font-weight="normal" text-anchor="start" style="mix-blend-mode: normal"><tspan x="0" dy="0">made by the spooki team</tspan></text><text transform="translate(200.9422,183.70733) rotate(0.97637) scale(0.5,0.5)" font-size="40" xml:space="preserve" fill-opacity="0.01176" fill="#ffffff" fill-rule="nonzero" stroke="none" stroke-width="1" stroke-linecap="butt" stroke-linejoin="miter" stroke-miterlimit="10" stroke-dasharray="" stroke-dashoffset="0" font-family="Sans Serif" font-weight="normal" text-anchor="start" style="mix-blend-mode: normal"><tspan x="0" dy="0">made by the spooki team</tspan></text><text transform="translate(199.06552,186.63182) rotate(-0.40508) scale(0.5,0.5)" font-size="40" xml:space="preserve" fill-opacity="0.01176" fill="#ffffff" fill-rule="nonzero" stroke="none" stroke-width="1" stroke-linecap="butt" stroke-linejoin="miter" stroke-miterlimit="10" stroke-dasharray="" stroke-dashoffset="0" font-family="Sans Serif" font-weight="normal" text-anchor="start" style="mix-blend-mode: normal"><tspan x="0" dy="0">made by the spooki team</tspan></text><text transform="translate(199.18173,188.49139) rotate(-1.2864) scale(0.5,0.5)" font-size="40" xml:space="preserve" fill-opacity="0.01176" fill="#ffffff" fill-rule="nonzero" stroke="none" stroke-width="1" stroke-linecap="butt" stroke-linejoin="miter" stroke-miterlimit="10" stroke-dasharray="" stroke-dashoffset="0" font-family="Sans Serif" font-weight="normal" text-anchor="start" style="mix-blend-mode: normal"><tspan x="0" dy="0">made by the spooki team</tspan></text><text transform="translate(200.91718,182.6945) rotate(1.45203) scale(0.5,0.5)" font-size="40" xml:space="preserve" fill-opacity="0.01176" fill="#ffffff" fill-rule="nonzero" stroke="none" stroke-width="1" stroke-linecap="butt" stroke-linejoin="miter" stroke-miterlimit="10" stroke-dasharray="" stroke-dashoffset="0" font-family="Sans Serif" font-weight="normal" text-anchor="start" style="mix-blend-mode: normal"><tspan x="0" dy="0">made by the spooki team</tspan></text><text transform="translate(200.97305,184.55686) rotate(0.57125) scale(0.5,0.5)" font-size="40" xml:space="preserve" fill-opacity="0.01176" fill="#ffffff" fill-rule="nonzero" stroke="none" stroke-width="1" stroke-linecap="butt" stroke-linejoin="miter" stroke-miterlimit="10" stroke-dasharray="" stroke-dashoffset="0" font-family="Sans Serif" font-weight="normal" text-anchor="start" style="mix-blend-mode: normal"><tspan x="0" dy="0">made by the spooki team</tspan></text><text transform="translate(197.02004,187.76875) scale(0.5,0.5)" font-size="40" xml:space="preserve" fill-opacity="0.01176" fill="#ffffff" fill-rule="nonzero" stroke="none" stroke-width="1" stroke-linecap="butt" stroke-linejoin="miter" stroke-miterlimit="10" stroke-dasharray="" stroke-dashoffset="0" font-family="Sans Serif" font-weight="normal" text-anchor="start" style="mix-blend-mode: normal"><tspan x="0" dy="0">made by the spooki team</tspan></text><text transform="translate(197.12309,189.62909) rotate(-0.88125) scale(0.5,0.5)" font-size="40" xml:space="preserve" fill-opacity="0.01176" fill="#ffffff" fill-rule="nonzero" stroke="none" stroke-width="1" stroke-linecap="butt" stroke-linejoin="miter" stroke-miterlimit="10" stroke-dasharray="" stroke-dashoffset="0" font-family="Sans Serif" font-weight="normal" text-anchor="start" style="mix-blend-mode: normal"><tspan x="0" dy="0">made by the spooki team</tspan></text><text transform="translate(198.89949,183.84463) rotate(1.85729) scale(0.5,0.5)" font-size="40" xml:space="preserve" fill-opacity="0.01176" fill="#ffffff" fill-rule="nonzero" stroke="none" stroke-width="1" stroke-linecap="butt" stroke-linejoin="miter" stroke-miterlimit="10" stroke-dasharray="" stroke-dashoffset="0" font-family="Sans Serif" font-weight="normal" text-anchor="start" style="mix-blend-mode: normal"><tspan x="0" dy="0">made by the spooki team</tspan></text><text transform="translate(198.94219,185.70732) rotate(0.97637) scale(0.5,0.5)" font-size="40" xml:space="preserve" fill-opacity="0.01176" fill="#ffffff" fill-rule="nonzero" stroke="none" stroke-width="1" stroke-linecap="butt" stroke-linejoin="miter" stroke-miterlimit="10" stroke-dasharray="" stroke-dashoffset="0" font-family="Sans Serif" font-weight="normal" text-anchor="start" style="mix-blend-mode: normal"><tspan x="0" dy="0">made by the spooki team</tspan></text><text transform="translate(197.02004,187.76875) scale(0.5,0.5)" font-size="40" xml:space="preserve" fill-opacity="0.01176" fill="#ffffff" fill-rule="nonzero" stroke="none" stroke-width="1" stroke-linecap="butt" stroke-linejoin="miter" stroke-miterlimit="10" stroke-dasharray="" stroke-dashoffset="0" font-family="Sans Serif" font-weight="normal" text-anchor="start" style="mix-blend-mode: normal"><tspan x="0" dy="0">made by the spooki team</tspan></text><text transform="translate(197.12309,189.62909) rotate(-0.88125) scale(0.5,0.5)" font-size="40" xml:space="preserve" fill-opacity="0.01176" fill="#ffffff" fill-rule="nonzero" stroke="none" stroke-width="1" stroke-linecap="butt" stroke-linejoin="miter" stroke-miterlimit="10" stroke-dasharray="" stroke-dashoffset="0" font-family="Sans Serif" font-weight="normal" text-anchor="start" style="mix-blend-mode: normal"><tspan x="0" dy="0">made by the spooki team</tspan></text><text transform="translate(198.89949,183.84463) rotate(1.85729) scale(0.5,0.5)" font-size="40" xml:space="preserve" fill-opacity="0.01176" fill="#ffffff" fill-rule="nonzero" stroke="none" stroke-width="1" stroke-linecap="butt" stroke-linejoin="miter" stroke-miterlimit="10" stroke-dasharray="" stroke-dashoffset="0" font-family="Sans Serif" font-weight="normal" text-anchor="start" style="mix-blend-mode: normal"><tspan x="0" dy="0">made by the spooki team</tspan></text><text transform="translate(198.9422,185.70733) rotate(0.97637) scale(0.5,0.5)" font-size="40" xml:space="preserve" fill-opacity="0.01176" fill="#ffffff" fill-rule="nonzero" stroke="none" stroke-width="1" stroke-linecap="butt" stroke-linejoin="miter" stroke-miterlimit="10" stroke-dasharray="" stroke-dashoffset="0" font-family="Sans Serif" font-weight="normal" text-anchor="start" style="mix-blend-mode: normal"><tspan x="0" dy="0">made by the spooki team</tspan></text><text transform="translate(197.06553,188.63182) rotate(-0.40508) scale(0.5,0.5)" font-size="40" xml:space="preserve" fill-opacity="0.01176" fill="#ffffff" fill-rule="nonzero" stroke="none" stroke-width="1" stroke-linecap="butt" stroke-linejoin="miter" stroke-miterlimit="10" stroke-dasharray="" stroke-dashoffset="0" font-family="Sans Serif" font-weight="normal" text-anchor="start" style="mix-blend-mode: normal"><tspan x="0" dy="0">made by the spooki team</tspan></text><text transform="translate(197.18173,190.49139) rotate(-1.2864) scale(0.5,0.5)" font-size="40" xml:space="preserve" fill-opacity="0.01176" fill="#ffffff" fill-rule="nonzero" stroke="none" stroke-width="1" stroke-linecap="butt" stroke-linejoin="miter" stroke-miterlimit="10" stroke-dasharray="" stroke-dashoffset="0" font-family="Sans Serif" font-weight="normal" text-anchor="start" style="mix-blend-mode: normal"><tspan x="0" dy="0">made by the spooki team</tspan></text><text transform="translate(198.91718,184.69451) rotate(1.45203) scale(0.5,0.5)" font-size="40" xml:space="preserve" fill-opacity="0.01176" fill="#ffffff" fill-rule="nonzero" stroke="none" stroke-width="1" stroke-linecap="butt" stroke-linejoin="miter" stroke-miterlimit="10" stroke-dasharray="" stroke-dashoffset="0" font-family="Sans Serif" font-weight="normal" text-anchor="start" style="mix-blend-mode: normal"><tspan x="0" dy="0">made by the spooki team</tspan></text><text transform="translate(198.97306,186.55686) rotate(0.57125) scale(0.5,0.5)" font-size="40" xml:space="preserve" fill-opacity="0.01176" fill="#ffffff" fill-rule="nonzero" stroke="none" stroke-width="1" stroke-linecap="butt" stroke-linejoin="miter" stroke-miterlimit="10" stroke-dasharray="" stroke-dashoffset="0" font-family="Sans Serif" font-weight="normal" text-anchor="start" style="mix-blend-mode: normal"><tspan x="0" dy="0">made by the spooki team</tspan></text><text transform="translate(199.04909,186.57119) rotate(-0.74429) scale(0.5,0.5)" font-size="40" xml:space="preserve" fill-opacity="0.01176" fill="#ffffff" fill-rule="nonzero" stroke="none" stroke-width="1" stroke-linecap="butt" stroke-linejoin="miter" stroke-miterlimit="10" stroke-dasharray="" stroke-dashoffset="0" font-family="Sans Serif" font-weight="normal" text-anchor="start" style="mix-blend-mode: normal"><tspan x="0" dy="0">made by the spooki team</tspan></text><text transform="translate(199.17629,188.43004) rotate(-1.62512) scale(0.5,0.5)" font-size="40" xml:space="preserve" fill-opacity="0.01176" fill="#ffffff" fill-rule="nonzero" stroke="none" stroke-width="1" stroke-linecap="butt" stroke-linejoin="miter" stroke-miterlimit="10" stroke-dasharray="" stroke-dashoffset="0" font-family="Sans Serif" font-weight="normal" text-anchor="start" style="mix-blend-mode: normal"><tspan x="0" dy="0">made by the spooki team</tspan></text><text transform="translate(200.87742,182.623) rotate(1.11333) scale(0.5,0.5)" font-size="40" xml:space="preserve" fill-opacity="0.01176" fill="#ffffff" fill-rule="nonzero" stroke="none" stroke-width="1" stroke-linecap="butt" stroke-linejoin="miter" stroke-miterlimit="10" stroke-dasharray="" stroke-dashoffset="0" font-family="Sans Serif" font-weight="normal" text-anchor="start" style="mix-blend-mode: normal"><tspan x="0" dy="0">made by the spooki team</tspan></text><text transform="translate(200.94431,184.48498) rotate(0.23205) scale(0.5,0.5)" font-size="40" xml:space="preserve" fill-opacity="0.01176" fill="#ffffff" fill-rule="nonzero" stroke="none" stroke-width="1" stroke-linecap="butt" stroke-linejoin="miter" stroke-miterlimit="10" stroke-dasharray="" stroke-dashoffset="0" font-family="Sans Serif" font-weight="normal" text-anchor="start" style="mix-blend-mode: normal"><tspan x="0" dy="0">made by the spooki team</tspan></text><text transform="translate(199.04909,186.57119) rotate(-0.74429) scale(0.5,0.5)" font-size="40" xml:space="preserve" fill-opacity="0.01176" fill="#ffffff" fill-rule="nonzero" stroke="none" stroke-width="1" stroke-linecap="butt" stroke-linejoin="miter" stroke-miterlimit="10" stroke-dasharray="" stroke-dashoffset="0" font-family="Sans Serif" font-weight="normal" text-anchor="start" style="mix-blend-mode: normal"><tspan x="0" dy="0">made by the spooki team</tspan></text><text transform="translate(199.17629,188.43004) rotate(-1.62512) scale(0.5,0.5)" font-size="40" xml:space="preserve" fill-opacity="0.01176" fill="#ffffff" fill-rule="nonzero" stroke="none" stroke-width="1" stroke-linecap="butt" stroke-linejoin="miter" stroke-miterlimit="10" stroke-dasharray="" stroke-dashoffset="0" font-family="Sans Serif" font-weight="normal" text-anchor="start" style="mix-blend-mode: normal"><tspan x="0" dy="0">made by the spooki team</tspan></text><text transform="translate(200.87742,182.623) rotate(1.11333) scale(0.5,0.5)" font-size="40" xml:space="preserve" fill-opacity="0.01176" fill="#ffffff" fill-rule="nonzero" stroke="none" stroke-width="1" stroke-linecap="butt" stroke-linejoin="miter" stroke-miterlimit="10" stroke-dasharray="" stroke-dashoffset="0" font-family="Sans Serif" font-weight="normal" text-anchor="start" style="mix-blend-mode: normal"><tspan x="0" dy="0">made by the spooki team</tspan></text><text transform="translate(200.94432,184.48499) rotate(0.23205) scale(0.5,0.5)" font-size="40" xml:space="preserve" fill-opacity="0.01176" fill="#ffffff" fill-rule="nonzero" stroke="none" stroke-width="1" stroke-linecap="butt" stroke-linejoin="miter" stroke-miterlimit="10" stroke-dasharray="" stroke-dashoffset="0" font-family="Sans Serif" font-weight="normal" text-anchor="start" style="mix-blend-mode: normal"><tspan x="0" dy="0">made by the spooki team</tspan></text><text transform="translate(199.10577,187.4336) rotate(-1.14886) scale(0.5,0.5)" font-size="40" xml:space="preserve" fill-opacity="0.01176" fill="#ffffff" fill-rule="nonzero" stroke="none" stroke-width="1" stroke-linecap="butt" stroke-linejoin="miter" stroke-miterlimit="10" stroke-dasharray="" stroke-dashoffset="0" font-family="Sans Serif" font-weight="normal" text-anchor="start" style="mix-blend-mode: normal"><tspan x="0" dy="0">made by the spooki team</tspan></text><text transform="translate(199.24612,189.29151) rotate(-2.03042) scale(0.5,0.5)" font-size="40" xml:space="preserve" fill-opacity="0.01176" fill="#ffffff" fill-rule="nonzero" stroke="none" stroke-width="1" stroke-linecap="butt" stroke-linejoin="miter" stroke-miterlimit="10" stroke-dasharray="" stroke-dashoffset="0" font-family="Sans Serif" font-weight="normal" text-anchor="start" style="mix-blend-mode: normal"><tspan x="0" dy="0">made by the spooki team</tspan></text><text transform="translate(200.90615,183.47257) rotate(0.7082) scale(0.5,0.5)" font-size="40" xml:space="preserve" fill-opacity="0.01176" fill="#ffffff" fill-rule="nonzero" stroke="none" stroke-width="1" stroke-linecap="butt" stroke-linejoin="miter" stroke-miterlimit="10" stroke-dasharray="" stroke-dashoffset="0" font-family="Sans Serif" font-weight="normal" text-anchor="start" style="mix-blend-mode: normal"><tspan x="0" dy="0">made by the spooki team</tspan></text><text transform="translate(200.9862,185.33405) rotate(-0.17303) scale(0.5,0.5)" font-size="40" xml:space="preserve" fill-opacity="0.01176" fill="#ffffff" fill-rule="nonzero" stroke="none" stroke-width="1" stroke-linecap="butt" stroke-linejoin="miter" stroke-miterlimit="10" stroke-dasharray="" stroke-dashoffset="0" font-family="Sans Serif" font-weight="normal" text-anchor="start" style="mix-blend-mode: normal"><tspan x="0" dy="0">made by the spooki team</tspan></text><text transform="translate(197.07523,188.597) rotate(-0.74429) scale(0.5,0.5)" font-size="40" xml:space="preserve" fill-opacity="0.01176" fill="#ffffff" fill-rule="nonzero" stroke="none" stroke-width="1" stroke-linecap="butt" stroke-linejoin="miter" stroke-miterlimit="10" stroke-dasharray="" stroke-dashoffset="0" font-family="Sans Serif" font-weight="normal" text-anchor="start" style="mix-blend-mode: normal"><tspan x="0" dy="0">made by the spooki team</tspan></text><text transform="translate(197.20243,190.45584) rotate(-1.62512) scale(0.5,0.5)" font-size="40" xml:space="preserve" fill-opacity="0.01176" fill="#ffffff" fill-rule="nonzero" stroke="none" stroke-width="1" stroke-linecap="butt" stroke-linejoin="miter" stroke-miterlimit="10" stroke-dasharray="" stroke-dashoffset="0" font-family="Sans Serif" font-weight="normal" text-anchor="start" style="mix-blend-mode: normal"><tspan x="0" dy="0">made by the spooki team</tspan></text><text transform="translate(198.90356,184.6488) rotate(1.11333) scale(0.5,0.5)" font-size="40" xml:space="preserve" fill-opacity="0.01176" fill="#ffffff" fill-rule="nonzero" stroke="none" stroke-width="1" stroke-linecap="butt" stroke-linejoin="miter" stroke-miterlimit="10" stroke-dasharray="" stroke-dashoffset="0" font-family="Sans Serif" font-weight="normal" text-anchor="start" style="mix-blend-mode: normal"><tspan x="0" dy="0">made by the spooki team</tspan></text><text transform="translate(198.97045,186.51078) rotate(0.23205) scale(0.5,0.5)" font-size="40" xml:space="preserve" fill-opacity="0.01176" fill="#ffffff" fill-rule="nonzero" stroke="none" stroke-width="1" stroke-linecap="butt" stroke-linejoin="miter" stroke-miterlimit="10" stroke-dasharray="" stroke-dashoffset="0" font-family="Sans Serif" font-weight="normal" text-anchor="start" style="mix-blend-mode: normal"><tspan x="0" dy="0">made by the spooki team</tspan></text><g fill="none" stroke="#ffffff" stroke-width="1.5"><path d="M298.03303,134.95495h43.93393"/><path d="M298.03303,225.04505h43.93393"/></g><g fill-opacity="0.00784" fill="#ffffff" stroke="none" stroke-width="0.5"><g><path d="M444.6924,235.8914c-7.52691,-0.75509 -16.04103,-10.88152 -16.04103,-10.88152c0,0 9.72608,4.02948 14.52139,4.04654c4.7953,0.01706 10.59881,-2.63471 11.56655,-3.95376c1.422,-1.93821 1.50719,-24.25814 25.50442,-19.66868c11.70181,2.23796 26.65893,14.62687 10.05059,27.85642c-15.56426,12.39789 -20.22428,-6.06158 -20.78299,-6.05774c-0.65679,0.00452 -5.86459,10.5602 -24.8189,8.65875zM478.19245,234.10663c2.00584,1.06057 5.8409,-2.89476 6.4436,-3.99432c1.23914,-2.26062 1.39344,-4.55926 -0.86718,-5.79841c-2.26062,-1.23915 -4.11539,0.1274 -5.35452,2.38802c-0.63644,1.16108 -2.33997,6.28479 -0.2219,7.4047zM484.21637,216.89398c0.61223,-1.11695 -1.81753,0.70712 -3.1739,-0.03636c-1.35637,-0.74349 -3.5103,3.186 -2.15393,3.92949c1.35637,0.74348 3.18989,0.00721 5.32783,-3.89312zM488.96573,226.09794c1.35637,0.74349 3.60004,-3.34973 2.24367,-4.0932c-1.35637,-0.74348 -0.54531,-4.83183 -1.82771,-2.49231c-1.28239,2.33952 -1.77234,5.84204 -0.41597,6.58553z" data-paper-data="{&quot;index&quot;:null}"/><path d="M195.30761,124.10861c7.5269,0.75509 16.04103,10.88152 16.04103,10.88152c0,0 -9.72609,-4.02947 -14.52139,-4.04654c-4.79529,-0.01706 -10.59881,2.63471 -11.56655,3.95376c-1.42201,1.93821 -1.50718,24.25813 -25.50441,19.66867c-11.70182,-2.23796 -26.65892,-14.62687 -10.05059,-27.85642c15.56426,-12.39789 20.22428,6.06157 20.783,6.05773c0.65679,-0.00452 5.86459,-10.5602 24.81891,-8.65874zM161.80755,125.89335c-2.00584,-1.06057 -5.84089,2.89476 -6.4436,3.99432c-1.23913,2.26062 -1.39345,4.55927 0.86718,5.79841c2.26062,1.23914 4.11539,-0.1274 5.35451,-2.38802c0.63644,-1.16108 2.33998,-6.28479 0.22191,-7.4047zM155.78363,143.10601c-0.61224,1.11693 1.81753,-0.70712 3.1739,0.03637c1.35637,0.74349 3.5103,-3.18599 2.15392,-3.92949c-1.35637,-0.74348 -3.18989,-0.00721 -5.32783,3.89312zM151.03428,133.90206c-1.35637,-0.74349 -3.60004,3.34972 -2.24367,4.0932c1.35637,0.74348 0.5453,4.83183 1.8277,2.4923c1.2824,-2.33952 1.77234,-5.84204 0.41598,-6.58553z" data-paper-data="{&quot;index&quot;:null}"/></g><g><path d="M444.36148,236.6239c-7.52233,-0.79936 -15.97675,-10.97568 -15.97675,-10.97568c0,0 9.70221,4.08662 14.49734,4.13188c4.79511,0.04526 10.61412,-2.57232 11.5896,-3.88565c1.43338,-1.92982 1.64985,-24.24885 25.61966,-19.51832c11.68845,2.30676 26.57244,14.78342 9.88656,27.91505c-15.63693,12.30612 -20.18828,-6.18043 -20.747,-6.17987c-0.65681,0.00065 -5.92662,10.52552 -24.86941,8.5126zM477.87144,235.03622c1.99957,1.07236 5.85783,-2.86035 6.46698,-3.95635c1.25242,-2.25329 1.42022,-4.55097 -0.83306,-5.8034c-2.25328,-1.25243 -4.11605,0.10319 -5.36846,2.35648c-0.64325,1.15731 -2.3769,6.27092 -0.26546,7.40327zM483.99651,217.85931c0.61879,-1.11333 -1.82165,0.69642 -3.17363,-0.05505c-1.35197,-0.75146 -3.52898,3.16529 -2.17701,3.91675c1.35196,0.75144 3.18979,0.02598 5.35063,-3.8617zM488.69166,227.09105c1.35197,0.75146 3.61968,-3.32849 2.26771,-4.07994c-1.35196,-0.75144 -0.51686,-4.83496 -1.81301,-2.50302c-1.29612,2.33194 -1.80667,5.83152 -0.4547,6.58296z" data-paper-data="{&quot;index&quot;:null}"/><path d="M195.63853,123.3761c7.52233,0.79935 15.97675,10.97568 15.97675,10.97568c0,0 -9.70221,-4.08662 -14.49734,-4.13188c-4.79512,-0.04526 -10.61413,2.57233 -11.58961,3.88567c-1.43338,1.92982 -1.64985,24.24884 -25.61966,19.5183c-11.68845,-2.30676 -26.57243,-14.78341 -9.88656,-27.91505c15.63693,-12.30612 20.18828,6.18044 20.747,6.17987c0.65681,-0.00064 5.92662,-10.52553 24.86941,-8.5126zM162.12856,124.96377c-1.99957,-1.07236 -5.85782,2.86037 -6.46699,3.95635c-1.25241,2.25329 -1.42024,4.55098 0.83305,5.8034c2.25329,1.25242 4.11606,-0.1032 5.36847,-2.35648c0.64325,-1.15731 2.3769,-6.27092 0.26546,-7.40327zM156.0035,142.14069c-0.61879,1.11333 1.82165,-0.69642 3.17364,0.05504c1.35198,0.75146 3.52898,-3.16528 2.17701,-3.91675c-1.35198,-0.75144 -3.18981,-0.02598 -5.35064,3.8617zM151.30835,132.90896c-1.35198,-0.75146 -3.61969,3.32849 -2.26771,4.07993c1.35198,0.75144 0.51686,4.83497 1.813,2.50302c1.29613,-2.33195 1.80668,-5.83152 0.4547,-6.58296z" data-paper-data="{&quot;index&quot;:null}"/></g><g><path d="M443.11047,239.29464c-7.50332,-0.96151 -15.73615,-11.31794 -15.73615,-11.31794c0,0 9.61176,4.29506 14.40479,4.44379c4.79302,0.14874 10.66716,-2.34265 11.67077,-3.63463c1.47469,-1.89842 2.17279,-24.2076 26.03493,-18.96086c11.63594,2.55848 26.2472,15.35346 9.28181,28.12192c-15.89887,11.96579 -20.05019,-6.61469 -20.6088,-6.6262c-0.65666,-0.01352 -6.15238,10.39517 -25.04733,7.9739zM476.6469,238.43054c1.97596,1.11526 5.91818,-2.73326 6.55086,-3.81585c1.30075,-2.22575 1.51812,-4.51926 -0.70761,-5.82004c-2.22573,-1.30076 -4.11732,0.01434 -5.41808,2.24007c-0.66808,1.14315 -2.51169,6.21816 -0.42518,7.39581zM483.14125,221.3898c0.64268,-1.0997 -1.83625,0.65693 -3.1717,-0.12352c-1.33544,-0.78046 -3.59648,3.0884 -2.26103,3.86885c1.33544,0.78045 3.18848,0.09481 5.43272,-3.74533zM487.63606,230.72073c1.33544,0.78047 3.69069,-3.2496 2.35523,-4.03004c-1.33544,-0.78045 -0.41239,-4.84497 -1.75857,-2.54156c-1.34616,2.30342 -1.93211,5.79117 -0.59668,6.57162z" data-paper-data="{&quot;index&quot;:null}"/><path d="M196.88953,120.70536c7.50332,0.96151 15.73615,11.31793 15.73615,11.31793c0,0 -9.61175,-4.29506 -14.40478,-4.44379c-4.79302,-0.14874 -10.66718,2.34265 -11.67077,3.63463c-1.47469,1.89842 -2.17279,24.20759 -26.03493,18.96086c-11.63594,-2.55848 -26.2472,-15.35345 -9.2818,-28.12191c15.89887,-11.96579 20.05018,6.61469 20.60879,6.6262c0.65666,0.01352 6.15239,-10.39518 25.04733,-7.9739zM163.3531,121.56945c-1.97596,-1.11526 -5.91818,2.73327 -6.55086,3.81585c-1.30075,2.22574 -1.51812,4.51928 0.70762,5.82004c2.22574,1.30076 4.11732,-0.01434 5.41808,-2.24007c0.66808,-1.14315 2.51169,-6.21816 0.42517,-7.39581zM156.85876,138.61019c-0.64268,1.0997 1.83626,-0.65694 3.1717,0.12352c1.33544,0.78047 3.59649,-3.0884 2.26102,-3.86885c-1.33544,-0.78045 -3.18849,-0.0948 -5.43272,3.74533zM152.36395,129.27928c-1.33544,-0.78046 -3.69067,3.2496 -2.35523,4.03005c1.33544,0.78045 0.41239,4.84498 1.75855,2.54156c1.34616,-2.30342 1.93211,-5.79117 0.59668,-6.57162z" data-paper-data="{&quot;index&quot;:null}"/></g><g><path d="M443.64673,234.97671c-7.52691,-0.75509 -16.04103,-10.88152 -16.04103,-10.88152c0,0 9.72608,4.02948 14.52139,4.04655c4.7953,0.01706 10.5988,-2.63471 11.56655,-3.95376c1.422,-1.93821 1.50719,-24.25814 25.50442,-19.66868c11.70181,2.23796 26.65894,14.62686 10.0506,27.85642c-15.56426,12.39789 -20.22427,-6.06157 -20.78299,-6.05773c-0.65679,0.00452 -5.86459,10.5602 -24.81891,8.65874zM477.14678,233.19196c2.00584,1.06057 5.8409,-2.89477 6.4436,-3.99433c1.23914,-2.26062 1.39344,-4.55925 -0.86718,-5.7984c-2.26062,-1.23915 -4.11539,0.1274 -5.35452,2.38802c-0.63644,1.16108 -2.33997,6.2848 -0.2219,7.40471zM483.1707,215.9793c0.61223,-1.11695 -1.81753,0.70711 -3.1739,-0.03637c-1.35637,-0.74349 -3.5103,3.186 -2.15393,3.92949c1.35637,0.74348 3.18989,0.00721 5.32783,-3.89312zM487.92007,225.18326c1.35637,0.74349 3.60004,-3.34973 2.24366,-4.09321c-1.35637,-0.74348 -0.5453,-4.83183 -1.8277,-2.49231c-1.28239,2.33952 -1.77234,5.84204 -0.41597,6.58553z" data-paper-data="{&quot;index&quot;:null}"/><path d="M194.26194,123.19392c7.5269,0.75509 16.04103,10.88152 16.04103,10.88152c0,0 -9.72609,-4.02947 -14.52139,-4.04654c-4.79529,-0.01706 -10.59881,2.63471 -11.56655,3.95376c-1.42201,1.93822 -1.50718,24.25812 -25.50441,19.66868c-11.70182,-2.23796 -26.65892,-14.62686 -10.05059,-27.85642c15.56426,-12.39789 20.22427,6.06157 20.78299,6.05773c0.65679,-0.00452 5.86459,-10.5602 24.81891,-8.65874zM160.76187,124.97867c-2.00584,-1.06057 -5.84088,2.89476 -6.4436,3.99432c-1.23913,2.26062 -1.39345,4.55925 0.86718,5.79841c2.26063,1.23915 4.11539,-0.1274 5.35451,-2.38802c0.63644,-1.16108 2.33997,-6.28479 0.2219,-7.4047zM154.73796,142.19133c-0.61224,1.11693 1.81753,-0.70712 3.1739,0.03637c1.35637,0.74349 3.5103,-3.18599 2.15392,-3.92949c-1.35637,-0.74348 -3.18989,-0.00721 -5.32783,3.89312zM149.9886,132.98738c-1.35637,-0.74349 -3.60004,3.34972 -2.24367,4.09321c1.35637,0.74348 0.5453,4.83183 1.8277,2.4923c1.2824,-2.33952 1.77234,-5.84204 0.41597,-6.58553z" data-paper-data="{&quot;index&quot;:null}"/></g><g><path d="M445.73807,236.80608c-7.52691,-0.75509 -16.04103,-10.88152 -16.04103,-10.88152c0,0 9.72608,4.02948 14.52139,4.04654c4.7953,0.01706 10.59881,-2.63471 11.56655,-3.95376c1.422,-1.93821 1.50719,-24.25814 25.50442,-19.66868c11.70181,2.23796 26.65893,14.62686 10.05059,27.85642c-15.56426,12.39789 -20.22427,-6.06157 -20.78299,-6.05773c-0.65679,0.00452 -5.86459,10.5602 -24.81891,8.65874zM479.23812,235.02133c2.00584,1.06057 5.8409,-2.89476 6.4436,-3.99432c1.23914,-2.26062 1.39344,-4.55925 -0.86718,-5.7984c-2.26062,-1.23915 -4.11538,0.1274 -5.35451,2.38802c-0.63644,1.16108 -2.33998,6.28479 -0.22191,7.4047zM485.26204,217.80867c0.61223,-1.11695 -1.81753,0.70711 -3.1739,-0.03637c-1.35637,-0.74349 -3.5103,3.186 -2.15393,3.92949c1.35637,0.74348 3.18989,0.00721 5.32783,-3.89312zM490.0114,227.01263c1.35637,0.74349 3.60004,-3.34973 2.24367,-4.09321c-1.35637,-0.74348 -0.54531,-4.83183 -1.82771,-2.49231c-1.28239,2.33952 -1.77234,5.84204 -0.41597,6.58553z" data-paper-data="{&quot;index&quot;:null}"/><path d="M196.35327,125.02329c7.5269,0.75509 16.04104,10.88152 16.04104,10.88152c0,0 -9.72608,-4.02947 -14.52139,-4.04654c-4.79529,-0.01706 -10.59882,2.63471 -11.56656,3.95376c-1.42201,1.93822 -1.50718,24.25812 -25.50441,19.66868c-11.70182,-2.23796 -26.65892,-14.62687 -10.05059,-27.85642c15.56426,-12.39789 20.22429,6.06158 20.783,6.05774c0.65679,-0.00452 5.86458,-10.5602 24.8189,-8.65874zM162.85322,126.80804c-2.00584,-1.06057 -5.84089,2.89477 -6.4436,3.99433c-1.23913,2.26062 -1.39345,4.55925 0.86718,5.7984c2.26063,1.23915 4.11539,-0.1274 5.35451,-2.38802c0.63644,-1.16108 2.33998,-6.2848 0.22191,-7.4047zM156.8293,144.0207c-0.61224,1.11693 1.81753,-0.70712 3.1739,0.03637c1.35637,0.74349 3.5103,-3.18599 2.15393,-3.92949c-1.35637,-0.74348 -3.18989,-0.00721 -5.32783,3.89312zM152.07993,134.81675c-1.35637,-0.74349 -3.60004,3.34972 -2.24366,4.09321c1.35637,0.74348 0.54531,4.83183 1.82771,2.4923c1.2824,-2.33952 1.77233,-5.84204 0.41597,-6.58553z" data-paper-data="{&quot;index&quot;:null}"/></g></g><g fill-opacity="0.00784" fill="#ffffff" stroke="none" stroke-width="0.5"><g><path d="M445.00442,235.19c-7.53101,-0.71278 -16.10191,-10.79123 -16.10191,-10.79123c0,0 9.74857,3.97478 14.5439,3.96489c4.79532,-0.00988 10.58383,-2.69422 11.54415,-4.01868c1.41109,-1.94617 1.37088,-24.26622 25.39351,-19.81165c11.71419,2.17219 26.7407,14.47687 10.20694,27.79952c-15.49438,12.48512 -20.25802,-5.94786 -20.81671,-5.94088c-0.65675,0.0082 -5.80518,10.59298 -24.76987,8.79804zM478.49392,233.21707c2.01177,1.04928 5.82454,-2.92753 6.42106,-4.03045c1.22642,-2.26755 1.3678,-4.56701 -0.89974,-5.79344c-2.26753,-1.22643 -4.1146,0.15053 -5.34101,2.41808c-0.62991,1.16463 -2.30463,6.29783 -0.1803,7.40583zM484.42105,215.97084c0.60595,-1.12037 -1.81352,0.71731 -3.17405,-0.01854c-1.36054,-0.73586 -3.49235,3.20566 -2.13182,3.94153c1.36052,0.73585 3.18987,-0.0107 5.30587,-3.92299zM489.22204,225.14798c1.36054,0.73586 3.58116,-3.3699 2.22064,-4.10576c-1.36052,-0.73585 -0.57243,-4.82869 -1.84167,-2.48201c-1.26922,2.34669 -1.73949,5.8519 -0.37897,6.58776z" data-paper-data="{&quot;index&quot;:null}"/><path d="M194.99559,124.80999c7.53101,0.71278 16.10191,10.79123 16.10191,10.79123c0,0 -9.74856,-3.97477 -14.5439,-3.9649c-4.79532,0.00988 -10.58385,2.69422 -11.54417,4.01869c-1.41109,1.94618 -1.37088,24.26621 -25.39351,19.81164c-11.71421,-2.17219 -26.74068,-14.47688 -10.20692,-27.79953c15.49438,-12.48512 20.25802,5.94786 20.8167,5.94088c0.65675,-0.0082 5.80518,-10.59298 24.76987,-8.79803zM161.50609,126.7829c-2.01177,-1.04928 -5.82453,2.92753 -6.42106,4.03045c-1.22641,2.26754 -1.36781,4.56702 0.89973,5.79345c2.26755,1.22642 4.1146,-0.15053 5.34101,-2.41807c0.62991,-1.16462 2.30463,-6.29783 0.18031,-7.40583zM155.57896,144.02913c-0.60595,1.12036 1.81352,-0.71732 3.17405,0.01854c1.36054,0.73586 3.49235,-3.20565 2.13182,-3.94153c-1.36053,-0.73585 -3.18987,0.0107 -5.30587,3.92299zM150.77796,134.85201c-1.36054,-0.73586 -3.58117,3.36989 -2.22065,4.10576c1.36053,0.73585 0.57243,4.82869 1.84168,2.482c1.26923,-2.34669 1.73949,-5.85189 0.37897,-6.58775z" data-paper-data="{&quot;index&quot;:null}"/></g><g><path d="M444.67762,235.92436c-7.5267,-0.75707 -16.03816,-10.88576 -16.03816,-10.88576c0,0 9.72501,4.03205 14.52032,4.05037c4.79529,0.01832 10.59951,-2.63191 11.56759,-3.95071c1.42251,-1.93784 1.5136,-24.25773 25.5096,-19.66194c11.70122,2.24107 26.65507,14.63391 10.04323,27.85907c-15.56754,12.39377 -20.22267,-6.06691 -20.78139,-6.06322c-0.65679,0.00434 -5.86739,10.55865 -24.82119,8.65218zM478.17814,234.14845c2.00557,1.0611 5.84167,-2.89321 6.44466,-3.99261c1.23975,-2.26029 1.39463,-4.55889 -0.86565,-5.79863c-2.26028,-1.23976 -4.11541,0.12632 -5.35514,2.38661c-0.63674,1.1609 -2.34163,6.28417 -0.22387,7.40464zM484.20662,216.93739c0.61253,-1.11679 -1.81772,0.70663 -3.17389,-0.03722c-1.35617,-0.74385 -3.51114,3.18507 -2.15497,3.92891c1.35616,0.74384 3.18988,0.00806 5.32885,-3.89169zM488.95355,226.1426c1.35617,0.74385 3.60092,-3.34877 2.24475,-4.09262c-1.35616,-0.74384 -0.54401,-4.83197 -1.82703,-2.49278c-1.283,2.33918 -1.77388,5.84158 -0.41771,6.5854z" data-paper-data="{&quot;index&quot;:null}"/><path d="M195.32239,124.07563c7.52671,0.75707 16.03816,10.88576 16.03816,10.88576c0,0 -9.72501,-4.03205 -14.52032,-4.05037c-4.79529,-0.01832 -10.59952,2.63191 -11.5676,3.9507c-1.4225,1.93784 -1.5136,24.25773 -25.5096,19.66193c-11.70123,-2.24107 -26.65506,-14.6339 -10.04323,-27.85907c15.56755,-12.39376 20.22267,6.06692 20.78139,6.06322c0.65679,-0.00434 5.86739,-10.55865 24.82119,-8.65217zM161.82186,125.85154c-2.00557,-1.0611 -5.84166,2.89322 -6.44466,3.99261c-1.23974,2.26029 -1.39464,4.5589 0.86565,5.79864c2.26029,1.23975 4.11541,-0.12632 5.35514,-2.38661c0.63674,-1.1609 2.34164,-6.28417 0.22387,-7.40464zM155.79339,143.06259c-0.61253,1.11679 1.81772,-0.70663 3.1739,0.03721c1.35618,0.74385 3.51115,-3.18506 2.15497,-3.92891c-1.35618,-0.74384 -3.1899,-0.00806 -5.32887,3.89169zM151.04646,133.85739c-1.35618,-0.74385 -3.60092,3.34877 -2.24475,4.09261c1.35618,0.74384 0.54402,4.83197 1.82702,2.49279c1.28301,-2.33918 1.77388,-5.84157 0.41771,-6.5854z" data-paper-data="{&quot;index&quot;:null}"/></g><g><path d="M443.44164,238.60208c-7.50861,-0.91934 -15.79949,-11.22936 -15.79949,-11.22936c0,0 9.63573,4.241 14.42952,4.3628c4.79377,0.12181 10.65383,-2.40254 11.65017,-3.70015c1.464,-1.90669 2.03676,-24.21942 25.928,-19.10682c11.65013,2.49307 26.33304,15.20576 9.43965,28.06933c-15.8314,12.05491 -20.08704,-6.50194 -20.6457,-6.51031c-0.65673,-0.00983 -6.0939,10.42957 -25.00214,8.11449zM476.97269,237.54959c1.9822,1.10414 5.90273,-2.76647 6.52932,-3.8526c1.28823,-2.23301 1.49271,-4.52772 -0.7403,-5.81596c-2.233,-1.28824 -4.11718,0.03748 -5.40542,2.27048c-0.66165,1.14689 -2.47672,6.23217 -0.38362,7.39809zM483.3712,220.47263c0.6365,-1.1033 -1.83254,0.66724 -3.17234,-0.10569c-1.33981,-0.77295 -3.57907,3.10855 -2.23925,3.88149c1.33979,0.77294 3.18897,0.07689 5.4116,-3.77579zM487.91836,229.77816c1.33981,0.77295 3.67237,-3.27028 2.33255,-4.04321c-1.33979,-0.77294 -0.43961,-4.8426 -1.77282,-2.53164c-1.33319,2.31094 -1.89954,5.80193 -0.55975,6.57487z" data-paper-data="{&quot;index&quot;:null}"/><path d="M196.55837,121.39792c7.5086,0.91934 15.79949,11.22936 15.79949,11.22936c0,0 -9.63574,-4.24098 -14.42952,-4.36279c-4.79377,-0.12181 -10.65384,2.40254 -11.65016,3.70015c-1.464,1.90668 -2.03677,24.21941 -25.92801,19.10682c-11.65013,-2.49307 -26.33304,-15.20576 -9.43964,-28.06933c15.8314,-12.05491 20.08703,6.50194 20.6457,6.51031c0.65673,0.00982 6.09389,-10.42957 25.00214,-8.11448zM163.02731,122.4504c-1.98219,-1.10413 -5.90273,2.76648 -6.52932,3.8526c-1.28823,2.23301 -1.49271,4.52773 0.7403,5.81596c2.233,1.28824 4.11719,-0.03748 5.40542,-2.27048c0.66165,-1.14689 2.47672,-6.23217 0.38362,-7.39809zM156.62882,139.52736c-0.6365,1.1033 1.83254,-0.66725 3.17234,0.10569c1.33981,0.77295 3.57908,-3.10855 2.23925,-3.88149c-1.33981,-0.77294 -3.18898,-0.07689 -5.4116,3.77579zM152.08165,130.22184c-1.33981,-0.77294 -3.67236,3.27028 -2.33255,4.04321c1.33981,0.77294 0.43961,4.84261 1.77281,2.53164c1.3332,-2.31095 1.89954,-5.80193 0.55974,-6.57486z" data-paper-data="{&quot;index&quot;:null}"/></g><g><path d="M443.95363,234.28121c-7.53101,-0.71278 -16.10191,-10.79123 -16.10191,-10.79123c0,0 9.74857,3.97478 14.5439,3.96489c4.79532,-0.00988 10.58383,-2.69422 11.54415,-4.01868c1.41109,-1.94617 1.37088,-24.26622 25.39352,-19.81165c11.71419,2.17219 26.74069,14.47687 10.20693,27.79952c-15.49438,12.48512 -20.25802,-5.94786 -20.8167,-5.94088c-0.65675,0.0082 -5.80518,10.59298 -24.76987,8.79804zM477.44313,232.30829c2.01177,1.04928 5.82454,-2.92753 6.42106,-4.03045c1.22642,-2.26755 1.3678,-4.56701 -0.89973,-5.79345c-2.26753,-1.22643 -4.11459,0.15052 -5.341,2.41808c-0.62991,1.16463 -2.30463,6.29783 -0.18031,7.40583zM483.37026,215.06206c0.60595,-1.12037 -1.81352,0.71731 -3.17405,-0.01854c-1.36054,-0.73586 -3.49235,3.20567 -2.13182,3.94154c1.36052,0.73585 3.18987,-0.01071 5.30586,-3.92299zM488.17125,224.23918c1.36054,0.73586 3.58116,-3.3699 2.22064,-4.10576c-1.36052,-0.73585 -0.57243,-4.82869 -1.84167,-2.48201c-1.26922,2.34669 -1.73949,5.8519 -0.37897,6.58776z" data-paper-data="{&quot;index&quot;:null}"/><path d="M193.9448,123.9012c7.53101,0.71278 16.10191,10.79123 16.10191,10.79123c0,0 -9.74856,-3.97477 -14.5439,-3.96489c-4.79532,0.00988 -10.58384,2.69422 -11.54416,4.01869c-1.41109,1.94617 -1.37088,24.2662 -25.39351,19.81165c-11.71421,-2.17219 -26.74068,-14.47687 -10.20692,-27.79952c15.49438,-12.48512 20.25802,5.94786 20.8167,5.94088c0.65675,-0.0082 5.80518,-10.59299 24.76987,-8.79804zM160.45528,125.87411c-2.01177,-1.04928 -5.82453,2.92753 -6.42106,4.03045c-1.22641,2.26754 -1.36781,4.56701 0.89973,5.79345c2.26755,1.22643 4.1146,-0.15053 5.34101,-2.41807c0.62991,-1.16462 2.30463,-6.29783 0.18031,-7.40583zM154.52816,143.12034c-0.60595,1.12036 1.81352,-0.71733 3.17405,0.01853c1.36054,0.73586 3.49235,-3.20565 2.13182,-3.94153c-1.36053,-0.73585 -3.18987,0.01071 -5.30587,3.923zM149.72718,133.94322c-1.36054,-0.73586 -3.58117,3.36988 -2.22065,4.10576c1.36053,0.73585 0.57242,4.82869 1.84167,2.482c1.26923,-2.34669 1.7395,-5.85189 0.37897,-6.58775z" data-paper-data="{&quot;index&quot;:null}"/></g><g><path d="M446.05521,236.0988c-7.53101,-0.71278 -16.10191,-10.79123 -16.10191,-10.79123c0,0 9.74857,3.97478 14.5439,3.96489c4.79532,-0.00988 10.58383,-2.69422 11.54415,-4.01868c1.41109,-1.94617 1.37088,-24.26622 25.39352,-19.81165c11.71419,2.17219 26.7407,14.47687 10.20694,27.79952c-15.49438,12.48512 -20.25802,-5.94786 -20.8167,-5.94088c-0.65675,0.0082 -5.80518,10.59299 -24.76987,8.79804zM479.54471,234.12587c2.01177,1.04928 5.82454,-2.92753 6.42106,-4.03045c1.22642,-2.26755 1.3678,-4.56701 -0.89973,-5.79345c-2.26753,-1.22643 -4.1146,0.15053 -5.34101,2.41808c-0.62991,1.16463 -2.30463,6.29783 -0.1803,7.40583zM485.47184,216.87964c0.60595,-1.12037 -1.81352,0.71732 -3.17405,-0.01853c-1.36054,-0.73586 -3.49235,3.20566 -2.13182,3.94153c1.36052,0.73585 3.18987,-0.01071 5.30587,-3.923zM490.27283,226.05677c1.36054,0.73586 3.58117,-3.36989 2.22065,-4.10575c-1.36052,-0.73585 -0.57243,-4.82869 -1.84168,-2.48201c-1.26922,2.34669 -1.73949,5.85189 -0.37897,6.58775z" data-paper-data="{&quot;index&quot;:null}"/><path d="M196.04638,125.71879c7.53101,0.71278 16.10191,10.79123 16.10191,10.79123c0,0 -9.74857,-3.97478 -14.5439,-3.9649c-4.79532,0.00988 -10.58384,2.69422 -11.54416,4.01869c-1.41109,1.94618 -1.37088,24.26621 -25.39352,19.81165c-11.71421,-2.17219 -26.74068,-14.47687 -10.20692,-27.79952c15.49438,-12.48512 20.25802,5.94786 20.8167,5.94088c0.65675,-0.0082 5.80518,-10.59298 24.76987,-8.79803zM162.55688,127.6917c-2.01177,-1.04928 -5.82453,2.92753 -6.42106,4.03045c-1.22641,2.26754 -1.36781,4.56701 0.89974,5.79344c2.26755,1.22643 4.11459,-0.15052 5.341,-2.41807c0.62991,-1.16462 2.30463,-6.29783 0.18031,-7.40583zM156.62974,144.93792c-0.60595,1.12036 1.81352,-0.71732 3.17405,0.01854c1.36054,0.73586 3.49235,-3.20565 2.13182,-3.94153c-1.36053,-0.73585 -3.18987,0.01071 -5.30587,3.92299zM151.82876,135.76082c-1.36054,-0.73586 -3.58117,3.36989 -2.22065,4.10576c1.36053,0.73585 0.57243,4.82869 1.84168,2.482c1.26923,-2.34669 1.73949,-5.85189 0.37897,-6.58775z" data-paper-data="{&quot;index&quot;:null}"/></g></g><text transform="translate(199.01235,187.35985) rotate(-0.17303) scale(0.5,0.5)" font-size="40" xml:space="preserve" fill-opacity="0.50196" fill="#999999" fill-rule="nonzero" stroke="none" stroke-width="1" stroke-linecap="butt" stroke-linejoin="miter" stroke-miterlimit="10" stroke-dasharray="" stroke-dashoffset="0" font-family="Sans Serif" font-weight="normal" text-anchor="start" style="mix-blend-mode: normal"><tspan x="0" dy="0">made by the spooki team</tspan></text></g></g></svg>