<svg version="1.1" xmlns="http://www.w3.org/2000/svg" xmlns:xlink="http://www.w3.org/1999/xlink" width="111.94083" height="229.17549" viewBox="0,0,111.94083,229.17549"><g transform="translate(-264.02958,-75.7728)"><g data-paper-data="{&quot;isPaintingLayer&quot;:true}" fill-rule="nonzero" stroke-linecap="butt" stroke-linejoin="miter" stroke-miterlimit="10" stroke-dasharray="" stroke-dashoffset="0" style="mix-blend-mode: normal"><g stroke="none" stroke-width="0"><g><path d="M296.05008,137.00811c-0.71017,4.22432 -2.56388,7.22673 -4.14039,6.70606c-1.57651,-0.52067 -2.2788,-4.36725 -1.56862,-8.59158c0.71017,-4.22432 2.5639,-7.22673 4.1404,-6.70606c1.57651,0.52067 2.2788,4.36726 1.56861,8.59158z" fill="#403d39"/><path d="M293.25586,130.74959c0,0 -2.05378,5.7478 -6.32502,10.52478c-4.01094,4.48585 -10.95558,7.49863 -11.75095,6.55239c-1.64238,-1.95387 0.79486,-6.5494 4.44498,-12.57691c3.65012,-6.02751 19.34302,-16.81799 20.98539,-14.86411c0.24365,0.28987 4.09063,9.69426 1.50165,12.14276c-1.01547,0.96036 -3.61246,-1.65582 -3.61246,-1.65582c0,0 -3.57085,5.86191 -4.39123,5.89385c-1.67212,0.06507 -0.85235,-6.01691 -0.85235,-6.01691z" fill="#404040"/><path d="M271.98199,120.8651c-3.12243,3.28776 -6.38505,4.58849 -7.28723,2.90524c-0.9022,-1.68326 0.89767,-5.71306 4.02011,-9.00083c3.12243,-3.28776 6.38505,-4.58849 7.28723,-2.90524c0.9022,1.68326 -0.89767,5.71307 -4.02011,9.00083z" fill="#404040"/><path d="M302.02499,125.72843c-1.54519,0.55292 -9.00766,-8.63805 -16.4432,-12.17266c-16.40487,-7.79838 -5.41761,-7.5846 1.81685,-3.30808c4.71535,2.78737 15.67163,10.26776 16.00946,12.95269c0.20511,1.63019 -0.55399,2.23137 -1.38311,2.52805z" fill="#403d39"/><path d="M274.25355,129.37408c-4.11867,4.81132 -8.52781,6.91177 -9.84807,4.69146c-1.32027,-2.22031 0.94829,-7.92057 5.06696,-12.73188c4.11867,-4.81131 8.52781,-6.91176 9.84807,-4.69146c1.32027,2.2203 -0.94829,7.92057 -5.06696,12.73188z" fill="#404040"/><path d="M277.11448,114.36244c-2.86372,1.18999 -5.45058,0.90015 -5.77792,-0.64736c-0.32732,-1.54751 1.72883,-3.76668 4.59255,-4.95665c2.86372,-1.18998 5.45058,-0.90016 5.77792,0.64736c0.32732,1.54751 -1.72883,3.76668 -4.59255,4.95665z" fill="#403d39"/><path d="M279.72779,119.53276c-3.93094,2.78519 -7.73867,3.32099 -8.50478,1.19679c-0.76612,-2.12421 1.79949,-6.10405 5.73044,-8.88923c3.93094,-2.78519 7.73866,-3.321 8.50479,-1.19679c0.76612,2.12421 -1.79948,6.10405 -5.73043,8.88923z" fill="#403d39"/><path d="M278.4625,137.7931c-4.47193,6.08587 -9.45096,9.06516 -11.12097,6.65443c-1.67001,-2.41074 0.60138,-9.29861 5.07331,-15.38449c4.47193,-6.08588 9.45096,-9.06517 11.12097,-6.65443c1.67001,2.41074 -0.60137,9.29861 -5.07329,15.38449z" fill="#403d39"/><path d="M284.37455,125.966c-4.33522,4.95304 -8.95408,7.06917 -10.31651,4.72649c-1.36244,-2.34268 1.0475,-8.257 5.38271,-13.21004c4.33522,-4.95305 8.95408,-7.06918 10.31651,-4.7265c1.36244,2.34268 -1.04748,8.25701 -5.38271,13.21005z" fill="#403d39"/><path d="M294.99512,133.80171c-1.22763,-0.23255 -0.45892,-6.78227 -0.45892,-6.78227c0,0 -3.87095,4.10786 -7.10067,7.00684c-2.68613,2.41106 -7.45289,2.9314 -8.15169,2.22982c-2.74216,-2.75304 3.66108,-13.90682 6.91909,-17.1215c5.17505,-5.10622 5.06062,-4.94114 9.49424,-2.14816c6.10825,3.8479 7.04717,12.32678 5.82824,14.06124c-0.85714,1.21965 -3.3697,-2.78544 -3.3697,-2.78544c0,0 -1.82786,5.79194 -3.1606,5.53947z" fill="#403d39"/></g><g data-paper-data="{&quot;index&quot;:null}"><path d="M345.51854,128.41653c1.57651,-0.52067 3.43023,2.48174 4.1404,6.70606c0.71019,4.22432 0.00788,8.07091 -1.56862,8.59158c-1.57651,0.52067 -3.43022,-2.48175 -4.14039,-6.70607c-0.71019,-4.22432 -0.00789,-8.07091 1.56862,-8.59158z" fill="#403d39"/><path d="M346.74413,130.74961c0,0 0.81977,6.08198 -0.85235,6.01691c-0.82038,-0.03194 -4.39123,-5.89384 -4.39123,-5.89384c0,0 -2.59699,2.61619 -3.61246,1.65582c-2.58898,-2.4485 1.258,-11.8529 1.50165,-12.14276c1.64237,-1.95387 17.33527,8.83661 20.98539,14.86412c3.65012,6.02751 6.08735,10.62303 4.44498,12.5769c-0.79537,0.94624 -7.74,-2.06653 -11.75095,-6.55238c-4.27123,-4.77697 -6.32502,-10.52478 -6.32502,-10.52478z" fill="#404040"/><path d="M363.9979,111.86427c0.90219,-1.68325 4.16479,-0.38253 7.28723,2.90524c3.12243,3.28777 4.92231,7.31757 4.02011,9.00083c-0.90219,1.68325 -4.1648,0.38253 -7.28723,-2.90524c-3.12243,-3.28777 -4.9223,-7.31757 -4.02011,-9.00083z" fill="#404040"/><path d="M336.59191,123.20039c0.33783,-2.68493 11.29411,-10.16532 16.00946,-12.9527c7.23446,-4.27651 18.22172,-4.49029 1.81685,3.30809c-7.43553,3.53462 -14.89801,12.72559 -16.4432,12.17266c-0.82912,-0.29668 -1.58823,-0.89786 -1.38311,-2.52805z" fill="#403d39"/><path d="M360.6795,116.64221c1.32026,-2.2203 5.72939,-0.11985 9.84806,4.69146c4.11867,4.81131 6.38723,10.51158 5.06696,12.73188c-1.32026,2.2203 -5.72939,0.11986 -9.84806,-4.69146c-4.11867,-4.81131 -6.38723,-10.51158 -5.06696,-12.73188z" fill="#404040"/><path d="M358.29297,109.40579c0.32733,-1.54751 2.9142,-1.83734 5.77792,-0.64735c2.86372,1.18997 4.91987,3.40914 4.59255,4.95665c-0.32733,1.54751 -2.9142,1.83734 -5.77792,0.64736c-2.86372,-1.18997 -4.91987,-3.40915 -4.59255,-4.95665z" fill="#403d39"/><path d="M360.27221,119.53277c-3.93095,-2.78518 -6.49656,-6.76502 -5.73043,-8.88923c0.76612,-2.12421 4.57385,-1.58839 8.50479,1.19679c3.93096,2.78518 6.49657,6.76502 5.73044,8.88922c-0.76612,2.1242 -4.57385,1.5884 -8.50479,-1.19679z" fill="#403d39"/><path d="M356.46421,122.40862c1.67001,-2.41074 6.64904,0.56855 11.12097,6.65443c4.47192,6.08588 6.74331,12.97375 5.07331,15.38449c-1.67001,2.41073 -6.64905,-0.56856 -11.12097,-6.65443c-4.47192,-6.08588 -6.74331,-12.97375 -5.0733,-15.38449z" fill="#403d39"/><path d="M355.62544,125.96601c-4.33522,-4.95305 -6.74515,-10.86737 -5.38271,-13.21005c1.36244,-2.34268 5.98129,-0.22655 10.31651,4.7265c4.33522,4.95305 6.74515,10.86737 5.38272,13.21005c-1.36243,2.34267 -5.98129,0.22655 -10.31651,-4.7265z" fill="#403d39"/><path d="M345.00488,133.80171c-1.33274,0.25247 -3.1606,-5.53947 -3.1606,-5.53947c0,0 -2.51256,4.00509 -3.3697,2.78544c-1.21893,-1.73446 -0.28001,-10.21334 5.82824,-14.06124c4.43362,-2.79297 4.31919,-2.95806 9.49424,2.14816c3.25801,3.21467 9.66125,14.36846 6.91908,17.1215c-0.6988,0.70158 -5.46555,0.18125 -8.15168,-2.22982c-3.22972,-2.89899 -7.10067,-7.00684 -7.10067,-7.00684c0,0 0.76871,6.54973 -0.45891,6.78228z" fill="#403d39"/></g></g><g stroke="none" stroke-width="0"><path d="M280,172.5345l12.41379,-19.48276h55.17242l12.41379,19.48276z" fill="#ccc5b9"/><path d="M360,172.53452l-12.41379,13.24138h-55.17242l-12.41379,-13.24138z" fill="#403d39"/><path d="M291.72414,304.94829l0.68966,-119.17241h55.17242v119.17241z" fill="#252422"/></g><g stroke="none"><g fill="#403d39" stroke-width="0.5" font-family="Inter, -apple-system, BlinkMacSystemFont, &quot;Segoe UI&quot;, Roboto, Oxygen, Ubuntu, Cantarell, &quot;Fira Sans&quot;, &quot;Droid Sans&quot;, &quot;Helvetica Neue&quot;, sans-serif, emoji" font-weight="400" font-size="16" text-anchor="start"/><g><path d="M328.06469,157.2881c0.92471,2.32622 4.65198,7.89345 4.84442,10.79157c0.01214,0.1197 0.01387,0.24212 0.00435,0.36629c-0.08667,1.13054 -1.07342,1.97677 -2.20396,1.8901c-0.84454,-0.06475 -1.53041,-0.63177 -1.78726,-1.3858c-0.83741,-1.1247 -1.38188,-2.65102 -1.92375,-3.76349c-2.70612,-5.55563 -4.51373,-11.36976 -6.6101,-17.15959c-0.48529,-1.34028 -3.60332,-5.39992 -3.23928,-6.81858c0.51357,-2.00137 2.52591,-2.87648 3.83575,-1.0765c2.14739,2.95094 3.25776,6.50406 4.39309,9.91755c0.81225,2.44214 1.73605,4.84681 2.68676,7.23843z" data-paper-data="{&quot;index&quot;:null}" fill="#21201f" stroke-width="0.5"/><path d="M311.97448,157.2881c0.95071,-2.39163 1.8745,-4.7963 2.68676,-7.23844c1.13533,-3.41349 2.24569,-6.96661 4.39308,-9.91755c1.30983,-1.79998 3.32219,-0.92487 3.83575,1.0765c0.36403,1.41865 -2.75399,5.4783 -3.23928,6.81858c-2.09637,5.78983 -3.90398,11.60395 -6.6101,17.15959c-0.54188,1.11247 -1.08635,2.63879 -1.92375,3.76349c-0.25684,0.75403 -0.94272,1.32105 -1.78725,1.3858c-1.13054,0.08667 -2.11729,-0.75956 -2.20396,-1.8901c-0.00952,-0.12417 -0.00778,-0.2466 0.00435,-0.3663c0.19244,-2.89812 3.9197,-8.46535 4.84442,-10.79157z" fill="#21201f" stroke-width="0.5"/><g stroke-width="0"><path d="M342.5,139.35373c0,16.04333 -10.07359,21.75099 -22.5,21.75099c-12.42641,0 -22.5,-5.70766 -22.5,-21.75099c0,-16.04333 10.07359,-29.04901 22.5,-29.04901c12.42641,0 22.5,13.00569 22.5,29.04901z" fill="#252422"/><path d="M340,120.95069c0,9.97794 -8.9543,13.75401 -20,13.75401c-11.0457,0 -20,-3.77608 -20,-13.75401c0,-9.97794 40,-9.97794 40,0z" data-paper-data="{&quot;index&quot;:null}" fill-opacity="0.09804" fill="#000000"/></g><g stroke-width="0.5"><path d="M298.00944,172.30252c-2.03517,0.27018 -2.30535,-1.76499 -2.30535,-1.76499l-0.20109,-1.73786c0.13195,-1.09726 -0.24562,-2.39184 0.39587,-3.29178c3.39633,-4.76468 9.52781,-0.91571 13.02527,1.08725c0,0 1.78019,1.02268 0.75751,2.80286c-1.02268,1.78018 -2.80286,0.7575 -2.80286,0.7575c-1.29595,-0.74703 -7.96597,-5.10161 -7.27259,-1.20261l0.16825,1.0443c0,0 0.27018,2.03517 -1.76499,2.30535z" fill="#252422"/><path d="M297.64095,166.93311c-1.9223,-0.72087 -1.20144,-2.64317 -1.20144,-2.64317l0.64168,-1.62754c0.63351,-0.90557 0.91062,-2.22531 1.90053,-2.71671c5.24104,-2.6017 8.83489,3.68273 10.97561,7.09762c0,0 1.08811,1.74097 -0.65286,2.82906c-1.74097,1.08811 -2.82907,-0.65286 -2.82907,-0.65286c-0.79093,-1.26964 -4.62149,-8.25379 -5.84749,-4.48818l-0.34377,1.00034c0,0 -0.72087,1.9223 -2.64317,1.20144z" fill="#3a3733"/><path d="M300.65472,161.75221c-1.23492,-1.64008 0.40517,-2.875 0.40517,-2.875l1.41503,-1.02873c1.0206,-0.42398 1.96282,-1.38871 3.06181,-1.27194c5.81851,0.61827 5.47728,7.84967 5.45034,11.87999c0,0 -0.0165,2.05296 -2.06946,2.03646c-2.05297,-0.01649 -2.03647,-2.06944 -2.03647,-2.06944c0.01421,-1.49579 0.53136,-9.44462 -2.52438,-6.92563l-0.82702,0.65947c0,0 -1.64009,1.23492 -2.87501,-0.40516z" fill="#403d39"/></g><g data-paper-data="{&quot;index&quot;:null}" stroke-width="0.5"><path d="M341.99056,172.30254c-2.03517,-0.27018 -1.76499,-2.30535 -1.76499,-2.30535l0.16825,-1.0443c0.69338,-3.899 -5.97663,0.45558 -7.27259,1.20261c0,0 -1.78018,1.02268 -2.80286,-0.7575c-1.02268,-1.78018 0.75751,-2.80286 0.75751,-2.80286c3.49746,-2.00296 9.62894,-5.85193 13.02527,-1.08725c0.64149,0.89993 0.26391,2.19451 0.39587,3.29178l-0.20109,1.73786c0,0 -0.27017,2.03518 -2.30535,1.76499z" fill="#252422"/><path d="M342.35904,166.93311c-1.9223,0.72087 -2.64317,-1.20144 -2.64317,-1.20144l-0.34377,-1.00034c-1.226,-3.76561 -5.05655,3.21854 -5.84749,4.48818c0,0 -1.0881,1.74097 -2.82907,0.65286c-1.74097,-1.0881 -0.65286,-2.82906 -0.65286,-2.82906c2.14072,-3.41489 5.73456,-9.69931 10.97561,-7.09762c0.98991,0.4914 1.26702,1.81114 1.90053,2.71671l0.64168,1.62754c0,0 0.72087,1.92231 -1.20144,2.64317z" fill="#3a3733"/><path d="M339.34527,161.75222c-1.23492,1.64008 -2.87501,0.40516 -2.87501,0.40516l-0.82702,-0.65947c-3.05575,-2.51899 -2.53859,5.42985 -2.52438,6.92563c0,0 0.0165,2.05295 -2.03647,2.06944c-2.05296,0.0165 -2.06946,-2.03646 -2.06946,-2.03646c-0.02693,-4.03032 -0.36817,-11.26172 5.45034,-11.87999c1.09899,-0.11677 2.04121,0.84796 3.06181,1.27194l1.41503,1.02873c0,0 1.64008,1.23492 0.40517,2.875z" fill="#403d39"/></g></g></g><g stroke="#3c162f" stroke-width="0"><path d="M347.01475,96.75417c0,17.82091 -9.90846,37.34478 -27.01475,37.34478c-17.10629,0 -27.01475,-19.52386 -27.01475,-37.34478c0,-8.89227 11.99998,-20.98137 26.93205,-20.98137c14.93207,0 27.09744,12.05273 27.09744,20.98137z" data-paper-data="{&quot;index&quot;:null}" fill="#252422"/><path d="M333.09499,124.36068c0,11.76797 -13.09498,21.3078 -13.09498,21.3078c0,0 -13.09498,-9.53982 -13.09498,-21.3078c0,-11.76797 26.18995,-11.76797 26.18995,0z" fill="#000000"/></g><g><path d="M333.09499,123.07197c0,10.04966 -13.09499,18.19653 -13.09499,18.19653c0,0 -13.09498,-8.14686 -13.09498,-18.19653c0,-10.04966 26.18995,-10.04966 26.18995,0z" fill="#403d39" stroke="#3c162f" stroke-width="0"/><path d="M333.09499,123.07197c0,6.56915 -5.59527,12.32527 -9.47089,15.52439c2.81151,-3.11029 4.48924,-7.03707 4.48924,-11.30579c0,-4.36812 -1.75679,-8.37822 -4.68752,-11.52174c5.22609,0.72948 9.66916,3.16386 9.66916,7.30316z" fill-opacity="0.09804" fill="#000000" stroke="#3c162f" stroke-width="0"/><path d="M323.76337,123.13625c0,-1.60681 0.3822,-2.90939 0.85367,-2.90939c0.47147,0 0.85367,1.30258 0.85367,2.90939c0,1.60681 -0.3822,2.90938 -0.85367,2.90938c-0.47147,0 -0.85367,-1.30257 -0.85367,-2.90938z" fill="#252422" stroke="none" stroke-width="0.5"/><path d="M314.5293,123.13625c0,-1.60681 0.3822,-2.90939 0.85367,-2.90939c0.47147,0 0.85367,1.30258 0.85367,2.90939c0,1.60681 -0.3822,2.90938 -0.85367,2.90938c-0.47147,0 -0.85367,-1.30257 -0.85367,-2.90938z" fill="#252422" stroke="none" stroke-width="0.5"/></g><g fill="#eb5e28" stroke="none" stroke-width="0"><path d="M309.94494,105.03875c2.32069,0.42062 4.15579,2.11122 5.15142,4.42193c-0.41041,-0.12921 -0.82539,-0.24813 -1.24463,-0.35643c-2.00415,-0.51776 -4.10575,-0.7932 -6.27168,-0.7932c-1.77474,0 -3.50628,0.18493 -5.17641,0.53657c1.78216,-2.75172 4.65478,-4.33202 7.5413,-3.80886z" data-paper-data="{&quot;index&quot;:null}"/><path d="M337.59636,108.84762c-1.67014,-0.35164 -3.40168,-0.53656 -5.17642,-0.53656c-2.16593,0 -4.26753,0.27544 -6.27168,0.7932c-0.41924,0.10831 -0.83422,0.22722 -1.24463,0.35643c0.99563,-2.31071 2.83073,-4.00132 5.15142,-4.42193c2.88651,-0.52316 5.75915,1.05714 7.5413,3.80886z" data-paper-data="{&quot;index&quot;:null}"/></g></g></g></svg>