<svg version="1.1" xmlns="http://www.w3.org/2000/svg" xmlns:xlink="http://www.w3.org/1999/xlink" width="35.125" height="35.12434" viewBox="0,0,35.125,35.12434"><g transform="translate(-302.43752,-162.43783)"><g data-paper-data="{&quot;isPaintingLayer&quot;:true}" stroke-miterlimit="10" stroke-dasharray="" stroke-dashoffset="0" style="mix-blend-mode: normal"><path d="M337.56251,169.8317v20.49804c0,4.00745 -3.22497,7.23243 -7.23242,7.23243h-20.5c-3.66107,0 -6.66147,-2.69385 -7.1543,-6.21484c0.7952,3.03475 3.54108,5.26367 6.83204,5.26367h20.0332c3.9166,0 7.07032,-3.15372 7.07032,-7.07031v-20.03321c0,-3.2976 -2.23906,-6.0451 -5.28321,-6.83398c3.52994,0.48496 6.23438,3.49081 6.23438,7.15821z" fill-opacity="0.29839" fill="#000000" fill-rule="evenodd" stroke="none" stroke-width="4.54219" stroke-linecap="round" stroke-linejoin="round"/><path d="M309.50719,162.43783h20.03378c3.9166,0 7.06966,3.15307 7.06966,7.06966v20.03379c0,3.91659 -3.15307,7.06966 -7.06966,7.06966h-20.03378c-3.91659,0 -7.06967,-3.15307 -7.06967,-7.06966v-20.03379c0,-3.91659 3.15308,-7.06966 7.06967,-7.06966z" fill-opacity="0.35294" fill="#ff672b" fill-rule="evenodd" stroke="none" stroke-width="4.43922" stroke-linecap="round" stroke-linejoin="round"/><g data-paper-data="{&quot;index&quot;:null}" fill-rule="nonzero" stroke-linejoin="miter"><path d="M325.13745,181.0674c0,0 3.18266,3.47826 4.12519,6.24184c0.94252,2.76358 -0.24481,5.13583 -0.24481,5.13583c0,0 -4.89493,-3.92998 -6.4973,-5.37484c-1.60237,-1.44486 -9.53068,-5.32176 -9.53068,-5.32176c0,0 -3.12347,-5.39084 -2.54459,-8.99144c0.38354,-2.38561 2.52706,-5.01184 3.65735,-5.19553c0.85814,-0.13945 10.43872,1.98582 10.95943,2.82025c2.2314,3.57572 0.07539,10.68566 0.07539,10.68566z" fill="#000000" stroke="#000000" stroke-width="0" stroke-linecap="round"/><path d="M318.03875,174.89847c0.03012,0.00583 0.05164,0.01302 0.05164,0.01302c1.43194,0.47824 4.27967,1.20738 4.68068,2.05916c0.1737,0.24485 0.85543,0.90989 0.74986,1.12224c-0.29728,0.59797 -3.72136,0.13434 -3.9384,-0.63009c0.76007,-1.12047 -3.21513,-1.56263 -3.47839,-2.43835c0.26652,-0.3981 1.02656,-0.39446 1.93462,-0.12598z" fill="#ff672b" stroke="none" stroke-width="0.5" stroke-linecap="butt"/></g></g></g></svg>