<svg version="1.1" xmlns="http://www.w3.org/2000/svg" xmlns:xlink="http://www.w3.org/1999/xlink" width="35.17311" height="35.17311" viewBox="0,0,35.17311,35.17311"><g transform="translate(-302.41347,-162.4135)"><g data-paper-data="{&quot;isPaintingLayer&quot;:true}" stroke-linecap="round" stroke-miterlimit="10" stroke-dasharray="" stroke-dashoffset="0" style="mix-blend-mode: normal"><path d="M309.98314,162.9135h20.03378c3.9166,0 7.06966,3.15307 7.06966,7.06966v20.03379c0,3.91659 -3.15306,7.06966 -7.06966,7.06966h-20.03378c-3.91659,0 -7.06967,-3.15307 -7.06967,-7.06966v-20.03379c0,-3.91659 3.15308,-7.06966 7.06967,-7.06966z" fill-opacity="0.09677" fill="#191919" fill-rule="evenodd" stroke="#ffffff" stroke-width="1" stroke-linejoin="round"/><g fill-rule="nonzero" stroke="#000000" stroke-width="0" stroke-linejoin="miter"><path d="M325.99332,176.2948c0.52874,1.94613 0.69504,5.93923 0.69504,5.93923l-0.15554,1.88504l7.04999,3.75271c0,0 -3.29955,2.41886 -14.46555,0.13661c-10.91926,-2.23182 -12.70007,-6.27906 -12.70007,-6.27906l8.10553,-0.07564l0.77632,-1.94281c0,0 1.72746,-3.06633 3.09552,-4.49327c1.41073,-1.47146 5.24477,-4.20604 5.24477,-4.20604c0,0 1.87042,3.50341 2.35398,5.28322z" fill="#ffffff"/><path d="M326.68835,182.23402l-0.15554,1.88504c0,0 -1.45014,0.73738 -6.30378,-0.25467c-5.32022,-1.08741 -5.70631,-2.2107 -5.70631,-2.2107l0.77632,-1.94281c0,0 3.33742,1.27484 5.60244,1.77663c2.26502,0.50179 5.78687,0.74651 5.78687,0.74651z" fill="#bfbfbf"/></g><path d="M326.68836,182.23402l-0.15554,1.88504l7.04999,3.75271c0,0 -3.29955,2.41886 -14.46555,0.13661c-3.41202,-0.6974 -5.93175,-1.57205 -7.78366,-2.44509c5.8107,-0.4067 11.07387,-2.7991 15.11533,-6.50305c0.17528,1.63352 0.23943,3.17378 0.23943,3.17378z" fill="#bfbfbf" fill-rule="nonzero" stroke="#000000" stroke-width="0" stroke-linejoin="miter"/></g></g></svg>