<svg version="1.1" xmlns="http://www.w3.org/2000/svg" xmlns:xlink="http://www.w3.org/1999/xlink" width="97.43744" height="254.65116" viewBox="0,0,97.43744,254.65116"><g transform="translate(-271.2813,-52.15401)"><g data-paper-data="{&quot;isPaintingLayer&quot;:true}" fill-rule="nonzero" stroke-linejoin="miter" stroke-miterlimit="10" stroke-dasharray="" stroke-dashoffset="0" style="mix-blend-mode: normal"><g stroke-linecap="butt"><path d="M281.0304,304.39159c0,0 -0.63536,-94.38387 -0.79335,-118.01201c-0.03195,-4.77872 6.81946,-7.44418 15.60528,-16.43043c1.59711,-1.63355 -0.64163,-12.31547 1.36859,-13.70343c5.79726,-4.00271 13.39027,-6.73813 23.22814,-6.78724c8.40361,-0.04195 15.15623,2.02349 20.54154,5.21785c0.33594,0.19927 0.2643,10.05102 3.21459,14.56257c5.70986,8.73147 16.09477,15.17775 16.09271,17.11632c-0.07659,46.24274 0.65429,117.98648 0.65429,117.98648l-10.49667,0.09614l-0.15882,-114.84311c0,0 0.07549,-3.0993 -2.81625,-3.15415c-3.43441,-0.06514 -2.94538,3.11562 -2.94538,3.11562l0.20548,114.86995l-48.21366,0.07222l-0.30539,-115.23309c0,0 0.27949,-2.919 -2.8856,-2.93443c-3.11083,-0.01515 -2.81569,2.90899 -2.81569,2.90899l0.35311,115.0668z" fill="#000000" stroke="#000000" stroke-width="2"/><path d="M279.21585,175.81464c1.6198,-5.36988 17.47824,-21.11312 17.47824,-21.11312l-1.52643,87.55471c0,0 -2.35582,3.5379 -6.33533,4.27893c-5.30001,0.9869 -12.90649,-0.87012 -16.10509,-2.13671c-5.10145,-2.02007 4.80381,-62.99843 6.48861,-68.58381z" fill="#37253a" stroke="none" stroke-width="0"/><path d="M367.2728,245.31046c-3.1986,1.26659 -10.80508,3.12361 -16.10509,2.13671c-3.97951,-0.74101 -6.33533,-4.27893 -6.33533,-4.27893l-2.33304,-88.90774c0,0 16.66507,17.09629 18.28486,22.46618c1.6848,5.58538 11.59005,66.56373 6.4886,68.5838z" data-paper-data="{&quot;index&quot;:null}" fill="#37253a" stroke="none" stroke-width="0"/><path d="M279.21585,175.81464c1.6198,-5.36988 17.47824,-21.11312 17.47824,-21.11312c0,0 -19.16304,26.6985 -17.47824,21.11312z" fill="#4a314d" stroke="none" stroke-width="0"/><path d="M342.49933,154.2605c0,0 16.66507,17.09629 18.28486,22.46618c1.6848,5.58538 -18.28486,-22.46618 -18.28486,-22.46618z" data-paper-data="{&quot;index&quot;:null}" fill="#4a314d" stroke="none" stroke-width="0"/><path d="M291.22011,306.5639c0,0 0.1352,-73.32448 0.18542,-100.56315c0.03437,-18.64024 13.87602,-17.47564 29.95165,-17.00075c16.07563,0.47489 29.34015,-2.66624 29.18494,15.50036c-0.23298,27.26951 -0.87405,102.30481 -0.87405,102.30481z" fill="#241826" stroke="none" stroke-width="0"/><path d="M320.35715,178.00002c13.88535,0.0052 22.06567,-25.54694 22.06567,-25.54694c0,0 7.6157,33.95281 8.01569,57.54311c0.02693,1.58808 0.24662,4.20852 -0.24235,7.48633c-3.09958,-2.7868 -7.69985,-4.48252 -12.19617,-4.48252c-6.55977,0 -12.27655,3.60922 -15.27286,8.95019c-2.78172,-1.86338 -6.12752,-2.95019 -9.72714,-2.95019c-1.20169,0 -2.37511,0.12113 -3.50868,0.35183c-2.93097,-5.56086 -8.76843,-9.35183 -15.49132,-9.35183c-0.87006,0 -1.72529,0.06349 -2.56131,0.1861c-0.04159,-0.24923 -0.06222,-0.48111 -0.06096,-0.69474c0.05891,-9.97579 3.73357,-57.05582 3.73357,-57.05582c0,0 11.36051,25.55928 25.24586,25.56448z" fill="#6b6570" stroke="none" stroke-width="0"/><path d="M295.61132,152.43556c0,0 10.86052,25.55927 24.74586,25.56446c13.88534,0.00519 22.06567,-25.54694 22.06567,-25.54694c0,0 0.60639,2.70344 1.48594,7.11464c-3.93635,2.99699 -6.56437,7.62415 -6.87734,12.87475c-3.66089,1.59093 -6.67155,4.39712 -8.52275,7.90937c-1.13358,-0.23071 -2.30699,-0.35183 -3.50868,-0.35183c-2.35621,0 -5.761,1.93671 -11.28522,-0.08645c-4.60663,-1.68711 -11.29629,-7.34631 -14.37045,-7.75788c-0.49709,-3.71285 -2.15839,-7.05718 -4.60467,-9.65369c0.51089,-5.99814 0.87164,-10.06642 0.87164,-10.06642z" fill="#ace894" stroke="none" stroke-width="0"/><path d="M294.15002,196.30001c1.25,0 1.25,1.25 1.25,1.25v1c-0.00312,0.54909 -0.00624,1.09818 -0.00937,1.64727c0.79147,3.14718 3.85802,4.94875 6.43799,2.108c1.79031,-1.97127 1.89898,-6.07973 2.07452,-8.64388c0.05827,-0.85119 0.09994,-2.81035 -0.72445,-3.52773c-0.72953,-0.63484 -3.09782,0.13411 -3.67667,0.26541c-6.33605,-1.97235 -7.54475,-12.64443 -1.10122,-15.77197c4.18211,-2.02991 9.70074,1.10164 10.38663,5.34612c0,0 0.17677,1.23744 -1.06066,1.41421c-1.23744,0.17677 -1.41421,-1.06066 -1.41421,-1.06066c-0.30343,-2.63419 -4.29538,-4.78591 -6.81338,-3.45388c-3.78071,2 -3.93296,9.45966 0.09878,11.02803c1.2403,-0.34706 1.76205,-0.62936 3.12541,-0.38884c5.79089,1.02159 3.1907,8.26493 2.66455,12.01129c-0.25252,1.798 -0.40535,3.00508 -1.71654,4.47136c-2.5057,2.80206 -7.32188,3.01377 -9.56751,-0.16055c-0.78776,-1.11355 -0.86771,-2.01882 -1.1945,-3.33145c-0.00312,-0.65091 -0.00624,-1.30182 -0.00937,-1.95273v-1c0,0 0,-1.25 1.25,-1.25z" fill="#4a314d" stroke="none" stroke-width="0.5"/><path d="M311.60661,191.64811c2.52804,-0.72173 6.22639,-0.92607 7.78855,-3.47645c0.51131,-0.83477 -1.04272,-1.78529 -1.48672,-2.04886c-2.19628,-1.30371 -4.29363,-0.41426 -6.39941,0.64524c0,0 -0.04266,0.02133 -0.11548,0.04733c-0.02182,1.64181 -0.09794,3.28928 -0.21499,4.93935zM310.39099,184.53198c2.17839,-1.08321 4.44852,-1.99359 6.96218,-1.49465c2.42422,0.48119 5.45656,3.38774 4.35168,6.09104c-1.44238,3.52905 -6.3453,4.04685 -9.41145,4.92355l-0.84023,0.21077c0,0 -0.21395,0.05349 -0.48459,0.02566c-0.5596,5.94714 -1.56118,11.90765 -2.38114,17.73843l0.01256,0.42323c0,0 0,1.25 -1.25,1.25c-1.25,0 -1.25,-1.25 -1.25,-1.25l0.01256,-0.77677c1.22622,-8.46632 2.78743,-17.25038 2.78743,-25.82323c0,0 0,-1.25 1.25,-1.25c0.04193,0 0.08245,0.00141 0.12161,0.00413c0.07126,-0.0481 0.11937,-0.07216 0.11937,-0.07216z" fill="#4a314d" stroke="none" stroke-width="0.5"/><path d="M318.78559,199.28549c-1.36117,-0.92431 -2.79145,1.28572 -3.43646,2.45991c-2.07982,3.78615 0.31466,14.02767 5.23512,8.15146c0.66594,-1.59473 1.46569,-5.50842 0.73071,-8.02424c-0.46881,-1.6047 -2.51108,-2.2848 -2.52936,-2.58713zM322.7158,211.20317c-1.10624,1.33159 -1.29534,1.81345 -2.89855,2.66074c-2.84663,1.50443 -4.37949,0.01966 -5.97625,-2.17608c-2.15353,-2.96137 -2.46532,-7.78725 -0.69008,-11.13319c1.57977,-2.97753 4.36283,-5.20172 7.47997,-2.98071c0,0 2.08508,0.97266 2.80069,3.83077c0.74802,2.98754 0.11089,7.90547 -0.71579,9.79847z" fill="#4a314d" stroke="none" stroke-width="0.5"/><path d="M325.9491,192.76485c-2.07982,6.33832 0.31467,25.28348 5.23513,15.44622c0.66594,-2.6697 1.46569,-11.02156 0.73071,-15.23324c-0.22008,-1.26116 -2.00619,-5.81835 -3.26953,-5.85122c-1.42773,-0.03715 -2.3541,4.59536 -2.6963,5.63825zM333.31577,208.59795c-1.10624,2.2292 -1.29534,3.03586 -2.89855,4.4543c-2.84663,2.51854 -4.37949,0.0329 -5.97625,-3.64294c-2.15353,-4.95757 -2.46531,-13.0365 -0.69007,-18.63789c1.57977,-4.98463 4.36282,-8.70811 7.47997,-4.98995c0,0 2.08508,1.62832 2.8007,6.41304c0.74802,5.00138 0.11088,13.23442 -0.71579,16.40345z" fill="#4a314d" stroke="none" stroke-width="0.5"/><path d="M343.35002,212.11063c-1.25,0 -1.25,-1.52934 -1.25,-1.52934l0.01256,-0.02841c-0.41127,-3.57809 -1.04117,-8.77963 -2.28492,-12.02238c-0.32653,-0.85136 -0.8769,-1.65725 -1.42791,-2.48454c-0.01955,4.47963 -1.09602,9.53701 -0.04784,13.87051l0.04809,1.15421c0,0 0,1.52934 -1.25,1.52934c-1.25,0 -1.25,-1.52934 -1.25,-1.52934l0.0481,-0.31394c-1.24268,-5.47469 0.41769,-11.11919 -0.04384,-16.68845c-0.49086,-5.92333 -1.119,-11.60923 -2.1745,-17.4123c0,0 -0.27116,-1.49292 0.94907,-1.82468c1.22024,-0.33176 1.4914,1.16116 1.4914,1.16116c0.73219,4.03698 1.4145,8.17323 1.82677,12.33174c0.15739,-0.27708 0.3,-0.56234 0.4072,-0.86599c1.04143,-2.94996 1.67246,-8.02112 0.42777,-10.93943c0,0 -0.55902,-1.36788 0.55902,-2.05181c1.11804,-0.68393 1.67705,0.68394 1.67705,0.68394c1.52474,3.84993 0.9853,9.63093 -0.37223,13.52991c-0.36114,1.03723 -1.26231,1.74538 -1.51403,2.82992c-0.3617,1.55841 2.44646,4.52108 2.89058,5.67326c1.3503,3.50312 2.0566,9.06348 2.51508,12.93634l0.01256,0.46097c0,0 0,1.52934 -1.25,1.52934z" fill="#4a314d" stroke="none" stroke-width="0.5"/><path d="M347.81166,211.88238c-1.24884,0.0539 -2.31483,-1.45357 -2.31483,-1.45357l0.93936,-1.4267c-0.26357,-6.10727 -1.91761,-12.86281 -2.79735,-18.80733c-0.46646,-3.15195 0.19712,-6.41476 -0.21757,-9.52291c-0.37532,-2.81308 -0.96653,-7.42349 -1.6649,-10.03432c-0.25371,-0.94847 -2.07121,-0.41608 -2.20158,-1.43503c0,0 1.4462,-1.60446 2.26266,-1.79448c0.70295,-0.1636 2.34674,0.72168 2.34674,0.72168c0.10046,0.89342 -0.75448,1.08081 -0.53933,1.92394c0.69162,2.71042 1.88021,7.15568 2.25651,10.07403c0.39816,3.08787 -0.28103,6.29983 0.19816,9.38752c0.94847,6.11157 2.60263,13.54659 2.87492,19.85622l0.71546,1.1163c0,0 -0.60942,1.34077 -1.85826,1.39467z" fill="#4a314d" stroke="none" stroke-width="0.5"/><path d="M323.62502,199.12501c0,-2.07107 1.67893,-3.75 3.75,-3.75c2.07107,0 3.75,1.67893 3.75,3.75c0,2.07107 -1.67893,3.75 -3.75,3.75c-2.07107,0 -3.75,-1.67893 -3.75,-3.75z" fill="#4a314d" stroke="none" stroke-width="0.5"/><path d="M312.12502,204.62501c0,-2.07107 1.67893,-3.75 3.75,-3.75c2.07107,0 3.75,1.67893 3.75,3.75c0,2.07107 -1.67893,3.75 -3.75,3.75c-2.07107,0 -3.75,-1.67893 -3.75,-3.75z" fill="#4a314d" stroke="none" stroke-width="0.5"/><g fill="#37253a" stroke="none" stroke-width="0.5"><path d="M294.15002,196.30001c1.25,0 1.25,1.25 1.25,1.25v1c-0.00312,0.54909 -0.00624,1.09818 -0.00937,1.64727c0.79147,3.14718 3.85802,4.94875 6.43799,2.108c1.54162,-1.69744 1.83634,-4.97955 2.00055,-7.49579c0.74448,0.30397 1.5069,0.57308 2.28523,0.80529c-0.24628,1.43905 -0.57376,2.82114 -0.72648,3.90859c-0.25252,1.798 -0.40535,3.00508 -1.71654,4.47136c-2.5057,2.80206 -7.32188,3.01377 -9.56751,-0.16055c-0.78776,-1.11355 -0.86771,-2.01882 -1.1945,-3.33145c-0.00312,-0.65091 -0.00624,-1.30182 -0.00937,-1.95273v-1c0,0 0,-1.25 1.25,-1.25z"/><path d="M308.58745,212.02678l0.01256,0.42323c0,0 0,1.25 -1.25,1.25c-1.25,0 -1.25,-1.25 -1.25,-1.25l0.01256,-0.77677c0.73806,-5.09589 1.59749,-10.30688 2.16479,-15.51765c0.80687,0.16365 1.62784,0.28844 2.46088,0.37233c-0.5778,5.2017 -1.43374,10.39988 -2.15079,15.49886z"/><path d="M318.78559,199.28549c-1.36117,-0.92431 -2.79145,1.28572 -3.43646,2.45991c-2.07982,3.78615 0.31466,14.02767 5.23512,8.15146c0.66594,-1.59473 1.46569,-5.50842 0.73071,-8.02424c-0.46881,-1.6047 -2.51108,-2.2848 -2.52936,-2.58713zM322.7158,211.20317c-1.10624,1.33159 -1.29534,1.81345 -2.89855,2.66074c-2.84663,1.50443 -4.37949,0.01966 -5.97625,-2.17608c-2.15353,-2.96137 -2.46532,-7.78725 -0.69008,-11.13319c1.57977,-2.97753 4.36283,-5.20172 7.47997,-2.98071c0,0 2.08508,0.97266 2.80069,3.83077c0.74802,2.98754 0.11089,7.90547 -0.71579,9.79847z"/><path d="M331.18424,208.21107c0.61523,-2.46642 1.34467,-9.7826 0.87265,-14.20347c0.72924,-0.03055 1.4504,-0.09234 2.16218,-0.18406c0.42807,5.00524 -0.16125,11.92987 -0.90328,14.77442l-0.00001,-0.00001c-1.10624,2.2292 -1.29534,3.03586 -2.89855,4.4543c-2.84663,2.51854 -4.37949,0.0329 -5.97625,-3.64294c-1.68281,-3.87394 -2.24102,-9.65384 -1.55759,-14.66819c0.91885,-0.38293 1.80996,-0.81911 2.66945,-1.3047c0.06436,0.01428 0.12882,0.02831 0.19336,0.0421c-1.70538,6.92154 0.69061,24.22386 5.43804,14.73255z"/><path d="M343.35002,212.11063c-1.25,0 -1.25,-1.52934 -1.25,-1.52934l0.01256,-0.02841c-0.41127,-3.57809 -1.04117,-8.77963 -2.28492,-12.02238c-0.32653,-0.85136 -0.8769,-1.65725 -1.42791,-2.48454c-0.01955,4.47963 -1.09602,9.53701 -0.04784,13.87051l0.04809,1.15421c0,0 0,1.52934 -1.25,1.52934c-1.25,0 -1.25,-1.52934 -1.25,-1.52934l0.0481,-0.31394c-1.24268,-5.47469 0.41769,-11.11919 -0.04384,-16.68845c-0.01417,-0.17097 -0.02845,-0.34174 -0.04285,-0.51232c1.18134,-0.23321 2.33279,-0.54963 3.44797,-0.94292c0.55846,1.58999 2.4095,3.65392 2.76298,4.57096c1.3503,3.50312 2.0566,9.06348 2.51508,12.93634l0.01256,0.46097c0,0 0,1.52934 -1.25,1.52934z"/><path d="M347.81166,211.88238c-1.24884,0.0539 -2.31483,-1.45357 -2.31483,-1.45357l0.93936,-1.4267c-0.25809,-5.98018 -1.84937,-12.58193 -2.74144,-18.43519c0.80231,-0.47422 1.57582,-0.99199 2.31727,-1.55006c0.01939,0.16645 0.04178,0.33258 0.06751,0.49835c0.94847,6.11157 2.60263,13.54659 2.87492,19.85622l0.71546,1.1163c0,0 -0.60942,1.34077 -1.85826,1.39467z"/></g><path d="M291.22011,306.5639c0,0 0.08574,-46.50403 0.14603,-79.20003c1.32817,1.61588 2.85507,3.06222 4.54333,4.30166c-0.0197,0.14782 0.87949,0.29164 2.44875,0.42816c10.01145,0.87097 47.2956,1.44481 47.24843,0.86191c1.6746,-0.72447 3.25431,-1.62681 4.71529,-2.68321c-0.28042,32.82228 -0.65386,76.53278 -0.65386,76.53278z" fill-opacity="0.10588" fill="#000000" stroke="none" stroke-width="0"/></g><path d="M275.83544,102.59646c0,0 6.07082,-6.01663 6.18571,-6.88426c0.30133,-2.27557 -0.79005,-40.16575 35.31943,-42.12599c44.61682,-1.60495 39.55778,34.74011 42.17945,41.5419c3.59471,9.32627 6.42544,17.3027 6.42544,17.3027c0,0 -2.79863,-2.0104 -4.12776,-3.0704c-1.23966,-0.98865 -3.84971,-3.08659 -3.84971,-3.08659c0,0 3.25104,10.29898 1.63134,20.67219c-1.41525,9.50404 -7.03011,17.33641 -7.03011,17.33641l-1.19144,-2.32917c0,0 -0.98849,2.21352 -2.10816,3.3658c-1.11968,1.15227 -3.3932,2.96565 -3.3932,2.96565l-0.14942,-3.70234c0,0 -20.9154,9.40063 -29.75928,9.57209c-7.83898,0.15198 -20.6538,-8.5947 -20.6538,-8.5947l-0.07506,2.65632c0,0 -3.94531,-3.23203 -6.33108,-9.61062c-2.84356,-7.60253 -3.42873,-12.19159 -3.42873,-12.19159c0,0 -2.30938,1.93517 -5.67338,2.86263c-4.21528,1.16217 -6.94047,0.45283 -6.94047,0.45283c0,0 3.56543,-2.77273 5.5094,-4.85582c1.73154,-1.85545 2.59395,-3.41781 2.59395,-3.41781c0,0 -2.09052,1.11722 -4.2072,1.68332c-2.2085,0.59068 -4.02137,0.59329 -4.02137,0.59329c0,0 4.89629,-5.11374 6.86145,-10.9819c1.85542,-5.54049 1.92973,-10.98852 1.92973,-10.98852c0,0 -1.35124,0.68264 -3.31741,0.84662c-1.2463,0.10395 -2.37832,-0.01206 -2.37832,-0.01206z" fill="#000000" stroke="none" stroke-width="1.5" stroke-linecap="butt"/><path d="M297.29716,113.10665c-0.00486,-4.89239 4.69933,-9.00997 10.07293,-9.01532c5.37358,-0.00534 9.09197,4.10805 9.09683,9.00045c0.00486,4.89239 -3.99856,8.09792 -9.37215,8.10327c-5.37358,0.00534 -9.79275,-3.19601 -9.79761,-8.08841z" fill="#6b6570" stroke="#6b6570" stroke-width="1.4" stroke-linecap="butt"/><path d="M302.3924,113.15518c-0.00238,-2.39624 1.93822,-4.34069 4.33444,-4.34307c2.39624,-0.00238 4.34069,1.93822 4.34307,4.33444c0.00238,2.39624 -1.93821,4.34069 -4.33444,4.34307c-2.39624,0.00238 -4.34069,-1.93822 -4.34307,-4.33444z" fill="#ace894" stroke-opacity="0.50196" stroke="#ace895" stroke-width="4.5" stroke-linecap="butt"/><path d="M324.35021,112.68826c0.12778,-4.89074 4.31488,-8.92638 9.63208,-9.00876c5.31719,-0.08238 9.33485,3.82193 9.41064,8.71374c0.07579,4.89181 -3.77424,7.23412 -9.58624,7.39501c-5.52826,0.15304 -9.58993,-1.99236 -9.45649,-7.1z" fill="#6b6570" stroke="#6b6570" stroke-width="1.4" stroke-linecap="butt"/><path d="M329.93808,112.68725c-0.03524,-2.27447 1.78001,-4.14685 4.05449,-4.18209c2.27447,-0.03524 4.14685,1.78001 4.18209,4.05449c0.03524,2.27447 -1.78,4.14685 -4.05449,4.18209c-2.27447,0.03524 -4.14685,-1.78001 -4.18209,-4.05449z" fill="#ace894" stroke-opacity="0.50196" stroke="#ace895" stroke-width="4.5" stroke-linecap="butt"/><path d="M294.14233,112.62328c0,0 2.5106,-9.0551 13.04982,-9.02813c9.47244,0.01913 11.05806,9.23704 11.05806,9.23704c0,0 -1.16579,-6.38897 -11.57268,-6.59029c-10.56265,-0.20433 -12.53521,6.38138 -12.53521,6.38138z" fill="#000000" stroke="#000000" stroke-width="1.15" stroke-linecap="butt"/><path d="M322.36269,112.31699c0,0 1.21035,-9.47809 12.65947,-9.30042c9.71827,0.18295 10.0701,9.49744 10.0701,9.49744c0,0 -0.129,1.74173 -10.04326,1.6456c-11.22784,-0.10886 -12.68631,-1.84262 -12.68631,-1.84262z" fill="#000000" stroke="#000000" stroke-width="1.15" stroke-linecap="butt"/><g><path d="M355.99165,128.90061c0.50303,-0.14171 2.80702,-0.57667 2.92403,-1.02271c1.18976,-4.5359 1.39134,-7.04709 0.63811,-11.86858c-0.1383,-0.88537 -1.7246,-9.90008 -1.7246,-9.90008l3.26852,2.60572c0,0 1.45798,7.97146 1.68594,11.08626c0.23422,3.20038 -0.271,9.66604 -0.271,9.66604c0,0 2.54907,4.46359 2.13051,4.90901c-0.46033,0.48984 -4.77908,-2.09051 -4.77908,-2.09051c0,0 -11.89049,3.40985 -13.86381,2.75394c-2.90456,-0.96545 -1.35177,-4.23794 -0.99139,-4.94773c-0.04737,-0.94261 0.52457,-1.84302 1.46057,-2.1708c0.7052,-0.24696 1.45169,-0.11096 2.01261,0.2988c2.45338,0.56515 4.24522,1.6002 7.5096,0.68061z" data-paper-data="{&quot;index&quot;:null}" fill="#4a314d" stroke="none" stroke-width="0.5" stroke-linecap="butt"/><path d="M287.68322,90.52487c3.07643,1.42741 5.01016,0.69072 7.52222,0.52323c0.61899,-0.31527 1.3776,-0.33072 2.03451,0.02533c0.8719,0.47257 1.29326,1.45252 1.09647,2.37558c0.24282,0.7581 1.255,4.23601 -1.7662,4.72689c-2.05257,0.3335 -13.24882,-4.9253 -13.24882,-4.9253c0,0 -4.67437,1.86012 -5.05087,1.30326c-0.34233,-0.50635 2.88463,-4.50736 2.88463,-4.50736c0,0 0.53024,-6.46366 1.27083,-9.58597c0.72078,-3.03882 3.11488,-8.90423 3.11488,-8.90423l2.57474,-0.61638c0,0 -1.62,5.43901 -1.89745,6.29108c-1.51097,4.64015 -1.71163,7.15142 -1.25893,11.81886c0.04453,0.45898 2.24992,1.25508 2.72399,1.47504z" data-paper-data="{&quot;index&quot;:null}" fill="#4a314d" stroke="none" stroke-width="0.5" stroke-linecap="butt"/><path d="M343.79713,62.83239c0.02443,-0.52203 0.33946,-2.84546 -0.04679,-3.09736c-3.92789,-2.56154 -6.24687,-3.54598 -11.05944,-4.3542c-0.88374,-0.14842 -6.4549,-1.22974 -6.4549,-1.22974l1.73806,-1.99708c0,0 6.30742,0.59248 9.33478,1.36001c3.11053,0.78862 9.08562,3.3102 9.08562,3.3102c0,0 5.04023,-1.00873 5.33063,-0.47091c0.31938,0.59148 -3.49298,3.87412 -3.49298,3.87412c0,0 -0.52038,12.3588 -1.766,14.02394c-1.83344,2.45094 -4.44795,-0.056 -5.00758,-0.62212c-0.90932,-0.25278 -1.58298,-1.07985 -1.59834,-2.07146c-0.01157,-0.7471 0.35323,-1.41241 0.91919,-1.8152c1.31114,-2.14928 2.85917,-3.52245 3.01773,-6.9102z" fill="#4a314d" stroke="none" stroke-width="0.5" stroke-linecap="butt"/><path d="M295.28572,141.94616l20.86272,7.88852l20.27984,-11.61635l15.04649,-17.14184c0,0 0.42505,26.32555 -7.10178,31.32144c-8.38877,5.568 -19.83932,11.50746 -30.75638,11.73015c-8.22786,0.16783 -14.67173,-2.94179 -19.4506,-6.75145c-7.25121,-5.78059 -7.52363,-18.67626 -5.9799,-21.37724c1.50605,-2.63507 4.46301,-7.80876 4.46301,-7.80876z" data-paper-data="{&quot;index&quot;:null}" fill="#6b6570" stroke="#000000" stroke-width="0" stroke-linecap="round"/><path d="M295.28572,141.94616l20.86272,7.88852l20.27984,-11.61635l15.04649,-17.14184c0,0 0.10264,6.35696 -0.6861,13.41607c-1.1076,0.05154 -23.78848,26.39605 -23.74923,26.90779c-4.35995,1.5741 -8.87408,2.61778 -13.30266,2.72505c-2.71415,-11.07067 -25.50894,-18.99758 -25.92517,-18.97049c-0.69605,-4.13379 -0.37459,-7.84488 0.37449,-9.15552c1.50605,-2.63507 4.46301,-7.80876 4.46301,-7.80876z" data-paper-data="{&quot;index&quot;:null}" fill-opacity="0.10588" fill="#000000" stroke="#000000" stroke-width="0" stroke-linecap="round"/><path d="M346.98357,88.05782l-20.86271,-7.88852l-20.27984,11.61636l-15.04647,17.14185c0,0 -2.18207,-8.60137 -3.15434,-12.43389c-0.83609,-3.29574 0.39088,-11.7219 4.81296,-15.04044c8.3256,-6.24792 22.67214,-15.30132 36.19955,-15.57725c13.50435,-0.27546 22.20292,8.27804 26.62173,14.26474c2.35857,3.19545 0.64995,10.64254 -0.83224,13.23586c-1.56411,2.73666 -4.82198,8.43685 -4.82198,8.43685z" data-paper-data="{&quot;index&quot;:null}" fill="#6b6570" stroke="#000000" stroke-width="0" stroke-linecap="round"/><path d="M346.98357,88.05782l-20.86271,-7.88852l-20.27984,11.61636l-15.04647,17.14185c0,0 -1.9228,-7.57934 -2.96271,-11.67856c11.28745,-2.55729 19.63369,-12.736 19.44727,-24.76871c-0.00202,-0.13037 -0.00504,-0.2605 -0.00904,-0.39038c6.66249,-3.4023 14.13998,-6.06619 21.38266,-6.21394c2.92919,-0.05975 5.63227,0.29589 8.11462,0.95062c1.59084,10.28332 9.43326,18.45983 19.47247,20.59847c-0.34943,2.42661 -1.09869,4.72867 -1.79759,5.95151c-1.56411,2.73666 -4.82198,8.43685 -4.82198,8.43685z" data-paper-data="{&quot;index&quot;:null}" fill-opacity="0.10588" fill="#000000" stroke="#000000" stroke-width="0" stroke-linecap="round"/><path d="M290.79456,108.92751c0,0 -2.18207,-8.60137 -3.15434,-12.43389c-0.83609,-3.29574 0.39088,-11.7219 4.81296,-15.04044c0.33329,-0.25011 0.67622,-0.50473 1.02836,-0.76308c0.53547,6.39109 3.46805,12.08377 7.88501,16.19316z" data-paper-data="{&quot;index&quot;:null}" fill="#37253a" stroke="#000000" stroke-width="0" stroke-linecap="butt"/><path d="M346.98357,88.05782l-4.30165,-1.62652c3.4145,-3.36718 5.86207,-7.70672 6.8983,-12.56023c2.36372,2.09979 4.25576,4.32069 5.69424,6.26959c2.35857,3.19545 0.64995,10.64254 -0.83224,13.23586c-1.56411,2.73666 -4.82198,8.43685 -4.82198,8.43685z" data-paper-data="{&quot;index&quot;:null}" fill="#37253a" stroke="#000000" stroke-width="0" stroke-linecap="butt"/><path d="M346.98357,88.05782l-20.86271,-7.88852l-20.27984,11.61636l-15.04647,17.14185l-1.90619,-7.51391c0.70377,0.21369 1.44494,0.32246 2.20915,0.31062c4.43835,-0.06876 6.55978,-9.30827 6.55705,-9.38213c0.26572,0.02568 8.60335,-2.63136 9.63982,-6.19016c0.60979,0.15588 9.72844,-3.79167 9.79395,-8.65609c0.9827,0.45902 7.9832,-0.71919 9.42349,-2.8211c1.20378,3.39661 9.39229,5.52562 10.20479,5.19728c1.44846,2.60027 9.49852,3.87279 10.58427,3.22514c0.61878,1.2844 1.50386,2.3813 2.57006,3.19771c-0.65045,1.33319 0.24432,9.83056 2.06688,11.46356l-2.31757,4.05498z" data-paper-data="{&quot;index&quot;:null}" fill="#4a314d" stroke="#000000" stroke-width="0" stroke-linecap="butt"/><path d="M351.47477,121.07651c0,0 0.42505,26.32555 -7.10178,31.32144c-0.25522,0.16939 -0.51327,0.33914 -0.77405,0.50905c0.17312,-1.25316 0.25312,-2.53544 0.23292,-3.83949c-0.0812,-5.24116 -1.76959,-10.08059 -4.58856,-14.05621z" data-paper-data="{&quot;index&quot;:null}" fill="#37253a" stroke="#000000" stroke-width="0" stroke-linecap="butt"/><path d="M294.16601,157.37665c-7.25121,-5.78059 -7.52363,-18.67626 -5.9799,-21.37724c1.50605,-2.63507 4.46301,-7.80876 4.46301,-7.80876l2.52464,13.17138c-0.9086,2.65612 -1.38188,5.51166 -1.33589,8.48001c0.04652,3.00248 0.62046,5.87311 1.63225,8.52504c-0.44773,-0.32351 -0.8824,-0.65424 -1.30411,-0.99043z" data-paper-data="{&quot;index&quot;:null}" fill="#37253a" stroke="#000000" stroke-width="0" stroke-linecap="butt"/><path d="M295.28572,141.94616l20.86272,7.88852l20.27984,-11.61635l15.04649,-17.14184l0.02152,1.77812c-0.9039,1.33869 -1.24407,2.21634 -1.3676,3.98975c-1.46124,1.66649 -2.34808,3.97029 -2.30885,6.50253c0.00504,0.32553 0.02527,0.64684 0.05991,0.96303c-1.62922,1.13188 -2.86785,2.90233 -3.44647,4.99818c-0.46328,-0.08583 -0.93951,-0.12699 -1.42507,-0.11947c-3.77197,0.05844 -6.89161,3.03589 -7.6958,6.99865c-0.67747,-0.19642 -1.38873,-0.29585 -2.12117,-0.28451c-3.16825,0.04908 -5.87627,2.15756 -7.13853,5.17954c-1.08332,-0.58322 -2.29861,-0.90167 -3.57856,-0.88184c-2.9221,0.04527 -5.45272,1.84238 -6.81861,4.49228c-1.38585,-2.8744 -4.10557,-4.80912 -7.20433,-4.76111c-1.70416,0.0264 -3.27516,0.64862 -4.55963,1.68835c-1.0436,-3.7298 -4.1629,-6.414 -7.80609,-6.35756c-1.15458,0.01789 -2.24805,0.30928 -3.23269,0.81869c0.03923,-0.38968 0.05644,-0.78681 0.0502,-1.18971c-0.04304,-2.77794 -1.19151,-5.24655 -2.96464,-6.88069c1.72166,-1.68828 2.79311,-4.19129 2.75007,-6.96923c-0.01272,-0.82084 -0.12195,-1.61468 -0.3153,-2.36796l0.27601,-0.48291z" data-paper-data="{&quot;index&quot;:null}" fill="#4a314d" stroke="#000000" stroke-width="0" stroke-linecap="butt"/></g><g fill="none" stroke-linecap="round"><g stroke-opacity="0.50196" stroke="#ace895" stroke-width="2.5"><path d="M316.21323,149.78928c0,0 3.19308,-22.92023 4.80204,-34.46949c1.62569,-11.66935 4.90243,-35.19009 4.90243,-35.19009"/><path d="M346.74163,87.8274c0,0 -3.16101,17.08495 -4.7079,25.44575c-1.50334,8.1254 -4.44654,24.03305 -4.44654,24.03305"/><path d="M295.59744,141.60233c0,0 0.42811,-15.98204 2.35417,-25.97793c1.92606,-9.9959 7.22774,-23.75054 7.22774,-23.75054"/></g><g stroke="#ace894" stroke-width="1.5"><path d="M316.21323,149.78928c0,0 3.19308,-22.92023 4.80204,-34.46949c1.62569,-11.66935 4.90243,-35.19009 4.90243,-35.19009"/><path d="M346.74163,87.8274c0,0 -3.16101,17.08495 -4.7079,25.44575c-1.50334,8.1254 -4.44654,24.03305 -4.44654,24.03305"/><path d="M295.59744,141.60233c0,0 0.42811,-15.98204 2.35417,-25.97793c1.92606,-9.9959 7.22774,-23.75054 7.22774,-23.75054"/></g></g></g></g></svg>