<svg version="1.1" xmlns="http://www.w3.org/2000/svg" xmlns:xlink="http://www.w3.org/1999/xlink" width="35.125" height="35.12434" viewBox="0,0,35.125,35.12434"><g transform="translate(-302.43752,-162.43783)"><g data-paper-data="{&quot;isPaintingLayer&quot;:true}" stroke-miterlimit="10" stroke-dasharray="" stroke-dashoffset="0" style="mix-blend-mode: normal"><path d="M337.56251,169.8317v20.49804c0,4.00745 -3.22497,7.23243 -7.23242,7.23243h-20.5c-3.66107,0 -6.66147,-2.69385 -7.1543,-6.21484c0.7952,3.03475 3.54108,5.26367 6.83204,5.26367h20.0332c3.9166,0 7.07032,-3.15372 7.07032,-7.07031v-20.03321c0,-3.2976 -2.23906,-6.0451 -5.28321,-6.83398c3.52994,0.48496 6.23438,3.49081 6.23438,7.15821z" fill-opacity="0.29839" fill="#000000" fill-rule="evenodd" stroke="none" stroke-width="4.54219" stroke-linecap="round" stroke-linejoin="round"/><path d="M309.50719,162.43783h20.03378c3.9166,0 7.06966,3.15307 7.06966,7.06966v20.03379c0,3.91659 -3.15307,7.06966 -7.06966,7.06966h-20.03378c-3.91659,0 -7.06967,-3.15307 -7.06967,-7.06966v-20.03379c0,-3.91659 3.15308,-7.06966 7.06967,-7.06966z" fill-opacity="0.35294" fill="#ff672b" fill-rule="evenodd" stroke="none" stroke-width="4.43922" stroke-linecap="round" stroke-linejoin="round"/><g fill-rule="nonzero" stroke-linecap="butt" stroke-linejoin="miter"><g><path d="M326.17377,174.23451c-0.4507,2.48637 -5.5665,5.68227 -5.5665,5.68227c0,0 -3.66852,-4.78823 -3.21782,-7.2746c0.4507,-2.48637 2.7825,-4.14551 5.20823,-3.7058c2.42573,0.43971 4.02679,2.81177 3.57609,5.29813z" fill="none" stroke="#000000" stroke-width="1.5"/><path d="M327.60923,181.51005l-14.11766,-2.55909z" fill="#eb5e28" stroke="#000000" stroke-width="1.5"/><path d="M320.67125,192.07965l-4.3931,-0.79633c0,0 3.16602,-12.21851 4.31191,-12.0108c1.14587,0.20771 0.0812,12.80714 0.0812,12.80714z" fill="#000000" stroke="#eb5e28" stroke-width="0"/></g><g><path d="M325.07297,173.2891c-0.4507,2.48637 -5.5665,5.68227 -5.5665,5.68227c0,0 -3.66851,-4.78824 -3.21781,-7.2746c0.4507,-2.48637 2.7825,-4.1455 5.20822,-3.70579c2.42573,0.43971 4.02679,2.81176 3.57609,5.29812z" fill="none" stroke="#ff672b" stroke-width="1.5"/><path d="M326.50843,180.56464l-14.11766,-2.55909z" fill="#eb5e28" stroke="#ff672b" stroke-width="1.5"/><path d="M319.57044,191.13425l-4.3931,-0.79633c0,0 3.16602,-12.21851 4.31191,-12.0108c1.14587,0.20771 0.0812,12.80714 0.0812,12.80714z" fill="#ff672b" stroke="#eb5e28" stroke-width="0"/></g></g></g></g></svg>