<svg version="1.1" xmlns="http://www.w3.org/2000/svg" xmlns:xlink="http://www.w3.org/1999/xlink" width="35.125" height="35.12434" viewBox="0,0,35.125,35.12434"><g transform="translate(-302.43752,-162.43783)"><g data-paper-data="{&quot;isPaintingLayer&quot;:true}" stroke-miterlimit="10" stroke-dasharray="" stroke-dashoffset="0" style="mix-blend-mode: normal"><path d="M309.50719,162.43783h20.03378c3.9166,0 7.06966,3.15307 7.06966,7.06966v20.03379c0,3.91659 -3.15307,7.06966 -7.06966,7.06966h-20.03378c-3.91659,0 -7.06967,-3.15307 -7.06967,-7.06966v-20.03379c0,-3.91659 3.15308,-7.06966 7.06967,-7.06966z" fill-opacity="0.3451" fill="#bdffa3" fill-rule="evenodd" stroke="none" stroke-width="4.43922" stroke-linecap="round" stroke-linejoin="round"/><path d="M337.56251,169.8317v20.49804c0,4.00745 -3.22497,7.23243 -7.23242,7.23243h-20.5c-3.66107,0 -6.66147,-2.69385 -7.1543,-6.21484c0.7952,3.03475 3.54108,5.26367 6.83204,5.26367h20.0332c3.9166,0 7.07032,-3.15372 7.07032,-7.07031v-20.03321c0,-3.2976 -2.23906,-6.0451 -5.28321,-6.83398c3.52994,0.48496 6.23438,3.49081 6.23438,7.15821z" fill-opacity="0.29839" fill="#000000" fill-rule="evenodd" stroke="none" stroke-width="4.54219" stroke-linecap="round" stroke-linejoin="round"/><g fill-rule="nonzero" stroke-linejoin="miter"><g><path d="M327.30329,167.29008c2.23973,0.97688 3.98255,3.25597 4.8278,5.69529c0.56249,1.76422 -0.51415,3.85167 -1.00011,5.73431c-0.50813,1.96763 -1.51485,3.78871 -1.94932,5.70899c-0.32312,1.36581 -0.28944,2.71159 -0.30184,4.05644c-0.01346,1.42678 1.147,3.22758 0.15275,4.24528c-1.28507,1.3844 -3.40331,1.15021 -5.09146,0.95985c-2.63916,-0.29803 -5.08478,-1.4382 -7.53539,-2.39219c-1.65996,-0.74958 -3.26273,-1.63209 -4.73869,-2.70643c-1.3721,-0.9965 -2.85685,-1.94879 -3.80042,-3.4236c-0.33533,-0.53387 -0.09455,-1.58089 0.37458,-2.1813c0.80294,-0.95006 2.15358,-1.12327 3.08761,-2.0383c1.01751,-0.99667 1.82345,-2.24558 2.61485,-3.46459c0.90708,-1.38842 1.6994,-2.98121 2.60029,-4.45461c1.08234,-1.7675 1.61119,-4.33021 3.35673,-5.24733c2.29359,-1.23828 5.19237,-1.45544 7.40265,-0.49178z" fill="#bdffa3" stroke="none" stroke-width="0.60142" stroke-linecap="round"/><path d="M328.46786,187.94641c0,0 -1.8384,1.5139 -9.14356,-1.70832c-7.50723,-3.31135 -7.57064,-5.46986 -7.57064,-5.46986" fill="none" stroke="#000000" stroke-width="1" stroke-linecap="round"/><path d="M330.99123,174.41445c0,0 -1.25302,1.03185 -6.23211,-1.16437c-5.11682,-2.25697 -5.16003,-3.72817 -5.16003,-3.72817" fill="none" stroke="#000000" stroke-width="1" stroke-linecap="round"/><path d="M323.52955,167.48835c0.39788,-0.95082 2.36933,-1.76726 4.08019,-1.05133c1.71086,0.71593 2.51327,2.69313 2.11539,3.64394c-0.39788,0.95082 -1.84538,0.51518 -3.55624,-0.20075c-1.71086,-0.71593 -3.03722,-1.44106 -2.63934,-2.39187z" fill="#000000" stroke="none" stroke-width="0.5" stroke-linecap="butt"/></g><path d="M327.30329,167.29008c2.23973,0.97688 3.98255,3.25597 4.8278,5.69529c0.56249,1.76422 -0.51415,3.85167 -1.00011,5.73431c-0.50813,1.96763 -1.51485,3.78871 -1.94932,5.70899c-0.32312,1.36581 -0.28944,2.71159 -0.30184,4.05644c-0.01346,1.42678 1.147,3.22758 0.15275,4.24528c-1.28507,1.3844 -3.40331,1.15021 -5.09146,0.95985c-2.63916,-0.29803 -5.08478,-1.4382 -7.53539,-2.39219c-1.65996,-0.74958 -3.26273,-1.63209 -4.73869,-2.70643c-1.3721,-0.9965 -2.85685,-1.94879 -3.80042,-3.4236c-0.13921,-0.22165 -0.17913,-0.53174 -0.14464,-0.86161c2.17258,2.04702 5.06906,3.3443 8.2866,3.45918c7.03853,0.25129 12.9481,-5.25086 13.19939,-12.28939c0.11502,-3.2216 -0.9753,-6.20668 -2.86658,-8.52095c0.3317,0.08892 0.65352,0.20039 0.96193,0.33485z" fill="#000000" stroke="#000000" stroke-width="0.5" stroke-linecap="round"/></g></g></g></svg>