<svg version="1.1" xmlns="http://www.w3.org/2000/svg" xmlns:xlink="http://www.w3.org/1999/xlink" width="129.54113" height="254.01177" viewBox="0,0,129.54113,254.01177"><g transform="translate(-255.22942,-49.97236)"><g data-paper-data="{&quot;isPaintingLayer&quot;:true}" fill-rule="nonzero" stroke-linejoin="miter" stroke-miterlimit="10" stroke-dasharray="" stroke-dashoffset="0" style="mix-blend-mode: normal"><g><g data-paper-data="{&quot;index&quot;:null}" stroke="none" stroke-width="0" stroke-linecap="butt"><path d="M335.53524,282.49778c-8.40616,-2.36458 -2.44548,-25.04487 -0.7415,-62.99088c0.78621,-17.50815 4.7415,-51.34245 4.7415,-51.34245c0,0 3.34858,1.48489 15.09082,-0.10441c17.02881,-2.30483 11.32425,-6.34906 27.90918,-5.89559c5.24984,0.14354 -0.21787,29.8366 -1.54299,54.72544c-3.72721,70.00569 -10.94447,71.27286 -14.45701,71.69123c-2.72812,0.32493 -7.80603,-4.96362 -7.80603,-4.96362c0,0 -3.7762,2.94763 -9.22595,2.67167c-2.35712,-0.11935 -5.48239,-4.86921 -5.48239,-4.86921c0,0 -4.20321,2.28243 -8.48563,1.07782z" fill="#5c162e"/><path d="M335.39166,282.64135c-11.27807,-2.50818 -0.57814,-64.05273 -0.46436,-65.81674c14.4141,3.52418 18.01652,-1.91078 18.01652,-1.91078c0,0 -3.08297,7.22987 4.62328,9.60377c8.92392,2.749 11.80603,-3.95539 11.80603,-3.95539c0,0 -0.28257,3.63249 4.56806,6.71111c4.77267,3.02913 6.25024,1.83006 6.32166,1.82545c-3.87581,57.95019 -10.43216,59.08982 -13.7276,59.48233c-2.72812,0.32493 -7.80603,-4.96362 -7.80603,-4.96362c0,0 -3.7762,2.94763 -9.22595,2.67167c-2.35712,-0.11935 -5.48239,-4.86921 -5.48239,-4.86921c0,0 -4.34681,2.42603 -8.62923,1.22142z" fill="#3c162f"/><path d="M335.39166,282.84138c-6.36591,-1.41575 -5.72954,-21.64071 -3.9471,-39.30734c0.67811,-0.28281 0.22745,4.29937 8.02751,2.44314c3.92792,-0.93475 5.64956,-6.23094 5.64956,-6.23094c0,0 -0.66496,12.77834 9.2748,15.78453c8.03056,2.42878 10.4856,-2.43796 10.4856,-2.43796c0,0 -2.072,3.3743 3.13981,8.92452c4.88004,5.1969 8.70778,2.41232 8.70778,2.41232c0,0 -1.37173,23.86291 -9.99437,24.35146c-2.72812,0.32493 -8.00603,-4.96362 -8.00603,-4.96362c0,0 -3.7762,2.94763 -9.22595,2.67167c-2.35712,-0.11935 -5.48239,-4.86921 -5.48239,-4.86921c0,0 -4.34681,2.42603 -8.62923,1.22142z" fill="#191528"/></g><g data-paper-data="{&quot;index&quot;:null}" stroke="none" stroke-width="0" stroke-linecap="butt"><path d="M295.97911,281.41992c0,0 -3.12528,4.74986 -5.48239,4.86921c-5.44975,0.27596 -9.22595,-2.67167 -9.22595,-2.67167c0,0 -5.07792,5.28855 -7.80603,4.96362c-3.51254,-0.41836 -10.7298,-1.68554 -14.45701,-71.69123c-1.32512,-24.88884 -6.79283,-54.58189 -1.54299,-54.72544c16.58493,-0.45347 10.88037,3.59076 27.90918,5.89559c11.74224,1.5893 15.09082,0.10441 15.09082,0.10441c0,0 3.95529,33.83431 4.7415,51.34246c1.70398,37.94601 7.66466,60.6263 -0.7415,62.99088c-4.28241,1.20461 -8.48563,-1.07782 -8.48563,-1.07782z" fill="#5c162e"/><path d="M295.97911,281.41992c0,0 -3.12528,4.74986 -5.48239,4.86921c-5.44975,0.27596 -9.22595,-2.67167 -9.22595,-2.67167c0,0 -5.07792,5.28855 -7.80603,4.96362c-3.29544,-0.39251 -9.85179,-1.53214 -13.7276,-59.48233c0.07143,0.00462 1.549,1.20369 6.32166,-1.82545c4.85064,-3.07862 4.56807,-6.71111 4.56807,-6.71111c0,0 2.88211,6.70439 11.80603,3.95539c7.70624,-2.3739 4.62328,-9.60377 4.62328,-9.60377c0,0 3.60242,5.43496 18.01652,1.91078c0.11378,1.76402 10.8137,63.30856 -0.46437,65.81674c-4.28241,1.20461 -8.62922,-1.22142 -8.62922,-1.22142z" fill="#3c162f"/><path d="M295.97911,281.61994c0,0 -3.12528,4.74986 -5.48239,4.86921c-5.44975,0.27596 -9.22595,-2.67167 -9.22595,-2.67167c0,0 -5.27792,5.28855 -8.00603,4.96362c-8.62264,-0.48855 -9.99437,-24.35146 -9.99437,-24.35146c0,0 3.82775,2.78458 8.70778,-2.41232c5.21182,-5.55022 3.13981,-8.92452 3.13981,-8.92452c0,0 2.45504,4.86674 10.4856,2.43796c9.93975,-3.00619 9.27479,-15.78453 9.27479,-15.78453c0,0 1.72164,5.29619 5.64956,6.23094c7.80006,1.85623 7.3494,-2.72596 8.02751,-2.44314c1.78244,17.66663 2.41881,37.89159 -3.9471,39.30734c-4.28241,1.20461 -8.62922,-1.22142 -8.62922,-1.22142z" fill="#191528"/></g><g stroke-linecap="butt"><path d="M280.62766,302.87586c0,0 -0.63536,-94.38387 -0.79335,-118.01201c-0.05451,-8.15261 8.18688,-36.76129 40.20201,-36.9211c31.60235,-0.15775 39.85672,29.48704 39.84884,36.89673c-0.07659,46.24274 0.65429,117.98648 0.65429,117.98648l-10.49667,0.09614l-5.71497,-0.01169l-48.21366,0.07222l-5.65357,-0.19173z" fill="#191528" stroke="#000000" stroke-width="0"/><path d="M319.72666,259.60537c-0.81895,0 -1.48284,-0.66389 -1.48284,-1.48284c0,-0.81895 0.66389,-1.48284 1.48284,-1.48284c0.81895,0 1.48284,0.66389 1.48284,1.48284c0,0.81895 -0.66389,1.48284 -1.48284,1.48284z" data-paper-data="{&quot;index&quot;:null}" fill="#000000" stroke="none" stroke-width="1.5"/></g><g fill="#000000" stroke-linecap="butt"><path d="M280.62766,302.87586c0,0 -0.63536,-94.38387 -0.79335,-118.01201c-0.05451,-8.15261 8.18688,-36.76129 40.20201,-36.9211c31.60235,-0.15775 39.85672,29.48704 39.84884,36.89673c-0.07659,46.24274 0.65429,117.98648 0.65429,117.98648l-10.49667,0.09614l-0.15882,-114.84311c0,0 0.07549,-3.0993 -2.81625,-3.15415c-3.43441,-0.06514 -2.94538,3.11562 -2.94538,3.11562l0.20548,114.86995l-48.21366,0.07222l-0.30539,-115.23309c0,0 0.27949,-2.919 -2.8856,-2.93443c-3.11083,-0.01515 -2.81569,2.90899 -2.81569,2.90899l0.35311,115.0668z" stroke="#000000" stroke-width="2"/><path d="M319.72666,259.60537c-0.81895,0 -1.48284,-0.66389 -1.48284,-1.48284c0,-0.81895 0.66389,-1.48284 1.48284,-1.48284c0.81895,0 1.48284,0.66389 1.48284,1.48284c0,0.81895 -0.66389,1.48284 -1.48284,1.48284z" data-paper-data="{&quot;index&quot;:null}" stroke="none" stroke-width="1.5"/></g><path d="M310.14064,186.48829c2.15639,0.9277 1.53092,4.07795 1.11485,6.95882c-0.39415,2.72911 -19.33804,7.35656 -24.58802,5.52907c-1.23005,-0.60383 -7.78185,-3.37914 -8.7474,-5.3606c-0.69086,-1.41774 -0.11323,-3.21945 -0.08731,-4.82927c0.05727,-3.55756 0.75696,-6.68004 1.55501,-10.07981c2.89653,-12.33947 9.68122,-23.4675 20.32385,-28.32118c2.7465,0.10204 -3.13371,30.26817 10.42902,36.10297z" fill="#5c162e" stroke="none" stroke-width="0.5" stroke-linecap="butt"/><path d="M340.28839,150.3853c10.64263,4.85369 17.42732,15.98171 20.32385,28.32118c0.79805,3.39977 1.49775,6.52225 1.55501,10.07982c0.02591,1.60982 0.60354,3.41152 -0.08731,4.82927c-0.96555,1.98145 -7.51736,4.75676 -8.7474,5.36059c-5.24998,1.8275 -24.19387,-2.79994 -24.58802,-5.52905c-0.41607,-2.88087 -1.65671,-7.06517 1.11485,-6.95882c17.05151,0.65432 7.68253,-36.00094 10.42902,-36.10299z" data-paper-data="{&quot;index&quot;:null}" fill="#5c162e" stroke="none" stroke-width="0.5" stroke-linecap="butt"/><path d="M277.92006,193.61557c-0.69085,-1.41774 -0.11323,-3.21945 -0.08731,-4.82927c0.05726,-3.55756 0.75696,-6.68004 1.55501,-10.07982c2.89653,-12.33947 9.68122,-23.4675 20.32385,-28.32118c2.74649,0.10204 5.6959,0.43894 7.1601,2.24595c0.10306,0.1272 0.21747,0.27373 0.34183,0.43715c-0.64419,-0.15181 -1.31084,-0.2315 -1.99346,-0.2315c-4.15115,0 -7.71153,2.94678 -9.22403,7.14276c-2.54573,1.54947 -4.44758,4.33844 -5.1155,7.67948c-3.67033,1.72524 -6.26047,5.9144 -6.26047,10.80833c0,0.75207 0.06117,1.48749 0.17802,2.19988c-1.95547,2.12649 -3.17802,5.15609 -3.17802,8.51836c0,3.78907 1.55264,7.15567 3.95714,9.28335c-2.28065,-1.05269 -6.86221,-3.22216 -7.65717,-4.85351z" fill="#3c162f" stroke="none" stroke-width="0.5" stroke-linecap="butt"/><path d="M354.41829,198.46908c2.4045,-2.12768 3.95714,-5.49427 3.95714,-9.28335c0,-3.36227 -1.22255,-6.39187 -3.17802,-8.51836c0.11685,-0.7124 0.17802,-1.44782 0.17802,-2.19988c0,-4.89394 -2.59014,-9.0831 -6.26047,-10.80834c-0.66792,-3.34104 -2.56977,-6.13001 -5.1155,-7.67948c-1.5125,-4.19598 -5.07288,-7.14276 -9.22403,-7.14276c-0.68262,0 -1.34927,0.07968 -1.99346,0.2315c0.12436,-0.16342 0.23877,-0.30997 0.34183,-0.43716c1.4642,-1.80702 4.41361,-2.1439 7.1601,-2.24596c10.64263,4.85369 17.42732,15.98171 20.32385,28.32118c0.79805,3.39977 1.49775,6.52225 1.55501,10.07981c0.02591,1.60982 0.60354,3.41152 -0.08731,4.82927c-0.79495,1.63136 -5.37652,3.80083 -7.65717,4.85352z" data-paper-data="{&quot;index&quot;:null}" fill="#3c162f" stroke="none" stroke-width="0.5" stroke-linecap="butt"/><g fill="none" stroke="#3c162f" stroke-width="1" stroke-linecap="round"><path d="M314.16003,193.94349l-2.52414,0.45154l-1.27486,-2.31022l2.62417,0.11633z"/><path d="M317.97936,196.0209l-2.52413,0.45154l-1.27486,-2.31022l2.62417,0.11632z"/><path d="M322.07462,196.28358l-2.17476,1.3585l-2.04307,-1.66981l2.47895,-0.86866z"/><path d="M326.07934,194.44042l-1.33885,2.18692l-2.57381,-0.58127l1.82981,-1.88456z"/><path d="M329.77237,192.34111l-0.97758,2.37054l-2.63325,-0.1685l1.51005,-2.14931z"/></g></g><path d="M341.84342,98.63601h-0.32579c0.0138,-0.13596 0.02457,-0.27202 0.03208,-0.408c0.09605,0.13906 0.19469,0.27511 0.29371,0.408z" fill-opacity="0.37229" fill="#000000" stroke="none" stroke-width="0" stroke-linecap="butt"/><path d="M335.15398,94.16354c-0.00137,0.02397 -0.00206,0.04813 -0.00206,0.07245c0,0.03629 0.00155,0.07221 0.00458,0.10771c-0.03387,-0.03254 -0.06782,-0.06499 -0.10186,-0.09737z" fill-opacity="0.37229" fill="#000000" stroke="none" stroke-width="0" stroke-linecap="butt"/><path d="M345.37015,95.52572l0.0279,-0.03489c0.00229,0.02091 0.00466,0.0418 0.00709,0.06268c-0.01161,-0.00928 -0.02327,-0.01854 -0.035,-0.02779z" fill-opacity="0.37229" fill="#000000" stroke="none" stroke-width="0" stroke-linecap="butt"/><g stroke-width="1.5" stroke-linecap="butt"><path d="M319.09488,49.98465c18.20642,-0.37265 30.05854,7.76518 35.93465,19.01321c8.53025,16.32855 8.37787,41.07725 8.37787,41.07725l-4.50613,-6.77982c0,0 3.09111,10.3481 1.31092,20.69498c-1.5623,9.48098 -10.54782,20.72543 -10.54782,20.72543l4.34478,-10.59735c0,0 -3.27266,6.94794 -4.41005,8.08274c-1.1374,1.13479 -3.43873,2.91273 -3.43873,2.91273l-0.09205,-3.70421c0,0 -7.34581,12.44652 -24.63637,12.30011c-16.30625,-0.25547 -25.7858,-12.10377 -25.7858,-12.10377l-0.1162,2.65484c0,0 -3.89477,-3.29276 -6.18145,-9.70754c-2.72545,-7.64567 -2.98946,-17.49324 -2.98946,-17.49324l-0.16369,9.49466c0,0 -4.87421,-8.12112 -5.26946,-12.02211c-0.49442,-4.87978 1.61761,-16.93272 1.61761,-16.93272l-4.08013,6.79513c0,0 -1.12411,-7.54377 -0.06494,-11.84684c1.44762,-5.88122 4.56094,-41.16283 40.69645,-42.56348z" data-paper-data="{&quot;index&quot;:null}" fill="#000000" stroke="none"/><path d="M293.86589,108.58988c-0.57709,-7.29323 0.335,-17.15448 0.335,-17.15448c0,0 3.41059,-0.04124 13.91429,-3.14424c8.0696,-2.38394 20.54731,-9.48722 20.54731,-9.48722c0,0 -2.16005,3.00503 -3.40781,4.46015c-1.32651,1.54696 -3.99292,4.56297 -3.99292,4.56297c0,0 7.838,-1.66761 14.67476,-4.72931c8.56837,-3.53575 10.59252,-6.05309 12.95042,-4.5927c2.7829,1.72362 1.03006,23.1827 0.71846,28.74062c-0.42163,5.66922 -2.53327,9.49969 -3.15031,12.52053c-0.61704,3.02084 -0.4096,6.13662 -2.20622,16.0397c-1.12121,6.18021 -4.16183,8.92466 -10.01942,14.66081c-5.85759,5.73616 -9.05378,9.25275 -13.01359,9.32173c-3.81077,0.06639 -8.93565,-5.1002 -13.93542,-10.38244c-5.32393,-5.62474 -10.82882,-8.47713 -11.66944,-15.13975c-0.75707,-6.00039 1.1774,-9.90853 0.83127,-15.24835c-0.25298,-3.90273 -2.26119,-6.44504 -2.57636,-10.42801z" fill="#ffffff" stroke="#000000"/></g><g stroke="none" stroke-width="0" stroke-linecap="butt"><path d="M296.29141,139.66363c0,0 2.33377,-9.6428 10.66378,-10.38738c7.37698,-0.65939 13.97304,5.38874 13.97304,5.38874c0,0 5.67775,-4.66576 9.22887,-3.57217c7.70373,2.37241 11.55097,11.21324 11.55097,11.21324c0,0 -2.72828,7.13526 -9.77179,11.11756c-3.22848,1.82534 -6.84175,2.66211 -12.44108,2.42486c-3.91676,-0.16596 -10.0024,-1.79103 -13.869,-4.73749c-6.1473,-4.68441 -9.33478,-11.44736 -9.33478,-11.44736z" fill="#000000"/><path d="M299.75956,140.98484c0,0 13.88991,3.57705 20.72887,4.00898c6.16562,0.38941 18.24689,-1.77944 18.24689,-1.77944c0,0 -4.57638,10.09379 -18.66212,10.07424c-15.08486,-0.02093 -20.31364,-12.30379 -20.31364,-12.30379z" fill="#ffffff"/><path d="M299.09898,138.59012c0,0 1.06732,-5.97415 8.9907,-6.86066c4.98485,-0.55773 12.31384,4.46596 12.31384,4.46596c0,0 6.14688,-3.78298 10.07343,-2.63976c6.62001,1.92742 9.00157,8.33749 9.00157,8.33749c0,0 -2.96835,-0.16038 -5.58127,-0.90192c-4.27463,-1.21312 -6.72837,-4.11526 -13.83164,-3.87789c-3.26397,0.10907 -8.64077,0.37861 -12.96484,0.71164c-4.56941,0.35193 -8.0018,0.76513 -8.0018,0.76513z" fill="#ffffff"/><path d="M305.5399,139.99393c0,0 9.96384,-1.06921 16.84545,-0.57803c5.972,0.42626 8.67045,2.725 8.67045,2.725c0,0 -7.01002,-0.21255 -11.01214,-0.50853c-4.49977,-0.33278 -14.50376,-1.63844 -14.50376,-1.63844z" fill="#ffffff"/></g><path d="M338.81372,95.46145l0.00463,0.04166c-0.00834,-0.00806 -0.01669,-0.01611 -0.02505,-0.02415z" fill-opacity="0.37229" fill="#000000" stroke="none" stroke-width="0" stroke-linecap="butt"/><g stroke="#000000"><path d="M294.99394,117.98002c0,0 -4.93211,-3.51705 -6.16417,-8.97502c-1.29636,-5.74284 -1.46118,-9.7328 0.48013,-9.99193c1.94131,-0.25915 2.70321,2.37692 3.73262,8.35569c1.0294,5.97877 1.95143,10.61127 1.95143,10.61127z" data-paper-data="{&quot;index&quot;:null}" fill="#ffffff" stroke-width="1" stroke-linecap="butt"/><path d="M294.79134,114.03247c0,0 -3.56385,-2.92338 -4.31816,-8.45061c-0.42079,-3.08327 2.15675,-2.28016 2.15675,-2.28016" fill="none" stroke-width="0.25" stroke-linecap="round"/><path d="M297.80475,107.37657c0.07093,-4.89188 4.83834,-8.93609 10.21137,-8.8582c5.37302,0.0779 9.02724,4.2484 8.95632,9.14029c-0.07093,4.89188 -4.12352,8.79439 -9.49655,8.7165c-5.37302,-0.0779 -9.74207,-4.1067 -9.67114,-8.99859z" fill="#ffffff" stroke-width="1.4" stroke-linecap="butt"/><path d="M324.86103,107.3773c0.20353,-4.88817 4.45264,-8.85847 9.77048,-8.85847c5.31783,0 9.27453,3.96607 9.27453,8.85847c0,4.8924 -3.88585,9.07104 -9.69964,9.14188c-5.52997,0.06739 -9.55792,-4.03692 -9.34537,-9.14188z" fill="#ffffff" stroke-width="1.4" stroke-linecap="butt"/></g><path d="M341.24665,95.57679c0,0 1.52429,0.31807 4.2558,1.11029c2.49492,0.72361 4.44935,1.74403 4.44935,1.74403l0.1951,1.17035c0,0 -7.24963,-3.12997 -15.1158,-2.4706c-6.2896,0.52724 -9.96319,2.8124 -9.96319,2.8124l0.04575,-4.17683c0,0 3.12748,-1.70421 7.86366,-1.85557c4.90428,-0.15672 8.09084,0.59125 8.09084,0.59125z" data-paper-data="{&quot;index&quot;:null}" fill="#000000" stroke="none" stroke-width="1.5" stroke-linecap="butt"/><path d="M301.14851,96.83273c0,0 3.36963,-1.819 8.03244,-2.28178c5.16698,-0.51283 7.76823,-0.06628 7.76823,-0.06628l0.29508,4.13747c0,0 -3.83554,-0.68065 -8.01795,-0.52113c-5.59346,0.21333 -6.64488,1.43293 -10.89774,1.89119c-3.64408,0.39266 -6.73723,0.15884 -6.73723,0.15884l-0.02589,-1.23155c0,0 3.59517,0.07398 5.23371,-0.06836c1.35239,-0.11749 3.9757,-0.93808 3.9757,-0.93808z" fill="#000000" stroke="none" stroke-width="1.5" stroke-linecap="butt"/><path d="M349.10945,107.36876c1.0294,-5.97877 1.7913,-8.61483 3.73262,-8.35569c1.94131,0.25914 1.77649,4.24909 0.48013,9.99193c-1.23206,5.45797 -6.16417,8.97502 -6.16417,8.97502c0,0 0.92203,-4.6325 1.95143,-10.61127z" data-paper-data="{&quot;index&quot;:null}" fill="#ffffff" stroke="#000000" stroke-width="1" stroke-linecap="butt"/><path d="M349.522,103.3017c0,0 2.57754,-0.80312 2.15675,2.28016c-0.75431,5.52723 -4.31816,8.45061 -4.31816,8.45061" data-paper-data="{&quot;index&quot;:null}" fill="none" stroke="#000000" stroke-width="0.25" stroke-linecap="round"/><g stroke="none" stroke-width="0" stroke-linecap="butt"><path d="M325.36474,131.32392c0,1.02839 -0.16199,3.68161 -1.20052,5.40921c-1.32361,2.20183 -3.5936,3.41432 -3.5936,3.41432c0,0 -4.20588,-6.48444 -4.20588,-8.82353c0,-2.33909 2.01472,-4.23529 4.5,-4.23529c2.48528,0 4.5,1.8962 4.5,4.23529z" fill="#000000"/><path d="M317.4824,131.02977c0,-1.26701 0.99991,-1.70588 2.08823,-1.70588c1.08832,0 3.14706,0.85064 3.14706,2.11765c0,1.26701 -1.11756,5.11765 -2.20588,5.11765c-1.08833,0 -3.02942,-4.26241 -3.02942,-5.52942z" fill="#ffffff"/></g><g stroke="none" stroke-width="0" stroke-linecap="butt"><path d="M319.44435,142.79776l-2.54545,-35.94118l8.18182,0.47601l-0.79774,20.83109c0,0 -0.04775,1.74557 -0.10279,3.75745c-0.04773,1.74452 -0.10092,3.68927 -0.13322,4.86986c-0.05508,2.01356 -0.26572,5.94736 -0.26572,5.94736z" fill="#000000"/><path d="M320.54121,141.46772l-2.37815,-34.68208l5.72198,0.10726l-1.16736,34.51541z" fill="#ffffff"/></g><g fill="#5c162e" stroke="none" stroke-width="0" stroke-linecap="butt"><path d="M308.58138,139.42223l2.67791,-0.33136l-1.21969,5.59821z"/><path d="M327.85986,145.85018l-1.20888,-5.92636l2.67901,0.87679z" data-paper-data="{&quot;index&quot;:null}"/></g><g stroke="none" stroke-width="1.5" stroke-linecap="butt"><path d="M336.17016,107.70235c-0.07996,2.75756 -2.38021,4.92816 -5.13775,4.8482c-2.75756,-0.07996 -4.92816,-2.38021 -4.8482,-5.13775c0.07996,-2.75756 2.3802,-4.92816 5.13775,-4.8482c2.75756,0.07996 4.92816,2.38021 4.8482,5.13775z" fill="#7c162e"/><path d="M334.77558,105.63605c-0.0459,1.19434 -1.68116,2.12533 -3.65245,2.07943c-1.97131,-0.04589 -3.53214,-1.0513 -3.48625,-2.24563c0.0459,-1.19434 1.68115,-2.12533 3.65245,-2.07943c1.97131,0.04589 3.53214,1.0513 3.48625,2.24563z" fill="#5c162e"/></g><g stroke="none" stroke-width="1.5" stroke-linecap="butt"><path d="M308.95118,107.33957c-0.04084,2.81815 -2.35851,5.06961 -5.17666,5.02877c-2.81815,-0.04084 -5.06961,-2.35851 -5.02877,-5.17666c0.04084,-2.81815 2.3585,-5.06961 5.17666,-5.02877c2.81815,0.04084 5.06961,2.35851 5.02877,5.17666z" fill="#7c162e"/><path d="M307.45159,105.01784c-0.0459,1.19434 -1.68116,2.12533 -3.65245,2.07943c-1.97131,-0.04589 -3.53214,-1.0513 -3.48625,-2.24563c0.0459,-1.19434 1.68115,-2.12533 3.65245,-2.07943c1.97131,0.04589 3.53214,1.0513 3.48625,2.24563z" fill="#5c162e"/></g><g fill-opacity="0.37229" fill="#000000" stroke="none" stroke-width="0" stroke-linecap="butt"><path d="M286.93658,120.93601v-13c0,0 -14.07697,-34.13538 36,-36.2c46.29764,-6.6 31.8,36.2 31.8,36.2v13c0,0 -2.88762,-7.41345 -34.2923,-7.5c-32.94175,-0.09079 -33.5077,7.5 -33.5077,7.5z"/><path d="M286.27792,107.53601v-13c0,0 -3.81666,-28.44494 34.35866,-28c50.62253,0.2 33.44134,28 33.44134,28v13c0,0 4.87162,-6 -33.63364,-6c-32.34404,0 -34.16636,6 -34.16636,6z"/></g><path d="M290.5648,118.89748c0,0 -0.35758,4.41619 6.59566,5.56759c2.87979,0.47687 8.725,0.91966 8.725,0.91966c0,0 -5.6739,1.10125 -8.597,1.19319c-6.83632,0.21503 -6.72366,-7.68044 -6.72366,-7.68044z" fill="#000000" stroke="none" stroke-width="0" stroke-linecap="butt"/><path d="M342.90135,133.57792c-2.92311,-0.09194 -8.597,-1.1932 -8.597,-1.1932c0,0 5.84522,-0.4428 8.725,-0.91966c6.95324,-1.15139 6.59566,-5.56759 6.59566,-5.56759c0,0 0.11266,7.89547 -6.72366,7.68045z" data-paper-data="{&quot;index&quot;:null}" fill="#000000" stroke="none" stroke-width="0" stroke-linecap="butt"/><path d="M298.29137,125.29875v4.28571" fill="none" stroke="#000000" stroke-width="0.5" stroke-linecap="round"/><path d="M341.26833,124.87018v8" fill="none" stroke="#000000" stroke-width="0.5" stroke-linecap="round"/><path d="M329.81002,126.69558c0,0 0.23443,-2.33333 10.66667,-2.33333c8.75248,0 7.22222,9.11111 7.22222,9.11111c0,0 -0.48848,-3.57554 -7.07293,-6.54523c-7.37738,-3.32732 -10.81596,-0.23255 -10.81596,-0.23255z" fill="#000000" stroke="none" stroke-width="0" stroke-linecap="butt"/><g fill="#000000" stroke="none" stroke-width="0" stroke-linecap="butt"><g><path d="M309.5081,97.68016c9.15801,0.8761 8.7859,10.9048 8.7859,10.9048l-0.85827,0.09015c0,0 -1.11335,-1.42943 -9.22808,-1.80504c-6.88781,-0.31882 -11.11587,1.21429 -11.11587,1.21429c0,0 0.26137,-11.56701 12.41633,-10.40421z"/><g><path d="M316.90299,109.60657c0,0 -1.71552,7.14836 -9.41509,7.27528c-8.07597,0.13313 -9.26404,-7.07389 -9.26404,-7.07389c0,0 3.7743,2.14487 8.98879,2.03239c6.32647,-0.13647 9.69032,-2.23378 9.69032,-2.23378z"/></g></g><g><path d="M336.30572,97.68016c9.92958,1.03189 9.58577,10.64588 9.58577,10.64588l-2.26902,0.08728c0,0 -0.50246,-1.16762 -8.61719,-1.54323c-6.88781,-0.31882 -11.11587,1.21429 -11.11587,1.21429c0,0 0.27127,-11.66635 12.41632,-10.40421z"/><g><path d="M343.64004,109.68076c0,0 -1.89698,7.10919 -9.72337,7.0677c-8.209,-0.04352 -9.26114,-7.27486 -9.26114,-7.27486c0,0 3.78899,2.22692 9.08994,2.2285c6.43137,0.00192 9.89456,-2.02134 9.89456,-2.02134z"/></g></g></g></g></g></svg>