<svg version="1.1" xmlns="http://www.w3.org/2000/svg" xmlns:xlink="http://www.w3.org/1999/xlink" width="353" height="223.00001" viewBox="0,0,353,223.00001"><defs><radialGradient cx="206" cy="268.24003" r="37.5" gradientUnits="userSpaceOnUse" id="color-1"><stop offset="0" stop-color="#ffffff"/><stop offset="1" stop-color="#ffffff" stop-opacity="0"/></radialGradient><radialGradient cx="192" cy="269.24003" r="37.5" gradientUnits="userSpaceOnUse" id="color-2"><stop offset="0" stop-color="#ffffff"/><stop offset="1" stop-color="#ffffff" stop-opacity="0"/></radialGradient><radialGradient cx="455" cy="260.24003" r="37.5" gradientUnits="userSpaceOnUse" id="color-3"><stop offset="0" stop-color="#eb5e28"/><stop offset="1" stop-color="#eb5e28" stop-opacity="0"/></radialGradient><radialGradient cx="294" cy="123.24003" r="37.5" gradientUnits="userSpaceOnUse" id="color-4"><stop offset="0" stop-color="#ace894"/><stop offset="1" stop-color="#ace894" stop-opacity="0"/></radialGradient><radialGradient cx="347" cy="121.24002" r="37.5" gradientUnits="userSpaceOnUse" id="color-5"><stop offset="0" stop-color="#ace894"/><stop offset="1" stop-color="#ace894" stop-opacity="0"/></radialGradient><radialGradient cx="470" cy="179.24003" r="37.5" gradientUnits="userSpaceOnUse" id="color-6"><stop offset="0" stop-color="#eb5e28"/><stop offset="1" stop-color="#eb5e28" stop-opacity="0"/></radialGradient><radialGradient cx="447" cy="178.24003" r="37.5" gradientUnits="userSpaceOnUse" id="color-7"><stop offset="0" stop-color="#eb5e28"/><stop offset="1" stop-color="#eb5e28" stop-opacity="0"/></radialGradient></defs><g transform="translate(-154.5,-83.74002)"><g data-paper-data="{&quot;isPaintingLayer&quot;:true}" fill-rule="nonzero" stroke-width="0" stroke-linecap="butt" stroke-linejoin="miter" stroke-miterlimit="10" stroke-dasharray="" stroke-dashoffset="0" style="mix-blend-mode: normal"><path d="M168.5,268.24003c0,-20.71068 16.78932,-37.5 37.5,-37.5c20.71068,0 37.5,16.78932 37.5,37.5c0,20.71068 -16.78932,37.5 -37.5,37.5c-20.71068,0 -37.5,-16.78932 -37.5,-37.5z" fill="url(#color-1)" stroke="none"/><path d="M154.5,269.24003c0,-20.71068 16.78932,-37.5 37.5,-37.5c20.71068,0 37.5,16.78932 37.5,37.5c0,20.71068 -16.78932,37.5 -37.5,37.5c-20.71068,0 -37.5,-16.78932 -37.5,-37.5z" fill="url(#color-2)" stroke="none"/><path d="M417.5,260.24003c0,-20.71068 16.78932,-37.5 37.5,-37.5c20.71068,0 37.5,16.78932 37.5,37.5c0,20.71068 -16.78932,37.5 -37.5,37.5c-20.71068,0 -37.5,-16.78932 -37.5,-37.5z" fill="url(#color-3)" stroke="none"/><path d="M256.5,123.24003c0,-20.71068 16.78932,-37.5 37.5,-37.5c20.71068,0 37.5,16.78932 37.5,37.5c0,20.71068 -16.78932,37.5 -37.5,37.5c-20.71068,0 -37.5,-16.78932 -37.5,-37.5z" fill="url(#color-4)" stroke="none"/><path d="M309.5,121.24002c0,-20.71068 16.78932,-37.5 37.5,-37.5c20.71068,0 37.5,16.78932 37.5,37.5c0,20.71068 -16.78932,37.5 -37.5,37.5c-20.71068,0 -37.5,-16.78932 -37.5,-37.5z" fill="url(#color-5)" stroke="none"/><path d="M196.44852,272.33302c-0.01812,0.03693 -0.03668,0.07365 -0.05567,0.11015c-1.77229,-1.59743 -4.11901,-2.56982 -6.69284,-2.56982c-1.70875,0 -3.31738,0.42857 -4.7243,1.1841c0.0668,-0.4588 0.21121,-0.92599 0.43909,-1.39026c1.29996,-2.64843 4.82376,-5.69864 7.87063,-4.96249c3.04687,0.73615 4.46303,4.9799 3.16307,7.62832z" fill="#ffffff" stroke="none"/><path d="M212.78522,269.66719c0.13492,0.27487 0.24058,0.55077 0.3182,0.82534c-1.32861,-0.65267 -2.82321,-1.01918 -4.4034,-1.01918c-2.70806,0 -5.16472,1.07645 -6.9654,2.82481c-1.27062,-2.65064 0.14644,-6.86053 3.17997,-7.59345c3.04687,-0.73615 6.57067,2.31406 7.87063,4.96249z" fill="#ffffff" stroke="none"/><path d="M443.33336,257.04762c0,-4.07639 2.98477,-7.38096 6.66667,-7.38096c3.6819,0 6.66667,3.30457 6.66667,7.38096c0,4.07639 -5,10.70238 -5,10.70238c0,0 -8.33334,-6.626 -8.33334,-10.70238z" fill="#eb5e28" stroke="none"/><path d="M453.33335,257.04763c0,-4.07639 2.98476,-7.38096 6.66666,-7.38096c3.6819,0 6.66667,3.30457 6.66667,7.38096c0,4.07639 -8.33334,10.66666 -8.33334,10.66666c0,0 -4.99999,-6.59027 -4.99999,-10.66666z" fill="#eb5e28" stroke="none"/><path d="M448.33335,262.58333c0,-4.07639 2.98476,-7.38096 6.66667,-7.38096c3.6819,0 6.66667,3.30457 6.66667,7.38096c0,4.07639 -6.66667,7.75 -6.66667,7.75c0,0 -6.66667,-3.67361 -6.66667,-7.75z" fill="#eb5e28" stroke="none"/><path d="M446.65773,184.72058c-3.82509,0 -3.82509,-12.1704 0,-12.1704c3.82509,0 3.82508,12.1704 0,12.1704z" data-paper-data="{&quot;index&quot;:null}" fill="#eb5e28" stroke-opacity="0.25098" stroke="#ace895"/><path d="M470.63918,184.72058c-3.82508,0 -3.82508,-12.1704 0,-12.1704c3.82508,0 3.82508,12.1704 0,12.1704z" data-paper-data="{&quot;index&quot;:null}" fill="#eb5e28" stroke-opacity="0.25098" stroke="#ace895"/><path d="M313.95506,126.79681c-1.14771,8.43579 -51.08302,1.64198 -49.93531,-6.7938c1.14771,-8.43579 51.08303,-1.64198 49.93532,6.7938z" fill="#ace894" stroke="none"/><path d="M294.43762,107.84975c0,0 0.61005,13.40613 0.1498,22.81634c-0.97778,-0.20954 -1.98922,-0.32392 -3.02364,-0.33332c0.70575,-9.38314 2.87386,-22.48301 2.87386,-22.48301z" fill="#4a583c" stroke="none"/><path d="M375.75695,115.11756c1.8796,8.30342 -47.27218,19.42961 -49.15178,11.1262c-1.8796,-8.30342 47.27218,-19.42961 49.15178,-11.1262z" fill="#ace894" stroke="none"/><path d="M344.39446,105.66551c0,0 3.305,12.86757 4.82648,22.15406c-1.02907,0.10881 -2.0255,0.32018 -2.97947,0.62331c-1.28325,-9.33633 -1.84701,-22.77737 -1.84701,-22.77737z" fill="#4a583c" stroke="none"/><path d="M432.5,179.24003c0,-20.71068 16.78932,-37.5 37.5,-37.5c20.71068,0 37.5,16.78932 37.5,37.5c0,20.71068 -16.78932,37.5 -37.5,37.5c-20.71068,0 -37.5,-16.78932 -37.5,-37.5z" fill="url(#color-6)" stroke="none"/><path d="M409.5,178.24003c0,-20.71068 16.78932,-37.5 37.5,-37.5c20.71068,0 37.5,16.78932 37.5,37.5c0,20.71068 -16.78932,37.5 -37.5,37.5c-20.71068,0 -37.5,-16.78932 -37.5,-37.5z" fill="url(#color-7)" stroke="none"/></g></g></svg>