<svg version="1.1" xmlns="http://www.w3.org/2000/svg" xmlns:xlink="http://www.w3.org/1999/xlink" width="212.5" height="141.88742" viewBox="0,0,212.5,141.88742"><g transform="translate(-213.75,-109.05629)"><g data-paper-data="{&quot;isPaintingLayer&quot;:true}" fill-rule="nonzero" stroke="none" stroke-width="0" stroke-linecap="butt" stroke-linejoin="miter" stroke-miterlimit="10" stroke-dasharray="" stroke-dashoffset="0" style="mix-blend-mode: normal"><g><g data-paper-data="{&quot;index&quot;:null}"><path d="M213.75,175.94371v-33.44371h33.44371v33.44371z" fill="#110e1b"/><path d="M247.19371,175.94371v-33.44371h33.44371v33.44371z" fill="#191528"/></g><g><path d="M280.30629,142.5v-33.44371h33.44371v33.44371z" fill="#7c162e"/><path d="M247.19371,142.5v-33.44371h33.44371v33.44371z" fill="#5c162e"/></g><path d="M213.75,142.5v-33.44371h33.44371v33.44371z" fill="#3c162f"/></g><g><g data-paper-data="{&quot;index&quot;:null}"><path d="M326.25,175.94371v-33.44371h33.44371v33.44371z" fill="#252422"/><path d="M359.69371,175.94371v-33.44371h33.4437v33.44371z" fill="#403d39"/></g><g><path d="M392.80629,142.5v-33.44371h33.44371v33.44371z" fill="#eb5e28"/><path d="M359.69371,142.5v-33.44371h33.4437v33.44371z" fill="#fffcf2"/></g><path d="M326.25,142.5v-33.44371h33.44371v33.44371z" fill="#ccc5b9"/></g><g><g data-paper-data="{&quot;index&quot;:null}"><path d="M213.75,250.94371v-33.44371h33.44371v33.44371z" fill="#1a090d"/><path d="M247.19371,250.94371v-33.44371h33.4437v33.44371z" fill="#4a314d"/></g><g><path d="M280.30629,217.5v-33.44371h33.44371v33.44371z" fill="#ace894"/><path d="M247.19371,217.5v-33.44371h33.4437v33.44371z" fill="#a8ba9a"/></g><path d="M213.75,217.5v-33.44371h33.44371v33.44371z" fill="#6b6570"/></g><g><g data-paper-data="{&quot;index&quot;:null}"><path d="M326.25,250.94371v-33.44371h33.44371v33.44371z" fill="#11001c"/><path d="M359.69371,250.94371v-33.44371h33.4437v33.44371z" fill="#290025"/></g><g><path d="M392.80629,217.5v-33.44371h33.44371v33.44371z" fill="#3a015c"/><path d="M359.69371,217.5v-33.44371h33.4437v33.44371z" fill="#4f0147"/></g><path d="M326.25,217.5v-33.44371h33.44371v33.44371z" fill="#35012c"/></g></g></g></svg>