<svg version="1.1" xmlns="http://www.w3.org/2000/svg" xmlns:xlink="http://www.w3.org/1999/xlink" width="216.98691" height="19.52139" viewBox="0,0,216.98691,19.52139"><g transform="translate(-211.50654,-170.23931)"><g data-paper-data="{&quot;isPaintingLayer&quot;:true}" fill-rule="nonzero" stroke="none" stroke-width="0" stroke-linecap="butt" stroke-linejoin="miter" stroke-miterlimit="10" stroke-dasharray="" stroke-dashoffset="0" style="mix-blend-mode: normal"><g><path d="M217.48093,188.88335c-4.12363,-0.74739 -6.71409,-5.50461 -5.78594,-10.62555c0.92814,-5.12094 5.02342,-8.66641 9.14705,-7.91903c4.12363,0.74739 6.71408,5.50461 5.78594,10.62555c-0.92814,5.12094 -5.02341,8.66641 -9.14704,7.91902z" data-paper-data="{&quot;index&quot;:null}" fill="#eb5e28"/><path d="M235.45133,180.96433c-0.92814,-5.12095 1.66231,-9.87816 5.78594,-10.62554c4.12363,-0.74739 8.2189,2.79807 9.14705,7.91902c0.92814,5.12095 -1.66231,9.87816 -5.78594,10.62555c-4.12363,0.74739 -8.2189,-2.79808 -9.14704,-7.91902z" data-paper-data="{&quot;index&quot;:null}" fill="#eb5e28"/><path d="M219.40734,187.2766c-3.40907,-0.61788 -5.55064,-4.55075 -4.78333,-8.78431c0.76731,-4.23356 4.15294,-7.16466 7.56201,-6.54679c3.40907,0.61788 5.55064,4.55075 4.78333,8.78431c-0.76731,4.23356 -4.15294,7.16466 -7.56201,6.54678z" data-paper-data="{&quot;index&quot;:null}" fill="#fffcf2"/><path d="M235.10995,180.72982c-0.76731,-4.23357 1.37426,-8.16644 4.78333,-8.78431c3.40907,-0.61788 6.7947,2.31321 7.56201,6.54678c0.76731,4.23357 -1.37426,8.16644 -4.78333,8.78431c-3.40907,0.61788 -6.7947,-2.31321 -7.56201,-6.54678z" data-paper-data="{&quot;index&quot;:null}" fill="#fffcf2"/></g><g><path d="M307.48093,188.88335c-4.12363,-0.74739 -6.71409,-5.50461 -5.78594,-10.62555c0.92814,-5.12094 5.02342,-8.66641 9.14705,-7.91903c4.12363,0.74739 6.71408,5.50461 5.78594,10.62555c-0.92814,5.12094 -5.02341,8.66641 -9.14704,7.91902z" data-paper-data="{&quot;index&quot;:null}" fill="#eb5e28"/><path d="M325.45133,180.96433c-0.92814,-5.12095 1.66231,-9.87816 5.78594,-10.62554c4.12363,-0.74739 8.2189,2.79807 9.14705,7.91902c0.92814,5.12095 -1.66231,9.87816 -5.78594,10.62555c-4.12363,0.74739 -8.2189,-2.79808 -9.14704,-7.91902z" data-paper-data="{&quot;index&quot;:null}" fill="#eb5e28"/><path d="M309.40734,187.2766c-3.40907,-0.61788 -5.55064,-4.55075 -4.78333,-8.78431c0.76731,-4.23356 13.11265,-1.99604 12.34534,2.23752c-0.76731,4.23356 -4.15294,7.16466 -7.56201,6.54678z" data-paper-data="{&quot;index&quot;:null}" fill="#fffcf2"/><path d="M325.10995,180.72982c-0.76731,-4.23357 11.57803,-6.4711 12.34534,-2.23753c0.76731,4.23357 -1.37426,8.16644 -4.78333,8.78431c-3.40907,0.61788 -6.7947,-2.31321 -7.56201,-6.54678z" data-paper-data="{&quot;index&quot;:null}" fill="#fffcf2"/></g><g><path d="M262.48093,188.88335c-4.12363,-0.74739 -6.71409,-5.50461 -5.78594,-10.62555c0.92814,-5.12094 5.02342,-8.66641 9.14705,-7.91903c4.12363,0.74739 6.71408,5.50461 5.78594,10.62555c-0.92814,5.12094 -5.02341,8.66641 -9.14704,7.91902z" data-paper-data="{&quot;index&quot;:null}" fill="#eb5e28"/><path d="M280.45133,180.96433c-0.92814,-5.12095 1.66231,-9.87816 5.78594,-10.62554c4.12363,-0.74739 8.2189,2.79807 9.14705,7.91902c0.92814,5.12095 -1.66231,9.87816 -5.78594,10.62555c-4.12363,0.74739 -8.2189,-2.79808 -9.14704,-7.91902z" data-paper-data="{&quot;index&quot;:null}" fill="#eb5e28"/><path d="M259.62401,178.49229c0.76731,-4.23356 4.15294,-7.16466 7.56201,-6.54679c3.40907,0.61788 5.55064,4.55075 4.78333,8.78431c-0.76731,4.23356 -13.11265,1.99604 -12.34534,-2.23752z" data-paper-data="{&quot;index&quot;:null}" fill="#fffcf2"/><path d="M280.10995,180.72982c-0.76731,-4.23357 1.37426,-8.16644 4.78333,-8.78431c3.40907,-0.61788 6.7947,2.31321 7.56201,6.54678c0.76731,4.23357 -11.57803,6.4711 -12.34534,2.23753z" data-paper-data="{&quot;index&quot;:null}" fill="#fffcf2"/></g><g fill="#eb5e28"><path d="M355.84204,170.33876c2.32069,0.42062 4.15579,2.11122 5.15142,4.42193c-0.41041,-0.12921 -0.82539,-0.24813 -1.24463,-0.35643c-2.00415,-0.51776 -4.10575,-0.7932 -6.27168,-0.7932c-1.77474,0 -3.50628,0.18493 -5.17641,0.53657c1.78216,-2.75172 4.65478,-4.33202 7.5413,-3.80886z" data-paper-data="{&quot;index&quot;:null}"/><path d="M383.49346,174.14763c-1.67014,-0.35164 -3.40168,-0.53656 -5.17642,-0.53656c-2.16593,0 -4.26753,0.27544 -6.27168,0.7932c-0.41924,0.10831 -0.83422,0.22722 -1.24463,0.35643c0.99563,-2.31071 2.83073,-4.00132 5.15142,-4.42193c2.88651,-0.52316 5.75915,1.05714 7.5413,3.80886z" data-paper-data="{&quot;index&quot;:null}"/></g><g data-paper-data="{&quot;index&quot;:null}" fill="#eb5e28"><path d="M400.84204,189.66123c-2.88652,0.52316 -5.75914,-1.05714 -7.5413,-3.80886c1.67013,0.35164 3.40167,0.53657 5.17641,0.53657c2.16593,0 4.26753,-0.27544 6.27168,-0.7932c0.41924,-0.1083 0.83422,-0.22722 1.24463,-0.35643c-0.99563,2.31071 -2.83073,4.00131 -5.15142,4.42193z" data-paper-data="{&quot;index&quot;:null}"/><path d="M420.95216,189.66124c-2.32069,-0.42061 -4.1558,-2.11122 -5.15143,-4.42193c0.41041,0.12921 0.82539,0.24812 1.24463,0.35643c2.00415,0.51776 4.10575,0.7932 6.27168,0.7932c1.77474,0 3.50628,-0.18492 5.17641,-0.53656c-1.78215,2.75172 -4.65479,4.33202 -7.5413,3.80886z" data-paper-data="{&quot;index&quot;:null}"/></g></g></g></svg>