<svg version="1.1" xmlns="http://www.w3.org/2000/svg" xmlns:xlink="http://www.w3.org/1999/xlink" width="329.63082" height="477.75001" viewBox="0,0,329.63082,477.75001"><defs><linearGradient x1="483.7383" y1="-13" x2="483.7383" y2="361" gradientUnits="userSpaceOnUse" id="color-1"><stop offset="0" stop-color="#593b20"/><stop offset="1" stop-color="#382414"/></linearGradient><linearGradient x1="485.7383" y1="-66" x2="485.7383" y2="172.5" gradientUnits="userSpaceOnUse" id="color-2"><stop offset="0" stop-color="#52361d"/><stop offset="1" stop-color="#3e2816"/></linearGradient><radialGradient cx="485.4883" cy="53.75" r="123.5" gradientUnits="userSpaceOnUse" id="color-3"><stop offset="0" stop-color="#5e3e22"/><stop offset="1" stop-color="#593b20"/></radialGradient><linearGradient x1="586.10496" y1="116.5" x2="586.10496" y2="166.5" gradientUnits="userSpaceOnUse" id="color-4"><stop offset="0" stop-color="#5e3e22"/><stop offset="1" stop-color="#4a311b"/></linearGradient><linearGradient x1="387.50496" y1="114.26159" x2="387.50496" y2="166.33334" gradientUnits="userSpaceOnUse" id="color-5"><stop offset="0" stop-color="#5e3e22"/><stop offset="1" stop-color="#4a311b"/></linearGradient><linearGradient x1="484.49416" y1="199.25" x2="484.49416" y2="376.75" gradientUnits="userSpaceOnUse" id="color-6"><stop offset="0" stop-color="#2c1d10" stop-opacity="0"/><stop offset="1" stop-color="#2c1d10"/></linearGradient><linearGradient x1="484.99416" y1="296.25" x2="484.99416" y2="411.75" gradientUnits="userSpaceOnUse" id="color-7"><stop offset="0" stop-color="#1d140b" stop-opacity="0"/><stop offset="1" stop-color="#1d140b"/></linearGradient></defs><g transform="translate(-319.92875,66)"><g data-paper-data="{&quot;isPaintingLayer&quot;:true}" fill-rule="nonzero" stroke="none" stroke-linecap="butt" stroke-linejoin="miter" stroke-miterlimit="10" stroke-dasharray="" stroke-dashoffset="0" style="mix-blend-mode: normal"><g data-paper-data="{&quot;index&quot;:null}" stroke-width="0"><path d="M372.2383,176v-234h235.5v234z" fill-opacity="0.25882" fill="#fff7f1"/><path d="M370.2383,175v-234h235.5v234zM412.59192,1.2265l-4.97589,0.27644c-1.30123,0.06266 -2.34153,1.12016 -2.37681,2.4284c-0.87152,0.50908 -1.71405,1.04376 -2.20511,1.88902c-0.70161,1.20768 -0.24398,2.78391 -0.29582,4.17965c-0.11028,2.96931 -0.16657,7.52765 2.02307,9.80122c0.30047,0.31198 0.69502,0.20423 1.10935,-0.06409c-0.09086,0.17641 -0.18665,0.34933 -0.29673,0.51158c-0.4702,0.69297 -1.12175,1.26675 -1.50617,2.01074c-2.0977,4.05966 -2.27519,5.29998 -1.79745,10.08874c0.1883,1.88754 0.46063,3.8051 1.14442,5.57447c0.97541,2.52396 3.44128,4.28334 4.43079,6.80181c0.77293,1.96726 -1.12256,7.19389 -1.4765,8.48195c-1.26004,5.18492 -2.20243,10.45787 -1.41942,15.83579c0.57197,3.92846 2.24562,7.76922 2.80358,11.73059c0.34744,2.46672 -0.29826,2.98064 -0.50641,5.52101c-0.41101,5.01616 -0.61902,11.9396 1.16327,16.61695c0.62189,1.63205 1.87807,2.94525 2.82901,4.41019c1.85052,2.85076 3.83429,5.62783 6.03131,8.22095c1.38472,1.63437 2.2068,4.11935 4.22246,4.8444c4.53361,1.63075 5.48673,-1.47722 6.4115,-4.12262c0.3844,1.00553 1.08101,1.86874 1.58262,2.82336c0.58279,1.10912 1.12251,2.24032 1.68376,3.36048c4.50442,1.07822 7.92011,1.07462 12.56754,1.05249c2.37225,-0.01129 6.42454,0.5241 8.31893,-1.78492c2.37547,-2.89539 3.52132,-10.41191 4.57949,-14.00966c1.64836,-5.60442 3.04586,-11.3629 4.9614,-16.88004c1.69255,-4.87489 3.98812,-9.51444 5.61653,-14.41065c-0.04528,0.18413 -0.07582,0.37679 -0.04652,0.48684c0.25447,0.95555 0.92329,1.77166 1.15221,2.73364c0.28598,1.20174 0.2447,2.45847 0.37565,3.6868c0.33888,3.17857 0.52082,6.38031 0.49795,9.57681c-0.3317,3.65165 -1.15138,8.90927 -0.40812,12.58633c1.22498,6.06015 5.24341,12.62741 7.96796,18.13563c1.0334,2.08924 2.91935,7.86064 6.83807,7.35409c5.99427,-0.77486 2.85016,-10.44482 7.19108,-12.70359c0.70057,-0.36454 1.57159,0.1582 2.35834,0.22683c2.46931,0.21541 4.94281,0.38 7.41354,0.57859c7.34955,0.59072 15.09205,1.90233 21.32148,-2.68807c2.29872,-2.31606 4.7539,-5.01624 5.31689,-8.41586c0.06191,-0.37389 0.04511,-9.42651 0.04511,-9.47277c0,-0.20851 0.00138,-10.03065 -0.00429,-10.1463c-0.45218,-9.21893 6.07499,-49.4001 6.07499,-49.4001c0,0 5.8967,49.71575 7.46156,59.44674c1.39118,8.651 5.05008,16.18894 9.90563,23.36284c1.73535,-0.18009 3.595,0.12933 5.20606,-0.54025c6.68906,-2.78008 3.87505,-13.34319 5.26358,-18.54928c0.74508,-2.79355 1.53045,-2.43571 3.28597,-5.47425c0.95387,-1.65099 0.9636,-3.69084 1.52108,-5.51426c0.06367,-0.20825 0.1116,0.44256 0.26499,0.59713c0.47364,0.4773 1.00437,0.90529 1.57649,1.25859c1.44047,0.88952 2.76616,2.68565 4.44393,2.45915c2.17789,-0.29403 4.61618,-1.73313 5.39636,-3.78763c1.01613,-2.67584 -2.40867,-6.70586 -4.35783,-8.18288c-0.53468,-0.40516 -1.39738,-0.27831 -1.86303,-0.76123c-0.21186,-0.21972 0.19383,-0.57887 0.29222,-0.8678c0.93048,-2.73233 1.79609,-5.48796 2.58216,-8.26527c2.00436,-7.20457 1.41587,-14.45738 2.05779,-21.84381c0.01994,0.19707 0.0747,0.35805 0.19127,0.40122c2.15144,0.79677 4.82738,2.48124 6.76712,1.25611c1.63575,-1.03313 0.46197,-3.85552 0.41059,-5.78953c-0.15115,-5.68952 -2.34368,-12.4376 -6.98273,-15.873c0.01039,-0.00127 0.02047,-0.00312 0.0302,-0.00557c1.31268,-0.33095 2.61181,-0.95464 3.59994,-1.87998c1.3428,-1.25747 2.50417,-2.79199 3.20528,-4.49281c2.288,-5.55053 0.18715,-14.3397 -4.7225,-18.32393c1.9136,-0.57834 3.91159,-1.37064 4.87991,-2.56639c1.43837,-1.77619 1.18015,-6.30692 0.24889,-8.13634c-0.68938,-1.35425 -2.03105,-2.2612 -3.06915,-3.37095c-3.53108,-3.77478 -7.1837,-7.56605 -12.20979,-9.31989c-2.04812,-0.71468 -4.21972,-2.06159 -6.32407,-1.53502c-4.1621,1.04148 -1.97237,5.75213 -4.56905,7.52672c-2.59007,0.25977 -7.72344,1.57583 -9.98802,-0.06476c-2.34187,-1.69659 -2.55076,-5.76561 -5.18712,-6.95404c-1.25393,-0.56524 -2.67182,0.66021 -4.02276,0.91862c-2.37321,0.45394 -4.79156,0.62752 -7.18765,0.939c-3.06891,0.39895 -6.11339,1.17075 -9.20809,1.18637c-1.39055,0.00702 -2.80416,-0.15506 -4.13351,-0.56311c-1.07715,-0.33063 -1.84852,-1.49335 -2.96848,-1.61686c-1.39396,-0.15372 -2.75666,0.5213 -4.12359,0.83474c-6.18417,1.41807 -11.79224,4.17765 -17.79153,6.18519c-2.38114,0.7968 -4.94577,0.98302 -7.30154,1.85198c-0.14964,0.0552 -0.30052,0.11338 -0.45097,0.17532c1.64063,-3.58968 3.58373,-6.97144 0.71354,-11.1829c-0.98473,-1.44491 -3.19939,-1.53395 -4.92789,-1.79801c-5.42617,-0.82892 -10.15944,1.45691 -15.23233,2.41862c-0.83935,0.15912 -1.82155,0.23278 -2.55464,-0.20587c-1.31682,-0.78794 -1.7583,-2.88735 -3.24569,-3.26485c-1.31629,-0.33407 -2.52536,1.00012 -3.79671,1.47751c-3.70929,1.39283 -7.54154,2.54613 -11.51247,2.96988c-3.72191,0.39718 -4.57002,0.35316 -7.54976,-1.91443c-1.38161,-1.05141 -2.09292,-3.26536 -3.80434,-3.55752c-1.51908,-0.25933 -2.82713,1.28783 -4.05781,2.21535c-0.60681,0.45734 -0.91097,1.21725 -1.33411,1.84839c-0.22481,0.33531 -0.30945,1.31989 -0.60756,1.04767c-0.34571,-0.31569 0.13966,-0.95479 0.07452,-1.41666l0.00662,-0.00221l-0.01638,-0.04915c-0.00634,-0.02614 -0.01472,-0.05161 -0.02544,-0.07632l-0.93995,-2.81983c-0.31418,-1.02156 -1.26534,-1.76412 -2.38994,-1.76412c-1.22888,0 -2.25067,0.88666 -2.46053,2.05513l-0.47596,2.3798c-0.76494,2.64895 -3.92778,8.437 -4.06167,10.66101c-0.07617,1.26526 1.21366,2.23055 1.70472,3.39912c0.90469,2.1529 1.13963,2.90104 0.21073,5.12208c-0.39116,0.93528 -2.04875,0.37648 -2.48665,0.38382c-1.36089,0.02283 -2.74259,-0.04251 -4.07701,0.22554z" fill-opacity="0.20392" fill="#2b1b0f"/></g><g data-paper-data="{&quot;index&quot;:null}" stroke-width="0"><path d="M608.2383,-59v119.62512c-2.61055,-0.37847 -5.22077,-0.75425 -7.79267,-1.24984c-2.11098,-0.40677 -5.1073,-0.40906 -7.22273,-0.0382c-1.12616,0.19743 -14.18892,2.10513 -18.28303,3.83308c-16.56596,6.99177 -27.63035,20.78318 -31.4917,38.49214c-2.02373,9.28124 2.67297,16.75105 -3.27987,26.54059c-0.64628,1.0628 -5.64543,2.56972 -6.87023,3.37862c-5.85431,3.86641 -14.74621,10.462 -18.17616,16.73389c-4.36373,7.97939 -4.21854,17.58669 -2.70917,26.6846h-42.07317c2.78779,-2.27122 4.96253,-5.24858 6.08924,-8.78966c1.8076,-5.68104 0.7823,-22.50703 -0.79963,-28.91847c-0.7844,-3.17914 -1.59491,-6.35309 -2.5,-9.5c-0.36927,-1.2839 -1.58689,-2.33222 -1.61538,-3.66787c-0.24737,-11.59561 1.32783,-19.32926 -5.53072,-30.60479c-1.63578,-2.68924 -2.96086,-5.68171 -5.23206,-7.86103c-2.01103,-1.92968 -4.63811,-3.25401 -6.3148,-5.48036c-2.46156,-3.26853 -2.19012,-7.89192 -3.55664,-11.74876c-0.86073,-2.42932 -2.01554,-5.24794 -3.45677,-8.08949c2.36871,-0.51055 4.67474,-1.45819 6.82282,-2.86503c-0.00487,0.17456 -0.00732,0.34972 -0.00732,0.52546c0,7.70902 4.71523,14.31674 11.41894,17.09642c2.18115,0.90441 4.57281,1.40358 7.08106,1.40358c0.06885,0 0.13761,-0.00038 0.20628,-0.00113c9.99892,6.76268 29.01028,17.5277 40.00245,6.04999c2.03779,-2.1278 3.21905,-4.9748 4.34191,-7.69865c1.28577,-3.11906 2.35935,-6.32439 3.28881,-9.58044c1.27255,1.03223 2.67701,2.00261 4.27831,2.93234c13.02615,7.56306 31.29283,-9.0387 31.4975,-22.66793c0.1248,-8.31058 -4.97267,-15.9029 -12.28837,-19.53522c8.13965,-11.17447 13.83037,-28.95638 10.88404,-41.38958c-0.1851,-0.78114 -1.97451,-7.49967 -3.10156,-8.80468c-15.04562,-17.42124 -31.64522,-2.42841 -45.65984,7.49472c-4.76899,3.37672 -6.89237,3.36739 -10.98712,7.76913c-1.35586,-2.72767 -2.65416,-5.75158 -5.2671,-7.17791c-8.73109,-4.76605 -14.36753,-2.44808 -22.40982,1.18012c-6.53469,2.94806 -10.65964,4.71029 -12.83222,12.18773c-0.20719,0.71309 -1.19288,3.06341 -1.06853,4.20735c0.7836,7.20889 4.49494,20.43256 10.51248,23.85641c0.21781,0.12393 0.43394,0.2434 0.64851,0.35851c-0.58407,0.93918 -1.14483,1.86348 -1.68205,2.77755c-0.89025,-2.92662 -2.1749,-5.70846 -3.7662,-8.17975c-2.8144,-4.37079 -6.25116,-8.93904 -11.71086,-9.90731c6.03974,-11.78148 8.24822,-23.14199 8.11338,-36.37122c-0.07834,-7.68601 -1.38122,-16.86601 -4.82318,-23.87073c-1.59157,-3.23898 -4.13817,-5.95181 -5.83911,-9.12927z" fill-opacity="0.25882" fill="#c3beba"/><path d="M372.7383,50.9934v-27.80192c3.19619,1.34699 6.35263,2.27601 9.27387,2.6741c5.85639,0.79806 11.71594,1.66712 17.61571,2.02338c1.29943,0.07847 3.64031,0.7647 4.75062,0.49866c2.7238,-0.65266 5.32402,-1.74225 7.98138,-2.62741c0.69952,-0.233 0.9563,-1.38896 1.69279,-1.42375c0.10834,-0.00511 1.91623,1.59134 2.43564,1.85104c1.34762,0.67381 3.26162,1.46887 5.25344,2.04997c-0.1518,0.47525 -0.27752,0.92243 -0.40125,1.24491c-1.77292,4.62085 -1.74431,8.41876 -0.75663,12.63893c-15.91774,-1.45814 -33.91985,3.34293 -47.84556,8.87209z" fill-opacity="0.25882" fill="#b9b3af"/><path d="M606.23831,-60v120.33354c-1.94168,-0.28672 -3.87779,-0.58929 -5.79267,-0.95826c-2.11098,-0.40677 -5.1073,-0.40906 -7.22273,-0.0382c-1.02083,0.17897 -11.8496,1.7632 -16.91585,3.34502c0.20405,-3.76893 0.20619,-7.56187 0.53893,-11.39072c0.01994,0.19707 0.0747,0.35805 0.19127,0.40122c2.15144,0.79677 4.82738,2.48124 6.76712,1.25611c1.63575,-1.03313 0.46197,-3.85552 0.41059,-5.78953c-0.15115,-5.68952 -2.34368,-12.4376 -6.98273,-15.873c0.01039,-0.00127 0.02047,-0.00312 0.0302,-0.00557c1.31268,-0.33095 2.61181,-0.95464 3.59994,-1.87998c1.3428,-1.25747 2.50417,-2.79199 3.20528,-4.49281c2.288,-5.55053 0.18715,-14.3397 -4.7225,-18.32393c1.9136,-0.57834 3.91159,-1.37064 4.87991,-2.56639c1.43837,-1.77619 1.18015,-6.30692 0.24889,-8.13634c-0.68938,-1.35425 -2.03105,-2.2612 -3.06915,-3.37096c-3.53108,-3.77477 -7.1837,-7.56605 -12.20979,-9.31989c-2.04812,-0.71468 -4.21972,-2.06159 -6.32407,-1.53502c-4.1621,1.04148 -1.97237,5.75213 -4.56905,7.52672c-0.72083,0.0723 -1.63864,0.2264 -2.63679,0.37582c-0.10888,-1.71888 -0.34333,-3.37642 -0.71586,-4.94845c-0.1851,-0.78114 -1.97451,-7.49967 -3.10156,-8.80468c-15.04562,-17.42124 -31.64522,-2.42841 -45.65984,7.49472c-3.60115,2.54982 -5.69376,3.1689 -8.26577,5.21445c-1.115,0.42697 -2.23582,0.84477 -3.36908,1.23905c-1.1541,-2.33305 -2.42178,-4.66268 -4.61937,-5.86229c-0.78448,-0.42822 -1.54398,-0.79927 -2.28248,-1.1173c-0.23219,-0.61026 -0.55904,-1.23627 -0.99896,-1.88177c-0.98473,-1.44491 -3.19939,-1.53395 -4.92789,-1.79801c-5.42617,-0.82892 -10.15944,1.45691 -15.23233,2.41862c-0.83935,0.15912 -1.82155,0.23278 -2.55464,-0.20587c-1.31682,-0.78794 -1.7583,-2.88735 -3.24569,-3.26485c-1.31629,-0.33407 -2.52536,1.00012 -3.79671,1.47751c-0.4205,0.15789 -0.84257,0.31271 -1.26625,0.46374c0.09565,-1.95554 0.13039,-3.94699 0.10963,-5.98269c-0.07834,-7.68601 -1.38122,-16.86601 -4.82318,-23.87073c-1.75586,-3.57335 -4.67413,-6.50632 -6.33687,-10.12927z" fill-opacity="0.20392" fill="#2b1b0f"/><path d="M471.47845,174c2.24003,-2.12002 3.98215,-4.7467 4.95036,-7.78966c1.8076,-5.68104 0.7823,-22.50703 -0.79963,-28.91847c-0.7844,-3.17914 -1.59491,-6.35309 -2.5,-9.5c-0.36927,-1.2839 -1.58689,-2.33222 -1.61538,-3.66787c-0.10468,-4.90689 0.11701,-9.12221 -0.11212,-13.20701c1.74422,4.06211 4.07378,8.10854 5.85211,11.70379c1.0334,2.08924 2.91935,7.86064 6.83807,7.35409c5.99427,-0.77486 2.85016,-10.44482 7.19108,-12.70359c0.70057,-0.36454 1.57159,0.1582 2.35834,0.22683c2.46931,0.21541 4.94281,0.38 7.41354,0.57859c7.34955,0.59072 15.09205,1.90233 21.32148,-2.68807c2.29872,-2.31606 4.7539,-5.01624 5.31689,-8.41586c0.06191,-0.37389 0.04511,-9.42651 0.04511,-9.47277c0,-0.20851 0.00138,-10.03065 -0.00429,-10.1463c-0.15494,-3.15904 0.50964,-9.95373 1.45029,-17.52149c2.75159,0.53666 5.61123,0.23769 8.3974,-0.68552c1.48768,12.06377 3.0036,23.99242 3.68886,28.25364c0.39983,2.48637 0.987,4.8808 1.73605,7.20107c-0.6945,7.97701 2.4738,14.86563 -2.83832,23.60149c-0.64628,1.0628 -5.64543,2.56972 -6.87023,3.37862c-5.85431,3.86641 -14.74621,10.462 -18.17616,16.73389c-4.20416,7.6876 -4.22313,16.88624 -2.86912,25.6846z" fill-opacity="0.20392" fill="#2b1b0f"/><path d="M402.77036,31.34818c0.1883,1.88754 0.46063,3.8051 1.14442,5.57447c0.7649,1.97925 2.44634,3.48832 3.61365,5.26197c-12.97508,1.16174 -26.22069,5.24995 -36.79014,9.61914v-29.50705c3.87148,1.83186 7.74435,3.0879 11.27387,3.56887c5.85639,0.79806 11.71594,1.66712 17.61571,2.02338c0.76823,0.04639 1.90048,0.30521 2.92724,0.45409c0.01859,0.84823 0.09677,1.81757 0.21524,3.00513z" fill-opacity="0.20392" fill="#2b1b0f"/><path d="M467.66813,75.90157c0.25447,0.95555 0.92329,1.77166 1.15221,2.73364c0.28598,1.20174 0.2447,2.45847 0.37565,3.6868c0.33888,3.17857 0.52082,6.38031 0.49795,9.57681c-0.19909,2.19181 -0.574,4.96219 -0.6812,7.6221c-0.75974,-1.90901 -1.74728,-3.89345 -3.02967,-6.00171c-1.09395,-1.79847 -2.04894,-3.73256 -3.24089,-5.46835c1.55392,-4.11764 3.43417,-8.10759 4.85124,-12.27567c0.02104,0.00608 0.0421,0.01212 0.06317,0.01813c-0.00009,0.04111 0.00343,0.07783 0.01154,0.10825z" fill-opacity="0.20392" fill="#2b1b0f"/></g><path d="M320.23825,361.00002v-374h51.58846c0.00512,6.15944 -0.02817,12.31899 -0.08846,18.47797c-0.05368,5.48435 -0.09181,10.97612 -0.48372,16.44671c-0.4217,5.88634 -1.34731,11.72596 -1.95511,17.596c-0.38091,3.67878 -0.0172,11.14765 -0.06117,12.17035c-0.27533,6.40332 -1.4075,15.04889 -2.38185,21.38888c-1.76132,11.46067 -7.64797,26.94544 -0.98144,38.05632c5.75189,9.58646 17.59143,11.26404 24.65463,19.92223c5.93209,7.27164 10.68289,17.6224 20.28331,20.76795c4.6077,1.50969 9.81231,1.48143 14.55949,2.14026c16.07334,2.23072 32.08334,2.22904 48.31202,3.15831c9.62107,0.55091 19.16291,2.32927 28.73222,3.41228c16.42371,1.85875 39.24499,0.96864 55.53554,-4.62752c8.0821,-2.77638 11.49975,-9.56646 17.66797,-15.0245c3.03449,-2.68511 5.94317,-4.03984 8.63201,-7.25333c6.44249,-7.69956 8.94074,-18.88891 12.31152,-28.09097c3.00723,-8.20956 6.54954,-16.0496 7.03804,-24.86968c1.14049,-20.59202 1.12207,-42.68757 -0.41514,-63.7716c-0.70667,-9.69255 -1.2768,-19.78167 -4.03852,-29.07193c-0.04291,-0.14435 -0.13095,-0.4363 -0.25251,-0.82775h48.34275v374z" data-paper-data="{&quot;index&quot;:null}" fill="#382414" stroke-width="0"/><path d="M320.23825,361.00002v-374h51.58846c0.00512,6.15944 -0.02817,12.31899 -0.08846,18.47797c-0.05368,5.48435 -0.09181,10.97612 -0.48372,16.44671c-0.4217,5.88634 -1.34731,11.72596 -1.95511,17.596c-0.38091,3.67878 -0.0172,11.14765 -0.06117,12.17035c-0.27533,6.40332 -1.4075,15.04889 -2.38185,21.38888c-1.76132,11.46067 -7.64797,26.94544 -0.98144,38.05632c5.75189,9.58646 17.59143,11.26404 24.65463,19.92223c5.93209,7.27164 10.68289,17.6224 20.28331,20.76795c4.6077,1.50969 9.81231,1.48143 14.55949,2.14026c16.07334,2.23072 32.08334,2.22904 48.31202,3.15831c9.62107,0.55091 19.16291,2.32927 28.73222,3.41228c16.42371,1.85875 39.24499,0.96864 55.53554,-4.62752c8.0821,-2.77638 11.49975,-9.56646 17.66797,-15.0245c3.03449,-2.68511 5.94317,-4.03984 8.63201,-7.25333c6.44249,-7.69956 8.94074,-18.88891 12.31152,-28.09097c3.00723,-8.20956 6.54954,-16.0496 7.03804,-24.86968c1.14049,-20.59202 1.12207,-42.68757 -0.41514,-63.7716c-0.70667,-9.69255 -1.2768,-19.78167 -4.03852,-29.07193c-0.04291,-0.14435 -0.13095,-0.4363 -0.25251,-0.82775h48.34275v374z" data-paper-data="{&quot;index&quot;:null}" fill="url(#color-1)" stroke-width="0"/><path d="M616.35802,131.7805c0,0 -8.35765,3.46086 -16.23284,10.38223c-0.86221,0.75778 -1.71864,-2.39501 -2.55768,-1.44788c-1.04953,1.18473 -2.07185,15.32774 -3.04427,16.40068c-0.54907,0.60582 0.16298,-11.26259 -0.3604,-10.60437c-7.37172,9.27109 -11.6496,25.98885 -11.6496,25.98885c0,0 -2.12652,-1.20759 -3.56795,3.89785c-0.75865,2.68708 -0.42378,11.82237 -1.44998,13.607c-0.99224,1.72558 -1.86611,-6.67687 -3.09907,-4.15114c-1.314,2.69176 -2.05517,25.14629 -3.72461,25.14629c-1.47706,0 -5.98972,-38.5 -7.5,-38.5c-2.03955,0 -4.65403,3.25 -7.75,3.25c-1.03136,0 -2.61614,-1.50218 -3.75091,-1.50641c-2.65859,-0.00993 -6.08957,1.22463 -9.24876,1.2044c-4.56963,-0.02927 -11.86213,-1.83006 -17.24465,-1.89799c-19.22002,-0.24254 -41.07871,-0.7429 -62.25546,-0.698c-0.83397,0.00176 -2.1661,-1.74291 -2.99615,-1.73376c-1.50889,0.01664 -3.01083,4.52455 -4.50427,4.52239c-1.429,-0.00206 -3.59736,-4.49625 -5.00334,-4.48164c-1.43258,0.01489 -2.85229,2.03191 -4.2573,2.05119c-9.81167,0.13468 -19.11833,0.16812 -26.76329,0.67788c-1.10989,0.07401 -2.68919,-2.09348 -3.73583,-2.00192c-2.03288,0.17783 -3.94254,9.83487 -5.71377,9.96673c-1.24266,0.0925 -2.41718,-2.32124 -3.51831,-2.24214c-1.6774,0.1205 -2.93578,8.43167 -4.25674,8.42417c-4.0469,-0.02297 -6.33477,-15.53491 -6.33477,-15.53491c0,0 -0.81244,-17.54219 -14.13058,-29.76676c-1.10494,-1.0142 -3.33599,3.79817 -4.64594,2.93353c-1.50435,-0.99296 -3.08729,-12.03604 -4.68545,-13.08798c-1.22717,-0.80775 -2.46332,2.84182 -3.67973,2.40541c-7.12754,-2.55713 -13.57781,-3.73253 -13.57781,-3.73253v-197.25167h261.23947v197.78049zM567.60038,155.15456c0,0 4.23333,-13.97869 9.33501,-21.16901c6.41076,-9.03535 19.85612,-14.36802 19.85612,-14.36802v-170.2816l-222.72515,25.60242l-1.21373,142.48799c0,0 14.91745,4.2667 24.72417,13.18593c8.95759,8.14695 11.1646,24.43651 11.1646,24.43651l158.85898,0.10577z" data-paper-data="{&quot;index&quot;:null}" fill="url(#color-2)" stroke-width="0"/><path d="M608.98829,128c0,0 -12.51409,3.27377 -20.98538,13.92773c-6.9699,8.76576 -11.01461,24.57227 -11.01461,24.57227h-176.5c0,0 -0.76815,-16.58601 -13.36036,-28.14426c-8.56367,-7.8605 -25.13964,-10.85574 -25.13964,-10.85574v-186.5h247v187zM562.8883,150.10001c0,0 4.00259,-13.21675 8.82618,-20.01514c6.06133,-8.54286 18.77382,-13.58486 18.77382,-13.58486v-161l-210.585,24.2069l-1.14757,134.72135c0,0 14.10435,4.03413 23.37653,12.4672c8.46933,7.70288 10.55604,23.10454 10.55604,23.10454l150.2,0.1z" data-paper-data="{&quot;index&quot;:null}" fill="url(#color-3)" stroke-width="0"/><path d="M609.15495,128c0,0 -12.51409,3.27377 -20.98538,13.92773c-6.9699,8.76576 -11.01461,24.57227 -11.01461,24.57227l-14.1,-16.4c0,0 4.00259,-13.21675 8.82618,-20.01514c6.06133,-8.54286 18.77382,-13.58486 18.77382,-13.58486l18.5,11.5z" data-paper-data="{&quot;index&quot;:null}" fill="url(#color-4)" stroke-width="0"/><path d="M378.9224,114.2616c0,0 14.10434,4.03413 23.37652,12.4672c8.46934,7.70288 10.55605,23.10454 10.55605,23.10454l-12.2,16.5c0,0 -0.76815,-16.58601 -13.36036,-28.14426c-8.56367,-7.8605 -25.13964,-10.85574 -25.13964,-10.85574z" data-paper-data="{&quot;index&quot;:null}" fill="url(#color-5)" stroke-width="0"/><path d="M320.48829,259.00002c0,0 0,-1.13632 1.08343,-1.24212c-0.01509,-0.12453 -0.03162,-0.24841 -0.04977,-0.37155c-0.38855,-2.63533 -0.63327,-11.40747 -0.78635,-20.66285c0.67397,6.79811 2.26857,13.57644 3.25961,20.2982c0.35129,2.38264 0.05936,5.08461 0.5393,7.40695c0.2763,1.337 0.95649,2.58197 1.13403,3.93563c0.59976,4.94435 3.09865,9.49627 3.81038,14.48301c0.28729,2.01291 0.66426,2.57735 1.43309,4.72279c0.04464,0.12459 0.11334,0.29711 0.18815,0.48641c0.29131,-1.13542 1.3093,-2.57272 1.46576,-2.99016c1.51782,-4.04958 1.8197,-8.30045 3.46197,-12.37851c0.77247,-6.57844 3.09392,-12.95253 4.48652,-19.4421c1.90017,-8.85485 2.15555,-18.46556 5.02085,-27.08119c0.52016,-1.55149 1.7504,-7.34199 3.45168,-7.88898c0.94343,-0.30332 1.83508,0.93623 2.40618,1.74612c0.34191,0.48486 -0.02419,1.19387 0.07901,1.77812c0.40252,2.2789 0.51614,4.3312 0.51614,6.70023c0,10.83334 0,21.66667 0,32.5c0,8.17751 0.43509,16.27141 1.7342,24.35854c1.01955,6.34686 2.14789,12.49156 6.80828,17.17478c0.22927,0.19103 0.90488,1.18759 1.38851,0.52236c1.83618,-2.52561 3.76411,-6.71741 4.97903,-9.63425c3.59556,-8.63242 4.04297,-18.69096 7.76201,-27.23898l-0.24105,-0.06027l0.59999,-2.39999c0.12633,-0.55665 0.62414,-0.9722 1.21902,-0.9722c0.69036,0 1.25,0.55964 1.25,1.25v1.5c0,9.19257 -1.86824,20.1162 2.43205,28.54796c1.3512,2.64936 4.05351,8.46845 7.93406,7.56815c0.52835,-2.53218 2.11841,-4.91789 2.66733,-7.4033c0.36672,-1.66043 0.19427,-3.67073 0.47734,-5.3766c0.27258,-1.64264 1.15867,-3.12494 1.62883,-4.72229c0.82367,-2.79836 1.31101,-5.99132 1.88456,-8.85855c1.31058,-6.55173 2.26229,-13.01788 3.99724,-19.48576c1.06062,-9.74818 1.43691,-19.56008 1.98014,-29.33187c0.22393,-4.02813 0.34293,-7.7674 1.12828,-11.76014c0.33125,-1.68409 0.12018,-3.5516 0.93144,-5.06414c0.02939,-0.05479 0.05991,-0.10878 0.09151,-0.16205l-0.02082,-0.01041l0.98789,-1.97578c0.20043,-0.4228 0.63113,-0.7152 1.13014,-0.7152c0.69036,0 1.25,0.55964 1.25,1.25v0v1.38398c0.73263,2.86935 1.58306,5.54057 1.99063,8.46329c0.80869,5.79914 0.00937,12.29717 0.00937,18.15273c0,7.89988 -0.47397,15.96412 0.48752,23.82376c0.47414,3.87581 2.50446,7.35046 3.16569,11.06787c0.07085,-0.38661 0.30837,-0.72438 0.46306,-1.08617c0.92066,-2.15326 1.94608,-3.99534 3.11196,-6.02553c0.7746,-0.90831 3.25769,-4.02209 4.26206,-4.00662c0.92978,0.01432 1.08726,1.52522 1.45986,2.3772c0.83895,1.91832 0.8137,5.14396 1.04068,7.22305c0.70095,6.42055 0.34458,13.0715 1.00235,19.49601c0.48702,4.7568 2.07485,9.67246 3.44714,14.23253c0.82396,2.77918 2.95383,6.89859 6.17192,7.70153c1.58941,0.39657 2.46705,-0.35738 3.98504,-0.54427c2.8212,-0.34734 6.01544,-1.81061 8.32547,-3.69646c1.26642,-1.03386 1.31587,-2.43316 1.59471,-3.77105c0.91388,-4.38483 2.49265,-8.71634 3.47385,-13.14623c2.45098,-11.01571 3.2087,-22.55172 5.38125,-33.6737c0.80493,-4.12073 1.16562,-8.54306 3.02422,-12.25632l-0.33264,-0.11088l0.49088,-1.47266c0.15708,-0.51078 0.63267,-0.88206 1.19497,-0.88206c0.69036,0 1.25,0.55964 1.25,1.25v1.5c0,9.66667 0,19.33333 0,29c0,15.64777 -0.10707,33.52082 11.38413,45.40536c7.93816,1.39972 18.49901,0.66384 23.89919,-6.19784c3.46248,-4.39956 4.77594,-9.65114 6.53133,-14.80156c1.09726,-3.03711 1.3417,-6.1954 2.24562,-9.2894c3.65333,-12.5049 6.31699,-26.0839 7.13028,-39.20427c0.66766,-10.68257 2.94056,-21.1203 4.82887,-31.63174c0.82733,-4.60541 1.38596,-9.19612 2.47942,-13.70185c0.00078,-0.19289 0.00117,-0.38579 0.00117,-0.57871v-2.5c0,-0.69036 0.55965,-1.25 1.25,-1.25c0.69035,0 1.25,0.55964 1.25,1.25v2.5c0,16.8778 -3,33.6127 -3,50.5c0,16.62632 0.60611,33.2359 0.49063,49.84727c1.15926,4.54451 4.36744,10.74126 9.54655,11.93617c2.52494,0.58255 6.10192,-1.22268 8.35906,-1.97664c5.28013,-1.76373 10.69676,-3.22772 15.95847,-4.99265c2.28787,-0.74281 5.18236,-1.87499 7.12602,-3.2994c5.21362,-3.82079 5.05244,-10.5338 5.61453,-16.17371c0.48313,-4.84757 0.90787,-9.84434 2.01786,-14.61942c1.12556,-6.74582 2.44195,-13.38067 3.2646,-20.13149c0.02665,-0.58713 0.06881,-1.16891 0.13165,-1.74285c0.07323,-0.66886 0.16549,-1.31636 0.26407,-1.95314c0.09005,-0.98705 0.16707,-1.97743 0.22898,-2.9718c0.2598,-4.17287 0.06516,-8.43162 0.49759,-12.57688c0,-0.78182 0,-1.56364 0,-2.34545c0,-0.33334 0,-2.16666 0,-2.5c0,-0.69036 0.55965,-1.25 1.25,-1.25c0.69035,0 1.25,0.55964 1.25,1.25v2.5c0,0.34506 0,0.69012 0,1.03519c0.3783,1.50358 0.23175,3.25705 0,4.97694c0,1.82928 0,3.65857 0,5.48786c0,3.06758 -0.67182,5.66186 -1.00937,8.65273c-0.37643,3.33542 0.00937,6.98087 0.00937,10.34727c0,7.13708 0.00617,14.2742 -0.00316,21.41127c1.03801,7.17726 1.68303,15.21281 4.15047,22.04286c0.68644,1.90011 2.93854,3.57629 4.78369,1.60155c0.80515,-0.86169 1.16545,-2.05169 1.69611,-3.10487c0.81152,-1.61058 1.26152,-3.66022 1.93353,-5.3354c1.96002,-7.72308 2.66028,-16.31043 3.44545,-24.23859c0.54774,-5.53069 -0.07889,-11.14809 0.49392,-16.62021c0,-0.75221 0,-1.50441 0,-2.25662c0,-0.33333 0,-2.16667 0,-2.5c0,-0.69036 0.55965,-1.25 1.25,-1.25c0.69035,0 1.25,0.55964 1.25,1.25v2.5c0,0.47772 0,0.95543 0,1.43314c0.27831,1.53733 0.16331,3.34095 0,5.05288c0,6.67133 0,13.34265 0,20.01398c0,7.16667 0,14.33333 0,21.5c0,2.86152 -1.06781,7.82603 1.15807,10.14098c1.84889,1.92289 5.36105,1.26572 7.74245,0.65887c1.71172,-0.5565 3.55525,-2.71582 5.10206,-3.02511c2.71351,-0.54257 2.84213,0.98784 4.47832,2.21121c2.07979,1.55505 6.55772,1.11025 8.51037,-0.47933c6.2971,-5.12625 5.59032,-12.9746 7.04049,-20.32267c1.06966,-8.01036 2.11311,-16.274 3.75274,-24.16511c0.32742,-1.57578 1.09381,-3.06687 1.22158,-4.67122c0.53741,-6.74838 1.20538,-13.45283 2.52024,-20.10272c0.50861,-2.34436 0.55494,-4.90344 1.07051,-7.17389c0.43947,-1.93534 1.81378,-4.97707 4.52589,-4.76415c0.88026,0.0691 0.938,1.50112 1.31389,2.30009c2.37412,5.04625 3.00262,11.4795 4.10911,16.81911c0.20236,0.97654 0.78584,3.5358 1.58818,4.19005c0,0 0.88389,0.88388 0,1.76777c-0.17835,0.17835 -0.35671,0.28472 -0.5278,0.34091c0.59224,1.53124 1.15311,3.08365 1.38454,4.62248c1.48055,9.84419 1.00937,20.10129 1.00937,30.15273c-0.0033,2.8385 -0.70449,5.39207 -1.00937,8.15273c-0.60197,5.4508 -0.54277,10.98751 -0.99489,16.45037c-0.64618,7.80756 -2.99574,15.01641 -2.99574,22.8969c0,4.9998 0.02522,10.00027 0,15c-0.00717,1.42225 -0.21612,4.22716 -1.30568,5.319c-1.8422,1.84607 -5.25112,1.91562 -7.63157,2.34868c-5.76469,1.04874 -11.60118,1.66821 -17.41888,2.34593c-7.10441,0.82761 -14.17464,0.70826 -21.2937,1.23273c-10.01435,0.73776 -19.84588,2.08044 -29.90331,2.45924c-17.0279,1.17444 -34.02799,0.97778 -51.01294,2.865c-16.55597,1.8386 -33.03406,1.21441 -49.62995,1.87825c-17.2368,0.68947 -34.26006,2.80116 -51.55395,2.80116c-17.32814,0 -34.43811,-1.98253 -51.61644,-4.12982c-10.83025,-1.35477 -21.34888,-2.69193 -31.89738,-5.64728c-2.6384,-0.73919 -9.43057,-0.40667 -10.64103,-3.49454c-0.30172,-0.7697 -0.06343,-1.65224 -0.09515,-2.47836c0,-12 0,-24 0,-36c0,-11.92069 0.5,-23.62135 0.5,-35.5c0,-10 0,-20.5 0,-30.5zM320.48921,233.46229c-0.23999,-4.79195 -0.00092,-9.66317 -0.00092,-14.46229c0,-2.33334 0,-6.16666 0,-8.5c0,0 0.03794,13.5638 0.24732,26.22348c-0.10773,-1.08661 -0.19194,-2.17372 -0.2464,-3.26119z" data-paper-data="{&quot;index&quot;:null}" fill="url(#color-6)" stroke-width="0.5"/><path d="M557.9883,284.5v1c-0.00538,0.56675 -0.01076,1.13348 -0.01614,1.70023c-1.11037,3.33111 -1.00303,7.65567 -3.9517,10.27482c-2.22899,1.97991 -6.58543,0.49132 -8.89465,-0.37422c-2.97379,-1.11463 -6.37416,-1.86205 -9.04467,-3.53751c-2.42637,-1.52229 -4.24151,-5.81919 -5.0767,-8.36309c0,-3.1833 -1.49947,-6.06994 -1.51614,-9.20023c-0.04188,-7.86703 0.80413,-15.33886 1.50505,-23.11226c0.43909,-4.86953 -0.00505,-9.99526 -0.00505,-14.88774c0,-11.09181 -0.44456,-21.97326 2.1225,-32.82146c1.23205,-5.20656 1.59134,-10.82905 3.96872,-15.67264c0.89179,-1.79713 1.73438,-5.50506 3.56896,-6.60799c0.2982,-0.17927 3.03132,-0.15072 3.58982,-0.14791c2.50714,0.01264 4.31263,0.66592 6.50569,1.60685c2.73313,1.17266 6.06707,1.22568 8.03566,3.95171c2.5167,3.48504 1.20865,11.21895 1.20865,15.19144c0,6.14095 0.01729,12.22044 -1.01614,18.20023c-0.58121,3.36308 0.33966,7.06949 0.00011,10.47386c-0.44401,4.45168 -0.98397,8.82286 -0.98397,13.32607c-0.00325,12.666 -0.06201,25.24437 -0.66192,37.86919c0.66192,0.31249 0.66192,1.13065 0.66192,1.13065z" data-paper-data="{&quot;index&quot;:null}" fill-opacity="0.02353" fill="#ffa55c" stroke-width="0.5"/><path d="M496.4883,281.5v0.5c-0.01056,1.13725 -0.20373,2.28411 -0.55098,3.3671c-0.88237,4.37419 -0.7935,9.2887 -3.70563,12.89164c-0.43713,0.54082 -1.15649,0.77528 -1.7009,1.20794c-7.26226,5.77148 -13.6487,-5.45865 -15.52634,-11.26645c-0.01288,-5.24169 -2.46872,-10.39955 -3.01188,-15.59713c-0.39458,-3.77575 -0.00426,-7.805 -0.00426,-11.6031c0,-7.33333 0,-14.66666 0,-22c0,-6.66537 -0.31585,-13.42028 0.00242,-20.07767c0.21673,-4.53339 1.58938,-8.78727 2.52356,-13.17585c1.10697,-5.2003 1.9053,-9.36762 4.44461,-14.12883c1.25885,-2.35374 3.43955,-6.78358 5.71219,-8.23154c2.3683,-1.5089 7.16739,0.92867 9.10413,1.98046c2.08177,1.13055 4.96601,1.67247 6.79034,3.19634c4.72244,3.94465 4.42274,11.00658 4.42274,16.4371c0,16.15966 -1.03401,32.19833 -2.79538,48.26162c-0.62959,5.74063 -1.29198,11.45053 -2.74578,17.05648c-0.8989,3.46623 -2.0977,6.96927 -3.14292,10.5043c0.18408,0.329 0.18408,0.67759 0.18408,0.67759z" data-paper-data="{&quot;index&quot;:null}" fill-opacity="0.02353" fill="#ffa55c" stroke-width="0.5"/><path d="M448.74279,268.72396c0.24551,0.3537 0.24551,0.77605 0.24551,0.77605l-0.03732,0.80317c-0.59923,2.39248 -2.33217,6.0725 -4.72504,8.75838c-0.10668,0.27371 -0.20766,0.55135 -0.30178,0.83373c0,0 -0.36454,1.09358 -1.44364,0.83034c-1.85959,1.4689 -3.98642,2.20204 -6.22057,1.42923c-4.06409,-1.4058 -4.27165,-8.38974 -4.27165,-11.65485c0,-17.02764 -0.00207,-34.05527 0.00115,-51.08291c0.01351,-6.85488 0.4573,-13.01632 2.15429,-19.67701c0.64546,-2.53345 1.08285,-5.16627 2.44906,-7.44427c0.8988,-1.49866 2.87372,-4.5764 4.52963,-5.38357c2.74751,-1.33926 6.26739,-0.29879 7.70362,2.47188c0.8478,1.63552 1.51297,3.97583 2.1124,5.76639c1.35307,5.41229 1.04985,10.76495 1.04985,16.34948c0,10.24995 -0.27207,20.35529 -1.00251,30.5792c-0.48765,8.78176 -0.04478,18.04888 -2.243,26.64475z" data-paper-data="{&quot;index&quot;:null}" fill-opacity="0.02353" fill="#ffa55c" stroke-width="0.5"/><path d="M425.14788,227.30888c0.9247,0.26548 0.8358,1.29832 0.8358,1.29832l-0.1014,1.13232c-0.13275,0.78786 -0.2655,1.57573 -0.39825,2.36359c0.00489,2.17802 0.13579,4.98699 -0.48732,7.29627c-0.00546,1.0334 -0.00842,2.06694 -0.00842,3.10063c0,0 0,1.25 -1.25,1.25c-0.66872,0 -0.97969,-0.35775 -1.1243,-0.69048c-1.53281,1.02991 -3.38128,0.78614 -4.53055,-1.58116c-0.21837,-0.44979 0.1857,-1.03576 0,-1.5c-0.17507,-0.43769 -0.82933,-0.56058 -1,-1c-0.56838,-1.46339 -0.43663,-3.90963 -0.6079,-5.44652c-0.44549,-3.99763 -1.66647,-7.90761 -1.9841,-11.94323c-0.22243,-2.82605 -0.00314,-5.75255 -0.00314,-8.58861c0,-7.70723 -0.65088,-15.52726 2.48445,-22.75963c0.18604,-0.42915 2.6998,-5.71366 3.20653,-5.85841c1.02518,-0.29284 2.27963,0.17497 3.07307,0.88715c0.51756,0.46455 0.10039,1.3901 0.22607,2.07412c0.12794,0.69631 0.42615,1.3561 0.53279,2.05598c0.63061,4.13855 1.06041,8.36175 1.47553,12.53852c0.00514,8.46873 -0.19111,16.91979 -0.33885,25.37114z" data-paper-data="{&quot;index&quot;:null}" fill-opacity="0.02353" fill="#ffa55c" stroke-width="0.5"/><path d="M392.52122,247.48872c0.4671,0.3628 0.4671,1.0113 0.4671,1.0113l-0.06414,0.89529c-0.12859,0.38578 -0.26436,0.93467 -0.42947,1.54152c-0.00415,0.85454 -0.00638,1.70893 -0.00638,2.56319c0,0 0,1.25 -1.25,1.25c-0.19557,0 -0.36056,-0.03059 -0.49972,-0.08222c-0.67105,0.58673 -1.55987,0.68899 -2.76954,-0.18252c-1.64366,-1.18419 -0.72611,-2.8561 -0.9646,-4.28503c-0.60872,-3.64722 -1.47533,-7.33259 -2.00782,-11.03726c-2.1073,-10.5339 -2.40039,-21.93983 -2.63087,-32.70403c-0.03662,-1.71033 -0.45075,-3.62572 -0.74262,-5.54352c-0.18351,0.86859 -0.37274,1.73614 -0.57711,2.60084c-1.91848,8.11345 -1.98934,16.40782 -3.06933,24.65375c-1.11095,8.48223 -2.6721,17.10115 -5.18473,25.28384c-0.7411,2.40924 -1.57974,4.79179 -2.45218,7.15688c-0.80788,2.19007 -1.80722,4.0469 -3.02034,6.01668c-0.4932,0.80084 -0.60137,1.97992 -1.42397,2.4359c-3.94792,2.18843 -5.77517,-3.24959 -6.38461,-5.82693c-0.57921,-2.44946 -0.02256,-5.74872 -0.02256,-8.23638c0,-4.66667 0,-9.33334 0,-14c0,-7.2113 0.62265,-14.73657 -0.0831,-21.91266c-0.45877,-4.66471 -1.45151,-9.29895 -1.91082,-13.96417c-0.4707,-4.78091 0.00251,-9.83851 -0.01233,-14.6462c-0.01173,-3.84515 -0.15303,-7.55221 -0.70845,-11.35662c-0.06922,-0.47413 -0.30903,-1.35211 -0.35252,-2.20022c-0.2283,0.26238 -0.46351,0.52109 -0.66236,0.80183c-1.37867,1.94642 -2.66196,3.97707 -3.97728,5.96677c-3.98933,6.03469 -6.55773,11.81409 -8.84236,18.65858c-1.33397,5.43131 -2.84357,10.92627 -3.97435,16.39425c-1.42609,6.89596 -1.23875,14.28795 -3.02819,21.11437c-0.56524,2.15631 -2.73892,8.37432 -5.12912,8.89214c-0.86673,0.18777 -1.42162,-1.06061 -2.13244,-1.59092c-2.75863,-7.83045 -2.68669,-15.44143 -2.68669,-23.65716c0,-7.17493 -0.00001,-14.34988 0.00001,-21.52482c0.0002,-16.8302 0.49999,-33.62585 0.49999,-50.47518c0,-9.97677 -0.4939,-20.10581 0.00191,-30.06913c0.30011,-6.03079 1.08235,-12.10004 1.53786,-18.12873c0.11942,-3.4143 0.96109,-6.60899 1.47191,-9.97268c0.45306,-2.98338 0.37286,-6.21778 1.02175,-9.11665c0.31224,-1.39493 1.15944,-2.62865 1.50388,-4.01598c0.50814,-2.04666 1.45668,-6.24157 3.62286,-7.29893c1.16475,-0.56854 2.63357,0.3753 3.74698,1.03878c2.5544,1.52215 5.15071,3.32087 7.78715,4.74431c1.843,4.78118 1.30568,9.74565 1.30568,14.819c0,7.83334 0,15.66666 0,23.5c0,7.2728 -0.44656,14.74913 2.8729,21.45081c2.18736,4.41608 6.38901,8.2844 9.83869,11.75054c2.40064,3.48763 5.49074,5.4832 8.4223,8.41477c1.73151,1.7315 2.97668,3.36691 4.9086,4.9172c2.86875,2.30206 6.47896,3.99459 9.0914,6.5828c2.50714,2.48388 4.21821,5.79235 6.15618,8.69051c2.15998,3.30472 2.07237,6.77321 2.69379,10.49314c1.37656,8.24025 0.51614,17.2727 0.51614,25.70023c0,10.85597 -0.35575,21.684 -0.4671,32.4887z" data-paper-data="{&quot;index&quot;:null}" fill-opacity="0.02353" fill="#ffa55c" stroke-width="0.5"/><path d="M634.37132,132.24506c-0.49373,10.48339 -2.38209,20.76847 -2.38325,31.29403c-0.10129,16.27765 -4.20662,32.43075 -5.69332,48.62163c-1.53688,16.70179 -4.2293,33.20714 -4.32248,50.01339c-1.69167,8.45424 -3.51332,18.29978 -7.31878,26.2188c-1.69573,3.52874 -5.70877,6.05619 -9.57236,3.67043c-1.99886,-1.23429 -2.3437,-4.11306 -3.02869,-6.16803c-1.92578,-5.77733 -2.8507,-11.73916 -4.03796,-17.64075c-0.27867,-1.38521 -1.15065,-2.59643 -1.49275,-3.96735c-0.69039,-2.76663 -0.61681,-5.82095 -1.02407,-8.63446c-0.39541,-2.73164 -1.50628,-5.18657 -1.5,-8c-0.94347,-3.7739 -0.94967,-7.64128 -1.49322,-11.4525c-0.7855,-5.50769 -2.01614,-11.12863 -2.01614,-16.70023c0,-0.89208 -0.07661,-1.89554 -0.14899,-2.93621c-1.87499,7.28349 -4.01556,14.49843 -4.85475,22.05539c-0.00804,1.67636 -0.29196,3.34086 -0.50234,5.00399c-0.51701,4.08715 0.60489,8.21869 -0.54377,12.22631c-0.53464,1.86536 -1.76674,6.61894 -5.08403,4.0344c-0.44202,-0.34438 -0.36612,-3.15573 -0.36612,-3.88388c0,-4.93285 0.41257,-9.77363 0.65737,-14.69163c0.61522,-4.33031 0.50119,-8.56894 0.84629,-12.90392c0.47839,-6.00939 2.70902,-11.68763 3.50838,-17.57752c0.61546,-4.53488 1.72635,-9.72908 2.96522,-14.21109c1.56211,-5.60423 2.26521,-11.53496 4.0904,-17.02152c1.27784,-3.84124 3.24575,-7.59218 5.07218,-11.16883c0.99539,-1.94924 1.70594,-3.98832 3.14348,-5.71799c1.80217,-2.16841 4.08974,-4.09835 6.08279,-6.0914c2.28538,-2.26737 4.93228,-4.00288 7.90553,-5.27097c1.74894,-0.74592 3.74347,-0.76806 5.47266,-1.48829c0.93346,-0.3888 1.4814,-1.39998 2.34853,-1.92017c1.22364,-0.73405 3.28123,-0.68712 4.09385,-2.09385c0.6919,-1.19773 0.66224,-3.78981 0.82406,-5.00636c0.52243,-3.92769 0.99134,-7.87273 0.98926,-11.83648c0,-10.66657 -0.02406,-21.33346 0,-32c0.00483,-2.14334 -0.37983,-8.83599 3.65567,-8.18234c0.86241,0.13969 0.85345,1.52471 1.28018,2.28706c4.05441,12.48128 3.56415,26.88146 3.56415,39.89528c0,0 0,1.15966 -1.11697,1.24504z" data-paper-data="{&quot;index&quot;:null}" fill-opacity="0.02353" fill="#ffa55c" stroke-width="0.5"/><path d="M320.98828,335.12954c0,0 0,-0.73942 1.08343,-0.80826c-0.01509,-0.08104 -0.03162,-0.16164 -0.04977,-0.24177c-0.38855,-1.71481 -0.63327,-7.42288 -0.78635,-13.4454c0.67397,4.42355 2.26857,8.83424 3.25961,13.20812c0.35129,1.5504 0.05936,3.30858 0.5393,4.81974c0.2763,0.86999 0.95649,1.6801 1.13403,2.56093c0.59976,3.21731 3.09865,6.17927 3.81038,9.42416c0.28729,1.30981 0.66426,1.6771 1.43309,3.07314c0.04464,0.08107 0.11334,0.19333 0.18815,0.31651c0.29131,-0.73883 1.3093,-1.67408 1.46576,-1.94571c1.51782,-2.63508 1.8197,-5.40114 3.46197,-8.05475c0.77247,-4.28062 3.09392,-8.42827 4.48652,-12.65106c1.90017,-5.76189 2.15555,-12.01561 5.02085,-17.62184c0.52016,-1.00957 1.7504,-4.77747 3.45168,-5.1334c0.94343,-0.19738 1.83508,0.6092 2.40618,1.1362c0.34191,0.3155 -0.02419,0.77686 0.07901,1.15703c0.40252,1.48289 0.51614,2.81833 0.51614,4.35987c0,7.0493 0,14.09859 0,21.14789c0,5.32115 0.43509,10.58788 1.7342,15.85021c1.01955,4.12993 2.14789,8.12831 6.80828,11.1757c0.22927,0.12431 0.90488,0.77277 1.38851,0.33991c1.83618,-1.64343 3.76411,-4.37105 4.97903,-6.26905c3.59556,-5.61715 4.04297,-12.16228 7.76201,-17.72452l-0.24105,-0.03921l0.59999,-1.56168c0.12633,-0.36221 0.62414,-0.63261 1.21902,-0.63261c0.69036,0 1.25,0.36416 1.25,0.81338v0.97606c0,5.98164 -1.86824,13.0897 2.43205,18.57628c1.3512,1.72395 4.05351,5.51046 7.93406,4.92463c0.52835,-1.6477 2.11841,-3.20009 2.66733,-4.81736c0.36672,-1.08045 0.19427,-2.38857 0.47734,-3.49858c0.27258,-1.06887 1.15867,-2.03341 1.62883,-3.07281c0.82367,-1.82091 1.31101,-3.89858 1.88456,-5.7643c1.31058,-4.26324 2.26229,-8.47079 3.99724,-12.67947c1.06062,-6.34318 1.43691,-12.72782 1.98014,-19.08637c0.22393,-2.62113 0.34293,-5.05429 1.12828,-7.65238c0.33125,-1.09585 0.12018,-2.31105 0.93144,-3.29526c0.02939,-0.03566 0.05991,-0.07079 0.09151,-0.10545l-0.02082,-0.00677l0.98789,-1.28565c0.20043,-0.27512 0.63113,-0.46539 1.13014,-0.46539c0.69036,0 1.25,0.36416 1.25,0.81338v0v0.90056c0.73263,1.8671 1.58306,3.60527 1.99063,5.5071c0.80869,3.77353 0.00937,8.00183 0.00937,11.81206c0,5.14048 -0.47397,10.38792 0.48752,15.50222c0.47414,2.52201 2.50446,4.78298 3.16569,7.20191c0.07085,-0.25157 0.30837,-0.47136 0.46306,-0.70678c0.92066,-1.40113 1.94608,-2.59978 3.11196,-3.92083c0.7746,-0.59105 3.25769,-2.6172 4.26206,-2.60713c0.92978,0.00931 1.08726,0.99246 1.45986,1.54685c0.83895,1.24826 0.8137,3.3472 1.04068,4.70007c0.70095,4.17789 0.34458,8.50568 1.00235,12.68614c0.48702,3.09527 2.07485,6.29391 3.44714,9.26117c0.82396,1.80843 2.95383,4.48894 6.17192,5.01142c1.58941,0.25805 2.46705,-0.23255 3.98504,-0.35416c2.8212,-0.22602 6.01544,-1.17818 8.32547,-2.40531c1.26642,-0.67274 1.31587,-1.58327 1.59471,-2.45384c0.91388,-2.85323 2.49265,-5.67177 3.47385,-8.55431c2.45098,-7.16797 3.2087,-14.6745 5.38125,-21.91162c0.80493,-2.68138 1.16562,-5.55901 3.02422,-7.97524l-0.33264,-0.07215l0.49088,-0.95826c0.15708,-0.33237 0.63267,-0.57396 1.19497,-0.57396c0.69036,0 1.25,0.36416 1.25,0.81338v0.97606c0,6.29014 0,12.58028 0,18.87042c0,10.18207 -0.10707,21.81214 11.38413,29.54546c7.93816,0.91081 18.49901,0.43196 23.89919,-4.03296c3.46248,-2.86282 4.77594,-6.28004 6.53133,-9.63144c1.09726,-1.97626 1.3417,-4.03137 2.24562,-6.04465c3.65333,-8.13699 6.31699,-16.9729 7.13028,-25.51038c0.66766,-6.95119 2.94056,-13.74306 4.82887,-20.5829c0.82733,-2.99675 1.38596,-5.98395 2.47942,-8.91585c0.00078,-0.12552 0.00117,-0.25104 0.00117,-0.37657v-1.62676c0,-0.44922 0.55965,-0.81338 1.25,-0.81338c0.69035,0 1.25,0.36416 1.25,0.81338v1.62676c0,10.98245 -3,21.87192 -3,32.86056c0,10.81882 0.60611,21.62674 0.49063,32.43583c1.15926,2.95713 4.36744,6.98939 9.54655,7.76692c2.52494,0.37907 6.10192,-0.79561 8.35906,-1.28621c5.28013,-1.14767 10.69676,-2.1003 15.95847,-3.24874c2.28787,-0.48335 5.18236,-1.22006 7.12602,-2.14693c5.21362,-2.4862 5.05244,-6.85438 5.61453,-10.5243c0.48313,-3.15434 0.90787,-6.40576 2.01786,-9.51292c1.12556,-4.38953 2.44195,-8.70686 3.2646,-13.09965c0.02665,-0.38205 0.06881,-0.76061 0.13165,-1.13408c0.07323,-0.43523 0.16549,-0.85657 0.26407,-1.27092c0.09005,-0.64228 0.16707,-1.28672 0.22898,-1.93376c0.2598,-2.7153 0.06516,-5.48649 0.49759,-8.18383c0,-0.50873 0,-1.01746 0,-1.52619c0,-0.2169 0,-1.40986 0,-1.62676c0,-0.44922 0.55965,-0.81338 1.25,-0.81338c0.69035,0 1.25,0.36416 1.25,0.81338v1.62676c0,0.22454 0,0.44907 0,0.67361c0.3783,0.97839 0.23175,2.11938 0,3.23852c0,1.19033 0,2.38065 0,3.57098c0,1.99609 -0.67182,3.6842 -1.00937,5.63037c-0.37643,2.17037 0.00937,4.54248 0.00937,6.73301c0,4.64413 0.00617,9.28829 -0.00316,13.93241c1.03801,4.67027 1.68303,9.89904 4.15047,14.34338c0.68644,1.23641 2.93854,2.32711 4.78369,1.04214c0.80515,-0.56071 1.16545,-1.33505 1.69611,-2.02036c0.81152,-1.048 1.26152,-2.38172 1.93353,-3.47176c1.96002,-5.02543 2.66028,-10.61326 3.44545,-15.77215c0.54774,-3.59885 -0.07889,-7.25411 0.49392,-10.81484c0,-0.48946 0,-0.97893 0,-1.46839c0,-0.2169 0,-1.40986 0,-1.62676c0,-0.44922 0.55965,-0.81338 1.25,-0.81338c0.69035,0 1.25,0.36416 1.25,0.81338v1.62676c0,0.31085 0,0.6217 0,0.93255c0.27831,1.00035 0.16331,2.17397 0,3.28793c0,4.34106 0,8.68212 0,13.02318c0,4.66338 0,9.32676 0,13.99014c0,1.862 -1.06781,5.09243 1.15807,6.59878c1.84889,1.25123 5.36105,0.82361 7.74245,0.42873c1.71172,-0.36213 3.55525,-1.7672 5.10206,-1.96846c2.71351,-0.35306 2.84213,0.64279 4.47832,1.43884c2.07979,1.01188 6.55772,0.72245 8.51037,-0.3119c6.2971,-3.33567 5.59032,-8.44262 7.04049,-13.22404c1.06966,-5.21238 2.11312,-10.58956 3.75274,-15.72434c0.32742,-1.02536 1.09381,-1.99562 1.22158,-3.03958c0.53741,-4.3912 1.20538,-8.75381 2.52024,-13.08092c0.50861,-1.52548 0.55494,-3.19069 1.07051,-4.66808c0.43948,-1.25934 1.8138,-3.2386 4.5259,-3.10006c0.88026,0.04497 0.938,0.97679 1.31389,1.49668c2.37412,3.28362 3.00262,7.46977 4.10911,10.94427c0.20236,0.63544 0.78584,2.30076 1.58818,2.72648c0,0 0.88389,0.57515 0,1.1503c-0.17834,0.11605 -0.3567,0.18527 -0.52779,0.22183c0.59224,0.99638 1.15311,2.00654 1.38454,3.00786c1.48055,6.40566 1.00937,13.08 1.00937,19.62051c-0.0033,1.84703 -0.70449,3.50865 -1.00937,5.30502c-0.60197,3.54686 -0.54277,7.14962 -0.99489,10.70433c-0.64618,5.08042 -2.99574,9.77125 -2.99574,14.89911c0,3.25338 0.02522,6.50721 0,9.76056c-0.00718,0.92547 -0.21613,2.75063 -1.30569,3.4611c-1.8422,1.20125 -5.25112,1.2465 -7.63157,1.5283c-5.76469,0.68243 -11.60118,1.08551 -17.41888,1.52651c-7.10441,0.53853 -14.17464,0.46087 -21.2937,0.80214c-10.01435,0.48007 -19.84588,1.35375 -29.90331,1.60024c-17.0279,0.76422 -34.02799,0.63625 -51.01294,1.86427c-16.55597,1.19639 -33.03406,0.79023 -49.62995,1.22219c-17.2368,0.44864 -34.26006,1.82273 -51.55395,1.82273c-17.32814,0 -34.43811,-1.29004 -51.61644,-2.68729c-10.83025,-0.88156 -21.34888,-1.75165 -31.89738,-3.67471c-2.6384,-0.481 -9.43057,-0.26463 -10.64103,-2.27392c-0.30172,-0.50085 -0.06343,-1.07512 -0.09515,-1.61268c0,-7.80845 0,-15.6169 0,-23.42535c0,-7.75684 0.5,-15.37052 0.5,-23.1c0,-6.50704 0,-13.33944 0,-19.84648zM320.98921,318.51208c-0.23999,-3.11814 -0.00092,-6.28786 -0.00092,-9.41067c0,-1.51832 0,-4.01268 0,-5.53099c0,0 0.03794,8.82602 0.24732,17.06373c-0.10773,-0.70706 -0.19194,-1.41445 -0.2464,-2.12207z" data-paper-data="{&quot;index&quot;:null}" fill="url(#color-7)" stroke-width="0.5"/></g></g></svg>