<svg version="1.1" xmlns="http://www.w3.org/2000/svg" xmlns:xlink="http://www.w3.org/1999/xlink" width="100.30017" height="247.90663" viewBox="0,0,100.30017,247.90663"><g transform="translate(-274.27473,-59.0955)"><g data-paper-data="{&quot;isPaintingLayer&quot;:true}" fill-rule="nonzero" stroke-linejoin="miter" stroke-miterlimit="10" stroke-dasharray="" stroke-dashoffset="0" style="mix-blend-mode: normal"><g><path d="M281.0304,304.39162c0,0 -0.63536,-94.38387 -0.79335,-118.01201c-0.05451,-8.15261 8.18688,-36.76129 40.20201,-36.9211c31.60235,-0.15775 39.85672,29.48704 39.84884,36.89673c-0.07659,46.24274 0.65429,117.98648 0.65429,117.98648l-10.49667,0.09614l-0.15882,-114.84311c0,0 0.07549,-3.0993 -2.81625,-3.15415c-3.43441,-0.06514 -2.94538,3.11562 -2.94538,3.11562l0.20548,114.86995l-48.21366,0.07222l-0.30539,-115.23309c0,0 0.27949,-2.919 -2.8856,-2.93443c-3.11083,-0.01515 -2.81569,2.90899 -2.81569,2.90899l0.35311,115.0668z" fill="#110e1b" stroke="#3c162f" stroke-width="5" stroke-linecap="butt"/><path d="M281.0304,304.39162c0,0 -0.63536,-94.38387 -0.79335,-118.01201c-0.05451,-8.15261 8.18688,-36.76129 40.20201,-36.9211c31.60235,-0.15775 39.85672,29.48704 39.84884,36.89673c-0.07659,46.24274 0.65429,117.98648 0.65429,117.98648l-10.49667,0.09614l-0.15882,-114.84311c0,0 0.07549,-3.0993 -2.81625,-3.15415c-3.43441,-0.06514 -2.94538,3.11562 -2.94538,3.11562l0.20548,114.86995l-48.21366,0.07222l-0.30539,-115.23309c0,0 0.27949,-2.919 -2.8856,-2.93443c-3.11083,-0.01515 -2.81569,2.90899 -2.81569,2.90899l0.35311,115.0668z" fill="#110e1b" stroke="#110e1b" stroke-width="2" stroke-linecap="butt"/><path d="M329.69534,225.22477l-9.5124,13.11377l-9.87826,-13.65285c0,0 1.57578,-54.64253 9.5124,-54.80994c7.69684,-0.16235 9.87826,55.34902 9.87826,55.34902z" fill="#5c162e" stroke="#000000" stroke-width="0" stroke-linecap="round"/><path d="M325.76538,166.1547c2.76904,2.75677 0.37869,12.65939 -6.06838,12.57713c-6.64424,-0.08477 -9.74614,-8.72994 -5.88183,-12.57713c3.86431,-3.8472 9.18117,-2.75677 11.95021,0z" data-paper-data="{&quot;index&quot;:null}" fill="#5c162e" stroke="#000000" stroke-width="0" stroke-linecap="butt"/><path d="M320.18293,238.33855c0,0 5.02799,-20.10381 4.04577,-38.4146c-0.41012,-7.64553 -2.3394,-14.96034 -3.78463,-20.45839c1.43039,-0.9269 2.60902,-2.20931 3.41076,-3.72211c4.45441,14.23868 5.83967,49.46022 5.8405,49.48132z" fill="#3c162f" stroke="#000000" stroke-width="0" stroke-linecap="round"/><path d="M325.76538,166.15469c2.51015,2.49902 0.78057,10.87013 -4.36733,12.35235c1.53861,-1.75868 2.47097,-4.06122 2.47097,-6.58152c0,-3.43268 -1.72959,-6.4614 -4.36484,-8.26221c2.41539,-0.04982 4.72856,0.96554 6.2612,2.49139z" data-paper-data="{&quot;index&quot;:null}" fill="#3c162f" stroke="#000000" stroke-width="0" stroke-linecap="butt"/><path d="M356.04444,205.71201l-17.81782,-6.92203l12.36993,-5.4479z" fill="none" stroke="#7c162e" stroke-width="2" stroke-linecap="round"/><path d="M276.44502,185.37151l3.32059,-8.88123l9.63708,3.60319l2.94267,-9.02252l8.92888,3.76916" fill="none" stroke="#7c162e" stroke-width="2" stroke-linecap="round"/><path d="M292.8407,232.7418l10.86475,-2.41721l2.7631,11.07248l-11.07249,2.7631c0,0 -1.75819,-7.04555 -2.27956,-9.1348c-0.27228,-1.09107 -0.48355,-1.93768 -0.48355,-1.93768" fill="none" stroke="#7c162e" stroke-width="2" stroke-linecap="round"/><path d="M335.17882,233.96566c0,-2.12716 1.7244,-3.85156 3.85156,-3.85156c2.12716,0 3.85156,1.7244 3.85156,3.85156c0,2.12716 -1.7244,3.85156 -3.85156,3.85156c-2.12716,0 -3.85156,-1.7244 -3.85156,-3.85156z" fill="none" stroke="#7c162e" stroke-width="2" stroke-linecap="butt"/><path d="M338.18172,249.66445c0,-4.25432 3.44881,-7.70313 7.70313,-7.70313c4.25432,0 7.70312,3.44881 7.70312,7.70313c0,4.25432 -3.4488,7.70312 -7.70312,7.70312c-4.25432,0 -7.70313,-3.4488 -7.70313,-7.70312z" fill="none" stroke="#7c162e" stroke-width="2" stroke-linecap="butt"/><path d="M330.34317,273.35163c0,-6.06635 4.91774,-10.98409 10.98409,-10.98409c6.06635,0 10.98408,4.91774 10.98408,10.98409c0,6.06635 -4.91773,10.98408 -10.98408,10.98408c-6.06635,0 -10.98409,-4.91773 -10.98409,-10.98408z" fill="none" stroke="#7c162e" stroke-width="2" stroke-linecap="butt"/><path d="M275.97184,253.71378c0,0 5.33628,-5.25029 8.71364,-3.73832c3.37736,1.51198 0.2278,7.83216 4.05647,9.45523c3.82868,1.62306 4.92139,-5.60729 8.55456,-4.10911c3.63316,1.49817 3.44707,9.05811 3.44707,9.05811" fill="none" stroke="#7c162e" stroke-width="2" stroke-linecap="round"/><path d="M338.69847,167.69233c0,0 5.70532,-4.84672 8.96329,-3.09223c3.25797,1.75449 -0.34457,7.82789 3.3554,9.72613c3.69997,1.89824 5.31761,-5.23305 8.83171,-3.47364c3.5141,1.75941 2.7766,9.28558 2.7766,9.28558" fill="none" stroke="#7c162e" stroke-width="2" stroke-linecap="round"/></g><path d="M290.0136,99.19702c0.5174,-2.23637 3.05178,-40.05744 39.18333,-38.55811c44.56601,2.66594 36.05701,38.36125 38.01671,45.38243c2.68704,9.6271 4.7426,17.83753 4.7426,17.83753c0,0 -2.59371,-2.26863 -3.81547,-3.45079c-1.13951,-1.10258 -3.53713,-3.44034 -3.53713,-3.44034c0,0 2.252,10.56251 -0.35155,20.73348c-2.31697,9.32531 -8.6546,16.58528 -8.6546,16.58528l-0.96341,-2.43237c0,0 -1.19549,2.10893 -2.42015,3.14894c-1.22467,1.04 -3.66106,2.62783 -3.66106,2.62783l0.20506,-3.69967c0,0 -7.92024,10.41681 -25.14348,8.88541c-16.23335,-1.56124 -25.13229,-12.72994 -25.13229,-12.72994l-0.32855,2.637c0,0 -3.6184,-3.59425 -5.38373,-10.17164c-2.10406,-7.83947 -2.24801,-12.46344 -2.24801,-12.46344c0,0 -2.48373,1.70563 -5.92096,2.30739c-4.30705,0.75404 -6.95198,-0.21248 -6.95198,-0.21248c0,0 3.81407,-2.41933 5.94821,-4.30712c1.90092,-1.68149 2.90868,-3.15429 2.90868,-3.15429c0,0 -2.18772,0.91234 -4.3488,1.27358c-2.25484,0.37693 -4.05966,0.2063 -4.05966,0.2063c0,0 5.36255,-4.62245 7.87948,-10.27596c2.37637,-5.33783 2.97095,-10.75383 2.97095,-10.75383c0,0 -1.41029,0.5504 -3.38314,0.52573c-1.25053,-0.01562 -2.36628,-0.23928 -2.36628,-0.23928c0,0 6.61796,-5.40897 6.81523,-6.26164z" fill="#110e1b" stroke="#3c162f" stroke-width="3" stroke-linecap="butt"/><path d="M283.19835,105.45867c0,0 6.61798,-5.40898 6.81525,-6.26165c0.5174,-2.23637 3.05178,-40.05744 39.18333,-38.55811c44.56601,2.66594 36.05701,38.36125 38.01671,45.38243c2.68704,9.6271 4.7426,17.83753 4.7426,17.83753c0,0 -2.59371,-2.26863 -3.81547,-3.45079c-1.13951,-1.10258 -3.53713,-3.44034 -3.53713,-3.44034c0,0 2.252,10.56251 -0.35155,20.73348c-2.31697,9.32531 -8.6546,16.58528 -8.6546,16.58528l-0.96341,-2.43237c0,0 -1.19549,2.10893 -2.42015,3.14894c-1.22467,1.04 -3.66106,2.62783 -3.66106,2.62783l0.20506,-3.69967c0,0 -7.92024,10.41681 -25.14348,8.88541c-16.23335,-1.56124 -25.13229,-12.72994 -25.13229,-12.72994l-0.32855,2.637c0,0 -3.6184,-3.59425 -5.38373,-10.17164c-2.10406,-7.83947 -2.24801,-12.46344 -2.24801,-12.46344c0,0 -2.48373,1.70563 -5.92096,2.30739c-4.30705,0.75404 -6.95198,-0.21248 -6.95198,-0.21248c0,0 3.81407,-2.41933 5.94821,-4.30712c1.90092,-1.68149 2.90868,-3.15429 2.90868,-3.15429c0,0 -2.18772,0.91234 -4.3488,1.27358c-2.25484,0.37693 -4.05966,0.2063 -4.05966,0.2063c0,0 5.36255,-4.62245 7.87948,-10.27596c2.37637,-5.33783 2.97095,-10.75383 2.97095,-10.75383c0,0 -1.41029,0.5504 -3.38314,0.52573c-1.25053,-0.01562 -2.36628,-0.23928 -2.36628,-0.23928z" fill="#110e1b" stroke="none" stroke-width="1.5" stroke-linecap="butt"/><path d="M299.02309,118.08893c0.00916,-7.31602 1.70848,-17.07248 1.70848,-17.07248c0,0 3.40293,0.23218 14.12149,-2.0192c8.23467,-1.72967 21.24143,-7.81029 21.24143,-7.81029c0,0 -2.39389,2.82228 -3.75423,4.17275c-1.4462,1.4357 -4.3457,4.22835 -4.3457,4.22835c0,0 7.94642,-1.0342 15.00652,-3.53824c8.82414,-2.83781 11.04348,-5.18486 13.27679,-3.54024c2.63584,1.94107 -0.83084,23.1907 -1.58679,28.70577c-0.87454,5.61721 -3.28632,9.26616 -4.14343,12.22785c-0.85711,2.96168 -0.89999,6.08407 -3.48436,15.81134c-0.73918,2.78219 -10.6607,9.65487 -21.03198,8.77011c-12.25797,-1.0457 -25.21378,-10.41158 -25.37848,-14.04551c-0.27384,-6.04176 0.01992,-9.93889 0.10278,-15.28927c0.06056,-3.91045 -1.73749,-6.6055 -1.73249,-10.60092z" fill="#110e1b" stroke="#110e1b" stroke-width="1.5" stroke-linecap="butt"/><g stroke="none" stroke-width="0.5" stroke-linecap="butt"><path d="M317.61009,88.30269c-0.42072,-1.31505 0.30429,-2.72217 1.61935,-3.1429c1.31505,-0.42072 2.72217,0.30429 3.1429,1.61935c0.42072,1.31505 -0.30429,2.72217 -1.61935,3.1429c-1.31505,0.42072 -2.72217,-0.30429 -3.1429,-1.61935z" fill="#5c162e"/><path d="M317.61009,88.30269c-0.42072,-1.31505 0.30429,-2.72217 1.61935,-3.1429c1.31505,-0.42072 2.72217,0.30429 3.1429,1.61935c0.42072,1.31505 -4.34151,2.8386 -4.76222,1.52355z" fill="#7c162e"/></g><g stroke="none" stroke-width="0.5" stroke-linecap="butt"><path d="M350.15407,86.16052c0.27417,-1.35321 1.59343,-2.22796 2.94665,-1.9538c1.35321,0.27417 2.22796,1.59343 1.9538,2.94665c-0.27417,1.35321 -1.59343,2.22796 -2.94665,1.9538c-1.35321,-0.27417 -2.22796,-1.59343 -1.9538,-2.94665z" fill="#5c162e"/><path d="M350.15408,86.16053c0.27417,-1.35321 1.59343,-2.22796 2.94665,-1.9538c1.35321,0.27417 2.22796,1.59343 1.9538,2.94665c-0.27417,1.35321 -5.1746,0.36036 -4.90043,-0.99285z" fill="#7c162e"/></g><g data-paper-data="{&quot;index&quot;:null}" stroke-linecap="round"><path d="M353.40071,138.41904c0,0 3.42383,18.10136 -4.22199,22.07609c-3.42281,1.77936 -7.64754,3.00398 -12.70625,2.82058c-9.58171,-0.34739 -19.61246,-5.65407 -26.27898,-9.99131c-3.08801,-2.00905 -2.80772,-3.85036 -2.56739,-4.64655c0.51853,-1.71788 1.95769,-15.43189 1.95769,-15.43189c0,0 1.72968,-0.59829 3.07645,-0.00998c0.38919,0.17002 1.02065,0.85041 1.02065,0.85041l6.88902,7.4185l14.54141,8.01672l14.9175,-4.65906c0,0 1.17456,-5.10067 1.7971,-6.29033c0.40592,-0.77569 1.57477,-0.15316 1.57477,-0.15316z" data-paper-data="{&quot;index&quot;:null}" fill="#3c162f" stroke="#000000" stroke-width="0"/><path d="M353.40071,138.41904l5.28723,12.30229c0,0 -5.85671,13.18747 -22.21546,12.59437c-9.58171,-0.34739 -19.61246,-5.65407 -26.27898,-9.99131c-3.08801,-2.00905 -2.80772,-3.85036 -2.56739,-4.64655c0.51853,-1.71788 1.95769,-15.43189 1.95769,-15.43189c0,0 4.20495,6.43289 4.65835,6.90646c1.97077,2.05844 4.47106,4.66996 4.47106,4.66996l15.90376,8.43536l16.56161,-5.23192z" data-paper-data="{&quot;index&quot;:null}" fill="#7c162e" stroke="#000000" stroke-width="0"/><path d="M353.40071,138.41904c0,0 0.19238,2.96302 0.16028,3.96914c-0.07774,2.43677 0.72306,4.69768 2.11674,6.47829c-3.11053,0.38064 -5.79709,2.19643 -7.3509,4.78245c-1.35122,-0.75489 -2.89838,-1.20629 -4.55213,-1.25905c-4.44929,-0.14192 -8.31231,2.64503 -9.73575,6.62217c-0.85728,-2.9821 -3.06909,-5.40722 -5.94635,-6.54085c-1.75865,-2.34599 -4.52821,-3.90085 -7.68664,-4.00161c-1.02623,-0.03273 -2.02126,0.09034 -2.96236,0.3479c-1.88222,0.0555 -3.64066,0.63436 -5.12927,1.59956c0.47372,-1.1102 0.75299,-2.32551 0.7938,-3.60457c0.04769,-1.49494 -0.23527,-2.92369 -0.78293,-4.21596c0.20864,-0.75322 0.33167,-1.54309 0.3577,-2.35893c0.01984,-0.62177 0.23633,-1.34906 0.14652,-1.94288l5.8838,6.52765l15.90376,8.43536l16.56161,-5.23192z" data-paper-data="{&quot;index&quot;:null}" fill="#5c162e" stroke="#000000" stroke-width="0"/><path d="M333.74049,161.34112l0.2091,-6.55467" fill="none" stroke="#5c162e" stroke-width="0.5"/><path d="M311.5841,152.59138l2.94433,-6.0441" fill="none" stroke="#5c162e" stroke-width="0.5"/><path d="M347.83488,150.78458l1.29124,5.96755" fill="none" stroke="#5c162e" stroke-width="0.5"/><path d="M334.60722,152.91254l0.4864,-3.48627" fill="none" stroke="#191528" stroke-width="0.5"/><path d="M320.45734,141.70569l-1.71583,2.82173" fill="none" stroke="#191528" stroke-width="0.5"/><path d="M350.90736,147.67956l-0.9578,-2.90702" fill="none" stroke="#191528" stroke-width="0.5"/></g><g stroke-linecap="round"><path d="M353.95846,113.37021l-14.53745,-4.93804l-16.23355,4.88897c0,0 -8.19347,7.73424 -10.55335,9.31776c-1.11585,0.74875 -2.93795,-0.26486 -2.93795,-0.26486l-2.8374,-15.50083c0,0 19.24017,-12.97772 35.56258,-11.73707c16.32242,1.24065 22.33135,16.13751 22.33135,16.13751l-8.29451,10.49659c0,0 -1.55748,0.65996 -1.78936,-0.11924c-0.44822,-1.50621 -0.71035,-8.2808 -0.71035,-8.2808z" data-paper-data="{&quot;index&quot;:null}" fill="#3c162f" stroke="#000000" stroke-width="0"/><path d="M355.32463,111.9752l-15.87237,-7.0518l-16.74757,6.6033l-13.00854,10.84736l-2.8374,-15.50083c0,0 5.03935,-3.3991 12.14789,-6.55181c6.78133,-3.0076 15.44576,-5.79097 23.41469,-5.18526c16.32242,1.24065 22.33135,16.13751 22.33135,16.13751l-8.29451,10.49659z" data-paper-data="{&quot;index&quot;:null}" fill="#7c162e" stroke="#000000" stroke-width="0"/><path d="M355.32462,111.9752l-15.87237,-7.0518l-16.74757,6.6033l-13.00854,10.84736l-1.00056,-5.46611c0.3745,0.07389 0.75715,0.12716 1.14681,0.15848c5.50509,0.44254 10.3266,-3.66147 10.76912,-9.16656c0.08095,-1.00702 0.00977,-1.99115 -0.1943,-2.9298c1.54748,1.3261 3.51318,2.19285 5.69998,2.36864c3.85239,0.30968 7.37003,-1.60709 9.28655,-4.67241c1.38325,-0.24518 2.67647,-0.77731 3.80991,-1.537c0.85808,0.69365 1.83582,1.24972 2.90201,1.63155c1.60876,2.65297 4.42539,4.52182 7.75434,4.78943c2.45689,0.1975 4.77764,-0.51057 6.63372,-1.84463c0.32154,1.59205 1.02445,3.05778 2.01615,4.2884c-0.34043,0.87993 -0.56108,1.82325 -0.64054,2.81172c-0.16342,2.03292 0.29316,3.97262 1.21135,5.633l-2.63256,3.33146z" data-paper-data="{&quot;index&quot;:null}" fill="#5c162e" stroke="#000000" stroke-width="0"/><path d="M319.3546,101.54499l1.73576,4.80861" fill="none" stroke="#5c162e" stroke-width="0.5"/><path d="M339.43791,102.52273l-0.19187,-5.53341" fill="none" stroke="#5c162e" stroke-width="0.5"/><path d="M359.0317,104.31005l-3.24982,6.10568" fill="none" stroke="#5c162e" stroke-width="0.5"/><path d="M339.2726,108.43513l0.10577,-2.87578" fill="none" stroke="#191528" stroke-width="0.5"/><path d="M355.28005,112.10458l-1.22154,1.15583" fill="none" stroke="#191528" stroke-width="0.5"/><path d="M323.20705,113.28843l-0.09896,-1.889" fill="none" stroke="#191528" stroke-width="0.5"/></g></g></g></svg>