<svg version="1.1" xmlns="http://www.w3.org/2000/svg" xmlns:xlink="http://www.w3.org/1999/xlink" width="34.17311" height="34.17311" viewBox="0,0,34.17311,34.17311"><g transform="translate(-302.91345,-162.91346)"><g data-paper-data="{&quot;isPaintingLayer&quot;:true}" stroke-miterlimit="10" stroke-dasharray="" stroke-dashoffset="0" style="mix-blend-mode: normal"><path d="M309.98311,162.91346h20.03379c3.9166,0 7.06966,3.15307 7.06966,7.06966v20.03379c0,3.91659 -3.15306,7.06966 -7.06966,7.06966h-20.03379c-3.91659,0 -7.06966,-3.15307 -7.06966,-7.06966v-20.03379c0,-3.91659 3.15307,-7.06966 7.06966,-7.06966z" fill-opacity="0.35294" fill="#ff2e5f" fill-rule="evenodd" stroke="none" stroke-width="4.43922" stroke-linecap="round" stroke-linejoin="round"/><g fill-rule="nonzero" stroke-linejoin="miter"><g data-paper-data="{&quot;index&quot;:null}" stroke="#ff2e5f" stroke-width="0" stroke-linecap="round"><path d="M311.01142,172.29337l22.342,3.56018l-0.45508,3.52779c0,0 -0.85557,1.51253 -2.8978,1.76282c-2.04225,0.25029 -4.42876,-0.84909 -4.42876,-0.84909c0,0 -2.12259,1.17443 -4.28435,0.98327c-2.16176,-0.19118 -4.16994,-1.7309 -4.16994,-1.7309c0,0 -2.40218,0.84784 -4.07885,0.61516c-1.67667,-0.23268 -3.3424,-1.64501 -3.3424,-1.64501z" data-paper-data="{&quot;index&quot;:null}" fill="#ff2e5f"/><path d="M311.01144,172.29336c0,0 0.01713,0.00219 0.0504,0.00644c0.93886,2.63829 3.324,4.64141 6.29508,4.94977c0.17267,0.01792 0.34458,0.02984 0.51552,0.03591c0.16854,0.02915 0.33923,0.0528 0.5119,0.07072c0.06574,0.00682 0.13135,0.01278 0.19686,0.01787c1.0416,0.76963 2.29635,1.27938 3.67777,1.42276c1.07416,0.11148 2.11887,-0.00957 3.08403,-0.32249c0.88033,0.50446 1.87791,0.83748 2.95207,0.94896c2.1789,0.22614 3.33274,-0.50451 4.85124,-1.85261c-0.17043,0.97758 -0.19971,4.8726 -2.24195,5.12289c-2.04225,0.25029 -5.33258,-2.3985 -5.33258,-2.3985c0,0 -2.12259,1.17443 -4.28435,0.98327c-2.16176,-0.19118 -4.16994,-1.7309 -4.16994,-1.7309c0,0 -2.40218,0.84784 -4.07885,0.61516c-1.67667,-0.23268 -3.3424,-1.64501 -3.3424,-1.64501z" data-paper-data="{&quot;index&quot;:null}" fill="#000000"/></g><path d="M314.8284,168.93264c0,-0.9665 0.7835,-1.75 1.75,-1.75c0.9665,0 1.75,0.7835 1.75,1.75c0,0.9665 -0.7835,1.75 -1.75,1.75c-0.9665,0 -1.75,-0.7835 -1.75,-1.75z" fill="#000000" stroke="none" stroke-width="0.5" stroke-linecap="butt"/><path d="M325.93252,166.99588c0,-0.9665 0.7835,-1.75 1.75,-1.75c0.9665,0 1.75,0.7835 1.75,1.75c0,0.9665 -0.7835,1.75 -1.75,1.75c-0.9665,0 -1.75,-0.7835 -1.75,-1.75z" fill="#000000" stroke="none" stroke-width="0.5" stroke-linecap="butt"/><path d="M314.8284,168.80352c0,-0.9665 0.7835,-1.75 1.75,-1.75c0.9665,0 1.75,0.7835 1.75,1.75c0,0.9665 -3.5,0.9665 -3.5,0z" fill="#ff2e5f" stroke="none" stroke-width="0.5" stroke-linecap="butt"/><path d="M325.93253,166.86676c0,-0.9665 0.7835,-1.75 1.75,-1.75c0.9665,0 1.75,0.7835 1.75,1.75c0,0.9665 -3.5,0.9665 -3.5,0z" fill="#ff2e5f" stroke="none" stroke-width="0.5" stroke-linecap="butt"/><g data-paper-data="{&quot;index&quot;:null}" stroke="#ff2e5f" stroke-width="0" stroke-linecap="round"><path d="M309.36753,179.73322c0,0 2.18081,-0.11583 3.65623,0.71392c1.47542,0.82976 2.87424,2.95874 2.87424,2.95874c0,0 2.53051,-0.00993 4.36692,1.14651c1.8364,1.15644 2.81497,3.37615 2.81497,3.37615c0,0 2.56508,0.56959 4.03913,2.00508c1.47404,1.43547 1.23944,3.1573 1.23944,3.1573l-1.7733,3.08349l-19.93858,-10.69079z" data-paper-data="{&quot;index&quot;:null}" fill="#000000"/><path d="M309.36753,179.73322c0,0 2.18081,-0.11583 3.65623,0.71392c1.47542,0.82976 2.87424,2.95874 2.87424,2.95874c0,0 2.53051,-0.00993 4.36692,1.14651c1.8364,1.15644 2.81497,3.37615 2.81497,3.37615c0,0 4.22241,-0.11657 5.69646,1.31892c1.47404,1.43547 -0.86047,4.5535 -1.31659,5.43479c-0.39261,-1.99225 -0.86874,-3.27229 -2.73996,-4.41127c-0.92248,-0.5615 -1.91811,-0.90032 -2.92419,-1.03168c-0.5788,-0.83333 -1.33709,-1.56209 -2.25957,-2.12358c-1.18635,-0.72211 -2.49367,-1.07592 -3.78863,-1.09385c-0.05522,-0.0356 -0.11105,-0.07059 -0.16751,-0.10495c-0.14829,-0.09026 -0.29847,-0.17476 -0.45027,-0.25358c-0.13973,-0.09865 -0.28378,-0.19322 -0.43207,-0.28348c-2.55153,-1.55307 -5.6626,-1.40249 -8.00697,0.12916c-0.02906,-0.01676 -0.04402,-0.02538 -0.04402,-0.02538z" data-paper-data="{&quot;index&quot;:null}" fill="#ff2e5f"/></g></g></g></g></svg>