<svg version="1.1" xmlns="http://www.w3.org/2000/svg" xmlns:xlink="http://www.w3.org/1999/xlink" width="35.125" height="35.12434" viewBox="0,0,35.125,35.12434"><g transform="translate(-302.43752,-162.43783)"><g data-paper-data="{&quot;isPaintingLayer&quot;:true}" stroke="none" stroke-miterlimit="10" stroke-dasharray="" stroke-dashoffset="0" style="mix-blend-mode: normal"><path d="M337.56251,169.8317v20.49804c0,4.00745 -3.22497,7.23243 -7.23242,7.23243h-20.5c-3.66107,0 -6.66147,-2.69385 -7.1543,-6.21484c0.7952,3.03475 3.54108,5.26367 6.83204,5.26367h20.0332c3.9166,0 7.07032,-3.15372 7.07032,-7.07031v-20.03321c0,-3.2976 -2.23906,-6.0451 -5.28321,-6.83398c3.52994,0.48496 6.23438,3.49081 6.23438,7.15821z" fill-opacity="0.29839" fill="#000000" fill-rule="evenodd" stroke-width="4.54219" stroke-linecap="round" stroke-linejoin="round"/><path d="M309.50719,162.43783h20.03378c3.9166,0 7.06966,3.15307 7.06966,7.06966v20.03379c0,3.91659 -3.15307,7.06966 -7.06966,7.06966h-20.03378c-3.91659,0 -7.06967,-3.15307 -7.06967,-7.06966v-20.03379c0,-3.91659 3.15308,-7.06966 7.06967,-7.06966z" fill-opacity="0.3451" fill="#bdffa3" fill-rule="evenodd" stroke-width="4.43922" stroke-linecap="round" stroke-linejoin="round"/><g fill-rule="nonzero" stroke-width="0.5" stroke-linecap="butt" stroke-linejoin="miter"><path d="M313.90416,167.38427l-0.24309,0.88444c-1.06757,3.83599 -0.70438,4.58139 1.90566,7.30103c0,0 0.83125,0.87082 -0.03957,1.70208c-0.87083,0.83126 -1.70208,-0.03956 -1.70208,-0.03956c-3.12455,-3.29366 -3.70826,-5.1045 -2.48569,-9.60164l0.24309,-0.88445c0,0 0.31905,-1.16083 1.47989,-0.84178c1.16084,0.31905 0.84179,1.47988 0.84179,1.47988z" fill="#000000"/><path d="M329.72711,183.31466c0.20811,0.92973 0.19793,1.92253 -0.07217,2.90527c-0.51259,1.865 -1.84832,3.2828 -3.50716,3.96897c-1.22942,1.92985 -3.48694,3.02576 -5.80782,2.73899c-1.44076,1.0902 -3.35429,1.52231 -5.23107,1.0065c-3.15262,-0.86648 -5.02737,-4.08509 -4.25034,-7.24051c-0.46467,-1.03313 -0.6415,-2.20192 -0.45888,-3.38046c-0.69741,-1.31005 -0.91463,-2.87893 -0.49027,-4.42293c0.56043,-2.03908 2.10484,-3.54358 3.97971,-4.14175c1.35251,-2.26595 4.09517,-3.44876 6.76351,-2.71538c0.36116,0.09926 0.70553,0.22939 1.03109,0.38676c1.26267,-0.60614 2.7414,-0.7768 4.19799,-0.37646c3.20556,0.88103 5.08997,4.19385 4.20894,7.39942c-0.05268,0.19167 -0.11405,0.37862 -0.18358,0.56054c0.21584,0.93928 0.20866,1.94402 -0.06465,2.93845c-0.0347,0.12627 -0.0732,0.25052 -0.1153,0.37261z" fill="#bdffa3"/><path d="M325.15824,180.87895c-0.36671,2.23764 0.07763,4.4575 1.14209,6.32386c-1.50398,0.59029 -2.97632,1.2551 -4.41138,1.99121c-0.83121,-2.14971 -1.81437,-4.23567 -2.94012,-6.24141c2.27983,0.05714 4.47121,-0.70323 6.20941,-2.07366z" fill="#000000"/><path d="M329.65494,186.21993c-0.51259,1.865 -1.84832,3.2828 -3.50716,3.96897c-1.0759,1.68887 -2.93919,2.73907 -4.94326,2.7828c0.30417,-0.60824 6.75998,-3.00348 6.75998,-9.32213c0,-1.02336 -0.20496,-1.99884 -0.57606,-2.88764c0.02988,-0.27199 0.04522,-0.54834 0.04522,-0.82829c0,-4.14213 -6.28008,-7.78905 -15,0c-1.34938,1.20533 -1.7446,3.21303 -2.03778,3.40457c0.00124,-0.00827 0.00251,-0.01654 0.00379,-0.02481c-0.69741,-1.31005 -0.91463,-2.87893 -0.49027,-4.42293c0.56043,-2.03908 2.10484,-3.67629 3.97971,-4.27446c1.35251,-2.26595 4.09517,-3.31605 6.76351,-2.58267c0.36116,0.09926 0.70553,0.22939 1.03109,0.38676c1.26267,-0.60614 2.7414,-0.7768 4.19799,-0.37646c3.20556,0.88103 5.08997,4.19385 4.20894,7.39942c-0.05268,0.19167 -0.11405,0.37862 -0.18358,0.56054c0.21584,0.93928 0.20866,1.94402 -0.06465,2.93845c-0.0347,0.12626 -0.07319,0.25051 -0.1153,0.3726c0.2081,0.92972 0.19793,1.92253 -0.07217,2.90526z" fill="#000000"/></g></g></g></svg>