<svg version="1.1" xmlns="http://www.w3.org/2000/svg" xmlns:xlink="http://www.w3.org/1999/xlink" width="34.17311" height="34.17311" viewBox="0,0,34.17311,34.17311"><g transform="translate(-302.91346,-162.9135)"><g data-paper-data="{&quot;isPaintingLayer&quot;:true}" stroke-miterlimit="10" stroke-dasharray="" stroke-dashoffset="0" style="mix-blend-mode: normal"><path d="M309.98312,162.9135h20.03379c3.9166,0 7.06966,3.15307 7.06966,7.06966v20.03379c0,3.91659 -3.15306,7.06966 -7.06966,7.06966h-20.03379c-3.91659,0 -7.06966,-3.15307 -7.06966,-7.06966v-20.03379c0,-3.91659 3.15307,-7.06966 7.06966,-7.06966z" fill-opacity="0.3451" fill="#bdffa3" fill-rule="evenodd" stroke="none" stroke-width="4.43922" stroke-linecap="round" stroke-linejoin="round"/><g fill-rule="nonzero" stroke-linejoin="miter"><path d="M314.42706,171.63671l8.66278,-3.19474l9.55148,5.78863l-4.61908,11.61943l-2.23508,3.12317l-13.50752,0.50168l-2.17199,-6.08951l2.81288,-8.66673z" fill="#000000" stroke="#000000" stroke-width="1.4" stroke-linecap="round"/><path d="M310.80846,185.38878l5.29779,4.21599l6.93933,-1.47548l5.93952,-3.55813c0,0 -2.3201,7.64815 -4.95915,8.3936c-2.94126,0.83082 -6.80191,1.4849 -9.97787,0.53618c-2.39362,-0.71501 -3.96749,-2.21176 -4.99517,-3.7563c-1.55935,-2.34362 -0.44139,-6.09607 0.25544,-6.73345c0.67981,-0.62184 2.01454,-1.84276 2.01454,-1.84276z" data-paper-data="{&quot;index&quot;:null}" fill="#bdffa3" stroke="#000000" stroke-width="0" stroke-linecap="round"/><path d="M330.75109,174.61121l-5.29778,-4.21599l-6.93933,1.47548l-5.93952,3.55813c0,0 0.16752,-2.68849 0.24217,-3.8864c0.06418,-1.03015 1.20073,-3.35164 2.78678,-3.90042c2.98609,-1.03321 7.97272,-2.31853 11.90807,-1.14296c3.92864,1.17355 5.649,4.45294 6.37058,6.59329c0.38516,1.14243 -0.79975,3.13626 -1.46879,3.74824c-0.70602,0.64582 -2.17658,1.99098 -2.17658,1.99098z" data-paper-data="{&quot;index&quot;:null}" fill="#bdffa3" stroke="#000000" stroke-width="0" stroke-linecap="round"/><path d="M325.39051,170.39044l-9.26908,19.23273" fill="none" stroke="#bdffa3" stroke-width="1.5" stroke-linecap="round"/><path d="M330.69479,174.54767l-7.23737,13.45105" fill="none" stroke="#bdffa3" stroke-width="1.5" stroke-linecap="round"/><path d="M318.30679,171.86031l-7.38409,13.48354" fill="none" stroke="#bdffa3" stroke-width="1.5" stroke-linecap="round"/><path d="M330.64964,174.69667l-5.21231,-4.11452l-1.32418,0.09802c0.14795,-0.77462 0.2823,-1.54666 0.3409,-2.33837c0.05648,-0.76322 0.15831,-1.53454 0.13029,-2.29973c1.00759,0.03868 1.99674,0.17905 2.92715,0.45697c3.92864,1.17355 5.64899,4.45293 6.37057,6.59329c0.38516,1.14243 -0.79975,3.13626 -1.46879,3.74825c-0.70602,0.64582 -2.40349,2.44231 -2.40349,2.44231z" data-paper-data="{&quot;index&quot;:null}" fill="#000000" stroke="#000000" stroke-width="0" stroke-linecap="butt"/><path d="M316.10625,189.60476l6.98731,-2.03626l6.10246,-3.26173c0,0 -2.53102,7.91255 -5.17006,8.65802c-2.94126,0.83082 -6.80191,1.48489 -9.97787,0.53618c-0.66512,-0.19869 -1.26696,-0.45773 -1.81135,-0.76139c1.3145,-0.97784 2.50211,-2.12231 3.52957,-3.40534z" data-paper-data="{&quot;index&quot;:null}" fill="#000000" stroke="#000000" stroke-width="0" stroke-linecap="round"/></g></g></g></svg>