<svg version="1.1" xmlns="http://www.w3.org/2000/svg" xmlns:xlink="http://www.w3.org/1999/xlink" width="59.62363" height="128.14791" viewBox="0,0,59.62363,128.14791"><g transform="translate(-290.05,-78.4324)"><g data-paper-data="{&quot;isPaintingLayer&quot;:true}" fill-rule="nonzero" stroke="none" stroke-linecap="butt" stroke-linejoin="miter" stroke-miterlimit="10" stroke-dasharray="" stroke-dashoffset="0" style="mix-blend-mode: normal"><g><path d="M299.98645,85.55873c0,-2.07107 1.67893,-3.75 3.75,-3.75c2.07107,0 3.75,1.67893 3.75,3.75c0,2.07107 -1.67893,3.75 -3.75,3.75c-2.07107,0 -3.75,-1.67893 -3.75,-3.75z" fill="#000000" stroke-width="0.5"/><path d="M333.48645,84.7254c0,-2.07107 1.67893,-3.75 3.75,-3.75c2.07107,0 3.75,1.67893 3.75,3.75c0,2.07107 -1.67893,3.75 -3.75,3.75c-2.07107,0 -3.75,-1.67893 -3.75,-3.75z" fill="#000000" stroke-width="0.5"/><path d="M292.54499,90.04382c0,-3.21278 2.60448,-5.81725 5.81725,-5.81725c3.21278,0 5.81725,2.60448 5.81725,5.81725c0,3.21278 -2.60448,5.81725 -5.81725,5.81725c-3.21278,0 -5.81725,-2.60448 -5.81725,-5.81725z" fill="#000000" stroke-width="0.5"/><path d="M336.47255,89.3833c0,-3.21278 2.60448,-5.81725 5.81725,-5.81725c3.21278,0 5.81725,2.60448 5.81725,5.81725c0,3.21278 -2.60448,5.81725 -5.81725,5.81725c-3.21278,0 -5.81725,-2.60448 -5.81725,-5.81725z" fill="#000000" stroke-width="0.5"/><path d="M293.12072,190.13715c0.48909,-10.33016 1.20557,-27.19414 1.20557,-37.33959c0,-15.3477 -1.6514,-45.96087 -1.6514,-45.96087c0,0 0.48502,-28.40429 27.48603,-28.40429c27.0085,0 27.53098,28.40429 27.53098,28.40429c0,0 -1.6514,31.16441 -1.6514,46.62143c0,10.01638 0.70852,26.48844 1.1974,36.66165c0.25747,5.35811 2.43573,8.9689 2.43573,8.9689c0,0 -0.00766,0.03539 -0.02806,0.10196c-1.00876,-0.84092 -2.30659,1.29541 -3.72258,1.29541c-2.55666,0 -1.09497,2.97043 -1.87527,5.26312c-1.12964,0.38445 -5.73618,-2.85676 -6.43311,-1.91716c-1.66562,0.20323 -3.11386,1.11044 -4.03813,2.41507c-1.06688,-1.29918 -2.68562,-2.1279 -4.4979,-2.1279c-1.96281,0 -3.69856,0.97211 -4.75209,2.46114c-0.97204,-1.85561 -2.91635,-3.1217 -5.15637,-3.1217c-1.71204,0 -3.25133,0.73958 -4.31582,1.91667c-0.99205,-0.78645 -2.24667,-1.25611 -3.61095,-1.25611c-1.91576,0 -3.61524,0.92608 -4.67519,2.35499c-1.0337,-1.61487 -2.84336,-2.68527 -4.90301,-2.68527c-0.51315,0 -1.01081,0.06646 -1.4848,0.1912c0.02366,-0.21317 0.03583,-0.42983 0.03583,-0.64932c0,-3.21278 -2.60448,-2.84471 -5.81725,-2.84471c-1.30209,0 -2.50428,-2.54475 -3.47364,-1.82203c0.56734,-1.09948 1.9932,-4.25432 2.1955,-8.5269z" fill="#a8ba9a" stroke-width="NaN"/><path d="M329.07857,204.11917c-1.96281,0 -3.69856,0.97211 -4.75209,2.46114c-0.97204,-1.85561 -2.91635,-3.1217 -5.15637,-3.1217c-1.71204,0 -3.25133,0.73958 -4.31582,1.91667c-0.99205,-0.78645 -2.24667,-1.25611 -3.61095,-1.25611c-1.91576,0 -3.61524,0.92608 -4.67519,2.35499c-1.0337,-1.61487 -2.84336,-2.68527 -4.90301,-2.68527c-0.51315,0 -1.01081,0.06646 -1.4848,0.1912c0.02366,-0.21317 0.03583,-0.42983 0.03583,-0.64932c0,-3.21278 -2.60448,-2.84471 -5.81725,-2.84471c-1.30209,0 -2.50428,-2.54475 -3.47364,-1.82203c0.45619,-0.88404 1.46739,-3.09692 1.95132,-6.15119c1.37029,0.09654 2.7537,0.14566 4.14856,0.14566c17.78946,0 33.71386,-7.98513 44.38447,-20.56666c-6.11347,9.20743 -9.67486,20.25604 -9.67486,32.13648c0,0.17771 0.00079,0.3552 0.00237,0.53253c-0.79685,-0.41016 -1.70066,-0.64169 -2.65858,-0.64169z" fill-opacity="0.09804" fill="#000000" stroke-width="NaN"/><path d="M320.16091,78.4324c23.86823,0 27.05143,22.18314 27.46899,27.34162c-7.22735,-12.71081 -19.10551,-22.43225 -33.31957,-26.84943c1.79688,-0.31911 3.74296,-0.49216 5.85057,-0.49216z" fill-opacity="0.09804" fill="#000000" stroke-width="NaN"/><path d="M302.21819,120.22442c-0.54012,0.21605 -0.75617,-0.32407 -0.75617,-0.32407l-0.085,-0.21247c-1.19263,-3.05431 -1.21052,-7.45367 -0.18529,-10.52932c0,0 0.18396,-0.55187 0.73584,-0.36793c0.55187,0.18396 0.36793,0.73584 0.36793,0.73584c-0.93616,2.80848 -0.97609,6.96483 0.16179,9.72931l0.085,0.21249c0,0 0.21605,0.5401 -0.32407,0.75615z" fill-opacity="0.09804" fill="#000000" stroke-width="0.5"/><path d="M347.23789,190.11975c0.25747,5.35811 2.43573,8.9689 2.43573,8.9689c0,0 -0.00766,0.03539 -0.02806,0.10196c-1.00876,-0.84092 -2.30659,1.29541 -3.72258,1.29541c-2.55666,0 -1.09497,2.97043 -1.87527,5.26312c-1.12964,0.38445 -5.73618,-2.85676 -6.43311,-1.91716c-1.66562,0.20323 -3.11386,1.11044 -4.03813,2.41507c-1.06688,-1.29918 -2.68562,-2.1279 -4.4979,-2.1279c-1.96281,0 -3.69856,0.97211 -4.75209,2.46114c-0.97204,-1.85561 -2.91635,-3.1217 -5.15637,-3.1217c-1.71204,0 -3.25133,0.73958 -4.31582,1.91667c-0.99205,-0.78645 -2.24667,-1.25611 -3.61095,-1.25611c-1.91576,0 -3.61524,0.92608 -4.67519,2.35499c-1.0337,-1.61487 -2.84336,-2.68527 -4.90301,-2.68527c-0.51315,0 -1.01081,0.06646 -1.4848,0.1912c0.02366,-0.21317 0.03583,-0.42983 0.03583,-0.64932c0,-3.21278 -2.60448,-2.84471 -5.81725,-2.84471c-1.30209,0 -2.50428,-2.54475 -3.47364,-1.82203c0.14639,-0.28365 0.3499,-0.70412 0.57479,-1.24529c5.51818,1.73659 11.39113,2.67291 17.48277,2.67291c14.5523,0 27.85659,-5.34345 38.05781,-14.17534c0.06806,1.48701 0.13445,2.89713 0.19723,4.20343z" fill-opacity="0.09804" fill="#000000" stroke-width="NaN"/><path d="M302.90636,114.88002c0,-5.40169 3.3801,-12.10754 6.59288,-12.10754c3.21278,0 7.36853,5.93022 7.36853,11.33191c0,5.40169 -3.3801,11.33191 -6.59288,11.33191c-3.21278,0 -7.36853,-5.15457 -7.36853,-10.55626z" fill-opacity="0.09804" fill="#000000" stroke-width="0.5"/><path d="M323.49897,114.10437c0,-5.40169 4.15575,-11.33191 7.36853,-11.33191c3.21278,0 6.59288,6.70585 6.59288,12.10754c0,5.40169 -4.15575,10.55626 -7.36853,10.55626c-3.21278,0 -6.59288,-5.93022 -6.59288,-11.33191z" fill-opacity="0.09804" fill="#000000" stroke-width="0.5"/></g><path d="" fill-opacity="0.09804" fill="#000000" stroke-width="0.5"/><g stroke-width="0.5"><path d="M302.65591,92.34448c2.40185,0 4.46372,1.45564 5.35157,3.53284c0.98488,-0.76522 2.22226,-1.22086 3.56607,-1.22086c0.66903,0 1.3117,0.11295 1.90994,0.32081c1.066,-1.20931 2.62661,-1.97221 4.36543,-1.97221c2.10373,0 3.94663,1.1167 4.96831,2.78967c0.42015,-0.09645 0.85765,-0.14743 1.30707,-0.14743c1.88779,0 3.56553,0.89921 4.62832,2.29267c0.67606,-2.46396 2.93183,-4.27438 5.61044,-4.27438c1.29813,0 2.49695,0.42519 3.46478,1.14393c0.78621,-2.10987 2.76192,-3.64047 5.11171,-3.77636c0.49915,2.87399 1.18907,2.34626 2.58027,4.79403c1.3912,2.44777 1.35985,5.22591 1.44417,5.3448c-1.02979,0.92387 -2.19091,1.48584 -3.68328,1.48584c-1.29813,0 -2.49695,-0.42519 -3.46478,-1.14393c-0.82398,2.21123 -2.95449,3.78619 -5.45286,3.78619c-1.88779,0 -7.56015,1.98171 -10.23876,1.98171c-2.10373,0 -3.94663,-1.1167 -4.96831,-2.78967c-0.42015,0.09645 -0.85765,0.14743 -1.30707,0.14743c-0.66903,0 -1.3117,-0.11295 -1.90994,-0.32081c-1.066,1.20931 -2.62661,1.97221 -4.36543,1.97221c-1.5314,0 -2.92459,-0.59175 -3.96339,-1.55905c-1.0388,0.96732 -2.43198,1.55905 -3.96339,1.55905c-2.69076,0 -4.95483,-1.82687 -5.61954,-4.30793c-0.61719,0.22299 -1.28287,0.34454 -1.97696,0.34454c-0.91465,0 -1.78001,-0.2111 -2.55,-0.58722c0.78844,-5.42685 0.90285,-4.36751 0.90285,-6.68162c0,-1.36982 -0.11017,-2.71391 -0.32214,-4.02389c0.61502,-0.22123 1.27807,-0.34177 1.96928,-0.34177c1.7831,0 3.37885,0.80227 4.44594,2.06552c0.66775,-0.26715 1.39656,-0.4141 2.15971,-0.4141z" fill-opacity="0.09804" fill="#000000"/><path d="M302.65591,89.51114c2.40185,0 4.46372,1.45564 5.35157,3.53284c0.98488,-0.76522 2.22226,-1.22086 3.56607,-1.22086c0.66903,0 1.3117,0.11295 1.90994,0.32081c1.066,-1.20931 2.62661,-1.97221 4.36543,-1.97221c2.10373,0 3.94663,1.1167 4.96831,2.78967c0.42015,-0.09645 0.85765,-0.14743 1.30707,-0.14743c1.88779,0 3.56553,0.89921 4.62832,2.29267c0.67606,-2.46396 2.93183,-4.27438 5.61044,-4.27438c1.29813,0 2.49695,0.42519 3.46478,1.14393c0.82398,-2.21123 2.95449,-3.78619 5.45286,-3.78619c3.21278,0 5.81725,2.60448 5.81725,5.81725c0,3.21278 -2.60448,5.81725 -5.81725,5.81725c-1.29813,0 -2.49695,-0.42519 -3.46478,-1.14393c-0.82398,2.21123 -2.95449,3.78619 -5.45286,3.78619c-1.88779,0 -3.56553,-0.89921 -4.62832,-2.29267c-0.67606,2.46396 -2.93183,4.27438 -5.61044,4.27438c-2.10373,0 -3.94663,-1.1167 -4.96831,-2.78967c-0.42015,0.09645 -0.85765,0.14743 -1.30707,0.14743c-0.66903,0 -1.3117,-0.11295 -1.90994,-0.32081c-1.066,1.20931 -2.62661,1.97221 -4.36543,1.97221c-1.5314,0 -2.92459,-0.59175 -3.96339,-1.55905c-1.0388,0.96732 -2.43198,1.55905 -3.96339,1.55905c-2.69076,0 -4.95483,-1.82687 -5.61954,-4.30793c-0.61719,0.22299 -1.28287,0.34454 -1.97696,0.34454c-3.21278,0 -5.81725,-2.60448 -5.81725,-5.81725c0,-3.21278 2.60448,-5.81725 5.81725,-5.81725c1.7831,0 3.37885,0.80227 4.44594,2.06552c0.66775,-0.26715 1.39656,-0.4141 2.15971,-0.4141z" fill="#1a090d"/><path d="M290.05,93.70427c0,-2.34586 1.38855,-4.36743 3.3886,-5.28758c-0.80948,0.9994 -1.29439,2.27245 -1.29439,3.65875c0,3.21278 2.60448,5.81725 5.81725,5.81725c0.86691,0 -0.26773,1.62883 -2.09421,1.62883c-3.21278,0 -5.81725,-2.60448 -5.81725,-5.81725z" fill="#4a314d"/><path d="M343.67045,100.21961c-1.82648,0 -3.45636,-0.84176 -4.52284,-2.1585c0.73912,0.34003 1.56172,0.52967 2.42863,0.52967c3.21278,0 5.81725,-2.60448 5.81725,-5.81725c0,-1.3863 -0.48493,-2.65935 -1.29441,-3.65875c2.00004,0.92015 3.38862,2.94171 3.38862,5.28758c0,3.21278 -2.60448,5.81725 -5.81725,5.81725z" data-paper-data="{&quot;index&quot;:null}" fill="#ace894"/><path d="M334.82822,103.01189c-1.82648,0 -3.45636,-0.84176 -4.52287,-2.1585c0.73912,0.34003 1.56172,0.52967 2.42863,0.52967c3.21278,0 5.81725,-2.60448 5.81725,-5.81725c0,-1.3863 -0.48493,-2.65935 -1.29439,-3.65875c2.00004,0.92015 3.38862,2.94171 3.38862,5.28758c0,3.21278 -2.60448,5.81725 -5.81725,5.81725z" data-paper-data="{&quot;index&quot;:null}" fill="#4a314d"/><path d="M296.79801,98.12538c0,-2.34586 1.38855,-4.36741 3.38862,-5.28758c-0.80946,0.9994 -1.29441,2.27245 -1.29441,3.65875c0,3.21278 2.60448,5.81725 5.81725,5.81725c0.86691,0 2.35621,-0.18964 3.0953,-0.52967c-1.06649,1.31675 -3.36304,2.1585 -5.18951,2.1585c-3.21278,0 -5.81725,-2.60448 -5.81725,-5.81725z" fill="#6b6570"/><path d="M305.21353,99.07468c-0.42871,-2.30635 0.56702,-4.54762 2.36522,-5.81781c-0.61318,1.1305 -0.8573,2.47073 -0.60395,3.83369c0.58715,3.15867 3.62373,5.24332 6.7824,4.65617c0.85232,-0.15844 2.29308,-0.49521 2.95762,-0.96459c-0.8079,1.48947 -2.92316,2.61492 -4.71887,2.94872c-3.15867,0.58715 -6.19526,-1.4975 -6.7824,-4.65617z" fill="#ace894"/><path d="M311.69018,96.26381c0,-3.21278 2.60448,-5.81725 5.81725,-5.81725c3.21278,0 5.81725,2.60448 5.81725,5.81725c0,3.21278 -2.60448,5.81725 -5.81725,5.81725c-3.21278,0 -5.81725,-2.60448 -5.81725,-5.81725z" fill="#6b6570"/><path d="M319.83432,93.0062c0,-3.21278 2.60448,-5.81725 5.81725,-5.81725c3.21278,0 5.81725,2.60448 5.81725,5.81725c0,3.21278 -2.60448,5.81725 -5.81725,5.81725c-3.21278,0 -5.81725,-2.60448 -5.81725,-5.81725z" fill="#6b6570"/><path d="M318.2055,99.75416c0,-3.21278 2.60448,-5.81725 5.81725,-5.81725c3.21278,0 5.81725,2.60448 5.81725,5.81725c0,3.21278 -2.60448,5.81725 -5.81725,5.81725c-3.21278,0 -5.81725,-2.60448 -5.81725,-5.81725z" fill="#6b6570"/><path d="M314.01707,89.05049c0,-3.21278 2.60448,-5.81725 5.81725,-5.81725c3.21278,0 5.81725,2.60448 5.81725,5.81725c0,3.21278 -2.60448,5.81725 -5.81725,5.81725c-3.21278,0 -5.81725,-2.60448 -5.81725,-5.81725z" fill="#6b6570"/><path d="M317.22269,92.4929c0.24558,0.03162 0.49593,0.04791 0.75012,0.04791c2.24886,0 4.19966,-1.2761 5.16784,-3.14367c0.80627,0.91806 1.89705,1.58006 3.13461,1.84823c-0.68544,0.95442 -1.08906,2.1249 -1.08906,3.38964c0,0.84529 0.18029,1.64845 0.5045,2.37316c-0.24144,-0.03053 -0.48749,-0.04626 -0.73719,-0.04626c-1.86133,0 -3.51848,0.87419 -4.58327,2.23438c-0.15339,-0.07274 -0.3031,-0.15197 -0.44877,-0.23737c0.09526,-0.41766 0.14557,-0.85244 0.14557,-1.29895c0,-2.14112 -1.15675,-4.01207 -2.8794,-5.02199c0.01108,-0.04861 0.02278,-0.09699 0.03507,-0.14511z" fill="#1a090d"/></g><path d="M312.31206,109.48268c-0.16904,0.00026 -0.33901,0.0035 -0.50582,0.0098c-0.58069,2.44512 -1.37569,4.22195 -2.88585,5.9152c1.05,0.50455 2.15685,0.74012 2.74052,0.19559c0.15784,-0.14726 0.31705,-2.75982 0.50588,-3.24985c0.40311,-1.03001 0.67935,-2.26022 0.14528,-2.87073zM306.79862,113.9338c0.11526,-0.75532 0.26655,-1.44634 0.48501,-2.06679c-0.23055,0.20136 -0.45757,0.40096 -0.68101,0.59331c-0.08602,0.29301 -0.16763,0.60019 -0.23967,0.91238c0.03478,0.03275 0.06526,0.06946 0.08965,0.11182c0.06979,0.13278 0.1889,0.28587 0.34601,0.44928zM307.13629,111.34652c0.20206,-0.17123 0.40625,-0.34137 0.61333,-0.50754c0.403,-0.69698 0.95157,-1.26762 1.71473,-1.69792c-0.10553,0.0117 -0.21107,0.02557 -0.31655,0.04154c-0.7145,0.59244 -1.34673,1.33553 -1.90765,2.04824c-0.03046,0.0387 -0.06535,0.07726 -0.10384,0.11568zM312.08523,108.01309c-0.00848,0.10974 -0.0187,0.21882 -0.03351,0.32356c0.08669,-0.01231 0.17482,-0.02383 0.26443,-0.03454c0.17031,-0.02035 0.39139,-0.04913 0.64826,-0.08013c-0.13581,-0.05317 -0.26153,-0.10547 -0.37138,-0.15776c-0.17237,-0.02953 -0.34161,-0.04623 -0.50779,-0.05113zM313.99044,108.61348c-0.69925,0.06361 -1.30253,0.14775 -1.61494,0.1851c-0.02038,0.00244 -0.04069,0.00491 -0.06091,0.00744c0.0409,0.02112 0.08175,0.04265 0.12251,0.06458c1.13439,-0.03569 2.80478,0.08015 2.37279,1.16715c-0.0328,0.15987 -0.06491,0.32019 -0.0967,0.48063c0.03492,0.0468 0.06868,0.09419 0.10127,0.14216c0.12986,-0.37842 0.40209,-1.27916 0.27811,-1.40745c-0.24455,-0.25301 -0.65974,-0.45881 -1.10213,-0.63959zM306.96886,116.59833c0.41968,-0.35701 0.7992,-0.70813 1.1437,-1.05944c-0.33654,-0.19241 -0.65546,-0.40394 -0.94067,-0.62c-0.02407,0.21972 -0.04678,0.44463 -0.06894,0.67455c-0.03001,0.31137 -0.10271,0.66628 -0.1341,1.00487zM316.81255,108.62363c0.00655,0.0155 0.0125,0.03086 0.01782,0.04608c0.36514,1.04343 -0.21853,2.51268 -0.596,3.45891c-0.1753,0.43223 -0.47025,0.97436 -0.84944,1.56428c-0.21581,0.98799 -0.80305,1.97729 -1.79667,2.82116c-0.54344,0.456 -1.20919,1.1728 -1.90583,1.82546c0.3306,0.0401 0.62153,0.02759 0.8153,-0.07904c1.702,-0.9367 2.82749,-3.69656 3.79861,-5.29096c0.42559,-0.69873 2.09411,-2.899 1.61946,-3.77653c-0.16271,-0.3008 -0.57256,-0.47604 -1.10322,-0.56936zM309.88853,117.8673c0.08269,-0.08513 0.16514,-0.17268 0.24702,-0.26193c-0.13786,0.02423 -0.28045,0.04415 -0.42795,0.05957c-0.103,0.00548 -0.22599,0.01658 -0.36367,0.03048c0.02711,0.0079 0.05421,0.01579 0.08132,0.02371c0.12135,0.03485 0.28044,0.0876 0.46328,0.14817zM305.12037,116.43104c-0.15071,-0.16052 -0.30589,-0.32061 -0.46836,-0.4779c-0.2139,-0.20707 -1.15608,-0.93539 -1.15335,-1.22565c0.00398,-0.42215 1.08784,-1.30444 1.8353,-1.88698c0.1924,-0.41655 0.76292,-1.02527 1.06152,-1.36048c0.13986,-0.40393 0.27811,-0.75135 0.39647,-1.00978c0.12943,-0.28143 0.26874,-0.53377 0.41678,-0.75888c-1.79388,0.70643 -3.41023,1.95801 -4.40501,3.42669c-0.15564,0.39076 -0.75113,1.31801 -0.71634,1.71511c0.06689,0.76327 1.22413,0.94816 1.77229,1.14583c0.41828,0.15084 0.83868,0.29416 1.2607,0.43203zM310.37664,118.76184c-0.46601,0.22607 -0.91249,0.34814 -1.31874,0.32992c-0.06218,0.04123 -0.12403,0.08021 -0.18547,0.11674c0.28339,0.09304 0.51869,0.12672 0.64175,0.07176c0.28636,-0.12787 0.57487,-0.30697 0.86246,-0.51843zM312.12196,107.52193c0.20272,0.00623 0.41001,0.02763 0.62207,0.06564c0.32403,0.15075 0.82451,0.31956 1.3201,0.51984c0.55291,-0.04623 1.15588,-0.07645 1.7336,-0.05968c-0.68101,-0.55389 -1.74422,-0.68844 -2.5434,-0.71617c-0.365,-0.01266 -1.01618,-0.46877 -1.09001,-0.11108c-0.01909,0.09248 -0.03215,0.19433 -0.04237,0.30147zM316.23143,108.55492c-0.39484,-0.028 -0.82346,-0.02682 -1.24959,-0.00901c0.23213,0.13965 0.42478,0.29214 0.5453,0.45987c0.37189,0.51757 0.14482,1.40066 -0.32977,2.3682c0.15558,0.3817 0.248,0.78551 0.2745,1.19983c0.12471,-0.23235 0.22547,-0.44484 0.29809,-0.63048c0.33076,-0.82911 0.91122,-2.19761 0.58717,-3.11226c-0.03481,-0.09828 -0.077,-0.1902 -0.1257,-0.27616zM309.08653,118.59304c0.13137,-0.09956 0.26465,-0.21181 0.39854,-0.33361c-0.07079,-0.02213 -0.13732,-0.04234 -0.19883,-0.06001c-0.34208,-0.09978 -0.90522,-0.22301 -1.57583,-0.37564c-0.19104,0.00253 -0.37908,-0.00229 -0.55744,-0.01802c0.50165,0.39424 1.07674,0.68251 1.82924,0.77808c0.03431,0.00444 0.0691,0.0075 0.10433,0.00922zM305.62518,116.23496c-0.10586,-0.78561 0.00167,-1.75952 0.19954,-2.70304c-0.10695,-0.06301 -0.23608,-0.10904 -0.34334,-0.1696c-0.66156,0.52204 -1.48109,1.19446 -1.48275,1.36988c-0.00108,0.11413 1.22065,1.05828 1.3686,1.2182c0.08774,0.09485 0.17352,0.18988 0.25795,0.28455zM308.11799,111.15302c-0.47908,0.85904 -0.71512,1.92866 -0.87734,3.18591c0.34578,0.28511 0.76975,0.57657 1.22157,0.83008c1.48289,-1.62933 2.25469,-3.30917 2.82274,-5.64556c-0.48887,0.0408 -0.90246,0.11271 -1.1124,0.2181c-0.71004,0.35643 -1.39542,0.86567 -2.05459,1.41148zM313.70999,109.56068c0.21623,0.14876 0.41356,0.31167 0.5915,0.48656c0.01297,-0.06103 0.02609,-0.12196 0.03939,-0.18276c0.11951,-0.13714 -0.16215,-0.2397 -0.63088,-0.30381zM310.7072,116.94886c0.16532,-0.19849 0.32486,-0.39661 0.47568,-0.58716c-0.76024,0.13581 -1.71968,-0.13769 -2.61089,-0.57803c-0.41103,0.42751 -0.87054,0.85244 -1.38673,1.28434c0.28731,0.08474 0.57496,0.16854 0.86279,0.25199c0.66994,-0.03991 1.35026,-0.13922 1.62023,-0.1535c0.38154,-0.04004 0.72642,-0.11385 1.03891,-0.21762zM313.01042,109.80101c0.19225,0.78342 -0.03227,1.82506 -0.37708,2.73219c-0.15265,0.39615 -0.21425,1.45829 -0.32451,2.30543c0.47385,-0.68913 0.97846,-1.38788 1.43349,-2.1074c0.16289,-0.67499 0.29529,-1.3809 0.43573,-2.08304c-0.00971,-0.01136 -0.01951,-0.02269 -0.02939,-0.03397c-0.09747,0.00057 -0.17388,-0.06503 -0.17388,-0.06503c-0.30658,-0.26321 -0.63025,-0.51659 -0.96436,-0.74819zM306.17266,112.17104c0.01281,-0.04273 0.02568,-0.08512 0.03862,-0.12714c-0.24471,0.17822 -0.45351,0.35475 -0.53406,0.53064c0.11479,-0.0889 0.20803,-0.16179 0.26947,-0.21314c0.07522,-0.06283 0.15052,-0.12634 0.22597,-0.19037zM316.40558,108.08527c0.89997,0.08907 1.66002,0.33374 1.94999,0.86982c0.61471,1.13645 -1.08358,3.37378 -1.63221,4.27452c-0.99898,1.64014 -2.22433,4.6355 -4.05183,5.49968c-0.36741,0.17373 -0.90024,0.14071 -1.45273,0.02849c-0.52843,0.4557 -1.0629,0.83535 -1.56504,1.00259c-0.32686,0.10886 -0.85567,-0.01559 -1.3996,-0.26996c-0.69819,0.20695 -1.28682,-0.05627 -1.5954,-1.16674c-0.18241,-0.21434 -0.31428,-0.43314 -0.36983,-0.64216c-0.08687,-0.08571 -0.17265,-0.17355 -0.25792,-0.26302c-2.09389,-0.54818 -4.33976,-1.34869 -4.4418,-2.52254c-0.04462,-0.51318 0.57788,-1.51065 0.77269,-1.99196c1.20076,-1.79415 3.24516,-3.26699 5.45768,-3.92913c0.58669,-0.55131 1.26058,-0.80159 1.97153,-0.83008c0.57168,-0.32909 1.18701,-0.55098 1.85379,-0.60943c0.04268,-0.30461 0.09848,-0.58907 0.17836,-0.68051c0.82416,-0.94355 3.50207,0.1894 4.58233,1.23041zM311.58378,108.0341c-0.28737,0.03269 -0.56506,0.1 -0.83344,0.19591c0.23913,0.04951 0.47984,0.11886 0.72041,0.20531c0.01932,-0.00386 0.03871,-0.00768 0.05819,-0.01143c0.00221,-0.01088 0.00443,-0.02177 0.00664,-0.03268c0.01515,-0.07484 0.03058,-0.20401 0.04821,-0.35711zM306.71459,114.54287c-0.19299,-0.17337 -0.35842,-0.34424 -0.48801,-0.50515c-0.18698,1.05158 -0.22645,2.0871 0.07418,2.76528c0.05154,0.01573 0.1031,0.0314 0.15467,0.04702c0.00898,-0.4266 0.11066,-0.89813 0.14981,-1.30454c0.03319,-0.34448 0.06892,-0.67882 0.10934,-1.00262zM311.77546,116.39746c0.61827,-0.46134 1.05118,-1.09505 1.37626,-1.83133c-0.36389,0.49724 -0.67038,0.9048 -0.83526,1.15535c-0.15817,0.20117 -0.34055,0.43102 -0.541,0.67597zM305.94661,112.99824c-0.02706,0.02108 -0.05525,0.04305 -0.08445,0.0658c0.01915,0.01336 0.03892,0.0261 0.05912,0.03839c0.00834,-0.03482 0.01679,-0.06956 0.02533,-0.1042zM314.57538,111.21747c-0.00185,0.00935 -0.00371,0.0187 -0.00556,0.02805c0.00322,-0.0069 0.00644,-0.0138 0.00966,-0.02071c-0.00137,-0.00245 -0.00272,-0.0049 -0.00408,-0.00735zM308.2,118.92133c0.05485,0.02818 0.10968,0.05524 0.16413,0.08102c0.01761,-0.00584 0.03532,-0.0121 0.05312,-0.01874c-0.07405,-0.01897 -0.14643,-0.03977 -0.21725,-0.06229zM314.9474,113.45223c0.08903,-0.50695 0.06499,-1.01003 -0.06471,-1.48448c-0.22517,0.39801 -0.47886,0.8005 -0.73827,1.18922c-0.51561,1.94781 -1.32755,3.60396 -3.23852,4.25336c-0.18572,0.20445 -0.37757,0.40726 -0.57261,0.60193c0.08364,0.02645 0.16937,0.05297 0.25632,0.07888c1.53274,-0.93789 3.29726,-3.00525 4.35778,-4.63891zM307.58369,110.04979c0.20533,-0.23104 0.41705,-0.4568 0.63585,-0.67239c-0.04564,0.01221 -0.09123,0.0248 -0.13675,0.03775c-0.17608,0.17737 -0.34302,0.38788 -0.49911,0.63464zM309.92668,118.40078c-0.01776,0.01618 -0.03554,0.03225 -0.05331,0.04822c0.03043,-0.01135 0.06103,-0.02333 0.09179,-0.0359c-0.01288,-0.00412 -0.02571,-0.00822 -0.03848,-0.01231z" fill="#1a090d" stroke-width="0.5"/><path d="M328.9865,112.42562c0.205,0.4835 0.45089,3.08933 0.61354,3.23126c0.60144,0.52484 1.69985,0.25265 2.73251,-0.28651c-1.56557,-1.64216 -2.41917,-3.39161 -3.08073,-5.81608c-0.16693,-0.00076 -0.33691,0.00165 -0.50587,0.00701c-0.5135,0.62791 -0.19654,1.84827 0.24056,2.86432zM334.73509,113.36632c0.02298,-0.04315 0.05223,-0.08084 0.08589,-0.11473c-0.08237,-0.30962 -0.17414,-0.61392 -0.26984,-0.90392c-0.2297,-0.18481 -0.46323,-0.37677 -0.70034,-0.57036c0.23894,0.61285 0.41311,1.29846 0.5534,2.04954c0.15158,-0.16853 0.26556,-0.3255 0.3309,-0.46052zM333.87316,111.14003c-0.58428,-0.69368 -1.24085,-1.41536 -1.97464,-1.98374c-0.10595,-0.01247 -0.2119,-0.02283 -0.31777,-0.031c0.77702,0.40472 1.34426,0.95682 1.77018,1.64002c0.21248,0.1592 0.4222,0.32246 0.62984,0.48689c-0.03974,-0.03712 -0.07588,-0.0745 -0.10762,-0.11217zM328.41802,108.15296c-0.10805,0.05592 -0.23197,0.11234 -0.36594,0.17c0.25776,0.02246 0.47967,0.04387 0.65055,0.05855c0.08991,0.00773 0.17839,0.0163 0.26544,0.02574c-0.01828,-0.10419 -0.03211,-0.21287 -0.04424,-0.32227c-0.16593,0.01041 -0.33452,0.03273 -0.50581,0.06798zM325.95934,109.42417c-0.11966,0.13232 0.18235,1.02354 0.32471,1.39743c0.03099,-0.04902 0.06315,-0.09751 0.09649,-0.14544c-0.0371,-0.15928 -0.07453,-0.31845 -0.11261,-0.47714c-0.46786,-1.07205 1.19776,-1.2433 2.33271,-1.24531c0.04001,-0.02327 0.08012,-0.04614 0.1203,-0.06861c-0.02029,-0.00185 -0.04067,-0.00365 -0.06113,-0.00541c-0.31347,-0.02694 -0.91921,-0.091 -1.6202,-0.13135c-0.43614,0.19537 -0.84428,0.41485 -1.08028,0.67584zM334.15516,115.49567c-0.02978,-0.22908 -0.05995,-0.45309 -0.0913,-0.6719c-0.27788,0.2254 -0.58959,0.4474 -0.91956,0.6509c0.35598,0.33969 0.74695,0.67799 1.17826,1.02087c-0.04261,-0.33737 -0.12708,-0.68966 -0.1674,-0.99987zM323.13571,109.45788c-0.44526,0.89282 1.29544,3.03645 1.744,3.72066c1.02354,1.56126 2.24008,4.28223 3.97225,5.16187c0.1972,0.10014 0.48839,0.10299 0.81748,0.05192c-0.71793,-0.62916 -1.40713,-1.32345 -1.96541,-1.76114c-1.0211,-0.8104 -1.64089,-1.77965 -1.8894,-2.75993c-0.39858,-0.57701 -0.71138,-1.10904 -0.90093,-1.53521c-0.4087,-0.93316 -1.04084,-2.38221 -0.71056,-3.4372c0.00482,-0.01539 0.01025,-0.03095 0.01628,-0.04665c-0.52726,0.11089 -0.93107,0.29964 -1.0837,0.60569zM331.90474,117.69732c0.02682,-0.0088 0.05366,-0.01759 0.08048,-0.02639c-0.13806,-0.00932 -0.26136,-0.01632 -0.36449,-0.01839c-0.14793,-0.01052 -0.29109,-0.02569 -0.42969,-0.04532c0.0848,0.08648 0.17011,0.17124 0.25558,0.25357c0.18074,-0.06662 0.33797,-0.12461 0.4581,-0.16348zM337.41012,115.79328c0.5413,-0.21576 1.69177,-0.43899 1.73327,-1.20407c0.02158,-0.39802 -0.60439,-1.30499 -0.77291,-1.69036c-1.04302,-1.43483 -2.70005,-2.63204 -4.5164,-3.2785c0.15542,0.22007 0.30306,0.46764 0.44175,0.74461c0.12688,0.25436 0.27659,0.59701 0.42979,0.99605c0.30956,0.3251 0.9,0.91454 1.10612,1.32447c0.76639,0.55738 1.87896,1.40319 1.89696,1.82497c0.01238,0.29001 -0.90511,1.04922 -1.112,1.26328c-0.15715,0.1626 -0.30693,0.32777 -0.45223,0.4932c0.4172,-0.15182 0.83262,-0.30903 1.24565,-0.47367zM331.86771,119.26054c0.12482,0.05083 0.35887,0.00935 0.63902,-0.09304c-0.06262,-0.03446 -0.12574,-0.07136 -0.18925,-0.1105c-0.40541,0.03169 -0.8557,-0.07547 -1.32896,-0.28594c0.29445,0.20178 0.58875,0.3712 0.8792,0.48948zM328.81847,107.29542c-0.08568,-0.35503 -0.72133,0.12244 -1.08572,0.14723c-0.79781,0.05426 -1.85598,0.22403 -2.51821,0.80024c0.57684,-0.03595 1.18049,-0.02577 1.73462,0.00208c0.48866,-0.21662 0.98326,-0.40197 1.3021,-0.5634c0.21069,-0.04504 0.41717,-0.07331 0.61955,-0.08627c-0.01377,-0.10674 -0.03021,-0.2081 -0.05236,-0.2999zM324.68147,109.04442c-0.29349,0.92491 0.33211,2.27336 0.69022,3.09103c0.07876,0.18312 0.18651,0.39214 0.31887,0.62023c0.01273,-0.41497 0.09168,-0.82162 0.2345,-1.20829c-0.50647,-0.95125 -0.76276,-1.82631 -0.40825,-2.35594c0.11489,-0.17164 0.30237,-0.33045 0.52973,-0.47772c-0.42648,-0.00365 -0.85491,0.00941 -1.2486,0.0505c-0.04582,0.08753 -0.08493,0.1808 -0.11647,0.28018zM332.37627,118.54681c0.74891,-0.12051 1.31412,-0.42772 1.8024,-0.8384c-0.17775,0.02165 -0.36551,0.03273 -0.55654,0.03654c-0.66517,0.17482 -1.2239,0.31668 -1.5625,0.42777c-0.06089,0.0197 -0.1267,0.04211 -0.19673,0.06658c0.13787,0.11729 0.27479,0.22505 0.4094,0.32019c0.03515,-0.00289 0.06981,-0.0071 0.10396,-0.01268zM335.90178,115.79478c0.14255,-0.16476 1.33224,-1.14897 1.32737,-1.263c-0.00748,-0.17528 -0.84889,-0.8201 -1.52742,-1.31988c-0.10518,0.06408 -0.23272,0.11439 -0.33752,0.18092c0.22911,0.93642 0.3689,1.90622 0.28921,2.69492c0.08125,-0.09743 0.16382,-0.19524 0.24837,-0.29295zM330.89285,109.74895c-0.21332,-0.09835 -0.62908,-0.1565 -1.11903,-0.18103c0.64534,2.31622 1.47252,3.96951 3.0087,5.54869c0.44316,-0.26837 0.8572,-0.57377 1.19333,-0.8702c-0.20389,-1.25116 -0.47533,-2.31234 -0.98267,-3.155c-0.67694,-0.52362 -1.37885,-1.0098 -2.10034,-1.34245zM326.73094,110.01028c0.0153,0.06032 0.03044,0.12077 0.04544,0.18134c0.17203,-0.18071 0.36385,-0.35007 0.57501,-0.50594c-0.46633,0.07963 -0.74445,0.1915 -0.62045,0.3246zM331.64348,117.15306c0.2703,0.00531 0.95355,0.08196 1.62444,0.0996c0.2849,-0.09296 0.56961,-0.18626 0.85395,-0.28051c-0.53025,-0.41452 -1.00362,-0.82394 -1.42862,-1.23757c-0.8761,0.46972 -1.82591,0.77492 -2.59025,0.66443c0.15707,0.18543 0.3231,0.37815 0.49493,0.57104c0.31576,0.09334 0.6629,0.15567 1.04556,0.183zM327.11958,110.68245c0,0 -0.07419,0.0681 -0.17162,0.07077c-0.0095,0.0116 -0.01891,0.02324 -0.02825,0.03493c0.16369,0.69709 0.31945,1.39821 0.50468,2.06742c0.47868,0.704 1.00622,1.38561 1.5027,2.05863c-0.13833,-0.84302 -0.23518,-1.90253 -0.4009,-2.29338c-0.37475,-0.89518 -0.63375,-1.92879 -0.46762,-2.71816c-0.32624,0.24256 -0.64131,0.50656 -0.93897,0.77981zM335.20342,112.22701c0.06311,0.04928 0.15872,0.11903 0.2764,0.20408c-0.08636,-0.17312 -0.30091,-0.34262 -0.55139,-0.51261c0.01432,0.04156 0.0286,0.0835 0.04281,0.12578c0.07753,0.06148 0.15492,0.12246 0.23218,0.18276zM329.14723,106.91869c0.08287,0.08874 0.14808,0.37119 0.20086,0.67422c0.66835,0.03626 1.29072,0.23759 1.87301,0.54752c0.71151,0.00486 1.39334,0.23262 1.99801,0.76414c2.23328,0.58829 4.32549,1.99243 5.58517,3.74569c0.21069,0.47457 0.86595,1.45082 0.83842,1.96519c-0.06299,1.17659 -2.28104,2.05127 -4.35557,2.66868c-0.08225,0.09225 -0.16506,0.18289 -0.24905,0.27144c-0.04858,0.21075 -0.1731,0.43381 -0.34829,0.6541c-0.27153,1.12009 -0.85111,1.40273 -1.55577,1.21908c-0.53517,0.2723 -1.05957,0.41425 -1.38986,0.3163c-0.50742,-0.15048 -1.0542,-0.51217 -1.59748,-0.95006c-0.54846,0.1305 -1.0799,0.18121 -1.45288,0.01977c-1.85518,-0.80301 -3.17935,-3.75602 -4.23226,-5.36207c-0.57825,-0.88202 -2.34991,-3.06171 -1.77329,-4.21795c0.272,-0.54541 1.02351,-0.81518 1.92002,-0.93411c1.04508,-1.07632 3.6839,-2.29759 4.53894,-1.38194zM329.48576,108.44463c0.00257,0.01083 0.00514,0.02163 0.00771,0.03243c0.0196,0.00312 0.03911,0.00628 0.05854,0.0095c0.23756,-0.09439 0.47584,-0.17169 0.71319,-0.22913c-0.2714,-0.08694 -0.55119,-0.145 -0.83948,-0.16812c0.02271,0.15244 0.0424,0.28102 0.06005,0.35531zM334.65099,115.43122c0.05263,0.40488 0.16991,0.87278 0.19305,1.29883c0.05102,-0.01732 0.10204,-0.0347 0.15304,-0.05213c0.27793,-0.6878 0.2041,-1.72145 -0.01772,-2.76622c-0.12417,0.16512 -0.28382,0.34139 -0.47096,0.52109c0.05115,0.32228 0.09797,0.65525 0.14259,0.99844zM328.94878,115.79681c-0.17311,-0.24493 -0.49297,-0.64209 -0.87317,-1.12698c0.34936,0.72508 0.80308,1.34406 1.43633,1.78461c-0.20847,-0.23817 -0.39838,-0.46183 -0.56316,-0.65763zM335.25342,112.96679c0.01979,-0.01295 0.03911,-0.02633 0.05781,-0.04034c-0.02994,-0.02177 -0.05884,-0.04279 -0.08658,-0.06296c0.00968,0.03433 0.01928,0.06877 0.02877,0.1033zM326.53766,111.37778c0.00344,0.00679 0.00688,0.01358 0.01034,0.02038c-0.00216,-0.00928 -0.00433,-0.01857 -0.00648,-0.02785c-0.00128,0.00249 -0.00257,0.00499 -0.00385,0.00748zM332.95418,118.92763c0.01801,0.00605 0.03591,0.0117 0.05371,0.01695c0.05357,-0.02759 0.10747,-0.05645 0.16136,-0.08643c-0.07003,0.02486 -0.14169,0.04805 -0.21506,0.06947zM330.75337,118.10779c0.08605,-0.0288 0.17085,-0.05813 0.25356,-0.08736c-0.20141,-0.18808 -0.39988,-0.38439 -0.59228,-0.58257c-1.93149,-0.58556 -2.79798,-2.21385 -3.37801,-4.14345c-0.27217,-0.37988 -0.5391,-0.77373 -0.77736,-1.16404c-0.11388,0.47849 -0.12119,0.9821 -0.01537,1.48581c1.1142,1.59753 2.94643,3.60512 4.50947,4.4916zM332.97064,109.35334c-0.04593,-0.01143 -0.09191,-0.0225 -0.13793,-0.03319c0.22586,0.2082 0.44496,0.4268 0.65785,0.65089c-0.1642,-0.24145 -0.33805,-0.44628 -0.51992,-0.61771zM331.38819,118.40883c0.03116,0.01155 0.06214,0.0225 0.09293,0.03283c-0.01831,-0.01537 -0.0366,-0.03085 -0.05489,-0.04642c-0.01262,0.00452 -0.02529,0.00905 -0.03805,0.01359z" data-paper-data="{&quot;index&quot;:null}" fill="#1a090d" stroke-width="0.5"/><g data-paper-data="{&quot;index&quot;:null}" fill="#1a090d" stroke-width="0.5"><path d="M314.18727,126.32173c-0.99496,-0.9769 -3.28604,0.38115 -3.19439,1.61383c-0.00801,0.62649 0.17868,1.7279 -0.11002,2.29815c-0.85242,1.68373 -2.65333,2.11492 -2.93027,4.24284c-0.35994,2.3808 0.40185,5.33141 -1.14115,7.37821c-0.26078,0.34594 -1.86775,2.21219 -1.42929,2.68536c0.44392,0.47906 3.60556,0.58869 4.28004,0.5395c0.91335,-0.04907 2.03492,-1.05614 2.81611,-1.52893c1.30743,-0.79127 2.63397,-1.1447 4.02285,-1.73965c1.24024,-0.53016 3.18864,-1.85732 4.52718,-1.92293c0.8623,-0.04227 2.04047,1.02789 2.70839,1.47838c2.35289,1.58692 4.53386,1.81581 7.31471,1.85032c0.4081,-0.02871 2.23593,0.08504 2.48404,-0.1587c0.79503,-0.78107 -0.05474,-3.97734 -0.51191,-4.78604c-0.83326,-1.47779 -2.28194,-2.85447 -2.10703,-4.63739c0.07951,-0.81047 0.74002,-1.34628 0.84413,-2.13584c-0.09745,-1.30904 -0.96198,-3.2466 -2.0108,-4.15178c-0.4537,-0.39157 -1.84757,0.2141 -2.30294,0.37744c-0.2371,0.08506 -0.84556,0.13923 -1.01021,0.23729c-0.24917,0.1484 -0.09846,2.0172 -0.81265,2.03499c-0.35742,0.0089 -0.69965,-1.17295 -0.83689,-1.41011c-0.55588,-0.96059 -1.05612,-0.99818 -2.13149,-0.94012c-1.74806,0.09311 -5.46461,-0.70132 -6.35336,1.06239l0.01349,0.18784c0.0073,0.10162 -0.07035,0.18982 -0.17343,0.19702c-0.08882,0.0062 -0.16756,-0.04977 -0.1923,-0.1304l-0.08577,-0.25891c-0.26574,-0.80213 -0.86187,-1.67421 -1.63035,-2.09743c0,0 -0.16263,-0.09123 -0.07009,-0.25155c0.0074,-0.01282 0.01524,-0.02402 0.02341,-0.03379zM316.07508,128.21448c0.17589,-0.37568 0.68495,-0.71988 1.03762,-0.75823c1.84262,-0.20036 3.68167,-0.08003 5.52281,-0.17809c1.04519,-0.05496 1.61478,-0.04606 2.24522,0.81027c0.33784,0.4589 0.15889,1.55384 0.7339,1.53953c0.2554,-0.00636 0.38322,-1.78339 0.56124,-1.93071c0.12352,-0.10222 0.93896,-0.24621 1.1431,-0.31944c0.63817,-0.22892 2.03019,-0.81598 2.66881,-0.31555c1.13963,0.89304 2.05422,3.11148 2.14699,4.4469c-0.10355,0.81651 -0.77563,1.36228 -0.84721,2.1738c-0.1475,1.67223 1.27618,3.01421 2.06313,4.40986c0.52881,0.94013 1.39905,4.29322 0.44898,5.22659c-0.37772,0.37107 -2.20393,0.2291 -2.73725,0.26616c-2.85347,-0.03299 -5.12336,-0.2867 -7.537,-1.9146c-0.56499,-0.38106 -1.74791,-1.46419 -2.47562,-1.41455c-1.30251,0.08886 -3.18563,1.37408 -4.39977,1.89309c-0.8784,0.37474 -1.854,0.53572 -2.71579,0.95196c-1.31577,0.63551 -2.77708,2.22499 -4.24561,2.34615c-0.75874,0.05085 -4.10436,-0.06499 -4.59456,-0.67202c-0.63156,-0.78207 0.99164,-2.57664 1.417,-3.14088c1.48175,-1.96555 0.72407,-4.91595 1.07084,-7.20882c0.28628,-2.2005 2.09949,-2.6366 2.96678,-4.35823c0.25194,-0.50011 0.06255,-1.56747 0.0701,-2.12205c-0.1095,-1.73305 3.1484,-3.35564 4.13166,-1.47816l0.08961,0.05929c0,0 0.04574,0.03914 0.0626,0.09853c0.50416,0.42311 0.91212,0.99908 1.17242,1.58928z"/><path d="M316.05503,127.84814l-0.00947,-0.19348c0.04557,-0.35269 0.07973,-0.87583 0.28452,-1.13187c-1.99279,-0.38298 -3.01746,0.38166 -4.82257,1.28997c-1.45686,2.63725 -3.02023,5.14664 -4.02988,8.0346c-0.74065,2.11853 -0.98128,4.29496 -1.70891,6.37821c-0.13795,0.39493 -0.40047,1.19034 -0.75338,1.50571c0.66471,0.0684 1.32927,0.13821 1.99389,0.20748c2.97001,0.31335 6.0748,0.23529 8.96878,-0.70709c1.31532,-0.53697 3.09471,-1.71112 4.51793,-1.80146c1.21289,-0.07698 3.14486,0.87252 4.35357,1.18438c3.12187,-0.15894 6.1482,1.87249 8.40961,-1.17648c0.31857,-0.52787 0.45761,-0.46759 0.95499,-0.7321c0.24223,-0.12881 -0.45666,-0.32738 -0.60043,-0.55875c-0.33596,-0.54067 -0.87709,-1.25674 -1.12231,-1.82969c-0.51916,-1.21303 -0.69804,-2.75818 -1.22489,-4.06132c-0.11888,-0.84932 0.36726,-2.89014 0.0813,-3.4891c-0.31394,-0.65758 -1.363,-0.77683 -1.30719,-1.75364c0.05604,-0.98091 0.68088,-2.27044 -0.89314,-2.15433c-0.30975,0.02162 -1.0017,-0.05841 -1.27708,0.07202c-1.0388,0.49202 -0.41307,2.52609 -1.33998,2.95388c-0.51872,0.2394 -3.35264,-1.88349 -3.5103,-2.23748c-0.24725,-0.04566 -1.27724,-0.45153 -1.47132,-0.2412c-0.25755,0.27914 -0.03509,1.02032 -0.35805,1.32048c-0.61221,0.569 -3.94496,0.01325 -4.83889,0.07565c0,0 -0.22713,0.01586 -0.24322,-0.20804c-0.01608,-0.2239 0.21105,-0.23977 0.21105,-0.23977c0.602,-0.04202 4.33411,0.34753 4.59202,0.01738c0.22649,-0.28994 0.00051,-1.00187 0.32076,-1.28864c0.4775,-0.42759 1.56685,0.06983 2.07085,0.21258c0.36773,0.6507 1.2731,0.80316 1.89604,1.22473c0.41807,0.28292 0.95032,1.38096 1.18653,0.9386c0.90195,-1.68916 0.24715,-2.87471 2.72943,-3.04799c1.93477,-0.12829 1.51246,1.38384 1.37938,2.63645c-0.08006,0.75348 1.01982,0.98121 1.2605,1.51867c0.33116,0.73952 -0.17279,2.63203 -0.04838,3.57514c0.68649,1.66024 0.97688,3.50862 1.87305,4.98249c0.21584,0.35498 1.2078,1.4935 1.02847,1.80668c-0.23305,0.40698 -0.71294,0.28494 -0.96675,0.75105c-2.41144,3.26221 -5.52009,1.24638 -8.83851,1.37934c-1.18844,-0.29294 -3.0877,-1.24849 -4.2638,-1.18408c-1.35701,0.07432 -3.13999,1.26043 -4.40273,1.77543c-2.96369,0.96221 -6.13173,1.04572 -9.17517,0.73267c-0.73126,-0.07622 -1.46258,-0.1519 -2.19371,-0.22925l-0.01494,-0.00835l-0.00126,0.00486l-0.43604,-0.11024c-0.09483,-0.02166 -0.16841,-0.10214 -0.17564,-0.20286c-0.0088,-0.12249 0.08381,-0.22895 0.20746,-0.23948l0.16728,-0.01467c1.56845,-1.26511 1.9453,-6.20427 2.53259,-7.88414c1.02902,-2.94336 2.55903,-5.56353 4.14214,-8.20941c2.01524,-1.11475 3.27875,-1.92314 5.68484,-1.30673l0.43567,0.11161c0.09449,0.02189 0.16773,0.10223 0.17495,0.2027c0.00858,0.11936 -0.07916,0.22352 -0.19808,0.23849l-0.19889,0.02672c-0.30546,0.24108 -0.54386,0.58669 -0.59041,0.94693l0.01197,0.10505c0,0 0.01609,0.2239 -0.21104,0.23976c-0.22713,0.01586 -0.24321,-0.20804 -0.24321,-0.20804z"/></g></g></g></svg>