<svg version="1.1" xmlns="http://www.w3.org/2000/svg" xmlns:xlink="http://www.w3.org/1999/xlink" width="16.25" height="16.25" viewBox="0,0,16.25,16.25"><defs><radialGradient cx="320" cy="180" r="8.125" gradientUnits="userSpaceOnUse" id="color-1"><stop offset="0" stop-color="#ace894"/><stop offset="1" stop-color="#ace894" stop-opacity="0"/></radialGradient><radialGradient cx="320" cy="180" r="8.125" gradientUnits="userSpaceOnUse" id="color-2"><stop offset="0" stop-color="#ace894"/><stop offset="1" stop-color="#ace894" stop-opacity="0"/></radialGradient></defs><g transform="translate(-311.875,-171.875)"><g data-paper-data="{&quot;isPaintingLayer&quot;:true}" fill-rule="nonzero" stroke="none" stroke-width="0" stroke-linecap="butt" stroke-linejoin="miter" stroke-miterlimit="10" stroke-dasharray="" stroke-dashoffset="0" style="mix-blend-mode: normal"><path d="M311.875,180c0,-4.48731 3.63769,-8.125 8.125,-8.125c4.48731,0 8.125,3.63769 8.125,8.125c0,4.48731 -3.63769,8.125 -8.125,8.125c-4.48731,0 -8.125,-3.63769 -8.125,-8.125z" fill="url(#color-1)"/><path d="M311.875,180c0,-4.48731 3.63769,-8.125 8.125,-8.125c4.48731,0 8.125,3.63769 8.125,8.125c0,4.48731 -3.63769,8.125 -8.125,8.125c-4.48731,0 -8.125,-3.63769 -8.125,-8.125z" fill="url(#color-2)"/></g></g></svg>