<svg version="1.1" xmlns="http://www.w3.org/2000/svg" xmlns:xlink="http://www.w3.org/1999/xlink" width="34.17311" height="34.17311" viewBox="0,0,34.17311,34.17311"><g transform="translate(-302.91346,-162.9135)"><g data-paper-data="{&quot;isPaintingLayer&quot;:true}" stroke-miterlimit="10" stroke-dasharray="" stroke-dashoffset="0" style="mix-blend-mode: normal"><path d="M309.98312,162.9135h20.03379c3.9166,0 7.06966,3.15307 7.06966,7.06966v20.03379c0,3.91659 -3.15306,7.06966 -7.06966,7.06966h-20.03379c-3.91659,0 -7.06966,-3.15307 -7.06966,-7.06966v-20.03379c0,-3.91659 3.15307,-7.06966 7.06966,-7.06966z" fill-opacity="0.35294" fill="#bc47ff" fill-rule="evenodd" stroke="none" stroke-width="4.43922" stroke-linecap="round" stroke-linejoin="round"/><g data-paper-data="{&quot;index&quot;:null}" fill-rule="nonzero" stroke-linejoin="miter"><path d="M310.11971,173.03588c1.15843,-4.2539 2.31674,-6.07059 4.21483,-6.53528c2.06063,-0.50448 4.67044,1.49319 7.49211,2.2616c3.0602,0.83336 6.52503,0.43876 7.96582,2.24822c1.1114,1.39579 1.00983,3.50773 -0.04227,7.37124c-1.04548,3.83917 -3.23461,7.02902 -5.35997,9.41857c-2.78618,3.13252 -4.33715,6.83586 -9.24555,5.49911c-5.3445,-1.45551 -4.36768,-5.31522 -5.18078,-9.42815c-0.62019,-3.13715 -0.88962,-6.99634 0.15582,-10.83532z" fill="#bc47ff" stroke="none" stroke-width="0" stroke-linecap="butt"/><path d="M315.08178,182.24756c-0.10252,-0.8233 0.63315,-0.70191 1.57756,-2.28503c1.21574,-2.03796 2.9371,-5.49883 3.14729,-5.88088c0.01159,-0.02107 1.06362,0.30222 1.06302,0.32332c-0.01358,0.47198 -2.00136,11.82489 -3.61436,11.38565c-1.613,-0.43925 -2.07098,-2.71974 -2.1735,-3.54304z" fill="#000000" stroke="none" stroke-width="0" stroke-linecap="butt"/><path d="M317.52288,172.22059c-1.05878,0.47968 -2.4464,0.38711 -2.4464,0.38711c0,0 2.52134,-1.05654 3.23988,-1.52208c0.94172,-0.61012 1.61426,-1.3256 1.61426,-1.3256l-0.20587,0.39165c-0.92998,1.22233 -1.14311,1.58924 -2.20188,2.06892z" data-paper-data="{&quot;index&quot;:null}" fill="#000000" stroke="none" stroke-width="0.5" stroke-linecap="butt"/><path d="M322.95493,170.58358c0,0 0.33832,1.16496 0.85504,2.2373c0.31702,0.65793 1.88497,2.67843 1.88497,2.67843c0,0 -1.24296,-0.6238 -1.91232,-1.57409c-0.66937,-0.95029 -0.66703,-1.3746 -0.84883,-2.8997l0.02114,-0.44196z" data-paper-data="{&quot;index&quot;:null}" fill="#000000" stroke="none" stroke-width="0.5" stroke-linecap="butt"/><path d="M319.99427,191.37727c0,0 -0.47999,-0.90723 -3.83936,-1.7355c-3.27805,-0.80821 -4.20982,-0.45647 -4.20982,-0.45647c0,0 -0.00343,-4.14783 5.04711,-2.8304c4.88423,1.27406 3.00208,5.02235 3.00208,5.02235z" fill="#000000" stroke="#000000" stroke-width="0" stroke-linecap="round"/><path d="M324.61161,176.70357c1.52676,1.23451 3.62716,1.27801 3.50827,2.63778c-0.23636,2.70347 -4.98635,3.91122 -7.04979,1.45794c-2.06345,-2.45328 1.06852,-7.62565 1.06852,-7.62565c0,0 0.96429,2.31002 2.47301,3.52993z" data-paper-data="{&quot;index&quot;:null}" fill="#000000" stroke="none" stroke-width="0" stroke-linecap="butt"/><path d="M317.52815,184.57356c-0.90084,-0.26056 -1.37704,-1.82715 -1.37704,-1.82715c0,0 0.41586,-0.2797 1.23059,-2.42297c0.61219,-1.61044 1.82349,-6.25262 2.40051,-6.88669c0.24569,-0.26997 1.35701,0.02882 1.43281,0.37844c0.17604,0.8119 -1.17617,5.51464 -1.46669,7.18723c-0.40535,2.33363 -0.13521,2.74533 -0.13521,2.74533c0,0 -1.18413,1.08638 -2.08498,0.82582z" fill="#bc47ff" stroke="none" stroke-width="0" stroke-linecap="butt"/><path d="M315.39718,174.19428c1.91893,-0.28649 3.92135,-1.78861 3.92135,-1.78861c0,0 0.07692,6.04621 -2.94553,7.1145c-3.02244,1.0683 -6.50419,-2.38114 -5.33715,-4.83116c0.58699,-1.23229 2.41942,-0.20481 4.36132,-0.49473z" data-paper-data="{&quot;index&quot;:null}" fill="#000000" stroke="none" stroke-width="0" stroke-linecap="butt"/><path d="M311.55906,182.46877c0.22083,1.04672 0.13988,1.57058 -0.03771,3.41778l-0.09547,0.54913c0,0 0.05027,-1.1407 -0.06103,-2.28423c-0.08494,-0.87252 -0.65057,-3.26585 -0.65057,-3.26585c0,0 0.62396,0.53644 0.84479,1.58316z" data-paper-data="{&quot;index&quot;:null}" fill="#000000" stroke="none" stroke-width="0.5" stroke-linecap="butt"/><path d="M323.22593,187.07411c-0.71376,1.00241 -1.39579,2.19486 -1.39579,2.19486l0.19615,-0.52173c0.78354,-1.68218 0.97938,-2.17475 1.70045,-2.96498c0.72107,-0.79022 1.53086,-0.93623 1.53086,-0.93623c0,0 -1.59374,1.61305 -2.03167,2.22807z" data-paper-data="{&quot;index&quot;:null}" fill="#000000" stroke="none" stroke-width="0.5" stroke-linecap="butt"/><path d="M310.11971,173.03588v0c1.15843,-4.2539 2.31672,-6.07059 4.21483,-6.53528c0.6633,-0.16238 1.38348,-0.06552 2.14933,0.16615c-2.25448,0.99644 -4.05733,2.96322 -4.75545,5.52683c-0.86472,3.17539 0.50745,5.27619 2.78322,7.35077c-3.49886,2.64802 -2.62188,11.27474 -0.54759,13.35428c-4.01711,-1.68292 -3.25304,-5.24828 -4.00015,-9.02744c-0.62019,-3.13715 -0.88962,-6.99634 0.1558,-10.83531z" fill="#000000" stroke="none" stroke-width="0" stroke-linecap="butt"/></g></g></g></svg>