<svg version="1.1" xmlns="http://www.w3.org/2000/svg" xmlns:xlink="http://www.w3.org/1999/xlink" width="34.17311" height="34.17311" viewBox="0,0,34.17311,34.17311"><g transform="translate(-302.91346,-162.91347)"><g data-paper-data="{&quot;isPaintingLayer&quot;:true}" stroke="none" stroke-miterlimit="10" stroke-dasharray="" stroke-dashoffset="0" style="mix-blend-mode: normal"><path d="M309.98312,162.91348h20.03379c3.9166,0 7.06966,3.15307 7.06966,7.06966v20.03379c0,3.91659 -3.15306,7.06966 -7.06966,7.06966h-20.03379c-3.91659,0 -7.06966,-3.15307 -7.06966,-7.06966v-20.03379c0,-3.91659 3.15307,-7.06966 7.06966,-7.06966z" fill-opacity="0.35294" fill="#ff672b" fill-rule="evenodd" stroke-width="4.43922" stroke-linecap="round" stroke-linejoin="round"/><g fill-rule="nonzero" stroke-width="0" stroke-linecap="butt" stroke-linejoin="miter"><g fill="#ff672b"><path d="M308.48535,175.4873c0.73798,-4.00903 4.27169,-6.71864 7.89275,-6.05208c3.62106,0.66656 5.95826,4.45689 5.22027,8.46592c-0.73798,4.00903 -6.85492,9.62034 -6.85492,9.62034c0,0 -6.99608,-8.02517 -6.2581,-12.03419z"/><path d="M318.32009,177.29769c0.73798,-4.00903 4.27168,-6.71864 7.89274,-6.05208c3.62106,0.66656 5.95826,4.45689 5.22027,8.46592c-0.73798,4.00903 -10.12671,8.98175 -10.12671,8.98175c0,0 -3.72428,-7.38656 -2.9863,-11.39559z"/><path d="M312.40054,181.83673c0.73798,-4.00903 4.27168,-6.71864 7.89275,-6.05208c3.62106,0.66656 5.95826,4.45689 5.22027,8.46592c-0.73798,4.00903 -7.95956,6.41502 -7.95956,6.41502c0,0 -5.89145,-4.81983 -5.15346,-8.82886z"/></g><g fill="#000000"><path d=""/><path d="M331.43309,179.71152c-0.73798,4.00903 -10.12671,8.98175 -10.12671,8.98175c0,0 -0.98267,-1.6105 4.39552,-7.53621c0.64755,-0.71348 4.40417,-3.65456 5.66575,-4.70391c0.23748,1.02614 0.27248,2.13364 0.06544,3.25836z"/><path d="M325.51356,184.25057c-0.47284,2.56866 -3.60733,4.47924 -5.79862,5.52054c0.68453,-1.4922 4.55177,-7.01374 5.81268,-8.39034c0.16295,0.91478 0.16709,1.8857 -0.01406,2.8698z"/></g><g fill="#000000"><path d="M321.59837,177.90113c-0.73798,4.00903 -6.85492,9.62034 -6.85492,9.62034c0,0 -3.86127,-4.42925 -5.54405,-8.35046c4.48167,0.03611 8.78064,-1.13892 12.51863,-3.2644c0.04175,0.64935 0.00472,1.31883 -0.11966,1.99451z"/><path d="M318.2829,177.52912c3.41387,-1.30595 6.50588,-3.34703 9.04699,-5.96543c1.92382,0.75341 3.35377,2.44812 3.94304,4.52169c-4.61015,1.95403 -8.57945,5.26781 -11.31631,9.53368c-0.94888,-2.4189 -1.9962,-5.75907 -1.67373,-8.08994z"/><path d="M312.40054,181.83673c0.20748,-1.12709 0.63592,-2.15149 1.22515,-3.02702c2.74369,-0.47397 5.36243,-1.40192 7.75907,-2.71692c1.68801,0.65226 2.9987,2.02783 3.69938,3.74935c-3.37781,2.78811 -6.04116,6.47102 -7.59029,10.77325c-0.61868,-0.52156 -5.7873,-5.00862 -5.09331,-8.77867z"/></g></g></g></g></svg>