<svg version="1.1" xmlns="http://www.w3.org/2000/svg" xmlns:xlink="http://www.w3.org/1999/xlink" width="121.74298" height="277.02257" viewBox="0,0,121.74298,277.02257"><g transform="translate(-259.12853,-50.37409)"><g data-paper-data="{&quot;isPaintingLayer&quot;:true}" fill-rule="nonzero" stroke-linecap="butt" stroke-linejoin="miter" stroke-miterlimit="10" stroke-dasharray="" stroke-dashoffset="0" style="mix-blend-mode: normal"><g stroke="#000000" stroke-width="0"><path d="M320.00002,152.70648c33.61838,0 60.87149,20.76571 60.87149,33.02065c0,12.25493 -0.38345,134.86356 -60.87149,134.51391c-59.90704,-0.34629 -60.87149,-122.25897 -60.87149,-134.5139c0,-12.25493 27.2531,-33.02064 60.87149,-33.02064z" fill="#1a090d"/><path d="M320.00002,152.70648c28.09666,0 55.8775,12.66813 55.8775,28.29507c0,15.62694 -16.56991,146.39511 -55.8775,146.39511c-39.30759,0 -55.8775,-130.76816 -55.8775,-146.39511c0,-15.62694 27.78085,-28.29507 55.8775,-28.29507z" fill="#4a314d"/><path d="M359.1335,169.75915c0,18.66926 -17.60435,76.9717 -39.13346,76.9717c-21.52912,0 -39.13346,-58.30244 -39.13346,-76.9717c0,-18.66926 78.26693,-18.66926 78.26693,0z" fill="#6b6570"/><path d="M320.00002,140.10343c21.62676,0 39.15872,7.64692 39.15872,17.07987c0,8.12708 -3.57131,32.88919 -21.00549,38.89735c-2.80133,0.96538 -18.15323,-9.04229 -18.15323,-9.04229c0,0 -15.86808,9.90666 -18.89535,8.7758c-17.06008,-6.37287 -20.26336,-30.6195 -20.26336,-38.63085c0,-9.43295 17.53196,-17.07987 39.15872,-17.07987z" fill="#a8ba9a"/><path d="M302.50356,230.6098c0,-10.41111 7.83343,-41.84 17.49645,-41.84c9.66302,0 17.49645,31.4289 17.49645,41.84c0,10.41111 -17.49645,18.85099 -17.49645,18.85099c0,0 -17.49645,-8.43989 -17.49645,-18.85099z" fill="#ace894"/><path d="M320.00002,141.78761c17.02532,0 30.82708,6.01991 30.82708,13.44585c0,7.42594 -13.86769,29.84323 -30.82708,29.84323c-16.95939,0 -30.82707,-22.41729 -30.82707,-29.84323c0,-7.42594 13.80175,-13.44585 30.82707,-13.44585z" fill="#000000"/><path d="M327.40254,194.67579c0,0 4.39893,4.95447 -7.68026,4.64747c-10.40888,-0.26456 -7.69706,-4.75933 -7.69706,-4.75933z" fill="#4a314d"/><path d="M320.00002,175.03145c9.66302,0 16.10784,1.75038 16.10784,5.9651c0,4.21473 -6.44482,16.93805 -16.10784,16.93805c-9.66302,0 -16.10784,-12.72333 -16.10784,-16.93805c0,-4.21472 6.44482,-5.9651 16.10784,-5.9651z" fill="#ace894"/></g><g stroke="none"><path d="M360.47416,100.67392c0,25.32045 -2.15568,52.84672 -40.08677,52.84672c-39.14583,0 -40.08679,-27.52628 -40.08679,-52.84672c0,-25.32045 80.17357,-25.32045 80.17357,0z" fill="#1a090d" stroke-width="NaN"/><path d="M355.71685,102.2675c0,22.31552 -1.89987,40.40584 -35.32945,40.40584c-34.50018,0 -35.32948,-18.09032 -35.32948,-40.40584c0,-22.31552 70.65893,-22.31552 70.65893,0z" fill="#000000" stroke-width="NaN"/><path d="M295.3137,138.381c0,-1.77067 3.52987,-8.33578 3.52987,-8.33578c0,0 3.52987,6.56512 3.52987,8.33578c0,1.77067 -1.58038,3.20607 -3.52987,3.20607c-1.94949,0 -3.52987,-1.43541 -3.52987,-3.20607z" fill="#ace894" stroke-width="0.5"/><path d="M337.67204,138.381c0,-1.77067 3.52987,-8.33578 3.52987,-8.33578c0,0 3.52985,6.56512 3.52985,8.33578c0,1.77067 -1.58037,3.20607 -3.52985,3.20607c-1.94949,0 -3.52987,-1.43541 -3.52987,-3.20607z" fill="#ace894" stroke-width="0.5"/></g><g stroke="none"><g><path d="M362.97417,96.89573c0,12.84198 -0.43059,24.62962 -4.20366,33.86273c-4.9284,12.06032 -71.9326,12.44355 -76.81153,0.90327c-3.95785,-9.36163 -4.15837,-21.50138 -4.15837,-34.76601c0,-29.61621 85.17357,-29.61621 85.17357,0z" fill="#1a090d" stroke-width="NaN"/><path d="M315.1309,139.54352c-13.2013,8.78467 -50.16021,-5.56651 -50.16021,-5.56651c0,0 8.62688,-6.73984 19.01111,-16.01529c10.01905,-8.94929 44.35041,12.79713 31.14911,21.5818z" fill="#4a314d" stroke-width="NaN"/><path d="M375.80415,133.97708c0,0 -36.95891,14.35117 -50.16021,5.56651c-13.2013,-8.78466 21.02213,-30.60111 31.00973,-21.7061c10.4463,9.30354 19.15048,16.13959 19.15048,16.13959z" data-paper-data="{&quot;index&quot;:null}" fill="#4a314d" stroke-width="NaN"/><path d="M320.25266,120.10117c6.82055,8.94784 5.24364,19.64274 -5.12176,26.5403c-13.2013,8.78467 -46.2887,-5.56651 -46.2887,-5.56651c0,0 8.70521,-8.26286 18.97967,-17.89837c8.61797,-8.08203 30.56475,-5.52348 32.4308,-3.07542z" fill="#4a314d" stroke-width="NaN"/><path d="M325.64391,146.6413c-10.58278,-7.0422 -12.00459,-18.0427 -4.68158,-27.10088c1.81195,-2.24128 23.18737,-4.56402 31.74359,3.40516c10.38155,9.66927 19.22667,18.12922 19.22667,18.12922c0,0 -33.08738,14.35117 -46.28868,5.5665z" data-paper-data="{&quot;index&quot;:null}" fill="#4a314d" stroke-width="NaN"/><g fill="#ace894" stroke-width="0"><path d="M332.64637,130.89641c0,1.32106 -5.48855,8.07301 -12.259,8.07301c-6.77047,0 -12.25899,-6.75193 -12.25899,-8.07301c0,-1.32106 24.51799,-1.32106 24.51799,0z"/><path d="M326.96539,131.61554c0,2.27982 -2.94507,13.93194 -6.57799,13.93194c-3.63292,0 -6.57799,-11.65212 -6.57799,-13.93194c0,-2.27982 13.15599,-2.27982 13.15599,0z"/></g></g><g><g><path d="M310.91015,98.18023c-9.64983,14.50142 -24.59394,15.55539 -33.37861,2.35409c-8.78467,-13.2013 1.56651,-50.16022 1.56651,-50.16022c0,0 41.46193,33.30471 31.8121,47.80613z" fill="#1a090d" stroke-width="NaN"/><path d="M277.53156,100.53434c-8.78467,-13.2013 1.56651,-50.16022 1.56651,-50.16022c0,0 7.21816,63.36152 -1.56651,50.16022z" fill="#4a314d" stroke-width="NaN"/></g><g><path d="M361.67672,50.37411c0,0 10.35118,36.95892 1.56651,50.16022c-8.78467,13.2013 -23.72879,12.14733 -33.3786,-2.35409c-9.64981,-14.50142 31.8121,-47.80613 31.8121,-47.80613z" data-paper-data="{&quot;index&quot;:null}" fill="#1a090d" stroke-width="NaN"/><path d="M361.67672,50.37411c0,0 10.35118,36.95892 1.56651,50.16022c-8.78467,13.2013 -1.5665,-50.16022 -1.5665,-50.16022z" data-paper-data="{&quot;index&quot;:null}" fill="#4a314d" stroke-width="NaN"/></g></g><g stroke-width="0"><g><path d="M316.19257,120.18702c-1.00386,5.55076 -9.17305,8.7203 -18.24641,7.07938c-9.07335,-1.64092 -15.61498,-7.47094 -14.61112,-13.0217c1.00386,-5.55076 33.8614,0.39156 32.85754,5.94232z" fill="#ace894"/><path d="M306.60909,118.49202c-0.72236,6.0316 -2.74872,9.91594 -5.01056,9.64504c-2.26185,-0.27089 -3.90269,-4.5944 -3.18034,-10.62601c0.72236,-6.0316 5.40339,-10.43073 5.40339,-10.43073c0,0 3.50986,5.38009 2.7875,11.41169z" fill="#1a090d"/></g><g data-paper-data="{&quot;index&quot;:null}"><path d="M357.43972,114.24473c1.00386,5.55076 -5.53776,11.38077 -14.61111,13.0217c-9.07335,1.64092 -17.24256,-1.52862 -18.24642,-7.07938c-1.00386,-5.55076 31.85367,-11.49308 32.85753,-5.94232z" fill="#ace894"/><path d="M336.95321,107.08035c0,0 4.68103,4.39911 5.40339,10.43072c0.72236,6.0316 -0.91848,10.35513 -3.18033,10.62601c-2.26185,0.27089 -4.2882,-3.61345 -5.01056,-9.64504c-0.72236,-6.0316 2.78749,-11.41169 2.78749,-11.41169z" fill="#1a090d"/></g></g></g><path d="M302.35182,230.6098c0,0 6.89511,10.3556 17.64819,10.3556c10.75308,0 17.64819,-10.3556 17.64819,-10.3556c0,0 -0.69414,3.60507 -1.58795,5.28064c-4.18261,7.84086 -16.06024,13.57035 -16.06024,13.57035c0,0 -12.30653,-5.9364 -16.27727,-13.9933c-0.76381,-1.54982 -1.37092,-4.85769 -1.37092,-4.85769z" fill-opacity="0.10588" fill="#000000" stroke="#000000" stroke-width="0"/><g fill="#1a090d" stroke="none" stroke-width="0"><g data-paper-data="{&quot;index&quot;:null}"><path d="M352.00533,116.16061c0.11546,6.11052 -3.12107,10.70525 -10.35944,11.69952c-7.23837,0.99427 -11.43399,-2.57957 -11.54946,-8.69009c-0.11546,-6.11052 3.08691,-11.51685 10.74538,-12.56882c7.65847,-1.05197 11.04805,3.44887 11.16351,9.55939z" data-paper-data="{&quot;index&quot;:null}"/></g><g><path d="M288.85562,116.16061c0.11546,-6.11052 3.50504,-10.61136 11.16351,-9.55938c7.65847,1.05198 10.86083,6.4583 10.74537,12.56882c-0.11547,6.11053 -4.31109,9.68436 -11.54946,8.69009c-7.23837,-0.99427 -10.4749,-5.589 -10.35944,-11.69952z" data-paper-data="{&quot;index&quot;:null}"/></g></g></g></g></svg>