<svg version="1.1" xmlns="http://www.w3.org/2000/svg" xmlns:xlink="http://www.w3.org/1999/xlink" width="34.17311" height="34.17311" viewBox="0,0,34.17311,34.17311"><g transform="translate(-302.91346,-162.91346)"><g data-paper-data="{&quot;isPaintingLayer&quot;:true}" stroke-miterlimit="10" stroke-dasharray="" stroke-dashoffset="0" style="mix-blend-mode: normal"><path d="M309.98314,162.91347h20.03378c3.9166,0 7.06966,3.15307 7.06966,7.06966v20.03379c0,3.91659 -3.15306,7.06966 -7.06966,7.06966h-20.03378c-3.91659,0 -7.06967,-3.15307 -7.06967,-7.06966v-20.03379c0,-3.91659 3.15308,-7.06966 7.06967,-7.06966z" fill-opacity="0.09677" fill="#191919" fill-rule="evenodd" stroke="none" stroke-width="4.43922" stroke-linecap="round" stroke-linejoin="round"/><g fill-rule="nonzero" stroke="#000000" stroke-width="0" stroke-linejoin="miter"><path d="M323.39641,182.79554l-6.84292,1.00886l5.28233,5.35431l-9.55064,4.10694l5.39444,-4.91426l-5.50724,-6.1033l3.37971,-1.63945z" data-paper-data="{&quot;index&quot;:null}" fill="#ffffff" stroke-linecap="round"/><path d="M323.39641,182.79554l-4.80672,0.70866c-0.66564,-1.10688 -1.76728,-1.94857 -3.12819,-2.24847c-0.33731,-0.07433 -0.67415,-0.11177 -1.00632,-0.115l1.09691,-0.53209z" data-paper-data="{&quot;index&quot;:null}" fill="#bfbfbf" stroke-linecap="butt"/><path d="M329.67556,177.9003c1.844,1.29701 1.84882,2.42548 1.26236,3.89638c-0.58646,1.4709 -3.27323,2.3978 -3.27323,2.3978l-18.08796,-5.10893c0,0 -1.01131,-1.97199 -0.42945,-3.71283c0.58186,-1.74084 0.7892,-2.98323 2.47867,-3.32149c1.68947,-0.33826 4.36417,1.71032 4.36417,1.71032c0,0 0.1105,-5.73998 6.56057,-4.29343c5.61795,1.25993 3.54118,7.14338 3.54118,7.14338c0,0 1.7397,-0.00822 3.5837,1.2888z" fill="#ffffff" stroke-linecap="round"/><path d="M309.57674,179.08555c0,0 -1.01131,-1.97199 -0.42945,-3.71283c0.58186,-1.74084 0.78919,-2.98323 2.47866,-3.32149c1.68947,-0.33826 4.36417,1.71032 4.36417,1.71032c0,0 0.1105,-5.73998 6.56057,-4.29343c0.45913,0.10297 0.86688,0.23682 1.22856,0.39581c-2.61007,-0.54483 -5.17894,1.11167 -5.75423,3.72223c-0.09388,0.426 -0.12891,0.85125 -0.11051,1.26729c-0.36977,-0.19156 -0.77036,-0.33852 -1.19636,-0.4324c-2.62858,-0.57926 -5.22905,1.08204 -5.80831,3.71062c-0.09631,0.43704 -0.13068,0.8733 -0.10897,1.29962z" fill="#bfbfbf" stroke-linecap="butt"/></g></g></g></svg>