<svg version="1.1" xmlns="http://www.w3.org/2000/svg" xmlns:xlink="http://www.w3.org/1999/xlink" width="34.17311" height="34.17311" viewBox="0,0,34.17311,34.17311"><g transform="translate(-302.91346,-162.9135)"><g data-paper-data="{&quot;isPaintingLayer&quot;:true}" stroke-miterlimit="10" stroke-dasharray="" stroke-dashoffset="0" style="mix-blend-mode: normal"><path d="M309.98312,162.9135h20.03379c3.9166,0 7.06966,3.15307 7.06966,7.06966v20.03379c0,3.91659 -3.15306,7.06966 -7.06966,7.06966h-20.03379c-3.91659,0 -7.06966,-3.15307 -7.06966,-7.06966v-20.03379c0,-3.91659 3.15307,-7.06966 7.06966,-7.06966z" fill-opacity="0.35294" fill="#ff672b" fill-rule="evenodd" stroke="none" stroke-width="4.43922" stroke-linecap="round" stroke-linejoin="round"/><g fill-rule="nonzero" stroke-linecap="butt" stroke-linejoin="miter"><g><path d="M326.17377,174.2345c-0.4507,2.48636 -5.5665,5.68227 -5.5665,5.68227c0,0 -3.66852,-4.78823 -3.21782,-7.2746c0.4507,-2.48636 2.7825,-4.14551 5.20823,-3.7058c2.42573,0.43971 4.02679,2.81176 3.57609,5.29813z" fill="none" stroke="#000000" stroke-width="1.5"/><path d="M327.60923,181.51005l-14.11765,-2.5591z" fill="#eb5e28" stroke="#000000" stroke-width="1.5"/><path d="M320.67125,192.07965l-4.3931,-0.79633c0,0 3.16602,-12.21851 4.31191,-12.0108c1.14588,0.20771 0.0812,12.80713 0.0812,12.80713z" fill="#000000" stroke="#eb5e28" stroke-width="0"/></g><g><path d="M325.07297,173.2891c-0.4507,2.48636 -5.5665,5.68227 -5.5665,5.68227c0,0 -3.66852,-4.78823 -3.21782,-7.2746c0.4507,-2.48636 2.7825,-4.14551 5.20823,-3.7058c2.42573,0.43971 4.02679,2.81176 3.57609,5.29813z" fill="none" stroke="#ff672b" stroke-width="1.5"/><path d="M326.50842,180.56464l-14.11765,-2.5591z" fill="#eb5e28" stroke="#ff672b" stroke-width="1.5"/><path d="M319.57044,191.13425l-4.3931,-0.79633c0,0 3.16602,-12.21851 4.31191,-12.0108c1.14588,0.20771 0.0812,12.80713 0.0812,12.80713z" fill="#ff672b" stroke="#eb5e28" stroke-width="0"/></g></g></g></g></svg>