<svg version="1.1" xmlns="http://www.w3.org/2000/svg" xmlns:xlink="http://www.w3.org/1999/xlink" width="121.74298" height="282.43927" viewBox="0,0,121.74298,282.43927"><g transform="translate(-259.12853,-44.95737)"><g data-paper-data="{&quot;isPaintingLayer&quot;:true}" fill-rule="nonzero" stroke-linecap="butt" stroke-linejoin="miter" stroke-miterlimit="10" stroke-dasharray="" stroke-dashoffset="0" style="mix-blend-mode: normal"><g stroke="#000000" stroke-width="0"><path d="M320.00002,152.70646c33.61838,0 60.87149,20.76571 60.87149,33.02065c0,12.25493 -0.38345,134.86356 -60.87149,134.51391c-59.90704,-0.34629 -60.87149,-122.25897 -60.87149,-134.5139c0,-12.25493 27.2531,-33.02064 60.87149,-33.02064z" fill="#1a090d"/><path d="M320.00002,152.70646c28.09666,0 55.8775,12.66813 55.8775,28.29507c0,15.62694 -16.56991,146.39511 -55.8775,146.39511c-39.30759,0 -55.8775,-130.76816 -55.8775,-146.39511c0,-15.62694 27.78085,-28.29507 55.8775,-28.29507z" fill="#4a314d"/><path d="M359.1335,169.75909c0,18.66926 -17.60435,76.9717 -39.13346,76.9717c-21.52912,0 -39.13346,-58.30244 -39.13346,-76.9717c0,-18.66926 78.26693,-18.66926 78.26693,0z" fill="#6b6570"/><path d="M320.00002,140.10343c21.62676,0 39.15872,7.64692 39.15872,17.07987c0,8.12708 -3.57131,32.88919 -21.00549,38.89735c-2.80133,0.96538 -18.15323,-9.04229 -18.15323,-9.04229c0,0 -15.86808,9.90666 -18.89535,8.7758c-17.06008,-6.37287 -20.26336,-30.6195 -20.26336,-38.63085c0,-9.43295 17.53196,-17.07987 39.15872,-17.07987z" fill="#a8ba9a"/><path d="M302.50356,230.60974c0,-10.41111 7.83343,-41.84 17.49645,-41.84c9.66302,0 17.49645,31.4289 17.49645,41.84c0,10.41111 -17.49645,18.85099 -17.49645,18.85099c0,0 -17.49645,-8.43989 -17.49645,-18.85099z" fill="#ace894"/><path d="M320.00002,141.78757c17.02532,0 30.82708,6.01991 30.82708,13.44585c0,7.42594 -13.86769,29.84323 -30.82708,29.84323c-16.95939,0 -30.82707,-22.41729 -30.82707,-29.84323c0,-7.42594 13.80175,-13.44585 30.82707,-13.44585z" fill="#000000"/><path d="M327.40254,194.67573c0,0 4.39893,4.95447 -7.68026,4.64747c-10.40888,-0.26456 -7.69706,-4.75933 -7.69706,-4.75933z" fill="#4a314d"/><path d="M320.00002,175.03139c9.66302,0 16.10784,1.75038 16.10784,5.9651c0,4.21473 -6.44482,16.93805 -16.10784,16.93805c-9.66302,0 -16.10784,-12.72333 -16.10784,-16.93805c0,-4.21472 6.44482,-5.9651 16.10784,-5.9651z" fill="#ace894"/></g><g stroke="none"><path d="M350.47417,115.59054c0,25.32045 -1.61793,52.84672 -30.08677,52.84672c-29.38056,0 -30.08679,-27.52628 -30.08679,-52.84672c0,-25.32045 60.17357,-25.32045 60.17357,0z" fill="#1a090d" stroke-width="NaN"/><path d="M346.90361,117.18411c0,22.31552 -1.42593,40.40584 -26.51621,40.40584c-25.89381,0 -26.51623,-18.09032 -26.51623,-40.40584c0,-22.31552 53.03244,-22.31552 53.03244,0z" fill="#000000" stroke-width="NaN"/><path d="M301.56856,153.29763c0,-1.77067 2.64931,-8.33578 2.64931,-8.33578c0,0 2.64931,6.56512 2.64931,8.33578c0,1.77067 -1.18614,3.20607 -2.64931,3.20607c-1.46317,0 -2.64931,-1.43541 -2.64931,-3.20607z" fill="#ace894" stroke-width="0.5"/><path d="M333.36024,153.29763c0,-1.77067 2.64931,-8.33578 2.64931,-8.33578c0,0 2.6493,6.56512 2.6493,8.33578c0,1.77067 -1.18613,3.20607 -2.6493,3.20607c-1.46317,0 -2.64931,-1.43541 -2.64931,-3.20607z" fill="#ace894" stroke-width="0.5"/></g><g stroke="none"><g><path d="M362.97417,91.47901c0,12.84198 -0.43059,24.62962 -4.20366,33.86273c-4.9284,12.06032 -71.9326,12.44355 -76.81153,0.90327c-3.95785,-9.36163 -4.15837,-21.50138 -4.15837,-34.76601c0,-29.61621 85.17357,-29.61621 85.17357,0z" fill="#1a090d" stroke-width="NaN"/><path d="M315.1309,134.12686c-13.2013,8.78467 -50.16021,-1.56651 -50.16021,-1.56651c0,0 8.62688,-10.73984 19.01111,-20.01529c10.01905,-8.94929 44.35041,12.79713 31.14911,21.5818z" fill="#4a314d" stroke-width="NaN"/><path d="M375.80415,132.56042c0,0 -36.95891,10.35117 -50.16021,1.56651c-13.2013,-8.78466 21.02213,-30.60111 31.00973,-21.7061c10.4463,9.30354 19.15049,20.13961 19.15049,20.13961z" data-paper-data="{&quot;index&quot;:null}" fill="#4a314d" stroke-width="NaN"/><path d="M312.77681,107.84613c14.50142,9.64983 15.55539,24.59394 2.35409,33.37861c-13.2013,8.78467 -46.2887,-1.56651 -46.2887,-1.56651c0,0 29.43317,-41.46193 43.93461,-31.8121z" fill="#4a314d" stroke-width="NaN"/><path d="M325.64391,141.22464c-13.2013,-8.78467 -12.14733,-23.72878 2.35409,-33.3786c14.50142,-9.64982 43.93459,31.8121 43.93459,31.8121c0,0 -33.08738,10.35117 -46.28868,1.5665z" data-paper-data="{&quot;index&quot;:null}" fill="#4a314d" stroke-width="NaN"/><g fill="#ace894" stroke-width="0"><path d="M332.64637,125.47975c0,1.32106 -5.48855,8.07301 -12.259,8.07301c-6.77047,0 -12.25899,-6.75193 -12.25899,-8.07301c0,-1.32106 24.51799,-1.32106 24.51799,0z"/><path d="M326.96539,126.19884c0,2.27982 -2.94507,13.93194 -6.57799,13.93194c-3.63292,0 -6.57799,-11.65212 -6.57799,-13.93194c0,-2.27982 13.15599,-2.27982 13.15599,0z"/></g></g><g><g><path d="M310.91015,92.7635c-9.64983,14.50142 -24.59394,15.55539 -33.37861,2.35409c-8.78467,-13.2013 1.56651,-50.16022 1.56651,-50.16022c0,0 41.46193,33.30471 31.8121,47.80613z" fill="#1a090d" stroke-width="NaN"/><path d="M277.53156,95.11762c-8.78467,-13.2013 1.56651,-50.16022 1.56651,-50.16022c0,0 7.21816,63.36152 -1.56651,50.16022z" fill="#4a314d" stroke-width="NaN"/></g><g><path d="M361.67672,44.95739c0,0 10.35118,36.95892 1.56651,50.16022c-8.78467,13.2013 -23.72879,12.14733 -33.3786,-2.35409c-9.64981,-14.50142 31.8121,-47.80613 31.8121,-47.80613z" data-paper-data="{&quot;index&quot;:null}" fill="#1a090d" stroke-width="NaN"/><path d="M361.67672,44.95739c0,0 10.35118,36.95892 1.56651,50.16022c-8.78467,13.2013 -1.5665,-50.16022 -1.5665,-50.16022z" data-paper-data="{&quot;index&quot;:null}" fill="#4a314d" stroke-width="NaN"/></g></g><g fill="none" stroke-width="1" font-family="sans-serif" font-weight="normal" font-size="12" text-anchor="start"><g/><g data-paper-data="{&quot;index&quot;:null}"/></g></g><path d="M302.35182,230.60974c0,0 6.89511,10.3556 17.64819,10.3556c10.75308,0 17.64819,-10.3556 17.64819,-10.3556c0,0 -0.69414,3.60507 -1.58795,5.28064c-4.18261,7.84086 -16.06024,13.57035 -16.06024,13.57035c0,0 -12.30653,-5.9364 -16.27727,-13.9933c-0.76381,-1.54982 -1.37092,-4.85769 -1.37092,-4.85769z" fill-opacity="0.10588" fill="#000000" stroke="#000000" stroke-width="0"/><path d="M341.16667,110.50005c0.69036,0 0.69036,2.5 0,2.5c-0.69036,0 -0.69036,-2.5 0,-2.5z" fill="#1a090d" stroke="none" stroke-width="0.5"/><path d="M301.16667,110.83335c0.69036,0 0.69036,2.5 0,2.5c-0.69036,0 -0.69036,-2.5 0,-2.5z" fill="#1a090d" stroke="none" stroke-width="0.5"/><g stroke="none"><g stroke-width="0"><g data-paper-data="{&quot;index&quot;:null}"><path d="M324.66837,114.85372c-1.00386,-5.55076 5.53776,-13.04745 14.61111,-14.68837c9.07336,-1.64092 17.24257,3.19529 18.24643,8.74605c1.00386,5.55076 -5.53777,11.38078 -14.61112,13.0217c-9.07336,1.64092 -17.24255,-1.52862 -18.24641,-7.07938z" fill="#ace894"/><path d="M352.00533,110.82731c0.11546,6.11052 -3.12107,10.70525 -10.35944,11.69952c-7.23837,0.99427 -11.43399,-2.57957 -11.54946,-8.69009c-0.11546,-6.11052 3.08691,-11.51685 10.74538,-12.56882c7.65847,-1.05197 11.04805,3.44887 11.16351,9.55939z" data-paper-data="{&quot;index&quot;:null}" fill="#1a090d"/></g><g><path d="M316.19257,114.85373c-1.00386,5.55076 -9.17305,8.7203 -18.24641,7.07938c-9.07335,-1.64092 -15.61498,-7.47094 -14.61112,-13.0217c1.00386,-5.55076 9.17307,-10.38697 18.24643,-8.74605c9.07335,1.64092 15.61497,9.13761 14.61111,14.68837z" fill="#ace894"/><path d="M288.85562,110.82731c0.11546,-6.11052 3.50504,-10.61136 11.16351,-9.55938c7.65847,1.05198 10.86083,6.4583 10.74537,12.56882c-0.11547,6.11053 -4.31109,9.68436 -11.54946,8.69009c-7.23837,-0.99427 -10.4749,-5.589 -10.35944,-11.69952z" data-paper-data="{&quot;index&quot;:null}" fill="#1a090d"/></g></g><path d="M290.625,107.45835c0,0 2.70952,-1.1458 3.05908,-1.57583c0.45838,-0.5639 1.94092,-3.42417 1.94092,-3.42417c0,0 1.34887,2.79505 1.80383,3.26904c0.43117,0.44921 3.19617,1.73096 3.19617,1.73096c0,0 -2.72148,1.17663 -3.08892,1.61184c-0.45859,0.54317 -1.91108,3.38816 -1.91108,3.38816c0,0 -1.56548,-2.90445 -2.02019,-3.52701c-0.30173,-0.41311 -2.97981,-1.47299 -2.97981,-1.47299z" fill="#ace894" stroke-width="0.5"/><path d="M333.125,107.95834c0,0 2.70952,-1.1458 3.05908,-1.57582c0.45839,-0.5639 1.94092,-3.42418 1.94092,-3.42418c0,0 1.34887,2.79505 1.80383,3.26905c0.43117,0.44921 3.19617,1.73095 3.19617,1.73095c0,0 -2.72147,1.17663 -3.08891,1.61185c-0.45859,0.54318 -1.91109,3.38815 -1.91109,3.38815c0,0 -1.56548,-2.90445 -2.02019,-3.52701c-0.30172,-0.41311 -2.97981,-1.47299 -2.97981,-1.47299z" fill="#ace894" stroke-width="0.5"/><path d="M298.125,114.95835c0,0 2.70952,-1.1458 3.05908,-1.57583c0.45838,-0.5639 1.94092,-3.42417 1.94092,-3.42417c0,0 1.34887,2.79505 1.80383,3.26904c0.43117,0.44921 3.19617,1.73096 3.19617,1.73096c0,0 -2.72148,1.17663 -3.08892,1.61184c-0.45859,0.54317 -1.91108,3.38816 -1.91108,3.38816c0,0 -1.56548,-2.90445 -2.02019,-3.52701c-0.30173,-0.41311 -2.97981,-1.47299 -2.97981,-1.47299z" fill="#ace894" stroke-width="0.5"/><path d="M340.625,115.45834c0,0 2.70952,-1.1458 3.05908,-1.57582c0.45839,-0.5639 1.94092,-3.42418 1.94092,-3.42418c0,0 1.34887,2.79505 1.80383,3.26905c0.43117,0.44921 3.19617,1.73095 3.19617,1.73095c0,0 -2.72147,1.17663 -3.08891,1.61185c-0.45859,0.54318 -1.91109,3.38815 -1.91109,3.38815c0,0 -1.56548,-2.90445 -2.02019,-3.52701c-0.30172,-0.41311 -2.97981,-1.47299 -2.97981,-1.47299z" fill="#ace894" stroke-width="0.5"/></g><g stroke="none"><g fill="#1a090d" stroke-width="0"><g data-paper-data="{&quot;index&quot;:null}"><path d="M352.00533,109.97856c0.11546,6.59745 -3.12107,11.55832 -10.35944,12.63182c-7.23837,1.0735 -11.43399,-2.78513 -11.54946,-9.38258c-0.11546,-6.59745 3.08691,-12.43459 10.74538,-13.57039c7.65847,-1.1358 11.04805,3.7237 11.16351,10.32115z" data-paper-data="{&quot;index&quot;:null}"/></g><g><path d="M288.85562,109.97856c0.11546,-6.59745 3.50504,-11.45695 11.16351,-10.32113c7.65847,1.13581 10.86083,6.97294 10.74537,13.57039c-0.11547,6.59746 -4.31109,10.45607 -11.54946,9.38257c-7.23837,-1.0735 -10.4749,-6.03436 -10.35944,-12.63181z" data-paper-data="{&quot;index&quot;:null}"/></g></g><path d="M290.625,106.34119c0,0 2.70952,-1.2371 3.05908,-1.7014c0.45838,-0.60883 1.94092,-3.69703 1.94092,-3.69703c0,0 1.34887,3.01778 1.80383,3.52954c0.43117,0.48501 3.19617,1.86889 3.19617,1.86889c0,0 -2.72148,1.27039 -3.08892,1.74028c-0.45859,0.58646 -1.91108,3.65815 -1.91108,3.65815c0,0 -1.56548,-3.1359 -2.02019,-3.80806c-0.30173,-0.44603 -2.97981,-1.59037 -2.97981,-1.59037z" fill="#ace894" stroke-width="0.5"/><path d="M333.125,106.88101c0,0 2.70952,-1.2371 3.05908,-1.70139c0.45839,-0.60883 1.94092,-3.69705 1.94092,-3.69705c0,0 1.34887,3.01778 1.80383,3.52955c0.43117,0.48501 3.19617,1.86889 3.19617,1.86889c0,0 -2.72147,1.2704 -3.08891,1.7403c-0.45859,0.58647 -1.91109,3.65814 -1.91109,3.65814c0,0 -1.56548,-3.1359 -2.02019,-3.80806c-0.30172,-0.44603 -2.97981,-1.59037 -2.97981,-1.59037z" fill="#ace894" stroke-width="0.5"/><path d="M298.125,114.43881c0,0 2.70952,-1.2371 3.05908,-1.7014c0.45838,-0.60883 1.94092,-3.69703 1.94092,-3.69703c0,0 1.34887,3.01778 1.80383,3.52954c0.43117,0.48501 3.19617,1.86889 3.19617,1.86889c0,0 -2.72148,1.27039 -3.08892,1.74028c-0.45859,0.58646 -1.91108,3.65816 -1.91108,3.65816c0,0 -1.56548,-3.1359 -2.02019,-3.80807c-0.30173,-0.44603 -2.97981,-1.59037 -2.97981,-1.59037z" fill="#ace894" stroke-width="0.5"/><path d="M340.625,114.97865c0,0 2.70952,-1.2371 3.05908,-1.70139c0.45839,-0.60883 1.94092,-3.69704 1.94092,-3.69704c0,0 1.34887,3.01778 1.80383,3.52955c0.43117,0.48501 3.19617,1.86888 3.19617,1.86888c0,0 -2.72147,1.27039 -3.08891,1.74029c-0.45859,0.58647 -1.91109,3.65814 -1.91109,3.65814c0,0 -1.56548,-3.1359 -2.02019,-3.80806c-0.30172,-0.44603 -2.97981,-1.59037 -2.97981,-1.59037z" fill="#ace894" stroke-width="0.5"/></g></g></g></svg>