<svg version="1.1" xmlns="http://www.w3.org/2000/svg" xmlns:xlink="http://www.w3.org/1999/xlink" width="117.57294" height="260.87671" viewBox="0,0,117.57294,260.87671"><g transform="translate(-261.20937,-52.53506)"><g data-paper-data="{&quot;isPaintingLayer&quot;:true}" fill-rule="nonzero" stroke-linecap="butt" stroke-linejoin="miter" stroke-miterlimit="10" stroke-dasharray="" stroke-dashoffset="0" style="mix-blend-mode: normal"><g fill="#000000" stroke="none" stroke-width="1.5"><path d="M364.39494,113.19877c2.05582,5.9096 5.04863,28.60345 2.76195,36.11045c-0.57577,1.89021 -1.74449,5.50268 -2.84828,8.88158c-1.32495,4.05591 -1.30635,8.02837 -1.30635,8.02837c0,0 -5.38894,-1.95009 -7.7969,-0.28907c-7.70807,5.31708 -18.56608,7.92086 -32.41763,8.07708c-13.08879,0.07712 -29.61942,-1.81993 -38.46493,-12.30072c-0.46361,-0.54932 -0.90474,-1.12501 -1.32444,-1.72261c-1.14676,-1.63285 -5.27873,-7.53302 -5.76138,-13.20253c-0.48265,-5.66952 -2.65793,-8.01572 -2.32137,-17.4272c0.33656,-9.41147 3.68851,-20.80353 3.68851,-20.80353c0,0 0.83673,-56.9235 45.47306,-55.99852c31.90348,1.25199 38.99937,56.85688 40.31776,60.6467z" data-paper-data="{&quot;index&quot;:null}"/><path d="M268.81212,102.52741c0,0 6.16329,-5.99552 6.29161,-6.87203c0.33654,-2.29887 6.16557,-41.68523 42.30109,-43.1033c44.63633,-0.92498 45.34823,36.12583 47.86422,43.0525c3.44981,9.49751 5.82331,18.96647 5.82331,18.96647c0,0 -3.10049,-1.40409 -4.41304,-2.49799c-1.2242,-1.02026 -3.80143,-3.52246 -3.80143,-3.52246c0,0 3.35195,11.39206 3.68851,20.80353c0.33656,9.41148 -1.83872,11.75768 -2.32137,17.4272c-0.48265,5.66951 -4.61462,11.56968 -5.76138,13.20253c-0.4197,0.5976 -0.86083,1.17329 -1.32444,1.72261c-8.84551,10.48079 -25.37614,12.37784 -38.46493,12.30072c-13.85155,-0.15622 -24.70956,-2.76 -32.41763,-8.07708c-2.40796,-1.66102 -7.7969,0.28907 -7.7969,0.28907c0,0 0.0186,-3.97246 -1.30635,-8.02837c-1.10379,-3.3789 -2.27251,-6.99137 -2.84828,-8.88158c-2.28668,-7.507 1.76054,-21.50744 1.76054,-21.50744c0,0 -0.33908,0.91034 -3.71704,1.79647c-4.23278,1.11037 -6.94665,0.34955 -6.94665,0.34955c0,0 3.60795,-2.75096 5.58396,-4.82921c1.76007,-1.85114 2.64658,-3.41922 2.64658,-3.41922c0,0 -2.10758,1.09819 -4.23277,1.63807c-2.21739,0.56332 -4.03008,0.53753 -4.03008,0.53753c0,0 4.97492,-5.09993 7.03074,-11.00953c1.94102,-5.57962 2.09972,-11.09358 2.09972,-11.09358c0,0 -1.36165,0.66986 -3.33013,0.80502c-1.24776,0.08568 -2.37785,-0.04951 -2.37785,-0.04951z"/></g><g><g data-paper-data="{&quot;index&quot;:null}" stroke="none" stroke-width="0"><path d="M350.37252,312.91177v-127.5l16.62432,-2.5c0,0 10.13489,101.80476 11.56096,112.01523c1.59831,11.44366 -5.86119,17.98477 -5.86119,17.98477z" fill="#290025"/><path d="M350.37252,312.91177v-127.5l9.02463,0.5c0,0 12.56189,100.17787 13.93586,110.01523c1.59831,11.44365 -3.48629,17.48477 -3.48629,17.48477z" fill="#11001c"/><path d="M359.22534,233.01549c-1.03858,1.30513 -2.42295,2.95915 -2.94302,3.53301c-3.35867,3.70609 -4.58297,7.57498 -8.15382,10.98671l0.50239,-37.2901l8.95354,4.16667c0,0 0.58859,7.2435 1.64091,18.60371z" fill="#332823"/></g><g stroke="none" stroke-width="0"><path d="M267.29507,311.41177c0,0 -7.4595,-6.54111 -5.86119,-17.98477c1.42841,-10.22719 11.56096,-112.01522 11.56096,-112.01522l16.62432,2.5v127.5z" fill="#290025"/><path d="M270.14495,311.91177c0,0 -5.08459,-6.04112 -3.48629,-17.48477c1.43062,-10.24302 13.93585,-110.01523 13.93585,-110.01523l9.02463,-0.5v127.5z" fill="#11001c"/><path d="M282.40721,212.91179l11.48678,-4.5l-2.03085,37.62343c-3.57085,-3.41173 -4.79515,-7.28062 -8.15382,-10.98671c-0.52007,-0.57386 -1.90443,-2.22788 -2.94302,-3.53301c1.05232,-11.36021 1.64091,-18.60371 1.64091,-18.60371z" fill="#332823"/></g><path d="M282.05614,309.06845v-91h78v91z" fill="#11001c" stroke="none" stroke-width="0"/><g data-paper-data="{&quot;index&quot;:null}"><path d="M280.27823,303.67026c0,0 -0.63536,-94.38386 -0.79335,-118.012c-0.05451,-8.15261 8.18688,-36.76129 40.20201,-36.9211c31.60235,-0.15775 39.85672,29.48704 39.84884,36.89673c-0.07659,46.24274 0.65429,117.98648 0.65429,117.98648l-10.49667,0.09614l-0.15882,-114.8431c0,0 0.07549,-3.0993 -2.81625,-3.15415c-3.43441,-0.06514 -2.94538,3.11562 -2.94538,3.11562c0,0 1.69696,16.60102 1.71896,28.90374c0.01322,7.3923 -0.50273,19.85733 -3.74531,34.35445c-2.00795,8.97723 3.76286,18.46595 5.43929,28.65954c2.06281,12.54294 0.79254,22.95223 0.79254,22.95223l-56.21366,-0.26112c0,0 -1.97216,-10.73797 0.85288,-24.23278c1.76667,-8.43915 7.94746,-18.75349 4.95153,-27.82078c-5.04224,-15.26051 -4.0111,-26.938 -4.03155,-34.65123c-0.03287,-12.40447 1.92175,-28.19496 1.92175,-28.19496c0,0 0.27949,-2.919 -2.8856,-2.93443c-3.11083,-0.01515 -2.81569,2.90899 -2.81569,2.90899l0.35311,115.0668z" fill="#ffffff" stroke="#000000" stroke-width="2"/><path d="M319.6272,262.31649c-0.81895,0 -1.48284,-0.49722 -1.48284,-1.31617c0,-0.81895 0.66389,-1.64951 1.48284,-1.64951c0.81895,0 1.48284,0.66389 1.48284,1.48284c0,0.81895 -0.66389,1.48284 -1.48284,1.48284z" data-paper-data="{&quot;index&quot;:null}" fill="#000000" stroke="none" stroke-width="1.5"/></g><path d="M299.95826,251.82299c0,0 -10.75436,-23.06242 -6.70236,-39.51419c0.00924,-0.23567 -10.47092,-50.04631 2.20236,-55.31913c1.19833,-0.49857 12.40963,19.34244 24.3207,19.34244c11.91107,0 23.2054,-19.71223 24.01263,-19.34244c10.87027,4.97975 5.44689,50.5796 4.62698,56.00618c-0.78201,14.97093 -6.15784,30.41782 -7.86502,38.53931c-0.7023,3.34102 0.48805,7.99618 0.48805,7.99618c0,0 -10.53841,4.69634 -21.52869,4.79167c-11.03213,0.09569 -20.55464,-4.83333 -20.55464,-4.83333z" fill-opacity="0.10588" fill="#000000" stroke="none" stroke-width="0"/><path d="M289.44944,305.29868c0,0 -0.10505,-16.52857 1.41043,-24.96538c0.24021,-1.33725 1.42402,-7.53296 2.34657,-9.21982c1.80837,2.71739 13.29768,4.89586 26.66859,5.00425c13.37091,0.10839 21.74854,0.23854 26.72518,-4.16903c0.72159,3.02226 1.33069,5.88494 1.67244,8.14687c1.29408,8.56503 0.77679,25.20312 0.77679,25.20312z" data-paper-data="{&quot;index&quot;:null}" fill="#290025" stroke="none" stroke-width="0"/><g stroke="none" stroke-width="0"><path d="M292.89644,272.74593c0,0 -0.17697,-1.59205 0.36271,-3.71978c0.71189,-2.8067 1.93438,-3.85253 1.93438,-3.85253c0,0 11.49462,4.47535 24.88514,4.54339c13.39287,0.06808 25.07659,-4.54339 25.07659,-4.54339c0,0 1.07586,1.42946 1.51126,3.68059c0.37803,1.95454 0.21155,4.32443 0.21155,4.32443c0,0 -12.60231,6.05786 -27.18223,5.62515c-14.89587,0.3831 -26.7994,-6.05786 -26.7994,-6.05786z" data-paper-data="{&quot;index&quot;:null}" fill="#35012c"/><path d="M312.08189,278.76599c0,0 -0.44398,-1.99413 -0.4307,-4.74622c0.01371,-2.84345 0.71784,-5.07075 0.71784,-5.07075c0,0 4.42817,-0.97359 6.66874,-0.97359c2.27647,0 6.88409,0.97359 6.88409,0.97359c0,0 0.73679,2.71715 0.67881,5.15036c-0.06349,2.66418 -0.60702,4.82887 -0.60702,4.82887c0,0 -4.18714,0.97592 -7.09955,0.9407c-2.76876,-0.03346 -6.81221,-1.10297 -6.81221,-1.10297z" data-paper-data="{&quot;index&quot;:null}" fill="#3a015c"/><path d="M313.51755,277.71128c0,0 -0.3722,-0.85828 -0.35892,-3.61037c0.01371,-2.84345 0.50249,-3.61038 0.50249,-3.61038c0,0 3.20784,-0.97358 5.44841,-0.97358c2.27647,0 5.80733,1.05471 5.80733,1.05471c0,0 0.44965,1.25678 0.39166,3.68998c-0.06349,2.66418 -0.6788,3.6119 -0.6788,3.6119c0,0 -2.67967,0.73253 -5.59209,0.69731c-2.76876,-0.03346 -5.52009,-0.85957 -5.52009,-0.85957z" data-paper-data="{&quot;index&quot;:null}" fill="#35012c"/></g><g stroke="none" stroke-width="0"><g data-paper-data="{&quot;index&quot;:null}" fill="#3a015c"><path d="M293.18162,230.97954c-1.0904,-7.23539 -1.50091,-15.10851 0.07428,-21.50406c0.00924,-0.23567 -10.47092,-50.04631 2.20236,-55.31913c1.19833,-0.49857 12.40963,19.34244 24.3207,19.34244c11.91107,0 23.2054,-19.71223 24.01263,-19.34244c10.87027,4.97975 5.44689,50.5796 4.62698,56.00618c-0.33998,6.50856 -1.1072,13.23308 -2.00619,19.42297c-2.01955,13.90526 -3.03745,25.11252 -3.03745,25.11252c0,0 -12.20508,3.52967 -23.19536,3.625c-11.03213,0.09569 -23.05464,-3.5 -23.05464,-3.5c0,0 -2.2288,-12.46671 -3.94332,-23.84348z"/><path d="M294.45828,222.48968c-8.35431,-5.96547 -11.46965,-14.17307 -11.34764,-24.37743c0.43236,-8.10663 7.97746,-17.5152 13.34765,-21.62257c7.3416,-5.61519 20.87788,-3.47967 21.07126,-0.25666c0.48978,8.16303 2.5954,43.25665 2.5954,43.25665z"/><path d="M321.19234,219.48967c0,0 1.88315,-31.3859 2.4143,-40.23836c0.26161,-4.36019 7.9043,-8.60598 14.65959,-5.65529c2.24516,0.98067 4.42809,2.15963 6.25944,3.56033c5.37018,4.10736 11.83196,10.59927 12.93098,21.7059c0.45535,8.53769 -1.99334,19.82862 -13.34764,25.12743c-22.90769,-0.11266 -22.91666,-4.50001 -22.91666,-4.50001z" data-paper-data="{&quot;index&quot;:null}"/></g><g data-paper-data="{&quot;index&quot;:null}"><path d="M287.95432,200.42702c3.90891,-2.27095 8.46684,-3.30508 13.23754,-3.77747c3.99389,-0.39548 8.99724,0.82774 12.60512,2.50107c2.46936,1.14529 5.42021,4.13937 8.48762,3.30281c0.32029,-0.08736 0.61937,-0.21959 0.90471,-0.38134c1.30577,-0.44254 2.67654,-1.20524 3.62276,-1.66887c4.35485,-2.13378 10.20553,-4.74613 15.12907,-2.7621c3.58462,1.44448 6.3604,3.24455 8.96958,5.32281c-1.10904,2.62812 -2.14805,4.92132 -2.49213,7.19858c-0.34488,6.60228 -1.12938,13.31696 -2.04511,19.42918c-2.14105,1.20442 -12.26542,6.77944 -27.3957,6.78906c-11.43904,0.00727 -25.60627,-5.80227 -25.96609,-6.25168c-0.92673,-7.0946 -2.38266,-14.61204 -0.89466,-20.65362c0,0 -1.94428,-3.84509 -4.16272,-9.04843z" fill="#2b0143"/><path d="" fill="#201b21"/><path d="M294.45828,222.48968c-6.69357,-4.7796 -10.02402,-10.99851 -11.02088,-18.53052c4.66414,-4.84368 10.99578,-6.64034 17.75446,-7.30958c3.99389,-0.39548 8.99724,0.82774 12.60512,2.50107c1.59457,0.73956 3.38991,2.25003 5.28776,3.00216c0.55718,9.28627 1.04021,17.33686 1.04021,17.33686z" fill="#2b0143"/><path d="" fill="#201b21"/><path d="M321.19234,219.48967c0,0 -0.00266,-16.52565 0.28267,-16.6874c1.30577,-0.44254 10.25686,-6.85943 20.89469,-5.87541c8.96242,2.08922 12.22933,6.97306 14.8209,9.09877c-1.43663,6.25679 -4.52488,14.43749 -12.08159,17.96405c-22.90769,-0.11266 -23.91666,-4.50001 -23.91666,-4.50001z" data-paper-data="{&quot;index&quot;:null}" fill="#2b0143"/><path d="" data-paper-data="{&quot;index&quot;:null}" fill="#201b21"/></g><path d="M320.33481,182.43061c7.0128,0.03921 14.56325,8.4368 14.56325,8.4368c0,0 -8.30209,5.57644 -14.28547,5.5665c-5.98338,-0.00994 -13.99169,-5.6135 -13.99169,-5.6135c0,0 6.70111,-8.429 13.71391,-8.38979z" data-paper-data="{&quot;index&quot;:null}" fill="#2b0143"/></g><path d="M275.67462,178.8261c4.53465,-7.53004 16.33113,-25.20395 42.41203,-24.24926c12.48196,0.4569 -21.30138,27.91923 -37.64599,40.63515c-0.36761,0.286 -5.03656,-15.92008 -4.76604,-16.38589z" data-paper-data="{&quot;index&quot;:null}" fill-opacity="0.10588" fill="#000000" stroke="none" stroke-width="0"/><path d="M321.44385,154.57683c26.0809,-0.95469 37.87739,16.71922 42.41203,24.24925c0.08444,0.1454 -4.50974,16.58532 -4.80788,16.35334c-16.36035,-12.73018 -50.07548,-40.14608 -37.60415,-40.60259z" data-paper-data="{&quot;index&quot;:null}" fill-opacity="0.10588" fill="#000000" stroke="none" stroke-width="0"/><path d="M272.15852,194.54785c0,0 -2.70408,-12.0109 3.5161,-22.72174c4.53465,-7.53004 16.33113,-25.20395 42.41203,-24.24926c16.25178,0.59489 -45.92813,46.971 -45.92813,46.971z" data-paper-data="{&quot;index&quot;:null}" fill="#290025" stroke="none" stroke-width="0"/><path d="M321.44385,147.57683c26.0809,-0.95469 37.87739,16.71922 42.41203,24.24925c6.22019,10.71085 3.51611,22.72174 3.51611,22.72174c0,0 -62.17993,-46.37609 -45.92814,-46.97099z" data-paper-data="{&quot;index&quot;:null}" fill="#290025" stroke="none" stroke-width="0"/><path d="M316.55556,189.94447c0,-2.17846 1.76599,-3.94445 3.94444,-3.94445c2.17845,0 3.94444,1.76599 3.94444,3.94445c0,2.17846 -1.76599,3.94445 -3.94444,3.94445c-2.17845,0 -3.94444,-1.76599 -3.94444,-3.94445z" fill="#3a015c" stroke="none" stroke-width="0.5"/><path d="M270.9296,172.88607c0,0 -0.00004,0.00001 -0.00011,0.00002c0.00007,-0.00002 0.0001,-0.00004 0.0001,-0.00004z" data-paper-data="{&quot;index&quot;:null}" fill="#000000" stroke="none" stroke-width="0"/><path d="M323.42857,275.16073v-1.57143l5.14286,-0.28572v1.57143z" fill="#3a015c" stroke="none" stroke-width="0"/></g><g><path d="M292.71279,114.70182c-0.57709,-7.29323 0.335,-17.15448 0.335,-17.15448c0,0 3.41059,-0.04124 13.91429,-3.14424c8.0696,-2.38394 20.54731,-9.48722 20.54731,-9.48722c0,0 -2.16005,3.00503 -3.40781,4.46015c-1.32651,1.54696 -3.99292,4.56297 -3.99292,4.56297c0,0 7.838,-1.66761 14.67476,-4.72931c8.56837,-3.53575 13.98048,18.59 13.66888,24.14792c-0.42163,5.66922 -2.53327,9.49969 -3.15031,12.52053c-0.61704,3.02084 -0.4096,6.13662 -2.20622,16.0397c-1.12121,6.18021 -4.16183,8.92466 -10.01942,14.66081c-5.85759,5.73616 -9.05378,9.25275 -13.01359,9.32173c-3.81077,0.06639 -8.93565,-5.1002 -13.93542,-10.38244c-5.32393,-5.62474 -8.87489,-8.47713 -9.71551,-15.13975c-0.75707,-6.00039 -0.77653,-9.90853 -1.12266,-15.24835c-0.25298,-3.90273 -2.26119,-6.44504 -2.57636,-10.42801z" fill="#11001c" stroke="#11001c" stroke-width="1.5"/><g><path d="M320.49739,143.25027c-20.52521,0 -37.16416,-2.05163 -37.16416,-28.31189c0,-26.26025 74.32833,-26.26025 74.32833,0c0,26.26025 -16.63897,28.31189 -37.16416,28.31189z" data-paper-data="{&quot;index&quot;:null}" fill="#290025" stroke="none" stroke-width="NaN"/><path d="M352.82822,112.97822c0,26.80726 -14.475,48.53884 -32.33083,48.53884c-17.85582,0 -32.33083,-21.73158 -32.33083,-48.53884c0,-26.80726 14.475,-28.90163 32.33083,-28.90163c17.85582,0 32.33083,2.09437 32.33083,28.90163z" fill="#35012c" stroke="none" stroke-width="NaN"/><path d="M295.09284,133.12276c-0.57035,-2.41655 -5.14064,-2.78575 -8.74982,-5.40617c0.32891,-0.99102 -0.49302,-7.76512 -0.49302,-8.86655c0,-1.92327 -0.54295,-3.71973 -1.48393,-5.24447c1.06363,-1.58899 29.78721,-20.14652 33.95128,-20.14652c4.17281,0 36.80861,15.28129 37.64159,16.74074c-0.06707,0.4792 -0.10175,0.96878 -0.10175,1.46646c0,1.05198 0.15495,2.06777 0.44326,3.02579c-1.52638,1.75566 -2.45045,4.04892 -2.45045,6.558c0,0.16065 0.00379,0.32042 0.01128,0.47921c-0.45785,1.1681 0.0722,3.97015 -0.10678,5.24644c-4.18957,1.86881 -8.3333,3.74437 -9.90749,7.98445c-0.26757,0.16416 -0.53708,0.32627 -0.80855,0.48624c-1.0306,-0.18595 -2.09335,-0.28317 -3.17953,-0.28317c-5.50911,0 -10.41602,2.50103 -13.57989,6.3964c-0.24507,0.03766 -0.49078,0.07323 -0.73713,0.10666c-2.93807,-2.24098 -6.64375,-3.57765 -10.67125,-3.57765c-2.63301,0 -5.12844,0.57129 -7.36179,1.59305c-2.90413,-3.69503 -12.41606,-6.55892 -12.41606,-6.55892z" data-paper-data="{&quot;index&quot;:null}" fill="#290025" stroke="none" stroke-width="0"/><path d="M288.16656,112.97822c0,-26.80726 64.30279,-26.85879 64.65503,-0.98416c-10.48797,2.97123 -18.17159,12.61634 -18.17159,24.05605c0,5.88038 2.03024,11.28658 5.428,15.55587c-4.17753,4.78032 -9.15372,8.06797 -14.57558,9.33298c2.49852,-3.89143 3.94758,-8.52092 3.94758,-13.48885c0,-13.80712 -11.19288,-25 -25,-25c-5.55915,0 -10.69451,1.81448 -14.84614,4.88352c-0.93424,-4.53679 -1.4373,-9.3579 -1.4373,-14.35541z" fill="#290025" stroke="none" stroke-width="NaN"/><path d="M351.16156,114.98676c0,22.79587 -61.32833,22.79587 -61.32833,0c0,-22.79587 12.80833,-26.91017 30.66416,-26.91017c17.85582,0 30.66417,4.11431 30.66417,26.91017z" fill="#4f0147" stroke="none" stroke-width="NaN"/><path d="M310.46071,84.06655c0.89701,-0.88961 1.88002,-1.72993 3.14363,-2.30232c2.7015,-1.22372 5.92992,-0.16595 8.89566,-0.16595c2.7964,0 5.8474,-0.31435 8.58591,0.40296c7.72096,2.02239 18.23893,7.98258 21.09531,15.95072c0.61145,1.70568 0.73571,3.54846 1.10357,5.32269c0,0 0.49029,2.45145 -1.96116,2.94174c-0.2614,0.05228 -0.50051,0.07111 -0.71909,0.06303c-0.15078,0.73177 -11.63377,-14.09443 -18.11069,-12.81841c-14.39866,2.83668 -18.64265,1.38026 -18.64265,1.38026c0,0 4.20028,-3.67852 -1.02548,-3.45012c-16.2042,0.70822 -20.65305,13.04001 -21.65098,13.76699c-1.47264,1.0728 -2.86439,0.40645 -4.4523,-0.48692c-5.48977,-3.08859 -1.16496,-6.58614 0.60994,-8.60491c1.25125,-1.42318 2.86077,-2.59236 4.65798,-3.57098c0.06459,-0.08476 0.13041,-0.17078 0.19751,-0.25823c2.61782,-3.41176 6.88151,-8.66332 11.37269,-9.29057c1.19488,-0.16688 2.36387,0.48426 3.5458,0.72638l2.61593,0.65398c0.05613,0.01274 0.11155,0.02737 0.16618,0.04381c0.1926,-0.10379 0.38312,-0.20541 0.57226,-0.30418z" fill="#000000" stroke="none" stroke-width="0.5"/><path d="M296.28849,131.57781c-0.33522,-1.09598 -8.83591,-4.27922 -8.83591,-4.27922c0,0 1.35545,-5.15183 -1.84455,-8.02911c-2.44927,-2.20226 1.72367,-11.91254 3.49829,-13.75403c1.10287,-1.14443 25.36342,-3.13228 29.33541,-3.13228c3.98033,0 16.97859,0 20.95892,0c1.23331,0 9.72319,2.36928 13.45824,2.455c0.75342,1.78663 3.70023,7.39741 3.08554,12.68092c-0.4003,3.44073 -4.26909,7.00932 -4.51773,8.37752c-3.99632,1.37555 -7.13131,3.91272 -8.63289,7.03364c-0.25523,0.12083 -0.51231,0.24015 -0.77125,0.3579c-0.98306,-0.13687 -1.99679,-0.20843 -3.03287,-0.20843c-5.25499,0 -9.93557,1.84089 -12.95349,4.7081c-0.23377,0.02772 -0.46814,0.0539 -0.70313,0.07851c-2.80254,-1.64948 -6.33729,-2.63335 -10.17902,-2.63335c-2.51156,0 -4.89188,0.4205 -7.02222,1.17257c-2.77017,-2.71974 -11.84335,-4.82772 -11.84335,-4.82772z" data-paper-data="{&quot;index&quot;:null}" fill="#11001c" stroke="none" stroke-width="0"/><path d="M317.56667,146.26003c0,-1.67526 1.35808,-3.03333 3.03334,-3.03333c1.67526,0 3.03333,1.35807 3.03333,3.03333c0,1.67526 -1.35807,3.03334 -3.03333,3.03334c-1.67526,0 -3.03334,-1.35808 -3.03334,-3.03334z" fill="#11001c" stroke="#290025" stroke-width="1"/><path d="M323.63334,153.54003c0,-1.67526 1.35807,-3.03333 3.03333,-3.03333c1.67526,0 3.03333,1.35807 3.03333,3.03333c0,1.67526 -1.35807,3.03333 -3.03333,3.03333c-1.67526,0 -3.03333,-1.35807 -3.03333,-3.03333z" fill="#11001c" stroke="#290025" stroke-width="1"/><path d="M311.5,153.54003c0,-1.67526 1.35808,-3.03333 3.03334,-3.03333c1.67526,0 3.03333,1.35807 3.03333,3.03333c0,1.67526 -1.35807,3.03333 -3.03333,3.03333c-1.67526,0 -3.03334,-1.35807 -3.03334,-3.03333z" fill="#11001c" stroke="#290025" stroke-width="1"/><path d="M301.3,149.96489c0,0.82284 0.09938,1.62247 0.2868,2.38754c-2.05654,-2.23016 -3.9314,-4.81455 -5.58489,-7.6936c1.14392,0.45557 2.39175,0.70606 3.69809,0.70606c1.03239,0 2.02824,-0.15645 2.96514,-0.44692c-0.86773,1.48142 -1.36514,3.20608 -1.36514,5.04692z" fill="#11001c" stroke="none" stroke-width="NaN"/></g></g><path d="M339.97605,99.74732c0,0 1.52429,0.31807 4.2558,1.11029c2.49492,0.72361 4.44935,1.74403 4.44935,1.74403l0.1951,1.17035c0,0 -7.24963,-3.12997 -15.1158,-2.4706c-6.2896,0.52724 -9.96319,2.8124 -9.96319,2.8124l0.04575,-4.17683c0,0 3.12748,-1.70421 7.86366,-1.85557c4.90428,-0.15672 8.09084,0.59125 8.09084,0.59125z" data-paper-data="{&quot;index&quot;:null}" fill="#11001c" stroke="none" stroke-width="1.5"/><path d="M299.87792,100.67694c0,0 3.36963,-1.819 8.03244,-2.28178c5.16698,-0.51283 7.76823,-0.06628 7.76823,-0.06628l0.29508,4.13747c0,0 -3.83554,-0.68065 -8.01795,-0.52113c-5.59346,0.21333 -6.64488,1.43293 -10.89774,1.89119c-3.64408,0.39266 -6.73723,0.15884 -6.73723,0.15884l-0.02589,-1.23155c0,0 3.59517,0.07398 5.23371,-0.06836c1.35239,-0.11749 3.9757,-0.93808 3.9757,-0.93808z" fill="#11001c" stroke="none" stroke-width="1.5"/><path d="M261.9296,158.71159c0,0 -0.00004,0.00001 -0.00011,0.00002c0.00007,-0.00002 0.0001,-0.00004 0.0001,-0.00004z" data-paper-data="{&quot;index&quot;:null}" fill="#000000" stroke="none" stroke-width="0"/></g></g></svg>