<svg version="1.1" xmlns="http://www.w3.org/2000/svg" xmlns:xlink="http://www.w3.org/1999/xlink" width="100.06519" height="250.66778" viewBox="0,0,100.06519,250.66778"><g transform="translate(-274.13395,-56.33435)"><g data-paper-data="{&quot;isPaintingLayer&quot;:true}" fill-rule="nonzero" stroke-linejoin="miter" stroke-miterlimit="10" stroke-dasharray="" stroke-dashoffset="0" style="mix-blend-mode: normal"><g><path d="M281.0304,304.39162c0,0 -0.63536,-94.38387 -0.79335,-118.01201c-0.05451,-8.15261 8.18688,-36.76129 40.20201,-36.9211c31.60235,-0.15775 39.85672,29.48704 39.84884,36.89673c-0.07659,46.24274 0.65429,117.98648 0.65429,117.98648l-10.49667,0.09614l-0.15882,-114.84311c0,0 0.07549,-3.0993 -2.81625,-3.15415c-3.43441,-0.06514 -2.94538,3.11562 -2.94538,3.11562l0.20548,114.86995l-48.21366,0.07222l-0.30539,-115.23309c0,0 0.27949,-2.919 -2.8856,-2.93443c-3.11083,-0.01515 -2.81569,2.90899 -2.81569,2.90899l0.35311,115.0668z" fill="#110e1b" stroke="#3c162f" stroke-width="5" stroke-linecap="butt"/><path d="M281.0304,304.39162c0,0 -0.63536,-94.38387 -0.79335,-118.01201c-0.05451,-8.15261 8.18688,-36.76129 40.20201,-36.9211c31.60235,-0.15775 39.85672,29.48704 39.84884,36.89673c-0.07659,46.24274 0.65429,117.98648 0.65429,117.98648l-10.49667,0.09614l-0.15882,-114.84311c0,0 0.07549,-3.0993 -2.81625,-3.15415c-3.43441,-0.06514 -2.94538,3.11562 -2.94538,3.11562l0.20548,114.86995l-48.21366,0.07222l-0.30539,-115.23309c0,0 0.27949,-2.919 -2.8856,-2.93443c-3.11083,-0.01515 -2.81569,2.90899 -2.81569,2.90899l0.35311,115.0668z" fill="#110e1b" stroke="#110e1b" stroke-width="2" stroke-linecap="butt"/><path d="M329.69534,225.22477l-9.5124,13.11377l-9.87826,-13.65285c0,0 1.57578,-54.64253 9.5124,-54.80994c7.69684,-0.16235 9.87826,55.34902 9.87826,55.34902z" fill="#5c162e" stroke="#000000" stroke-width="0" stroke-linecap="round"/><path d="M325.76538,166.1547c2.76904,2.75677 0.37869,12.65939 -6.06838,12.57713c-6.64424,-0.08477 -9.74614,-8.72994 -5.88183,-12.57713c3.86431,-3.8472 9.18117,-2.75677 11.95021,0z" data-paper-data="{&quot;index&quot;:null}" fill="#5c162e" stroke="#000000" stroke-width="0" stroke-linecap="butt"/><path d="M320.18293,238.33855c0,0 5.02799,-20.10381 4.04577,-38.4146c-0.41012,-7.64553 -2.3394,-14.96034 -3.78463,-20.45839c1.43039,-0.9269 2.60902,-2.20931 3.41076,-3.72211c4.45441,14.23868 5.83967,49.46022 5.8405,49.48132z" fill="#3c162f" stroke="#000000" stroke-width="0" stroke-linecap="round"/><path d="M325.76538,166.15469c2.51015,2.49902 0.78057,10.87013 -4.36733,12.35235c1.53861,-1.75868 2.47097,-4.06122 2.47097,-6.58152c0,-3.43268 -1.72959,-6.4614 -4.36484,-8.26221c2.41539,-0.04982 4.72856,0.96554 6.2612,2.49139z" data-paper-data="{&quot;index&quot;:null}" fill="#3c162f" stroke="#000000" stroke-width="0" stroke-linecap="butt"/><path d="M356.04444,205.71201l-17.81782,-6.92203l12.36993,-5.4479z" fill="none" stroke="#7c162e" stroke-width="2" stroke-linecap="round"/><path d="M276.44502,185.37151l3.32059,-8.88123l9.63708,3.60319l2.94267,-9.02252l8.92888,3.76916" fill="none" stroke="#7c162e" stroke-width="2" stroke-linecap="round"/><path d="M292.8407,232.7418l10.86475,-2.41721l2.7631,11.07248l-11.07249,2.7631c0,0 -1.75819,-7.04555 -2.27956,-9.1348c-0.27228,-1.09107 -0.48355,-1.93768 -0.48355,-1.93768" fill="none" stroke="#7c162e" stroke-width="2" stroke-linecap="round"/><path d="M335.17882,233.96566c0,-2.12716 1.7244,-3.85156 3.85156,-3.85156c2.12716,0 3.85156,1.7244 3.85156,3.85156c0,2.12716 -1.7244,3.85156 -3.85156,3.85156c-2.12716,0 -3.85156,-1.7244 -3.85156,-3.85156z" fill="none" stroke="#7c162e" stroke-width="2" stroke-linecap="butt"/><path d="M338.18172,249.66445c0,-4.25432 3.44881,-7.70313 7.70313,-7.70313c4.25432,0 7.70312,3.44881 7.70312,7.70313c0,4.25432 -3.4488,7.70312 -7.70312,7.70312c-4.25432,0 -7.70313,-3.4488 -7.70313,-7.70312z" fill="none" stroke="#7c162e" stroke-width="2" stroke-linecap="butt"/><path d="M330.34317,273.35163c0,-6.06635 4.91774,-10.98409 10.98409,-10.98409c6.06635,0 10.98408,4.91774 10.98408,10.98409c0,6.06635 -4.91773,10.98408 -10.98408,10.98408c-6.06635,0 -10.98409,-4.91773 -10.98409,-10.98408z" fill="none" stroke="#7c162e" stroke-width="2" stroke-linecap="butt"/><path d="M275.97184,253.71378c0,0 5.33628,-5.25029 8.71364,-3.73832c3.37736,1.51198 0.2278,7.83216 4.05647,9.45523c3.82868,1.62306 4.92139,-5.60729 8.55456,-4.10911c3.63316,1.49817 3.44707,9.05811 3.44707,9.05811" fill="none" stroke="#7c162e" stroke-width="2" stroke-linecap="round"/><path d="M338.69847,167.69233c0,0 5.70532,-4.84672 8.96329,-3.09223c3.25797,1.75449 -0.34457,7.82789 3.3554,9.72613c3.69997,1.89824 5.31761,-5.23305 8.83171,-3.47364c3.5141,1.75941 2.7766,9.28558 2.7766,9.28558" fill="none" stroke="#7c162e" stroke-width="2" stroke-linecap="round"/></g><path d="M288.48069,98.02796c0.42158,-2.25639 1.34118,-40.15113 37.5038,-40.1936c44.63915,0.76347 37.65973,36.7891 39.91699,43.72035c3.09504,9.50379 5.49878,17.61912 5.49878,17.61912c0,0 -2.68807,-2.15598 -3.95912,-3.28498c-1.18548,-1.05299 -3.68059,-3.28641 -3.68059,-3.28641c0,0 2.70028,10.4569 0.53272,20.72962c-1.91728,9.41562 -7.93963,16.93919 -7.93963,16.93919l-1.06623,-2.38908c0,0 -1.10449,2.15798 -2.2837,3.24926c-1.17922,1.09127 -3.5457,2.78153 -3.5457,2.78153l0.04714,-3.70505c0,0 -7.46893,10.74502 -24.74179,9.9493c-16.28515,-0.86772 -25.65217,-11.64687 -25.65217,-11.64687l-0.21582,2.64861c0,0 -3.76835,-3.43671 -5.81249,-9.93286c-2.43637,-7.74264 -2.77734,-12.35626 -2.77734,-12.35626c0,0 -2.40875,1.80997 -5.8172,2.55773c-4.27099,0.93698 -6.95472,0.08411 -6.95472,0.08411c0,0 3.70745,-2.57974 5.75917,-4.5568c1.8275,-1.76101 2.77156,-3.27543 2.77156,-3.27543c0,0 -2.14683,1.00478 -4.29055,1.45783c-2.23672,0.47272 -4.04717,0.3792 -4.04717,0.3792c0,0 5.1606,-4.84688 7.43421,-10.60255c2.14663,-5.4343 2.50976,-10.87071 2.50976,-10.87071c0,0 -1.38554,0.61003 -3.35765,0.66949c-1.25006,0.03771 -2.37433,-0.13817 -2.37433,-0.13817c0,0 6.38134,-5.6862 6.54207,-6.54651z" fill="#110e1b" stroke="#3c162f" stroke-width="3" stroke-linecap="butt"/><path d="M281.9386,104.57448c0,0 6.38136,-5.68622 6.54209,-6.54652c0.42158,-2.25639 1.34118,-40.15113 37.5038,-40.1936c44.63915,0.76347 37.65973,36.7891 39.91699,43.72035c3.09504,9.50379 5.49878,17.61912 5.49878,17.61912c0,0 -2.68807,-2.15598 -3.95912,-3.28498c-1.18548,-1.05299 -3.68059,-3.28641 -3.68059,-3.28641c0,0 2.70028,10.4569 0.53272,20.72962c-1.91728,9.41562 -7.93963,16.93919 -7.93963,16.93919l-1.06623,-2.38908c0,0 -1.10449,2.15798 -2.2837,3.24926c-1.17922,1.09127 -3.5457,2.78153 -3.5457,2.78153l0.04714,-3.70505c0,0 -7.46893,10.74502 -24.74179,9.9493c-16.28515,-0.86772 -25.65217,-11.64687 -25.65217,-11.64687l-0.21582,2.64861c0,0 -3.76835,-3.43671 -5.81249,-9.93286c-2.43637,-7.74264 -2.77734,-12.35626 -2.77734,-12.35626c0,0 -2.40875,1.80997 -5.8172,2.55773c-4.27099,0.93698 -6.95472,0.08411 -6.95472,0.08411c0,0 3.70745,-2.57974 5.75917,-4.5568c1.8275,-1.76101 2.77156,-3.27543 2.77156,-3.27543c0,0 -2.14683,1.00478 -4.29055,1.45783c-2.23672,0.47272 -4.04717,0.3792 -4.04717,0.3792c0,0 5.1606,-4.84688 7.43421,-10.60255c2.14663,-5.4343 2.50976,-10.87071 2.50976,-10.87071c0,0 -1.38554,0.61003 -3.35765,0.66949c-1.25006,0.03771 -2.37433,-0.13817 -2.37433,-0.13817z" fill="#110e1b" stroke="none" stroke-width="1.5" stroke-linecap="butt"/><path d="M298.28744,116.51858c-0.30276,-7.30976 0.97905,-17.1298 0.97905,-17.1298c0,0 3.40973,0.08689 14.02257,-2.61943c8.15344,-2.07917 20.88913,-8.7088 20.88913,-8.7088c0,0 -2.27139,2.92178 -3.57292,4.32902c-1.38368,1.49606 -4.16148,4.40978 -4.16148,4.40978c0,0 7.8951,-1.37205 14.84202,-4.17482c8.69513,-3.21144 10.81239,-5.65097 13.11379,-4.10307c2.7162,1.82693 0.15864,23.20504 -0.3615,28.74732c-0.63426,5.64939 -2.88828,9.39784 -3.61834,12.39339c-0.73006,2.99553 -0.63978,6.11691 -2.80708,15.94552c-0.61989,2.81118 -10.23938,10.1006 -20.63895,9.65882c-12.29141,-0.52214 -25.63474,-9.32714 -25.95423,-12.95075c-0.53118,-6.0246 -0.40383,-9.9307 -0.54916,-15.27975c-0.10621,-3.90948 -2.01753,-6.52542 -2.18287,-10.51741z" fill="#110e1b" stroke="#110e1b" stroke-width="1.5" stroke-linecap="butt"/><g stroke="none" stroke-width="0.5" stroke-linecap="butt"><path d="M315.76122,86.13334c-0.4764,-1.29591 0.18795,-2.73267 1.48389,-3.20908c1.29591,-0.4764 2.73267,0.18795 3.20908,1.48389c0.4764,1.29591 -0.18795,2.73267 -1.48389,3.20908c-1.29591,0.4764 -2.73267,-0.18795 -3.20908,-1.48389z" fill="#5c162e"/><path d="M315.76122,86.13334c-0.4764,-1.29591 0.18795,-2.73267 1.48389,-3.20908c1.29591,-0.4764 2.73267,0.18795 3.20908,1.48389c0.4764,1.29591 -4.21654,3.02111 -4.69293,1.7252z" fill="#7c162e"/></g><g stroke="none" stroke-width="0.5" stroke-linecap="butt"><path d="M348.18428,82.60562c0.21622,-1.36367 1.497,-2.29387 2.86067,-2.07765c1.36367,0.21622 2.29387,1.497 2.07765,2.86067c-0.21622,1.36367 -1.497,2.29387 -2.86067,2.07765c-1.36367,-0.21622 -2.29387,-1.497 -2.07765,-2.86067z" fill="#5c162e"/><path d="M348.18429,82.60563c0.21622,-1.36367 1.497,-2.29387 2.86067,-2.07765c1.36367,0.21622 2.29387,1.497 2.07765,2.86067c-0.21622,1.36367 -5.15453,0.58064 -4.9383,-0.78303z" fill="#7c162e"/></g><g data-paper-data="{&quot;index&quot;:null}" stroke-linecap="round"><path d="M353.52807,131.68093c0,0 4.19246,17.93893 -3.27695,22.23602c-3.34384,1.92367 -7.51251,3.3273 -12.57445,3.35974c-9.5878,0.06143 -19.83568,-4.81276 -26.68106,-8.86184c-3.17086,-1.87557 -2.96933,-3.72715 -2.76316,-4.53287c0.44482,-1.73843 1.29799,-15.50132 1.29799,-15.50132c0,0 1.7026,-0.67149 3.07323,-0.14113c0.39609,0.15328 1.05597,0.80612 1.05597,0.80612l7.19904,7.11805l14.86998,7.38947l14.7053,-5.29082c0,0 0.95603,-5.14611 1.52728,-6.36123c0.37248,-0.79229 1.56681,-0.22016 1.56681,-0.22016z" data-paper-data="{&quot;index&quot;:null}" fill="#3c162f" stroke="#000000" stroke-width="0"/><path d="M353.52807,131.68093l5.80692,12.06569c0,0 -5.28915,13.42517 -21.6583,13.53006c-9.5878,0.06143 -19.83568,-4.81276 -26.68106,-8.86184c-3.17086,-1.87557 -2.96933,-3.72715 -2.76316,-4.53287c0.44482,-1.73843 1.29799,-15.50132 1.29799,-15.50132c0,0 4.47539,6.24776 4.94857,6.70157c2.05674,1.97255 4.6661,4.47509 4.6661,4.47509l16.24894,7.74964l16.32349,-5.93326z" data-paper-data="{&quot;index&quot;:null}" fill="#7c162e" stroke="#000000" stroke-width="0"/><path d="M353.52807,131.68093c0,0 0.31853,2.95213 0.32935,3.9587c0.02622,2.43787 0.92269,4.66258 2.39101,6.38216c-3.09147,0.51291 -5.69817,2.44159 -7.14032,5.0915c-1.38217,-0.6966 -2.94718,-1.08162 -4.60167,-1.06383c-4.4513,0.0479 -8.19198,2.99701 -9.44456,7.03123c-0.98364,-2.94284 -3.29684,-5.27145 -6.21981,-6.28139c-1.85707,-2.26888 -4.6904,-3.70425 -7.85025,-3.67025c-1.02669,0.01105 -2.01557,0.17644 -2.94483,0.47388c-1.87814,0.13569 -3.61031,0.789 -5.05641,1.81679c0.42595,-1.12939 0.65316,-2.3555 0.6394,-3.63514c-0.01609,-1.49562 -0.3597,-2.911 -0.96196,-4.17875c0.17634,-0.76143 0.26558,-1.55583 0.2568,-2.37203c-0.00668,-0.62205 0.1786,-1.35791 0.06355,-1.94736l6.15675,6.27086l16.24894,7.74964l16.32349,-5.93326z" data-paper-data="{&quot;index&quot;:null}" fill="#5c162e" stroke="#000000" stroke-width="0"/><path d="M334.79246,148.86275l0.07054,6.55763" fill="none" stroke="#5c162e" stroke-width="0.5"/><path d="M312.35371,147.62321l2.68397,-6.16413" fill="none" stroke="#5c162e" stroke-width="0.5"/><path d="M348.4945,144.27252l1.54449,5.90707" fill="none" stroke="#5c162e" stroke-width="0.5"/><path d="M335.70691,143.45867l-0.33732,3.50383" fill="none" stroke="#191528" stroke-width="0.5"/><path d="M320.75478,136.36911l-1.59397,2.89231" fill="none" stroke="#191528" stroke-width="0.5"/><path d="M351.4318,141.03934l-1.08087,-2.86354" fill="none" stroke="#191528" stroke-width="0.5"/></g><g stroke-linecap="round"><path d="M353.14528,109.62837l-14.73476,-4.31375l-16.01035,5.57663c0,0 -7.85628,8.07653 -10.1465,9.75922c-1.08291,0.79565 -2.94657,-0.13936 -2.94657,-0.13936l-3.49569,-15.36577c0,0 18.66938,-13.78621 35.02984,-13.24259c16.36047,0.54363 22.99906,15.17075 22.99906,15.17075l-7.83945,10.84067c0,0 -1.52793,0.72576 -1.79282,-0.04285c-0.51203,-1.48574 -1.06275,-8.24298 -1.06275,-8.24298z" data-paper-data="{&quot;index&quot;:null}" fill="#3c162f" stroke="#000000" stroke-width="0"/><path d="M354.45073,108.17638l-16.15859,-6.36868l-16.45081,7.31132l-12.53425,11.3921l-3.49569,-15.36577c0,0 4.88985,-3.61086 11.85752,-7.06377c6.64694,-3.29398 15.18482,-6.44423 23.17233,-6.17882c16.36047,0.54363 22.99906,15.17075 22.99906,15.17075l-7.83945,10.84067z" data-paper-data="{&quot;index&quot;:null}" fill="#7c162e" stroke="#000000" stroke-width="0"/><path d="M354.45072,108.17638l-16.15859,-6.36868l-16.45081,7.31132l-12.53425,11.3921l-1.23269,-5.41848c0.37731,0.05786 0.76188,0.09477 1.15252,0.10944c5.51896,0.20743 10.1611,-4.09841 10.36852,-9.61736c0.03795,-1.00955 -0.07513,-1.98975 -0.31903,-2.91885c1.60261,1.25891 3.60347,2.04107 5.79578,2.12347c3.86209,0.14515 7.29481,-1.91984 9.0789,-5.06409c1.37154,-0.30393 2.6409,-0.89071 3.74091,-1.69804c0.88687,0.65644 1.88743,1.17032 2.96893,1.50634c1.72041,2.58197 4.61415,4.32904 7.95148,4.45448c2.46308,0.09257 4.75153,-0.7138 6.54905,-2.12577c0.38913,1.57689 1.15389,3.01133 2.19715,4.19854c-0.30261,0.89364 -0.48284,1.84552 -0.52008,2.83647c-0.0766,2.03804 0.46227,3.95651 1.45041,5.57624l-2.48814,3.44066z" data-paper-data="{&quot;index&quot;:null}" fill="#5c162e" stroke="#000000" stroke-width="0"/><path d="M320.00793,104.01946l-1.9392,-4.73024" fill="none" stroke="#5c162e" stroke-width="0.5"/><path d="M338.17545,99.40983l-0.42761,-5.5202" fill="none" stroke="#5c162e" stroke-width="0.5"/><path d="M354.84108,106.59884l2.98655,-6.23868" fill="none" stroke="#5c162e" stroke-width="0.5"/><path d="M338.24544,102.44623l0.01693,2.87768" fill="none" stroke="#191528" stroke-width="0.5"/><path d="M354.4117,108.30755l-1.17115,1.20686" fill="none" stroke="#191528" stroke-width="0.5"/><path d="M322.23894,108.97468l0.1794,1.88306" fill="none" stroke="#191528" stroke-width="0.5"/></g></g></g></svg>