<svg version="1.1" xmlns="http://www.w3.org/2000/svg" xmlns:xlink="http://www.w3.org/1999/xlink" width="45.06141" height="53.32393" viewBox="0,0,45.06141,53.32393"><g transform="translate(-297.46931,-153.33803)"><g data-paper-data="{&quot;isPaintingLayer&quot;:true}" fill-rule="nonzero" stroke-linejoin="miter" stroke-miterlimit="10" stroke-dasharray="" stroke-dashoffset="0" style="mix-blend-mode: normal"><g stroke="none" stroke-width="1" stroke-linecap="butt"><path d="M341.87918,167.41383l0.19654,0.56683c0.19972,0.57902 0.03073,1.22214 -0.42751,1.62793l-7.02133,6.20021c-0.60974,0.53823 -1.47748,0.66908 -2.2186,0.33374c-0.74059,-0.3348 -1.21684,-1.07328 -1.21737,-1.88697v-0.06675z" fill="#f3e5cf"/><path d="M339.36869,178.06077c-1.52357,4.09021 -5.34254,6.86982 -9.69657,7.05947c-4.35456,0.18912 -8.39921,-2.24879 -10.27135,-6.19121l17.26036,-12.5657c3.16526,3.00104 4.23165,7.60723 2.70756,11.69744z" fill="#3c162f"/><path d="M297.87553,195.75795c0,0 0.22397,-4.88061 2.21623,-10.78495c1.99227,-5.90434 3.20404,-7.31856 4.24394,-8.36058c1.04043,-1.04149 2.45169,-1.62634 3.92281,-1.62581h2.15344c6.17902,0 11.57772,-3.97102 14.96601,-7.23482c2.64187,-2.5481 6.38986,-3.58695 9.96357,-2.76106l6.32788,1.47112c0.42221,0.098 0.74907,0.43228 0.83754,0.85714c0.089,0.42433 -0.07628,0.86244 -0.42327,1.12201l-36.40134,27.20274c-0.56419,0.42274 -1.31855,0.48896 -1.9479,0.17164c-0.62934,-0.31679 -5.85891,-0.05743 -5.85891,-0.05743z" fill="#531429"/><g fill="none" font-family="sans-serif" font-weight="normal" font-size="12" text-anchor="start"/><path d="M328.40283,170.79735c0.65901,0 1.25657,0.26858 1.68938,0.70192c0.43281,0.43334 0.70033,1.03143 0.70033,1.69203c0,0.6606 -0.26752,1.25922 -0.70033,1.69256c-0.43281,0.43334 -1.03037,0.70139 -1.68938,0.70139c-0.65954,0 -1.2571,-0.26805 -1.68991,-0.70139c-0.43228,-0.43334 -0.70033,-1.03196 -0.70033,-1.69256c0,-0.6606 0.26805,-1.25869 0.70033,-1.69203c0.43281,-0.43334 1.03037,-0.70192 1.68991,-0.70192z" fill="#7c162e"/><g><path d="M332.617,163.69285c0.9705,0 1.85042,0.39466 2.48718,1.03302c0.63676,0.63782 1.0309,1.5188 1.0309,2.49142c0,0.97209 -0.39414,1.8536 -1.0309,2.49142c-0.63676,0.63782 -1.51668,1.03302 -2.48718,1.03302c-0.97103,0 -1.85042,-0.39519 -2.48718,-1.03302c-0.63729,-0.63782 -1.03143,-1.51933 -1.03143,-2.49142c0,-0.97262 0.39414,-1.8536 1.03143,-2.49142c0.63676,-0.63835 1.51615,-1.03302 2.48718,-1.03302z" fill="#ffffff"/><path d="M335.58308,167.15849c0.01642,0.15946 -0.03549,0.31838 -0.14303,0.43757c-0.10701,0.11866 -0.26011,0.18594 -0.42009,0.18488h-0.31308c-0.26646,0.0053 -0.51227,0.14303 -0.65583,0.36712c-0.31361,0.47943 -0.8476,0.76814 -1.41973,0.76814c-0.57213,0 -1.10559,-0.28871 -1.4192,-0.76814c-0.14621,-0.22832 -0.39837,-0.36659 -0.66908,-0.36712h-0.31626c-0.15946,0 -0.31149,-0.06728 -0.4185,-0.18594c-0.10648,-0.11866 -0.1584,-0.27759 -0.14144,-0.43652c0.04026,-0.29613 0.29613,-0.51492 0.59438,-0.50803h0.28183c0.26541,-0.00424 0.51174,-0.14091 0.65583,-0.36447c0.31255,-0.48048 0.84654,-0.77026 1.4192,-0.77026c0.57266,0 1.10665,0.28977 1.4192,0.77026c0.14462,0.22356 0.39043,0.36023 0.65636,0.36447h0.2813c0.30355,-0.01377 0.56736,0.2066 0.60815,0.50803z" fill="#3c162f"/></g></g><path d="M335.72506,193.49031h-33.01517v-5.4077h27.43848c3.01164,-0.00106 5.48081,2.39289 5.57669,5.4077z" fill="#531429" stroke="none" stroke-width="1" stroke-linecap="butt"/><path d="M298.73622,194.64711c0.83277,-0.85025 1.97173,-1.33021 3.1605,-1.33021h33.81245c0,2.49725 -2.02153,4.52196 -4.51454,4.52196h-33.72451c-0.02278,-1.19088 0.43334,-2.34097 1.26611,-3.19175z" fill="#531429" stroke="none" stroke-width="1" stroke-linecap="butt"/><path d="M324.80158,201.00183c0.47519,0.1139 0.78986,0.56524 0.73318,1.05103c-0.05721,0.48578 -0.46777,0.85237 -0.9562,0.85343c-0.18965,-0.00159 -0.37453,-0.05986 -0.53081,-0.16793c-0.20342,-0.14886 -0.44234,-0.24104 -0.69291,-0.26594l-7.08225,-0.50803c-0.22779,-0.0196 -0.43281,0.13774 -0.47413,0.36235c-0.04132,0.22514 0.09483,0.44499 0.31467,0.5075l6.53237,1.93094c0.24527,0.06675 0.50379,0.06675 0.74907,0c0.07522,-0.01907 0.1531,-0.02861 0.23097,-0.02914c0.4434,-0.00106 0.83012,0.30196 0.93554,0.73371c0.10542,0.43122 -0.09694,0.87886 -0.49055,1.08387c-0.39361,0.20448 -0.87568,0.11337 -1.16757,-0.22144c-0.22461,-0.26276 -0.52498,-0.4487 -0.86032,-0.53187l-10.03508,-2.4554c-1.65124,-0.40261 -3.34538,-0.60604 -5.04535,-0.60657h-4.42925c-2.78649,0 -5.04535,-2.26257 -5.04535,-5.05383h14.78324c0,0 6.19284,0 8.1368,0c1.08574,0 2.53822,0 2.53822,0c0.37347,0.00636 0.73794,-0.1176 1.03037,-0.35123c0.17005,-0.14303 0.38566,-0.22091 0.60762,-0.22038c0.49002,-0.00636 0.90587,0.35705 0.96627,0.84336c0.06092,0.48684 -0.25375,0.94137 -0.72947,1.05579c-0.18753,0.04874 -0.38513,0.03761 -0.56577,-0.03179c-0.22885,-0.09483 -0.47572,-0.13615 -0.72258,-0.12237l-7.20939,0.5716c-0.22303,0.02278 -0.39466,0.20713 -0.40102,0.43122c-0.00689,0.22408 0.15363,0.41903 0.37453,0.45453l6.85657,0.96574c0.32951,0.05298 0.66749,-0.00477 0.96097,-0.16528c0.21031,-0.11866 0.45771,-0.15469 0.69291,-0.10065z" fill="#531429" stroke="none" stroke-width="1" stroke-linecap="butt"/><g><path d="M326.07934,186.99927h4.16067c3.66641,0 6.63885,2.9772 6.63885,6.64944" fill="none" stroke="#5c162e" stroke-width="2.5" stroke-linecap="round"/><path d="M326.92111,179.60447v8.05964h-1.98392c-2.49301,0 -4.51401,-2.02471 -4.51401,-4.52196v-2.7849c-0.00106,-0.1086 0.07099,-0.20448 0.17482,-0.23415l5.08826,-1.45735c0.29295,-0.08158 0.6071,-0.02119 0.84919,0.16316c0.24263,0.18382 0.38513,0.47095 0.38566,0.77556z" fill="#5c162e" stroke="none" stroke-width="1" stroke-linecap="butt"/></g><g><g stroke="#000000" stroke-width="0" stroke-linecap="round"><path d="M329.96747,168.58226c-10.45621,4.76409 -15.19809,2.16573 -15.19809,2.16573c0,0 5.55821,-5.19513 5.55466,-5.203c-1.54158,-3.70451 12.76585,-9.47356 14.00361,-6.62728c0.00227,0.00521 7.58891,-0.28773 7.58891,-0.28773c0,0 -1.97404,5.40742 -11.94909,9.95228z" fill="#3c162f"/><path d="M329.66222,167.88393c-10.45621,4.76409 -14.89285,2.86406 -14.89285,2.86406c0,0 5.55821,-5.19513 5.55466,-5.203c-1.54158,-3.70451 3.03395,-12.20696 3.03395,-12.20696c0,0 9.7319,2.7334 10.96967,5.57968c0.00227,0.00521 7.58891,-0.28773 7.58891,-0.28773c0,0 -2.27928,4.70909 -12.25433,9.25395z" fill="#7c162e"/><path d="M314.76938,170.74799c0,0 5.55821,-5.19513 5.55466,-5.203c-0.53848,-1.294 -0.33059,-3.1734 0.16794,-5.07136c1.48003,0.87036 3.70193,0.93391 5.82385,0.00641c2.24693,-0.98214 3.75437,-2.80132 4.00397,-4.57528c1.88911,0.89669 3.54426,1.94691 4.00785,3.01295c0.00227,0.00521 7.58891,-0.28773 7.58891,-0.28773c0,0 -0.55383,1.14423 -2.31025,2.849c-1.14655,-1.9265 -4.20703,-2.49058 -7.08373,-1.23317c-1.12739,0.49279 -2.06862,1.1963 -2.7582,1.9991c-0.78374,0.07771 -1.59844,0.28656 -2.39892,0.63645c-0.68835,0.30088 -1.3073,0.68032 -1.84194,1.11294c-0.85756,0.05581 -1.75858,0.27018 -2.64226,0.65644c-3.03746,1.32769 -4.72355,4.18501 -3.77775,6.39245c-2.97853,0.28534 -4.33412,-0.29521 -4.33412,-0.29521z" fill-opacity="0.10588" fill="#000000"/></g><g stroke="none" stroke-linecap="butt"><path d="M319.27501,166.36743c0,0 0.57396,-0.76284 0.67407,-1.13836c0.09482,-0.35565 -0.0884,-1.0584 -0.0884,-1.0584c0,0 2.1936,0.22941 7.32982,-2.00247c5.69085,-2.47288 6.61376,-4.18474 6.61376,-4.18474c0,0 0.52725,0.409 0.84723,0.53144c0.38272,0.14645 1.29476,0.28822 1.29476,0.28822c0,0 -2.32437,2.80938 -7.94177,5.2273c-5.81975,2.50502 -8.72947,2.33701 -8.72947,2.33701z" fill="#3c162f" stroke-width="0"/><path d="M333.80426,157.98346c0,0 0.52725,0.409 0.84723,0.53144c0.38272,0.14645 1.29476,0.28822 1.29476,0.28822c0,0 -0.78719,0.95145 -2.5525,2.22351c-0.04135,-0.15383 -0.09429,-0.30535 -0.15922,-0.45387c-0.205,-0.46899 -0.51298,-0.87053 -0.90012,-1.1994c1.19182,-0.87418 1.46985,-1.38988 1.46985,-1.38988z" fill-opacity="0.10588" fill="#000000" stroke-width="0"/><path d="M319.27501,166.36743c0,0 0.57396,-0.76284 0.67407,-1.13836c0.09482,-0.35565 -0.0884,-1.0584 -0.0884,-1.0584c0,0 0.6493,0.0679 2.06851,-0.22959c-0.01851,0.50064 0.06746,0.9925 0.26978,1.45536c0.0807,0.18463 0.17737,0.35881 0.28854,0.52222c-2.14169,0.5106 -3.2125,0.44878 -3.2125,0.44878z" fill-opacity="0.10588" fill="#000000" stroke-width="0"/><path d="M331.51176,161.18215c0,0 -2.3924,1.67034 -4.16349,2.42829c-1.77109,0.75795 -3.98944,1.0608 -3.98944,1.0608c0,0 2.41003,-0.88149 3.92635,-1.53041c1.51632,-0.64891 4.22658,-1.95868 4.22658,-1.95868z" fill-opacity="0.10588" fill="#000000" stroke-width="0.5"/></g></g></g></g></svg>