<svg version="1.1" xmlns="http://www.w3.org/2000/svg" xmlns:xlink="http://www.w3.org/1999/xlink" width="119.36819" height="227.27545" viewBox="0,0,119.36819,227.27545"><g transform="translate(-260.31591,-77.67284)"><g data-paper-data="{&quot;isPaintingLayer&quot;:true}" fill-rule="nonzero" stroke-linecap="butt" stroke-linejoin="miter" stroke-miterlimit="10" stroke-dasharray="" stroke-dashoffset="0" style="mix-blend-mode: normal"><g data-paper-data="{&quot;index&quot;:null}" stroke="none" stroke-width="0"><path d="M348.92265,129.2617c1.48139,-0.74962 3.76154,1.94329 5.09283,6.01476c1.3313,4.07148 1.20963,7.97975 -0.27177,8.72937c-1.4814,0.74962 -3.76153,-1.94328 -5.09282,-6.01475c-1.33131,-4.07147 -1.20964,-7.97976 0.27176,-8.72938z" fill="#403d39"/><path d="M350.482,131.38628c0,0 1.71629,5.89209 0.05312,6.07674c-0.81599,0.09058 -5.21992,-5.17424 -5.21992,-5.17424c0,0 -2.17847,2.97373 -3.32562,2.17528c-2.92472,-2.03568 -0.52102,-11.90807 -0.32325,-12.23099c1.33311,-2.17666 18.45784,6.15671 22.96482,11.57348c4.50698,5.41677 7.60135,9.59814 6.26823,11.77479c-0.6456,1.05413 -7.96144,-0.89094 -12.59564,-4.72952c-4.93496,-4.08769 -7.82173,-9.46559 -7.82173,-9.46559z" fill="#404040"/><path d="M364.73122,110.14225c0.64147,-1.79882 4.0614,-0.99843 7.6386,1.78772c3.5772,2.78615 5.95708,6.50301 5.31559,8.30185c-0.64147,1.79882 -4.0614,0.99843 -7.6386,-1.78772c-3.5772,-2.78615 -5.95708,-6.50301 -5.31559,-8.30185z" fill="#404040"/><path d="M339.31881,125.43296c-0.06574,-2.7053 9.65448,-11.73377 13.9022,-15.19222c6.51699,-5.30612 17.34992,-7.15361 2.2892,3.00065c-6.8263,4.60242 -12.83696,14.80214 -14.44726,14.48548c-0.86406,-0.16991 -1.70421,-0.65134 -1.74414,-2.2939z" fill="#403d39"/><path d="M362.16128,115.36105c0.97492,-2.39215 5.64768,-0.97167 10.43687,3.17269c4.7892,4.14436 7.88128,9.44326 6.90636,11.83541c-0.97492,2.39216 -5.64767,0.97168 -10.43687,-3.17269c-4.7892,-4.14436 -7.88128,-9.44328 -6.90636,-11.83542z" fill="#404040"/><path d="M358.7238,108.56069c0.09325,-1.57901 2.60812,-2.25081 5.61711,-1.50052c3.00899,0.75027 5.37267,2.63851 5.27943,4.21751c-0.09325,1.579 -2.60811,2.25081 -5.6171,1.50052c-3.00899,-0.75027 -5.37267,-2.63851 -5.27944,-4.21751z" fill="#403d39"/><path d="M362.18895,118.28003c-4.30186,-2.16877 -7.43149,-5.7222 -6.99023,-7.93681c0.44128,-2.21461 4.28633,-2.25178 8.58819,-0.08299c4.30186,2.16877 7.4315,5.7222 6.99023,7.93681c-0.44126,2.2146 -4.28632,2.25177 -8.58817,0.08299z" fill="#403d39"/><path d="M366.15925,136.14837c-5.3283,-5.35212 -8.60002,-11.82497 -7.30761,-14.45751c1.29241,-2.63254 6.65958,-0.42789 11.98789,4.92423c5.32831,5.35212 8.60004,11.82497 7.30763,14.45751c-1.29242,2.63253 -6.65958,0.42788 -11.98789,-4.92423z" fill="#403d39"/><path d="M351.26219,113.07225c0.9984,-2.51944 5.88086,-1.11468 10.9053,3.13759c5.02443,4.25227 8.2882,9.74179 7.28979,12.26122c-0.9984,2.51944 -5.88087,1.11469 -10.9053,-3.13757c-5.02445,-4.25226 -8.2882,-9.7418 -7.28979,-12.26124z" fill="#403d39"/><path d="M349.21663,134.66332c-1.28028,0.44811 -3.95024,-5.00707 -3.95024,-5.00707c0,0 -1.88815,4.33458 -2.91735,3.25616c-1.46362,-1.53361 -1.79775,-10.05778 3.66942,-14.77235c3.96829,-3.42204 3.83055,-3.56824 9.70827,0.71044c3.70038,2.69369 11.69312,12.76962 9.39149,15.9003c-0.58654,0.79782 -5.37763,0.99309 -8.39285,-0.99111c-3.6254,-2.38573 -8.06489,-5.87137 -8.06489,-5.87137c0,0 1.73545,6.36223 0.55613,6.77499z" fill="#403d39"/></g><g stroke="none" stroke-width="0"><path d="M280,172.53454l12.41379,-19.48276h55.17242l12.41379,19.48276z" fill="#ccc5b9"/><path d="M360,172.53456l-12.41379,13.24138h-55.17242l-12.41379,-13.24138z" fill="#403d39"/><path d="M291.72414,304.94829l0.68966,-119.17241h55.17242v119.17241z" fill="#252422"/></g><g stroke="none" stroke-width="0"><path d="M291.34912,137.99107c-1.33129,4.07147 -3.61142,6.76438 -5.09282,6.01475c-1.4814,-0.74962 -1.60307,-4.65789 -0.27177,-8.72937c1.33129,-4.07147 3.61144,-6.76437 5.09283,-6.01475c1.4814,0.74962 1.60307,4.6579 0.27176,8.72937z" fill="#403d39"/><path d="M289.518,131.38625c0,0 -2.88678,5.37789 -7.82173,9.46559c-4.6342,3.83857 -11.95005,5.78365 -12.59565,4.72952c-1.33312,-2.17665 1.76126,-6.35802 6.26823,-11.77479c4.50697,-5.41677 21.63171,-13.75014 22.96482,-11.57348c0.19777,0.32292 2.60146,10.19531 -0.32325,12.23099c-1.14715,0.79844 -3.32562,-2.17529 -3.32562,-2.17529c0,0 -4.40393,5.26482 -5.21992,5.17425c-1.66317,-0.18465 0.05312,-6.07675 0.05312,-6.07675z" fill="#404040"/><path d="M269.9532,118.4441c-3.57719,2.78615 -6.99713,3.58654 -7.6386,1.78772c-0.64149,-1.79884 1.73839,-5.51569 5.31559,-8.30185c3.57719,-2.78615 6.99713,-3.58654 7.6386,-1.78772c0.64149,1.79884 -1.73839,5.5157 -5.31559,8.30185z" fill="#404040"/><path d="M298.93706,127.72687c-1.6103,0.31666 -7.62095,-9.88306 -14.44726,-14.48548c-15.06073,-10.15426 -4.2278,-8.30677 2.2892,-3.00065c4.24771,3.45845 13.96795,12.48693 13.9022,15.19223c-0.03993,1.64256 -0.88008,2.124 -1.74414,2.29391z" fill="#403d39"/><path d="M270.93237,127.19646c-4.7892,4.14437 -9.46196,5.56485 -10.43687,3.17269c-0.97493,-2.39216 2.11716,-7.69105 6.90635,-11.83542c4.7892,-4.14436 9.46195,-5.56484 10.43687,-3.17269c0.97493,2.39215 -2.11716,7.69105 -6.90635,11.83542z" fill="#404040"/><path d="M275.99677,112.77821c-3.00899,0.75029 -5.52385,0.07848 -5.6171,-1.50052c-0.09323,-1.579 2.27045,-3.46725 5.27944,-4.21752c3.00899,-0.75028 5.52385,-0.07849 5.6171,1.50052c0.09323,1.579 -2.27045,3.46725 -5.27944,4.21752z" fill="#403d39"/><path d="M277.81104,118.28003c-4.30185,2.16879 -8.14692,2.13161 -8.58817,-0.08299c-0.44127,-2.21461 2.68837,-5.76804 6.99023,-7.93681c4.30185,-2.16879 8.14691,-2.13162 8.58818,0.08299c0.44127,2.21461 -2.68836,5.76804 -6.99022,7.93681z" fill="#403d39"/><path d="M273.84073,136.14837c-5.32831,5.35211 -10.69547,7.55676 -11.98788,4.92423c-1.29241,-2.63254 1.97932,-9.10539 7.30763,-14.45751c5.32831,-5.35212 10.69547,-7.55677 11.98788,-4.92423c1.29241,2.63254 -1.97931,9.10539 -7.30761,14.45751z" fill="#403d39"/><path d="M281.44803,125.33349c-5.02444,4.25227 -9.90691,5.65702 -10.90531,3.13758c-0.9984,-2.51944 2.26536,-8.00896 7.28979,-12.26123c5.02444,-4.25228 9.90691,-5.65703 10.90531,-3.13759c0.9984,2.51944 -2.26534,8.00897 -7.28979,12.26124z" fill="#403d39"/><path d="M290.78338,134.66332c-1.17931,-0.41276 0.55614,-6.77499 0.55614,-6.77499c0,0 -4.43949,3.48564 -8.06488,5.87137c-3.01521,1.98419 -7.80631,1.78892 -8.39285,0.9911c-2.30164,-3.13068 5.69111,-13.20661 9.39149,-15.9003c5.87771,-4.27868 5.73998,-4.13248 9.70827,-0.71044c5.46716,4.71457 5.13304,13.23873 3.66942,14.77235c-1.0292,1.07842 -2.91736,-3.25616 -2.91736,-3.25616c0,0 -2.66995,5.45518 -3.95024,5.00707z" fill="#403d39"/></g><g stroke="none"><g fill="none" stroke-width="1" font-family="sans-serif" font-weight="normal" font-size="12" text-anchor="start"/><g><path d="M328.06469,157.28814c0.92471,2.32622 4.65198,7.89345 4.84442,10.79157c0.01214,0.1197 0.01387,0.24212 0.00435,0.36629c-0.08667,1.13054 -1.07342,1.97677 -2.20396,1.8901c-0.84454,-0.06475 -1.53041,-0.63177 -1.78726,-1.3858c-0.83741,-1.1247 -1.38188,-2.65102 -1.92375,-3.76349c-2.70612,-5.55563 -4.51373,-11.36976 -6.6101,-17.15959c-0.48529,-1.34028 -3.60332,-5.39992 -3.23928,-6.81858c0.51357,-2.00137 2.52591,-2.87648 3.83575,-1.0765c2.14739,2.95094 3.25776,6.50406 4.39309,9.91755c0.81225,2.44214 1.73605,4.84681 2.68676,7.23843z" data-paper-data="{&quot;index&quot;:null}" fill="#21201f" stroke-width="0.5"/><path d="M311.97448,157.28814c0.95071,-2.39163 1.8745,-4.7963 2.68676,-7.23844c1.13533,-3.41349 2.24569,-6.96661 4.39308,-9.91755c1.30983,-1.79998 3.32219,-0.92487 3.83575,1.0765c0.36403,1.41865 -2.75399,5.4783 -3.23928,6.81858c-2.09637,5.78983 -3.90398,11.60395 -6.6101,17.15959c-0.54188,1.11247 -1.08635,2.63879 -1.92375,3.76349c-0.25684,0.75403 -0.94272,1.32105 -1.78725,1.3858c-1.13054,0.08667 -2.11729,-0.75956 -2.20396,-1.8901c-0.00952,-0.12417 -0.00778,-0.2466 0.00435,-0.3663c0.19244,-2.89812 3.9197,-8.46535 4.84442,-10.79157z" fill="#21201f" stroke-width="0.5"/><g stroke-width="0"><path d="M342.5,139.35377c0,16.04333 -10.07359,21.75099 -22.5,21.75099c-12.42641,0 -22.5,-5.70766 -22.5,-21.75099c0,-16.04333 10.07359,-29.04901 22.5,-29.04901c12.42641,0 22.5,13.00569 22.5,29.04901z" fill="#252422"/><path d="M340,120.95073c0,9.97794 -8.9543,13.75401 -20,13.75401c-11.0457,0 -20,-3.77608 -20,-13.75401c0,-9.97794 40,-9.97794 40,0z" data-paper-data="{&quot;index&quot;:null}" fill-opacity="0.09804" fill="#000000"/></g><g stroke-width="0.5"><path d="M298.00944,172.30255c-2.03517,0.27018 -2.30535,-1.76499 -2.30535,-1.76499l-0.20109,-1.73786c0.13195,-1.09726 -0.24562,-2.39184 0.39587,-3.29178c3.39633,-4.76468 9.52781,-0.91571 13.02527,1.08725c0,0 1.78019,1.02268 0.75751,2.80286c-1.02268,1.78018 -2.80286,0.7575 -2.80286,0.7575c-1.29595,-0.74703 -7.96597,-5.10161 -7.27259,-1.20261l0.16825,1.0443c0,0 0.27018,2.03517 -1.76499,2.30535z" fill="#252422"/><path d="M297.64095,166.93311c-1.9223,-0.72087 -1.20144,-2.64317 -1.20144,-2.64317l0.64168,-1.62754c0.63351,-0.90557 0.91062,-2.22531 1.90053,-2.71671c5.24104,-2.6017 8.83489,3.68273 10.97561,7.09762c0,0 1.08811,1.74097 -0.65286,2.82906c-1.74097,1.08811 -2.82907,-0.65286 -2.82907,-0.65286c-0.79093,-1.26964 -4.62149,-8.25379 -5.84749,-4.48818l-0.34377,1.00034c0,0 -0.72087,1.9223 -2.64317,1.20144z" fill="#3a3733"/><path d="M300.65472,161.75224c-1.23492,-1.64008 0.40517,-2.875 0.40517,-2.875l1.41503,-1.02873c1.0206,-0.42398 1.96282,-1.38871 3.06181,-1.27194c5.81851,0.61827 5.47728,7.84967 5.45034,11.87999c0,0 -0.0165,2.05296 -2.06946,2.03646c-2.05297,-0.01649 -2.03647,-2.06944 -2.03647,-2.06944c0.01421,-1.49579 0.53136,-9.44462 -2.52438,-6.92563l-0.82702,0.65947c0,0 -1.64009,1.23492 -2.87501,-0.40516z" fill="#403d39"/></g><g data-paper-data="{&quot;index&quot;:null}" stroke-width="0.5"><path d="M341.99056,172.30258c-2.03517,-0.27018 -1.76499,-2.30535 -1.76499,-2.30535l0.16825,-1.0443c0.69338,-3.899 -5.97663,0.45558 -7.27259,1.20261c0,0 -1.78018,1.02268 -2.80286,-0.7575c-1.02268,-1.78018 0.75751,-2.80286 0.75751,-2.80286c3.49746,-2.00296 9.62894,-5.85193 13.02527,-1.08725c0.64149,0.89993 0.26391,2.19451 0.39587,3.29178l-0.20109,1.73786c0,0 -0.27017,2.03518 -2.30535,1.76499z" fill="#252422"/><path d="M342.35904,166.93311c-1.9223,0.72087 -2.64317,-1.20144 -2.64317,-1.20144l-0.34377,-1.00034c-1.226,-3.76561 -5.05655,3.21854 -5.84749,4.48818c0,0 -1.0881,1.74097 -2.82907,0.65286c-1.74097,-1.0881 -0.65286,-2.82906 -0.65286,-2.82906c2.14072,-3.41489 5.73456,-9.69931 10.97561,-7.09762c0.98991,0.4914 1.26702,1.81114 1.90053,2.71671l0.64168,1.62754c0,0 0.72087,1.92231 -1.20144,2.64317z" fill="#3a3733"/><path d="M339.34527,161.75224c-1.23492,1.64008 -2.87501,0.40516 -2.87501,0.40516l-0.82702,-0.65947c-3.05575,-2.51899 -2.53859,5.42985 -2.52438,6.92563c0,0 0.0165,2.05295 -2.03647,2.06944c-2.05296,0.0165 -2.06946,-2.03646 -2.06946,-2.03646c-0.02693,-4.03032 -0.36817,-11.26172 5.45034,-11.87999c1.09899,-0.11677 2.04121,0.84796 3.06181,1.27194l1.41503,1.02873c0,0 1.64008,1.23492 0.40517,2.875z" fill="#403d39"/></g></g></g><g stroke="#3c162f" stroke-width="0"><path d="M347.01475,98.65421c0,17.82091 -9.90846,37.34478 -27.01475,37.34478c-17.10629,0 -27.01475,-19.52386 -27.01475,-37.34478c0,-8.89227 11.99998,-20.98137 26.93205,-20.98137c14.93207,0 27.09744,12.05273 27.09744,20.98137z" data-paper-data="{&quot;index&quot;:null}" fill="#252422"/><path d="M333.09499,126.26072c0,11.76797 -13.09498,21.3078 -13.09498,21.3078c0,0 -13.09498,-9.53982 -13.09498,-21.3078c0,-11.76797 26.18995,-11.76797 26.18995,0z" fill="#000000"/></g><g><path d="M333.09499,123.18535c0,7.66747 -13.09499,13.88318 -13.09499,13.88318c0,0 -13.09498,-6.21571 -13.09498,-13.88318c0,-7.66747 26.18995,-7.66747 26.18995,0z" fill="#403d39" stroke="#3c162f" stroke-width="0"/><path d="M333.09499,123.18535c0,5.01198 -5.59527,9.40366 -9.47089,11.84445c2.81151,-2.37301 4.48924,-5.36899 4.48924,-8.62583c0,-3.33269 -1.75679,-6.39223 -4.68752,-8.79061c5.22609,0.55656 9.66916,2.41389 9.66916,5.572z" fill-opacity="0.09804" fill="#000000" stroke="#3c162f" stroke-width="0"/><path d="M323.76337,123.2344c0,-1.22592 0.3822,-2.21974 0.85367,-2.21974c0.47147,0 0.85367,0.99382 0.85367,2.21974c0,1.22592 -0.3822,2.21973 -0.85367,2.21973c-0.47147,0 -0.85367,-0.99381 -0.85367,-2.21973z" fill="#252422" stroke="none" stroke-width="0.5"/><path d="M314.5293,123.2344c0,-1.22592 0.3822,-2.21974 0.85367,-2.21974c0.47147,0 0.85367,0.99382 0.85367,2.21974c0,1.22592 -0.3822,2.21973 -0.85367,2.21973c-0.47147,0 -0.85367,-0.99381 -0.85367,-2.21973z" fill="#252422" stroke="none" stroke-width="0.5"/></g><g fill="#eb5e28" stroke="none" stroke-width="0"><path d="M309.94494,109.06718c2.32069,0.31547 4.15579,1.58342 5.15142,3.31645c-0.41041,-0.09691 -0.82539,-0.1861 -1.24463,-0.26732c-2.00415,-0.38832 -4.10575,-0.5949 -6.27168,-0.5949c-1.77474,0 -5.22373,0.1387 -6.89386,0.40243c1.78216,-2.06379 6.37222,-3.24901 9.25874,-2.85665z" data-paper-data="{&quot;index&quot;:null}"/><path d="M332.41994,111.52142c-2.16593,0 -4.26753,0.20658 -6.27168,0.5949c-0.41924,0.08124 -0.83422,0.17041 -1.24463,0.26732c0.99563,-1.73303 2.83073,-3.00098 5.15142,-3.31645c2.88651,-0.39237 6.75915,0.79286 8.5413,2.85665c0,0 -4.40167,-0.40242 -6.17641,-0.40242z" data-paper-data="{&quot;index&quot;:null}"/></g></g></g></svg>