<svg version="1.1" xmlns="http://www.w3.org/2000/svg" xmlns:xlink="http://www.w3.org/1999/xlink" width="664.13378" height="222.47237" viewBox="0,0,664.13378,222.47237"><defs><linearGradient x1="320.00005" y1="53.79884" x2="320.00005" y2="276.27119" gradientUnits="userSpaceOnUse" id="color-1"><stop offset="0" stop-color="#0d0d0d"/><stop offset="1" stop-color="#000000"/></linearGradient><linearGradient x1="224.36946" y1="57.56402" x2="224.36946" y2="195.22317" gradientUnits="userSpaceOnUse" id="color-2"><stop offset="0" stop-color="#191919"/><stop offset="1" stop-color="#0d0d0d"/></linearGradient><linearGradient x1="224.36946" y1="63.87967" x2="224.36946" y2="188.90748" gradientUnits="userSpaceOnUse" id="color-3"><stop offset="0" stop-color="#12121c"/><stop offset="1" stop-color="#060609"/></linearGradient><linearGradient x1="224.36945" y1="57.56399" x2="224.36945" y2="195.22316" gradientUnits="userSpaceOnUse" id="color-4"><stop offset="0" stop-color="#191919"/><stop offset="1" stop-color="#0d0d0d"/></linearGradient><linearGradient x1="224.36945" y1="123.91769" x2="224.36945" y2="128.86945" gradientUnits="userSpaceOnUse" id="color-5"><stop offset="0" stop-color="#191919"/><stop offset="1" stop-color="#0d0d0d"/></linearGradient><linearGradient x1="415.63061" y1="57.56399" x2="415.63061" y2="195.22316" gradientUnits="userSpaceOnUse" id="color-6"><stop offset="0" stop-color="#191919"/><stop offset="1" stop-color="#0d0d0d"/></linearGradient><linearGradient x1="415.63061" y1="63.87969" x2="415.63061" y2="188.90748" gradientUnits="userSpaceOnUse" id="color-7"><stop offset="0" stop-color="#12121c"/><stop offset="1" stop-color="#060609"/></linearGradient><linearGradient x1="415.63061" y1="57.56399" x2="415.63061" y2="195.22316" gradientUnits="userSpaceOnUse" id="color-8"><stop offset="0" stop-color="#191919"/><stop offset="1" stop-color="#0d0d0d"/></linearGradient><linearGradient x1="415.63061" y1="123.91769" x2="415.63061" y2="128.86945" gradientUnits="userSpaceOnUse" id="color-9"><stop offset="0" stop-color="#191919"/><stop offset="1" stop-color="#0d0d0d"/></linearGradient><linearGradient x1="68.03856" y1="61.9569" x2="68.03856" y2="208.9831" gradientUnits="userSpaceOnUse" id="color-10"><stop offset="0" stop-color="#191919"/><stop offset="1" stop-color="#0d0d0d"/></linearGradient><linearGradient x1="68.03856" y1="68.72575" x2="68.03856" y2="202.21424" gradientUnits="userSpaceOnUse" id="color-11"><stop offset="0" stop-color="#12121c"/><stop offset="1" stop-color="#060609"/></linearGradient><linearGradient x1="68.03855" y1="66.60152" x2="68.03855" y2="204.33846" gradientUnits="userSpaceOnUse" id="color-12"><stop offset="0" stop-color="#191919"/><stop offset="1" stop-color="#0d0d0d"/></linearGradient><linearGradient x1="68.03855" y1="128.05515" x2="68.03855" y2="142.88483" gradientUnits="userSpaceOnUse" id="color-13"><stop offset="0" stop-color="#191919"/><stop offset="1" stop-color="#0d0d0d"/></linearGradient><linearGradient x1="571.96148" y1="61.9569" x2="571.96148" y2="208.9831" gradientUnits="userSpaceOnUse" id="color-14"><stop offset="0" stop-color="#191919"/><stop offset="1" stop-color="#0d0d0d"/></linearGradient><linearGradient x1="571.96148" y1="68.72575" x2="571.96148" y2="202.21424" gradientUnits="userSpaceOnUse" id="color-15"><stop offset="0" stop-color="#12121c"/><stop offset="1" stop-color="#060609"/></linearGradient><linearGradient x1="571.96151" y1="66.60152" x2="571.96151" y2="204.33846" gradientUnits="userSpaceOnUse" id="color-16"><stop offset="0" stop-color="#191919"/><stop offset="1" stop-color="#0d0d0d"/></linearGradient><linearGradient x1="571.96151" y1="128.05515" x2="571.96151" y2="142.88483" gradientUnits="userSpaceOnUse" id="color-17"><stop offset="0" stop-color="#191919"/><stop offset="1" stop-color="#0d0d0d"/></linearGradient></defs><g transform="translate(12.0669,-53.79883)"><g data-paper-data="{&quot;isPaintingLayer&quot;:true}" fill-rule="nonzero" stroke="none" stroke-linecap="butt" stroke-linejoin="miter" stroke-miterlimit="10" stroke-dasharray="" stroke-dashoffset="0" style="mix-blend-mode: normal"><path d="M652.06688,53.79884v222.47237h-664.13378v-222.47237z" data-paper-data="{&quot;index&quot;:null}" fill="url(#color-1)" stroke-width="NaN"/><g stroke-width="0"><path d="M190.81579,195.22317v-137.65915h67.10735v137.65915z" fill="url(#color-2)"/><path d="M194.05343,188.90748v-125.02781h60.63207v125.02781z" fill="url(#color-3)"/><path d="M222.30914,195.22316v-137.65915h4.12062v137.65915z" fill="url(#color-4)"/><path d="M190.81578,128.86945v-4.95177h67.10735v4.95177z" fill="url(#color-5)"/></g><g stroke-width="0"><path d="M382.07694,195.22316v-137.65915h67.10735v137.65915z" fill="url(#color-6)"/><path d="M385.31458,188.90748v-125.02779h60.63207v125.02779z" fill="url(#color-7)"/><path d="M413.5703,195.22316v-137.65915h4.12062v137.65915z" fill="url(#color-8)"/><path d="M382.07692,128.86945v-4.95177h67.10735v4.95177z" fill="url(#color-9)"/></g><g stroke-width="0"><path d="M42.67967,208.9831l-6.09602,-137.12922l56.81381,-9.89697l6.09601,137.12923z" fill="url(#color-10)"/><path d="M45.141,202.21424l-5.53666,-124.54649l51.33177,-8.942l5.53666,124.54649z" fill="url(#color-11)"/><path d="M69.34226,204.33846l-6.09602,-137.12923l3.48857,-0.60771l6.09602,137.12923z" fill="url(#color-12)"/><path d="M39.74129,142.88483l-0.21928,-4.9327l56.81381,-9.89697l0.21928,4.93271z" fill="url(#color-13)"/></g><g data-paper-data="{&quot;index&quot;:null}" stroke-width="0"><path d="M540.50659,199.08614l6.09602,-137.12923l56.81381,9.89697l-6.09602,137.12922z" fill="url(#color-14)"/><path d="M543.52729,193.27225l5.53666,-124.54649l51.33176,8.942l-5.53666,124.54649z" fill="url(#color-15)"/><path d="M567.16919,203.73076l6.09602,-137.12923l3.48857,0.60771l-6.09601,137.12923z" fill="url(#color-16)"/><path d="M543.44494,132.98787l0.21928,-4.93271l56.81381,9.89697l-0.21928,4.9327z" fill="url(#color-17)"/></g></g></g></svg>