<svg version="1.1" xmlns="http://www.w3.org/2000/svg" xmlns:xlink="http://www.w3.org/1999/xlink" width="95.95291" height="251.99816" viewBox="0,0,95.95291,251.99816"><g transform="translate(-272.50442,-53.50172)"><g data-paper-data="{&quot;isPaintingLayer&quot;:true}" fill-rule="nonzero" stroke-linejoin="miter" stroke-miterlimit="10" stroke-dasharray="" stroke-dashoffset="0" style="mix-blend-mode: normal"><g stroke-linecap="butt"><path d="M280.0304,304.39162c0,0 0.36464,-94.38387 0.20665,-118.01201c-0.05451,-8.15261 8.18688,-36.76129 40.20201,-36.9211c31.60235,-0.15775 39.85672,29.48704 39.84884,36.89673c-0.05641,34.0601 1.15429,117.98648 1.15429,117.98648l-10.99667,0.09614l-0.15882,-114.84311c0,0 0.07549,-3.0993 -2.81625,-3.15415c-3.43441,-0.06514 -2.94538,3.11562 -2.94538,3.11562l0.20548,114.86995l-48.21366,0.07222l-0.30539,-115.23309c0,0 0.27949,-2.919 -2.8856,-2.93443c-3.11083,-0.01515 -2.81569,2.90899 -2.81569,2.90899l0.35311,115.0668z" fill="#000000" stroke="#000000" stroke-width="2"/><path d="M277.23705,193.87961c-0.05451,-8.15261 4.18688,-44.26129 43.20201,-44.4211c39.01513,-0.15981 42.85672,36.98704 42.84884,44.39673c-0.00772,4.65759 -13.45986,12.13276 -13.45986,12.13276l-0.59749,98.43818l-57.21366,0.07222l-0.91231,-98.50872c0,0 -13.84412,-8.60969 -13.86752,-12.11006z" fill="#4a314d" stroke="#4a314d" stroke-width="2"/><g stroke="#4a314d" stroke-width="0"><path d="M299.42325,215.95802c0,0 -3.97341,-25.56495 5.59978,-34.67379c9.5732,-9.10884 21.28814,-8.45732 30.17661,0c8.88846,8.45732 5.59978,34.67379 5.59978,34.67379c0,0 -1.15857,7.6039 -21.04902,7.6039c-19.25168,0 -20.32715,-7.6039 -20.32715,-7.6039z" fill="#000000"/><path d="M298.92325,215.34456c0,0 15.08818,-26.68961 20.82715,-26.68961c5.8082,0 21.54902,26.68961 21.54902,26.68961c0,0 -1.65856,9.60696 -21.54902,9.60696c-19.25167,0 -20.82715,-9.60696 -20.82715,-9.60696z" fill="#6b6570"/><path d="M311.6156,223.69076c-8.09262,-5.23366 7.93227,-31.75894 7.93227,-31.75894c0,0 16.93345,26.27632 8.31811,31.68209c-4.60873,2.89178 -11.84484,2.92601 -16.25038,0.07686z" data-paper-data="{&quot;index&quot;:null}" fill="#a8ba9a"/><path d="M319.78626,197.81373c0,0 14.86663,26.28695 0,26.28695c-14.38918,0 0,-26.28695 0,-26.28695z" data-paper-data="{&quot;index&quot;:null}" fill="#ace894"/></g><path d="M319.93906,242.45851c25.57025,-0.10474 30.88898,-36.47052 30.88898,-36.47052l-0.59749,98.43818l-59.21366,0.07222l-0.91231,-98.50872c0,0 5.81543,36.56723 29.83448,36.46884z" fill-opacity="0.25098" fill="#000000" stroke="#4a314d" stroke-width="0"/><path d="M319.93906,265.95851c25.57025,-0.10474 30.88898,-39.47052 30.88898,-39.47052l-0.59749,77.93818l-59.21366,0.07222l-0.91231,-78.00872c0,0 5.81542,39.56723 29.83448,39.46884z" fill-opacity="0.09804" fill="#000000" stroke="#4a314d" stroke-width="0"/></g><path d="" fill="#a8ba9a" stroke="#4a314d" stroke-width="0" stroke-linecap="butt"/><path d="" fill="#a8ba9a" stroke="#4a314d" stroke-width="0" stroke-linecap="butt"/><path d="" fill-opacity="0.10588" fill="#000000" stroke="none" stroke-width="0.60142" stroke-linecap="butt"/><g><path d="M275.9269,101.88012c0,0 6.16329,-5.92187 6.29161,-6.78761c0.33654,-2.27063 -0.16776,-40.17317 35.96775,-41.57382c44.63633,-0.91362 39.01489,35.34872 41.53088,42.1903c3.44981,9.38084 6.15664,17.40016 6.15664,17.40016c0,0 -2.76715,-2.05351 -4.0797,-3.13397c-1.2242,-1.00773 -3.80143,-3.14585 -3.80143,-3.14585c0,0 3.09111,10.3481 1.31092,20.69498c-1.5623,9.48098 -7.29782,17.22543 -7.29782,17.22543l-1.15522,-2.34735c0,0 -1.02266,2.19794 -2.16005,3.33274c-1.1374,1.13479 -3.43873,2.91273 -3.43873,2.91273l-0.09205,-3.70421c0,0 -7.0601,11.01795 -24.35066,10.87154c-16.30625,-0.25547 -26.07151,-10.6752 -26.07151,-10.6752l-0.1162,2.65484c0,0 -3.89477,-3.29276 -6.18145,-9.70754c-2.72545,-7.64567 -3.23946,-12.24324 -3.23946,-12.24324c0,0 -2.33908,1.89916 -5.71704,2.7744c-4.23278,1.09673 -6.94665,0.34526 -6.94665,0.34526c0,0 3.60795,-2.71717 5.58396,-4.76989c1.76007,-1.8284 2.64658,-3.37722 2.64658,-3.37722c0,0 -2.10758,1.0847 -4.23277,1.61795c-2.21739,0.5564 -4.03008,0.53093 -4.03008,0.53093c0,0 4.97492,-5.03728 7.03074,-10.87429c1.94102,-5.51108 2.09972,-10.95731 2.09972,-10.95731c0,0 -1.36165,0.66163 -3.33013,0.79513c-1.24776,0.08463 -2.37785,-0.0489 -2.37785,-0.0489z" fill="#000000" stroke="none" stroke-width="1.5" stroke-linecap="butt"/><g><path d="M349.23884,158.80336c-4.39649,-4.39649 -4.39649,-11.52462 0,-15.92112c4.39649,-4.39649 11.52462,-4.39649 15.92112,0c4.39649,4.39649 4.39649,11.52462 0,15.92112c-4.39649,4.39649 -11.52462,4.39649 -15.92112,0z" fill="#544f57" stroke="none" stroke-width="0.5" stroke-linecap="butt"/><g><path d="M319.46278,123.58356c3.43751,-3.33615 8.86754,-4.80256 13.92073,-4.52175c3.61839,0.29167 6.60412,3.79688 9.65761,6.07837c3.19119,2.38492 5.74574,5.56524 8.90579,7.78132c2.23712,1.60179 4.70325,2.54147 7.13342,3.56406c2.57801,1.08544 6.70738,0.31966 7.814,2.87992c1.55549,3.36046 -0.44452,7.02854 -2.0452,9.94907c-2.5032,4.56548 -6.39,8.15366 -9.94282,11.88933c-2.59407,2.45354 -5.38673,4.70449 -8.43306,6.58276c-2.82789,1.74778 -5.65936,3.73277 -9.03617,4.34755c-1.21772,0.21124 -2.93784,-1.00413 -3.67804,-2.30155c-1.12619,-2.16295 -0.43596,-4.74165 -1.40113,-7.1163c-1.05116,-2.5868 -2.71721,-4.97743 -4.33982,-7.31947c-1.84387,-2.67783 -4.14379,-5.29947 -6.14643,-8.02927c-2.40116,-3.27762 -6.65631,-6.14264 -7.0218,-9.99085c-0.54046,-5.08113 1.22129,-10.50066 4.61293,-13.79321z" fill="#a8ba9a" stroke="none" stroke-width="0.60142" stroke-linecap="round"/><path d="M357.79686,136.83221c0,0 1.37889,4.46043 -9.89829,15.31489c-11.58913,11.15472 -15.55154,9.66457 -15.55154,9.66457" fill="none" stroke="#6b6570" stroke-width="1.5" stroke-linecap="round"/><path d="M335.12805,122.19214c0,0 0.93983,3.04015 -6.74652,10.43838c-7.89898,7.60288 -10.59968,6.58722 -10.59968,6.58722" fill="none" stroke="#6b6570" stroke-width="1.5" stroke-linecap="round"/><path d="M366.78713,139.25829c1.49162,3.2966 -0.53006,6.943 -2.14789,9.84638c-2.53,4.53868 -6.41291,8.13075 -9.96811,11.86404c-2.59224,2.45537 -5.37787,4.71335 -8.40903,6.6068c-0.45223,0.28315 -0.90462,0.57235 -1.35932,0.86104c-0.81734,-0.01257 -3.47737,2.89399 -5.66944,3.68734c-2.00106,0.72421 -3.57499,-0.66332 -3.74942,-0.58c-0.73081,-0.42524 -1.40813,-1.09057 -1.79742,-1.78377c-0.72602,-1.42077 -0.64458,-3.03639 -0.7892,-4.64923c4.40419,0.85012 8.82292,-0.20242 11.8914,-3.27091c0.84074,-0.84074 1.53012,-1.78283 2.07051,-2.79821c2.9834,-0.22089 5.77285,-1.37999 7.90833,-3.51547c2.33969,-2.33969 3.50732,-5.46439 3.55313,-8.7691c0.45439,-0.33798 0.88797,-0.7116 1.29751,-1.12114c2.24149,-2.24149 3.40724,-5.20347 3.54142,-8.35398c1.60981,0.23359 3.05735,0.62339 3.62751,1.9762z" fill-opacity="0.10588" fill="#000000" stroke="none" stroke-width="0.60142" stroke-linecap="butt"/><path d="M317.01609,130.57611c-1.42878,-1.42878 -1.44364,-5.61188 1.12725,-8.18277c2.57089,-2.57089 6.754,-2.55602 8.18277,-1.12725c1.42878,1.42878 -0.43783,3.73041 -3.00873,6.3013c-2.57089,2.57089 -4.87252,4.4375 -6.3013,3.00873z" fill="#6b6570" stroke="none" stroke-width="0.5" stroke-linecap="butt"/></g></g></g><path d="M301.6609,112.83945c0.03999,-2.75843 2.30855,-4.96213 5.06696,-4.92214c2.75843,0.03999 4.96213,2.30855 4.92214,5.06696c-0.01953,1.3469 -10.00956,1.2667 -9.9891,-0.14482z" fill="#ace894" stroke-opacity="0.25098" stroke="#ace895" stroke-width="8" stroke-linecap="butt"/><path d="M328.88228,112.80779c0,-2.81845 2.2848,-5.10325 5.10325,-5.10325c2.81845,0 5.10325,2.2848 5.10325,5.10325c0,1.35048 -10.2065,1.46797 -10.2065,0z" fill="#ace894" stroke-opacity="0.25098" stroke="#ace895" stroke-width="8" stroke-linecap="butt"/></g></g></svg>