<svg version="1.1" xmlns="http://www.w3.org/2000/svg" xmlns:xlink="http://www.w3.org/1999/xlink" width="26" height="26" viewBox="0,0,26,26"><defs><radialGradient cx="320" cy="180" r="13" gradientUnits="userSpaceOnUse" id="color-1"><stop offset="0" stop-color="#ace894"/><stop offset="1" stop-color="#ace894" stop-opacity="0"/></radialGradient><radialGradient cx="320" cy="180" r="13" gradientUnits="userSpaceOnUse" id="color-2"><stop offset="0" stop-color="#ace894"/><stop offset="1" stop-color="#ace894" stop-opacity="0"/></radialGradient></defs><g transform="translate(-307,-167)"><g data-paper-data="{&quot;isPaintingLayer&quot;:true}" fill-rule="nonzero" stroke="none" stroke-width="0" stroke-linecap="butt" stroke-linejoin="miter" stroke-miterlimit="10" stroke-dasharray="" stroke-dashoffset="0" style="mix-blend-mode: normal"><path d="M307,180c0,-7.1797 5.8203,-13 13,-13c7.1797,0 13,5.8203 13,13c0,7.1797 -5.8203,13 -13,13c-7.1797,0 -13,-5.8203 -13,-13z" fill="url(#color-1)"/><path d="M307,180c0,-7.1797 5.8203,-13 13,-13c7.1797,0 13,5.8203 13,13c0,7.1797 -5.8203,13 -13,13c-7.1797,0 -13,-5.8203 -13,-13z" fill="url(#color-2)"/></g></g></svg>