<svg version="1.1" xmlns="http://www.w3.org/2000/svg" xmlns:xlink="http://www.w3.org/1999/xlink" width="93.36936" height="249.99816" viewBox="0,0,93.36936,249.99816"><g transform="translate(-271.50442,-55.50172)"><g data-paper-data="{&quot;isPaintingLayer&quot;:true}" fill-rule="nonzero" stroke-linejoin="miter" stroke-miterlimit="10" stroke-dasharray="" stroke-dashoffset="0" style="mix-blend-mode: normal"><g stroke-linecap="butt"><path d="M280.0304,304.39162c0,0 0.36464,-94.38387 0.20665,-118.01201c-0.05451,-8.15261 8.18688,-36.76129 40.20201,-36.9211c31.60235,-0.15775 39.85672,29.48704 39.84884,36.89673c-0.05641,34.0601 1.15429,117.98648 1.15429,117.98648l-10.99667,0.09614l-0.15882,-114.84311c0,0 0.07549,-3.0993 -2.81625,-3.15415c-3.43441,-0.06514 -2.94538,3.11562 -2.94538,3.11562l0.20548,114.86995l-48.21366,0.07222l-0.30539,-115.23309c0,0 0.27949,-2.919 -2.8856,-2.93443c-3.11083,-0.01515 -2.81569,2.90899 -2.81569,2.90899l0.35311,115.0668z" fill="#000000" stroke="#000000" stroke-width="2"/><path d="M277.23705,193.87961c-0.05451,-8.15261 4.18688,-44.26129 43.20201,-44.4211c39.01513,-0.15981 42.85672,36.98704 42.84884,44.39673c-0.00772,4.65759 -13.45986,12.13276 -13.45986,12.13276l-0.59749,98.43818l-57.21366,0.07222l-0.91231,-98.50872c0,0 -13.84412,-8.60969 -13.86752,-12.11006z" fill="#4a314d" stroke="#4a314d" stroke-width="2"/><g stroke="#4a314d" stroke-width="0"><path d="M299.42325,215.95802c0,0 -3.97341,-25.56495 5.59978,-34.67379c9.5732,-9.10884 21.28814,-8.45732 30.17661,0c8.88846,8.45732 5.59978,34.67379 5.59978,34.67379c0,0 -1.15857,7.6039 -21.04902,7.6039c-19.25168,0 -20.32715,-7.6039 -20.32715,-7.6039z" fill="#000000"/><path d="M298.92325,215.34456c0,0 15.08818,-26.68961 20.82715,-26.68961c5.8082,0 21.54902,26.68961 21.54902,26.68961c0,0 -1.65856,9.60696 -21.54902,9.60696c-19.25167,0 -20.82715,-9.60696 -20.82715,-9.60696z" fill="#6b6570"/><path d="M311.6156,223.69076c-8.09262,-5.23366 7.93227,-31.75894 7.93227,-31.75894c0,0 16.93345,26.27632 8.31811,31.68209c-4.60873,2.89178 -11.84484,2.92601 -16.25038,0.07686z" data-paper-data="{&quot;index&quot;:null}" fill="#a8ba9a"/><path d="M319.78626,197.81373c0,0 14.86663,26.28695 0,26.28695c-14.38918,0 0,-26.28695 0,-26.28695z" data-paper-data="{&quot;index&quot;:null}" fill="#ace894"/></g><path d="M319.93906,242.45851c25.57025,-0.10474 30.88898,-36.47052 30.88898,-36.47052l-0.59749,98.43818l-59.21366,0.07222l-0.91231,-98.50872c0,0 5.81543,36.56723 29.83448,36.46884z" fill-opacity="0.25098" fill="#000000" stroke="#4a314d" stroke-width="0"/><path d="M319.93906,265.95851c25.57025,-0.10474 30.88898,-39.47052 30.88898,-39.47052l-0.59749,77.93818l-59.21366,0.07222l-0.91231,-78.00872c0,0 5.81542,39.56723 29.83448,39.46884z" fill-opacity="0.09804" fill="#000000" stroke="#4a314d" stroke-width="0"/></g><path d="" fill="#a8ba9a" stroke="#4a314d" stroke-width="0" stroke-linecap="butt"/><path d="" fill="#a8ba9a" stroke="#4a314d" stroke-width="0" stroke-linecap="butt"/><path d="" fill-opacity="0.10588" fill="#000000" stroke="none" stroke-width="0.60142" stroke-linecap="butt"/><path d="M274.9269,103.88012c0,0 6.16329,-5.92187 6.29161,-6.78761c0.33654,-2.27063 -0.16776,-40.17317 35.96775,-41.57382c44.63633,-0.91362 39.01489,35.34872 41.53088,42.1903c3.44981,9.38084 6.15664,17.40016 6.15664,17.40016c0,0 -2.76715,-2.05351 -4.0797,-3.13397c-1.2242,-1.00773 -3.80143,-3.14585 -3.80143,-3.14585c0,0 3.09111,10.3481 1.31092,20.69498c-1.5623,9.48098 -7.29782,17.22543 -7.29782,17.22543l-1.15522,-2.34735c0,0 -1.02266,2.19794 -2.16005,3.33274c-1.1374,1.13479 -3.43873,2.91273 -3.43873,2.91273l-0.09205,-3.70421c0,0 -7.0601,11.01795 -24.35066,10.87154c-16.30625,-0.25547 -26.07151,-10.6752 -26.07151,-10.6752l-0.1162,2.65484c0,0 -3.89477,-3.29276 -6.18145,-9.70754c-2.72545,-7.64567 -3.23946,-12.24324 -3.23946,-12.24324c0,0 -2.33908,1.89916 -5.71704,2.7744c-4.23278,1.09673 -6.94665,0.34526 -6.94665,0.34526c0,0 3.60795,-2.71717 5.58396,-4.76989c1.76007,-1.8284 2.64658,-3.37722 2.64658,-3.37722c0,0 -2.10758,1.0847 -4.23277,1.61795c-2.21739,0.5564 -4.03008,0.53093 -4.03008,0.53093c0,0 4.97492,-5.03728 7.03074,-10.87429c1.94102,-5.51108 2.09972,-10.95731 2.09972,-10.95731c0,0 -1.36165,0.66163 -3.33013,0.79513c-1.24776,0.08463 -2.37785,-0.0489 -2.37785,-0.0489z" fill="#000000" stroke="none" stroke-width="1.5" stroke-linecap="butt"/><g><path d="M281.85897,157.00164c3.34845,-5.23892 10.30987,-6.77145 15.54878,-3.42302c5.23892,3.34843 6.77147,10.30987 3.42302,15.54879c-3.34845,5.23892 -10.30987,6.77146 -15.54878,3.42302c-5.23892,-3.34843 -6.77147,-10.30988 -3.42302,-15.5488z" fill="#544f57" stroke="none" stroke-width="0.5" stroke-linecap="butt"/><g><path d="M317.99226,124.92784c3.99719,2.63985 6.59677,7.62761 7.40895,12.62301c0.4931,3.59647 -2.28821,7.26601 -3.85985,10.7386c-1.64303,3.6293 -4.19977,6.80788 -5.68461,10.3705c-1.08335,2.52919 -1.47084,5.13967 -1.94703,7.73287c-0.50579,2.75109 1.12989,6.61927 -1.13257,8.25045c-2.94745,2.24161 -6.95974,1.077 -10.15612,0.14167c-4.99689,-1.46309 -9.33681,-4.48754 -13.74898,-7.1541c-2.95389,-2.0059 -5.75261,-4.24929 -8.24192,-6.82056c-2.31491,-2.38599 -4.86224,-4.72448 -6.18865,-7.89013c-0.46811,-1.14383 0.34901,-3.08503 1.45695,-4.08686c1.87024,-1.56489 4.53703,-1.44522 6.64864,-2.89837c2.3003,-1.58274 4.27685,-3.72379 6.21525,-5.81199c2.21879,-2.37649 4.28461,-5.18626 6.52002,-7.72898c2.68473,-3.04969 4.56789,-7.82131 8.24754,-9.00561c4.84611,-1.62025 10.51767,-1.0649 14.46242,1.53953z" fill="#a8ba9a" stroke="none" stroke-width="0.60142" stroke-linecap="round"/><path d="M313.29523,165.21391c0,0 -4.05966,2.30563 -17.08486,-6.37412c-13.38551,-8.91985 -12.78212,-13.10998 -12.78212,-13.10998" fill="none" stroke="#6b6570" stroke-width="1.5" stroke-linecap="round"/><path d="M322.71916,139.9276c0,0 -2.76699,1.57148 -11.64476,-4.34451c-9.12336,-6.07964 -8.7121,-8.93555 -8.7121,-8.93555" fill="none" stroke="#6b6570" stroke-width="1.5" stroke-linecap="round"/><path d="M312.8588,174.51553c-2.89881,2.1655 -6.89458,0.97507 -10.07791,0.0193c-4.97649,-1.49502 -9.31937,-4.51484 -13.72973,-7.18424c-2.95528,-2.00371 -5.75937,-4.23874 -8.26023,-6.79192c-0.37375,-0.38078 -0.75347,-0.7604 -1.13315,-1.1424c-0.16345,-0.80093 -3.57394,-2.77385 -4.82002,-4.74409c-1.1375,-1.79857 -0.12081,-3.634 -0.23969,-3.78643c0.25817,-0.80515 0.76232,-1.60967 1.35561,-2.1389c1.23145,-1.01451 2.8268,-1.28234 4.37083,-1.77033c0.11665,4.48397 2.09461,8.57306 5.75105,10.91007c1.00182,0.64031 2.07011,1.11103 3.17794,1.42049c0.85715,2.86614 2.58886,5.34115 5.13354,6.96756c2.788,1.78195 6.09068,2.25046 9.32795,1.58468c0.42778,0.37109 0.88588,0.7142 1.37388,1.02612c2.67099,1.70716 5.81434,2.20882 8.92002,1.66252c0.11798,1.62238 0.04852,3.11988 -1.15008,3.96756z" fill-opacity="0.10588" fill="#000000" stroke="none" stroke-width="0.60142" stroke-linecap="butt"/><path d="M310.63721,124.04177c1.08818,-1.70256 5.17026,-2.61644 8.23377,-0.65841c3.06351,1.95803 3.94835,6.04652 2.86018,7.74905c-1.08818,1.70255 -3.7373,0.37443 -6.8008,-1.58359c-3.06351,-1.95803 -5.38131,-3.80452 -4.29314,-5.50706z" fill="#6b6570" stroke="none" stroke-width="0.5" stroke-linecap="butt"/></g></g><path d="M300.6609,114.83944c0.03999,-2.75843 10.02909,-2.61359 9.9891,0.14482c-0.03999,2.75843 -2.30854,4.96213 -5.06696,4.92214c-2.75843,-0.03999 -4.96213,-2.30855 -4.92214,-5.06696z" fill="#ace894" stroke-opacity="0.25098" stroke="#ace895" stroke-width="8" stroke-linecap="butt"/><path d="M327.88228,114.80778c0,-2.81845 10.2065,-2.81845 10.2065,0c0,2.81845 -2.28479,5.10325 -5.10325,5.10325c-2.81845,0 -5.10325,-2.2848 -5.10325,-5.10325z" fill="#ace894" stroke-opacity="0.25098" stroke="#ace895" stroke-width="8" stroke-linecap="butt"/></g></g></svg>