<svg version="1.1" xmlns="http://www.w3.org/2000/svg" xmlns:xlink="http://www.w3.org/1999/xlink" width="161.06578" height="250.35475" viewBox="0,0,161.06578,250.35475"><g transform="translate(-239.4671,-54.82263)"><g data-paper-data="{&quot;isPaintingLayer&quot;:true}" fill-rule="nonzero" stroke-linejoin="miter" stroke-miterlimit="10" stroke-dasharray="" stroke-dashoffset="0" style="mix-blend-mode: normal"><g data-paper-data="{&quot;index&quot;:null}" stroke="none" stroke-width="0" stroke-linecap="butt"><path d="M340.82796,196.02029c4.07446,0.83241 6.08739,7.82176 4.49601,15.61117c-1.59138,7.7894 -6.18445,13.42915 -10.25891,12.59673c-4.07446,-0.83241 -6.08739,-7.82176 -4.49601,-15.61116c1.59138,-7.7894 6.18445,-13.42915 10.25891,-12.59673z" fill="#808080"/><path d="M353.40652,200.22821c4.74967,0.44182 7.92502,8.05646 7.09235,17.00777c-0.83267,8.95129 -5.35807,15.84959 -10.10773,15.40776c-4.74967,-0.44182 -7.92503,-8.05646 -7.09235,-17.00777c0.83267,-8.95129 5.35807,-15.84959 10.10774,-15.40776z" fill="#808080"/><path d="M320.83202,164.55199c2.51278,1.03338 2.94828,5.76538 0.97272,10.56923c-1.97557,4.80384 -5.6141,7.86042 -8.12689,6.82704c-2.51278,-1.03338 -2.94828,-5.76538 -0.97272,-10.56923c1.97557,-4.80384 5.6141,-7.86042 8.12689,-6.82704z" fill="#808080"/><path d="M334.73491,184.56892c3.57588,1.47056 4.19562,8.20457 1.38425,15.04079c-2.81138,6.83623 -7.98928,11.18596 -11.56516,9.7154c-3.57588,-1.47056 -4.19562,-8.20457 -1.38425,-15.0408c2.81138,-6.83623 7.98928,-11.18596 11.56516,-9.71539z" fill="#808080"/><path d="M329.27941,171.69642c3.23195,1.32913 3.79207,7.41542 1.25111,13.59411c-2.54096,6.1787 -7.22083,10.11005 -10.45277,8.78093c-3.23195,-1.32913 -3.79207,-7.41542 -1.25111,-13.5941c2.54096,-6.1787 7.22083,-10.11006 10.45277,-8.78093z" fill="#808080"/><path d="M329.3378,176.15593c0,0 -4.01395,8.6411 -6.88854,6.45882c-1.41035,-1.07067 -2.41913,-12.89281 -2.41913,-12.89281c0,0 -6.90029,0.01114 -7.82058,-2.46653c-2.3463,-6.31688 12.83132,-13.25248 13.51854,-13.3091c4.63216,-0.38167 22.48539,32.83825 23.48478,44.96722c0.99939,12.12896 1.15496,20.94202 -3.4772,21.32369c-2.24329,0.18485 -11.72369,-12.31059 -14.73791,-22.96362c-3.20981,-11.34437 -1.65994,-21.11769 -1.65994,-21.11769z" fill="#404040"/><path d="M380.68941,190.1923c-1.73401,-14.821 0.20457,-19.84898 5.3152,-17.49581c6.7337,3.10052 13.94461,12.54648 14.39529,27.46177c0.88587,29.31738 -2.7948,51.4641 -6.86546,51.15863c-4.06781,-0.30526 -11.07331,-45.98103 -12.84504,-61.12459z" fill="#808080"/><path d="M383.45772,191.96399c4.95364,0 8.96937,12.09674 8.96937,27.01883c0,14.92209 -4.01573,27.01883 -8.96937,27.01883c-4.95364,0 -8.96937,-12.09674 -8.96937,-27.01883c0,-14.92209 4.01573,-27.01883 8.96937,-27.01883z" fill="#808080"/><path d="M376.52982,174.19974c3.09131,-0.97296 7.64803,4.7539 10.17773,12.7913c2.5297,8.03741 2.07443,15.34175 -1.01688,16.31471c-3.09131,0.97296 -7.64803,-4.7539 -10.17773,-12.7913c-2.5297,-8.03741 -2.07443,-15.34175 1.01688,-16.31471z" fill="#404040"/><path d="M369.06241,201.70852c5.5652,0 10.07671,8.63786 10.07671,19.29319c0,10.65533 -4.5115,19.29319 -10.07671,19.29319c-5.5652,0 -10.07671,-8.63786 -10.07671,-19.29319c0,-10.65533 4.5115,-19.29319 10.07671,-19.29319z" fill="#808080"/><path d="M318.29761,153.95342c2.9993,-2.93555 28.92216,1.46867 39.69155,3.90479c16.52279,3.73757 39.53166,19.40254 39.53166,25.57931c0,6.17677 -3.54537,-8.30497 -39.3102,-19.1568c-16.21045,-4.9186 -37.53846,-2.79258 -39.75313,-5.42589c-1.18836,-1.41299 -1.98095,-3.11904 -0.15988,-4.9014z" fill="#000000"/><path d="M366.42638,176.00974c4.30602,-1.11979 10.15691,7.04837 13.06833,18.24404c2.91141,11.19567 1.78087,21.17933 -2.52516,22.2991c-4.30602,1.11979 -10.15692,-7.04837 -13.06833,-18.24404c-2.91141,-11.19567 -1.78086,-21.17933 2.52516,-22.2991z" fill="#404040"/><path d="M368.727,163.9555c1.9613,-1.52534 6.7585,1.36207 10.71484,6.4492c3.95635,5.08712 5.57364,10.44759 3.61235,11.97293c-1.9613,1.52534 -6.7585,-1.36207 -10.71484,-6.4492c-3.95635,-5.08712 -5.57364,-10.44759 -3.61235,-11.97293z" fill="#000000"/><path d="M363.12094,179.11539c-4.39837,-8.42427 -5.33099,-16.62815 -2.08308,-18.32389c3.24791,-1.69574 9.44642,3.75878 13.84477,12.18303c4.39838,8.42427 5.33103,16.62814 2.08312,18.32388c-3.2479,1.69574 -9.44644,-3.75878 -13.84479,-12.18303z" fill="#000000"/><path d="M353.86375,177.92995c5.09019,-0.91868 11.15291,9.06531 13.54145,22.29983c2.38853,13.23452 0.1984,24.70793 -4.89179,25.62661c-5.09019,0.91867 -11.15292,-9.0653 -13.54145,-22.29982c-2.38853,-13.23452 -0.1984,-24.70794 4.89179,-25.62661z" fill="#404040"/><path d="M349.20374,181.32796c-3.16422,-11.64511 -2.08973,-22.07426 2.39995,-23.2942c4.48968,-1.21994 10.69437,7.23131 13.85859,18.87642c3.16422,11.64511 2.08974,22.07426 -2.39994,23.29421c-4.48967,1.21994 -10.69437,-7.23132 -13.85859,-18.87643z" fill="#000000"/><path d="M323.55123,177.79023c-2.56396,-1.3585 -0.57825,-10.90319 -0.57825,-10.90319c0,0 -7.99719,1.85532 -8.40733,-0.74789c-0.58328,-3.70201 8.66397,-13.13304 22.82718,-10.27406c10.28025,2.07516 10.22749,1.72481 14.72749,14.61674c2.83303,8.11625 4.0663,30.11937 -3.21128,30.11937c-1.85462,0 -9.74916,-6.64006 -12.29944,-13.03216c-3.06638,-7.68566 -6.17388,-17.68977 -6.17388,-17.68977c0,0 -4.52277,9.16231 -6.8845,7.91096z" fill="#000000"/></g><g stroke="none" stroke-width="0" stroke-linecap="butt"><path d="M309.43093,208.617c1.59138,7.7894 -0.42155,14.77875 -4.49601,15.61116c-4.07446,0.83242 -8.66753,-4.80733 -10.25891,-12.59673c-1.59138,-7.7894 0.42155,-14.77875 4.49601,-15.61116c4.07446,-0.83242 8.66753,4.80733 10.25891,12.59673z" fill="#808080"/><path d="M296.7012,215.63598c0.83268,8.95131 -2.34268,16.56594 -7.09235,17.00777c-4.74967,0.44182 -9.27506,-6.45647 -10.10773,-15.40777c-0.83268,-8.95131 2.34268,-16.56594 7.09235,-17.00777c4.74967,-0.44182 9.27506,6.45647 10.10773,15.40777z" fill="#808080"/><path d="M327.29485,171.37901c1.97556,4.80385 1.54006,9.53585 -0.97272,10.56922c-2.51278,1.03338 -6.15131,-2.0232 -8.12689,-6.82704c-1.97556,-4.80385 -1.54006,-9.53585 0.97272,-10.56922c2.51278,-1.03338 6.15131,2.0232 8.12689,6.82704z" fill="#808080"/><path d="M316.83022,194.28428c2.81137,6.83623 2.19164,13.57023 -1.38425,15.04079c-3.57588,1.47056 -8.75377,-2.87917 -11.56516,-9.71539c-2.81137,-6.83623 -2.19164,-13.57023 1.38425,-15.04079c3.57588,-1.47056 8.75377,2.87917 11.56516,9.71539z" fill="#808080"/><path d="M321.17334,180.47732c2.54096,6.17869 1.98084,12.26498 -1.25111,13.59411c-3.23194,1.32913 -7.91181,-2.60223 -10.45277,-8.78093c-2.54096,-6.17869 -1.98084,-12.26498 1.25111,-13.59411c3.23194,-1.32913 7.91181,2.60223 10.45277,8.78093z" fill="#808080"/><path d="M310.66216,176.15588c0,0 1.54987,9.77332 -1.65994,21.11769c-3.01421,10.65303 -12.49462,23.14846 -14.73791,22.96361c-4.63217,-0.38167 -4.47659,-9.19473 -3.4772,-21.3237c0.99939,-12.12896 18.85261,-45.34888 23.48478,-44.96721c0.68721,0.05662 15.86485,6.99223 13.51854,13.30911c-0.9203,2.47767 -7.82058,2.46652 -7.82058,2.46652c0,0 -1.00878,11.82213 -2.41912,12.89281c-2.8746,2.18228 -6.88854,-6.45882 -6.88854,-6.45882z" fill="#404040"/><path d="M259.31058,190.1923c-1.77174,15.14356 -8.77722,60.81933 -12.84504,61.12459c-4.07066,0.30546 -7.75133,-21.84125 -6.86546,-51.15863c0.45069,-14.91529 7.66159,-24.36125 14.39529,-27.46177c5.11063,-2.35318 7.04921,2.67481 5.31519,17.49581z" fill="#808080"/><path d="M265.51163,218.98285c0,14.92209 -4.01573,27.01883 -8.96937,27.01883c-4.95364,0 -8.96937,-12.09674 -8.96937,-27.01883c0,-14.92209 4.01573,-27.01883 8.96937,-27.01883c4.95364,0 8.96937,12.09674 8.96937,27.01883z" fill="#808080"/><path d="M264.48704,190.51446c-2.52971,8.0374 -7.08643,13.76426 -10.17773,12.7913c-3.09131,-0.97296 -3.54657,-8.2773 -1.01687,-16.31471c2.52971,-8.0374 7.08643,-13.76426 10.17773,-12.7913c3.09131,0.97296 3.54657,8.2773 1.01687,16.31471z" fill="#404040"/><path d="M281.01428,221.00174c0,10.65533 -4.5115,19.29319 -10.07671,19.29319c-5.56521,0 -10.07671,-8.63786 -10.07671,-19.29319c0,-10.65533 4.5115,-19.29319 10.07671,-19.29319c5.56521,0 10.07671,8.63786 10.07671,19.29319z" fill="#808080"/><path d="M321.54249,158.85482c-2.21466,2.63331 -23.54268,0.50729 -39.75313,5.4259c-35.76483,10.85183 -39.3102,25.33357 -39.3102,19.1568c0,-6.17677 23.00887,-21.84174 39.53166,-25.57931c10.76939,-2.43612 36.69225,-6.84033 39.69155,-3.90478c1.82107,1.78235 1.02847,3.48841 -0.15988,4.90139z" fill="#000000"/><path d="M276.09876,198.30887c-2.91142,11.19567 -8.76231,19.36383 -13.06833,18.24404c-4.30603,-1.11978 -5.43658,-11.10343 -2.52516,-22.2991c2.91142,-11.19567 8.76231,-19.36383 13.06833,-18.24404c4.30603,1.11978 5.43658,11.10343 2.52516,22.2991z" fill="#404040"/><path d="M267.66063,175.92843c-3.95634,5.08713 -8.75354,7.97454 -10.71485,6.4492c-1.9613,-1.52534 -0.34401,-6.8858 3.61234,-11.97292c3.95634,-5.08713 8.75354,-7.97454 10.71485,-6.4492c1.9613,1.52534 0.34401,6.8858 -3.61234,11.97292z" fill="#000000"/><path d="M276.87903,179.11539c-4.39835,8.42426 -10.59689,13.87877 -13.84478,12.18303c-3.24791,-1.69574 -2.31527,-9.89962 2.08311,-18.32389c4.39835,-8.42426 10.59686,-13.87877 13.84477,-12.18303c3.24791,1.69574 2.31528,9.89962 -2.08309,18.32389z" fill="#000000"/><path d="M291.02802,203.55656c-2.38854,13.23452 -8.45126,23.21849 -13.54145,22.29983c-5.09019,-0.91868 -7.28032,-12.39209 -4.89179,-25.62661c2.38854,-13.23452 8.45126,-23.2185 13.54145,-22.29983c5.09019,0.91868 7.28032,12.39209 4.89179,25.62661z" fill="#404040"/><path d="M290.79623,181.32796c-3.16422,11.64511 -9.36892,20.09637 -13.85859,18.87643c-4.48968,-1.21994 -5.56416,-11.6491 -2.39994,-23.29421c3.16422,-11.64511 9.36891,-20.09637 13.85859,-18.87643c4.48968,1.21994 5.56417,11.6491 2.39995,23.29421z" fill="#000000"/><path d="M316.44875,177.79019c-2.36173,1.25135 -6.8845,-7.91096 -6.8845,-7.91096c0,0 -3.10749,10.00411 -6.17387,17.68977c-2.55028,6.3921 -10.44482,13.03216 -12.29943,13.03216c-7.27759,0 -6.04432,-22.00312 -3.21129,-30.11938c4.5,-12.89193 4.44724,-12.54157 14.72749,-14.61673c14.1632,-2.85898 23.41045,6.57205 22.82717,10.27406c-0.41015,2.6032 -8.40733,0.74789 -8.40733,0.74789c0,0 1.98571,9.5447 -0.57825,10.90319z" fill="#000000"/></g><path d="M280.21624,303.7078c0,0 -0.63536,-94.38387 -0.79335,-118.01201c-0.05451,-8.15261 8.18688,-36.76129 40.20201,-36.9211c31.60235,-0.15775 39.85672,29.48704 39.84884,36.89673c-0.07659,46.24274 0.65429,117.98648 0.65429,117.98648l-10.49667,0.09614l-0.15882,-114.84311c0,0 0.07549,-3.0993 -2.81625,-3.15415c-3.43441,-0.06514 -2.94538,3.11562 -2.94538,3.11562l0.20548,114.86995l-48.21366,0.07222l-0.30539,-115.23309c0,0 0.27949,-2.919 -2.8856,-2.93443c-3.11083,-0.01515 -2.81569,2.90899 -2.81569,2.90899l0.35311,115.0668z" fill="#ffffff" stroke="#000000" stroke-width="2" stroke-linecap="butt"/><g data-paper-data="{&quot;index&quot;:null}" stroke="none" stroke-width="0" stroke-linecap="butt"><path d="M355.04622,265.22897c-6.73696,0.04766 -10.16034,-0.76626 -10.5781,-1.57941c-1.72156,-3.35093 -1.61356,-103.41801 0,-107.5c1.25313,-3.17017 13.27697,11.17057 15.00002,17.16666c1.39893,4.8682 4.86309,80.89578 2.66665,89.5c-0.27929,1.09406 -2.3112,2.37896 -7.08857,2.41275z" fill="#808080"/><path d="M362.14664,262.76886c-0.00393,0.01599 -2.32305,2.42628 -7.10042,2.46007c-6.73696,0.04766 -10.16034,-0.76626 -10.5781,-1.57941c-1.72156,-3.35093 -1.61356,-103.41801 0,-107.5c0.44115,-1.11602 2.21713,-0.06189 4.40861,2.03434c-0.13686,1.40935 -1.21725,24.16675 -1.45011,47.77976c-0.2493,25.28088 0.88365,48.62737 3.52324,51.63612c4.15489,4.73598 10.06986,4.73744 11.19679,5.16913z" fill="#404040"/><path d="M363.06732,230.24082c-1.35811,0.69997 -20.01058,-13.3847 -20.53968,-15.33333c-0.54965,-2.02433 -0.79842,-21.17616 1.2381,-21.49207c2.15511,-0.3343 18.00438,9.02927 18.63491,11.71429c0.48172,2.05132 1.81703,24.51823 0.66668,25.11111z" fill="#404040"/><path d="M349.73974,195.88188c-0.02736,0.04137 -1.7162,0.43424 -1.92371,4.93481c-0.18894,4.0979 2.32001,7.8761 2.32001,7.8761c0,0 -3.46509,-0.04583 -3.90343,2.81314c-0.70192,4.57811 0.62501,7.64648 0.62501,7.64648c0,0 -4.20918,-3.80011 -4.32997,-4.24495c-0.54965,-2.02433 -0.79842,-21.17616 1.2381,-21.49206c0.74711,-0.11589 3.13997,0.9337 5.97399,2.46648z" fill="#000000"/><path d="M354.32144,224.92531c0.95441,-2.36096 2.9799,-1.99984 3.86426,-5.53958c1.05081,-4.20595 -2.94935,-8.67011 -2.94935,-8.67011c0,0 2.90683,-0.92588 3.77853,-3.97761c0.78595,-2.75152 -1.27104,-5.07164 -1.31499,-5.96084c2.55511,1.79094 4.48869,3.44946 4.70076,4.35252c0.48172,2.05132 1.81703,24.51824 0.66668,25.11112c-0.59411,0.3062 -4.49769,-2.21682 -8.74589,-5.31549z" fill="#000000"/></g><g stroke="none" stroke-width="0" stroke-linecap="butt"><path d="M276.86047,262.81623c-2.19644,-8.60422 1.26772,-84.6318 2.66665,-89.5c1.72305,-5.99609 13.74689,-20.33683 15.00002,-17.16666c1.61356,4.08199 1.72156,104.14907 0,107.5c-0.41776,0.81315 -3.84114,1.62707 -10.5781,1.57941c-4.77737,-0.03379 -6.80928,-1.31869 -7.08857,-2.41275z" fill="#808080"/><path d="M276.8486,262.76891c1.12693,-0.43169 7.0419,-0.43315 11.19679,-5.16913c2.63959,-3.00875 3.77254,-26.35524 3.52324,-51.63612c-0.23286,-23.61301 -1.31325,-46.37041 -1.45011,-47.77976c2.19148,-2.09623 3.96746,-3.15036 4.40861,-2.03434c1.61356,4.08199 1.72156,104.14907 0,107.5c-0.41776,0.81315 -3.84114,1.62707 -10.5781,1.57941c-4.77737,-0.03379 -7.09649,-2.44408 -7.10042,-2.46007z" fill="#404040"/><path d="M275.92792,230.24083c-1.15035,-0.59288 0.18496,-23.05979 0.66668,-25.11111c0.63053,-2.68502 16.4798,-12.04859 18.63491,-11.71429c2.03652,0.31591 1.78775,19.46774 1.2381,21.49207c-0.5291,1.94863 -19.18157,16.0333 -20.53968,15.33333z" fill="#404040"/><path d="M295.2295,193.41544c2.03652,0.3159 1.78775,19.46774 1.2381,21.49206c-0.12079,0.44484 -4.32997,4.24495 -4.32997,4.24495c0,0 1.32693,-3.06837 0.62501,-7.64648c-0.43834,-2.85898 -3.90343,-2.81314 -3.90343,-2.81314c0,0 2.50894,-3.77819 2.32,-7.87609c-0.2075,-4.50057 -1.89635,-4.89344 -1.9237,-4.93482c2.83403,-1.53279 5.22688,-2.58237 5.97399,-2.46648z" fill="#000000"/><path d="M275.92792,230.24084c-1.15035,-0.59288 0.18496,-23.0598 0.66668,-25.11112c0.21207,-0.90305 2.14565,-2.56157 4.70075,-4.35251c-0.04395,0.8892 -2.10094,3.20932 -1.31499,5.96084c0.8717,3.05173 3.77853,3.97761 3.77853,3.97761c0,0 -4.00016,4.46415 -2.94935,8.67011c0.88436,3.53974 2.90985,3.17863 3.86427,5.53959c-4.24821,3.09867 -8.15179,5.62168 -8.74589,5.31548z" fill="#000000"/></g><path d="M334.81353,199.65005c-0.57113,0 -1.03411,-0.46299 -1.03411,-1.03411c0,-0.57113 0.46299,-1.03413 1.03411,-1.03413c0.57113,0 1.03411,0.463 1.03411,1.03413c0,0.57113 -0.46299,1.03411 -1.03411,1.03411z" fill="#000000" stroke="none" stroke-width="1.5" stroke-linecap="butt"/><path d="M329.55355,203.88564c-4.4635,-0.31439 -6.55245,-1.79392 -6.16985,-2.58011c0.11788,-0.24224 2.84645,1.06355 6.97038,1.3048c6.40897,0.37493 8.51033,-0.63173 8.51033,-0.63173v1.34616c0,0 -2.4135,1.04672 -9.31086,0.56089z" fill="#000000" stroke="#000000" stroke-width="0" stroke-linecap="butt"/><path d="M301.74078,198.61594c0,-0.57113 0.46299,-1.03413 1.03411,-1.03413c0.57113,0 1.03413,0.463 1.03413,1.03413c0,0.57113 -0.463,1.03411 -1.03413,1.03411c-0.57113,0 -1.03411,-0.46299 -1.03411,-1.03411z" fill="#000000" stroke="none" stroke-width="1.5" stroke-linecap="butt"/><path d="M308.03484,203.88564c-6.89736,0.48585 -9.31086,-0.56089 -9.31086,-0.56089v-1.34616c0,0 2.10136,1.00666 8.51033,0.63173c4.12393,-0.24126 6.85251,-1.54704 6.97039,-1.3048c0.3826,0.78618 -1.70634,2.26571 -6.16985,2.58011z" fill="#000000" stroke="#000000" stroke-width="0" stroke-linecap="butt"/><path d="M319.31528,260.43731c-0.81895,0 -1.48284,-0.66389 -1.48284,-1.48284c0,-0.81895 0.66389,-1.48284 1.48284,-1.48284c0.81895,0 1.48284,0.66389 1.48284,1.48284c0,0.81895 -0.66389,1.48284 -1.48284,1.48284z" data-paper-data="{&quot;index&quot;:null}" fill="#000000" stroke="none" stroke-width="1.5" stroke-linecap="butt"/><path d="M293.32476,305.17736c0,0 0.8911,-23.79663 0.78266,-59.89183c-0.11468,-38.17064 -1.18942,-88.78863 0.3602,-90.06045c0.9996,-0.8204 21.22095,13.05797 21.22095,13.05797l3.0527,5.25182l-1.81583,5.69667l2.8485,8.21959l-0.9897,-8.2466l2.15236,-6.00183l-0.19162,-4.67663c0,0 23.34888,-13.70603 24.0401,-13.1098c1.3292,1.14652 0.01371,54.36652 0.03561,91.87683c0.02148,36.78445 1.39296,57.88426 1.39296,57.88426z" fill="#a7a7a7" stroke="none" stroke-width="0" stroke-linecap="butt"/><path d="M344.78511,155.41628c1.3292,1.14652 0.01371,54.36652 0.03561,91.87683c0.02148,36.78445 1.39296,57.88426 1.39296,57.88426h-4.63595c0.56292,-1.62695 -1.10017,-69.48188 -1.10017,-81.52781c0,-10.40935 -3.02971,-62.57694 -3.5327,-64.38588c4.17375,-2.3031 7.58248,-4.06975 7.84025,-3.8474z" fill="#808080" stroke="none" stroke-width="0" stroke-linecap="butt"/><path d="M346.94106,220.66617c7.57664,3.52833 15.66667,4.21441 15.66667,10.4c0,6.18559 0.02457,15.06668 -8.73334,15.20001c-5.34853,0.08143 -19.22572,-12.23036 -25.25944,-19.10566c-3.39381,-3.86718 -3.60521,-62.18444 0.1261,-62.69435c3.30881,-0.45218 11.0421,52.86668 18.20001,56.20001z" data-paper-data="{&quot;index&quot;:null}" fill-opacity="0.25098" fill="#000000" stroke="none" stroke-width="0" stroke-linecap="butt"/><path d="M293.32476,305.17736c0,0 0.8911,-23.79663 0.78266,-59.89183c-0.11468,-38.17064 -1.18942,-88.78863 0.3602,-90.06045c0.45696,-0.37504 4.93088,2.32166 9.65361,5.36004c-3.09694,14.2878 -6.09789,15.31811 -5.64373,63.0644c0.604,63.4988 5.20524,70.17128 7.86538,81.52784z" fill="#808080" stroke="none" stroke-width="0" stroke-linecap="butt"/><path d="M344.87436,263.95708c0,1.97902 -11.36699,3.58333 -25.38889,3.58333c-14.0219,0 -25.38889,-1.60431 -25.38889,-3.58333c0,-1.97902 11.36699,-3.58333 25.38889,-3.58333c14.0219,0 25.38889,1.60431 25.38889,3.58333z" fill-opacity="0.50196" fill="#000000" stroke="none" stroke-width="0" stroke-linecap="butt"/><path d="M309.30254,164.53285c3.73131,0.50991 2.7199,59.5605 -0.67391,63.42768c-6.03372,6.8753 -18.17695,18.039 -23.52611,18.039c-8.35791,0 -9.13334,-5.81442 -9.13334,-12.00001c0,-6.18559 8.35669,-9.805 15.93334,-13.33333c7.15791,-3.33333 14.09121,-56.58551 17.40001,-56.13333z" fill-opacity="0.25098" fill="#000000" stroke="none" stroke-width="0" stroke-linecap="butt"/><path d="M344.96563,252.26268c-0.71428,4.62235 -50.38352,4.77289 -51.07144,0.22222c-0.88889,-5.88015 10.82081,-4.38888 24.78573,-4.38888c13.96492,0 27.10571,-1.13984 26.28571,4.16667z" fill-opacity="0.50196" fill="#000000" stroke="none" stroke-width="NaN" stroke-linecap="butt"/><path d="M315.95872,173.24837c0,0.77729 -0.61353,1.40741 -1.37037,1.40741c-0.75683,0 -1.37037,-0.63012 -1.37037,-1.40741c0,-0.77729 0.61353,-1.40741 1.37037,-1.40741c0.75683,0 1.37037,0.63012 1.37037,1.40741z" fill="#404040" stroke="none" stroke-width="0" stroke-linecap="butt"/><path d="M324.51432,173.24837c0,0.77729 -0.61353,1.40741 -1.37037,1.40741c-0.75684,0 -1.37036,-0.63012 -1.37036,-1.40741c0,-0.77729 0.61353,-1.40741 1.37036,-1.40741c0.75684,0 1.37037,0.63012 1.37037,1.40741z" fill="#404040" stroke="none" stroke-width="0" stroke-linecap="butt"/><path d="M315.95872,179.02613c0,0.77729 -0.61353,1.40741 -1.37037,1.40741c-0.75683,0 -1.37037,-0.63012 -1.37037,-1.40741c0,-0.77729 0.61353,-1.40741 1.37037,-1.40741c0.75683,0 1.37037,0.63012 1.37037,1.40741z" fill="#404040" stroke="none" stroke-width="0" stroke-linecap="butt"/><path d="M324.4032,179.02613c0,0.77729 -0.61353,1.40741 -1.37037,1.40741c-0.75683,0 -1.37037,-0.63012 -1.37037,-1.40741c0,-0.77729 0.61353,-1.40741 1.37037,-1.40741c0.75683,0 1.37037,0.63012 1.37037,1.40741z" fill="#404040" stroke="none" stroke-width="0" stroke-linecap="butt"/><path d="M315.95872,185.24837c0,0.77729 -0.61353,1.40741 -1.37037,1.40741c-0.75683,0 -1.37037,-0.63012 -1.37037,-1.40741c0,-0.77729 0.61353,-1.40741 1.37037,-1.40741c0.75683,0 1.37037,0.63012 1.37037,1.40741z" fill="#404040" stroke="none" stroke-width="0" stroke-linecap="butt"/><path d="M324.95872,185.24836c0,0.77729 -0.61353,1.40741 -1.37037,1.40741c-0.75683,0 -1.37037,-0.63012 -1.37037,-1.40741c0,-0.77729 0.61353,-1.40741 1.37037,-1.40741c0.75683,0 1.37037,0.63012 1.37037,1.40741z" fill="#404040" stroke="none" stroke-width="0" stroke-linecap="butt"/><path d="M323.06985,179.10018c0,0 -1.88336,-0.58969 -4.41881,-2.28466c-3.40976,-2.27945 -4.09971,-3.93757 -4.09971,-3.93757" fill="none" stroke="#000000" stroke-width="0.5" stroke-linecap="round"/><path d="M323.51432,173.17427c0,0 -2.90135,2.76773 -4.40005,3.67678c-1.5135,0.91802 -4.63698,1.8047 -4.63698,1.8047" fill="none" stroke="#000000" stroke-width="0.5" stroke-linecap="round"/><path d="M323.58838,185.39647c0,0 -0.11093,1.33629 -0.00426,2.36312c0.09487,0.91325 0.48237,1.93328 0.48838,2.52761c0.01188,1.17566 -0.41004,2.4426 -0.41004,2.4426" fill="none" stroke="#000000" stroke-width="0.5" stroke-linecap="round"/><path d="M314.55132,188.95209v-3.55556" fill="none" stroke="#000000" stroke-width="0.5" stroke-linecap="round"/><path d="M293.6581,264.17173c-1.06647,-0.56762 -0.8822,-12.70453 0,-13.31852c1.05873,-0.73685 51.07844,-0.51426 51.65926,0.22223c0.71501,0.90664 0.4242,12.61461 0.07408,12.8c-0.54871,0.29054 -50.31136,1.05312 -51.73333,0.2963z" fill="#808080" stroke="none" stroke-width="0" stroke-linecap="butt"/><path d="M345.31736,251.07545c0.71501,0.90664 0.4242,12.61461 0.07408,12.8c-0.11438,0.06057 -2.36736,0.14164 -5.87522,0.22519c0.16933,-0.68383 4.97397,-0.75673 4.88343,-2.76399c-0.03418,-0.7578 -3.47496,-0.54221 -6.76518,-1.02329c-3.22943,-0.47219 -6.42087,-1.64809 -6.42087,-1.64809c0,0 3.527,-0.10748 6.81808,-0.88264c3.28119,-0.77283 6.43766,-2.21068 6.40296,-3.98381c-0.04461,-2.27978 -4.32733,-2.238 -4.49999,-3.09654c3.22005,0.102 5.26786,0.22753 5.38271,0.37316z" fill-opacity="0.75294" fill="#404040" stroke="none" stroke-width="0" stroke-linecap="butt"/><path d="M293.6581,264.17173c-1.06647,-0.56762 -0.8822,-12.70453 0,-13.31852c0.25971,-0.18075 3.46557,-0.30377 8.16513,-0.37563c-0.35012,1.12264 -7.15805,0.42508 -6.96192,3.69942c0.05496,0.91752 3.03879,2.41823 6.24053,3.26824c3.4637,0.91956 7.38573,1.15329 7.38573,1.15329c0,0 -3.62999,1.21374 -7.21635,1.87884c-3.14696,0.58362 -6.53366,0.5659 -6.4889,1.36268c0.10447,1.85934 6.95906,1.9484 7.15092,2.64336c-4.69522,-0.03256 -7.92774,-0.12677 -8.27513,-0.31167z" fill-opacity="0.74902" fill="#404040" stroke="none" stroke-width="0" stroke-linecap="butt"/><g data-paper-data="{&quot;index&quot;:null}" stroke="none" stroke-width="0" stroke-linecap="butt"><path d="M359.58251,241.844c-0.23581,0.32113 -1.45173,1.27957 -2.81322,1.81446c-1.63741,0.64329 -3.53812,1.03448 -3.53812,1.03448l2.58213,-3.44671l-2.44577,-1.42219l0.55025,-1.60354l2.12904,-1.63048l-2.37233,0.03572l-2.46102,2.55952l-0.60277,-3.63756l0.72183,-3.67195l-2.18088,3.00311l0.36299,2.93419l-1.32444,3.67846c0,0 -4.11752,-2.62187 -6.03225,-4.30702c-1.97873,-1.74148 -5.65445,-5.97841 -5.65445,-5.97841l-0.0498,-1.70252l3.11692,0.10234l1.06387,-4.53193l-1.96863,-1.89665l0.59581,2.36669l-0.54819,2.63331l-2.62061,-0.45379c0,0 -2.38728,1.09896 -2.36864,1.22017c-0.84087,-0.58363 -1.59036,-0.74092 -2.22181,-1.21505c-1.02861,-0.77235 -1.74401,-1.75555 -2.031,-2.10688c-0.19494,-0.23865 -1.42901,-16.15512 -1.51167,-33.41479c-0.09207,-19.22489 0.99225,-40.00164 1.28944,-40.25186c2.70849,-2.28047 22.10464,-4.11169 31,19.11111c5.04089,13.16006 1.45974,67.88201 -0.66667,70.77777z" fill="#808080"/><path d="M329.2492,151.95511c0.65456,-0.55113 2.28378,-1.07602 4.50388,-1.22737c-1.61049,6.21699 -3.19386,16.41614 -2.71164,41.953c0.55658,29.47549 6.17816,33.22987 7.72263,35.25358l-0.05059,0.243l-2.62061,-0.45379c0,0 -2.38728,1.09896 -2.36864,1.22017c-0.84087,-0.58363 -1.59036,-0.74092 -2.22181,-1.21505c-1.02861,-0.77235 -1.74401,-1.75555 -2.031,-2.10688c-0.19495,-0.23864 -1.42903,-16.15512 -1.51168,-33.41479c-0.09206,-19.22489 0.99226,-40.00164 1.28945,-40.25186z" fill="#404040"/><path d="M339.68837,229.10437c1.42714,1.74705 0.25604,1.65788 3.83978,4.91793c3.74779,3.40929 4.13931,2.95475 5.84613,4.18062l-1.18407,3.2886c0,0 -4.11752,-2.62187 -6.03225,-4.30702c-1.97873,-1.74148 -5.65445,-5.97841 -5.65445,-5.97841l-0.0498,-1.70252l3.11692,0.10234z" fill="#404040"/><path d="M355.39589,241.80343c0.78224,0.37057 1.55921,0.6985 2.32588,0.97908c0.14563,0.05329 0.29836,0.10717 0.45767,0.16143c-0.42184,0.26034 -0.90601,0.51646 -1.41014,0.71452c-1.63741,0.64329 -3.53812,1.03448 -3.53812,1.03448z" fill="#404040"/><path d="M356.76929,243.65846c-1.63741,0.64329 -3.53812,1.03448 -3.53812,1.03448l2.58213,-3.44671l-2.44577,-1.42219l0.55025,-1.60354l2.12904,-1.63048l-2.37233,0.03572l-2.46102,2.55952l-0.08892,-0.53658c2.24574,-3.34275 4.69445,-7.33541 5.13624,-11.29457c2.60239,-23.32193 1.09087,-41.71666 -7.20696,-61.7494c-2.55363,-6.165 -7.28632,-10.1204 -12.27592,-14.84898c7.20101,0.58933 17.6132,5.01704 23.47127,20.3105c5.04089,13.16006 1.45974,67.88201 -0.66667,70.77777c-0.23581,0.32113 -1.45173,1.27957 -2.81322,1.81446z" fill-opacity="0.50196" fill="#000000"/><path d="M359.5825,241.844c-0.2129,0.28994 -1.22473,1.09936 -2.4213,1.64755c1.85812,-5.50317 3.52488,-49.78365 1.5897,-63.68528c-0.71853,-5.16172 -7.08875,-20.19231 -9.77129,-24.43669c4.24894,3.09053 8.33189,8.02734 11.26958,15.69666c5.04089,13.16006 1.45974,67.88201 -0.66667,70.77777z" fill-opacity="0.74902" fill="#000000"/><path d="M359.58252,241.844c-0.23581,0.32113 -1.45173,1.27957 -2.81322,1.81446c-1.63741,0.64329 -3.53812,1.03448 -3.53812,1.03448l2.58213,-3.44671l-2.44577,-1.42219l0.55025,-1.60354l2.12904,-1.63048l-2.37233,0.03572l-2.46102,2.55952l-0.60277,-3.63756l0.72183,-3.67195l-2.18088,3.00311l0.36299,2.93419l-1.32444,3.67846c0,0 -4.11752,-2.62187 -6.03225,-4.30702c-0.1607,-0.14143 -0.33259,-0.29932 -0.51279,-0.47006c1.38195,-2.61883 2.19535,-4.7241 3.61862,-8.6417c1.42327,-3.9176 4.27097,-30.48157 -1.62404,-56.36689c-2.01849,-8.86332 -7.86823,-16.89211 -10.97967,-20.86835c6.63711,-0.89297 20.47312,1.65122 27.58913,20.22875c5.04089,13.16006 1.45974,67.88201 -0.66667,70.77777z" fill-opacity="0.24706" fill="#000000"/></g><g stroke="none" stroke-width="0" stroke-linecap="butt"><path d="M278.18588,241.844c-2.12641,-2.89576 -5.70756,-57.61771 -0.66667,-70.77777c8.89536,-23.2228 28.29151,-21.39158 31,-19.11111c0.29719,0.25022 1.38151,21.02697 1.28944,40.25186c-0.08266,17.25967 -1.31673,33.17614 -1.51167,33.41479c-0.28699,0.35133 -1.00239,1.33453 -2.031,2.10688c-0.63145,0.47413 -1.38094,0.63142 -2.22181,1.21505c0.01864,-0.12121 -2.36864,-1.22017 -2.36864,-1.22017l-2.62061,0.45379l-0.54819,-2.63331l0.59581,-2.36669l-1.96863,1.89665l1.06387,4.53193l3.11692,-0.10234l-0.0498,1.70252c0,0 -3.67572,4.23693 -5.65445,5.97841c-1.91473,1.68515 -6.03225,4.30702 -6.03225,4.30702l-1.32444,-3.67846l0.36299,-2.93419l-2.18088,-3.00311l0.72183,3.67195l-0.60277,3.63756l-2.46102,-2.55952l-2.37233,-0.03572l2.12904,1.63048l0.55025,1.60354l-2.44577,1.42219l2.58213,3.44671c0,0 -1.90071,-0.39119 -3.53812,-1.03448c-1.36149,-0.53489 -2.57741,-1.49333 -2.81322,-1.81446z" fill="#808080"/><path d="M308.51921,151.95512c0.29719,0.25022 1.38151,21.02697 1.28945,40.25186c-0.08265,17.25967 -1.31673,33.17615 -1.51168,33.41479c-0.28699,0.35133 -1.00239,1.33453 -2.031,2.10688c-0.63145,0.47413 -1.38094,0.63142 -2.22181,1.21505c0.01864,-0.12121 -2.36864,-1.22017 -2.36864,-1.22017l-2.62061,0.45379l-0.05059,-0.243c1.54447,-2.02371 7.16605,-5.77809 7.72263,-35.25358c0.48222,-25.53686 -1.10115,-35.73601 -2.71164,-41.953c2.2201,0.15135 3.84932,0.67624 4.50388,1.22737z" fill="#404040"/><path d="M298.19777,229.6059l3.11692,-0.10234l-0.0498,1.70252c0,0 -3.67572,4.23693 -5.65445,5.97841c-1.91473,1.68515 -6.03225,4.30702 -6.03225,4.30702l-1.18407,-3.2886c1.70682,-1.22587 2.09834,-0.77133 5.84613,-4.18062c3.58374,-3.26005 2.41264,-3.17088 3.83978,-4.91793z" fill="#404040"/><path d="M284.53722,244.69294c0,0 -1.90071,-0.39119 -3.53812,-1.03448c-0.50413,-0.19806 -0.9883,-0.45418 -1.41014,-0.71452c0.15931,-0.05426 0.31204,-0.10814 0.45767,-0.16143c0.76667,-0.28058 1.54364,-0.60851 2.32588,-0.97908z" fill="#404040"/><path d="M278.18589,241.844c-2.12641,-2.89576 -5.70756,-57.61771 -0.66667,-70.77777c5.85807,-15.29346 16.27026,-19.72117 23.47127,-20.3105c-4.9896,4.72858 -9.72229,8.68398 -12.27592,14.84898c-8.29783,20.03274 -9.80935,38.42747 -7.20696,61.7494c0.44179,3.95916 2.8905,7.95182 5.13624,11.29457l-0.08892,0.53658l-2.46102,-2.55952l-2.37233,-0.03572l2.12904,1.63048l0.55025,1.60354l-2.44577,1.42219l2.58213,3.44671c0,0 -1.90071,-0.39119 -3.53812,-1.03448c-1.36149,-0.53489 -2.57741,-1.49333 -2.81322,-1.81446z" fill-opacity="0.50196" fill="#000000"/><path d="M278.18588,241.844c-2.12641,-2.89576 -5.70756,-57.61771 -0.66667,-70.77777c2.93769,-7.66932 7.02064,-12.60613 11.26958,-15.69666c-2.68254,4.24438 -9.05276,19.27497 -9.77129,24.43669c-1.93518,13.90163 -0.26842,58.18211 1.5897,63.68528c-1.19657,-0.54819 -2.2084,-1.35761 -2.4213,-1.64755z" fill-opacity="0.74902" fill="#000000"/><path d="M278.18587,241.844c-2.12641,-2.89576 -5.70756,-57.61771 -0.66667,-70.77777c7.11602,-18.57753 20.95202,-21.12171 27.58913,-20.22875c-3.11144,3.97624 -8.96118,12.00503 -10.97967,20.86835c-5.89501,25.88532 -3.0473,52.4493 -1.62404,56.36689c1.42327,3.9176 2.23667,6.02287 3.61862,8.6417c-0.18021,0.17074 -0.35209,0.32863 -0.51279,0.47006c-1.91473,1.68515 -6.03225,4.30702 -6.03225,4.30702l-1.32444,-3.67846l0.36299,-2.93419l-2.18088,-3.00311l0.72183,3.67195l-0.60277,3.63756l-2.46102,-2.55952l-2.37233,-0.03572l2.12904,1.63048l0.55025,1.60354l-2.44577,1.42219l2.58213,3.44671c0,0 -1.90071,-0.39119 -3.53812,-1.03448c-1.36149,-0.53489 -2.57741,-1.49333 -2.81322,-1.81446z" fill-opacity="0.24706" fill="#000000"/></g><path d="" fill="#404040" stroke="none" stroke-width="0" stroke-linecap="butt"/><path d="" fill="#404040" stroke="none" stroke-width="0" stroke-linecap="butt"/><path d="" fill="#404040" stroke="none" stroke-width="0" stroke-linecap="butt"/><path d="" fill="#f3f3f3" stroke="none" stroke-width="0" stroke-linecap="butt"/><path d="" fill="#f3f3f3" stroke="none" stroke-width="0" stroke-linecap="butt"/><path d="" fill="#404040" stroke="none" stroke-width="0" stroke-linecap="butt"/><path d="" fill-opacity="0.75294" fill="#808080" stroke="none" stroke-width="0" stroke-linecap="butt"/><path d="" fill="#808080" stroke="none" stroke-width="0" stroke-linecap="butt"/><path d="" fill="#808080" stroke="none" stroke-width="0" stroke-linecap="butt"/><path d="" fill="#808080" stroke="none" stroke-width="0" stroke-linecap="butt"/><path d="" fill-opacity="0.24706" fill="#000000" stroke="none" stroke-width="0" stroke-linecap="butt"/><path d="" fill-opacity="0.50196" fill="#000000" stroke="none" stroke-width="0" stroke-linecap="butt"/><path d="" fill-opacity="0.74902" fill="#000000" stroke="none" stroke-width="0" stroke-linecap="butt"/><path d="" fill-opacity="0.74902" fill="#000000" stroke="none" stroke-width="0" stroke-linecap="butt"/><path d="" fill-opacity="0.50196" fill="#000000" stroke="none" stroke-width="0" stroke-linecap="butt"/><path d="" fill-opacity="0.50196" fill="#000000" stroke="none" stroke-width="0" stroke-linecap="butt"/><path d="" fill-opacity="0.24706" fill="#000000" stroke="none" stroke-width="0" stroke-linecap="butt"/><g><path d="M281.40437,96.40876c0.0901,-1.46958 -0.16776,-40.17317 35.96775,-41.57382c34.07667,-0.69749 40.17803,28.40941 41.15771,42.22014c0.00391,0.05512 0.17588,0.48316 0.51807,0.67065c0.46933,0.25716 1.14873,0.2821 1.14873,0.2821c0,0 -0.18289,1.10942 -0.56858,1.68752c-0.38569,0.5781 -1.10786,0.82523 -1.10786,0.82523c0,0 1.74944,17.9731 -0.03075,28.31998c-1.5623,9.48098 -7.29782,17.22543 -7.29782,17.22543l-1.15522,-2.34735c0,0 -1.02266,2.19794 -2.16005,3.33274c-1.1374,1.13479 -3.43873,2.91273 -3.43873,2.91273l-0.09205,-3.70421c0,0 -7.0601,11.01795 -24.35066,10.87154c-16.30625,-0.25547 -26.07151,-10.6752 -26.07151,-10.6752l-0.1162,2.65484c0,0 -3.89477,-3.29276 -6.18145,-9.70754c-1.45193,-4.0731 -3.92129,-5.81968 -3.92129,-5.81968c0,0 0.91796,-0.67991 0.91411,-2.14267c-0.00378,-1.43763 -0.0528,-3.14847 -0.23228,-4.28089c-0.77495,-4.88934 -2.72848,-25.69508 -2.77575,-25.70839c-2.13402,-0.60097 -2.07153,-1.76389 -2.07153,-1.76389c0,0 1.66607,-0.02882 1.86537,-3.27926z" fill="#000000" stroke="none" stroke-width="1.5" stroke-linecap="butt"/><path d="M291.89865,114.51799c-0.42364,-5.35394 -0.04476,-12.09177 0.18668,-15.29645c0.0139,0.00006 0.0278,0.00009 0.04171,0.00009c2.15035,0 4.14217,-0.67872 5.77292,-1.83363c1.27149,0.58559 2.68687,0.9122 4.17854,0.9122c1.1284,0 3.80851,-1.84931 5.72446,-3.28938c1.22161,-0.91819 3.4461,-1.30239 5.07058,-0.88152c2.17481,0.56344 4.90694,1.22232 5.79073,1.22232c2.51028,0 4.80452,-0.92495 6.5605,-2.45263c1.59822,1.08291 3.52644,1.71549 5.60239,1.71549c2.01605,0 3.89276,-0.59659 5.46321,-1.62287c1.08796,-0.71097 3.60889,-1.33745 4.23861,-0.76882c1.77309,1.6011 4.30681,2.57597 6.88395,2.57597c0.35666,0 0.70896,-0.01867 1.05597,-0.05509c-0.00558,6.90616 -0.6529,15.25799 -0.83074,18.43012c-0.42163,5.66922 -2.53327,9.49969 -3.15031,12.52053c-0.61704,3.02084 -0.4096,6.13662 -2.20622,16.0397c-1.12121,6.18021 -4.16183,8.92466 -10.01942,14.66081c-5.85759,5.73616 -9.05378,9.25275 -13.01359,9.32173c-3.81077,0.06639 -8.93565,-5.1002 -13.93542,-10.38244c-5.32393,-5.62474 -8.87489,-8.47713 -9.71551,-15.13975c-0.75707,-6.00039 -0.77653,-9.90853 -1.12266,-15.24835c-0.25298,-3.90273 -2.26119,-6.44504 -2.57636,-10.42801z" fill="#ffffff" stroke="#000000" stroke-width="1.5" stroke-linecap="butt"/><path d="M339.96873,99.39762c0,0 1.52429,0.31807 4.2558,1.11029c2.49492,0.72361 4.44935,1.74403 4.44935,1.74403l0.1951,1.17035c0,0 -7.24963,-3.12997 -15.1158,-2.4706c-6.2896,0.52724 -9.96319,2.8124 -9.96319,2.8124l0.04575,-4.17683c0,0 3.12748,-1.70421 7.86366,-1.85557c4.90428,-0.15672 8.09084,0.59125 8.09084,0.59125z" data-paper-data="{&quot;index&quot;:null}" fill="#000000" stroke="none" stroke-width="1.5" stroke-linecap="butt"/><path d="M327.20451,142.38513c0.5704,0.21186 3.08357,1.39942 6.02385,2.59586c2.9637,1.20597 7.21362,2.29294 7.19412,2.4605c-0.02476,0.21265 -10.43477,0.22694 -13.67937,0.63224c-2.71902,0.33964 -6.68867,0.70564 -6.68867,0.70564c0,0 -7.10401,-1.16169 -13.27235,-2.44521c-4.94371,-1.02869 -10.39929,-1.66108 -10.40995,-1.75461c-0.01439,-0.12613 3.86835,-0.71071 6.82417,-1.39467c1.14585,-0.49661 5.43971,-1.48513 5.43971,-1.48513c0,0 4.95585,-0.27766 7.60826,0.579c2.84203,0.91791 2.83546,2.44556 3.0831,2.46906c0,0 1.18436,-1.74932 2.36886,-2.10461c1.18451,-0.35528 5.08219,-0.41633 5.50828,-0.25808z" fill="#ffffff" stroke="#000000" stroke-width="1.4" stroke-linecap="butt"/><path d="M308.55652,146.93868c5.09114,1.02674 11.91756,2.80736 11.91756,2.80736c0,0 5.78976,-1.55585 8.44678,-1.8344c2.05992,-0.21596 11.216,-0.70654 11.26026,-0.33377c0.04328,0.36447 -9.03119,12.90033 -21.14808,12.44714c-13.76954,-0.43578 -22.86459,-15.13559 -22.82675,-15.30472c0.03784,-0.16913 7.2591,1.19165 12.35024,2.2184z" fill="#ffffff" stroke="#000000" stroke-width="1.9" stroke-linecap="butt"/><path d="M319.53081,143.94503c-1.03376,0 -3.5381,-3.26042 -3.7867,-5.3637c-0.22243,-1.88186 1.31512,-3.82799 3.7867,-3.82799c2.47159,0 4.2021,0.49077 4.02999,4.18853c-0.14607,3.13818 -1.55841,5.00317 -4.02999,5.00317z" fill="#ffffff" stroke="#000000" stroke-width="1.15" stroke-linecap="butt"/><path d="M323.13289,113.85136c0,0 0.1026,3.96976 0.00576,7.12662c-0.19174,6.25113 -1.08147,27.7607 -1.08147,27.7607l-2.98167,0.00864c0,0 -0.80294,-4.17274 -1.12322,-9.49979c-0.43353,-7.21063 -0.4495,-16.29321 -0.76344,-19.63229c-0.29758,-3.16513 -0.89593,-5.71453 -0.89593,-5.71453" fill="#ffffff" stroke="#000000" stroke-width="1.3" stroke-linecap="round"/><path d="M293.59831,124.64119c0,0 -4.93211,-3.51705 -6.16417,-8.97502c-1.29636,-5.74284 -1.46118,-9.7328 0.48013,-9.99193c1.94131,-0.25915 2.70321,2.37692 3.73262,8.35569c1.0294,5.97877 1.95143,10.61127 1.95143,10.61127z" data-paper-data="{&quot;index&quot;:null}" fill="#ffffff" stroke="#000000" stroke-width="1" stroke-linecap="butt"/><path d="M293.39568,120.69364c0,0 -3.56385,-2.92338 -4.31816,-8.45061c-0.42079,-3.08327 2.15675,-2.28016 2.15675,-2.28016" fill="none" stroke="#000000" stroke-width="0.25" stroke-linecap="round"/><path d="M296.40912,114.03774c0.07093,-4.89188 4.83834,-8.93609 10.21137,-8.8582c5.37302,0.0779 9.02724,4.2484 8.95632,9.14029c-0.07093,4.89188 -4.12352,8.79439 -9.49655,8.7165c-5.37302,-0.0779 -9.74207,-4.1067 -9.67114,-8.99859z" fill="#ffffff" stroke="#000000" stroke-width="1.4" stroke-linecap="butt"/><path d="M300.8468,114.15568c0.03999,-2.75843 2.30855,-4.96213 5.06696,-4.92214c2.75843,0.03999 4.96213,2.30855 4.92214,5.06696c-0.03999,2.75843 -2.30854,4.96213 -5.06696,4.92214c-2.75843,-0.03999 -4.96213,-2.30855 -4.92214,-5.06696z" fill="#a7a7a7" stroke="none" stroke-width="1.5" stroke-linecap="butt"/><path d="M323.46536,114.03847c0.20353,-4.88817 4.45264,-8.85847 9.77048,-8.85847c5.31783,0 9.27453,3.96607 9.27453,8.85847c0,4.8924 -3.88585,9.07104 -9.69964,9.14188c-5.52997,0.06739 -9.55792,-4.03692 -9.34537,-9.14188z" fill="#ffffff" stroke="#000000" stroke-width="1.4" stroke-linecap="butt"/><path d="M328.06814,114.12402c0,-2.81845 2.2848,-5.10325 5.10325,-5.10325c2.81845,0 5.10325,2.2848 5.10325,5.10325c0,2.81845 -2.28479,5.10325 -5.10325,5.10325c-2.81845,0 -5.10325,-2.2848 -5.10325,-5.10325z" fill="#a7a7a7" stroke="none" stroke-width="1.5" stroke-linecap="butt"/><path d="M296.3407,113.50556c0,0 0.06357,-9.01512 10.60111,-8.8249c9.47101,0.16586 9.55554,9.40723 9.55554,9.40723z" fill="#ffffff" stroke="#000000" stroke-width="1.15" stroke-linecap="butt"/><path d="M323.08775,113.63646c0,0 -0.24686,-9.4582 11.19813,-9.1032c9.71427,0.33347 9.54677,9.65229 9.54677,9.65229z" fill="#ffffff" stroke="#000000" stroke-width="1.15" stroke-linecap="butt"/><path d="M299.87053,103.49391c0,0 3.36963,-1.819 8.03244,-2.28178c5.16698,-0.51283 7.76823,-0.06628 7.76823,-0.06628l0.29508,4.13747c0,0 -3.83554,-0.68065 -8.01795,-0.52113c-5.59346,0.21333 -6.64488,1.43293 -10.89774,1.89119c-3.64408,0.39266 -6.73723,0.15884 -6.73723,0.15884l-0.02589,-1.23155c0,0 3.59517,0.07398 5.23371,-0.06836c1.35239,-0.11749 3.9757,-0.93808 3.9757,-0.93808z" fill="#000000" stroke="none" stroke-width="1.5" stroke-linecap="butt"/><path d="M347.83153,114.02994c1.0294,-5.97877 1.7913,-8.61483 3.73262,-8.35569c1.94131,0.25914 1.77649,4.24909 0.48013,9.99193c-1.23206,5.45797 -6.16417,8.97502 -6.16417,8.97502c0,0 0.92203,-4.6325 1.95143,-10.61127z" data-paper-data="{&quot;index&quot;:null}" fill="#ffffff" stroke="#000000" stroke-width="1" stroke-linecap="butt"/><path d="M348.24412,109.96289c0,0 2.57754,-0.80312 2.15675,2.28016c-0.75431,5.52723 -4.31816,8.45061 -4.31816,8.45061" data-paper-data="{&quot;index&quot;:null}" fill="none" stroke="#000000" stroke-width="0.25" stroke-linecap="round"/><path d="M290.08811,102.09939v-18.53333h60.53334v18.53333z" fill-opacity="0.50196" fill="#000000" stroke="none" stroke-width="0" stroke-linecap="butt"/><path d="M291.28812,133.56601v-11.2h57.33335v11.2c0,0 -6.15864,1.83839 -29.60001,2.26668c-16.06886,0.29359 -27.73334,-2.26668 -27.73334,-2.26668z" fill-opacity="0.50196" fill="#000000" stroke="none" stroke-width="0" stroke-linecap="butt"/><g stroke="none" stroke-width="0" stroke-linecap="butt"><g><g><path d="M366.08761,115.62237c2.53226,5.49315 0.57036,17.05556 0.57036,17.05556c0,0 -10.06607,-6.01772 -12.59833,-11.51087c-2.53226,-5.49315 -1.8925,-11.18744 1.42894,-12.71857c3.32143,-1.53112 8.06678,1.68072 10.59903,7.17385z" fill="#808080"/><path d="M364.69924,115.22439c2.14373,4.65034 0.48285,14.43877 0.48285,14.43877c0,0 -8.52166,-5.09444 -10.66539,-9.74478c-2.14373,-4.65034 -1.60214,-9.47097 1.2097,-10.76719c2.81183,-1.29621 6.82911,1.42285 8.97285,6.07319z" fill="#404040"/></g><g fill-opacity="0.50196" fill="#000000"><path d="M354.05964,121.16709c-2.53226,-5.49315 -1.8925,-11.18744 1.42894,-12.71857c3.19909,-1.47474 7.71915,1.45055 10.3104,6.57629c-0.41675,0.17202 -0.56478,1.19045 -0.98298,1.70958c-0.49877,0.61915 -1.26599,0.80412 -1.73684,1.79603c-0.46081,0.97076 -0.77947,2.48128 -1.32924,3.20837c-0.69219,0.91544 -1.42008,1.43358 -1.83563,2.41337c-0.64739,1.52642 -0.00904,1.67094 -0.84929,2.5369c-0.63867,0.6582 -4.68705,-4.8315 -5.00535,-5.52197z"/><path d=""/></g></g><g><g><path d="M366.62857,107.96373c4.13809,4.41171 5.9298,16.00172 5.9298,16.00172c0,0 -11.45174,-2.52913 -15.58983,-6.94084c-4.13809,-4.41171 -5.3302,-10.01645 -2.66265,-12.51855c2.66754,-2.50209 8.18459,-0.95405 12.32267,3.45765z" fill="#808080"/><path d="M365.18558,108.02477c3.50318,3.73483 5.02,13.54662 5.02,13.54662c0,0 -9.69473,-2.14109 -13.19791,-5.87592c-3.50318,-3.73483 -4.5124,-8.47965 -2.25413,-10.59786c2.25827,-2.1182 6.92885,-0.80767 10.43204,2.92716z" fill="#404040"/></g><g fill-opacity="0.50196" fill="#000000"><path d="M356.96855,117.02462c-4.13809,-4.41171 -5.3302,-10.01645 -2.66265,-12.51855c1.86624,-1.7505 5.12719,-1.51862 8.3349,0.28933c-0.80925,1.4439 -1.27064,3.10907 -1.27064,4.88201c0,2.04741 0.6153,3.95111 1.67107,5.53627c-0.7145,1.37693 -1.11821,2.94106 -1.11821,4.59948c0,0.22593 0.00749,0.45011 0.02224,0.67231c-1.81417,-0.88834 -4.61139,-3.07136 -4.97673,-3.46085z"/><path d=""/></g></g><path d="M283.83579,127.46623c-1.8388,-1.81285 -3.88011,-24.81559 -1.73334,-26c2.50344,-1.38119 76.27691,-1.84105 76.93335,-0.4c0.65643,1.44105 1.34793,24.06546 0.13335,25.06667c-1.21458,1.00121 -73.65025,2.99269 -75.33336,1.33333z" fill="#808080"/><path d="M359.03583,101.06623c0.65643,1.44105 1.34793,24.06546 0.13335,25.06667c-0.38747,0.31941 -8.02329,0.73959 -18.29796,1.10988c0.73232,-1.71737 16.9224,0.03995 16.58626,-6.31501c-0.124,-2.34436 -7.56903,-2.83056 -13.88011,-3.99105c-5.13175,-0.94364 -9.09897,-2.49914 -9.09897,-2.49914c0,0 3.92854,0.12552 8.95522,-1.36687c6.40188,-1.90068 13.94382,-6.05969 13.8467,-9.08362c-0.11181,-3.48103 -13.37228,-2.2 -13.72726,-3.71865c8.95963,0.12214 15.29251,0.38013 15.48278,0.79781z" fill="#404040"/><path d="M283.83579,127.46623c-1.8388,-1.81285 -3.88011,-24.81559 -1.73334,-26c0.72189,-0.39828 7.36996,-0.71995 16.48217,-0.94152c-0.06502,0.09958 -15.20418,-0.04907 -15.27435,6.09303c-0.03048,2.66808 6.65233,6.10019 12.87525,7.30698c5.55861,1.07796 10.35006,0.35809 10.35006,0.35809c0,0 -4.82251,2.14381 -10.35278,3.36215c-5.89768,1.29929 -12.14087,1.48263 -11.97195,4.56431c0.3567,6.50708 11.70662,3.62005 12.5582,5.89179c-7.38295,-0.02261 -12.5002,-0.20786 -12.93327,-0.63483z" fill-opacity="0.75294" fill="#404040"/><path d="M284.82476,131.37176c-0.94398,-0.68309 -4.22935,-15.20261 -3.25,-15.66666c2.08544,-0.98815 77.97149,-1.05806 78.61113,-0.00001c0.74063,1.22509 -0.5525,14.30836 -1.66667,15.16667c-1.10244,0.84925 -72.73855,1.19171 -73.69446,0.5z" fill="#a7a7a7"/><path d="M360.18591,115.70506c0.74063,1.22509 -0.5525,14.30836 -1.66667,15.16667c-0.33673,0.2594 -7.25378,0.47151 -16.72719,0.62131c0.29332,-0.78505 15.8456,-0.35587 15.92978,-3.26734c0.0495,-1.71201 -7.70101,-1.93725 -14.3126,-2.56572c-6.47861,-0.61583 -11.82049,-1.65202 -11.82049,-1.65202c0,0 5.79093,-0.07664 12.04834,-0.79691c7.35378,-0.84646 15.35183,-2.51832 15.35202,-5.06147c0.00021,-2.916 -15.05118,-2.09495 -15.17161,-3.0916c9.45042,0.12122 16.17984,0.33513 16.36842,0.64707z" fill-opacity="0.75294" fill="#808080"/><path d="M284.82476,131.37176c-0.94398,-0.68309 -4.22935,-15.20261 -3.25,-15.66666c0.62768,-0.29742 7.9409,-0.51164 17.87581,-0.63697c-0.43435,1.10234 -16.21013,0.05273 -16.02152,2.97974c0.09064,1.4066 7.57769,3.32219 14.32578,4.55078c5.67938,1.03401 11.06103,1.50847 11.06103,1.50847c0,0 -5.39154,1.3394 -10.89605,2.20163c-5.85122,0.91653 -12.66342,1.56884 -12.42973,3.11017c0.35786,2.4774 12.21396,1.39108 12.38366,2.29487c-7.56666,-0.04778 -12.79538,-0.1585 -13.04899,-0.34202z" fill-opacity="0.75294" fill="#808080"/></g><path d="M327.47993,157.33446c0,0 0.31481,-3.1294 0.30959,-4.59495c-0.00513,-1.43917 -0.34066,-4.12064 -0.34066,-4.12064l2.97441,-0.36427c0,0 0.37417,2.07859 0.40117,3.31711c0.03102,1.42264 -0.22543,4.74317 -0.22543,4.74317z" fill="#000000" stroke="none" stroke-width="0" stroke-linecap="butt"/><path d="M332.12362,155.32282c0,0 0.34506,-2.55949 0.34601,-3.78993c0.00092,-1.19791 -0.34038,-3.49774 -0.34038,-3.49774l1.56472,-0.09039c0,0 0.22969,2.20595 0.19347,3.3709c-0.03148,1.01259 -0.39858,3.22606 -0.39858,3.22606z" fill="#000000" stroke="none" stroke-width="0" stroke-linecap="butt"/></g></g></g></svg>