<svg version="1.1" xmlns="http://www.w3.org/2000/svg" xmlns:xlink="http://www.w3.org/1999/xlink" width="648.48048" height="371.00007" viewBox="0,0,648.48048,371.00007"><defs><linearGradient x1="635.89453" y1="157.47749" x2="544.64602" y2="157.47749" gradientUnits="userSpaceOnUse" id="color-1"><stop offset="0" stop-color="#000000"/><stop offset="1" stop-color="#000000" stop-opacity="0"/></linearGradient><linearGradient x1="4.10547" y1="157.47749" x2="95.35398" y2="157.47749" gradientUnits="userSpaceOnUse" id="color-2"><stop offset="0" stop-color="#000000"/><stop offset="1" stop-color="#000000" stop-opacity="0"/></linearGradient></defs><g transform="translate(4.24024,5.49995)"><g data-paper-data="{&quot;isPaintingLayer&quot;:true}" fill-rule="nonzero" stroke="none" stroke-width="0" stroke-linecap="butt" stroke-linejoin="miter" stroke-miterlimit="10" stroke-dasharray="" stroke-dashoffset="0" style="mix-blend-mode: normal"><path d="M544.64602,242.56925v-170.18351h91.24851v170.18351z" fill="url(#color-1)"/><path d="M4.10547,242.56925v-170.18351h91.24851v170.18351z" fill="url(#color-2)"/><path d="M-0.5,59.58528v-60.58069h642v60.58069c0,0 -214.27783,7 -321.33333,7c-106.94439,0 -320.66667,-7 -320.66667,-7z" fill="#000000"/><path d="M37.46246,354.50312v-123c0,0 172.09796,12 282.41254,12c110.31457,0 282.66254,-12 282.66254,-12v123z" fill="#000000"/><path d="M589.44239,244.00606c0,0 28.62367,-33.02853 28.62367,-47.56156c0,-71.72031 -52.23345,-125.35661 -116.66667,-125.35661c-11.33947,0 -32.66666,-20.08784 -32.66666,-20.08784h168v193.00601z" data-paper-data="{&quot;index&quot;:null}" fill="#000000"/><path d="M3.26727,244.00606v-193.00601h168c0,0 -21.32719,20.08784 -32.66666,20.08784c-64.43322,0 -116.66667,53.6363 -116.66667,125.35661c0,14.53303 28.62367,47.56157 28.62367,47.56157z" fill="#000000"/><path d="M-4.24024,244.00606v-193.00601h168c0,0 -21.32719,15.58334 -32.66667,15.58334c-64.43322,0 -116.66667,58.1408 -116.66667,129.86111c0,14.53303 2.14475,34.51448 6.10115,47.56157z" fill="#0e0e0e"/><path d="M619.47242,244.00606c3.95641,-13.04709 6.10115,-33.02853 6.10115,-47.56156c0,-71.72031 -52.23345,-129.86111 -116.66667,-129.86111c-11.33947,0 -32.66666,-15.58334 -32.66666,-15.58334h168v193.00601z" data-paper-data="{&quot;index&quot;:null}" fill="#0e0e0e"/><path d="M-0.5,365.5001v-128.64526c0,0 195.40936,12 320.625,12c125.21564,0 320.07012,-12 320.07012,-12v128.64527z" fill="#0e0e0e"/><path d="M-0.5,55.08074v-60.58069h642v60.58069c0,0 -214.27783,7 -321.33333,7c-106.94439,0 -320.66667,-7 -320.66667,-7z" fill="#0e0e0e"/><path d="M362,124.50008z" fill="#ffffff"/></g></g></svg>