<svg version="1.1" xmlns="http://www.w3.org/2000/svg" xmlns:xlink="http://www.w3.org/1999/xlink" width="97.74525" height="249.99816" viewBox="0,0,97.74525,249.99816"><g transform="translate(-266.54267,-55.50173)"><g data-paper-data="{&quot;isPaintingLayer&quot;:true}" fill-rule="nonzero" stroke-linejoin="miter" stroke-miterlimit="10" stroke-dasharray="" stroke-dashoffset="0" style="mix-blend-mode: normal"><g stroke-linecap="butt"><path d="M280.0304,304.39162c0,0 0.36464,-94.38387 0.20665,-118.01201c-0.05451,-8.15261 8.18688,-36.76129 40.20201,-36.9211c31.60235,-0.15775 39.85672,29.48704 39.84884,36.89673c-0.05641,34.0601 1.15429,117.98648 1.15429,117.98648l-10.99667,0.09614l-0.15882,-114.84311c0,0 0.07549,-3.0993 -2.81625,-3.15415c-3.43441,-0.06514 -2.94538,3.11562 -2.94538,3.11562l0.20548,114.86995l-48.21366,0.07222l-0.30539,-115.23309c0,0 0.27949,-2.919 -2.8856,-2.93443c-3.11083,-0.01515 -2.81569,2.90899 -2.81569,2.90899l0.35311,115.0668z" fill="#000000" stroke="#000000" stroke-width="2"/><path d="M277.23706,193.87961c-0.05451,-8.15261 4.18688,-44.26129 43.20201,-44.4211c39.01513,-0.15981 42.85672,36.98704 42.84884,44.39673c-0.00772,4.65759 -13.45986,12.13276 -13.45986,12.13276l-0.59749,98.43818l-57.21366,0.07222l-0.91231,-98.50872c0,0 -13.84412,-8.60969 -13.86752,-12.11006z" fill="#4a314d" stroke="#4a314d" stroke-width="2"/><g stroke="#4a314d" stroke-width="0"><path d="M299.42326,215.95802c0,0 -3.97341,-25.56495 5.59978,-34.67379c9.5732,-9.10884 21.28814,-8.45732 30.17661,0c8.88846,8.45732 5.59978,34.67379 5.59978,34.67379c0,0 -1.15857,7.6039 -21.04902,7.6039c-19.25168,0 -20.32715,-7.6039 -20.32715,-7.6039z" fill="#000000"/><path d="M298.92326,215.34456c0,0 15.08818,-26.68961 20.82715,-26.68961c5.8082,0 21.54902,26.68961 21.54902,26.68961c0,0 -1.65856,9.60696 -21.54902,9.60696c-19.25167,0 -20.82715,-9.60696 -20.82715,-9.60696z" fill="#6b6570"/><path d="M311.6156,223.69076c-8.09262,-5.23366 7.93227,-31.75894 7.93227,-31.75894c0,0 16.93345,26.27632 8.31811,31.68209c-4.60873,2.89178 -11.84484,2.92601 -16.25038,0.07686z" data-paper-data="{&quot;index&quot;:null}" fill="#a8ba9a"/><path d="M319.78627,197.81373c0,0 14.86663,26.28695 0,26.28695c-14.38918,0 0,-26.28695 0,-26.28695z" data-paper-data="{&quot;index&quot;:null}" fill="#ace894"/></g><path d="M319.93906,242.45851c25.57025,-0.10474 30.88898,-36.47052 30.88898,-36.47052l-0.59749,98.43818l-59.21366,0.07222l-0.91231,-98.50872c0,0 5.81543,36.56723 29.83448,36.46884z" fill-opacity="0.25098" fill="#000000" stroke="#4a314d" stroke-width="0"/><path d="M319.93906,265.95851c25.57025,-0.10474 30.88898,-39.47052 30.88898,-39.47052l-0.59749,77.93818l-59.21366,0.07222l-0.91231,-78.00872c0,0 5.81542,39.56723 29.83448,39.46884z" fill-opacity="0.09804" fill="#000000" stroke="#4a314d" stroke-width="0"/></g><path d="" fill="#a8ba9a" stroke="#4a314d" stroke-width="0" stroke-linecap="butt"/><path d="" fill="#a8ba9a" stroke="#4a314d" stroke-width="0" stroke-linecap="butt"/><path d="" fill-opacity="0.10588" fill="#000000" stroke="none" stroke-width="0.60142" stroke-linecap="butt"/><path d="M272.9269,103.88012c0,0 6.16329,-5.92187 6.29161,-6.78761c0.33654,-2.27063 -0.16776,-40.17317 35.96775,-41.57382c44.63633,-0.91362 39.01489,35.34872 41.53088,42.1903c3.44981,9.38084 6.15664,17.40016 6.15664,17.40016c0,0 -2.76715,-2.05351 -4.0797,-3.13397c-1.2242,-1.00773 -3.80143,-3.14585 -3.80143,-3.14585c0,0 3.09111,10.3481 1.31092,20.69498c-1.5623,9.48098 -7.29782,17.22543 -7.29782,17.22543l-1.15522,-2.34735c0,0 -1.02266,2.19794 -2.16005,3.33274c-1.1374,1.13479 -3.43873,2.91273 -3.43873,2.91273l-0.09205,-3.70421c0,0 -7.0601,11.01795 -24.35066,10.87154c-16.30625,-0.25547 -26.07151,-10.6752 -26.07151,-10.6752l-0.1162,2.65484c0,0 -3.89477,-3.29276 -6.18145,-9.70754c-2.72545,-7.64567 -3.23946,-12.24324 -3.23946,-12.24324c0,0 -2.33908,1.89916 -5.71704,2.7744c-4.23278,1.09673 -6.94665,0.34526 -6.94665,0.34526c0,0 3.60795,-2.71717 5.58396,-4.76989c1.76007,-1.8284 2.64658,-3.37722 2.64658,-3.37722c0,0 -2.10758,1.0847 -4.23277,1.61795c-2.21739,0.5564 -4.03008,0.53093 -4.03008,0.53093c0,0 4.97492,-5.03728 7.03074,-10.87429c1.94102,-5.51108 2.09972,-10.95731 2.09972,-10.95731c0,0 -1.36165,0.66163 -3.33013,0.79513c-1.24776,0.08463 -2.37785,-0.0489 -2.37785,-0.0489z" fill="#000000" stroke="none" stroke-width="1.5" stroke-linecap="butt"/><path d="M291.16091,114.83944c0.03999,-2.75843 2.30855,-4.96213 5.06696,-4.92214c2.75843,0.03999 4.96213,2.30855 4.92214,5.06696c-0.03999,2.75843 -2.30854,4.96213 -5.06696,4.92214c-2.75843,-0.03999 -4.96213,-2.30855 -4.92214,-5.06696z" fill="#ace894" stroke-opacity="0.25098" stroke="#ace895" stroke-width="8" stroke-linecap="butt"/><path d="M318.38228,114.80778c0,-2.81845 2.2848,-5.10325 5.10325,-5.10325c2.81845,0 5.10325,2.2848 5.10325,5.10325c0,2.81845 -2.28479,5.10325 -5.10325,5.10325c-2.81845,0 -5.10325,-2.2848 -5.10325,-5.10325z" fill="#ace894" stroke-opacity="0.25098" stroke="#ace895" stroke-width="8" stroke-linecap="butt"/><g><path d="M269.84004,144.88224c4.3965,-4.39649 11.52462,-4.39649 15.92111,0c4.3965,4.39649 4.3965,11.52463 0,15.92112c-4.3965,4.39649 -11.52462,4.39649 -15.92111,0c-4.3965,-4.39649 -4.3965,-11.52463 0,-15.92112z" fill="#544f57" stroke="none" stroke-width="0.5" stroke-linecap="butt"/><g><path d="M315.66643,125.71278c3.33615,3.43751 4.80257,8.86754 4.52175,13.92073c-0.29167,3.61838 -3.79688,6.60412 -6.07837,9.6576c-2.38491,3.19118 -5.56524,5.74573 -7.78132,8.90579c-1.60179,2.23712 -2.54147,4.70325 -3.56406,7.13342c-1.08544,2.57801 -0.31967,6.70739 -2.87992,7.814c-3.36046,1.55549 -7.02853,-0.44452 -9.94907,-2.0452c-4.56547,-2.5032 -8.15365,-6.39 -11.88933,-9.94282c-2.45354,-2.59407 -4.70449,-5.38673 -6.58276,-8.43306c-1.74779,-2.82789 -3.73277,-5.65937 -4.34755,-9.03617c-0.21124,-1.21773 1.00413,-2.93785 2.30155,-3.67804c2.16295,-1.12619 4.74164,-0.43596 7.1163,-1.40113c2.5868,-1.05116 4.97744,-2.7172 7.31947,-4.33981c2.67784,-1.84387 5.29946,-4.14379 8.02927,-6.14643c3.27762,-2.40116 6.14264,-6.65631 9.99086,-7.02179c5.08113,-0.54045 10.50066,1.22129 13.79321,4.61293z" fill="#a8ba9a" stroke="none" stroke-width="0.60142" stroke-linecap="round"/><path d="M302.41778,164.04687c0,0 -4.46043,1.37889 -15.31489,-9.89828c-11.15472,-11.58912 -9.66456,-15.55154 -9.66456,-15.55154" fill="none" stroke="#6b6570" stroke-width="1.5" stroke-linecap="round"/><path d="M317.05787,141.37804c0,0 -3.04015,0.93983 -10.43838,-6.74652c-7.60289,-7.89898 -6.58722,-10.59968 -6.58722,-10.59968" fill="none" stroke="#6b6570" stroke-width="1.5" stroke-linecap="round"/><path d="M299.99172,173.03713c-3.2966,1.49162 -6.94299,-0.53006 -9.84638,-2.14789c-4.53868,-2.53 -8.13074,-6.41291 -11.86404,-9.96811c-2.45537,-2.59224 -4.71335,-5.37787 -6.6068,-8.40903c-0.28314,-0.45223 -0.57236,-0.90462 -0.86104,-1.35932c0.01257,-0.81734 -2.89399,-3.47737 -3.68733,-5.66944c-0.72421,-2.00107 0.66332,-3.57499 0.58,-3.74942c0.42524,-0.73081 1.09057,-1.40813 1.78377,-1.79742c1.42077,-0.72602 3.03639,-0.64459 4.64923,-0.78921c-0.85012,4.40419 0.20242,8.82291 3.2709,11.8914c0.84073,0.84073 1.78283,1.53012 2.79822,2.07052c0.22089,2.9834 1.37998,5.77285 3.51547,7.90833c2.33969,2.33969 5.46439,3.50732 8.7691,3.55312c0.33799,0.45439 0.71161,0.88797 1.12114,1.29751c2.24149,2.24149 5.20347,3.40724 8.35398,3.54143c-0.23359,1.6098 -0.62339,3.05735 -1.9762,3.62751z" fill-opacity="0.10588" fill="#000000" stroke="none" stroke-width="0.60142" stroke-linecap="butt"/><path d="M308.67389,123.2661c1.42878,-1.42878 5.61188,-1.44365 8.18277,1.12724c2.57089,2.57089 2.55602,6.754 1.12725,8.18277c-1.42878,1.42878 -3.7304,-0.43784 -6.30129,-3.00872c-2.57089,-2.57089 -4.4375,-4.87252 -3.00873,-6.30129z" fill="#6b6570" stroke="none" stroke-width="0.5" stroke-linecap="butt"/></g></g></g></g></svg>