<svg version="1.1" xmlns="http://www.w3.org/2000/svg" xmlns:xlink="http://www.w3.org/1999/xlink" width="34.17311" height="34.17311" viewBox="0,0,34.17311,34.17311"><g transform="translate(-302.91345,-162.91348)"><g data-paper-data="{&quot;isPaintingLayer&quot;:true}" stroke-miterlimit="10" stroke-dasharray="" stroke-dashoffset="0" style="mix-blend-mode: normal"><path d="M309.98311,162.91349h20.03379c3.9166,0 7.06966,3.15307 7.06966,7.06966v20.03379c0,3.91659 -3.15306,7.06966 -7.06966,7.06966h-20.03379c-3.91659,0 -7.06966,-3.15307 -7.06966,-7.06966v-20.03379c0,-3.91659 3.15307,-7.06966 7.06966,-7.06966z" fill-opacity="0.35294" fill="#ff2e5f" fill-rule="evenodd" stroke="none" stroke-width="4.43922" stroke-linecap="round" stroke-linejoin="round"/><path d="" fill="#5c162e" fill-rule="nonzero" stroke="none" stroke-width="4.43922" stroke-linecap="butt" stroke-linejoin="miter"/><g fill-rule="nonzero" stroke-linejoin="miter"><path d="M330.87755,173.42729c0,0 -2.16045,5.31183 -3.48798,10.84991c-1.32753,5.53808 -0.68394,6.55417 -0.68394,6.55417c0,0 -6.74272,-0.01439 -8.18094,-0.01746c-0.51509,-0.00109 -1.59287,-0.21269 -2.10116,-0.40949c-1.33916,-0.51851 -7.30106,-2.8269 -7.30106,-2.8269c0,0 1.53789,-3.81588 1.94261,-6.38972c0.40472,-2.57384 0.95209,-12.01917 0.95209,-12.01917c0,0 7.50248,0.45923 8.92368,0.54622c0.44608,0.02731 1.33616,0.23842 1.79219,0.42262c1.36196,0.55014 8.14453,3.28982 8.14453,3.28982z" fill="#ff2e5f" stroke="#000000" stroke-width="0" stroke-linecap="round"/><path d="M327.38956,184.2772c-1.32753,5.53808 -0.68394,6.55417 -0.68394,6.55417c0,0 -6.74272,-0.01439 -8.18094,-0.01746c-0.27023,-0.00057 -2.02592,-0.49693 -2.02592,-0.49693c0,0 11.03312,-11.70483 7.92387,-12.36145c-0.00883,-0.00187 -1.9146,-7.90894 -1.68962,-7.81806c1.3613,0.54987 8.13788,3.28713 8.14452,3.28982c-0.00191,0.00472 -2.16104,5.31429 -3.48798,10.84991z" fill="#000000" stroke="#000000" stroke-width="0" stroke-linecap="butt"/><path d="M322.78077,177.74405c0.97337,-0.60461 2.55881,0.50854 2.72514,0.62435c1.06651,0.74262 1.31865,2.31238 0.52103,3.16862c-0.32333,0.3471 -1.01138,0.55156 -1.3433,0.90736c-0.44551,0.47756 -0.0827,1.21479 -1.08423,1.41194c-0.29656,0.05838 -0.61497,-0.12454 -0.90111,-0.24179c-1.0842,-0.44425 -1.18566,-1.4027 -1.22861,-2.28155c-0.01938,-0.6656 0.33992,-2.9857 1.31108,-3.58894z" data-paper-data="{&quot;index&quot;:null}" fill="#000000" stroke="none" stroke-width="0.5" stroke-linecap="butt"/><path d="M317.85483,180.56959c-0.39463,0.78644 -0.87497,1.62203 -2.04621,1.58997c-0.30911,-0.00847 -0.6743,0.03008 -0.92193,-0.14321c-0.8363,-0.58527 -0.20639,-1.11285 -0.42075,-1.72976c-0.15972,-0.45964 -0.70634,-0.92483 -0.86172,-1.37303c-0.38329,-1.10564 0.48202,-2.43941 1.75772,-2.68739c0.19896,-0.03868 2.09911,-0.41572 2.74489,0.53083c0.64432,0.9444 0.03485,3.21167 -0.252,3.8126z" data-paper-data="{&quot;index&quot;:null}" fill="#000000" stroke="none" stroke-width="0.5" stroke-linecap="butt"/></g></g></g></svg>