<svg version="1.1" xmlns="http://www.w3.org/2000/svg" xmlns:xlink="http://www.w3.org/1999/xlink" width="48.16666" height="72.00367" viewBox="0,0,48.16666,72.00367"><g transform="translate(-295.91667,-143.99817)"><g data-paper-data="{&quot;isPaintingLayer&quot;:true}" fill-rule="nonzero" stroke-linecap="butt" stroke-linejoin="miter" stroke-miterlimit="10" stroke-dasharray="" stroke-dashoffset="0" style="mix-blend-mode: normal"><path d="M311.07143,181.22239c3.0548,0 13.29787,0 18.42857,0c1.80804,0 2.97027,2.16708 2.92319,5.41936c-0.14153,9.77673 -0.60976,29.36009 -2.08985,29.36009c-5.0688,0 -17.84473,0 -20.66667,0c-1.17399,0 -1.79563,-19.59083 -2.03273,-29.36568c-0.07882,-3.24917 1.7546,-5.41377 3.43749,-5.41377z" fill="#191528" stroke="none" stroke-width="0"/><g fill="#3c162f" stroke="none" stroke-width="0"><path d="M306.88095,188.89108c0,-9.10414 4.92683,-12.48451 13.11906,-12.48451c8.19222,0 13.11906,3.38036 13.11906,12.48451c0,1.30516 -26.23811,1.42921 -26.23811,0z"/><path d="M311.90075,215.66851l-0.71529,-33.46478h17.62907l-0.71529,33.46478z"/></g><path d="M295.91667,154.86504c0,-6.00161 4.86526,-10.86686 10.86686,-10.86686c6.0016,0 10.86687,4.86526 10.86687,10.86686c0,6.00161 -4.86527,10.86687 -10.86687,10.86687c-6.0016,0 -10.86686,-4.86526 -10.86686,-10.86687z" fill="#110e1b" stroke="none" stroke-width="0"/><path d="M322.3496,154.86504c0,-6.00161 4.86527,-10.86687 10.86687,-10.86687c6.0016,0 10.86686,4.86527 10.86686,10.86687c0,6.00161 -4.86526,10.86688 -10.86686,10.86688c-6.0016,0 -10.86687,-4.86527 -10.86687,-10.86688z" fill="#110e1b" stroke="none" stroke-width="0"/><path d="M322.3496,154.86504c0,-6.00161 4.86527,-10.86687 10.86687,-10.86687c6.0016,0 10.86686,4.86527 10.86686,10.86687c0,6.00161 -4.86526,10.86688 -10.86686,10.86688c-6.0016,0 -10.86687,-4.86527 -10.86687,-10.86688z" fill="#110e1b" stroke="none" stroke-width="0"/><path d="M306.12272,156.90281c0,-4.65977 7.24465,-5.67232 13.84065,-5.68093c6.62042,-0.00864 13.91392,1.0039 13.91392,5.68093c0,9.3368 -6.57804,18.22743 -13.87729,18.22743c-7.29925,0 -13.87728,-8.89062 -13.87728,-18.22743z" fill="#3c162f" stroke="none" stroke-width="0"/><path d="M306.04929,163.35137c0,-6.89373 7.05698,-12.48221 13.95071,-12.48221c6.89373,0 13.95071,5.58847 13.95071,12.48221c0,6.89373 -7.62441,20.47393 -13.95071,20.47393c-6.32632,0 -13.95071,-13.58019 -13.95071,-20.47393z" fill="#191528" stroke="none" stroke-width="0"/><g stroke="none" stroke-width="0"><path d="M317.66377,165.47972c-1.14539,2.33353 -4.25021,3.69941 -6.9348,3.05079c-2.68459,-0.64862 -3.93236,-3.06612 -2.78697,-5.39964c1.14539,-2.33353 4.2502,-5.02106 6.9348,-4.37244c2.68459,0.64862 3.93236,4.38778 2.78697,6.72129z" fill="#ffffff"/><path d="M332.058,163.13087c1.14539,2.33353 -0.10237,4.75102 -2.78697,5.39964c-2.68459,0.64862 -5.7894,-0.71726 -6.93479,-3.05079c-1.14539,-2.33353 0.10237,-6.07268 2.78697,-6.72128c2.68459,-0.64862 5.7894,2.03892 6.93479,4.37244z" fill="#ffffff"/><path d="M311.30592,163.02808c2.08649,-0.13352 4.49958,0.34876 5.38979,0.82913c0.89021,0.48038 -0.07957,1.17914 -2.16606,1.31266c-2.08649,0.13352 -4.9001,-0.29914 -5.79031,-0.77951c-0.89021,-0.48038 0.48008,-1.22876 2.56658,-1.36228z" data-paper-data="{&quot;index&quot;:null}" fill="#000000"/><path d="M323.30429,163.85724c0.89021,-0.48038 3.3033,-0.96266 5.38979,-0.82914c2.08648,0.13352 3.45679,0.8819 2.56658,1.36228c-0.89021,0.48038 -3.70382,0.91303 -5.79031,0.77951c-2.08649,-0.13352 -3.05627,-0.83227 -2.16606,-1.31265z" data-paper-data="{&quot;index&quot;:null}" fill="#000000"/></g><g data-paper-data="{&quot;index&quot;:null}" stroke="none" stroke-width="0"><path d="M326.733,158.43093c-3.54931,-0.44339 -6.05716,-3.06409 -5.60147,-5.85351c0.45569,-2.78942 3.57213,-3.89378 7.12142,-3.4504c3.54931,0.44339 6.18745,2.26661 5.73174,5.05604c-0.45569,2.78942 -3.7024,4.69126 -7.2517,4.24787z" fill="#7c162e"/><path d="M326.86304,157.11574c-2.89218,-0.3613 -4.97532,-2.25434 -4.65285,-4.22824c0.32247,-1.97391 2.92845,-3.28118 5.82063,-2.91988c2.89218,0.3613 4.97532,2.25434 4.65285,4.22824c-0.32247,1.97391 -2.92845,3.28118 -5.82063,2.91988z" fill="#191528"/></g><g data-paper-data="{&quot;index&quot;:null}" stroke="none" stroke-width="0"><path d="M313.26702,158.43093c-3.54931,0.44339 -6.79601,-0.65845 -7.2517,-3.44788c-0.45571,-2.78942 2.18243,-5.41265 5.73174,-5.85603c3.54929,-0.44339 6.66573,0.66097 7.12142,3.4504c0.45569,2.78942 -2.05216,5.41013 -5.60146,5.85351z" fill="#7c162e"/><path d="M307.31634,154.19587c-0.32247,-1.97391 1.76067,-3.86695 4.65285,-4.22824c2.89218,-0.3613 5.49815,0.94598 5.82062,2.91988c0.32247,1.97391 -1.76067,3.86695 -4.65284,4.22824c-2.89218,0.3613 -5.49815,-0.94598 -5.82063,-2.91988z" fill="#191528"/></g><path d="M318.17143,152.67315c0,-0.65434 0.80881,-1.18479 1.80653,-1.18479c0.99772,0 1.80652,0.53045 1.80652,1.18479c0,0.65434 -3.61304,0.65434 -3.61304,0z" fill="#5c162e" stroke="none" stroke-width="0.5"/><path d="M316.64286,192.33162c0,-1.64276 0.95076,-2.97447 3.35715,-2.97447c2.40639,0 3.35715,1.33172 3.35715,2.97447c0,1.64276 -3.35715,4.33981 -3.35715,4.33981c0,0 -3.35715,-2.69705 -3.35715,-4.33981z" data-paper-data="{&quot;index&quot;:null}" fill="none" stroke="#5c162e" stroke-width="1.5"/><g stroke="none" stroke-width="0"><path d="M315.84355,181.83534c0,-2.16092 1.86091,-2.0495 4.15646,-2.0495c2.29556,0 4.15646,-0.11142 4.15646,2.0495c0,2.16092 -1.86091,3.91269 -4.15646,3.91269c-2.29556,0 -4.15646,-1.75177 -4.15646,-3.91269z" fill="#5c162e"/><path d="M315.84355,181.83534c0,-2.16092 1.86091,-2.0495 4.15646,-2.0495c2.29556,0 4.15646,-0.11141 4.15646,2.0495c0,2.16092 -8.31292,2.16092 -8.31292,0z" fill="#7c162e"/></g></g></g></svg>