<svg version="1.1" xmlns="http://www.w3.org/2000/svg" xmlns:xlink="http://www.w3.org/1999/xlink" width="35.125" height="35.12434" viewBox="0,0,35.125,35.12434"><g transform="translate(-302.43752,-162.43783)"><g data-paper-data="{&quot;isPaintingLayer&quot;:true}" stroke="none" stroke-miterlimit="10" stroke-dasharray="" stroke-dashoffset="0" style="mix-blend-mode: normal"><path d="M337.56251,169.8317v20.49804c0,4.00745 -3.22497,7.23243 -7.23242,7.23243h-20.5c-3.66107,0 -6.66147,-2.69385 -7.1543,-6.21484c0.7952,3.03475 3.54108,5.26367 6.83204,5.26367h20.0332c3.9166,0 7.07032,-3.15372 7.07032,-7.07031v-20.03321c0,-3.2976 -2.23906,-6.0451 -5.28321,-6.83398c3.52994,0.48496 6.23438,3.49081 6.23438,7.15821z" fill-opacity="0.29839" fill="#000000" fill-rule="evenodd" stroke-width="4.54219" stroke-linecap="round" stroke-linejoin="round"/><path d="M309.50719,162.43783h20.03378c3.9166,0 7.06966,3.15307 7.06966,7.06966v20.03379c0,3.91659 -3.15307,7.06966 -7.06966,7.06966h-20.03378c-3.91659,0 -7.06967,-3.15307 -7.06967,-7.06966v-20.03379c0,-3.91659 3.15308,-7.06966 7.06967,-7.06966z" fill-opacity="0.35294" fill="#ff672b" fill-rule="evenodd" stroke-width="4.43922" stroke-linecap="round" stroke-linejoin="round"/><g fill-rule="nonzero" stroke-width="0" stroke-linecap="butt" stroke-linejoin="miter"><path d="M334.7123,184.67707c-0.40555,2.44829 -7.39649,3.79661 -15.52181,2.4507c-8.12532,-1.3459 -14.30813,-4.87637 -13.90258,-7.32467c0.40555,-2.44829 7.32117,-3.34194 15.44649,-1.99603c8.12532,1.3459 14.38344,4.4217 13.9779,6.86999z" fill="#000000"/><path d="M328.07971,179.37413c-0.73829,4.45714 -4.16116,4.56609 -8.24906,3.88896c-4.0879,-0.67713 -7.29281,-1.88394 -6.55451,-6.34108c0.73829,-4.45714 4.08585,-4.11143 8.17374,-3.43429c4.0879,0.67713 7.36812,1.42927 6.62983,5.88642z" fill="#ff672b"/><path d="M328.07971,179.37413c-0.73829,4.45714 -15.54187,2.00502 -14.80357,-2.45212c0.73829,-4.45714 4.23647,-5.02076 8.32437,-4.34363c4.0879,0.67713 7.2175,2.33861 6.4792,6.79575z" fill="#000000"/></g></g></g></svg>