<svg version="1.1" xmlns="http://www.w3.org/2000/svg" xmlns:xlink="http://www.w3.org/1999/xlink" width="162.95164" height="272.02257" viewBox="0,0,162.95164,272.02257"><g transform="translate(-217.91987,-55.37409)"><g data-paper-data="{&quot;isPaintingLayer&quot;:true}" fill-rule="nonzero" stroke-linecap="butt" stroke-linejoin="miter" stroke-miterlimit="10" stroke-dasharray="" stroke-dashoffset="0" style="mix-blend-mode: normal"><g stroke="#000000" stroke-width="0"><path d="M320.00002,152.70648c33.61838,0 60.87149,20.76571 60.87149,33.02065c0,12.25493 -0.38345,134.86356 -60.87149,134.51391c-59.90704,-0.34629 -60.87149,-122.25897 -60.87149,-134.5139c0,-12.25493 27.2531,-33.02064 60.87149,-33.02064z" fill="#1a090d"/><path d="M320.00002,152.70648c28.09666,0 55.8775,12.66813 55.8775,28.29507c0,15.62694 -16.56991,146.39511 -55.8775,146.39511c-39.30759,0 -55.8775,-130.76816 -55.8775,-146.39511c0,-15.62694 27.78085,-28.29507 55.8775,-28.29507z" fill="#4a314d"/><path d="M359.1335,169.75911c0,18.66926 -17.60435,76.9717 -39.13346,76.9717c-21.52912,0 -39.13346,-58.30244 -39.13346,-76.9717c0,-18.66926 78.26693,-18.66926 78.26693,0z" fill="#6b6570"/><path d="M320.00002,140.10343c21.62676,0 39.15872,7.64692 39.15872,17.07987c0,8.12708 -3.57131,32.88919 -21.00549,38.89735c-2.80133,0.96538 -18.15323,-9.04229 -18.15323,-9.04229c0,0 -15.86808,9.90666 -18.89535,8.7758c-17.06008,-6.37287 -20.26336,-30.6195 -20.26336,-38.63085c0,-9.43295 17.53196,-17.07987 39.15872,-17.07987z" fill="#a8ba9a"/><path d="M302.50356,230.60979c0,-10.41111 7.83343,-41.84 17.49645,-41.84c9.66302,0 17.49645,31.4289 17.49645,41.84c0,10.41111 -17.49645,18.85099 -17.49645,18.85099c0,0 -17.49645,-8.43989 -17.49645,-18.85099z" fill="#ace894"/><path d="M320.00002,141.78759c17.02532,0 30.82708,6.01991 30.82708,13.44585c0,7.42594 -13.86769,29.84323 -30.82708,29.84323c-16.95939,0 -30.82707,-22.41729 -30.82707,-29.84323c0,-7.42594 13.80175,-13.44585 30.82707,-13.44585z" fill="#000000"/><path d="M327.40254,194.67578c0,0 4.39893,4.95447 -7.68026,4.64747c-10.40888,-0.26456 -7.69706,-4.75933 -7.69706,-4.75933z" fill="#4a314d"/><path d="M320.00002,175.03142c9.66302,0 16.10784,1.75038 16.10784,5.9651c0,4.21473 -6.44482,16.93805 -16.10784,16.93805c-9.66302,0 -16.10784,-12.72333 -16.10784,-16.93805c0,-4.21472 6.44482,-5.9651 16.10784,-5.9651z" fill="#ace894"/></g><g stroke="none"><path d="M360.47416,105.67391c0,25.32045 -2.15568,52.84672 -40.08677,52.84672c-39.14583,0 -40.08679,-27.52628 -40.08679,-52.84672c0,-25.32045 80.17357,-25.32045 80.17357,0z" fill="#1a090d" stroke-width="NaN"/><path d="M355.71685,107.26749c0,22.31552 -1.89987,40.40584 -35.32945,40.40584c-34.50018,0 -35.32948,-18.09032 -35.32948,-40.40584c0,-22.31552 70.65893,-22.31552 70.65893,0z" fill="#000000" stroke-width="NaN"/><path d="M295.3137,143.38098c0,-1.77067 3.52987,-8.33578 3.52987,-8.33578c0,0 3.52987,6.56512 3.52987,8.33578c0,1.77067 -1.58038,3.20607 -3.52987,3.20607c-1.94949,0 -3.52987,-1.43541 -3.52987,-3.20607z" fill="#ace894" stroke-width="0.5"/><path d="M337.67204,143.38098c0,-1.77067 3.52987,-8.33578 3.52987,-8.33578c0,0 3.52985,6.56512 3.52985,8.33578c0,1.77067 -1.58037,3.20607 -3.52985,3.20607c-1.94949,0 -3.52987,-1.43541 -3.52987,-3.20607z" fill="#ace894" stroke-width="0.5"/></g><g stroke="none"><g><path d="M362.97417,101.89572c0,12.84198 -0.43059,24.62962 -4.20366,33.86273c-4.9284,12.06032 -71.9326,12.44355 -76.81153,0.90327c-3.95785,-9.36163 -4.15837,-21.50138 -4.15837,-34.76601c0,-29.61621 85.17357,-29.61621 85.17357,0z" fill="#1a090d" stroke-width="NaN"/><path d="M315.1309,144.54352c-13.2013,8.78467 -50.16021,-1.56651 -50.16021,-1.56651c0,0 6.0991,-7.59293 14.21368,-15.52396c1.53615,-1.5014 49.14784,8.3058 35.94654,17.09047z" fill="#4a314d" stroke-width="NaN"/><path d="M375.80415,142.97708c0,0 -36.95891,10.35117 -50.16021,1.56651c-13.2013,-8.78466 34.15289,-18.83517 35.63916,-17.39009c8.26745,8.03832 14.52106,15.8236 14.52106,15.8236z" data-paper-data="{&quot;index&quot;:null}" fill="#4a314d" stroke-width="NaN"/><path d="M320.25266,125.10117c6.82055,8.94784 5.24364,19.64274 -5.12176,26.5403c-13.2013,8.78467 -46.2887,-1.56651 -46.2887,-1.56651c0,0 8.70521,-12.26286 18.97967,-21.89837c8.61797,-8.08203 30.56475,-5.52348 32.4308,-3.07542z" fill="#4a314d" stroke-width="NaN"/><path d="M325.64391,151.6413c-10.58278,-7.0422 -12.00459,-18.0427 -4.68158,-27.10088c1.81195,-2.24128 23.18737,-4.56402 31.74359,3.40516c10.38155,9.66927 19.22667,22.12922 19.22667,22.12922c0,0 -33.08738,10.35117 -46.28868,1.5665z" data-paper-data="{&quot;index&quot;:null}" fill="#4a314d" stroke-width="NaN"/><g fill="#ace894" stroke-width="0"><path d="M332.64637,135.89641c0,1.32106 -5.48855,8.07301 -12.259,8.07301c-6.77047,0 -12.25899,-6.75193 -12.25899,-8.07301c0,-1.32106 24.51799,-1.32106 24.51799,0z"/><path d="M326.96539,136.61555c0,2.27982 -2.94507,13.93194 -6.57799,13.93194c-3.63292,0 -6.57799,-11.65212 -6.57799,-13.93194c0,-2.27982 13.15599,-2.27982 13.15599,0z"/></g></g><g><g><path d="M310.91015,103.18023c-9.64983,14.50142 -24.59394,15.55539 -33.37861,2.35409c-8.78467,-13.2013 1.56651,-50.16022 1.56651,-50.16022c0,0 41.46193,33.30471 31.8121,47.80613z" fill="#1a090d" stroke-width="NaN"/><path d="M277.53156,105.53433c-8.78467,-13.2013 1.56651,-50.16022 1.56651,-50.16022c0,0 7.21816,63.36152 -1.56651,50.16022z" fill="#4a314d" stroke-width="NaN"/></g><g><path d="M361.67672,55.3741c0,0 10.35118,36.95892 1.56651,50.16022c-8.78467,13.2013 -23.72879,12.14733 -33.3786,-2.35409c-9.64981,-14.50142 31.8121,-47.80613 31.8121,-47.80613z" data-paper-data="{&quot;index&quot;:null}" fill="#1a090d" stroke-width="NaN"/><path d="M361.67672,55.3741c0,0 10.35118,36.95892 1.56651,50.16022c-8.78467,13.2013 -1.5665,-50.16022 -1.5665,-50.16022z" data-paper-data="{&quot;index&quot;:null}" fill="#4a314d" stroke-width="NaN"/></g></g><g fill="#ace894" stroke-width="0"><g><path d="M316.19257,125.18701c-1.00386,5.55076 -33.86139,7.60844 -32.85753,2.05768c1.00386,-5.55076 33.8614,-7.60844 32.85754,-2.05768z"/></g><g data-paper-data="{&quot;index&quot;:null}"><path d="M357.43972,126.24473c1.00386,5.55076 -31.85367,4.49308 -32.85753,-1.05768c-1.00386,-5.55076 31.85367,-4.49308 32.85753,1.05768z"/></g></g></g><path d="M302.35182,230.60979c0,0 6.89511,10.3556 17.64819,10.3556c10.75308,0 17.64819,-10.3556 17.64819,-10.3556c0,0 -0.69414,3.60507 -1.58795,5.28064c-4.18261,7.84086 -16.06024,13.57035 -16.06024,13.57035c0,0 -12.30653,-5.9364 -16.27727,-13.9933c-0.76381,-1.54982 -1.37092,-4.85769 -1.37092,-4.85769z" fill-opacity="0.10588" fill="#000000" stroke="#000000" stroke-width="0"/><path d="M243.59161,111.68379c0,2.5 -2.5,2.5 -2.5,2.5h-0.66667c-3.76006,0 -7.17325,0.28489 -10.87429,0.95749c-1.0321,0.18757 -2.04111,0.93101 -3.06624,0.70847c-0.17944,-0.03896 -0.3568,-0.08423 -0.53233,-0.13501l-0.01743,0.08717l-3.28792,-0.65758c-1.16847,-0.20987 -2.05512,-1.23166 -2.05512,-2.46053c0,-0.85068 0.42489,-1.60213 1.07402,-2.0537l2.30622,-1.6473c3.27737,-2.29475 5.64949,-5.75778 8.17252,-8.86688c0.40893,-0.50391 0.75915,-1.06365 1.14825,-1.58565c-0.30174,-0.03969 -0.60311,-0.0687 -0.89555,-0.03187c-4.20014,0.52896 -7.94416,1.39171 -12.22088,1.00632c0,0 -2.48759,-0.24876 -2.23883,-2.73635c0.24876,-2.48759 2.73635,-2.23883 2.73635,-2.23883c4.7248,0.53304 9.21079,-1.35838 13.92923,-1.00758c1.59235,0.11839 3.89952,-0.77114 4.75537,0.57686c1.03814,1.63513 -0.06882,3.94381 -0.72917,5.76462c-0.48469,1.33647 -1.70877,2.27288 -2.59028,3.38823c-1.82898,2.31417 -3.63951,4.67852 -5.69652,6.77589c0.31891,-0.03685 0.64857,-0.0806 0.98927,-0.14042c3.14883,-0.55283 5.89086,-0.70335 9.09335,-0.70335h0.66667c0,0 2.5,0 2.5,2.5z" fill="#ace894" stroke="none" stroke-width="0.5"/><path d="M256.17494,131.68379c0,1.75 -1.75,1.75 -1.75,1.75l-0.7123,-0.02381c-2.10387,0.34452 -8.60785,3.17858 -9.92213,-0.10079c-0.47599,-1.18767 0.9897,-2.37165 1.66379,-3.45918c0.9621,-1.55217 2.13709,-3.16544 3.15854,-4.7687c0.01534,-0.02408 0.57301,-1.20887 1.20207,-2.19418c-0.2173,0.0549 -0.42117,0.10346 -0.58509,0.1486c-3.18812,0.87793 -5.6827,1.50532 -9.05237,1.04714c0,0 -1.73241,-0.24749 -1.48492,-1.9799c0.24749,-1.73241 1.9799,-1.48492 1.9799,-1.48492c3.67982,0.55703 6.29751,-1.27991 9.79815,-1.32711c1.22086,-0.01646 2.84693,-0.62329 3.65096,0.29557c0.75462,0.8624 -0.16013,2.29443 -0.40509,3.41388c-0.34999,1.59942 -2.19713,5.26538 -3.93424,7.50428c1.18392,-0.24457 2.44936,-0.39382 3.35504,-0.54707l1.2877,-0.02381c0,0 1.75,0 1.75,1.75z" fill="#ace894" stroke="none" stroke-width="0.5"/></g></g></svg>