<svg version="1.1" xmlns="http://www.w3.org/2000/svg" xmlns:xlink="http://www.w3.org/1999/xlink" width="34.17311" height="34.17311" viewBox="0,0,34.17311,34.17311"><g transform="translate(-302.91346,-162.91346)"><g data-paper-data="{&quot;isPaintingLayer&quot;:true}" stroke="none" stroke-miterlimit="10" stroke-dasharray="" stroke-dashoffset="0" style="mix-blend-mode: normal"><path d="M309.98312,162.91346h20.03379c3.9166,0 7.06966,3.15307 7.06966,7.06966v20.03379c0,3.91659 -3.15306,7.06966 -7.06966,7.06966h-20.03379c-3.91659,0 -7.06966,-3.15307 -7.06966,-7.06966v-20.03379c0,-3.91659 3.15307,-7.06966 7.06966,-7.06966z" fill-opacity="0.35294" fill="#ff672b" fill-rule="evenodd" stroke-width="4.43922" stroke-linecap="round" stroke-linejoin="round"/><g fill-rule="nonzero" stroke-width="0" stroke-linecap="butt" stroke-linejoin="miter"><path d="M334.71231,184.67707c-0.40554,2.44829 -7.39649,3.79661 -15.52181,2.45071c-8.12532,-1.34591 -14.30813,-4.87638 -13.90258,-7.32467c0.40554,-2.44829 7.32118,-3.34194 15.4465,-1.99604c8.12532,1.34591 14.38344,4.42171 13.97789,6.87z" fill="#000000"/><path d="M328.07971,179.37414c-0.7383,4.45714 -4.16116,4.5661 -8.24906,3.88896c-4.0879,-0.67713 -7.29281,-1.88394 -6.55452,-6.34108c0.7383,-4.45714 4.08585,-4.11143 8.17375,-3.43429c4.0879,0.67713 7.36813,1.42927 6.62983,5.88641z" fill="#ff672b"/><path d="M328.07971,179.37414c-0.7383,4.45714 -15.54187,2.00502 -14.80358,-2.45212c0.7383,-4.45714 4.23648,-5.02076 8.32437,-4.34363c4.08789,0.67713 7.2175,2.33861 6.47921,6.79575z" fill="#000000"/></g></g></g></svg>