<svg version="1.1" xmlns="http://www.w3.org/2000/svg" xmlns:xlink="http://www.w3.org/1999/xlink" width="35.125" height="35.12434" viewBox="0,0,35.125,35.12434"><g transform="translate(-302.43752,-162.43783)"><g data-paper-data="{&quot;isPaintingLayer&quot;:true}" stroke="none" stroke-miterlimit="10" stroke-dasharray="" stroke-dashoffset="0" style="mix-blend-mode: normal"><path d="M337.56251,169.8317v20.49804c0,4.00745 -3.22497,7.23243 -7.23242,7.23243h-20.5c-3.66107,0 -6.66147,-2.69385 -7.1543,-6.21484c0.7952,3.03475 3.54108,5.26367 6.83204,5.26367h20.0332c3.9166,0 7.07032,-3.15372 7.07032,-7.07031v-20.03321c0,-3.2976 -2.23906,-6.0451 -5.28321,-6.83398c3.52994,0.48496 6.23438,3.49081 6.23438,7.15821z" fill-opacity="0.29839" fill="#000000" fill-rule="evenodd" stroke-width="4.54219" stroke-linecap="round" stroke-linejoin="round"/><path d="M309.50719,162.43783h20.03378c3.9166,0 7.06966,3.15307 7.06966,7.06966v20.03379c0,3.91659 -3.15307,7.06966 -7.06966,7.06966h-20.03378c-3.91659,0 -7.06967,-3.15307 -7.06967,-7.06966v-20.03379c0,-3.91659 3.15308,-7.06966 7.06967,-7.06966z" fill-opacity="0.35294" fill="#bc47ff" fill-rule="evenodd" stroke-width="4.43922" stroke-linecap="round" stroke-linejoin="round"/><g fill-rule="nonzero" stroke-width="0" stroke-linecap="butt" stroke-linejoin="miter"><g><path d="M309.77711,191.51991l0.29818,-2.8362l17.81415,1.87287l-0.29818,2.8362c0,0 -0.46011,3.04853 -9.10777,2.0996c-8.84001,-0.97004 -8.70638,-3.97247 -8.70638,-3.97247z" fill="#000000"/><path d="M313.38871,194.46075c0.03402,-0.37615 0.06501,-0.74962 0.09203,-1.11888c0.09343,-1.27677 0.11618,-2.56439 0.21747,-3.84079c0.01262,-0.15905 0.03003,-0.30198 0.04987,-0.43122l1.61563,0.16986c-0.07781,0.79972 -0.1596,1.59907 -0.23131,2.39936c-0.04828,0.53885 -0.09251,1.0781 -0.14629,1.61643c-0.06534,0.65409 -0.2071,1.16247 -0.32083,1.57986c-0.46908,-0.11859 -0.89316,-0.24425 -1.27656,-0.37461z" fill="#bc47ff"/><path d="M309.77711,191.51991l0.29818,-2.8362l2.84522,0.29913c-0.01435,0.14859 5.95552,3.56477 5.95552,3.56477c0,0 -2.50201,-0.15819 -3.61066,-0.26054c-0.88597,-0.08179 -2.52423,-0.30584 -2.52423,-0.30584c0,0 -0.04004,0.86907 -0.08028,1.30064c-0.02711,0.29066 -0.05544,0.58119 -0.08469,0.87164c-2.86265,-1.20476 -2.79906,-2.63359 -2.79906,-2.63359z" fill="#bc47ff"/><path d="M327.90567,190.52097c-0.17234,1.63921 -4.29856,2.54893 -9.21618,2.03192c-4.91762,-0.51701 -8.76443,-2.26496 -8.5921,-3.90417c0.17234,-1.63921 4.29856,-2.54893 9.21618,-2.03192c4.91762,0.51701 8.76443,2.26496 8.5921,3.90417z" fill="#000000"/></g><g><path d="M310.82084,188.63893c0,0 1.23019,-11.70121 1.71207,-16.28471c0.3521,-3.34904 1.83256,-8.51248 8.99487,-7.84458c7.67641,0.71584 7.91973,5.93214 7.57908,9.17234c-0.4836,4.59986 -1.7552,16.6949 -1.7552,16.6949c0,0 -1.47062,2.22508 -8.87283,1.55553c-6.73526,-0.60921 -7.658,-3.29348 -7.658,-3.29348z" fill="#bc47ff"/><path d="M310.81315,188.63812c0,0 1.23019,-11.70121 1.71207,-16.28471c0.34942,-3.32358 1.81012,-8.43407 8.83248,-7.85881c-1.05144,1.42478 -1.93733,2.63355 -2.78608,8.03882c-1.07964,6.87569 -2.00075,18.14245 -2.05352,19.13994c-0.43928,-0.07872 -0.84548,-0.16726 -1.22101,-0.26325c0.56509,-5.18206 1.10587,-10.36681 1.6258,-15.55359c0.00058,-0.00551 0.0011,-0.01101 0.00155,-0.0165c0.01105,-0.12587 -1.23728,5.50308 -2.18312,10.4339c-0.34019,1.7735 -0.77209,3.32738 -0.90847,4.67224c-2.5692,-0.99748 -3.01971,-2.30804 -3.01971,-2.30804z" fill="#000000"/></g></g></g></g></svg>