<svg version="1.1" xmlns="http://www.w3.org/2000/svg" xmlns:xlink="http://www.w3.org/1999/xlink" width="59.62363" height="128.14791" viewBox="0,0,59.62363,128.14791"><g transform="translate(-290.05,-80.4324)"><g data-paper-data="{&quot;isPaintingLayer&quot;:true}" fill-rule="nonzero" stroke="none" stroke-linecap="butt" stroke-linejoin="miter" stroke-miterlimit="10" stroke-dasharray="" stroke-dashoffset="0" style="mix-blend-mode: normal"><g><path d="M299.98645,87.55873c0,-2.07107 1.67893,-3.75 3.75,-3.75c2.07107,0 3.75,1.67893 3.75,3.75c0,2.07107 -1.67893,3.75 -3.75,3.75c-2.07107,0 -3.75,-1.67893 -3.75,-3.75z" fill="#000000" stroke-width="0.5"/><path d="M333.48645,86.7254c0,-2.07107 1.67893,-3.75 3.75,-3.75c2.07107,0 3.75,1.67893 3.75,3.75c0,2.07107 -1.67893,3.75 -3.75,3.75c-2.07107,0 -3.75,-1.67893 -3.75,-3.75z" fill="#000000" stroke-width="0.5"/><path d="M292.54499,92.04382c0,-3.21278 2.60448,-5.81725 5.81725,-5.81725c3.21278,0 5.81725,2.60448 5.81725,5.81725c0,3.21278 -2.60448,5.81725 -5.81725,5.81725c-3.21278,0 -5.81725,-2.60448 -5.81725,-5.81725z" fill="#000000" stroke-width="0.5"/><path d="M336.47255,91.3833c0,-3.21278 2.60448,-5.81725 5.81725,-5.81725c3.21278,0 5.81725,2.60448 5.81725,5.81725c0,3.21278 -2.60448,5.81725 -5.81725,5.81725c-3.21278,0 -5.81725,-2.60448 -5.81725,-5.81725z" fill="#000000" stroke-width="0.5"/><path d="M293.12072,192.13715c0.48909,-10.33016 1.20557,-27.19414 1.20557,-37.33959c0,-15.3477 -1.6514,-45.96087 -1.6514,-45.96087c0,0 0.48502,-28.40429 27.48603,-28.40429c27.0085,0 27.53098,28.40429 27.53098,28.40429c0,0 -1.6514,31.16441 -1.6514,46.62143c0,10.01638 0.70852,26.48844 1.1974,36.66165c0.25747,5.35811 2.43573,8.9689 2.43573,8.9689c0,0 -0.00766,0.03539 -0.02806,0.10196c-1.00876,-0.84092 -2.30659,1.29541 -3.72258,1.29541c-2.55666,0 -1.09497,2.97043 -1.87527,5.26312c-1.12964,0.38445 -5.73618,-2.85676 -6.43311,-1.91716c-1.66562,0.20323 -3.11386,1.11044 -4.03813,2.41507c-1.06688,-1.29918 -2.68562,-2.1279 -4.4979,-2.1279c-1.96281,0 -3.69856,0.97211 -4.75209,2.46114c-0.97204,-1.85561 -2.91635,-3.1217 -5.15637,-3.1217c-1.71204,0 -3.25133,0.73958 -4.31582,1.91667c-0.99205,-0.78645 -2.24667,-1.25611 -3.61095,-1.25611c-1.91576,0 -3.61524,0.92608 -4.67519,2.35499c-1.0337,-1.61487 -2.84336,-2.68527 -4.90301,-2.68527c-0.51315,0 -1.01081,0.06646 -1.4848,0.1912c0.02366,-0.21317 0.03583,-0.42983 0.03583,-0.64932c0,-3.21278 -2.60448,-2.84471 -5.81725,-2.84471c-1.30209,0 -2.50428,-2.54475 -3.47364,-1.82203c0.56734,-1.09948 1.9932,-4.25432 2.1955,-8.5269z" fill="#a8ba9a" stroke-width="NaN"/><path d="M329.07857,206.11917c-1.96281,0 -3.69856,0.97211 -4.75209,2.46114c-0.97204,-1.85561 -2.91635,-3.1217 -5.15637,-3.1217c-1.71204,0 -3.25133,0.73958 -4.31582,1.91667c-0.99205,-0.78645 -2.24667,-1.25611 -3.61095,-1.25611c-1.91576,0 -3.61524,0.92608 -4.67519,2.35499c-1.0337,-1.61487 -2.84336,-2.68527 -4.90301,-2.68527c-0.51315,0 -1.01081,0.06646 -1.4848,0.1912c0.02366,-0.21317 0.03583,-0.42983 0.03583,-0.64932c0,-3.21278 -2.60448,-2.84471 -5.81725,-2.84471c-1.30209,0 -2.50428,-2.54475 -3.47364,-1.82203c0.45619,-0.88404 1.46739,-3.09692 1.95132,-6.15119c1.37029,0.09654 2.7537,0.14566 4.14856,0.14566c17.78946,0 33.71386,-7.98513 44.38447,-20.56666c-6.11347,9.20743 -9.67486,20.25604 -9.67486,32.13648c0,0.17771 0.00079,0.3552 0.00237,0.53253c-0.79685,-0.41016 -1.70066,-0.64169 -2.65858,-0.64169z" fill-opacity="0.09804" fill="#000000" stroke-width="NaN"/><path d="M320.16091,80.4324c23.86823,0 27.05143,22.18314 27.46899,27.34162c-7.22735,-12.71081 -19.10551,-22.43225 -33.31957,-26.84943c1.79688,-0.31911 3.74296,-0.49216 5.85057,-0.49216z" fill-opacity="0.09804" fill="#000000" stroke-width="NaN"/><path d="M302.21819,122.22442c-0.54012,0.21605 -0.75617,-0.32407 -0.75617,-0.32407l-0.085,-0.21247c-1.19263,-3.05431 -1.21052,-7.45367 -0.18529,-10.52932c0,0 0.18396,-0.55187 0.73584,-0.36793c0.55187,0.18396 0.36793,0.73584 0.36793,0.73584c-0.93616,2.80848 -0.97609,6.96483 0.16179,9.72931l0.085,0.21249c0,0 0.21605,0.5401 -0.32407,0.75615z" fill-opacity="0.09804" fill="#000000" stroke-width="0.5"/><path d="M347.23789,192.11975c0.25747,5.35811 2.43573,8.9689 2.43573,8.9689c0,0 -0.00766,0.03539 -0.02806,0.10196c-1.00876,-0.84092 -2.30659,1.29541 -3.72258,1.29541c-2.55666,0 -1.09497,2.97043 -1.87527,5.26312c-1.12964,0.38445 -5.73618,-2.85676 -6.43311,-1.91716c-1.66562,0.20323 -3.11386,1.11044 -4.03813,2.41507c-1.06688,-1.29918 -2.68562,-2.1279 -4.4979,-2.1279c-1.96281,0 -3.69856,0.97211 -4.75209,2.46114c-0.97204,-1.85561 -2.91635,-3.1217 -5.15637,-3.1217c-1.71204,0 -3.25133,0.73958 -4.31582,1.91667c-0.99205,-0.78645 -2.24667,-1.25611 -3.61095,-1.25611c-1.91576,0 -3.61524,0.92608 -4.67519,2.35499c-1.0337,-1.61487 -2.84336,-2.68527 -4.90301,-2.68527c-0.51315,0 -1.01081,0.06646 -1.4848,0.1912c0.02366,-0.21317 0.03583,-0.42983 0.03583,-0.64932c0,-3.21278 -2.60448,-2.84471 -5.81725,-2.84471c-1.30209,0 -2.50428,-2.54475 -3.47364,-1.82203c0.14639,-0.28365 0.3499,-0.70412 0.57479,-1.24529c5.51818,1.73659 11.39113,2.67291 17.48277,2.67291c14.5523,0 27.85659,-5.34345 38.05781,-14.17534c0.06806,1.48701 0.13445,2.89713 0.19723,4.20343z" fill-opacity="0.09804" fill="#000000" stroke-width="NaN"/><path d="M302.90636,116.88002c0,-5.40169 3.3801,-12.10754 6.59288,-12.10754c3.21278,0 7.36853,5.93022 7.36853,11.33191c0,5.40169 -3.3801,11.33191 -6.59288,11.33191c-3.21278,0 -7.36853,-5.15457 -7.36853,-10.55626z" fill-opacity="0.09804" fill="#000000" stroke-width="0.5"/><path d="M323.49897,116.10437c0,-5.40169 4.15575,-11.33191 7.36853,-11.33191c3.21278,0 6.59288,6.70585 6.59288,12.10754c0,5.40169 -4.15575,10.55626 -7.36853,10.55626c-3.21278,0 -6.59288,-5.93022 -6.59288,-11.33191z" fill-opacity="0.09804" fill="#000000" stroke-width="0.5"/></g><path d="" fill-opacity="0.09804" fill="#000000" stroke-width="0.5"/><g fill="#1a090d" stroke-width="0.5"><path d="M304.48411,116.26826c1.69664,1.32587 3.83223,2.11601 6.15237,2.11601c1.98458,0 3.83413,-0.57811 5.38944,-1.57512c-0.14189,1.57131 -0.50616,3.01985 -1.03714,4.25202c-1.49022,-0.88209 -3.22918,-1.38837 -5.08639,-1.38837c-1.60999,0 -3.13112,0.38047 -4.47837,1.0564c-0.51373,-1.30185 -0.84703,-2.82245 -0.93991,-4.46093z"/><path d="M324.27459,115.32879c0,-5.40169 11.6345,-5.40169 11.6345,0c0,5.40169 -2.60448,9.78064 -5.81725,9.78064c-3.21278,0 -5.81725,-4.37895 -5.81725,-9.78064z"/></g><path d="M325.47382,136.42004c-1.16125,0.45593 -7.03986,0.45592 -7.82944,0.33337c-1.14035,-0.17699 -1.08217,-2.15568 -0.45735,-2.93022c0.46951,-0.58202 5.64706,-2.5646 7.97782,-0.45537c2.33076,2.10922 1.29283,2.66594 0.30896,3.05223z" fill="#1a090d" stroke-width="0.5"/><g stroke-width="0.5"><path d="M302.65591,94.34448c2.40185,0 4.46372,1.45564 5.35157,3.53284c0.98488,-0.76522 2.22226,-1.22086 3.56607,-1.22086c0.66903,0 1.3117,0.11295 1.90994,0.32081c1.066,-1.20931 2.62661,-1.97221 4.36543,-1.97221c2.10373,0 3.94663,1.1167 4.96831,2.78967c0.42015,-0.09645 0.85765,-0.14743 1.30707,-0.14743c1.88779,0 3.56553,0.89921 4.62832,2.29267c0.67606,-2.46396 2.93183,-4.27438 5.61044,-4.27438c1.29813,0 2.49695,0.42519 3.46478,1.14393c0.78621,-2.10987 2.76192,-3.64047 5.11171,-3.77636c0.49915,2.87399 1.18907,2.34626 2.58027,4.79403c1.3912,2.44777 1.35985,5.22591 1.44417,5.3448c-1.02979,0.92387 -2.19091,1.48584 -3.68328,1.48584c-1.29813,0 -2.49695,-0.42519 -3.46478,-1.14393c-0.82398,2.21123 -2.95449,3.78619 -5.45286,3.78619c-1.88779,0 -7.56015,1.98171 -10.23876,1.98171c-2.10373,0 -3.94663,-1.1167 -4.96831,-2.78967c-0.42015,0.09645 -0.85765,0.14743 -1.30707,0.14743c-0.66903,0 -1.3117,-0.11295 -1.90994,-0.32081c-1.066,1.20931 -2.62661,1.97221 -4.36543,1.97221c-1.5314,0 -2.92459,-0.59175 -3.96339,-1.55905c-1.0388,0.96732 -2.43198,1.55905 -3.96339,1.55905c-2.69076,0 -4.95483,-1.82687 -5.61954,-4.30793c-0.61719,0.22299 -1.28287,0.34454 -1.97696,0.34454c-0.91465,0 -1.78001,-0.2111 -2.55,-0.58722c0.78844,-5.42685 0.90285,-4.36751 0.90285,-6.68162c0,-1.36982 -0.11017,-2.71391 -0.32214,-4.02389c0.61502,-0.22123 1.27807,-0.34177 1.96928,-0.34177c1.7831,0 3.37885,0.80227 4.44594,2.06552c0.66775,-0.26715 1.39656,-0.4141 2.15971,-0.4141z" fill-opacity="0.09804" fill="#000000"/><path d="M302.65591,91.51114c2.40185,0 4.46372,1.45564 5.35157,3.53284c0.98488,-0.76522 2.22226,-1.22086 3.56607,-1.22086c0.66903,0 1.3117,0.11295 1.90994,0.32081c1.066,-1.20931 2.62661,-1.97221 4.36543,-1.97221c2.10373,0 3.94663,1.1167 4.96831,2.78967c0.42015,-0.09645 0.85765,-0.14743 1.30707,-0.14743c1.88779,0 3.56553,0.89921 4.62832,2.29267c0.67606,-2.46396 2.93183,-4.27438 5.61044,-4.27438c1.29813,0 2.49695,0.42519 3.46478,1.14393c0.82398,-2.21123 2.95449,-3.78619 5.45286,-3.78619c3.21278,0 5.81725,2.60448 5.81725,5.81725c0,3.21278 -2.60448,5.81725 -5.81725,5.81725c-1.29813,0 -2.49695,-0.42519 -3.46478,-1.14393c-0.82398,2.21123 -2.95449,3.78619 -5.45286,3.78619c-1.88779,0 -3.56553,-0.89921 -4.62832,-2.29267c-0.67606,2.46396 -2.93183,4.27438 -5.61044,4.27438c-2.10373,0 -3.94663,-1.1167 -4.96831,-2.78967c-0.42015,0.09645 -0.85765,0.14743 -1.30707,0.14743c-0.66903,0 -1.3117,-0.11295 -1.90994,-0.32081c-1.066,1.20931 -2.62661,1.97221 -4.36543,1.97221c-1.5314,0 -2.92459,-0.59175 -3.96339,-1.55905c-1.0388,0.96732 -2.43198,1.55905 -3.96339,1.55905c-2.69076,0 -4.95483,-1.82687 -5.61954,-4.30793c-0.61719,0.22299 -1.28287,0.34454 -1.97696,0.34454c-3.21278,0 -5.81725,-2.60448 -5.81725,-5.81725c0,-3.21278 2.60448,-5.81725 5.81725,-5.81725c1.7831,0 3.37885,0.80227 4.44594,2.06552c0.66775,-0.26715 1.39656,-0.4141 2.15971,-0.4141z" fill="#1a090d"/><path d="M290.05,95.70427c0,-2.34586 1.38855,-4.36743 3.3886,-5.28758c-0.80948,0.9994 -1.29439,2.27245 -1.29439,3.65875c0,3.21278 2.60448,5.81725 5.81725,5.81725c0.86691,0 -0.26773,1.62883 -2.09421,1.62883c-3.21278,0 -5.81725,-2.60448 -5.81725,-5.81725z" fill="#4a314d"/><path d="M343.67045,102.21961c-1.82648,0 -3.45636,-0.84176 -4.52284,-2.1585c0.73912,0.34003 1.56172,0.52967 2.42863,0.52967c3.21278,0 5.81725,-2.60448 5.81725,-5.81725c0,-1.3863 -0.48493,-2.65935 -1.29441,-3.65875c2.00004,0.92015 3.38862,2.94171 3.38862,5.28758c0,3.21278 -2.60448,5.81725 -5.81725,5.81725z" data-paper-data="{&quot;index&quot;:null}" fill="#ace894"/><path d="M334.82822,105.01189c-1.82648,0 -3.45636,-0.84176 -4.52287,-2.1585c0.73912,0.34003 1.56172,0.52967 2.42863,0.52967c3.21278,0 5.81725,-2.60448 5.81725,-5.81725c0,-1.3863 -0.48493,-2.65935 -1.29439,-3.65875c2.00004,0.92015 3.38862,2.94171 3.38862,5.28758c0,3.21278 -2.60448,5.81725 -5.81725,5.81725z" data-paper-data="{&quot;index&quot;:null}" fill="#4a314d"/><path d="M296.79801,100.12538c0,-2.34586 1.38855,-4.36741 3.38862,-5.28758c-0.80946,0.9994 -1.29441,2.27245 -1.29441,3.65875c0,3.21278 2.60448,5.81725 5.81725,5.81725c0.86691,0 2.35621,-0.18964 3.0953,-0.52967c-1.06649,1.31675 -3.36304,2.1585 -5.18951,2.1585c-3.21278,0 -5.81725,-2.60448 -5.81725,-5.81725z" fill="#6b6570"/><path d="M305.21353,101.07468c-0.42871,-2.30635 0.56702,-4.54762 2.36522,-5.81781c-0.61318,1.1305 -0.8573,2.47073 -0.60395,3.83369c0.58715,3.15867 3.62373,5.24332 6.7824,4.65617c0.85232,-0.15844 2.29308,-0.49521 2.95762,-0.96459c-0.8079,1.48947 -2.92316,2.61492 -4.71887,2.94872c-3.15867,0.58715 -6.19526,-1.4975 -6.7824,-4.65617z" fill="#ace894"/><path d="M311.69018,98.26381c0,-3.21278 2.60448,-5.81725 5.81725,-5.81725c3.21278,0 5.81725,2.60448 5.81725,5.81725c0,3.21278 -2.60448,5.81725 -5.81725,5.81725c-3.21278,0 -5.81725,-2.60448 -5.81725,-5.81725z" fill="#6b6570"/><path d="M319.83432,95.0062c0,-3.21278 2.60448,-5.81725 5.81725,-5.81725c3.21278,0 5.81725,2.60448 5.81725,5.81725c0,3.21278 -2.60448,5.81725 -5.81725,5.81725c-3.21278,0 -5.81725,-2.60448 -5.81725,-5.81725z" fill="#6b6570"/><path d="M318.2055,101.75416c0,-3.21278 2.60448,-5.81725 5.81725,-5.81725c3.21278,0 5.81725,2.60448 5.81725,5.81725c0,3.21278 -2.60448,5.81725 -5.81725,5.81725c-3.21278,0 -5.81725,-2.60448 -5.81725,-5.81725z" fill="#6b6570"/><path d="M314.01707,91.05049c0,-3.21278 2.60448,-5.81725 5.81725,-5.81725c3.21278,0 5.81725,2.60448 5.81725,5.81725c0,3.21278 -2.60448,5.81725 -5.81725,5.81725c-3.21278,0 -5.81725,-2.60448 -5.81725,-5.81725z" fill="#6b6570"/><path d="M317.22269,94.4929c0.24558,0.03162 0.49593,0.04791 0.75012,0.04791c2.24886,0 4.19966,-1.2761 5.16784,-3.14367c0.80627,0.91806 1.89705,1.58006 3.13461,1.84823c-0.68544,0.95442 -1.08906,2.1249 -1.08906,3.38964c0,0.84529 0.18029,1.64845 0.5045,2.37316c-0.24144,-0.03053 -0.48749,-0.04626 -0.73719,-0.04626c-1.86133,0 -3.51848,0.87419 -4.58327,2.23438c-0.15339,-0.07274 -0.3031,-0.15197 -0.44877,-0.23737c0.09526,-0.41766 0.14557,-0.85244 0.14557,-1.29895c0,-2.14112 -1.15675,-4.01207 -2.8794,-5.02199c0.01108,-0.04861 0.02278,-0.09699 0.03507,-0.14511z" fill="#1a090d"/></g></g></g></svg>