<svg version="1.1" xmlns="http://www.w3.org/2000/svg" xmlns:xlink="http://www.w3.org/1999/xlink" width="93.36936" height="249.99816" viewBox="0,0,93.36936,249.99816"><g transform="translate(-273.11532,-55.50166)"><g data-paper-data="{&quot;isPaintingLayer&quot;:true}" fill-rule="nonzero" stroke-linejoin="miter" stroke-miterlimit="10" stroke-dasharray="" stroke-dashoffset="0" style="mix-blend-mode: normal"><g stroke-linecap="butt"><path d="M281.72365,304.39156c0,0 -0.63536,-94.38387 -0.79335,-118.01201c-0.05451,-8.15261 8.18688,-36.76129 40.20201,-36.9211c31.60235,-0.15775 39.85672,29.48704 39.84884,36.89673c-0.07659,46.24274 0.65429,117.98648 0.65429,117.98648l-10.49667,0.09614l-0.15882,-114.84311c0,0 0.07549,-3.0993 -2.81625,-3.15415c-3.43441,-0.06514 -2.94538,3.11562 -2.94538,3.11562l0.20548,114.86995l-48.21366,0.07222l-0.30539,-115.23309c0,0 0.27949,-2.919 -2.8856,-2.93443c-3.11083,-0.01515 -2.81569,2.90899 -2.81569,2.90899l0.35311,115.0668z" fill="#ffffff" stroke="#000000" stroke-width="2"/><path d="M336.32082,200.33374c-0.57113,0 -1.03411,-0.46299 -1.03411,-1.03411c0,-0.57113 0.46299,-1.03413 1.03411,-1.03413c0.57113,0 1.03411,0.463 1.03411,1.03413c0,0.57113 -0.46299,1.03411 -1.03411,1.03411z" fill="#000000" stroke="none" stroke-width="1.5"/><path d="M331.06094,204.56934c-4.4635,-0.31439 -6.55245,-1.79392 -6.16985,-2.58011c0.11788,-0.24224 2.84645,1.06355 6.97038,1.3048c6.40897,0.37493 8.51033,-0.63173 8.51033,-0.63173v1.34616c0,0 -2.4135,1.04672 -9.31086,0.56089z" fill="#000000" stroke="#000000" stroke-width="0"/><path d="M303.24819,199.29963c0,-0.57113 0.46299,-1.03413 1.03411,-1.03413c0.57113,0 1.03413,0.463 1.03413,1.03413c0,0.57113 -0.463,1.03411 -1.03413,1.03411c-0.57113,0 -1.03411,-0.46299 -1.03411,-1.03411z" fill="#000000" stroke="none" stroke-width="1.5"/><path d="M309.54218,204.56934c-6.89736,0.48585 -9.31086,-0.56089 -9.31086,-0.56089v-1.34616c0,0 2.10136,1.00666 8.51033,0.63173c4.12393,-0.24126 6.85251,-1.54704 6.97039,-1.3048c0.3826,0.78618 -1.70634,2.26571 -6.16985,2.58011z" fill="#000000" stroke="#000000" stroke-width="0"/><path d="M320.82264,261.12108c-0.81895,0 -1.48284,-0.66389 -1.48284,-1.48284c0,-0.81895 0.66389,-1.48284 1.48284,-1.48284c0.81895,0 1.48284,0.66389 1.48284,1.48284c0,0.81895 -0.66389,1.48284 -1.48284,1.48284z" data-paper-data="{&quot;index&quot;:null}" fill="#000000" stroke="none" stroke-width="1.5"/></g><g><path d="M276.5378,103.88006c0,0 6.16329,-5.92187 6.29161,-6.78761c0.33654,-2.27063 -0.16776,-40.17317 35.96775,-41.57382c44.63633,-0.91362 39.01489,35.34872 41.53088,42.1903c3.44981,9.38084 6.15664,17.40016 6.15664,17.40016c0,0 -2.76715,-2.05351 -4.0797,-3.13397c-1.2242,-1.00773 -3.80143,-3.14585 -3.80143,-3.14585c0,0 3.09111,10.3481 1.31092,20.69498c-1.5623,9.48098 -7.29782,17.22543 -7.29782,17.22543l-1.15522,-2.34735c0,0 -1.02266,2.19794 -2.16005,3.33274c-1.1374,1.13479 -3.43873,2.91273 -3.43873,2.91273l-0.09205,-3.70421c0,0 -7.0601,11.01795 -24.35066,10.87154c-16.30625,-0.25547 -26.07151,-10.6752 -26.07151,-10.6752l-0.1162,2.65484c0,0 -3.89477,-3.29276 -6.18145,-9.70754c-2.72545,-7.64567 -3.23946,-12.24324 -3.23946,-12.24324c0,0 -2.33908,1.89916 -5.71704,2.7744c-4.23278,1.09673 -6.94665,0.34526 -6.94665,0.34526c0,0 3.60795,-2.71717 5.58396,-4.76989c1.76007,-1.8284 2.64658,-3.37722 2.64658,-3.37722c0,0 -2.10758,1.0847 -4.23277,1.61795c-2.21739,0.5564 -4.03008,0.53093 -4.03008,0.53093c0,0 4.97492,-5.03728 7.03074,-10.87429c1.94102,-5.51108 2.09972,-10.95731 2.09972,-10.95731c0,0 -1.36165,0.66163 -3.33013,0.79513c-1.24776,0.08463 -2.37785,-0.0489 -2.37785,-0.0489z" fill="#000000" stroke="none" stroke-width="1.5" stroke-linecap="butt"/><path d="M293.32369,115.20168c-0.57709,-7.29323 0.335,-17.15448 0.335,-17.15448c0,0 3.41059,-0.04124 13.91429,-3.14424c8.0696,-2.38394 20.54731,-9.48722 20.54731,-9.48722c0,0 -2.16005,3.00503 -3.40781,4.46015c-1.32651,1.54696 -3.99292,4.56297 -3.99292,4.56297c0,0 7.838,-1.66761 14.67476,-4.72931c8.56837,-3.53575 10.59252,-6.05309 12.95042,-4.5927c2.7829,1.72362 1.03006,23.1827 0.71846,28.74062c-0.42163,5.66922 -2.53327,9.49969 -3.15031,12.52053c-0.61704,3.02084 -0.4096,6.13662 -2.20622,16.0397c-1.12121,6.18021 -4.16183,8.92466 -10.01942,14.66081c-5.85759,5.73616 -9.05378,9.25275 -13.01359,9.32173c-3.81077,0.06639 -8.93565,-5.1002 -13.93542,-10.38244c-5.32393,-5.62474 -8.87489,-8.47713 -9.71551,-15.13975c-0.75707,-6.00039 -0.77653,-9.90853 -1.12266,-15.24835c-0.25298,-3.90273 -2.26119,-6.44504 -2.57636,-10.42801z" fill="#ffffff" stroke="#000000" stroke-width="1.5" stroke-linecap="butt"/><path d="M295.02333,125.3249c0,0 -4.93211,-3.51705 -6.16417,-8.97502c-1.29636,-5.74284 -1.46118,-9.7328 0.48013,-9.99193c1.94131,-0.25915 2.70321,2.37692 3.73262,8.35569c1.0294,5.97877 1.95143,10.61127 1.95143,10.61127z" data-paper-data="{&quot;index&quot;:null}" fill="#ffffff" stroke="#000000" stroke-width="1" stroke-linecap="butt"/><path d="M294.82074,121.37734c0,0 -3.56385,-2.92338 -4.31816,-8.45061c-0.42079,-3.08327 2.15675,-2.28016 2.15675,-2.28016" fill="none" stroke="#000000" stroke-width="0.25" stroke-linecap="round"/><path d="M297.83414,114.72144c0.07093,-4.89188 4.83834,-8.93609 10.21137,-8.8582c5.37302,0.0779 9.02724,4.2484 8.95632,9.14029c-0.07093,4.89188 -4.12352,8.79439 -9.49655,8.7165c-5.37302,-0.0779 -9.74207,-4.1067 -9.67114,-8.99859z" fill="#ffffff" stroke="#000000" stroke-width="1.4" stroke-linecap="butt"/><path d="M324.89042,114.72217c0.20353,-4.88817 4.45264,-8.85847 9.77048,-8.85847c5.31783,0 9.27453,3.96607 9.27453,8.85847c0,4.8924 -3.88585,9.07104 -9.69964,9.14188c-5.52997,0.06739 -9.55792,-4.03692 -9.34537,-9.14188z" fill="#ffffff" stroke="#000000" stroke-width="1.4" stroke-linecap="butt"/></g><g><path d="M297.88612,146.65022c0,0 5.35232,-6.40244 9.02221,-6.63048c4.1736,-0.25933 14.57407,2.36652 14.57407,2.36652c0,0 7.31751,-2.51228 10.42564,-1.32986c1.72704,0.65701 3.84683,2.57029 5.72089,4.4647c1.8707,1.89103 3.59052,3.56035 3.59052,3.56035c0,0 -3.92073,14.12617 -21.45214,13.51485c-4.03982,-0.14086 -9.83697,-1.3143 -13.58962,-4.42953c-2.48219,-2.06057 -4.11109,-4.62713 -5.45898,-6.80728c-1.60252,-2.59198 -2.83259,-4.70929 -2.83259,-4.70929z" fill="#000000" stroke="none" stroke-width="0" stroke-linecap="butt"/><path d="M309.68478,158.23433c-5.27276,-3.29566 -8.58086,-10.65456 -8.58086,-10.65456c0,0 2.27061,-0.07811 4.30582,0.70325c4.41396,1.69463 11.1636,5.04839 15.50954,5.20829c6.7284,0.24755 8.55645,-2.31832 12.49616,-3.55682c2.68194,-0.8431 5.51576,-0.56704 5.51576,-0.56704c0,0 -2.96436,6.05267 -7.15071,8.72387c-3.81374,2.43345 -16.53438,3.61903 -22.09571,0.14301z" fill="#ffffff" stroke="none" stroke-width="0" stroke-linecap="butt"/><path d="M301.47471,145.94025c0,0 2.65274,-3.48693 5.6617,-3.86601c3.2583,-0.41049 13.64523,1.98483 13.64523,1.98483c0,0 7.81065,-1.85286 10.73332,-1.10257c2.55612,0.6562 5.40529,4.86494 5.40529,4.86494c0,0 -2.70554,0.00792 -5.65123,-0.38859c-3.49514,-0.47047 -7.53028,-1.36898 -10.6311,-1.53355c-2.98392,-0.15837 -7.55723,-0.00287 -11.5412,0.04529c-4.13167,0.04995 -7.62202,-0.00435 -7.62202,-0.00435z" fill="#ffffff" stroke="none" stroke-width="0" stroke-linecap="butt"/><path d="M309.04896,147.82145c0,0 7.5806,-0.69782 11.42324,-0.50076c3.87977,0.19896 11.74507,1.68888 11.74507,1.68888c0,0 -6.76248,2.91038 -11.38614,2.67327c-4.62366,-0.23711 -11.78217,-3.86139 -11.78217,-3.86139z" fill="#ffffff" stroke="none" stroke-width="0" stroke-linecap="butt"/><path d="M332.3658,149.32307c0,0 -7.74047,0.90141 -11.63445,0.65599c-3.95971,-0.24956 -11.9299,-2.14114 -11.9299,-2.14114" fill="none" stroke="#000000" stroke-width="1" stroke-linecap="round"/></g><path d="M341.47605,100.08132c0,0 1.52429,0.31807 4.2558,1.11029c2.49492,0.72361 4.44935,1.74403 4.44935,1.74403l0.1951,1.17035c0,0 -7.24963,-3.12997 -15.1158,-2.4706c-6.2896,0.52724 -9.96319,2.8124 -9.96319,2.8124l0.04575,-4.17683c0,0 3.12748,-1.70421 7.86366,-1.85557c4.90428,-0.15672 8.09084,0.59125 8.09084,0.59125z" data-paper-data="{&quot;index&quot;:null}" fill="#000000" stroke="none" stroke-width="1.5" stroke-linecap="butt"/><path d="M302.35414,114.83938c0.03999,-2.75843 2.30855,-4.96213 5.06696,-4.92214c2.75843,0.03999 4.96213,2.30855 4.92214,5.06696c-0.03999,2.75843 -2.30854,4.96213 -5.06696,4.92214c-2.75843,-0.03999 -4.96213,-2.30855 -4.92214,-5.06696z" fill="#000000" stroke="none" stroke-width="1.5" stroke-linecap="butt"/><path d="M329.57553,114.80772c0,-2.81845 2.2848,-5.10325 5.10325,-5.10325c2.81845,0 5.10325,2.2848 5.10325,5.10325c0,2.81845 -2.28479,5.10325 -5.10325,5.10325c-2.81845,0 -5.10325,-2.2848 -5.10325,-5.10325z" fill="#000000" stroke="none" stroke-width="1.5" stroke-linecap="butt"/><path d="M301.37792,104.1776c0,0 3.36963,-1.819 8.03244,-2.28178c5.16698,-0.51283 7.76823,-0.06628 7.76823,-0.06628l0.29508,4.13747c0,0 -3.83554,-0.68065 -8.01795,-0.52113c-5.59346,0.21333 -6.64488,1.43293 -10.89774,1.89119c-3.64408,0.39266 -6.73723,0.15884 -6.73723,0.15884l-0.02589,-1.23155c0,0 3.59517,0.07398 5.23371,-0.06836c1.35239,-0.11749 3.9757,-0.93808 3.9757,-0.93808z" fill="#000000" stroke="none" stroke-width="1.5" stroke-linecap="butt"/><path d="M349.33885,114.71363c1.0294,-5.97877 1.7913,-8.61483 3.73262,-8.35569c1.94131,0.25914 1.77649,4.24909 0.48013,9.99193c-1.23206,5.45797 -6.16417,8.97502 -6.16417,8.97502c0,0 0.92203,-4.6325 1.95143,-10.61127z" data-paper-data="{&quot;index&quot;:null}" fill="#ffffff" stroke="#000000" stroke-width="1" stroke-linecap="butt"/><path d="M349.7514,110.64657c0,0 2.57754,-0.80312 2.15675,2.28016c-0.75431,5.52723 -4.31816,8.45061 -4.31816,8.45061" data-paper-data="{&quot;index&quot;:null}" fill="none" stroke="#000000" stroke-width="0.25" stroke-linecap="round"/><g stroke="none" stroke-width="0" stroke-linecap="butt"><path d="M325.59413,138.66879c0,1.02839 -0.16199,3.68161 -1.20052,5.40921c-1.32361,2.20183 -3.5936,3.41432 -3.5936,3.41432c0,0 -4.20588,-6.48444 -4.20588,-8.82353c0,-2.33909 2.01472,-4.23529 4.5,-4.23529c2.48528,0 4.5,1.8962 4.5,4.23529z" fill="#000000"/><path d="M317.71179,138.37467c0,-1.26701 0.99991,-1.70588 2.08823,-1.70588c1.08832,0 3.14706,0.85064 3.14706,2.11765c0,1.26701 -1.11756,5.11765 -2.20588,5.11765c-1.08833,0 -3.02942,-4.26241 -3.02942,-5.52942z" fill="#ffffff"/></g><g stroke="none" stroke-width="0" stroke-linecap="butt"><path d="M319.67375,150.14263l-2.54545,-35.94118l8.18182,0.47601l-0.79774,20.83109c0,0 -0.04775,1.74557 -0.10279,3.75745c-0.04773,1.74452 -0.10092,3.68927 -0.13322,4.86986c-0.05508,2.01356 -0.26572,5.94736 -0.26572,5.94736z" fill="#000000"/><path d="M320.7706,148.81259l-2.2353,-34.68208l5.43627,0.10726l-1.02451,34.51541z" fill="#ffffff"/></g><g stroke="none" stroke-width="0" stroke-linecap="butt"><path d="M323.92585,115.15516c0,0 -0.73763,-10.64959 11.5755,-10.12446c11.32551,0.48301 10.37553,10.93004 10.37553,10.93004z" fill="#000000"/><path d="M325.21605,113.99715c0,0 0.39923,-4.04799 3.57852,-6.12086c1.9315,-1.25931 3.84936,-1.55106 6.54962,-1.6059c8.10518,-0.16458 9.29549,8.12954 9.29549,8.12954z" fill="#ffffff"/></g><g stroke="none" stroke-width="0" stroke-linecap="butt"><path d="M297.26724,115.20551c0,0 -0.71905,-10.6496 11.28381,-10.12447c11.04013,0.48301 10.11409,10.93004 10.11409,10.93004z" fill="#000000"/><path d="M298.52493,114.04751c0,0 0.38916,-4.048 3.48834,-6.12086c1.88282,-1.25931 3.75237,-1.55106 6.38459,-1.60589c7.90095,-0.16458 9.06127,8.12954 9.06127,8.12954z" fill="#ffffff"/></g></g></g></svg>