<svg version="1.1" xmlns="http://www.w3.org/2000/svg" xmlns:xlink="http://www.w3.org/1999/xlink" width="161.6843" height="275.02259" viewBox="0,0,161.6843,275.02259"><g transform="translate(-219.1872,-52.37406)"><g data-paper-data="{&quot;isPaintingLayer&quot;:true}" fill-rule="nonzero" stroke-linecap="butt" stroke-linejoin="miter" stroke-miterlimit="10" stroke-dasharray="" stroke-dashoffset="0" style="mix-blend-mode: normal"><g stroke="#000000" stroke-width="0"><path d="M320.00002,152.70647c33.61838,0 60.87149,20.76571 60.87149,33.02065c0,12.25493 -0.38345,134.86356 -60.87149,134.51391c-59.90704,-0.34629 -60.87149,-122.25897 -60.87149,-134.5139c0,-12.25493 27.2531,-33.02064 60.87149,-33.02064z" fill="#1a090d"/><path d="M320.00002,152.70647c28.09666,0 55.8775,12.66813 55.8775,28.29507c0,15.62694 -16.56991,146.39511 -55.8775,146.39511c-39.30759,0 -55.8775,-130.76816 -55.8775,-146.39511c0,-15.62694 27.78085,-28.29507 55.8775,-28.29507z" fill="#4a314d"/><path d="M359.1335,169.7591c0,18.66926 -17.60435,76.9717 -39.13346,76.9717c-21.52912,0 -39.13346,-58.30244 -39.13346,-76.9717c0,-18.66926 78.26693,-18.66926 78.26693,0z" fill="#6b6570"/><path d="M320.00002,140.10343c21.62676,0 39.15872,7.64692 39.15872,17.07987c0,8.12708 -3.57131,32.88919 -21.00549,38.89735c-2.80133,0.96538 -18.15323,-9.04229 -18.15323,-9.04229c0,0 -15.86808,9.90666 -18.89535,8.7758c-17.06008,-6.37287 -20.26336,-30.6195 -20.26336,-38.63085c0,-9.43295 17.53196,-17.07987 39.15872,-17.07987z" fill="#a8ba9a"/><path d="M302.50356,230.60977c0,-10.41111 7.83343,-41.84 17.49645,-41.84c9.66302,0 17.49645,31.4289 17.49645,41.84c0,10.41111 -17.49645,18.85099 -17.49645,18.85099c0,0 -17.49645,-8.43989 -17.49645,-18.85099z" fill="#ace894"/><path d="M320.00002,141.78757c17.02532,0 30.82708,6.01991 30.82708,13.44585c0,7.42594 -13.86769,29.84323 -30.82708,29.84323c-16.95939,0 -30.82707,-22.41729 -30.82707,-29.84323c0,-7.42594 13.80175,-13.44585 30.82707,-13.44585z" fill="#000000"/><path d="M327.40254,194.67573c0,0 4.39893,4.95447 -7.68026,4.64747c-10.40888,-0.26456 -7.69706,-4.75933 -7.69706,-4.75933z" fill="#4a314d"/><path d="M320.00002,175.0314c9.66302,0 16.10784,1.75038 16.10784,5.9651c0,4.21473 -6.44482,16.93805 -16.10784,16.93805c-9.66302,0 -16.10784,-12.72333 -16.10784,-16.93805c0,-4.21472 6.44482,-5.9651 16.10784,-5.9651z" fill="#ace894"/></g><g stroke="none"><path d="M350.47417,104.67387c0,25.32045 -1.61793,52.84672 -30.08677,52.84672c-29.38056,0 -30.08679,-27.52628 -30.08679,-52.84672c0,-25.32045 60.17357,-25.32045 60.17357,0z" fill="#1a090d" stroke-width="NaN"/><path d="M346.90361,106.26744c0,22.31552 -1.42593,40.40584 -26.51621,40.40584c-25.89381,0 -26.51623,-18.09032 -26.51623,-40.40584c0,-22.31552 53.03244,-22.31552 53.03244,0z" fill="#000000" stroke-width="NaN"/><path d="M301.56856,142.38097c0,-1.77067 2.64931,-8.33578 2.64931,-8.33578c0,0 2.64931,6.56512 2.64931,8.33578c0,1.77067 -1.18614,3.20607 -2.64931,3.20607c-1.46317,0 -2.64931,-1.43541 -2.64931,-3.20607z" fill="#ace894" stroke-width="0.5"/><path d="M333.36024,142.38097c0,-1.77067 2.64931,-8.33578 2.64931,-8.33578c0,0 2.6493,6.56512 2.6493,8.33578c0,1.77067 -1.18613,3.20607 -2.6493,3.20607c-1.46317,0 -2.64931,-1.43541 -2.64931,-3.20607z" fill="#ace894" stroke-width="0.5"/></g><g stroke="none"><g><path d="M362.97417,98.89568c0,12.84198 -0.43059,24.62962 -4.20366,33.86273c-4.9284,12.06032 -71.9326,12.44355 -76.81153,0.90327c-3.95785,-9.36163 -4.15837,-21.50138 -4.15837,-34.76601c0,-29.61621 85.17357,-29.61621 85.17357,0z" fill="#1a090d" stroke-width="NaN"/><path d="M315.1309,141.54352c-13.2013,8.78467 -50.16021,-1.56651 -50.16021,-1.56651c0,0 8.62688,-10.73984 19.01111,-20.01529c10.01905,-8.94929 44.35041,12.79713 31.14911,21.5818z" fill="#4a314d" stroke-width="NaN"/><path d="M375.80415,139.97708c0,0 -36.95891,10.35117 -50.16021,1.56651c-13.2013,-8.78466 21.02213,-30.60111 31.00973,-21.7061c10.4463,9.30354 19.15049,20.13961 19.15049,20.13961z" data-paper-data="{&quot;index&quot;:null}" fill="#4a314d" stroke-width="NaN"/><path d="M312.77681,115.26279c14.50142,9.64983 15.55539,24.59394 2.35409,33.37861c-13.2013,8.78467 -46.2887,-1.56651 -46.2887,-1.56651c0,0 29.43317,-41.46193 43.93461,-31.8121z" fill="#4a314d" stroke-width="NaN"/><path d="M325.64391,148.6413c-13.2013,-8.78467 -12.14733,-23.72878 2.35409,-33.3786c14.50142,-9.64982 43.93459,31.8121 43.93459,31.8121c0,0 -33.08738,10.35117 -46.28868,1.5665z" data-paper-data="{&quot;index&quot;:null}" fill="#4a314d" stroke-width="NaN"/><g fill="#ace894" stroke-width="0"><path d="M332.64637,132.89641c0,1.32106 -5.48855,8.07301 -12.259,8.07301c-6.77047,0 -12.25899,-6.75193 -12.25899,-8.07301c0,-1.32106 24.51799,-1.32106 24.51799,0z"/><path d="M326.96539,133.61551c0,2.27982 -2.94507,13.93194 -6.57799,13.93194c-3.63292,0 -6.57799,-11.65212 -6.57799,-13.93194c0,-2.27982 13.15599,-2.27982 13.15599,0z"/></g></g><g><g><path d="M310.91015,100.18019c-9.64983,14.50142 -24.59394,15.55539 -33.37861,2.35409c-8.78467,-13.2013 1.56651,-50.16022 1.56651,-50.16022c0,0 41.46193,33.30471 31.8121,47.80613z" fill="#1a090d" stroke-width="NaN"/><path d="M277.53156,102.53428c-8.78467,-13.2013 1.56651,-50.16022 1.56651,-50.16022c0,0 7.21816,63.36152 -1.56651,50.16022z" fill="#4a314d" stroke-width="NaN"/></g><g><path d="M361.67672,52.37406c0,0 10.35118,36.95892 1.56651,50.16022c-8.78467,13.2013 -23.72879,12.14733 -33.3786,-2.35409c-9.64981,-14.50142 31.8121,-47.80613 31.8121,-47.80613z" data-paper-data="{&quot;index&quot;:null}" fill="#1a090d" stroke-width="NaN"/><path d="M361.67672,52.37406c0,0 10.35118,36.95892 1.56651,50.16022c-8.78467,13.2013 -1.5665,-50.16022 -1.5665,-50.16022z" data-paper-data="{&quot;index&quot;:null}" fill="#4a314d" stroke-width="NaN"/></g></g><g stroke-width="0"><g><path d="M316.19257,122.18697c-1.00386,5.55076 -9.17305,8.7203 -18.24641,7.07938c-9.07335,-1.64092 -15.61498,-7.47094 -14.61112,-13.0217c1.00386,-5.55076 9.17307,-9.7203 18.24643,-8.07938c9.07335,1.64092 15.61497,8.47094 14.61111,14.0217z" fill="#ace894"/><path d="M306.60909,120.49198c-0.72236,6.0316 -2.74872,9.91594 -5.01056,9.64504c-2.26185,-0.27089 -3.90269,-4.5944 -3.18034,-10.62601c0.72236,-6.0316 5.40339,-10.43073 5.40339,-10.43073c0,0 3.50986,5.38009 2.7875,11.41169z" fill="#1a090d"/></g><g data-paper-data="{&quot;index&quot;:null}"><path d="M339.1933,108.16529c9.07335,-1.64092 17.24256,2.52862 18.24642,8.07938c1.00386,5.55076 -5.53776,11.38077 -14.61111,13.0217c-9.07335,1.64092 -17.24256,-1.52862 -18.24642,-7.07938c-1.00386,-5.55076 5.53776,-12.38078 14.61111,-14.0217z" fill="#ace894"/><path d="M336.95321,109.0803c0,0 4.68103,4.39911 5.40339,10.43072c0.72236,6.0316 -0.91848,10.35513 -3.18033,10.62601c-2.26185,0.27089 -4.2882,-3.61345 -5.01056,-9.64504c-0.72236,-6.0316 2.78749,-11.41169 2.78749,-11.41169z" fill="#1a090d"/></g></g></g><path d="M302.35182,230.60977c0,0 6.89511,10.3556 17.64819,10.3556c10.75308,0 17.64819,-10.3556 17.64819,-10.3556c0,0 -0.69414,3.60507 -1.58795,5.28064c-4.18261,7.84086 -16.06024,13.57035 -16.06024,13.57035c0,0 -12.30653,-5.9364 -16.27727,-13.9933c-0.76381,-1.54982 -1.37092,-4.85769 -1.37092,-4.85769z" fill-opacity="0.10588" fill="#000000" stroke="#000000" stroke-width="0"/><path d="M242.00453,113.99099c-0.47476,2.45451 -2.92927,1.97975 -2.92927,1.97975l-0.65454,-0.1266c-3.69164,-0.71405 -7.09682,-1.08252 -10.85824,-1.125c-1.04894,-0.01184 -2.18077,0.52645 -3.14499,0.11329c-0.16877,-0.07233 -0.33431,-0.15046 -0.497,-0.23365l-0.03367,0.08228l-3.10321,-1.27c-1.10735,-0.42795 -1.78383,-1.59952 -1.55046,-2.80603c0.16155,-0.8352 0.72141,-1.49229 1.44448,-1.81237l2.57709,-1.17936c3.65351,-1.63061 6.64011,-4.58014 9.70765,-7.15354c0.49718,-0.41708 0.94732,-0.90013 1.42847,-1.33874c-0.28871,-0.09627 -0.57909,-0.18198 -0.8732,-0.20136c-4.22416,-0.27829 -8.06389,-0.14224 -12.1896,-1.33278c0,0 -2.39509,-0.71664 -1.67845,-3.11172c0.71664,-2.39508 3.11172,-1.67845 3.11172,-1.67845c4.53759,1.4206 9.30114,0.41551 13.8671,1.65597c1.54089,0.41863 3.975,-0.01658 4.55928,1.46942c0.70873,1.80252 -0.81651,3.85898 -1.81062,5.52125c-0.72967,1.2201 -2.10931,1.90702 -3.18659,2.83467c-2.23516,1.92473 -4.46175,3.90223 -6.87962,5.57079c0.32011,0.02438 0.65208,0.04404 0.99793,0.05c3.19651,0.05521 5.91723,0.42815 9.06144,1.03631l0.65454,0.1266c0,0 2.45451,0.47476 1.97975,2.92927z" fill-opacity="0.25098" fill="#ace895" stroke="none" stroke-width="0.5"/><path d="M257.19096,128.96796c0.50324,1.67608 -1.17284,2.17932 -1.17284,2.17932l-0.68906,0.18203c-1.91593,0.93497 -7.33021,5.51964 -9.53201,2.75673c-0.79742,-1.00063 0.26589,-2.55608 0.59877,-3.79152c0.47511,-1.76327 1.13655,-3.64629 1.65381,-5.47556c0.00777,-0.02747 0.20117,-1.32259 0.52032,-2.44717c-0.19233,0.11507 -0.37362,0.22021 -0.51764,0.31058c-2.801,1.75764 -5.00979,3.07588 -8.36889,3.60606c0,0 -1.7304,0.26115 -1.99155,-1.46926c-0.26114,-1.73041 1.46926,-1.99155 1.46926,-1.99155c3.68457,-0.52469 5.66345,-3.03679 9.00265,-4.08866c1.16456,-0.36684 2.54744,-1.41564 3.58174,-0.7668c0.97074,0.60897 0.50643,2.24356 0.59374,3.38617c0.12473,1.63251 -0.59018,5.67479 -1.61009,8.31866c1.06358,-0.57469 2.23265,-1.08154 3.05601,-1.48876l1.22646,-0.3931c0,0 1.67608,-0.50324 2.17932,1.17284z" fill-opacity="0.25098" fill="#ace895" stroke="none" stroke-width="0.5"/></g></g></svg>