<svg version="1.1" xmlns="http://www.w3.org/2000/svg" xmlns:xlink="http://www.w3.org/1999/xlink" width="123.41736" height="285.90536" viewBox="0,0,123.41736,285.90536"><g transform="translate(-259.00417,-31.76307)"><g data-paper-data="{&quot;isPaintingLayer&quot;:true}" fill-rule="nonzero" stroke-linejoin="miter" stroke-miterlimit="10" stroke-dasharray="" stroke-dashoffset="0" style="mix-blend-mode: normal"><path d="M294.85194,224.0152c-13.80712,0 -25,-15.0642 -25,-33.64685c0,-6.66309 1.9217,-10.70004 1.9217,-18.09994c0,-7.3999 -0.9217,-11.43682 -0.9217,-18.09993c0,-8.82053 2.51644,-11.37307 3.98139,-19.25967c1.46496,-7.88659 0.85167,-9.18691 0.85167,-12.14262c0,-18.58264 11.19288,-33.64685 25,-33.64685c5.54163,0 10.66213,2.4267 14.80685,6.53358c2.19317,-0.84648 4.50981,-1.29988 6.90513,-1.29988c0.87752,0 1.74448,0.06085 2.59868,0.17959c3.91517,-3.42421 8.58713,-5.4133 13.60428,-5.4133c13.80712,0 25,15.0642 25,33.64685c0,2.95571 -0.06886,7.18695 0.85168,12.14262c0.92053,4.95568 3.98139,10.43913 3.98139,19.25967c0,6.66308 -0.9217,10.70003 -0.9217,18.09993c0,7.39989 1.9217,11.43685 1.9217,18.09993c0,18.58264 -11.19288,33.64685 -25,33.64685c-2.2883,0 -47.38655,0 -49.58107,0z" fill="#000000" stroke="none" stroke-width="0.5" stroke-linecap="butt"/><g><path d="M281.0304,304.3916c0,0 -0.63536,-94.38387 -0.79335,-118.01201c-0.05451,-8.15261 8.18688,-36.76129 40.20201,-36.9211c31.60235,-0.15775 39.85672,29.48704 39.84884,36.89673c-0.07659,46.24274 0.65429,117.98648 0.65429,117.98648l-10.49667,0.09614l-0.15882,-114.84311c0,0 0.07549,-3.0993 -2.81625,-3.15415c-3.43441,-0.06514 -2.94538,3.11562 -2.94538,3.11562l0.20548,114.86995l-48.21366,0.07222l-0.30539,-115.23309c0,0 0.27949,-2.919 -2.8856,-2.93443c-3.11083,-0.01515 -2.81569,2.90899 -2.81569,2.90899l0.35311,115.0668z" fill="#3c162f" stroke="#3c162f" stroke-width="2" stroke-linecap="butt"/><path d="M349.86912,164.29372c0.22294,0.00464 0.36599,0.03065 0.36599,0.03065c6.42805,1.30295 11.70571,7.01155 13.02781,13.44184c0.58412,2.84097 0.10456,5.50958 0.48121,8.30591c0.26509,1.96811 0.84013,3.93798 0.68676,5.91794c-0.30532,3.94154 -1.4873,7.75293 -1.80418,11.72537c-0.23426,2.93668 -0.44121,5.37566 -0.00857,8.31163c0.38871,4.30661 -0.13617,8.64947 0.23381,12.93975c0.42088,4.8805 1.59034,9.41922 1.12626,14.40953c-0.27141,2.91843 -1.46621,5.09588 -2.36649,7.75886c-0.85874,2.54013 0.1354,5.07649 0.33798,7.60592c0.38123,4.76001 -1.02195,9.21945 0.18541,13.92696c0.31601,2.09587 1.22161,4.06927 1.59133,6.15634c0.68367,3.85929 -0.48321,8.14774 -0.64266,12.02679c-0.16501,4.01404 0.30388,7.40949 -0.7614,11.37309l-0.30726,0.92694c0.41292,0.87808 1.01928,1.69725 1.18391,2.65096c0.26744,1.54933 1.04537,3.49517 0.05516,4.71641c-2.63373,3.2482 -9.4287,-0.31608 -12.80555,0.0548c-1.67996,0.18451 -6.54799,1.57822 -8.24065,0.1791c-2.98289,-2.4656 -1.10109,-6.74246 -0.9661,-9.73952c0.13372,-2.96903 -0.55363,-5.7832 -0.45229,-8.76729c0.1275,-3.7545 0.6787,-7.43651 0.67532,-11.19613c0,-2.83285 0.45621,-6.33883 0.02258,-9.14077c-0.36084,-2.33161 -1.39903,-4.5451 -1.59312,-6.89647c-0.48203,-5.8396 -0.01024,-11.9386 -0.0084,-17.7972c0.00351,-11.1339 -0.01304,-22.07647 0.69263,-33.21202c0.28416,-1.70887 0.55858,-3.42169 0.75771,-5.14256c-1.70945,-0.14038 -2.07916,-1.98895 -2.07916,-1.98895l-0.23879,-1.63676c-3.63891,-7.68359 -0.3323,-17.37588 2.87428,-24.6361c1.81982,-4.12036 2.65214,-7.76469 5.52587,-11.38912c0,0 1.02637,-1.28297 2.45062,-0.9159z" data-paper-data="{&quot;index&quot;:null}" fill="#3c162f" stroke="none" stroke-width="0.5" stroke-linecap="butt"/><path d="M340.71617,179.06156c1.48681,1.4284 4.39153,3.56091 7.14037,4.63948c-0.2306,0.8427 -0.35372,1.72982 -0.35372,2.64568c0,2.46782 3.39393,15.72686 4.87564,17.47095c0.14387,15.02251 -5.26528,27.98592 -4.57782,51.06486c0.75763,25.43473 5.13258,49.47338 5.65583,51.94861c-1.37367,0.10567 -10.66141,0.51435 -11.37878,-0.07862c-2.98289,-2.4656 -1.10108,-6.74246 -0.9661,-9.73952c0.13372,-2.96903 0.2264,-16.20381 0.22303,-19.96342c0,-2.83285 0.45621,-6.33884 0.02258,-9.14077c-0.36084,-2.33161 -1.39904,-4.54511 -1.59313,-6.89648c-0.48203,-5.8396 -0.01024,-11.93861 -0.0084,-17.7972c0.00351,-11.1339 -0.01303,-22.07647 0.69263,-33.21202c0.28416,-1.70887 0.55858,-3.42169 0.75771,-5.14256c-1.70945,-0.14038 -2.07916,-1.98895 -2.07916,-1.98895l-0.23879,-1.63676c-3.24104,-6.84349 -0.97234,-15.28046 1.82811,-22.17327z" data-paper-data="{&quot;index&quot;:null}" fill-opacity="0.09804" fill="#000000" stroke="none" stroke-width="0.5" stroke-linecap="butt"/><path d="M292.96463,165.20961c2.87373,3.62443 3.70606,7.26876 5.52587,11.38912c3.20658,7.26022 6.51318,16.95251 2.87427,24.6361l-0.23879,1.63676c0,0 -0.36971,1.84857 -2.07916,1.98895c0.19913,1.72087 0.47355,3.43369 0.75771,5.14256c0.70566,11.13555 0.68912,22.07812 0.69263,33.21202c0.00184,5.85859 0.47363,11.9576 -0.0084,17.7972c-0.19409,2.35137 -1.23229,4.56487 -1.59313,6.89648c-0.43363,2.80193 0.02258,6.30792 0.02258,9.14077c-0.00337,3.75961 0.54783,7.44163 0.67532,11.19613c0.10133,2.98409 -0.58601,5.79826 -0.45229,8.76729c0.13498,2.99706 2.01679,7.27392 -0.9661,9.73952c-1.69266,1.39912 -6.56069,0.0054 -8.24065,-0.17911c-3.37685,-0.37088 -10.17183,3.1934 -12.80555,-0.0548c-0.99021,-1.22124 -0.21228,-3.16708 0.05516,-4.71641c0.16463,-0.95372 0.77098,-1.77288 1.18391,-2.65097l-0.30726,-0.92693c-1.06528,-3.96361 -0.5964,-7.35905 -0.76141,-11.37309c-0.15945,-3.87905 -1.32633,-8.1675 -0.64266,-12.02679c0.36973,-2.08706 1.27532,-4.06047 1.59133,-6.15634c1.20737,-4.70751 -0.19582,-9.16694 0.18541,-13.92696c0.20258,-2.52943 1.19672,-5.06578 0.33798,-7.60592c-0.90027,-2.66298 -2.09508,-4.84042 -2.36648,-7.75886c-0.46408,-4.99031 0.70537,-9.52902 1.12625,-14.40953c0.36998,-4.29027 -0.1549,-8.63313 0.23381,-12.93974c0.43264,-2.93597 0.2257,-5.37495 -0.00857,-8.31163c-0.31688,-3.97243 -1.49887,-7.78382 -1.80418,-11.72536c-0.15337,-1.97995 0.42166,-3.94983 0.68676,-5.91794c0.37665,-2.79633 -0.10291,-5.46494 0.48121,-8.30591c1.32211,-6.43028 6.59976,-12.13888 13.02781,-13.44184c0,0 0.14305,-0.02601 0.36599,-0.03065c1.42425,-0.36707 2.45062,0.9159 2.45062,0.9159z" fill="#3c162f" stroke="none" stroke-width="0.5" stroke-linecap="butt"/><path d="M292.96463,165.20961c2.87373,3.62443 3.70606,7.26876 5.52587,11.38912c2.83017,6.40797 5.73826,14.71055 3.88002,21.85442c-0.28347,-2.78666 -8.70759,-6.27495 -11.93791,-8.95713c-7.40792,-6.15089 -13.05563,-10.90176 -12.84953,-13.4825c1.83956,-5.69018 6.72797,-10.50598 12.56493,-11.68913c0,0 0.14305,-0.02601 0.36599,-0.03065c1.42425,-0.36707 2.45062,0.9159 2.45062,0.9159z" fill="#5c162e" stroke="none" stroke-width="0.5" stroke-linecap="butt"/><path d="M347.56947,165.20963c0,0 1.02637,-1.28297 2.45062,-0.9159c0.22294,0.00464 0.36599,0.03065 0.36599,0.03065c5.83696,1.18314 10.72537,5.99895 12.56493,11.68913c0.2061,2.58074 -5.44161,7.33161 -12.84953,13.4825c-3.23032,2.68218 -11.65445,6.17047 -11.93791,8.95714c-1.85825,-7.14387 1.04985,-15.44645 3.88002,-21.85442c1.81981,-4.12036 2.65214,-7.76469 5.52587,-11.38912z" data-paper-data="{&quot;index&quot;:null}" fill="#5c162e" stroke="none" stroke-width="0.5" stroke-linecap="butt"/><path d="M301.36476,201.23483l-0.23879,1.63676c0,0 -0.36971,1.84857 -2.07916,1.98895c0.19913,1.72087 0.47355,3.43369 0.75771,5.14256c0.70566,11.13555 0.68912,22.07812 0.69263,33.21202c0.00184,5.85859 0.47363,11.9576 -0.0084,17.7972c-0.19409,2.35137 -1.23229,4.56487 -1.59313,6.89648c-0.43363,2.80193 0.02258,6.30792 0.02258,9.14077c-0.00337,3.75961 0.08931,16.99439 0.22303,19.96342c0.13498,2.99706 2.01679,7.27392 -0.9661,9.73952c-0.71738,0.59297 -10.00511,0.18429 -11.37878,0.07862c0.52325,-2.47522 4.89821,-26.51387 5.65583,-51.94861c0.68746,-23.07895 -4.72169,-36.04235 -4.57782,-51.06486c1.48171,-1.7441 4.87564,-15.00313 4.87564,-17.47095c0,-0.91587 -0.12312,-1.80298 -0.35372,-2.64568c2.74884,-1.07857 5.65356,-3.21107 7.14037,-4.63947c2.80045,6.89281 5.06915,15.32978 1.82811,22.17327z" fill-opacity="0.09804" fill="#000000" stroke="none" stroke-width="0.5" stroke-linecap="butt"/><path d="M291.60548,310.78571c0,0 3.78594,-42.5121 3.78594,-59.78371c0,-12.55697 -3.78594,-34.28772 -3.78594,-34.28772h56.78905c0,0 -3.15495,20.85158 -3.15495,33.40854c0,17.27161 3.15495,60.66288 3.15495,60.66288z" fill="#5c162e" stroke="none" stroke-width="0" stroke-linecap="butt"/><path d="M291.60548,310.78571c0,0 3.78594,-42.5121 3.78594,-59.78371c0,-12.55697 -3.78594,-34.28772 -3.78594,-34.28772h56.78905c0,0 -3.15495,20.85158 -3.15495,33.40854c0,17.27161 3.15495,60.66288 3.15495,60.66288zM342.58334,250.01338c0,-12.42641 -45,-12.42641 -45,0c0,7.86593 0.66667,19.59028 0.66667,27.16667c0,20.50751 45,20.50751 45,0c0,-7.86593 -0.66667,-19.59028 -0.66667,-27.16667z" fill-opacity="0.09804" fill="#000000" stroke="none" stroke-width="0" stroke-linecap="butt"/><path d="M355.55927,206.49648c0,21.48025 -12.56951,24.81852 -29.14848,26.51948c-1.13871,0.11683 -5.41078,84.65247 -5.41078,84.65247c0,0 -5.70831,-84.49429 -6.70941,-84.5848c-16.92453,-1.53016 -29.84985,-5.47808 -29.84985,-26.58715c0,-18.32226 15.92043,-42.51218 35.55926,-42.51218c19.63883,0 35.55926,24.18992 35.55926,42.51218z" fill="#3c162f" stroke="none" stroke-width="0" stroke-linecap="butt"/><path d="M355.55927,206.49648c0,18.32226 -15.92042,23.83861 -35.55926,23.83861c-19.63883,0 -35.55926,-5.51634 -35.55926,-23.83861c0,-18.32226 15.92043,-42.51218 35.55926,-42.51218c19.63883,0 35.55926,24.18992 35.55926,42.51218z" fill="#5c162e" stroke="none" stroke-width="0" stroke-linecap="butt"/><path d="M355.55927,206.49648c0,18.32226 -15.92042,23.83861 -35.55926,23.83861c-19.63883,0 -35.55926,-5.51634 -35.55926,-23.83861c0,-18.32226 15.92043,-42.51218 35.55926,-42.51218c19.63883,0 35.55926,24.18992 35.55926,42.51218zM320.63812,219.75215c0,0 28.35739,-2.93166 28.35739,-16.73878c0,-13.80712 -26.5617,-24.43615 -29.30027,-23.40544c-2.47217,-0.81831 -28.35739,9.93166 -28.35739,23.73878c0,13.80712 29.30026,16.40544 29.30026,16.40544z" fill="#531429" stroke="none" stroke-width="0" stroke-linecap="butt"/><path d="M354.67435,157.31585c0,7.808 -11.23665,28.93286 -25.5945,35.85065c-2.92026,1.40702 -9.07984,-1.77368 -9.07984,-1.77368c0,0 -5.52713,3.34166 -8.16819,2.19178c-14.79099,-6.43976 -26.50615,-28.29622 -26.50615,-36.26874c0,-9.39608 15.52423,-17.01311 34.67434,-17.01311c19.15011,0 34.67434,7.61703 34.67434,17.01311z" fill="#7c162e" stroke="none" stroke-width="0" stroke-linecap="butt"/><path d="M348.95609,153.79224c0,12.70675 -28.95608,35.13893 -28.95608,35.13893c0,0 -28.95608,-22.43215 -28.95608,-35.13893c0,-12.70675 57.91217,-12.70675 57.91217,0z" fill="#5c162e" stroke="none" stroke-width="0" stroke-linecap="butt"/><path d="M346.89693,153.30411c0,12.05591 -26.89692,33.3391 -26.89692,33.3391c0,0 -26.89692,-21.28317 -26.89692,-33.3391c0,-12.05591 53.79384,-12.05591 53.79384,0z" fill="#110e1b" stroke="none" stroke-width="0" stroke-linecap="butt"/><path d="M344.4643,159.51477c0,24.158 -24.5,47.99192 -24.5,47.99192c0,0 -24.5,-23.83392 -24.5,-47.99192c0,-6.30151 49,-5.78188 49,0z" fill="none" stroke="#110e1b" stroke-width="1" stroke-linecap="butt"/><path d="M316.95198,196.35139l2.97435,2.74555l2.97435,-2.97435l-2.97435,6.63508z" fill="#3c162f" stroke="#3c162f" stroke-width="0" stroke-linecap="round"/><g stroke-width="0"><path d="M345.48554,258.54671c0,0 0.7718,2.35941 0.97628,4c0.20447,1.64059 -0.02813,3.30261 0.19526,5.4c0.22338,2.09739 0.97628,3.32707 0.97628,5.6c0,2.27293 -0.97628,4.4 -0.97628,4.4c0,0 -3.25005,1.8704 -28.11674,2.2c-23.50088,0.3115 -24.60215,-2.2 -24.60215,-2.2c0,0 -1.21553,-2.92658 -1.17153,-5c0.044,-2.07342 0.90406,-2.42462 0.97628,-4.2c0.07222,-1.77538 -0.76773,-3.20994 -0.58577,-5.4c0.18197,-2.19006 1.7573,-4 1.7573,-4c0,0 3.50101,3.90175 23.82113,3.4c24.02362,-0.5932 26.74995,-4.2 26.74995,-4.2z" fill="#191528" stroke="#000000" stroke-linecap="round"/><path d="M293.93818,277.94671c0,0 -1.21553,-2.92658 -1.17153,-5c0.044,-2.07342 0.90406,-2.42462 0.97628,-4.2c0.07222,-1.77538 -0.76773,-3.20994 -0.58577,-5.4c0.18197,-2.19006 1.7573,-4 1.7573,-4c0,0 0.8686,0.96803 4.25165,1.87774c-0.62726,2.09169 -0.96485,4.31325 -0.96485,6.61558c0,4.35026 1.2053,8.41216 3.2925,11.85444c-7.07616,-0.65444 -7.55557,-1.74776 -7.55557,-1.74776z" fill="#110e1b" stroke="#000000" stroke-linecap="butt"/><path d="M345.48554,258.54671c0,0 0.7718,2.35941 0.97628,4c0.20447,1.64059 -0.02813,3.30261 0.19526,5.4c0.22338,2.09739 0.97628,3.32707 0.97628,5.6c0,2.27293 -0.97628,4.4 -0.97628,4.4c0,0 -1.17845,0.6782 -7.54555,1.2898c1.92057,-3.34234 3.02213,-7.23764 3.02213,-11.39648c0,-2.5798 -0.42387,-5.05819 -1.20418,-7.36609c3.85117,-0.9947 4.55605,-1.92723 4.55605,-1.92723z" fill="#110e1b" stroke="#000000" stroke-linecap="butt"/><path d="M305.76739,270.51338l29.45099,-1.33333c0,0 -9.12445,3.88731 -15.29499,4.16667c-6.17054,0.27936 -14.156,-2.83333 -14.156,-2.83333z" fill="#110e1b" stroke="#110e1b" stroke-linecap="round"/></g><g stroke="#110e1b" stroke-width="0" stroke-linecap="butt"><path d="M325.52387,215.25c0,3.93503 -2.47312,7.125 -5.52388,7.125c-3.05075,0 -5.52388,-3.18997 -5.52388,-7.125c0,-3.93503 5.52388,-7.125 5.52388,-7.125c0,0 5.52388,3.18997 5.52388,7.125z" fill="#7c162e"/><path d="M325.52387,215.25c0,3.93503 -2.47312,7.125 -5.52387,7.125c-1.59163,0 -3.02603,-0.86827 -4.03404,-2.25762c3.98388,-0.17826 7.15904,-3.46452 7.15904,-7.49238c0,-0.86129 -0.14519,-1.68867 -0.41241,-2.459c1.39722,1.29283 2.81128,3.09305 2.81128,5.084z" fill="#6f1429"/></g></g><path d="M292.7128,117.20172c-0.57709,-7.29323 0.335,-17.15448 0.335,-17.15448c0,0 3.41059,-0.04124 13.91429,-3.14424c8.0696,-2.38394 20.54731,-9.48722 20.54731,-9.48722c0,0 -2.16005,3.00503 -3.40781,4.46015c-1.32651,1.54696 -3.99292,4.56297 -3.99292,4.56297c0,0 7.838,-1.66761 14.67476,-4.72931c8.56837,-3.53575 10.59252,-6.05309 12.95042,-4.5927c2.7829,1.72362 1.03006,23.1827 0.71846,28.74062c-0.42163,5.66922 -2.53327,9.49969 -3.15031,12.52053c-0.61704,3.02084 -0.4096,6.13662 -2.20622,16.0397c-1.12121,6.18021 -1.91183,8.92466 -7.76942,14.66081c-1.60378,1.57053 -5.25805,2.97468 -6.53312,4.18724c-3.38192,3.21613 -5.85484,5.0844 -8.73047,5.13449c-2.18395,0.03805 -4.79952,-1.64264 -7.57579,-4.07884c-2.06803,-1.81471 -7.22523,-4.04862 -9.35963,-6.3036c-5.32393,-5.62474 -5.87489,-8.47713 -6.71551,-15.13975c-0.75707,-6.00039 -0.77653,-9.90853 -1.12266,-15.24835c-0.25298,-3.90273 -2.26119,-6.44504 -2.57636,-10.42801z" fill="#ffffff" stroke="#000000" stroke-width="1.5" stroke-linecap="butt"/><g stroke="none" stroke-width="0" stroke-linecap="butt"><path d="M298.14042,149.87954c0,0 8.06794,-3.74967 10.07102,-4.60593c1.14628,-0.49 3.87574,-0.9936 5.51184,-0.7438c3.95558,0.60395 6.64404,2.65688 6.64404,2.65688c0,0 5.39476,-2.62233 8.81628,-1.80941c3.42152,0.81292 10.9821,6.84077 10.9821,6.84077c0,0 -1.17079,14.97826 -19.93409,14.55958c-21.46003,-0.47886 -22.09117,-16.89808 -22.09117,-16.89808z" fill="#000000"/><path d="M311.93442,146.59777c4.03109,-0.02175 4.78808,1.38851 8.69025,2.13568c1.61369,0.30897 5.74169,-2.19704 7.34738,-1.85816c1.85079,0.39062 7.91643,4.00539 7.91643,4.00539c0,0 -4.99133,0.25716 -9.36114,0.06715c-2.54447,-0.11063 -4.14208,-0.66492 -6.35202,-0.7437c-2.14548,-0.07648 -5.12805,-0.07672 -7.97344,-0.15906c-5.11887,-0.14809 -9.97173,-0.36421 -9.97173,-0.36421c0,0 7.10517,-3.0691 9.70429,-3.08312z" fill="#ffffff"/><path d="M309.08023,151.82606c2.79511,0.83049 7.34115,5.98863 11.13912,6.01884c6.49739,0.05166 6.39083,-4.79949 11.71737,-4.92229c3.24533,-0.14331 6.38844,-0.17603 6.38844,-0.17603c0,0 -1.49006,12.72166 -18.60467,12.15782c-19.44342,-1.28206 -19.46843,-13.57181 -19.46843,-13.57181c0,0 7.00248,-0.04896 8.82817,0.49348z" fill="#ffffff"/></g><path d="M320.34494,146.62882c-1.03376,0 -3.2881,-3.01042 -3.5367,-5.1137c-0.22243,-1.88186 1.06512,-4.07799 3.5367,-4.07799c2.47159,0 3.9521,0.74077 3.77999,4.43853c-0.14607,3.13818 -1.30841,4.75317 -3.77999,4.75317z" fill="#ffffff" stroke="#000000" stroke-width="1.15" stroke-linecap="butt"/><path d="M323.94705,116.5351c0,0 0.1026,3.96976 0.00576,7.12662c-0.19174,6.25113 -1.08147,27.7607 -1.08147,27.7607l-2.98167,0.00864c0,0 -0.80294,-4.17274 -1.12322,-9.49979c-0.43353,-7.21063 -0.4495,-16.29321 -0.76344,-19.63229c-0.29758,-3.16513 -0.89593,-5.71453 -0.89593,-5.71453" fill="#ffffff" stroke="#000000" stroke-width="1.3" stroke-linecap="round"/><path d="M292.7128,120.97633c-0.57709,-8.1956 0.335,-19.27697 0.335,-19.27697c0,0 3.41059,-0.04634 13.91429,-3.53327c8.0696,-2.6789 20.54731,-10.66105 20.54731,-10.66105c0,0 -2.16005,3.37684 -3.40781,5.01199c-1.32651,1.73836 -3.99292,5.12753 -3.99292,5.12753c0,0 7.838,-1.87393 14.67476,-5.31445c8.56837,-3.97322 10.59252,-6.80202 12.95042,-5.16094c2.7829,1.93688 1.03006,26.05105 0.71846,32.29663c-0.42163,6.37066 -2.53327,10.67507 -3.15031,14.06967c-0.61704,3.3946 -49.66669,5.15962 -50.01282,-0.84089c-0.25298,-4.3856 -2.26119,-7.24247 -2.57636,-11.71824z" fill="#000000" stroke="#000000" stroke-width="1.5" stroke-linecap="butt"/><path d="" fill-opacity="0.09804" fill="#000000" stroke="#000000" stroke-width="0" stroke-linecap="butt"/><g><g stroke="#000000" stroke-width="0" stroke-linecap="round"><path d="M320.41893,126.86332c-47.69703,1.01555 -61.41476,-23.48188 -61.41476,-23.48188c0,0 29.7817,-14.50434 29.78126,-14.55377c0.29548,-22.96231 64.31358,-20.41985 64.2894,-2.655c-0.00005,0.03254 29.3467,15.88781 29.3467,15.88781c0,0 -16.50044,23.83402 -62.00261,24.80284z" fill="#3c162f"/><path d="M320.41893,122.50118c-47.69703,1.01555 -61.41476,-19.11974 -61.41476,-19.11974c0,0 29.78171,-14.50434 29.78126,-14.55377c0.29547,-22.96231 31.83825,-57.0646 31.83825,-57.0646c0,0 32.47533,36.64475 32.45115,54.40961c-0.00005,0.03254 29.3467,15.88781 29.3467,15.88781c0,0 -16.50044,19.47188 -62.00261,20.44069z" fill="#7c162e"/><path d="M259.00417,103.38144c0,0 29.78171,-14.50434 29.78126,-14.55377c0.10321,-8.0208 4.01898,-17.40082 9.07124,-26.21186c4.18286,7.95742 12.52934,13.38419 22.14333,13.38419c10.18039,0 18.93955,-6.08506 22.83869,-14.81642c5.69521,9.03331 10.2452,18.33545 10.23614,24.9891c-0.00005,0.03254 29.3467,15.88781 29.3467,15.88781c0,0 -4.00934,4.73136 -13.52537,9.64561c-1.15819,-12.73193 -11.86239,-22.7061 -24.89616,-22.7061c-5.108,0 -9.85819,1.53193 -13.81622,4.1614c-3.11056,-1.38911 -6.55698,-2.1614 -10.18378,-2.1614c-3.11877,0 -6.10416,0.57109 -8.8573,1.6144c-3.35496,-1.6732 -7.13891,-2.6144 -11.1427,-2.6144c-13.76216,0 -24.92707,11.1201 -24.99964,24.86519c-11.8048,-5.33151 -15.99619,-11.48375 -15.99619,-11.48375z" fill-opacity="0.10588" fill="#000000"/></g><g stroke="none" stroke-linecap="butt"><path d="M283.42742,90.73622c0,0 3.45175,-2.68498 4.45699,-4.42489c0.95206,-1.64787 1.42358,-5.75347 1.42358,-5.75347c0,0 7.96303,6.23174 31.2123,6.30089c25.75983,0.07661 32.117,-6.78557 32.117,-6.78557c0,0 1.3256,3.35365 2.33921,4.72932c1.21237,1.64543 4.44607,4.47967 4.44607,4.47967c0,0 -13.51321,9.40547 -38.90228,9.20899c-26.30363,-0.20356 -37.09288,-7.75494 -37.09288,-7.75494z" fill="#3c162f" stroke-width="0"/><path d="M352.63729,80.07318c0,0 1.3256,3.35365 2.33921,4.72932c1.21237,1.64543 4.44607,4.47967 4.44607,4.47967c0,0 -4.57652,3.18536 -13.40687,5.80988c0.09848,-0.90157 0.14902,-1.81755 0.14902,-2.74534c0,-2.92959 -0.50391,-5.74148 -1.42977,-8.35374c5.98723,-1.85255 7.90234,-3.91979 7.90234,-3.91979z" fill-opacity="0.10588" fill="#000000" stroke-width="0"/><path d="M283.42742,90.73622c0,0 3.45175,-2.68498 4.45699,-4.42489c0.95206,-1.64787 1.42358,-5.75347 1.42358,-5.75347c0,0 2.35702,1.84457 8.25038,3.53775c-0.90284,2.58322 -1.39365,5.35984 -1.39365,8.2511c0,1.15332 0.0781,2.2884 0.22929,3.40024c-8.99603,-2.23174 -12.9666,-5.01073 -12.9666,-5.01073z" fill-opacity="0.10588" fill="#000000" stroke-width="0"/><path d="M338.59798,91.59342c0,0 -11.87806,3.27581 -19.87558,3.19084c-7.99752,-0.08498 -16.93971,-3.58201 -16.93971,-3.58201c0,0 10.63349,0.90174 17.48056,0.9745c6.84707,0.07276 19.33473,-0.58332 19.33473,-0.58332z" fill-opacity="0.10588" fill="#000000" stroke-width="0.5"/></g></g></g></g></svg>