<svg version="1.1" xmlns="http://www.w3.org/2000/svg" xmlns:xlink="http://www.w3.org/1999/xlink" width="34.17311" height="34.17311" viewBox="0,0,34.17311,34.17311"><g transform="translate(-302.91346,-162.91348)"><g data-paper-data="{&quot;isPaintingLayer&quot;:true}" stroke="none" stroke-miterlimit="10" stroke-dasharray="" stroke-dashoffset="0" style="mix-blend-mode: normal"><path d="M309.98312,162.91349h20.03379c3.9166,0 7.06966,3.15307 7.06966,7.06966v20.03379c0,3.91659 -3.15306,7.06966 -7.06966,7.06966h-20.03379c-3.91659,0 -7.06966,-3.15307 -7.06966,-7.06966v-20.03379c0,-3.91659 3.15307,-7.06966 7.06966,-7.06966z" fill-opacity="0.35294" fill="#ff2e5f" fill-rule="evenodd" stroke-width="4.43922" stroke-linecap="round" stroke-linejoin="round"/><g><path d="M328.58467,176.00453c0,0 -4.98083,4.46117 -8.24946,3.60101c-3.26863,-0.86017 -5.40836,-7.19517 -5.40836,-7.19517l9.10521,-6.85287z" fill="#000000" fill-rule="nonzero" stroke-width="0" stroke-linecap="butt" stroke-linejoin="miter"/><path d="M326.02253,176.54311c0,0 -3.55965,3.85588 -5.7448,3.28084c-2.18515,-0.57504 -3.38573,-5.68361 -3.38573,-5.68361l6.45535,-5.98097z" fill="#ff2e5f" fill-rule="nonzero" stroke-width="0" stroke-linecap="butt" stroke-linejoin="miter"/><path d="M316.54198,173.98169l9.86334,2.59562l4.26212,-2.05365l-4.51024,17.13892l-4.45325,2.77996l-9.86334,-2.59562l-2.50804,-4.61188l4.51024,-17.13892z" fill="#000000" fill-rule="evenodd" stroke-width="4.43922" stroke-linecap="round" stroke-linejoin="round"/><path d="M311.89074,182.04258c1.06064,-4.03044 5.18778,-6.43794 9.21822,-5.3773c4.03044,1.06064 6.43795,5.18778 5.3773,9.21823c-1.06064,4.03044 -5.18779,6.43794 -9.21823,5.37729c-4.03044,-1.06064 -6.43794,-5.18778 -5.37729,-9.21822z" fill="#ff2e5f" fill-rule="nonzero" stroke-width="0" stroke-linecap="butt" stroke-linejoin="miter"/><path d="M318.53452,182.93814c0.55513,-0.32383 1.25429,-0.16078 1.59254,0.41909c0.33825,0.57986 0.16259,1.25323 -0.41909,1.59255c-0.58168,0.33931 -1.25315,0.16272 -1.59254,-0.41909c-0.33939,-0.58181 -0.13603,-1.26872 0.41909,-1.59255z" fill="#000000" fill-rule="nonzero" stroke-width="0" stroke-linecap="butt" stroke-linejoin="miter"/><path d="M311.97964,181.8921l0.84548,0.2225l-0.08558,0.32519l-0.84548,-0.2225z" fill="#000000" fill-rule="nonzero" stroke-width="0" stroke-linecap="butt" stroke-linejoin="miter"/><path d="M325.63746,185.48626l0.84548,0.2225l-0.08558,0.32519l-0.84548,-0.2225z" fill="#000000" fill-rule="nonzero" stroke-width="0" stroke-linecap="butt" stroke-linejoin="miter"/><path d="M312.62671,187.59609l0.5809,-0.33886l0.16943,0.29045l-0.5809,0.33886z" fill="#000000" fill-rule="nonzero" stroke-width="0" stroke-linecap="butt" stroke-linejoin="miter"/><path d="M324.99997,180.37836l0.5809,-0.33886l0.16943,0.29045l-0.58091,0.33887z" fill="#000000" fill-rule="nonzero" stroke-width="0" stroke-linecap="butt" stroke-linejoin="miter"/><path d="M315.55543,177.40123l0.33886,0.5809l-0.29045,0.16943l-0.33886,-0.5809z" fill="#000000" fill-rule="nonzero" stroke-width="0" stroke-linecap="butt" stroke-linejoin="miter"/><path d="M322.77317,189.77449l0.33886,0.5809l-0.29045,0.16943l-0.33886,-0.5809z" fill="#000000" fill-rule="nonzero" stroke-width="0" stroke-linecap="butt" stroke-linejoin="miter"/><path d="M317.03087,191.14906l0.2225,-0.84548l0.32519,0.08558l-0.2225,0.84548z" fill="#000000" fill-rule="nonzero" stroke-width="0" stroke-linecap="butt" stroke-linejoin="miter"/><path d="M320.62502,177.49127l0.2225,-0.84548l0.32519,0.08558l-0.2225,0.84548z" fill="#000000" fill-rule="nonzero" stroke-width="0" stroke-linecap="butt" stroke-linejoin="miter"/><path d="M318.88001,183.66776l1.63315,-7.46245l1.17286,0.30865l-2.25161,7.2997z" fill="#000000" fill-rule="nonzero" stroke-width="0" stroke-linecap="butt" stroke-linejoin="miter"/><path d="M319.32095,183.69648l5.45109,1.10384l2.01154,1.19767l-2.32019,-0.0248l-5.28834,-1.72232z" fill="#000000" fill-rule="nonzero" stroke-width="0" stroke-linecap="butt" stroke-linejoin="miter"/></g></g></g></svg>