<svg version="1.1" xmlns="http://www.w3.org/2000/svg" xmlns:xlink="http://www.w3.org/1999/xlink" width="121.74298" height="273.02261" viewBox="0,0,121.74298,273.02261"><g transform="translate(-259.12854,-54.37403)"><g data-paper-data="{&quot;isPaintingLayer&quot;:true}" fill-rule="nonzero" stroke-linecap="butt" stroke-linejoin="miter" stroke-miterlimit="10" stroke-dasharray="" stroke-dashoffset="0" style="mix-blend-mode: normal"><g stroke="#000000" stroke-width="0"><path d="M320.00003,152.70646c33.61838,0 60.87149,20.76571 60.87149,33.02065c0,12.25493 -0.38345,134.86356 -60.87149,134.51391c-59.90704,-0.34629 -60.87149,-122.25897 -60.87149,-134.5139c0,-12.25493 27.2531,-33.02064 60.87149,-33.02064z" fill="#1a090d"/><path d="M320.00003,152.70646c28.09666,0 55.8775,12.66813 55.8775,28.29507c0,15.62694 -16.56991,146.39511 -55.8775,146.39511c-39.30759,0 -55.8775,-130.76816 -55.8775,-146.39511c0,-15.62694 27.78085,-28.29507 55.8775,-28.29507z" fill="#4a314d"/><path d="M359.13356,169.75909c0,18.66926 -17.60435,76.9717 -39.13346,76.9717c-21.52912,0 -39.13346,-58.30244 -39.13346,-76.9717c0,-18.66926 78.26693,-18.66926 78.26693,0z" fill="#6b6570"/><path d="M320.00003,140.10343c21.62676,0 39.15872,7.64692 39.15872,17.07987c0,8.12708 -3.57131,32.88919 -21.00549,38.89735c-2.80133,0.96538 -18.15323,-9.04229 -18.15323,-9.04229c0,0 -15.86808,9.90666 -18.89535,8.7758c-17.06008,-6.37287 -20.26336,-30.6195 -20.26336,-38.63085c0,-9.43295 17.53196,-17.07987 39.15872,-17.07987z" fill="#a8ba9a"/><path d="M302.50356,230.60974c0,-10.41111 7.83343,-41.84 17.49645,-41.84c9.66302,0 17.49645,31.4289 17.49645,41.84c0,10.41111 -17.49645,18.85099 -17.49645,18.85099c0,0 -17.49645,-8.43989 -17.49645,-18.85099z" fill="#ace894"/><path d="M320.00003,141.78757c17.02532,0 30.82708,6.01991 30.82708,13.44585c0,7.42594 -13.86769,29.84323 -30.82708,29.84323c-16.95939,0 -30.82707,-22.41729 -30.82707,-29.84323c0,-7.42594 13.80175,-13.44585 30.82707,-13.44585z" fill="#000000"/><path d="M327.40254,194.67573c0,0 4.39893,4.95447 -7.68026,4.64747c-10.40888,-0.26456 -7.69706,-4.75933 -7.69706,-4.75933z" fill="#4a314d"/><path d="M320.00003,175.03139c9.66302,0 16.10784,1.75038 16.10784,5.9651c0,4.21473 -6.44482,16.93805 -16.10784,16.93805c-9.66302,0 -16.10784,-12.72333 -16.10784,-16.93805c0,-4.21472 6.44482,-5.9651 16.10784,-5.9651z" fill="#ace894"/></g><g stroke="none"><path d="M338.07422,121.67388c0,25.32045 -1.21999,52.84672 -22.68678,52.84672c-22.15426,0 -22.68679,-27.52628 -22.68679,-52.84672c0,-25.32045 45.37357,-25.32045 45.37357,0z" fill="#1a090d" stroke-width="NaN"/><path d="M335.38185,123.26745c0,22.31552 -1.07522,40.40584 -19.99441,40.40584c-19.52509,0 -19.99443,-18.09032 -19.99443,-40.40584c0,-22.31552 39.98884,-22.31552 39.98884,0z" fill="#000000" stroke-width="NaN"/><path d="M301.19717,159.38097c0,-1.77067 1.9977,-8.33578 1.9977,-8.33578c0,0 1.99769,6.56512 1.99769,8.33578c0,1.77067 -0.89439,3.20607 -1.99769,3.20607c-1.1033,0 -1.9977,-1.43541 -1.9977,-3.20607z" fill="#ace894" stroke-width="0.5"/><path d="M325.16953,159.38097c0,-1.77067 1.99769,-8.33578 1.99769,-8.33578c0,0 1.99769,6.56512 1.99769,8.33578c0,1.77067 -0.89439,3.20607 -1.99769,3.20607c-1.1033,0 -1.99769,-1.43541 -1.99769,-3.20607z" fill="#ace894" stroke-width="0.5"/></g><g stroke="none"><g><path d="M357.97423,100.89567c0,12.84198 -0.43059,24.62962 -4.20366,33.86273c-4.9284,12.06032 -71.9326,12.44355 -76.81153,0.90327c-3.95785,-9.36163 -4.15837,-21.50138 -4.15837,-34.76601c0,-29.61621 85.17357,-29.61621 85.17357,0z" fill="#1a090d" stroke-width="NaN"/><path d="M310.13091,143.54352c-13.2013,8.78467 -50.16021,-1.56651 -50.16021,-1.56651c0,0 8.62688,-10.73984 19.01111,-20.01529c10.01905,-8.94929 44.35041,12.79713 31.14911,21.5818z" fill="#4a314d" stroke-width="NaN"/><path d="M370.80418,141.97708c0,0 -36.95891,10.35117 -50.16021,1.56651c-13.2013,-8.78466 21.02213,-30.60111 31.00973,-21.7061c10.4463,9.30354 19.15049,20.13961 19.15049,20.13961z" data-paper-data="{&quot;index&quot;:null}" fill="#4a314d" stroke-width="NaN"/><path d="M307.77682,117.26279c14.50142,9.64983 15.55539,24.59394 2.35409,33.37861c-13.2013,8.78467 -46.2887,-1.56651 -46.2887,-1.56651c0,0 29.43317,-41.46193 43.93461,-31.8121z" fill="#4a314d" stroke-width="NaN"/><path d="M320.64392,150.6413c-10.40774,-6.92573 -11.95505,-17.67988 -5.03777,-26.64984c1.85668,-2.40764 23.54356,-5.01505 32.09978,2.95412c10.38155,9.66927 19.22667,22.12922 19.22667,22.12922c0,0 -33.08738,10.35117 -46.28868,1.5665z" data-paper-data="{&quot;index&quot;:null}" fill="#4a314d" stroke-width="NaN"/><g fill="#ace894" stroke-width="0"><path d="M327.64637,134.89641c0,1.32106 -5.48855,8.07301 -12.259,8.07301c-6.77047,0 -12.25899,-6.75193 -12.25899,-8.07301c0,-1.32106 24.51799,-1.32106 24.51799,0z"/><path d="M321.9654,135.6155c0,2.27982 -2.94507,13.93194 -6.57799,13.93194c-3.63292,0 -6.57799,-11.65212 -6.57799,-13.93194c0,-2.27982 13.15599,-2.27982 13.15599,0z"/></g></g><g><g><path d="M305.91015,102.18016c-9.64983,14.50142 -24.59394,15.55539 -33.37861,2.35409c-8.78467,-13.2013 1.56651,-50.16022 1.56651,-50.16022c0,0 41.46193,33.30471 31.8121,47.80613z" fill="#1a090d" stroke-width="NaN"/><path d="M272.53157,104.53428c-8.78467,-13.2013 1.56651,-50.16022 1.56651,-50.16022c0,0 7.21816,63.36152 -1.56651,50.16022z" fill="#4a314d" stroke-width="NaN"/></g><g><path d="M356.67678,54.37405c0,0 10.35118,36.95892 1.56651,50.16022c-8.78467,13.2013 -23.72879,12.14733 -33.3786,-2.35409c-9.64981,-14.50142 31.8121,-47.80613 31.8121,-47.80613z" data-paper-data="{&quot;index&quot;:null}" fill="#1a090d" stroke-width="NaN"/><path d="M356.67678,54.37405c0,0 10.35118,36.95892 1.56651,50.16022c-8.78467,13.2013 -1.5665,-50.16022 -1.5665,-50.16022z" data-paper-data="{&quot;index&quot;:null}" fill="#4a314d" stroke-width="NaN"/></g></g><g stroke-width="0"><g><path d="M311.19257,124.18696c-1.00386,5.55076 -9.17305,8.7203 -18.24641,7.07938c-9.07335,-1.64092 -15.61498,-7.47094 -14.61112,-13.0217c1.00386,-5.55076 9.17307,-8.7203 18.24643,-7.07938c9.07335,1.64092 15.61497,7.47094 14.61111,13.0217z" fill="#ace894"/><path d="M297.60909,122.49195c-0.72236,6.0316 -2.74872,8.91594 -5.01056,8.64504c-2.26185,-0.27089 -3.90269,-3.5944 -3.18034,-9.62601c0.72236,-6.0316 5.40339,-10.43073 5.40339,-10.43073c0,0 3.50986,5.38009 2.7875,11.41169z" fill="#1a090d"/></g><g data-paper-data="{&quot;index&quot;:null}"><path d="M352.43974,118.2447c1.00386,5.55076 -5.53776,11.38077 -14.61111,13.0217c-9.07335,1.64092 -17.24256,-1.52862 -18.24642,-7.07938c-0.51917,-2.87073 32.37284,-8.62235 32.85753,-5.94232z" fill="#ace894"/><path d="M329.95322,111.0803c0,0 4.68103,4.39911 5.40339,10.43072c0.72236,6.0316 -0.91848,10.35513 -3.18033,10.62601c-2.26185,0.27089 -4.2882,-3.61345 -5.01056,-9.64504c-0.72236,-6.0316 2.78749,-11.41169 2.78749,-11.41169z" fill="#1a090d"/></g></g></g><path d="M302.35182,230.60974c0,0 6.89511,10.3556 17.64819,10.3556c10.75308,0 17.64819,-10.3556 17.64819,-10.3556c0,0 -0.69414,3.60507 -1.58795,5.28064c-4.18261,7.84086 -16.06024,13.57035 -16.06024,13.57035c0,0 -12.30653,-5.9364 -16.27727,-13.9933c-0.76381,-1.54982 -1.37092,-4.85769 -1.37092,-4.85769z" fill-opacity="0.10588" fill="#000000" stroke="#000000" stroke-width="0"/></g></g></svg>