<svg version="1.1" xmlns="http://www.w3.org/2000/svg" xmlns:xlink="http://www.w3.org/1999/xlink" width="59.62363" height="128.14791" viewBox="0,0,59.62363,128.14791"><g transform="translate(-290.05,-79.51551)"><g data-paper-data="{&quot;isPaintingLayer&quot;:true}" fill-rule="nonzero" stroke="none" stroke-linecap="butt" stroke-linejoin="miter" stroke-miterlimit="10" stroke-dasharray="" stroke-dashoffset="0" style="mix-blend-mode: normal"><g><path d="M299.98645,86.64184c0,-2.07107 1.67893,-3.75 3.75,-3.75c2.07107,0 3.75,1.67893 3.75,3.75c0,2.07107 -1.67893,3.75 -3.75,3.75c-2.07107,0 -3.75,-1.67893 -3.75,-3.75z" fill="#000000" stroke-width="0.5"/><path d="M333.48645,85.80851c0,-2.07107 1.67893,-3.75 3.75,-3.75c2.07107,0 3.75,1.67893 3.75,3.75c0,2.07107 -1.67893,3.75 -3.75,3.75c-2.07107,0 -3.75,-1.67893 -3.75,-3.75z" fill="#000000" stroke-width="0.5"/><path d="M292.54499,91.12693c0,-3.21278 2.60448,-5.81725 5.81725,-5.81725c3.21278,0 5.81725,2.60448 5.81725,5.81725c0,3.21278 -2.60448,5.81725 -5.81725,5.81725c-3.21278,0 -5.81725,-2.60448 -5.81725,-5.81725z" fill="#000000" stroke-width="0.5"/><path d="M336.47255,90.46641c0,-3.21278 2.60448,-5.81725 5.81725,-5.81725c3.21278,0 5.81725,2.60448 5.81725,5.81725c0,3.21278 -2.60448,5.81725 -5.81725,5.81725c-3.21278,0 -5.81725,-2.60448 -5.81725,-5.81725z" fill="#000000" stroke-width="0.5"/><path d="M293.12072,191.22026c0.48909,-10.33016 1.20557,-27.19414 1.20557,-37.33959c0,-15.3477 -1.6514,-45.96087 -1.6514,-45.96087c0,0 0.48502,-28.40429 27.48603,-28.40429c27.0085,0 27.53098,28.40429 27.53098,28.40429c0,0 -1.6514,31.16441 -1.6514,46.62143c0,10.01638 0.70852,26.48844 1.1974,36.66165c0.25747,5.35811 2.43573,8.9689 2.43573,8.9689c0,0 -0.00766,0.03539 -0.02806,0.10196c-1.00876,-0.84092 -2.30659,1.29541 -3.72258,1.29541c-2.55666,0 -1.09497,2.97043 -1.87527,5.26312c-1.12964,0.38445 -5.73618,-2.85676 -6.43311,-1.91716c-1.66562,0.20323 -3.11386,1.11044 -4.03813,2.41507c-1.06688,-1.29918 -2.68562,-2.1279 -4.4979,-2.1279c-1.96281,0 -3.69856,0.97211 -4.75209,2.46114c-0.97204,-1.85561 -2.91635,-3.1217 -5.15637,-3.1217c-1.71204,0 -3.25133,0.73958 -4.31582,1.91667c-0.99205,-0.78645 -2.24667,-1.25611 -3.61095,-1.25611c-1.91576,0 -3.61524,0.92608 -4.67519,2.35499c-1.0337,-1.61487 -2.84336,-2.68527 -4.90301,-2.68527c-0.51315,0 -1.01081,0.06646 -1.4848,0.1912c0.02366,-0.21317 0.03583,-0.42983 0.03583,-0.64932c0,-3.21278 -2.60448,-2.84471 -5.81725,-2.84471c-1.30209,0 -2.50428,-2.54475 -3.47364,-1.82203c0.56734,-1.09948 1.9932,-4.25432 2.1955,-8.5269z" fill="#a8ba9a" stroke-width="NaN"/><path d="M329.07857,205.20228c-1.96281,0 -3.69856,0.97211 -4.75209,2.46114c-0.97204,-1.85561 -2.91635,-3.1217 -5.15637,-3.1217c-1.71204,0 -3.25133,0.73958 -4.31582,1.91667c-0.99205,-0.78645 -2.24667,-1.25611 -3.61095,-1.25611c-1.91576,0 -3.61524,0.92608 -4.67519,2.35499c-1.0337,-1.61487 -2.84336,-2.68527 -4.90301,-2.68527c-0.51315,0 -1.01081,0.06646 -1.4848,0.1912c0.02366,-0.21317 0.03583,-0.42983 0.03583,-0.64932c0,-3.21278 -2.60448,-2.84471 -5.81725,-2.84471c-1.30209,0 -2.50428,-2.54475 -3.47364,-1.82203c0.45619,-0.88404 1.46739,-3.09692 1.95132,-6.15119c1.37029,0.09654 2.7537,0.14566 4.14856,0.14566c17.78946,0 33.71386,-7.98513 44.38447,-20.56666c-6.11347,9.20743 -9.67486,20.25604 -9.67486,32.13648c0,0.17771 0.00079,0.3552 0.00237,0.53253c-0.79685,-0.41016 -1.70066,-0.64169 -2.65858,-0.64169z" fill-opacity="0.09804" fill="#000000" stroke-width="NaN"/><path d="M320.16091,79.51551c23.86823,0 27.05143,22.18314 27.46899,27.34162c-7.22735,-12.71081 -19.10551,-22.43225 -33.31957,-26.84943c1.79688,-0.31911 3.74296,-0.49216 5.85057,-0.49216z" fill-opacity="0.09804" fill="#000000" stroke-width="NaN"/><path d="M302.21819,121.30753c-0.54012,0.21605 -0.75617,-0.32407 -0.75617,-0.32407l-0.085,-0.21247c-1.19263,-3.05431 -1.21052,-7.45367 -0.18529,-10.52932c0,0 0.18396,-0.55187 0.73584,-0.36793c0.55187,0.18396 0.36793,0.73584 0.36793,0.73584c-0.93616,2.80848 -0.97609,6.96483 0.16179,9.72931l0.085,0.21249c0,0 0.21605,0.5401 -0.32407,0.75615z" fill-opacity="0.09804" fill="#000000" stroke-width="0.5"/><path d="M347.23789,191.20286c0.25747,5.35811 2.43573,8.9689 2.43573,8.9689c0,0 -0.00766,0.03539 -0.02806,0.10196c-1.00876,-0.84092 -2.30659,1.29541 -3.72258,1.29541c-2.55666,0 -1.09497,2.97043 -1.87527,5.26312c-1.12964,0.38445 -5.73618,-2.85676 -6.43311,-1.91716c-1.66562,0.20323 -3.11386,1.11044 -4.03813,2.41507c-1.06688,-1.29918 -2.68562,-2.1279 -4.4979,-2.1279c-1.96281,0 -3.69856,0.97211 -4.75209,2.46114c-0.97204,-1.85561 -2.91635,-3.1217 -5.15637,-3.1217c-1.71204,0 -3.25133,0.73958 -4.31582,1.91667c-0.99205,-0.78645 -2.24667,-1.25611 -3.61095,-1.25611c-1.91576,0 -3.61524,0.92608 -4.67519,2.35499c-1.0337,-1.61487 -2.84336,-2.68527 -4.90301,-2.68527c-0.51315,0 -1.01081,0.06646 -1.4848,0.1912c0.02366,-0.21317 0.03583,-0.42983 0.03583,-0.64932c0,-3.21278 -2.60448,-2.84471 -5.81725,-2.84471c-1.30209,0 -2.50428,-2.54475 -3.47364,-1.82203c0.14639,-0.28365 0.3499,-0.70412 0.57479,-1.24529c5.51818,1.73659 11.39113,2.67291 17.48277,2.67291c14.5523,0 27.85659,-5.34345 38.05781,-14.17534c0.06806,1.48701 0.13445,2.89713 0.19723,4.20343z" fill-opacity="0.09804" fill="#000000" stroke-width="NaN"/><path d="M302.90636,115.96313c0,-5.40169 3.3801,-12.10754 6.59288,-12.10754c3.21278,0 7.36853,5.93022 7.36853,11.33191c0,5.40169 -3.3801,11.33191 -6.59288,11.33191c-3.21278,0 -7.36853,-5.15457 -7.36853,-10.55626z" fill-opacity="0.09804" fill="#000000" stroke-width="0.5"/><path d="M323.49897,115.18748c0,-5.40169 4.15575,-11.33191 7.36853,-11.33191c3.21278,0 6.59288,6.70585 6.59288,12.10754c0,5.40169 -4.15575,10.55626 -7.36853,10.55626c-3.21278,0 -6.59288,-5.93022 -6.59288,-11.33191z" fill-opacity="0.09804" fill="#000000" stroke-width="0.5"/></g><path d="" fill-opacity="0.09804" fill="#000000" stroke-width="0.5"/><g stroke-width="0.5"><path d="M302.65591,93.42759c2.40185,0 4.46372,1.45564 5.35157,3.53284c0.98488,-0.76522 2.22226,-1.22086 3.56607,-1.22086c0.66903,0 1.3117,0.11295 1.90994,0.32081c1.066,-1.20931 2.62661,-1.97221 4.36543,-1.97221c2.10373,0 3.94663,1.1167 4.96831,2.78967c0.42015,-0.09645 0.85765,-0.14743 1.30707,-0.14743c1.88779,0 3.56553,0.89921 4.62832,2.29267c0.67606,-2.46396 2.93183,-4.27438 5.61044,-4.27438c1.29813,0 2.49695,0.42519 3.46478,1.14393c0.78621,-2.10987 2.76192,-3.64047 5.11171,-3.77636c0.49915,2.87399 1.18907,2.34626 2.58027,4.79403c1.3912,2.44777 1.35985,5.22591 1.44417,5.3448c-1.02979,0.92387 -2.19091,1.48584 -3.68328,1.48584c-1.29813,0 -2.49695,-0.42519 -3.46478,-1.14393c-0.82398,2.21123 -2.95449,3.78619 -5.45286,3.78619c-1.88779,0 -7.56015,1.98171 -10.23876,1.98171c-2.10373,0 -3.94663,-1.1167 -4.96831,-2.78967c-0.42015,0.09645 -0.85765,0.14743 -1.30707,0.14743c-0.66903,0 -1.3117,-0.11295 -1.90994,-0.32081c-1.066,1.20931 -2.62661,1.97221 -4.36543,1.97221c-1.5314,0 -2.92459,-0.59175 -3.96339,-1.55905c-1.0388,0.96732 -2.43198,1.55905 -3.96339,1.55905c-2.69076,0 -4.95483,-1.82687 -5.61954,-4.30793c-0.61719,0.22299 -1.28287,0.34454 -1.97696,0.34454c-0.91465,0 -1.78001,-0.2111 -2.55,-0.58722c0.78844,-5.42685 0.90285,-4.36751 0.90285,-6.68162c0,-1.36982 -0.11017,-2.71391 -0.32214,-4.02389c0.61502,-0.22123 1.27807,-0.34177 1.96928,-0.34177c1.7831,0 3.37885,0.80227 4.44594,2.06552c0.66775,-0.26715 1.39656,-0.4141 2.15971,-0.4141z" fill-opacity="0.09804" fill="#000000"/><path d="M302.65591,90.59425c2.40185,0 4.46372,1.45564 5.35157,3.53284c0.98488,-0.76522 2.22226,-1.22086 3.56607,-1.22086c0.66903,0 1.3117,0.11295 1.90994,0.32081c1.066,-1.20931 2.62661,-1.97221 4.36543,-1.97221c2.10373,0 3.94663,1.1167 4.96831,2.78967c0.42015,-0.09645 0.85765,-0.14743 1.30707,-0.14743c1.88779,0 3.56553,0.89921 4.62832,2.29267c0.67606,-2.46396 2.93183,-4.27438 5.61044,-4.27438c1.29813,0 2.49695,0.42519 3.46478,1.14393c0.82398,-2.21123 2.95449,-3.78619 5.45286,-3.78619c3.21278,0 5.81725,2.60448 5.81725,5.81725c0,3.21278 -2.60448,5.81725 -5.81725,5.81725c-1.29813,0 -2.49695,-0.42519 -3.46478,-1.14393c-0.82398,2.21123 -2.95449,3.78619 -5.45286,3.78619c-1.88779,0 -3.56553,-0.89921 -4.62832,-2.29267c-0.67606,2.46396 -2.93183,4.27438 -5.61044,4.27438c-2.10373,0 -3.94663,-1.1167 -4.96831,-2.78967c-0.42015,0.09645 -0.85765,0.14743 -1.30707,0.14743c-0.66903,0 -1.3117,-0.11295 -1.90994,-0.32081c-1.066,1.20931 -2.62661,1.97221 -4.36543,1.97221c-1.5314,0 -2.92459,-0.59175 -3.96339,-1.55905c-1.0388,0.96732 -2.43198,1.55905 -3.96339,1.55905c-2.69076,0 -4.95483,-1.82687 -5.61954,-4.30793c-0.61719,0.22299 -1.28287,0.34454 -1.97696,0.34454c-3.21278,0 -5.81725,-2.60448 -5.81725,-5.81725c0,-3.21278 2.60448,-5.81725 5.81725,-5.81725c1.7831,0 3.37885,0.80227 4.44594,2.06552c0.66775,-0.26715 1.39656,-0.4141 2.15971,-0.4141z" fill="#1a090d"/><path d="M290.05,94.78738c0,-2.34586 1.38855,-4.36743 3.3886,-5.28758c-0.80948,0.9994 -1.29439,2.27245 -1.29439,3.65875c0,3.21278 2.60448,5.81725 5.81725,5.81725c0.86691,0 -0.26773,1.62883 -2.09421,1.62883c-3.21278,0 -5.81725,-2.60448 -5.81725,-5.81725z" fill="#4a314d"/><path d="M343.67045,101.30272c-1.82648,0 -3.45636,-0.84176 -4.52284,-2.1585c0.73912,0.34003 1.56172,0.52967 2.42863,0.52967c3.21278,0 5.81725,-2.60448 5.81725,-5.81725c0,-1.3863 -0.48493,-2.65935 -1.29441,-3.65875c2.00004,0.92015 3.38862,2.94171 3.38862,5.28758c0,3.21278 -2.60448,5.81725 -5.81725,5.81725z" data-paper-data="{&quot;index&quot;:null}" fill="#ace894"/><path d="M334.82822,104.095c-1.82648,0 -3.45636,-0.84176 -4.52287,-2.1585c0.73912,0.34003 1.56172,0.52967 2.42863,0.52967c3.21278,0 5.81725,-2.60448 5.81725,-5.81725c0,-1.3863 -0.48493,-2.65935 -1.29439,-3.65875c2.00004,0.92015 3.38862,2.94171 3.38862,5.28758c0,3.21278 -2.60448,5.81725 -5.81725,5.81725z" data-paper-data="{&quot;index&quot;:null}" fill="#4a314d"/><path d="M296.79801,99.20849c0,-2.34586 1.38855,-4.36741 3.38862,-5.28758c-0.80946,0.9994 -1.29441,2.27245 -1.29441,3.65875c0,3.21278 2.60448,5.81725 5.81725,5.81725c0.86691,0 2.35621,-0.18964 3.0953,-0.52967c-1.06649,1.31675 -3.36304,2.1585 -5.18951,2.1585c-3.21278,0 -5.81725,-2.60448 -5.81725,-5.81725z" fill="#6b6570"/><path d="M305.21353,100.15779c-0.42871,-2.30635 0.56702,-4.54762 2.36522,-5.81781c-0.61318,1.1305 -0.8573,2.47073 -0.60395,3.83369c0.58715,3.15867 3.62373,5.24332 6.7824,4.65617c0.85232,-0.15844 2.29308,-0.49521 2.95762,-0.96459c-0.8079,1.48947 -2.92316,2.61492 -4.71887,2.94872c-3.15867,0.58715 -6.19526,-1.4975 -6.7824,-4.65617z" fill="#ace894"/><path d="M311.69018,97.34692c0,-3.21278 2.60448,-5.81725 5.81725,-5.81725c3.21278,0 5.81725,2.60448 5.81725,5.81725c0,3.21278 -2.60448,5.81725 -5.81725,5.81725c-3.21278,0 -5.81725,-2.60448 -5.81725,-5.81725z" fill="#6b6570"/><path d="M319.83432,94.08931c0,-3.21278 2.60448,-5.81725 5.81725,-5.81725c3.21278,0 5.81725,2.60448 5.81725,5.81725c0,3.21278 -2.60448,5.81725 -5.81725,5.81725c-3.21278,0 -5.81725,-2.60448 -5.81725,-5.81725z" fill="#6b6570"/><path d="M318.2055,100.83727c0,-3.21278 2.60448,-5.81725 5.81725,-5.81725c3.21278,0 5.81725,2.60448 5.81725,5.81725c0,3.21278 -2.60448,5.81725 -5.81725,5.81725c-3.21278,0 -5.81725,-2.60448 -5.81725,-5.81725z" fill="#6b6570"/><path d="M314.01707,90.1336c0,-3.21278 2.60448,-5.81725 5.81725,-5.81725c3.21278,0 5.81725,2.60448 5.81725,5.81725c0,3.21278 -2.60448,5.81725 -5.81725,5.81725c-3.21278,0 -5.81725,-2.60448 -5.81725,-5.81725z" fill="#6b6570"/><path d="M317.22269,93.57601c0.24558,0.03162 0.49593,0.04791 0.75012,0.04791c2.24886,0 4.19966,-1.2761 5.16784,-3.14367c0.80627,0.91806 1.89705,1.58006 3.13461,1.84823c-0.68544,0.95442 -1.08906,2.1249 -1.08906,3.38964c0,0.84529 0.18029,1.64845 0.5045,2.37316c-0.24144,-0.03053 -0.48749,-0.04626 -0.73719,-0.04626c-1.86133,0 -3.51848,0.87419 -4.58327,2.23438c-0.15339,-0.07274 -0.3031,-0.15197 -0.44877,-0.23737c0.09526,-0.41766 0.14557,-0.85244 0.14557,-1.29895c0,-2.14112 -1.15675,-4.01207 -2.8794,-5.02199c0.01108,-0.04861 0.02278,-0.09699 0.03507,-0.14511z" fill="#1a090d"/></g><g fill="#1a090d" stroke-width="0.5"><path d="M328.95589,141.92412l0.29642,0.00002c0.28535,0.04393 0.86386,-0.85133 0.9635,-1.20391c0.59757,-2.1145 -0.36662,-2.89054 -0.99996,-4.69836c-0.55843,-2.24015 -2.85534,-3.20362 -3.10002,-5.54992c-0.02447,-0.23471 -0.31493,0.35548 -0.48318,0.52311c-1.18007,1.0532 -2.22502,-0.74873 -2.75835,-1.42171c-0.33506,-0.4228 -0.98611,0.46658 -1.51063,0.60842c-1.31705,0.35615 -2.61452,0.51665 -3.90347,0.96547c-0.27844,-0.51855 -0.51381,-1.25653 -1.33188,-1.07748c-0.39495,0.08644 -0.90594,1.46908 -1.15948,1.80539c-0.98845,1.31112 -2.82205,1.95329 -3.69382,3.40688c-0.83465,1.62483 -3.5136,7.25533 0.6209,7.23746c1.0668,0.34063 2.08196,1.1254 3.2,1.28307c1.8573,0.26192 3.82067,-0.14749 5.6941,0.05282c2.80331,0.30169 5.54725,0.07955 7.91586,-1.68453c0,-0.24674 0.25,-0.24674 0.25,-0.24674zM329.00589,142.56566c-2.4799,1.82563 -5.3343,2.09614 -8.27005,1.78032c-1.8829,-0.20392 -3.85126,0.20716 -5.72,-0.0563c-1.126,-0.15874 -2.13955,-0.92156 -3.2,-1.28307c-4.62327,-0.01906 -1.9393,-6.03631 -0.97911,-7.96204c0.83119,-1.35215 2.34,-2.04071 3.46248,-3.09696c0.60624,-0.57045 0.74863,-1.46914 1.26555,-2.07567c0.55235,-0.64809 2.37982,-0.08638 2.08679,0.81938c0.98618,-0.87794 2.80775,-0.71785 4.0351,-1.14373c0.18797,-0.06522 1.1692,-0.53875 1.3508,-0.44072c0.34174,0.18448 1.45905,2.48647 2.24165,1.53923c0.11816,-0.11569 0.76706,-0.717 0.91683,-0.66128c0.60836,0.22639 0.74002,1.74811 0.97899,2.19124c0.87419,1.62109 2.00893,1.72451 2.521,3.70781c0.42458,1.32732 2.87981,6.19051 -0.43646,6.53368l-0.1538,0.00001c-0.0224,0.09079 -0.09977,0.14806 -0.09977,0.14806z" data-paper-data="{&quot;index&quot;:null}"/><path d="M317.45,130.22841c0,-0.24674 0.25,-0.24674 0.25,-0.24674h0.3c1.15645,0.01417 2.23044,-0.29312 3.42322,-0.02643c-0.25571,-1.06458 1.02362,-1.46903 1.80821,-0.9237c0.5333,0.37068 0.12772,2.01965 0.73678,1.78922c0.67155,-0.25408 0.09214,-1.34398 0.51555,-1.60038c0.45066,-0.27289 2.01291,1.46509 2.31012,1.78555c2.03551,2.19469 5.04455,5.0957 4.94484,8.21827c-0.05803,1.54525 -2.51419,6.44211 -4.6344,5.74079c-0.42509,-0.14062 -0.84308,-0.90972 -1.1874,-1.19993c-1.72388,-1.48909 -6.6554,0.52783 -8.81693,0.52783c-2.52102,0 -7.63931,0.73723 -9.29259,-1.69403c-0.14368,-0.17715 -0.97015,-0.78398 -1.02549,-0.8995c-0.27456,-0.57321 0.4227,-1.57081 0.67086,-2.05967c0.43802,-0.8629 0.43998,-1.86817 1.28781,-2.48949c1.12342,-0.82327 1.88933,-1.06601 2.27118,-2.54641c0.59245,-0.98544 1.09177,-2.11836 1.683,-3.03581c1.08192,-1.67888 2.95522,0.11442 2.95522,-2.32654c0,0 0,-0.24674 0.25,-0.24674c0.25,0 0.25,0.24674 0.25,0.24674c0,2.84073 -2.05948,0.92524 -3.04478,2.60836c-0.54602,0.93274 -1.0347,1.9739 -1.6315,2.94282c-0.51577,2.07961 -2.52208,2.71352 -3.34169,4.60786c-0.13798,0.3189 -1.11603,1.7317 -0.91396,2.05755c0.12018,0.19381 0.79669,0.60818 0.99921,0.85818c1.15732,2.24414 6.84789,1.48318 8.88272,1.48318c2.40679,0 7.15438,-2.06205 9.14233,-0.40902c0.36281,0.30797 0.66263,0.87622 1.05334,1.11869c0.1436,0.08911 1.18908,-0.73188 1.35122,-0.85538c1.36805,-1.04204 2.52891,-2.69722 2.59216,-4.44743c0.12107,-2.95134 -2.89322,-5.79616 -4.81398,-7.86712c-0.39711,-0.42816 -0.80063,-0.78568 -1.25334,-1.15822c-0.09763,-0.08034 -0.26987,-0.28027 -0.38143,-0.41739c0.28731,0.53257 -0.24499,1.52309 -0.83928,1.55044c-0.37672,0.01733 -1.78641,-3.9976 -2.17425,-1.00976c-1.21035,0.12925 -2.57992,0.15975 -3.77678,0.17096h-0.3c0,0 -0.25,0 -0.25,-0.24674z"/></g><path d="M304.05145,117.66661c0.19951,-0.32635 0.47365,-0.53245 0.71283,-0.77755c0.04533,-0.24106 0.09501,-0.45675 0.14669,-0.63845c0.21553,-0.74686 0.38295,-1.4424 0.5496,-2.09149c0.24356,-2.33376 0.47463,-4.75318 1.63482,-6.74198c-1.72329,1.0892 -2.73576,3.78377 -3.27799,5.6824c-0.26432,1.44291 -0.16941,3.07853 0.23404,4.5671zM315.36509,111.40578c-0.02965,0.15114 -0.05237,0.30599 -0.06253,0.46663c-0.14935,2.3607 0.07084,4.66854 -0.58439,6.97194c-0.33976,1.18433 -1.18807,3.1133 -2.32562,4.48036c0.57143,-0.50562 1.07868,-1.17665 1.51884,-2.01203c0.96094,-2.35852 2.60507,-6.61611 1.76221,-9.12848c-0.08791,-0.26816 -0.1912,-0.52776 -0.30851,-0.77841zM308.24564,124.3705c-0.08012,-0.06067 -0.16043,-0.12675 -0.24089,-0.19843c-0.49172,-0.44147 -1.35342,-0.66261 -1.99474,-0.93211c0.29065,0.32823 0.58093,0.581 0.84133,0.72138c0.48203,0.18697 0.94696,0.32331 1.39432,0.40916zM304.26543,118.35937c0.08355,0.23975 0.17552,0.47391 0.27564,0.70085c0.01342,-0.48459 0.0511,-0.96077 0.10451,-1.39676c-0.09032,0.11007 -0.17552,0.23181 -0.25063,0.37435c-0.05329,0.10112 -0.0962,0.20864 -0.1295,0.32157zM305.21722,117.06149c-0.29651,1.62995 -0.38242,4.372 0.47412,5.42569c0.31084,0.38237 2.0161,0.75537 2.62839,1.30424c2.75566,2.49152 5.34843,-3.02203 5.93985,-5.08357c0.64477,-2.26662 0.41037,-4.53908 0.56538,-6.86185c0.02355,-0.35295 0.1267,-0.69772 0.22326,-1.03991c-0.69947,-1.18257 -1.72341,-2.13237 -2.89911,-2.80211c-0.77249,0.11533 -1.40514,0.65644 -2.35699,1.10228c-2.69858,1.26395 -3.30824,2.87076 -3.85154,5.02507c-0.0707,0.68147 -0.14071,1.35628 -0.23343,2.01131c-0.09625,0.41824 -0.27997,0.68688 -0.48994,0.91887zM306.21128,111.85131c0.57953,-1.26987 1.50009,-2.31509 3.38991,-3.20024c0.4545,-0.21288 1.03137,-0.64251 1.58178,-0.96458c-1.33225,-0.24057 -2.88449,-0.52941 -3.6414,-0.11015c-0.74759,1.28949 -1.10511,2.76261 -1.3303,4.27497zM313.72883,107.77424c0.60329,0.61491 0.86956,1.58002 1.48461,1.76499c-0.00261,-0.01757 -0.00551,-0.03517 -0.00873,-0.05276c-0.10908,-0.31239 -0.37792,-1.5812 -0.72964,-1.71813c-0.19925,-0.07757 -0.46917,-0.04704 -0.74624,0.0059zM313.24311,108.12697c0.34817,0.2561 0.67781,0.53805 0.98419,0.8444c-0.2424,-0.33619 -0.49968,-0.65303 -0.83282,-0.78741c-0.05136,-0.02072 -0.10179,-0.03969 -0.15136,-0.057zM315.67614,110.02293c-0.02697,0.22749 -0.07925,0.44833 -0.13659,0.67001c0.23422,0.41566 0.43183,0.85712 0.58679,1.32252c0.87366,2.67821 -0.75732,6.99685 -1.78499,9.5104c-1.67955,3.19703 -4.35526,4.19273 -7.68874,2.89274c-1.39869,-0.7508 -3.27577,-3.92276 -2.87696,-6.00627c-0.57547,-1.7233 -0.74236,-3.69423 -0.42323,-5.42464c0.81049,-2.85946 2.58182,-7.03588 5.95598,-6.50684c0.90643,0.1445 1.80018,0.43293 2.63337,0.8504c0.00104,0.00015 0.00209,0.00029 0.00314,0.00044c0.04874,-0.01418 0.0965,-0.02576 0.14316,-0.03439c0.45657,-0.08459 0.81566,-0.03493 1.10898,0.09663c0.50587,-0.06991 1.07543,-0.26154 1.52344,-0.05797c0.52235,0.23736 0.77853,1.52778 0.94682,2.0154c0.01387,0.0872 0.02218,0.17267 0.02582,0.25677c0.04492,0.03183 0.08333,0.0863 0.09143,0.17918c0.01139,0.13018 -0.04869,0.19932 -0.10843,0.23562zM304.20322,119.48574c0.06264,0.50118 0.22376,1.03655 0.44517,1.55835c-0.04973,-0.31548 -0.08147,-0.64882 -0.09819,-0.9888c-0.0779,-0.03656 -0.11868,-0.11466 -0.11868,-0.11466l-0.0644,-0.12331c-0.05656,-0.10867 -0.1112,-0.21924 -0.16389,-0.33158zM315.04864,109.93013c0.05266,0.07224 0.10415,0.14545 0.15443,0.21962c0.00678,-0.04389 0.01253,-0.08781 0.01708,-0.13175c-0.05943,-0.02246 -0.11645,-0.05214 -0.17151,-0.08787z" fill="#1a090d" stroke-width="0.5"/><path d="M336.00486,117.19834c0.41168,-1.48631 0.51565,-3.12138 0.25932,-4.56573c-0.53171,-1.9016 -1.52925,-4.60174 -3.24648,-5.70046c1.14916,1.99519 1.36684,4.41585 1.59747,6.75093c0.16305,0.65 0.32662,1.34646 0.53801,2.0945c0.05067,0.18198 0.09916,0.39795 0.14315,0.63925c0.23782,0.24642 0.51081,0.45403 0.70851,0.78148zM324.72604,110.87495c-0.1187,0.25 -0.22342,0.50902 -0.31281,0.77669c-0.85676,2.50767 0.76378,6.77429 1.71165,9.1381c0.43553,0.8378 0.93906,1.51163 1.50768,2.02041c-1.12996,-1.37334 -1.96758,-3.30697 -2.30078,-4.49317c-0.64247,-2.30699 -0.40951,-4.61358 -0.54579,-6.97507c-0.00927,-0.16069 -0.03113,-0.31567 -0.05995,-0.46697zM331.77359,123.87888c0.44783,-0.08337 0.91351,-0.21714 1.39656,-0.40143c0.26117,-0.13894 0.55285,-0.3901 0.84531,-0.71671c-0.6428,0.26595 -1.50571,0.48231 -1.99987,0.92105c-0.08086,0.07123 -0.16153,0.13687 -0.24198,0.19709zM335.78702,117.88988c-0.03267,-0.11311 -0.07499,-0.22087 -0.12772,-0.32228c-0.07432,-0.14295 -0.15884,-0.26516 -0.24855,-0.37573c0.051,0.43628 0.08604,0.91266 0.09678,1.39732c0.10137,-0.22638 0.19464,-0.46003 0.27952,-0.69931zM334.84246,116.58676c-0.20868,-0.23315 -0.39091,-0.5028 -0.48485,-0.92157c-0.08909,-0.65553 -0.15537,-1.33072 -0.22229,-2.01257c-0.53137,-2.15728 -1.13212,-3.76744 -3.82366,-5.04631c-0.94937,-0.4511 -1.57901,-0.99571 -2.35085,-1.11531c-1.17939,0.66322 -2.20857,1.60734 -2.91458,2.78602c0.09466,0.34272 0.1959,0.68806 0.2175,1.04113c0.14215,2.32359 -0.10483,4.59472 0.52739,6.86487c0.58,2.06478 3.14221,7.5926 5.91162,5.11637c0.61532,-0.54547 2.32262,-0.90903 2.63557,-1.28967c0.86236,-1.04893 0.79163,-3.79142 0.50415,-5.42298zM333.87725,111.37114c-0.21681,-1.51358 -0.56617,-2.98866 -1.30661,-4.28227c-0.75458,-0.42344 -2.30839,-0.1432 -3.64195,0.08999c0.54862,0.32511 1.1231,0.75793 1.57642,0.97332c1.88489,0.8956 2.79965,1.9459 3.37214,3.21896zM325.63618,107.24249c-0.35247,0.13498 -0.62833,1.40228 -0.73914,1.71406c-0.00332,0.01757 -0.00631,0.03516 -0.00902,0.05271c0.61606,-0.18156 0.88767,-1.14518 1.49436,-1.75674c-0.27677,-0.05447 -0.54652,-0.0865 -0.7462,-0.01003zM326.86613,107.60792c-0.04967,0.01704 -0.1002,0.03573 -0.15167,0.05616c-0.33388,0.13253 -0.59291,0.44794 -0.83717,0.78279c0.30807,-0.30465 0.63927,-0.58477 0.98885,-0.83894zM324.42266,109.49039c-0.05954,-0.03663 -0.11923,-0.1061 -0.10712,-0.23622c0.00861,-0.09283 0.04732,-0.14709 0.09242,-0.17867c0.00411,-0.08408 0.01289,-0.1695 0.02724,-0.25662c0.17099,-0.48668 0.43431,-1.77566 0.95796,-2.01013c0.44913,-0.20109 1.01762,-0.00631 1.5231,0.0664c0.29404,-0.12993 0.6534,-0.17761 1.1095,-0.09049c0.04661,0.00889 0.09431,0.02073 0.14297,0.03518c0.00105,-0.00014 0.0021,-0.00028 0.00314,-0.00042c0.83549,-0.41285 1.73082,-0.69633 2.63804,-0.83581c3.37704,-0.51035 5.12522,3.67581 5.91987,6.53971c0.30955,1.73215 0.13175,3.70213 -0.45325,5.42221c0.38727,2.08569 -1.50734,5.24721 -2.91017,5.99025c-3.34063,1.28152 -6.01078,0.27102 -7.67261,-2.93526c-1.01374,-2.5192 -2.62079,-6.8468 -1.73231,-9.52014c0.15753,-0.46454 0.35758,-0.90489 0.5941,-1.31925c-0.05611,-0.22199 -0.10717,-0.44312 -0.13288,-0.67076zM335.843,119.01657c-0.05331,0.11205 -0.10856,0.22231 -0.16572,0.33067l-0.06508,0.12295c0,0 -0.04121,0.07787 -0.11931,0.114c-0.0186,0.33988 -0.05219,0.67304 -0.10366,0.98824c0.2243,-0.52057 0.38838,-1.05504 0.45379,-1.55586zM324.87866,109.48799c0.00431,0.04396 0.00981,0.08792 0.01635,0.13184c0.05069,-0.07389 0.10258,-0.14681 0.15564,-0.21876c-0.05526,0.03542 -0.11244,0.06479 -0.17199,0.08692z" data-paper-data="{&quot;index&quot;:null}" fill="#1a090d" stroke-width="0.5"/></g></g></svg>