<svg version="1.1" xmlns="http://www.w3.org/2000/svg" xmlns:xlink="http://www.w3.org/1999/xlink" width="93.36936" height="249.99815" viewBox="0,0,93.36936,249.99815"><g transform="translate(-272.50442,-55.50174)"><g data-paper-data="{&quot;isPaintingLayer&quot;:true}" fill-rule="nonzero" stroke-linejoin="miter" stroke-miterlimit="10" stroke-dasharray="" stroke-dashoffset="0" style="mix-blend-mode: normal"><g stroke-linecap="butt"><path d="M280.0304,304.39162c0,0 0.36464,-94.38387 0.20665,-118.01201c-0.05451,-8.15261 8.18688,-36.76129 40.20201,-36.9211c31.60235,-0.15775 39.85672,29.48704 39.84884,36.89673c-0.05641,34.0601 1.15429,117.98648 1.15429,117.98648l-10.99667,0.09614l-0.15882,-114.84311c0,0 0.07549,-3.0993 -2.81625,-3.15415c-3.43441,-0.06514 -2.94538,3.11562 -2.94538,3.11562l0.20548,114.86995l-48.21366,0.07222l-0.30539,-115.23309c0,0 0.27949,-2.919 -2.8856,-2.93443c-3.11083,-0.01515 -2.81569,2.90899 -2.81569,2.90899l0.35311,115.0668z" fill="#000000" stroke="#000000" stroke-width="2"/><path d="M277.23705,193.87961c-0.05451,-8.15261 4.18688,-44.26129 43.20201,-44.4211c39.01513,-0.15981 42.85672,36.98704 42.84884,44.39673c-0.00772,4.65759 -13.45986,12.13276 -13.45986,12.13276l-0.59749,98.43818l-57.21366,0.07222l-0.91231,-98.50872c0,0 -13.84412,-8.60969 -13.86752,-12.11006z" fill="#4a314d" stroke="#4a314d" stroke-width="2"/><g stroke="#4a314d" stroke-width="0"><path d="M299.42325,215.95802c0,0 -3.97341,-25.56495 5.59978,-34.67379c9.5732,-9.10884 21.28814,-8.45732 30.17661,0c8.88846,8.45732 5.59978,34.67379 5.59978,34.67379c0,0 -1.15857,7.6039 -21.04902,7.6039c-19.25168,0 -20.32715,-7.6039 -20.32715,-7.6039z" fill="#000000"/><path d="M298.92325,215.34456c0,0 15.08818,-26.68961 20.82715,-26.68961c5.8082,0 21.54902,26.68961 21.54902,26.68961c0,0 -1.65856,9.60696 -21.54902,9.60696c-19.25167,0 -20.82715,-9.60696 -20.82715,-9.60696z" fill="#6b6570"/><path d="M311.6156,223.69076c-8.09262,-5.23366 7.93227,-31.75894 7.93227,-31.75894c0,0 16.93345,26.27632 8.31811,31.68209c-4.60873,2.89178 -11.84484,2.92601 -16.25038,0.07686z" data-paper-data="{&quot;index&quot;:null}" fill="#a8ba9a"/><path d="M319.78626,197.81373c0,0 14.86663,26.28695 0,26.28695c-14.38918,0 0,-26.28695 0,-26.28695z" data-paper-data="{&quot;index&quot;:null}" fill="#ace894"/></g><path d="M319.93906,242.45851c25.57025,-0.10474 30.88898,-36.47052 30.88898,-36.47052l-0.59749,98.43818l-59.21366,0.07222l-0.91231,-98.50872c0,0 5.81543,36.56723 29.83448,36.46884z" fill-opacity="0.25098" fill="#000000" stroke="#4a314d" stroke-width="0"/><path d="M319.93906,265.95851c25.57025,-0.10474 30.88898,-39.47052 30.88898,-39.47052l-0.59749,77.93818l-59.21366,0.07222l-0.91231,-78.00872c0,0 5.81542,39.56723 29.83448,39.46884z" fill-opacity="0.09804" fill="#000000" stroke="#4a314d" stroke-width="0"/></g><path d="" fill="#a8ba9a" stroke="#4a314d" stroke-width="0" stroke-linecap="butt"/><path d="" fill="#a8ba9a" stroke="#4a314d" stroke-width="0" stroke-linecap="butt"/><path d="" fill-opacity="0.10588" fill="#000000" stroke="none" stroke-width="0.60142" stroke-linecap="butt"/><path d="M275.9269,103.88013c0,0 6.16329,-5.92187 6.29161,-6.78761c0.33654,-2.27063 -0.16776,-40.17317 35.96775,-41.57382c44.63633,-0.91362 39.01489,35.34872 41.53088,42.1903c3.44981,9.38084 6.15664,17.40016 6.15664,17.40016c0,0 -2.76715,-2.05351 -4.0797,-3.13397c-1.2242,-1.00773 -3.80143,-3.14585 -3.80143,-3.14585c0,0 3.09111,10.3481 1.31092,20.69498c-1.5623,9.48098 -7.29782,17.22543 -7.29782,17.22543l-1.15522,-2.34735c0,0 -1.02266,2.19794 -2.16005,3.33274c-1.1374,1.13479 -3.43873,2.91273 -3.43873,2.91273l-0.09205,-3.70421c0,0 -7.0601,11.01795 -24.35066,10.87154c-16.30625,-0.25547 -26.07151,-10.6752 -26.07151,-10.6752l-0.1162,2.65484c0,0 -3.89477,-3.29276 -6.18145,-9.70754c-2.72545,-7.64567 -3.23946,-12.24324 -3.23946,-12.24324c0,0 -2.33908,1.89916 -5.71704,2.7744c-4.23278,1.09673 -6.94665,0.34526 -6.94665,0.34526c0,0 3.60795,-2.71717 5.58396,-4.76989c1.76007,-1.8284 2.64658,-3.37722 2.64658,-3.37722c0,0 -2.10758,1.0847 -4.23277,1.61795c-2.21739,0.5564 -4.03008,0.53093 -4.03008,0.53093c0,0 4.97492,-5.03728 7.03074,-10.87429c1.94102,-5.51108 2.09972,-10.95731 2.09972,-10.95731c0,0 -1.36165,0.66163 -3.33013,0.79513c-1.24776,0.08463 -2.37785,-0.0489 -2.37785,-0.0489z" fill="#000000" stroke="none" stroke-width="1.5" stroke-linecap="butt"/><path d="M301.6609,114.83945c0.03999,-2.75843 10.02909,-2.61359 9.9891,0.14482c-0.03999,2.75843 -10.02909,2.61359 -9.9891,-0.14482z" fill="#ace894" stroke-opacity="0.25098" stroke="#ace895" stroke-width="8" stroke-linecap="butt"/><path d="M328.88228,114.80779c0,-2.81845 10.2065,-2.81845 10.2065,0c0,2.81845 -10.2065,2.81845 -10.2065,0z" fill="#ace894" stroke-opacity="0.25098" stroke="#ace895" stroke-width="8" stroke-linecap="butt"/><g><path d="M305.51742,169.85771c0.42647,-6.20294 5.80067,-10.8857 12.00361,-10.45922c6.20294,0.42648 10.88569,5.80068 10.45922,12.00362c-0.42647,6.20294 -5.80068,10.88569 -12.00362,10.45922c-6.20294,-0.42648 -10.88569,-5.80067 -10.45922,-12.00361z" fill="#544f57" stroke="none" stroke-width="0.5" stroke-linecap="butt"/><g><path d="M319.9924,124.78541c4.7735,0.40004 9.4463,3.53062 12.55423,7.52491c2.15716,2.91967 1.47588,7.47346 1.76172,11.27441c0.29832,3.97271 -0.42127,7.98798 -0.01611,11.82631c0.262,2.73894 1.17363,5.21558 1.99913,7.71957c0.87524,2.65673 4.16534,5.26698 2.96203,7.78324c-1.51174,3.38037 -5.59114,4.28218 -8.84461,4.99398c-5.08656,1.11197 -10.34525,0.53876 -15.49571,0.31425c-3.55398,-0.34396 -7.08568,-0.97072 -10.50304,-2.03357c-3.17548,-0.98388 -6.53215,-1.81463 -9.21403,-3.95667c-0.95923,-0.77932 -1.17292,-2.87463 -0.68102,-4.28502c0.8909,-2.27001 3.28854,-3.44367 4.44484,-5.73136c1.25975,-2.49189 1.96766,-5.31849 2.66747,-8.08042c0.80762,-3.14936 1.27328,-6.60561 2.01578,-9.9088c0.89371,-3.96354 0.2584,-9.05382 2.91963,-11.85743c3.47584,-3.74546 8.71921,-5.97752 13.42971,-5.58342z" fill="#a8ba9a" stroke="none" stroke-width="0.60142" stroke-linecap="round"/><path d="M335.18685,162.3907c0,0 -2.45706,3.96983 -18.04913,2.59822c-16.02339,-1.40956 -17.50296,-5.37595 -17.50296,-5.37595" fill="none" stroke="#6b6570" stroke-width="1.5" stroke-linecap="round"/><path d="M331.33258,135.68205c0,0 -1.67469,2.70577 -12.302,1.77089c-10.92129,-0.96074 -11.92973,-3.66414 -11.92973,-3.66414" fill="none" stroke="#6b6570" stroke-width="1.5" stroke-linecap="round"/><path d="M339.2638,170.76262c-1.50554,3.29026 -5.58285,4.1615 -8.83465,4.8491c-5.08396,1.07416 -10.34302,0.50644 -15.49326,0.27856c-3.55415,-0.34137 -7.08653,-0.95822 -10.50537,-1.99966c-0.51056,-0.15495 -1.0258,-0.30603 -1.54217,-0.4592c-0.52747,-0.62448 -4.46633,-0.72056 -6.50452,-1.85208c-1.86059,-1.03293 -1.84845,-3.1311 -2.02586,-3.20787c-0.15949,-0.83034 -0.10284,-1.77809 0.16406,-2.52698c0.59422,-1.48074 1.86581,-2.48071 2.9868,-3.64928c2.25235,3.87899 5.94874,6.519 10.27801,6.81665c1.18619,0.08156 2.34935,-0.01758 3.4699,-0.27721c2.12644,2.10421 4.83285,3.44583 7.84576,3.65298c3.30102,0.22696 6.42395,-0.94546 8.94559,-3.08192c0.55332,0.12055 1.11985,0.202 1.69765,0.24172c3.16247,0.21743 6.16147,-0.8495 8.62493,-2.81803c0.88143,1.36715 1.5385,2.7146 0.89312,4.03318z" fill-opacity="0.10588" fill="#000000" stroke="none" stroke-width="0.60142" stroke-linecap="butt"/><path d="M313.11309,127.53443c0.1386,-2.01584 3.28265,-4.7751 6.90988,-4.52572c3.62723,0.24939 6.36407,3.41298 6.22547,5.42881c-0.1386,2.01584 -3.10014,2.12055 -6.72737,1.87117c-3.62723,-0.24939 -6.54658,-0.75843 -6.40798,-2.77426z" fill="#6b6570" stroke="none" stroke-width="0.5" stroke-linecap="butt"/></g></g></g></g></svg>