<svg version="1.1" xmlns="http://www.w3.org/2000/svg" xmlns:xlink="http://www.w3.org/1999/xlink" width="34.17311" height="34.17311" viewBox="0,0,34.17311,34.17311"><g transform="translate(-302.91346,-162.91346)"><g data-paper-data="{&quot;isPaintingLayer&quot;:true}" stroke-miterlimit="10" stroke-dasharray="" stroke-dashoffset="0" style="mix-blend-mode: normal"><path d="M309.98312,162.91346h20.03379c3.9166,0 7.06966,3.15307 7.06966,7.06966v20.03379c0,3.91659 -3.15306,7.06966 -7.06966,7.06966h-20.03379c-3.91659,0 -7.06966,-3.15307 -7.06966,-7.06966v-20.03379c0,-3.91659 3.15307,-7.06966 7.06966,-7.06966z" fill-opacity="0.35294" fill="#ff672b" fill-rule="evenodd" stroke="none" stroke-width="4.43922" stroke-linecap="round" stroke-linejoin="round"/><g fill-rule="nonzero" stroke="#000000" stroke-width="0" stroke-linejoin="miter"><path d="M323.39642,182.79554l-6.84292,1.00886l5.28232,5.3543l-9.55064,4.10694l5.39445,-4.91426l-5.50724,-6.1033l3.37971,-1.63945z" data-paper-data="{&quot;index&quot;:null}" fill="#ff672b" stroke-linecap="round"/><path d="M323.39642,182.79554l-4.80672,0.70866c-0.66565,-1.10688 -1.76728,-1.94857 -3.12819,-2.24847c-0.33731,-0.07433 -0.67415,-0.11177 -1.00632,-0.115l1.0969,-0.53209z" data-paper-data="{&quot;index&quot;:null}" fill="#000000" stroke-linecap="butt"/><path d="M329.67557,177.9003c1.844,1.29701 1.84882,2.42547 1.26236,3.89637c-0.58646,1.4709 -3.27323,2.3978 -3.27323,2.3978l-18.08795,-5.10893c0,0 -1.01131,-1.97199 -0.42945,-3.71282c0.58186,-1.74083 0.7892,-2.98323 2.47867,-3.32149c1.68947,-0.33826 4.36417,1.71032 4.36417,1.71032c0,0 0.11051,-5.73998 6.56057,-4.29344c5.61795,1.25993 3.54118,7.14338 3.54118,7.14338c0,0 1.7397,-0.00821 3.5837,1.2888z" fill="#ff672b" stroke-linecap="round"/><path d="M309.57674,179.08556c0,0 -1.01131,-1.97199 -0.42945,-3.71282c0.58186,-1.74083 0.7892,-2.98323 2.47867,-3.32149c1.68947,-0.33826 4.36417,1.71032 4.36417,1.71032c0,0 0.11051,-5.73998 6.56057,-4.29344c0.45913,0.10297 0.86688,0.23682 1.22856,0.39582c-2.61007,-0.54482 -5.17895,1.11167 -5.75423,3.72222c-0.09388,0.426 -0.12891,0.85126 -0.11051,1.2673c-0.36977,-0.19156 -0.77036,-0.33853 -1.19636,-0.43241c-2.62858,-0.57926 -5.22905,1.08204 -5.80831,3.71062c-0.09631,0.43704 -0.13069,0.8733 -0.10897,1.29963z" fill="#000000" stroke-linecap="butt"/></g></g></g></svg>