<svg version="1.1" xmlns="http://www.w3.org/2000/svg" xmlns:xlink="http://www.w3.org/1999/xlink" width="101.02794" height="244.6744" viewBox="0,0,101.02794,244.6744"><g transform="translate(-274.97184,-62.32773)"><g data-paper-data="{&quot;isPaintingLayer&quot;:true}" fill-rule="nonzero" stroke-linejoin="miter" stroke-miterlimit="10" stroke-dasharray="" stroke-dashoffset="0" style="mix-blend-mode: normal"><g><path d="M281.0304,304.39162c0,0 -0.63536,-94.38387 -0.79335,-118.01201c-0.05451,-8.15261 8.18688,-36.76129 40.20201,-36.9211c31.60235,-0.15775 39.85672,29.48704 39.84884,36.89673c-0.07659,46.24274 0.65429,117.98648 0.65429,117.98648l-10.49667,0.09614l-0.15882,-114.84311c0,0 0.07549,-3.0993 -2.81625,-3.15415c-3.43441,-0.06514 -2.94538,3.11562 -2.94538,3.11562l0.20548,114.86995l-48.21366,0.07222l-0.30539,-115.23309c0,0 0.27949,-2.919 -2.8856,-2.93443c-3.11083,-0.01515 -2.81569,2.90899 -2.81569,2.90899l0.35311,115.0668z" fill="#110e1b" stroke="#3c162f" stroke-width="5" stroke-linecap="butt"/><path d="M281.0304,304.39162c0,0 -0.63536,-94.38387 -0.79335,-118.01201c-0.05451,-8.15261 8.18688,-36.76129 40.20201,-36.9211c31.60235,-0.15775 39.85672,29.48704 39.84884,36.89673c-0.07659,46.24274 0.65429,117.98648 0.65429,117.98648l-10.49667,0.09614l-0.15882,-114.84311c0,0 0.07549,-3.0993 -2.81625,-3.15415c-3.43441,-0.06514 -2.94538,3.11562 -2.94538,3.11562l0.20548,114.86995l-48.21366,0.07222l-0.30539,-115.23309c0,0 0.27949,-2.919 -2.8856,-2.93443c-3.11083,-0.01515 -2.81569,2.90899 -2.81569,2.90899l0.35311,115.0668z" fill="#110e1b" stroke="#110e1b" stroke-width="2" stroke-linecap="butt"/><path d="M329.69534,225.22477l-9.5124,13.11377l-9.87826,-13.65285c0,0 1.57578,-54.64253 9.5124,-54.80994c7.69684,-0.16235 9.87826,55.34902 9.87826,55.34902z" fill="#5c162e" stroke="#000000" stroke-width="0" stroke-linecap="round"/><path d="M325.76538,166.1547c2.76904,2.75677 0.37869,12.65939 -6.06838,12.57713c-6.64424,-0.08477 -9.74614,-8.72994 -5.88183,-12.57713c3.86431,-3.8472 9.18117,-2.75677 11.95021,0z" data-paper-data="{&quot;index&quot;:null}" fill="#5c162e" stroke="#000000" stroke-width="0" stroke-linecap="butt"/><path d="M320.18293,238.33855c0,0 5.02799,-20.10381 4.04577,-38.4146c-0.41012,-7.64553 -2.3394,-14.96034 -3.78463,-20.45839c1.43039,-0.9269 2.60902,-2.20931 3.41076,-3.72211c4.45441,14.23868 5.83967,49.46022 5.8405,49.48132z" fill="#3c162f" stroke="#000000" stroke-width="0" stroke-linecap="round"/><path d="M325.76538,166.15469c2.51015,2.49902 0.78057,10.87013 -4.36733,12.35235c1.53861,-1.75868 2.47097,-4.06122 2.47097,-6.58152c0,-3.43268 -1.72959,-6.4614 -4.36484,-8.26221c2.41539,-0.04982 4.72856,0.96554 6.2612,2.49139z" data-paper-data="{&quot;index&quot;:null}" fill="#3c162f" stroke="#000000" stroke-width="0" stroke-linecap="butt"/><path d="M356.04444,205.71201l-17.81782,-6.92203l12.36993,-5.4479z" fill="none" stroke="#7c162e" stroke-width="2" stroke-linecap="round"/><path d="M276.44502,185.37151l3.32059,-8.88123l9.63708,3.60319l2.94267,-9.02252l8.92888,3.76916" fill="none" stroke="#7c162e" stroke-width="2" stroke-linecap="round"/><path d="M292.8407,232.7418l10.86475,-2.41721l2.7631,11.07248l-11.07249,2.7631c0,0 -1.75819,-7.04555 -2.27956,-9.1348c-0.27228,-1.09107 -0.48355,-1.93768 -0.48355,-1.93768" fill="none" stroke="#7c162e" stroke-width="2" stroke-linecap="round"/><path d="M335.17882,233.96566c0,-2.12716 1.7244,-3.85156 3.85156,-3.85156c2.12716,0 3.85156,1.7244 3.85156,3.85156c0,2.12716 -1.7244,3.85156 -3.85156,3.85156c-2.12716,0 -3.85156,-1.7244 -3.85156,-3.85156z" fill="none" stroke="#7c162e" stroke-width="2" stroke-linecap="butt"/><path d="M338.18172,249.66445c0,-4.25432 3.44881,-7.70313 7.70313,-7.70313c4.25432,0 7.70312,3.44881 7.70312,7.70313c0,4.25432 -3.4488,7.70312 -7.70312,7.70312c-4.25432,0 -7.70313,-3.4488 -7.70313,-7.70312z" fill="none" stroke="#7c162e" stroke-width="2" stroke-linecap="butt"/><path d="M330.34317,273.35163c0,-6.06635 4.91774,-10.98409 10.98409,-10.98409c6.06635,0 10.98408,4.91774 10.98408,10.98409c0,6.06635 -4.91773,10.98408 -10.98408,10.98408c-6.06635,0 -10.98409,-4.91773 -10.98409,-10.98408z" fill="none" stroke="#7c162e" stroke-width="2" stroke-linecap="butt"/><path d="M275.97184,253.71378c0,0 5.33628,-5.25029 8.71364,-3.73832c3.37736,1.51198 0.2278,7.83216 4.05647,9.45523c3.82868,1.62306 4.92139,-5.60729 8.55456,-4.10911c3.63316,1.49817 3.44707,9.05811 3.44707,9.05811" fill="none" stroke="#7c162e" stroke-width="2" stroke-linecap="round"/><path d="M338.69847,167.69233c0,0 5.70532,-4.84672 8.96329,-3.09223c3.25797,1.75449 -0.34457,7.82789 3.3554,9.72613c3.69997,1.89824 5.31761,-5.23305 8.83171,-3.47364c3.5141,1.75941 2.7766,9.28558 2.7766,9.28558" fill="none" stroke="#7c162e" stroke-width="2" stroke-linecap="round"/></g><path d="M285.31125,107.43223c0,0 6.77036,-5.21699 6.992,-6.06365c0.58131,-2.22061 4.19914,-39.95346 40.27284,-37.41871c44.47124,3.94274 34.94221,39.37938 36.69977,46.45387c2.40989,9.70019 4.22917,17.96619 4.22917,17.96619c0,0 -2.52759,-2.34207 -3.71495,-3.55878c-1.10743,-1.1348 -3.43703,-3.54035 -3.43703,-3.54035c0,0 1.9482,10.62274 -0.94592,20.71487c-2.58341,9.25504 -9.12661,16.3303 -9.12661,16.3303l-0.89327,-2.45899c0,0 -1.25547,2.07378 -2.50945,3.07825c-1.25399,1.00446 -3.73491,2.52177 -3.73491,2.52177l0.31106,-3.69227c0,0 -8.21568,10.18542 -25.38792,8.16079c-16.18191,-2.02608 -24.75694,-13.44535 -24.75694,-13.44535l-0.40403,2.62649c0,0 -3.51385,-3.69653 -5.08985,-10.32183c-1.8784,-7.89658 -1.88971,-12.52278 -1.88971,-12.52278c0,0 -2.53162,1.63371 -5.98469,2.13666c-4.3269,0.63023 -6.94303,-0.41173 -6.94303,-0.41173c0,0 3.88187,-2.30897 6.06927,-4.13479c1.94835,-1.62629 2.99793,-3.06959 2.99793,-3.06959c0,0 -2.21298,0.84923 -4.38353,1.14836c-2.26472,0.31212 -4.06391,0.08981 -4.06391,0.08981c0,0 5.49289,-4.46678 8.17089,-10.0458c2.52845,-5.26749 3.27809,-10.66422 3.27809,-10.66422c0,0 -1.42549,0.50973 -3.39682,0.42851c-1.24957,-0.05147 -2.35845,-0.30703 -2.35845,-0.30703z" fill="#110e1b" stroke="#3c162f" stroke-width="3" stroke-linecap="butt"/><path d="M285.31125,107.43223c0,0 6.77036,-5.21699 6.992,-6.06365c0.58131,-2.22061 4.19914,-39.95346 40.27284,-37.41871c44.47124,3.94274 34.94221,39.37938 36.69977,46.45387c2.40989,9.70019 4.22917,17.96619 4.22917,17.96619c0,0 -2.52759,-2.34207 -3.71495,-3.55878c-1.10743,-1.1348 -3.43703,-3.54035 -3.43703,-3.54035c0,0 1.9482,10.62274 -0.94592,20.71487c-2.58341,9.25504 -9.12661,16.3303 -9.12661,16.3303l-0.89327,-2.45899c0,0 -1.25547,2.07378 -2.50945,3.07825c-1.25399,1.00446 -3.73491,2.52177 -3.73491,2.52177l0.31106,-3.69227c0,0 -8.21568,10.18542 -25.38792,8.16079c-16.18191,-2.02608 -24.75694,-13.44535 -24.75694,-13.44535l-0.40403,2.62649c0,0 -3.51385,-3.69653 -5.08985,-10.32183c-1.8784,-7.89658 -1.88971,-12.52278 -1.88971,-12.52278c0,0 -2.53162,1.63371 -5.98469,2.13666c-4.3269,0.63023 -6.94303,-0.41173 -6.94303,-0.41173c0,0 3.88187,-2.30897 6.06927,-4.13479c1.94835,-1.62629 2.99793,-3.06959 2.99793,-3.06959c0,0 -2.21298,0.84923 -4.38353,1.14836c-2.26472,0.31212 -4.06391,0.08981 -4.06391,0.08981c0,0 5.49289,-4.46678 8.17089,-10.0458c2.52845,-5.26749 3.27809,-10.66422 3.27809,-10.66422c0,0 -1.42549,0.50973 -3.39682,0.42851c-1.24957,-0.05147 -2.35845,-0.30703 -2.35845,-0.30703z" fill="#110e1b" stroke="none" stroke-width="1.5" stroke-linecap="butt"/><path d="M300.76732,120.51105c0.21894,-7.31275 2.19732,-17.01647 2.19732,-17.01647c0,0 3.39487,0.32966 14.17358,-1.61345c8.28088,-1.49284 21.45665,-7.198 21.45665,-7.198c0,0 -2.47383,2.75248 -3.87234,4.06338c-1.48677,1.39364 -4.46516,4.102 -4.46516,4.102c0,0 7.97281,-0.80592 15.10181,-3.10649c8.90188,-2.58362 11.18761,-4.86607 13.37284,-3.15808c2.5791,2.01585 -1.49547,23.15734 -2.40925,28.64847c-1.03525,5.58982 -3.55067,9.16812 -4.49235,12.10401c-0.94168,2.93589 -1.07408,6.05576 -3.9363,15.70493c-0.81865,2.75985 -10.93316,9.34521 -21.27481,8.16343c-12.22295,-1.39676 -24.90487,-11.13028 -24.9653,-14.76744c-0.10048,-6.04713 0.3049,-9.93423 0.54114,-15.28004c0.17266,-3.90711 -1.54737,-6.65261 -1.42781,-10.64624z" fill="#110e1b" stroke="#110e1b" stroke-width="1.5" stroke-linecap="butt"/><g stroke="none" stroke-width="0.5" stroke-linecap="butt"><path d="M321.07236,89.96753c-0.38284,-1.32657 0.38222,-2.71233 1.7088,-3.09517c1.32657,-0.38284 2.71233,0.38222 3.09517,1.7088c0.38284,1.32657 -0.38222,2.71233 -1.7088,3.09517c-1.32657,0.38284 -2.71233,-0.38222 -3.09517,-1.7088z" fill="#5c162e"/><path d="M321.07236,89.96753c-0.38284,-1.32657 0.38222,-2.71233 1.7088,-3.09517c1.32657,-0.38284 2.71233,0.38222 3.09517,1.7088c0.38284,1.32657 -4.42112,2.71294 -4.80395,1.38637z" fill="#7c162e"/></g><g stroke="none" stroke-width="0.5" stroke-linecap="butt"><path d="M353.22109,88.0566c0.31286,-1.34479 1.65666,-2.18135 3.00146,-1.8685c1.34479,0.31286 2.18135,1.65666 1.8685,3.00146c-0.31286,1.34479 -1.65666,2.18135 -3.00146,1.8685c-1.34479,-0.31286 -2.18135,-1.65666 -1.8685,-3.00146z" fill="#5c162e"/><path d="M353.2211,88.05661c0.31286,-1.34479 1.65666,-2.18135 3.00146,-1.8685c1.34479,0.31286 2.18135,1.65666 1.8685,3.00146c-0.31286,1.34479 -5.18281,0.21183 -4.86995,-1.13296z" fill="#7c162e"/></g><g data-paper-data="{&quot;index&quot;:null}" stroke-linecap="round"><path d="M356.48671,140.67271c0,0 4.29486,17.91469 -3.14988,22.25437c-3.33279,1.94274 -7.49339,3.37016 -12.55505,3.4315c-9.5873,0.1162 -19.86285,-4.69938 -26.73125,-8.70929c-3.18151,-1.85743 -2.99057,-3.71013 -2.789,-4.51701c0.43488,-1.74094 1.20941,-15.50849 1.20941,-15.50849c0,0 1.69874,-0.68121 3.07237,-0.15868c0.39696,0.151 1.06057,0.80007 1.06057,0.80007l7.23958,7.07681l14.91194,7.3044l14.67484,-5.37473c0,0 0.92662,-5.15149 1.49092,-6.36985c0.36795,-0.79441 1.56553,-0.2291 1.56553,-0.2291z" data-paper-data="{&quot;index&quot;:null}" fill="#3c162f" stroke="#000000" stroke-width="0"/><path d="M356.48671,140.67271l5.87575,12.03232c0,0 -5.21237,13.45516 -21.58067,13.65356c-9.5873,0.1162 -19.86285,-4.69938 -26.73125,-8.70929c-3.18151,-1.85743 -2.99057,-3.71013 -2.789,-4.51701c0.43488,-1.74094 1.20941,-15.50849 1.20941,-15.50849c0,0 4.511,6.2221 4.98677,6.6732c2.06797,1.96077 4.69158,4.44837 4.69158,4.44837l16.29293,7.65671l16.28933,-6.02641z" data-paper-data="{&quot;index&quot;:null}" fill="#7c162e" stroke="#000000" stroke-width="0"/><path d="M356.48671,140.67271c0,0 0.33539,2.95025 0.35197,3.95675c0.04015,2.43768 0.9493,4.65723 2.42742,6.36839c-3.0885,0.53056 -5.68414,2.47409 -7.11112,5.13221c-1.38614,-0.68869 -2.9533,-1.06477 -4.60767,-1.03752c-4.45095,0.07332 -8.17473,3.04376 -9.40425,7.08506c-1.00043,-2.93717 -3.32689,-5.25254 -6.25559,-6.24574c-1.87,-2.25824 -4.71148,-3.6774 -7.8711,-3.62536c-1.02661,0.01692 -2.01453,0.18794 -2.94208,0.4907c-1.87733,0.14642 -3.60574,0.80961 -5.04595,1.84564c0.4195,-1.1318 0.6397,-2.35919 0.61862,-3.63874c-0.02463,-1.4955 -0.37633,-2.90889 -0.98582,-4.17319c0.17198,-0.76243 0.25669,-1.55733 0.24325,-2.37347c-0.01024,-0.62201 0.17084,-1.35891 0.05242,-1.94769l6.19248,6.2356l16.29293,7.65671l16.28933,-6.02641z" data-paper-data="{&quot;index&quot;:null}" fill="#5c162e" stroke="#000000" stroke-width="0"/><path d="M337.84954,157.96126l0.10801,6.55711" fill="none" stroke="#5c162e" stroke-width="0.5"/><path d="M318.0528,150.67057l-2.64872,6.17937" fill="none" stroke="#5c162e" stroke-width="0.5"/><path d="M353.10335,159.191l-1.5782,-5.89816" fill="none" stroke="#5c162e" stroke-width="0.5"/><path d="M338.41582,156.05776l0.3173,-3.50571" fill="none" stroke="#191528" stroke-width="0.5"/><path d="M322.16331,148.44941l1.57743,-2.90137" fill="none" stroke="#191528" stroke-width="0.5"/><path d="M354.44393,150.04294l-1.09721,-2.85731" fill="none" stroke="#191528" stroke-width="0.5"/></g><g stroke-linecap="round"><path d="M355.70272,117.25354l-14.38988,-5.35286l-16.36706,4.42148c0,0 -8.41187,7.49612 -10.81619,9.01132c-1.13686,0.71645 -2.92915,-0.34899 -2.92915,-0.34899l-2.39176,-15.57582c0,0 19.60438,-12.42069 35.88451,-10.71252c16.28013,1.70817 21.85944,16.77121 21.85944,16.77121l-8.59208,10.25444c0,0 -1.57576,0.61503 -1.78521,-0.1705c-0.40485,-1.51844 -0.47261,-8.29776 -0.47261,-8.29776z" data-paper-data="{&quot;index&quot;:null}" fill="#3c162f" stroke="#000000" stroke-width="0"/><path d="M357.10833,115.89827l-15.66364,-7.50403l-16.93003,6.12036l-13.31423,10.46989l-2.39176,-15.57582c0,0 5.13474,-3.2532 12.33076,-6.20079c6.86478,-2.81191 15.60546,-5.34569 23.55375,-4.51173c16.28013,1.70817 21.85944,16.77121 21.85944,16.77121l-8.59208,10.25444z" data-paper-data="{&quot;index&quot;:null}" fill="#7c162e" stroke="#000000" stroke-width="0"/><path d="M357.10832,115.89827l-15.66364,-7.50403l-16.93003,6.12036l-13.31423,10.46989l-0.84341,-5.49255c0.37223,0.0846 0.75319,0.14882 1.14179,0.1913c5.49014,0.60021 10.42734,-3.36386 11.02754,-8.854c0.10979,-1.00428 0.06686,-1.99005 -0.11021,-2.93417c1.50882,1.36993 3.44886,2.29269 5.62972,2.53111c3.84193,0.42002 7.41308,-1.3951 9.41671,-4.4042c1.38971,-0.20542 2.69766,-0.70024 3.85242,-1.42712c0.83784,0.71797 1.79923,1.30185 2.85403,1.71409c1.53203,2.69801 4.29391,4.64686 7.61382,5.00981c2.45022,0.26787 4.79032,-0.37337 6.68389,-1.65365c0.27576,1.60062 0.93635,3.0859 1.89235,4.34445c-0.36552,0.86981 -0.61313,1.80641 -0.7209,2.7922c-0.22165,2.0274 0.17913,3.97939 1.04933,5.66542l-2.727,3.2546z" data-paper-data="{&quot;index&quot;:null}" fill="#5c162e" stroke="#000000" stroke-width="0"/><path d="M323.04933,109.29735l-1.59716,-4.8564" fill="none" stroke="#5c162e" stroke-width="0.5"/><path d="M341.46606,100.45752l0.03313,5.53664" fill="none" stroke="#5c162e" stroke-width="0.5"/><path d="M357.61011,114.35256l3.42356,-6.00998" fill="none" stroke="#5c162e" stroke-width="0.5"/><path d="M341.16441,111.89938l0.18819,-2.87156" fill="none" stroke="#191528" stroke-width="0.5"/><path d="M357.06006,116.02632l-1.25418,1.12033" fill="none" stroke="#191528" stroke-width="0.5"/><path d="M324.92155,114.39896l0.04475,1.89106" fill="none" stroke="#191528" stroke-width="0.5"/></g></g></g></svg>