<svg version="1.1" xmlns="http://www.w3.org/2000/svg" xmlns:xlink="http://www.w3.org/1999/xlink" width="59.62363" height="128.14791" viewBox="0,0,59.62363,128.14791"><g transform="translate(-290.05,-81.4324)"><g data-paper-data="{&quot;isPaintingLayer&quot;:true}" fill-rule="nonzero" stroke="none" stroke-linecap="butt" stroke-linejoin="miter" stroke-miterlimit="10" stroke-dasharray="" stroke-dashoffset="0" style="mix-blend-mode: normal"><g><path d="M299.98645,88.55873c0,-2.07107 1.67893,-3.75 3.75,-3.75c2.07107,0 3.75,1.67893 3.75,3.75c0,2.07107 -1.67893,3.75 -3.75,3.75c-2.07107,0 -3.75,-1.67893 -3.75,-3.75z" fill="#000000" stroke-width="0.5"/><path d="M333.48645,87.7254c0,-2.07107 1.67893,-3.75 3.75,-3.75c2.07107,0 3.75,1.67893 3.75,3.75c0,2.07107 -1.67893,3.75 -3.75,3.75c-2.07107,0 -3.75,-1.67893 -3.75,-3.75z" fill="#000000" stroke-width="0.5"/><path d="M292.54499,93.04382c0,-3.21278 2.60448,-5.81725 5.81725,-5.81725c3.21278,0 5.81725,2.60448 5.81725,5.81725c0,3.21278 -2.60448,5.81725 -5.81725,5.81725c-3.21278,0 -5.81725,-2.60448 -5.81725,-5.81725z" fill="#000000" stroke-width="0.5"/><path d="M336.47255,92.3833c0,-3.21278 2.60448,-5.81725 5.81725,-5.81725c3.21278,0 5.81725,2.60448 5.81725,5.81725c0,3.21278 -2.60448,5.81725 -5.81725,5.81725c-3.21278,0 -5.81725,-2.60448 -5.81725,-5.81725z" fill="#000000" stroke-width="0.5"/><path d="M293.12072,193.13715c0.48909,-10.33016 1.20557,-27.19414 1.20557,-37.33959c0,-15.3477 -1.6514,-45.96087 -1.6514,-45.96087c0,0 0.48502,-28.40429 27.48603,-28.40429c27.0085,0 27.53098,28.40429 27.53098,28.40429c0,0 -1.6514,31.16441 -1.6514,46.62143c0,10.01638 0.70852,26.48844 1.1974,36.66165c0.25747,5.35811 2.43573,8.9689 2.43573,8.9689c0,0 -0.00766,0.03539 -0.02806,0.10196c-1.00876,-0.84092 -2.30659,1.29541 -3.72258,1.29541c-2.55666,0 -1.09497,2.97043 -1.87527,5.26312c-1.12964,0.38445 -5.73618,-2.85676 -6.43311,-1.91716c-1.66562,0.20323 -3.11386,1.11044 -4.03813,2.41507c-1.06688,-1.29918 -2.68562,-2.1279 -4.4979,-2.1279c-1.96281,0 -3.69856,0.97211 -4.75209,2.46114c-0.97204,-1.85561 -2.91635,-3.1217 -5.15637,-3.1217c-1.71204,0 -3.25133,0.73958 -4.31582,1.91667c-0.99205,-0.78645 -2.24667,-1.25611 -3.61095,-1.25611c-1.91576,0 -3.61524,0.92608 -4.67519,2.35499c-1.0337,-1.61487 -2.84336,-2.68527 -4.90301,-2.68527c-0.51315,0 -1.01081,0.06646 -1.4848,0.1912c0.02366,-0.21317 0.03583,-0.42983 0.03583,-0.64932c0,-3.21278 -2.60448,-2.84471 -5.81725,-2.84471c-1.30209,0 -2.50428,-2.54475 -3.47364,-1.82203c0.56734,-1.09948 1.9932,-4.25432 2.1955,-8.5269z" fill="#a8ba9a" stroke-width="NaN"/><path d="M329.07857,207.11917c-1.96281,0 -3.69856,0.97211 -4.75209,2.46114c-0.97204,-1.85561 -2.91635,-3.1217 -5.15637,-3.1217c-1.71204,0 -3.25133,0.73958 -4.31582,1.91667c-0.99205,-0.78645 -2.24667,-1.25611 -3.61095,-1.25611c-1.91576,0 -3.61524,0.92608 -4.67519,2.35499c-1.0337,-1.61487 -2.84336,-2.68527 -4.90301,-2.68527c-0.51315,0 -1.01081,0.06646 -1.4848,0.1912c0.02366,-0.21317 0.03583,-0.42983 0.03583,-0.64932c0,-3.21278 -2.60448,-2.84471 -5.81725,-2.84471c-1.30209,0 -2.50428,-2.54475 -3.47364,-1.82203c0.45619,-0.88404 1.46739,-3.09692 1.95132,-6.15119c1.37029,0.09654 2.7537,0.14566 4.14856,0.14566c17.78946,0 33.71386,-7.98513 44.38447,-20.56666c-6.11347,9.20743 -9.67486,20.25604 -9.67486,32.13648c0,0.17771 0.00079,0.3552 0.00237,0.53253c-0.79685,-0.41016 -1.70066,-0.64169 -2.65858,-0.64169z" fill-opacity="0.09804" fill="#000000" stroke-width="NaN"/><path d="M320.16091,81.4324c23.86823,0 27.05143,22.18314 27.46899,27.34162c-7.22735,-12.71081 -19.10551,-22.43225 -33.31957,-26.84943c1.79688,-0.31911 3.74296,-0.49216 5.85057,-0.49216z" fill-opacity="0.09804" fill="#000000" stroke-width="NaN"/><path d="M302.21819,123.22442c-0.54012,0.21605 -0.75617,-0.32407 -0.75617,-0.32407l-0.085,-0.21247c-1.19263,-3.05431 -1.21052,-7.45367 -0.18529,-10.52932c0,0 0.18396,-0.55187 0.73584,-0.36793c0.55187,0.18396 0.36793,0.73584 0.36793,0.73584c-0.93616,2.80848 -0.97609,6.96483 0.16179,9.72931l0.085,0.21249c0,0 0.21605,0.5401 -0.32407,0.75615z" fill-opacity="0.09804" fill="#000000" stroke-width="0.5"/><path d="M347.23789,193.11975c0.25747,5.35811 2.43573,8.9689 2.43573,8.9689c0,0 -0.00766,0.03539 -0.02806,0.10196c-1.00876,-0.84092 -2.30659,1.29541 -3.72258,1.29541c-2.55666,0 -1.09497,2.97043 -1.87527,5.26312c-1.12964,0.38445 -5.73618,-2.85676 -6.43311,-1.91716c-1.66562,0.20323 -3.11386,1.11044 -4.03813,2.41507c-1.06688,-1.29918 -2.68562,-2.1279 -4.4979,-2.1279c-1.96281,0 -3.69856,0.97211 -4.75209,2.46114c-0.97204,-1.85561 -2.91635,-3.1217 -5.15637,-3.1217c-1.71204,0 -3.25133,0.73958 -4.31582,1.91667c-0.99205,-0.78645 -2.24667,-1.25611 -3.61095,-1.25611c-1.91576,0 -3.61524,0.92608 -4.67519,2.35499c-1.0337,-1.61487 -2.84336,-2.68527 -4.90301,-2.68527c-0.51315,0 -1.01081,0.06646 -1.4848,0.1912c0.02366,-0.21317 0.03583,-0.42983 0.03583,-0.64932c0,-3.21278 -2.60448,-2.84471 -5.81725,-2.84471c-1.30209,0 -2.50428,-2.54475 -3.47364,-1.82203c0.14639,-0.28365 0.3499,-0.70412 0.57479,-1.24529c5.51818,1.73659 11.39113,2.67291 17.48277,2.67291c14.5523,0 27.85659,-5.34345 38.05781,-14.17534c0.06806,1.48701 0.13445,2.89713 0.19723,4.20343z" fill-opacity="0.09804" fill="#000000" stroke-width="NaN"/><path d="M302.90636,117.88002c0,-5.40169 3.3801,-12.10754 6.59288,-12.10754c3.21278,0 7.36853,5.93022 7.36853,11.33191c0,5.40169 -3.3801,11.33191 -6.59288,11.33191c-3.21278,0 -7.36853,-5.15457 -7.36853,-10.55626z" fill-opacity="0.09804" fill="#000000" stroke-width="0.5"/><path d="M323.49897,117.10437c0,-5.40169 4.15575,-11.33191 7.36853,-11.33191c3.21278,0 6.59288,6.70585 6.59288,12.10754c0,5.40169 -4.15575,10.55626 -7.36853,10.55626c-3.21278,0 -6.59288,-5.93022 -6.59288,-11.33191z" fill-opacity="0.09804" fill="#000000" stroke-width="0.5"/></g><path d="" fill-opacity="0.09804" fill="#000000" stroke-width="0.5"/><path d="M306.94874,109.39537c0.36484,-0.4276 0.77782,-0.86293 1.24122,-1.31883c0.12309,-0.19974 0.25317,-0.40245 0.39078,-0.60864c0.21702,-0.30447 0.45666,-0.47664 0.7237,-0.58746c0.27983,-0.46809 0.58546,-0.84379 0.92075,-1.02873c1.56689,-0.86429 4.57468,1.32379 5.22222,2.5202c1.50931,3.21201 2.73716,7.26927 1.3914,10.70941c-1.35746,3.47007 -3.6234,6.17532 -5.75371,9.23146c-2.07786,2.9809 -4.0064,-0.23928 -4.97989,-3.17204c-0.40112,-0.29524 -0.73373,-0.70647 -1.00676,-1.19737c-0.98976,-0.91881 -1.66334,-2.14159 -1.71913,-3.33863c-0.05821,-1.28389 0.2264,-2.49789 0.69358,-3.66586c0.05372,-0.62547 0.13807,-1.18341 0.24162,-1.62725c0.05226,-0.11755 0.10544,-0.23574 0.15958,-0.35442c-0.10915,-1.10202 0.05267,-2.22401 0.63074,-3.37605c0.46868,-0.93403 0.84248,-2.00056 1.84388,-2.18578zM314.60167,110.73712c-0.91962,-0.83116 -1.9236,-1.73903 -2.86389,-2.10001c-0.38786,-0.1489 -1.09497,-0.23774 -1.75135,0.24221c-0.76175,0.557 -1.45517,1.70665 -1.50191,1.68104c-0.39119,0.45551 -0.70206,0.88567 -0.86734,1.15918c-0.44324,0.73355 -0.77767,1.43468 -1.02847,2.12177c-0.21276,1.22047 -0.34616,2.52899 -0.54672,4.07115c-0.0096,0.07382 -0.01897,0.14863 -0.02807,0.22432c0.12934,0.26629 0.26612,0.53213 0.40765,0.79776c0.54292,1.00493 2.37806,3.70637 4.17976,4.9393c0.27442,-0.19585 0.52678,-0.38138 0.73911,-0.51716c1.44835,-0.88891 2.56826,-3.85344 3.10255,-6.45639v-0.00001c-0.04426,-0.20978 -0.09415,-0.41146 -0.14944,-0.60558c0.11462,-0.24452 0.21,-0.49852 0.29843,-0.77609c0.02095,0.05622 0.04141,0.11307 0.06138,0.17055c0.03094,-0.22039 0.0567,-0.43458 0.07709,-0.64073c0.06861,-0.24924 0.137,-0.51902 0.21174,-0.81689c0,0 0.05606,-0.22423 -0.15523,-0.29539c-0.00153,-0.1657 -0.00871,-0.31998 -0.02171,-0.46106c-0.04974,-0.53981 -0.05606,-1.60994 -0.16357,-2.73797zM312.84065,124.9652c-0.11646,0.03331 -0.23526,0.0543 -0.35602,0.06389c-1.41168,1.54212 -3.23762,2.71869 -4.90918,1.74945c-0.64696,-0.37514 -0.30609,-0.89184 -0.79461,-1.24578c0.86687,2.41293 2.32647,4.69803 3.87299,2.4794c0.72668,-1.0425 1.46989,-2.04292 2.18682,-3.04695zM305.9192,119.10942c-0.01064,0.14492 -0.01975,0.29143 -0.02707,0.43899c0.00416,0.17042 0.00907,0.34272 0.01444,0.51712c0.63461,2.03523 1.84411,3.61274 4.16027,4.17702c0.0385,-0.02524 0.07681,-0.05074 0.1149,-0.07638c-1.84407,-1.33633 -3.61606,-3.85887 -4.22342,-4.98308c-0.01308,-0.02455 -0.02613,-0.0491 -0.03912,-0.07366zM309.65609,107.29221c-0.27835,0.49 -0.53497,1.08756 -0.76831,1.6647c0.88473,-0.59054 1.89637,-0.98144 3.06194,-1.07172c0.79568,0.19846 1.41413,0.48396 1.89492,0.83951c-0.73446,-1.1506 -1.75301,-1.92829 -3.1632,-1.62322c-0.3489,0.07548 -0.71186,0.09469 -1.02535,0.19073zM311.56032,124.3774c0.14704,-0.01475 0.28806,-0.03883 0.42325,-0.07162c1.71352,-1.24926 2.1853,-2.84301 2.70062,-4.99558c0.00344,-0.33643 -0.00894,-0.67276 -0.03553,-1.00306c-0.63961,2.32301 -1.70282,4.62034 -3.02498,5.49243c-0.16469,0.10532 -0.34606,0.23221 -0.53941,0.36825c0.16023,0.08474 0.31923,0.15536 0.47605,0.20958zM305.43222,121.65212c-0.05866,-0.53198 -0.07947,-1.07998 -0.07264,-1.6235c-0.31526,-1.06509 -0.48863,-2.23424 -0.57905,-3.4369c-0.06631,0.14768 -0.1299,0.29604 -0.1904,0.44512c-0.16694,2.0328 -0.01541,4.86194 0.90924,6.57971c0.07217,0.06576 0.14612,0.12974 0.2217,0.19177c-0.16903,-0.69307 -0.26592,-1.29916 -0.2768,-1.70645c-0.00371,-0.15158 -0.00777,-0.30146 -0.01205,-0.44974zM305.9552,121.55721c0.00313,0.10402 0.00616,0.20886 0.00903,0.31457c0.14398,1.08991 0.47365,2.08203 1.10881,2.74752c0.40172,0.16226 0.82076,0.26662 1.24393,0.29797c0.3463,0.02566 0.73461,-0.10492 1.12566,-0.30556c-1.68057,-0.54573 -2.77691,-1.6431 -3.48743,-3.0545zM316.77857,114.19876c-0.10377,0.91491 -0.34818,1.94317 -0.64039,2.95985c-0.11874,1.34367 -0.40654,2.6823 -0.83715,3.97502c0.38829,-0.71715 0.74183,-1.46067 1.0482,-2.24383c0.57999,-1.48263 0.65508,-3.09037 0.42935,-4.69103zM309.98546,125.93939c-1.13085,0.15671 -2.00258,-0.02797 -2.66798,-0.44791c0.17971,0.34593 0.26186,0.71748 0.51301,0.82733c1.33618,0.58443 2.70019,-0.10879 3.84125,-1.18728c-0.48386,0.28939 -1.04094,0.558 -1.68628,0.80786zM314.59052,108.09994c0.20728,0.54863 0.34133,1.17753 0.43197,1.81889c0.10015,0.24379 0.19252,0.4911 0.27768,0.73841c0.27476,0.24676 0.53726,0.4761 0.78195,0.66862c-0.3168,-0.94871 -0.70051,-1.86446 -1.10378,-2.71658c-0.07962,-0.14697 -0.21361,-0.32177 -0.38782,-0.50934zM315.87959,112.75273c0.10276,0.46925 0.17992,0.94368 0.2327,1.42139c0.28893,-0.88987 0.59148,-1.71883 -0.2788,-2.37564c-0.07787,-0.05979 -0.1572,-0.12304 -0.23782,-0.18919c0.11144,0.39881 0.20521,0.78523 0.28392,1.14344zM310.99073,124.91668c-0.24755,-0.01331 -0.50778,-0.04721 -0.7811,-0.1034c-0.02049,-0.00421 -0.04089,-0.00849 -0.06122,-0.01285c-0.49057,0.3041 -1.00572,0.56046 -1.49215,0.62887c0.35541,0.05552 0.75318,0.05871 1.1978,0.00106c0.41818,-0.1642 0.79541,-0.33515 1.13668,-0.51368zM306.78674,110.964c0.12718,-0.35728 0.2713,-0.71626 0.43621,-1.08071c-0.77907,0.93693 -1.30942,1.8352 -1.62141,2.85827c0.35766,-0.61947 0.75035,-1.22086 1.1852,-1.77756zM304.01516,118.97228c-0.09397,0.52555 -0.13547,1.06126 -0.11065,1.60865c0.02646,0.5993 0.23395,1.21395 0.57129,1.7854c-0.29223,-1.05805 -0.43021,-2.25279 -0.46064,-3.39405zM310.06413,106.68428c0.16048,-0.02913 0.32899,-0.05831 0.50615,-0.09664c0.29019,-0.06278 0.56583,-0.08756 0.82762,-0.07876c0.06507,-0.07622 0.16622,-0.09356 0.16622,-0.09356l0.43051,-0.07379c-0.57403,-0.20655 -1.11708,-0.25814 -1.5127,-0.03105c-0.14346,0.08235 -0.28278,0.21089 -0.4178,0.37379zM305.29025,116.34717c0.04287,0.13969 0.08934,0.27911 0.13907,0.4183c0.06135,-0.69913 0.16899,-1.38515 0.34749,-2.0758c-0.1794,0.30711 -0.35349,0.61656 -0.51864,0.92876c0.00482,0.23466 0.01557,0.47728 0.03208,0.72874zM314.06863,108.14365c-0.31061,-0.77893 -0.77925,-1.3235 -1.49529,-1.34168c0.58456,0.28598 1.07843,0.7612 1.49529,1.34168zM315.52648,113.73989c0.00565,0.79419 -0.00619,1.61326 0.04366,2.42323c0.03519,-0.13403 0.07037,-0.26807 0.10554,-0.40211c-0.00135,-0.67757 -0.04985,-1.35304 -0.14919,-2.02112zM305.28352,114.51774c0.30617,-0.5288 0.62786,-1.05103 0.948,-1.56928c0.02812,-0.13158 0.05752,-0.26248 0.08839,-0.39288c-0.38081,0.62058 -0.7219,1.26666 -1.03213,1.90525c-0.00148,0.01892 -0.0029,0.03788 -0.00427,0.0569zM315.06172,116.4982c-0.02486,0.13715 -0.05145,0.27558 -0.07977,0.41496c0.04369,0.22636 0.08101,0.45913 0.11144,0.69639c0.02481,-0.09846 0.05021,-0.19791 0.07627,-0.29837c-0.04876,-0.26746 -0.08348,-0.53901 -0.10794,-0.81298zM307.97224,109.67494c0.03818,-0.03464 0.07664,-0.06891 0.11536,-0.10279c0.12018,-0.29476 0.24707,-0.61529 0.38148,-0.94134c-0.20488,0.34615 -0.38812,0.68316 -0.55267,1.01395c0.01863,0.01008 0.03724,0.02014 0.05584,0.03019zM307.21047,111.33405c0.04908,-0.08437 0.09762,-0.16871 0.14558,-0.25303c-0.03424,0.04198 -0.0682,0.08427 -0.1019,0.12684c-0.0148,0.04209 -0.02936,0.08415 -0.04368,0.12619z" fill="#1a090d" stroke-width="0.5"/><path d="M333.94726,109.39538c1.0014,0.18522 1.3752,1.25175 1.84388,2.18578c0.57807,1.15204 0.73989,2.27403 0.63074,3.37605c0.05414,0.11868 0.10732,0.23687 0.15958,0.35442c0.10355,0.44384 0.1879,1.00178 0.24162,1.62725c0.46718,1.16797 0.75179,2.38197 0.69358,3.66586c-0.05579,1.19704 -0.72937,2.41982 -1.71913,3.33863c-0.27303,0.4909 -0.60564,0.90213 -1.00676,1.19737c-0.97349,2.93276 -2.90203,6.15294 -4.97989,3.17204c-2.13031,-3.05614 -4.39625,-5.76139 -5.75371,-9.23146c-1.34576,-3.44014 -0.11791,-7.4974 1.3914,-10.70941c0.64754,-1.19641 3.65533,-3.38449 5.22222,-2.5202c0.33529,0.18494 0.64092,0.56064 0.92075,1.02873c0.26704,0.11082 0.50668,0.28299 0.7237,0.58746c0.13761,0.20619 0.26769,0.4089 0.39078,0.60864c0.4634,0.4559 0.87638,0.89123 1.24122,1.31883zM326.13074,113.47509c-0.013,0.14108 -0.02017,0.29536 -0.0217,0.46106c-0.21128,0.07116 -0.15523,0.29538 -0.15523,0.29538c0.07474,0.29787 0.14312,0.56766 0.21173,0.8169c0.02039,0.20615 0.04615,0.42034 0.07709,0.64073c0.01997,-0.05748 0.04044,-0.11433 0.06138,-0.17056c0.08843,0.27757 0.18381,0.53157 0.29843,0.77609c-0.05529,0.19412 -0.10519,0.39581 -0.14945,0.60558v0.00001c0.53429,2.60295 1.6542,5.56748 3.10255,6.45639c0.21233,0.13578 0.46469,0.32131 0.73911,0.51716c1.8017,-1.23293 3.63684,-3.93437 4.17976,-4.9393c0.14153,-0.26563 0.27831,-0.53147 0.40765,-0.79776c-0.0091,-0.07569 -0.01847,-0.1505 -0.02807,-0.22432c-0.20056,-1.54216 -0.33396,-2.85068 -0.54672,-4.07115c-0.2508,-0.68709 -0.58523,-1.38822 -1.02847,-2.12177c-0.16528,-0.27351 -0.47615,-0.70367 -0.86734,-1.15918c-0.04674,0.02562 -0.74016,-1.12403 -1.50191,-1.68104c-0.65638,-0.47995 -1.36349,-0.3911 -1.75135,-0.24221c-0.94029,0.36098 -1.94427,1.26885 -2.86389,2.10001c-0.10751,1.12803 -0.11383,2.19816 -0.16357,2.73797zM328.05533,124.96521c0.71693,1.00403 1.46014,2.00445 2.18682,3.04695c1.54652,2.21863 3.00612,-0.06647 3.87299,-2.4794c-0.48852,0.35394 -0.14765,0.87064 -0.79461,1.24578c-1.67156,0.96924 -3.4975,-0.20733 -4.90918,-1.74945c-0.12076,-0.00959 -0.23956,-0.03058 -0.35602,-0.06389zM334.97678,119.10943c-0.01299,0.02456 -0.02604,0.04911 -0.03912,0.07366c-0.60736,1.12421 -2.37935,3.64675 -4.22342,4.98308c0.03809,0.02564 0.0764,0.05114 0.1149,0.07638c2.31616,-0.56428 3.52566,-2.14179 4.16027,-4.17702c0.00537,-0.1744 0.01028,-0.3467 0.01444,-0.51712c-0.00732,-0.14756 -0.01643,-0.29407 -0.02707,-0.43899zM330.21454,107.10148c-1.41019,-0.30507 -2.42874,0.47262 -3.1632,1.62322c0.48079,-0.35555 1.09924,-0.64105 1.89492,-0.83951c1.16557,0.09028 2.17721,0.48118 3.06194,1.07172c-0.23334,-0.57714 -0.48996,-1.1747 -0.76831,-1.6647c-0.31349,-0.09604 -0.67645,-0.11525 -1.02535,-0.19073zM329.8117,124.16782c-0.19335,-0.13604 -0.37471,-0.26292 -0.5394,-0.36825c-1.32216,-0.87209 -2.38537,-3.16942 -3.02498,-5.49243c-0.02659,0.3303 -0.03897,0.66663 -0.03553,1.00306c0.51532,2.15257 0.9871,3.74632 2.70062,4.99558c0.13519,0.03279 0.27621,0.05687 0.42325,0.07162c0.15681,-0.05422 0.31582,-0.12485 0.47604,-0.20958zM335.46376,121.65213c-0.00428,0.14828 -0.00834,0.29816 -0.01205,0.44974c-0.01088,0.40729 -0.10777,1.01338 -0.2768,1.70645c0.07558,-0.06203 0.14953,-0.12601 0.2217,-0.19177c0.92465,-1.71777 1.07618,-4.54691 0.90924,-6.57971c-0.0605,-0.14908 -0.12409,-0.29744 -0.1904,-0.44512c-0.09042,1.20266 -0.26379,2.37181 -0.57905,3.4369c0.00683,0.54352 -0.01398,1.09152 -0.07264,1.6235zM331.45334,124.61171c0.39105,0.20064 0.77937,0.33122 1.12567,0.30556c0.42317,-0.03135 0.84221,-0.13571 1.24393,-0.29797c0.63516,-0.66549 0.96483,-1.65761 1.10881,-2.74752c0.00287,-0.10571 0.0059,-0.21055 0.00903,-0.31457c-0.71053,1.4114 -1.80687,2.50877 -3.48744,3.0545zM324.1174,114.19877c-0.22573,1.60066 -0.15064,3.2084 0.42935,4.69103c0.30637,0.78316 0.65991,1.52668 1.0482,2.24383c-0.43061,-1.29272 -0.71841,-2.63135 -0.83715,-3.97502c-0.29221,-1.01668 -0.53662,-2.04494 -0.64039,-2.95985zM329.22424,125.13153c1.14107,1.0785 2.50507,1.77171 3.84125,1.18729c0.25115,-0.10985 0.3333,-0.4814 0.51301,-0.82733c-0.6654,0.41994 -1.53713,0.60462 -2.66798,0.44791c-0.64533,-0.24986 -1.20242,-0.51847 -1.68628,-0.80787zM325.91764,108.60928c-0.40327,0.85212 -0.78698,1.76787 -1.10378,2.71658c0.24469,-0.19252 0.50719,-0.42186 0.78195,-0.66862c0.08516,-0.24731 0.17753,-0.49462 0.27768,-0.73841c0.09064,-0.64136 0.22469,-1.27026 0.43197,-1.81889c-0.17421,0.18757 -0.3082,0.36237 -0.38782,0.50934zM325.30031,111.6093c-0.08062,0.06615 -0.15995,0.1294 -0.23782,0.18918c-0.87028,0.65681 -0.56773,1.48577 -0.2788,2.37564c0.05278,-0.47771 0.12994,-0.95214 0.2327,-1.42139c0.07871,-0.3582 0.17249,-0.74462 0.28393,-1.14343zM329.90523,124.91668c0.34127,0.17853 0.7185,0.34948 1.13668,0.51368c0.44462,0.05765 0.84239,0.05446 1.1978,-0.00106c-0.48643,-0.06841 -1.00158,-0.32477 -1.49215,-0.62887c-0.02033,0.00436 -0.04073,0.00864 -0.06122,0.01285c-0.27332,0.05619 -0.53355,0.09009 -0.7811,0.1034zM335.29444,112.74156c-0.31199,-1.02307 -0.84234,-1.92134 -1.62141,-2.85827c0.16491,0.36445 0.30903,0.72343 0.43621,1.08071c0.43485,0.5567 0.82754,1.15809 1.1852,1.77756zM336.42018,122.36633c0.33733,-0.57144 0.54483,-1.1861 0.57129,-1.7854c0.02482,-0.54739 -0.01668,-1.0831 -0.11065,-1.60865c-0.03043,1.14126 -0.16841,2.336 -0.46064,3.39405zM330.83185,106.68427c-0.13502,-0.1629 -0.27434,-0.29144 -0.4178,-0.37379c-0.39562,-0.22709 -0.93867,-0.1755 -1.5127,0.03105l0.43051,0.07379c0,0 0.10115,0.01734 0.16622,0.09356c0.26179,-0.0088 0.53743,0.01598 0.82762,0.07876c0.17716,0.03833 0.34567,0.06751 0.50615,0.09664zM335.63781,115.61843c-0.16515,-0.3122 -0.33924,-0.62165 -0.51864,-0.92876c0.1785,0.69065 0.28614,1.37667 0.34749,2.0758c0.04973,-0.13919 0.0962,-0.27861 0.13907,-0.4183c0.01651,-0.25146 0.02726,-0.49408 0.03208,-0.72874zM328.32264,106.80197c-0.71604,0.01818 -1.18468,0.56275 -1.49529,1.34168c0.41686,-0.58048 0.91073,-1.0557 1.49529,-1.34168zM325.36949,113.73989c-0.09934,0.66808 -0.14784,1.34355 -0.14919,2.02112c0.03517,0.13404 0.07035,0.26808 0.10554,0.40211c0.04985,-0.80997 0.03801,-1.62904 0.04366,-2.42323zM335.61247,114.51773c-0.00137,-0.01902 -0.00279,-0.03798 -0.00427,-0.0569c-0.31023,-0.63859 -0.65132,-1.28467 -1.03213,-1.90525c0.03087,0.1304 0.06027,0.2613 0.08839,0.39288c0.32014,0.51825 0.64183,1.04048 0.948,1.56928zM325.72632,117.31118c0.02606,0.10046 0.05146,0.19991 0.07627,0.29837c0.03043,-0.23726 0.06775,-0.47003 0.11144,-0.69639c-0.02832,-0.13938 -0.05491,-0.27781 -0.07977,-0.41496c-0.02446,0.27397 -0.05918,0.54552 -0.10794,0.81298zM332.92373,109.67495c0.0186,-0.01005 0.03721,-0.02011 0.05584,-0.03019c-0.16455,-0.33079 -0.34779,-0.6678 -0.55267,-1.01395c0.13441,0.32605 0.2613,0.64658 0.38148,0.94134c0.03872,0.03388 0.07718,0.06815 0.11536,0.10279zM333.64183,111.20786c-0.0337,-0.04257 -0.06766,-0.08486 -0.1019,-0.12684c0.04796,0.08432 0.0965,0.16866 0.14558,0.25303c-0.01432,-0.04204 -0.02888,-0.0841 -0.04368,-0.12619z" data-paper-data="{&quot;index&quot;:null}" fill="#1a090d" stroke-width="0.5"/><g stroke-width="0.5"><path d="M302.65591,95.34448c2.40185,0 4.46372,1.45564 5.35157,3.53284c0.98488,-0.76522 2.22226,-1.22086 3.56607,-1.22086c0.66903,0 1.3117,0.11295 1.90994,0.32081c1.066,-1.20931 2.62661,-1.97221 4.36543,-1.97221c2.10373,0 3.94663,1.1167 4.96831,2.78967c0.42015,-0.09645 0.85765,-0.14743 1.30707,-0.14743c1.88779,0 3.56553,0.89921 4.62832,2.29267c0.67606,-2.46396 2.93183,-4.27438 5.61044,-4.27438c1.29813,0 2.49695,0.42519 3.46478,1.14393c0.78621,-2.10987 2.76192,-3.64047 5.11171,-3.77636c0.49915,2.87399 1.18907,2.34626 2.58027,4.79403c1.3912,2.44777 1.35985,5.22591 1.44417,5.3448c-1.02979,0.92387 -2.19091,1.48584 -3.68328,1.48584c-1.29813,0 -2.49695,-0.42519 -3.46478,-1.14393c-0.82398,2.21123 -2.95449,3.78619 -5.45286,3.78619c-1.88779,0 -7.56015,1.98171 -10.23876,1.98171c-2.10373,0 -3.94663,-1.1167 -4.96831,-2.78967c-0.42015,0.09645 -0.85765,0.14743 -1.30707,0.14743c-0.66903,0 -1.3117,-0.11295 -1.90994,-0.32081c-1.066,1.20931 -2.62661,1.97221 -4.36543,1.97221c-1.5314,0 -2.92459,-0.59175 -3.96339,-1.55905c-1.0388,0.96732 -2.43198,1.55905 -3.96339,1.55905c-2.69076,0 -4.95483,-1.82687 -5.61954,-4.30793c-0.61719,0.22299 -1.28287,0.34454 -1.97696,0.34454c-0.91465,0 -1.78001,-0.2111 -2.55,-0.58722c0.78844,-5.42685 0.90285,-4.36751 0.90285,-6.68162c0,-1.36982 -0.11017,-2.71391 -0.32214,-4.02389c0.61502,-0.22123 1.27807,-0.34177 1.96928,-0.34177c1.7831,0 3.37885,0.80227 4.44594,2.06552c0.66775,-0.26715 1.39656,-0.4141 2.15971,-0.4141z" fill-opacity="0.09804" fill="#000000"/><path d="M302.65591,92.51114c2.40185,0 4.46372,1.45564 5.35157,3.53284c0.98488,-0.76522 2.22226,-1.22086 3.56607,-1.22086c0.66903,0 1.3117,0.11295 1.90994,0.32081c1.066,-1.20931 2.62661,-1.97221 4.36543,-1.97221c2.10373,0 3.94663,1.1167 4.96831,2.78967c0.42015,-0.09645 0.85765,-0.14743 1.30707,-0.14743c1.88779,0 3.56553,0.89921 4.62832,2.29267c0.67606,-2.46396 2.93183,-4.27438 5.61044,-4.27438c1.29813,0 2.49695,0.42519 3.46478,1.14393c0.82398,-2.21123 2.95449,-3.78619 5.45286,-3.78619c3.21278,0 5.81725,2.60448 5.81725,5.81725c0,3.21278 -2.60448,5.81725 -5.81725,5.81725c-1.29813,0 -2.49695,-0.42519 -3.46478,-1.14393c-0.82398,2.21123 -2.95449,3.78619 -5.45286,3.78619c-1.88779,0 -3.56553,-0.89921 -4.62832,-2.29267c-0.67606,2.46396 -2.93183,4.27438 -5.61044,4.27438c-2.10373,0 -3.94663,-1.1167 -4.96831,-2.78967c-0.42015,0.09645 -0.85765,0.14743 -1.30707,0.14743c-0.66903,0 -1.3117,-0.11295 -1.90994,-0.32081c-1.066,1.20931 -2.62661,1.97221 -4.36543,1.97221c-1.5314,0 -2.92459,-0.59175 -3.96339,-1.55905c-1.0388,0.96732 -2.43198,1.55905 -3.96339,1.55905c-2.69076,0 -4.95483,-1.82687 -5.61954,-4.30793c-0.61719,0.22299 -1.28287,0.34454 -1.97696,0.34454c-3.21278,0 -5.81725,-2.60448 -5.81725,-5.81725c0,-3.21278 2.60448,-5.81725 5.81725,-5.81725c1.7831,0 3.37885,0.80227 4.44594,2.06552c0.66775,-0.26715 1.39656,-0.4141 2.15971,-0.4141z" fill="#1a090d"/><path d="M290.05,96.70427c0,-2.34586 1.38855,-4.36743 3.3886,-5.28758c-0.80948,0.9994 -1.29439,2.27245 -1.29439,3.65875c0,3.21278 2.60448,5.81725 5.81725,5.81725c0.86691,0 -0.26773,1.62883 -2.09421,1.62883c-3.21278,0 -5.81725,-2.60448 -5.81725,-5.81725z" fill="#4a314d"/><path d="M343.67045,103.21961c-1.82648,0 -3.45636,-0.84176 -4.52284,-2.1585c0.73912,0.34003 1.56172,0.52967 2.42863,0.52967c3.21278,0 5.81725,-2.60448 5.81725,-5.81725c0,-1.3863 -0.48493,-2.65935 -1.29441,-3.65875c2.00004,0.92015 3.38862,2.94171 3.38862,5.28758c0,3.21278 -2.60448,5.81725 -5.81725,5.81725z" data-paper-data="{&quot;index&quot;:null}" fill="#ace894"/><path d="M334.82822,106.01189c-1.82648,0 -3.45636,-0.84176 -4.52287,-2.1585c0.73912,0.34003 1.56172,0.52967 2.42863,0.52967c3.21278,0 5.81725,-2.60448 5.81725,-5.81725c0,-1.3863 -0.48493,-2.65935 -1.29439,-3.65875c2.00004,0.92015 3.38862,2.94171 3.38862,5.28758c0,3.21278 -2.60448,5.81725 -5.81725,5.81725z" data-paper-data="{&quot;index&quot;:null}" fill="#4a314d"/><path d="M296.79801,101.12538c0,-2.34586 1.38855,-4.36741 3.38862,-5.28758c-0.80946,0.9994 -1.29441,2.27245 -1.29441,3.65875c0,3.21278 2.60448,5.81725 5.81725,5.81725c0.86691,0 2.35621,-0.18964 3.0953,-0.52967c-1.06649,1.31675 -3.36304,2.1585 -5.18951,2.1585c-3.21278,0 -5.81725,-2.60448 -5.81725,-5.81725z" fill="#6b6570"/><path d="M305.21353,102.07468c-0.42871,-2.30635 0.56702,-4.54762 2.36522,-5.81781c-0.61318,1.1305 -0.8573,2.47073 -0.60395,3.83369c0.58715,3.15867 3.62373,5.24332 6.7824,4.65617c0.85232,-0.15844 2.29308,-0.49521 2.95762,-0.96459c-0.8079,1.48947 -2.92316,2.61492 -4.71887,2.94872c-3.15867,0.58715 -6.19526,-1.4975 -6.7824,-4.65617z" fill="#ace894"/><path d="M311.69018,99.26381c0,-3.21278 2.60448,-5.81725 5.81725,-5.81725c3.21278,0 5.81725,2.60448 5.81725,5.81725c0,3.21278 -2.60448,5.81725 -5.81725,5.81725c-3.21278,0 -5.81725,-2.60448 -5.81725,-5.81725z" fill="#6b6570"/><path d="M319.83432,96.0062c0,-3.21278 2.60448,-5.81725 5.81725,-5.81725c3.21278,0 5.81725,2.60448 5.81725,5.81725c0,3.21278 -2.60448,5.81725 -5.81725,5.81725c-3.21278,0 -5.81725,-2.60448 -5.81725,-5.81725z" fill="#6b6570"/><path d="M318.2055,102.75416c0,-3.21278 2.60448,-5.81725 5.81725,-5.81725c3.21278,0 5.81725,2.60448 5.81725,5.81725c0,3.21278 -2.60448,5.81725 -5.81725,5.81725c-3.21278,0 -5.81725,-2.60448 -5.81725,-5.81725z" fill="#6b6570"/><path d="M314.01707,92.05049c0,-3.21278 2.60448,-5.81725 5.81725,-5.81725c3.21278,0 5.81725,2.60448 5.81725,5.81725c0,3.21278 -2.60448,5.81725 -5.81725,5.81725c-3.21278,0 -5.81725,-2.60448 -5.81725,-5.81725z" fill="#6b6570"/><path d="M317.22269,95.4929c0.24558,0.03162 0.49593,0.04791 0.75012,0.04791c2.24886,0 4.19966,-1.2761 5.16784,-3.14367c0.80627,0.91806 1.89705,1.58006 3.13461,1.84823c-0.68544,0.95442 -1.08906,2.1249 -1.08906,3.38964c0,0.84529 0.18029,1.64845 0.5045,2.37316c-0.24144,-0.03053 -0.48749,-0.04626 -0.73719,-0.04626c-1.86133,0 -3.51848,0.87419 -4.58327,2.23438c-0.15339,-0.07274 -0.3031,-0.15197 -0.44877,-0.23737c0.09526,-0.41766 0.14557,-0.85244 0.14557,-1.29895c0,-2.14112 -1.15675,-4.01207 -2.8794,-5.02199c0.01108,-0.04861 0.02278,-0.09699 0.03507,-0.14511z" fill="#1a090d"/></g><path d="M329.82178,136.77469c0.02179,0.00603 0.04159,0.01571 0.05892,0.02821c0.01831,-0.03173 0.05033,-0.06087 0.10465,-0.07875c0.17586,-0.0579 0.23376,0.11796 0.23376,0.11796l0.02337,0.071c0.15379,0.49565 0.56435,0.69267 0.69095,1.22369c0.66277,2.14689 -2.02174,2.53645 -3.279,2.51183c-0.27623,-0.00541 -0.62498,0.49718 -0.92847,0.50809c-0.47428,0.01705 -1.33166,-0.58687 -1.7676,-0.78606c-0.80759,-0.38769 -0.91159,-1.47866 -1.66348,-1.95157c-1.09999,-0.69185 -3.72786,-0.6413 -4.83108,-0.1222c-0.58838,0.59297 -2.53193,2.88217 -3.43803,2.79691c-0.69109,-0.06502 -2.2006,-2.26772 -2.0598,-2.75704c0.4839,-1.3781 1.00831,-3.35961 2.1098,-4.39959c0.62168,-0.58696 1.90319,-0.92922 2.6769,-1.30344c0.55514,-0.26521 0.90816,-0.90386 1.45495,-1.14016c1.60978,-0.69568 4.55537,-0.06364 5.85435,0.97578c1.71333,1.37098 3.11703,2.78815 4.5947,4.33924c0.04482,-0.03583 0.10559,-0.05039 0.16512,-0.03392zM329.74813,137.17332c-0.13414,0.1276 -0.26175,-0.00654 -0.26175,-0.00654c-1.50289,-1.57993 -2.91674,-3.01674 -4.65578,-4.40829c-1.19441,-0.95576 -3.99226,-1.56624 -5.47609,-0.92499c-0.5265,0.22753 -0.89801,0.86833 -1.44061,1.1336c-0.73196,0.35403 -2.00616,0.6879 -2.58775,1.2429c-1.04826,1.00033 -1.54729,2.92939 -2.01081,4.24945c-0.10663,0.22932 1.37622,2.231 1.74511,2.26571c0.71697,0.06746 2.6841,-2.2352 3.18984,-2.7308c1.22908,-0.59953 4.00183,-0.66166 5.23733,0.10857c0.72057,0.44922 0.87689,1.61205 1.62462,1.93094c0.37057,0.16932 1.21132,0.7668 1.60041,0.7528c0.29888,-0.01074 0.60308,-0.50724 0.92969,-0.50813c0.96759,-0.00264 3.60093,-0.16868 2.93413,-2.04328c-0.1005,-0.48808 -0.48803,-0.69783 -0.66756,-1.15697c-0.0333,0.03626 -0.08026,0.05826 -0.13021,0.05994c-0.00819,0.01168 -0.01828,0.02342 -0.03056,0.0351z" fill="#1a090d" stroke-width="0.5"/><path d="M313.51724,138.86928c0.07982,0.35847 0.19486,0.70879 0.34626,1.04517c0.04693,0.10428 0.08856,0.22548 0.1289,0.35388c1.08062,0.62953 2.70463,-0.61528 3.85845,-1.1047c1.18009,-0.50056 2.72636,-0.54899 3.98412,-0.76473c1.07218,-0.1839 1.49869,0.23286 1.98548,0.83002c0.1921,0.01233 0.38418,0.03886 0.57626,0.08154c1.34255,0.30142 3.11451,1.2205 4.70083,1.2049c0.49417,-0.12516 0.92007,-0.28569 1.21313,-0.45885c-0.07273,-1.01211 0.16775,-2.54917 -0.18361,-3.47969c-0.64112,-1.69791 -3.62037,-2.60424 -5.17812,-3.02253c-1.65384,-0.44477 -3.89912,-0.94032 -5.99335,-0.99089c-0.54316,0.09023 -1.06698,0.22364 -1.55294,0.41862c-0.01445,0.02054 -0.02625,0.03234 -0.02625,0.03234c-0.71919,0.70927 -1.52045,1.30581 -2.23058,1.9159c-0.03927,0.07262 -0.07699,0.14728 -0.1131,0.22404c-0.55714,1.184 -1.01742,2.38683 -1.47682,3.61189zM322.01637,132.38904c1.10869,0.19002 2.1632,0.44057 3.06243,0.6824c4.07676,1.09798 5.80088,2.82543 5.68594,6.95476c0.26272,-0.17939 0.50999,-0.41512 0.7374,-0.71834c0.39558,-0.52748 0.51956,-1.51133 0.78093,-2.1299c-1.33599,-2.78117 -5.20173,-4.7635 -8.2501,-4.75705c-0.62197,-0.00031 -1.30727,-0.02396 -2.0166,-0.03187zM323.19115,139.23672c-0.28389,-0.29087 -0.62722,-0.45556 -1.27165,-0.34502c-1.96431,0.33692 -5.6824,2.36465 -7.81839,1.73366c0.13819,0.44677 0.30259,0.87628 0.64423,0.92428c2.84858,0.71215 5.65034,-2.07548 8.44581,-2.31292zM313.67042,135.72761c0.30016,-0.35442 0.64965,-0.68649 1.02523,-1.01604c0.51251,-0.95906 1.2604,-1.59509 2.14094,-2.01524c-0.60188,0.10259 -1.16227,0.26755 -1.65744,0.51071c-0.70629,0.71451 -1.21593,1.58888 -1.50873,2.52057zM326.41729,140.74727c-0.70722,-0.32798 -1.4101,-0.79038 -2.12765,-0.94842c0.05376,0.06131 0.10981,0.12309 0.16869,0.18501c0.43636,0.45891 1.15771,0.68934 1.95897,0.76341zM312.91996,136.92842c0.15962,-1.52209 0.84138,-3.01156 1.96683,-4.127c1.13365,-0.57547 2.57786,-0.76213 4.08789,-0.72765c1.68653,-0.26212 3.527,-0.15207 5.05829,-0.15287c3.24314,0.00627 7.52555,2.13516 8.7499,5.24295c-0.66553,2.04174 -1.80544,3.58552 -3.81837,3.90047c-1.66705,0.39844 -3.80182,0.29363 -4.85234,-0.71967c-0.21943,-0.21165 -0.38592,-0.4301 -0.53696,-0.63225c-2.92174,-0.07329 -5.88933,3.08776 -8.95112,2.32231c-0.77797,-0.24582 -0.84847,-0.96103 -1.12409,-1.69034c-0.31541,-0.21624 -0.57033,-0.53009 -0.74615,-0.96584c-0.19832,-0.98238 -0.11087,-1.77168 0.16613,-2.45011zM314.15434,135.88995c-0.31323,0.3594 -0.57273,0.74213 -0.7501,1.1689c-0.02232,0.24977 -0.0294,0.50018 -0.02091,0.74943c0.24638,-0.64525 0.49875,-1.28455 0.77101,-1.91833z" fill="#1a090d" stroke-width="0.5"/></g></g></svg>