<svg version="1.1" xmlns="http://www.w3.org/2000/svg" xmlns:xlink="http://www.w3.org/1999/xlink" width="744" height="427" viewBox="0,0,744,427"><g transform="translate(52,33.5)"><g data-paper-data="{&quot;isPaintingLayer&quot;:true}" fill-rule="nonzero" stroke-linecap="butt" stroke-linejoin="miter" stroke-miterlimit="10" stroke-dasharray="" stroke-dashoffset="0" style="mix-blend-mode: normal"><path d="M-52,393.5v-427h744v427z" fill="#000000" stroke="none" stroke-width="0"/><g fill="none" stroke="#ffffff" stroke-width="1.5"><path d="M310.04504,134.95495h19.9099"/><path d="M310.04504,225.04505h19.9099"/></g><text transform="translate(199.02004,185.76875) scale(0.5,0.5)" font-size="40" xml:space="preserve" fill-opacity="0.01176" fill="#ffffff" fill-rule="nonzero" stroke="none" stroke-width="1" stroke-linecap="butt" stroke-linejoin="miter" stroke-miterlimit="10" stroke-dasharray="" stroke-dashoffset="0" font-family="Sans Serif" font-weight="normal" text-anchor="start" style="mix-blend-mode: normal"><tspan x="0" dy="0">made by the spooki team</tspan></text><text transform="translate(199.12309,187.62909) rotate(-0.88125) scale(0.5,0.5)" font-size="40" xml:space="preserve" fill-opacity="0.01176" fill="#ffffff" fill-rule="nonzero" stroke="none" stroke-width="1" stroke-linecap="butt" stroke-linejoin="miter" stroke-miterlimit="10" stroke-dasharray="" stroke-dashoffset="0" font-family="Sans Serif" font-weight="normal" text-anchor="start" style="mix-blend-mode: normal"><tspan x="0" dy="0">made by the spooki team</tspan></text><text transform="translate(200.89949,181.84463) rotate(1.85729) scale(0.5,0.5)" font-size="40" xml:space="preserve" fill-opacity="0.01176" fill="#ffffff" fill-rule="nonzero" stroke="none" stroke-width="1" stroke-linecap="butt" stroke-linejoin="miter" stroke-miterlimit="10" stroke-dasharray="" stroke-dashoffset="0" font-family="Sans Serif" font-weight="normal" text-anchor="start" style="mix-blend-mode: normal"><tspan x="0" dy="0">made by the spooki team</tspan></text><text transform="translate(200.94219,183.70732) rotate(0.97637) scale(0.5,0.5)" font-size="40" xml:space="preserve" fill-opacity="0.01176" fill="#ffffff" fill-rule="nonzero" stroke="none" stroke-width="1" stroke-linecap="butt" stroke-linejoin="miter" stroke-miterlimit="10" stroke-dasharray="" stroke-dashoffset="0" font-family="Sans Serif" font-weight="normal" text-anchor="start" style="mix-blend-mode: normal"><tspan x="0" dy="0">made by the spooki team</tspan></text><text transform="translate(199.02004,185.76875) scale(0.5,0.5)" font-size="40" xml:space="preserve" fill-opacity="0.01176" fill="#ffffff" fill-rule="nonzero" stroke="none" stroke-width="1" stroke-linecap="butt" stroke-linejoin="miter" stroke-miterlimit="10" stroke-dasharray="" stroke-dashoffset="0" font-family="Sans Serif" font-weight="normal" text-anchor="start" style="mix-blend-mode: normal"><tspan x="0" dy="0">made by the spooki team</tspan></text><text transform="translate(199.12309,187.62909) rotate(-0.88125) scale(0.5,0.5)" font-size="40" xml:space="preserve" fill-opacity="0.01176" fill="#ffffff" fill-rule="nonzero" stroke="none" stroke-width="1" stroke-linecap="butt" stroke-linejoin="miter" stroke-miterlimit="10" stroke-dasharray="" stroke-dashoffset="0" font-family="Sans Serif" font-weight="normal" text-anchor="start" style="mix-blend-mode: normal"><tspan x="0" dy="0">made by the spooki team</tspan></text><text transform="translate(200.89949,181.84463) rotate(1.85729) scale(0.5,0.5)" font-size="40" xml:space="preserve" fill-opacity="0.01176" fill="#ffffff" fill-rule="nonzero" stroke="none" stroke-width="1" stroke-linecap="butt" stroke-linejoin="miter" stroke-miterlimit="10" stroke-dasharray="" stroke-dashoffset="0" font-family="Sans Serif" font-weight="normal" text-anchor="start" style="mix-blend-mode: normal"><tspan x="0" dy="0">made by the spooki team</tspan></text><text transform="translate(200.9422,183.70733) rotate(0.97637) scale(0.5,0.5)" font-size="40" xml:space="preserve" fill-opacity="0.01176" fill="#ffffff" fill-rule="nonzero" stroke="none" stroke-width="1" stroke-linecap="butt" stroke-linejoin="miter" stroke-miterlimit="10" stroke-dasharray="" stroke-dashoffset="0" font-family="Sans Serif" font-weight="normal" text-anchor="start" style="mix-blend-mode: normal"><tspan x="0" dy="0">made by the spooki team</tspan></text><text transform="translate(199.06552,186.63182) rotate(-0.40508) scale(0.5,0.5)" font-size="40" xml:space="preserve" fill-opacity="0.01176" fill="#ffffff" fill-rule="nonzero" stroke="none" stroke-width="1" stroke-linecap="butt" stroke-linejoin="miter" stroke-miterlimit="10" stroke-dasharray="" stroke-dashoffset="0" font-family="Sans Serif" font-weight="normal" text-anchor="start" style="mix-blend-mode: normal"><tspan x="0" dy="0">made by the spooki team</tspan></text><text transform="translate(199.18173,188.49139) rotate(-1.2864) scale(0.5,0.5)" font-size="40" xml:space="preserve" fill-opacity="0.01176" fill="#ffffff" fill-rule="nonzero" stroke="none" stroke-width="1" stroke-linecap="butt" stroke-linejoin="miter" stroke-miterlimit="10" stroke-dasharray="" stroke-dashoffset="0" font-family="Sans Serif" font-weight="normal" text-anchor="start" style="mix-blend-mode: normal"><tspan x="0" dy="0">made by the spooki team</tspan></text><text transform="translate(200.91718,182.6945) rotate(1.45203) scale(0.5,0.5)" font-size="40" xml:space="preserve" fill-opacity="0.01176" fill="#ffffff" fill-rule="nonzero" stroke="none" stroke-width="1" stroke-linecap="butt" stroke-linejoin="miter" stroke-miterlimit="10" stroke-dasharray="" stroke-dashoffset="0" font-family="Sans Serif" font-weight="normal" text-anchor="start" style="mix-blend-mode: normal"><tspan x="0" dy="0">made by the spooki team</tspan></text><text transform="translate(200.97305,184.55686) rotate(0.57125) scale(0.5,0.5)" font-size="40" xml:space="preserve" fill-opacity="0.01176" fill="#ffffff" fill-rule="nonzero" stroke="none" stroke-width="1" stroke-linecap="butt" stroke-linejoin="miter" stroke-miterlimit="10" stroke-dasharray="" stroke-dashoffset="0" font-family="Sans Serif" font-weight="normal" text-anchor="start" style="mix-blend-mode: normal"><tspan x="0" dy="0">made by the spooki team</tspan></text><text transform="translate(197.02004,187.76875) scale(0.5,0.5)" font-size="40" xml:space="preserve" fill-opacity="0.01176" fill="#ffffff" fill-rule="nonzero" stroke="none" stroke-width="1" stroke-linecap="butt" stroke-linejoin="miter" stroke-miterlimit="10" stroke-dasharray="" stroke-dashoffset="0" font-family="Sans Serif" font-weight="normal" text-anchor="start" style="mix-blend-mode: normal"><tspan x="0" dy="0">made by the spooki team</tspan></text><text transform="translate(197.12309,189.62909) rotate(-0.88125) scale(0.5,0.5)" font-size="40" xml:space="preserve" fill-opacity="0.01176" fill="#ffffff" fill-rule="nonzero" stroke="none" stroke-width="1" stroke-linecap="butt" stroke-linejoin="miter" stroke-miterlimit="10" stroke-dasharray="" stroke-dashoffset="0" font-family="Sans Serif" font-weight="normal" text-anchor="start" style="mix-blend-mode: normal"><tspan x="0" dy="0">made by the spooki team</tspan></text><text transform="translate(198.89949,183.84463) rotate(1.85729) scale(0.5,0.5)" font-size="40" xml:space="preserve" fill-opacity="0.01176" fill="#ffffff" fill-rule="nonzero" stroke="none" stroke-width="1" stroke-linecap="butt" stroke-linejoin="miter" stroke-miterlimit="10" stroke-dasharray="" stroke-dashoffset="0" font-family="Sans Serif" font-weight="normal" text-anchor="start" style="mix-blend-mode: normal"><tspan x="0" dy="0">made by the spooki team</tspan></text><text transform="translate(198.94219,185.70732) rotate(0.97637) scale(0.5,0.5)" font-size="40" xml:space="preserve" fill-opacity="0.01176" fill="#ffffff" fill-rule="nonzero" stroke="none" stroke-width="1" stroke-linecap="butt" stroke-linejoin="miter" stroke-miterlimit="10" stroke-dasharray="" stroke-dashoffset="0" font-family="Sans Serif" font-weight="normal" text-anchor="start" style="mix-blend-mode: normal"><tspan x="0" dy="0">made by the spooki team</tspan></text><text transform="translate(197.02004,187.76875) scale(0.5,0.5)" font-size="40" xml:space="preserve" fill-opacity="0.01176" fill="#ffffff" fill-rule="nonzero" stroke="none" stroke-width="1" stroke-linecap="butt" stroke-linejoin="miter" stroke-miterlimit="10" stroke-dasharray="" stroke-dashoffset="0" font-family="Sans Serif" font-weight="normal" text-anchor="start" style="mix-blend-mode: normal"><tspan x="0" dy="0">made by the spooki team</tspan></text><text transform="translate(197.12309,189.62909) rotate(-0.88125) scale(0.5,0.5)" font-size="40" xml:space="preserve" fill-opacity="0.01176" fill="#ffffff" fill-rule="nonzero" stroke="none" stroke-width="1" stroke-linecap="butt" stroke-linejoin="miter" stroke-miterlimit="10" stroke-dasharray="" stroke-dashoffset="0" font-family="Sans Serif" font-weight="normal" text-anchor="start" style="mix-blend-mode: normal"><tspan x="0" dy="0">made by the spooki team</tspan></text><text transform="translate(198.89949,183.84463) rotate(1.85729) scale(0.5,0.5)" font-size="40" xml:space="preserve" fill-opacity="0.01176" fill="#ffffff" fill-rule="nonzero" stroke="none" stroke-width="1" stroke-linecap="butt" stroke-linejoin="miter" stroke-miterlimit="10" stroke-dasharray="" stroke-dashoffset="0" font-family="Sans Serif" font-weight="normal" text-anchor="start" style="mix-blend-mode: normal"><tspan x="0" dy="0">made by the spooki team</tspan></text><text transform="translate(198.9422,185.70733) rotate(0.97637) scale(0.5,0.5)" font-size="40" xml:space="preserve" fill-opacity="0.01176" fill="#ffffff" fill-rule="nonzero" stroke="none" stroke-width="1" stroke-linecap="butt" stroke-linejoin="miter" stroke-miterlimit="10" stroke-dasharray="" stroke-dashoffset="0" font-family="Sans Serif" font-weight="normal" text-anchor="start" style="mix-blend-mode: normal"><tspan x="0" dy="0">made by the spooki team</tspan></text><text transform="translate(197.06553,188.63182) rotate(-0.40508) scale(0.5,0.5)" font-size="40" xml:space="preserve" fill-opacity="0.01176" fill="#ffffff" fill-rule="nonzero" stroke="none" stroke-width="1" stroke-linecap="butt" stroke-linejoin="miter" stroke-miterlimit="10" stroke-dasharray="" stroke-dashoffset="0" font-family="Sans Serif" font-weight="normal" text-anchor="start" style="mix-blend-mode: normal"><tspan x="0" dy="0">made by the spooki team</tspan></text><text transform="translate(197.18173,190.49139) rotate(-1.2864) scale(0.5,0.5)" font-size="40" xml:space="preserve" fill-opacity="0.01176" fill="#ffffff" fill-rule="nonzero" stroke="none" stroke-width="1" stroke-linecap="butt" stroke-linejoin="miter" stroke-miterlimit="10" stroke-dasharray="" stroke-dashoffset="0" font-family="Sans Serif" font-weight="normal" text-anchor="start" style="mix-blend-mode: normal"><tspan x="0" dy="0">made by the spooki team</tspan></text><text transform="translate(198.91718,184.69451) rotate(1.45203) scale(0.5,0.5)" font-size="40" xml:space="preserve" fill-opacity="0.01176" fill="#ffffff" fill-rule="nonzero" stroke="none" stroke-width="1" stroke-linecap="butt" stroke-linejoin="miter" stroke-miterlimit="10" stroke-dasharray="" stroke-dashoffset="0" font-family="Sans Serif" font-weight="normal" text-anchor="start" style="mix-blend-mode: normal"><tspan x="0" dy="0">made by the spooki team</tspan></text><text transform="translate(198.97306,186.55686) rotate(0.57125) scale(0.5,0.5)" font-size="40" xml:space="preserve" fill-opacity="0.01176" fill="#ffffff" fill-rule="nonzero" stroke="none" stroke-width="1" stroke-linecap="butt" stroke-linejoin="miter" stroke-miterlimit="10" stroke-dasharray="" stroke-dashoffset="0" font-family="Sans Serif" font-weight="normal" text-anchor="start" style="mix-blend-mode: normal"><tspan x="0" dy="0">made by the spooki team</tspan></text><text transform="translate(199.04909,186.57119) rotate(-0.74429) scale(0.5,0.5)" font-size="40" xml:space="preserve" fill-opacity="0.01176" fill="#ffffff" fill-rule="nonzero" stroke="none" stroke-width="1" stroke-linecap="butt" stroke-linejoin="miter" stroke-miterlimit="10" stroke-dasharray="" stroke-dashoffset="0" font-family="Sans Serif" font-weight="normal" text-anchor="start" style="mix-blend-mode: normal"><tspan x="0" dy="0">made by the spooki team</tspan></text><text transform="translate(199.17629,188.43004) rotate(-1.62512) scale(0.5,0.5)" font-size="40" xml:space="preserve" fill-opacity="0.01176" fill="#ffffff" fill-rule="nonzero" stroke="none" stroke-width="1" stroke-linecap="butt" stroke-linejoin="miter" stroke-miterlimit="10" stroke-dasharray="" stroke-dashoffset="0" font-family="Sans Serif" font-weight="normal" text-anchor="start" style="mix-blend-mode: normal"><tspan x="0" dy="0">made by the spooki team</tspan></text><text transform="translate(200.87742,182.623) rotate(1.11333) scale(0.5,0.5)" font-size="40" xml:space="preserve" fill-opacity="0.01176" fill="#ffffff" fill-rule="nonzero" stroke="none" stroke-width="1" stroke-linecap="butt" stroke-linejoin="miter" stroke-miterlimit="10" stroke-dasharray="" stroke-dashoffset="0" font-family="Sans Serif" font-weight="normal" text-anchor="start" style="mix-blend-mode: normal"><tspan x="0" dy="0">made by the spooki team</tspan></text><text transform="translate(200.94431,184.48498) rotate(0.23205) scale(0.5,0.5)" font-size="40" xml:space="preserve" fill-opacity="0.01176" fill="#ffffff" fill-rule="nonzero" stroke="none" stroke-width="1" stroke-linecap="butt" stroke-linejoin="miter" stroke-miterlimit="10" stroke-dasharray="" stroke-dashoffset="0" font-family="Sans Serif" font-weight="normal" text-anchor="start" style="mix-blend-mode: normal"><tspan x="0" dy="0">made by the spooki team</tspan></text><text transform="translate(199.04909,186.57119) rotate(-0.74429) scale(0.5,0.5)" font-size="40" xml:space="preserve" fill-opacity="0.01176" fill="#ffffff" fill-rule="nonzero" stroke="none" stroke-width="1" stroke-linecap="butt" stroke-linejoin="miter" stroke-miterlimit="10" stroke-dasharray="" stroke-dashoffset="0" font-family="Sans Serif" font-weight="normal" text-anchor="start" style="mix-blend-mode: normal"><tspan x="0" dy="0">made by the spooki team</tspan></text><text transform="translate(199.17629,188.43004) rotate(-1.62512) scale(0.5,0.5)" font-size="40" xml:space="preserve" fill-opacity="0.01176" fill="#ffffff" fill-rule="nonzero" stroke="none" stroke-width="1" stroke-linecap="butt" stroke-linejoin="miter" stroke-miterlimit="10" stroke-dasharray="" stroke-dashoffset="0" font-family="Sans Serif" font-weight="normal" text-anchor="start" style="mix-blend-mode: normal"><tspan x="0" dy="0">made by the spooki team</tspan></text><text transform="translate(200.87742,182.623) rotate(1.11333) scale(0.5,0.5)" font-size="40" xml:space="preserve" fill-opacity="0.01176" fill="#ffffff" fill-rule="nonzero" stroke="none" stroke-width="1" stroke-linecap="butt" stroke-linejoin="miter" stroke-miterlimit="10" stroke-dasharray="" stroke-dashoffset="0" font-family="Sans Serif" font-weight="normal" text-anchor="start" style="mix-blend-mode: normal"><tspan x="0" dy="0">made by the spooki team</tspan></text><text transform="translate(200.94432,184.48499) rotate(0.23205) scale(0.5,0.5)" font-size="40" xml:space="preserve" fill-opacity="0.01176" fill="#ffffff" fill-rule="nonzero" stroke="none" stroke-width="1" stroke-linecap="butt" stroke-linejoin="miter" stroke-miterlimit="10" stroke-dasharray="" stroke-dashoffset="0" font-family="Sans Serif" font-weight="normal" text-anchor="start" style="mix-blend-mode: normal"><tspan x="0" dy="0">made by the spooki team</tspan></text><text transform="translate(199.10577,187.4336) rotate(-1.14886) scale(0.5,0.5)" font-size="40" xml:space="preserve" fill-opacity="0.01176" fill="#ffffff" fill-rule="nonzero" stroke="none" stroke-width="1" stroke-linecap="butt" stroke-linejoin="miter" stroke-miterlimit="10" stroke-dasharray="" stroke-dashoffset="0" font-family="Sans Serif" font-weight="normal" text-anchor="start" style="mix-blend-mode: normal"><tspan x="0" dy="0">made by the spooki team</tspan></text><text transform="translate(199.24612,189.29151) rotate(-2.03042) scale(0.5,0.5)" font-size="40" xml:space="preserve" fill-opacity="0.01176" fill="#ffffff" fill-rule="nonzero" stroke="none" stroke-width="1" stroke-linecap="butt" stroke-linejoin="miter" stroke-miterlimit="10" stroke-dasharray="" stroke-dashoffset="0" font-family="Sans Serif" font-weight="normal" text-anchor="start" style="mix-blend-mode: normal"><tspan x="0" dy="0">made by the spooki team</tspan></text><text transform="translate(200.90615,183.47257) rotate(0.7082) scale(0.5,0.5)" font-size="40" xml:space="preserve" fill-opacity="0.01176" fill="#ffffff" fill-rule="nonzero" stroke="none" stroke-width="1" stroke-linecap="butt" stroke-linejoin="miter" stroke-miterlimit="10" stroke-dasharray="" stroke-dashoffset="0" font-family="Sans Serif" font-weight="normal" text-anchor="start" style="mix-blend-mode: normal"><tspan x="0" dy="0">made by the spooki team</tspan></text><text transform="translate(200.9862,185.33405) rotate(-0.17303) scale(0.5,0.5)" font-size="40" xml:space="preserve" fill-opacity="0.01176" fill="#ffffff" fill-rule="nonzero" stroke="none" stroke-width="1" stroke-linecap="butt" stroke-linejoin="miter" stroke-miterlimit="10" stroke-dasharray="" stroke-dashoffset="0" font-family="Sans Serif" font-weight="normal" text-anchor="start" style="mix-blend-mode: normal"><tspan x="0" dy="0">made by the spooki team</tspan></text><text transform="translate(197.07523,188.597) rotate(-0.74429) scale(0.5,0.5)" font-size="40" xml:space="preserve" fill-opacity="0.01176" fill="#ffffff" fill-rule="nonzero" stroke="none" stroke-width="1" stroke-linecap="butt" stroke-linejoin="miter" stroke-miterlimit="10" stroke-dasharray="" stroke-dashoffset="0" font-family="Sans Serif" font-weight="normal" text-anchor="start" style="mix-blend-mode: normal"><tspan x="0" dy="0">made by the spooki team</tspan></text><text transform="translate(197.20243,190.45584) rotate(-1.62512) scale(0.5,0.5)" font-size="40" xml:space="preserve" fill-opacity="0.01176" fill="#ffffff" fill-rule="nonzero" stroke="none" stroke-width="1" stroke-linecap="butt" stroke-linejoin="miter" stroke-miterlimit="10" stroke-dasharray="" stroke-dashoffset="0" font-family="Sans Serif" font-weight="normal" text-anchor="start" style="mix-blend-mode: normal"><tspan x="0" dy="0">made by the spooki team</tspan></text><text transform="translate(198.90356,184.6488) rotate(1.11333) scale(0.5,0.5)" font-size="40" xml:space="preserve" fill-opacity="0.01176" fill="#ffffff" fill-rule="nonzero" stroke="none" stroke-width="1" stroke-linecap="butt" stroke-linejoin="miter" stroke-miterlimit="10" stroke-dasharray="" stroke-dashoffset="0" font-family="Sans Serif" font-weight="normal" text-anchor="start" style="mix-blend-mode: normal"><tspan x="0" dy="0">made by the spooki team</tspan></text><text transform="translate(198.97045,186.51078) rotate(0.23205) scale(0.5,0.5)" font-size="40" xml:space="preserve" fill-opacity="0.01176" fill="#ffffff" fill-rule="nonzero" stroke="none" stroke-width="1" stroke-linecap="butt" stroke-linejoin="miter" stroke-miterlimit="10" stroke-dasharray="" stroke-dashoffset="0" font-family="Sans Serif" font-weight="normal" text-anchor="start" style="mix-blend-mode: normal"><tspan x="0" dy="0">made by the spooki team</tspan></text><text transform="translate(197.07523,188.597) rotate(-0.74429) scale(0.5,0.5)" font-size="40" xml:space="preserve" fill-opacity="0.01176" fill="#ffffff" fill-rule="nonzero" stroke="none" stroke-width="1" stroke-linecap="butt" stroke-linejoin="miter" stroke-miterlimit="10" stroke-dasharray="" stroke-dashoffset="0" font-family="Sans Serif" font-weight="normal" text-anchor="start" style="mix-blend-mode: normal"><tspan x="0" dy="0">made by the spooki team</tspan></text><text transform="translate(197.20243,190.45584) rotate(-1.62512) scale(0.5,0.5)" font-size="40" xml:space="preserve" fill-opacity="0.01176" fill="#ffffff" fill-rule="nonzero" stroke="none" stroke-width="1" stroke-linecap="butt" stroke-linejoin="miter" stroke-miterlimit="10" stroke-dasharray="" stroke-dashoffset="0" font-family="Sans Serif" font-weight="normal" text-anchor="start" style="mix-blend-mode: normal"><tspan x="0" dy="0">made by the spooki team</tspan></text><text transform="translate(198.90356,184.6488) rotate(1.11333) scale(0.5,0.5)" font-size="40" xml:space="preserve" fill-opacity="0.01176" fill="#ffffff" fill-rule="nonzero" stroke="none" stroke-width="1" stroke-linecap="butt" stroke-linejoin="miter" stroke-miterlimit="10" stroke-dasharray="" stroke-dashoffset="0" font-family="Sans Serif" font-weight="normal" text-anchor="start" style="mix-blend-mode: normal"><tspan x="0" dy="0">made by the spooki team</tspan></text><text transform="translate(198.97046,186.51079) rotate(0.23205) scale(0.5,0.5)" font-size="40" xml:space="preserve" fill-opacity="0.01176" fill="#ffffff" fill-rule="nonzero" stroke="none" stroke-width="1" stroke-linecap="butt" stroke-linejoin="miter" stroke-miterlimit="10" stroke-dasharray="" stroke-dashoffset="0" font-family="Sans Serif" font-weight="normal" text-anchor="start" style="mix-blend-mode: normal"><tspan x="0" dy="0">made by the spooki team</tspan></text><text transform="translate(197.13192,189.4594) rotate(-1.14943) scale(0.5,0.5)" font-size="40" xml:space="preserve" fill-opacity="0.01176" fill="#ffffff" fill-rule="nonzero" stroke="none" stroke-width="1" stroke-linecap="butt" stroke-linejoin="miter" stroke-miterlimit="10" stroke-dasharray="" stroke-dashoffset="0" font-family="Sans Serif" font-weight="normal" text-anchor="start" style="mix-blend-mode: normal"><tspan x="0" dy="0">made by the spooki team</tspan></text><text transform="translate(197.27226,191.31731) rotate(-2.03042) scale(0.5,0.5)" font-size="40" xml:space="preserve" fill-opacity="0.01176" fill="#ffffff" fill-rule="nonzero" stroke="none" stroke-width="1" stroke-linecap="butt" stroke-linejoin="miter" stroke-miterlimit="10" stroke-dasharray="" stroke-dashoffset="0" font-family="Sans Serif" font-weight="normal" text-anchor="start" style="mix-blend-mode: normal"><tspan x="0" dy="0">made by the spooki team</tspan></text><g fill-opacity="0.00784" fill="#ffffff" stroke="none" stroke-width="0.5"><g><path d="M441.0076,243.476c-7.46599,-1.21791 -15.33932,-11.85021 -15.33932,-11.85021c0,0 9.45903,4.62171 14.24415,4.93451c4.78511,0.3128 10.74113,-1.97596 11.78839,-3.23281c1.53885,-1.84682 3.00055,-24.11898 26.66901,-18.05812c11.54149,2.95547 25.706,16.24334 8.31328,28.4233c-16.29933,11.41428 -19.81189,-7.29746 -20.36978,-7.32809c-0.65582,-0.036 -6.50478,10.17837 -25.30572,7.11143zM474.55395,243.76092c1.93661,1.18227 6.00832,-2.52898 6.6777,-3.58927c1.37622,-2.17989 1.672,-4.46463 -0.50788,-5.84085c-2.17988,-1.37623 -4.1154,-0.12667 -5.49161,2.05321c-0.70684,1.11961 -2.72316,6.12849 -0.6782,7.37691zM481.62808,226.95259c0.67996,-1.07705 -1.85767,0.59367 -3.16561,-0.23207c-1.30793,-0.82574 -3.70013,2.96342 -2.39219,3.78915c1.30792,0.82573 3.18337,0.20395 5.5578,-3.55708zM485.8007,236.43197c1.30793,0.82574 3.7998,-3.1213 2.49187,-3.94703c-1.30792,-0.82573 -0.24623,-4.85626 -1.67049,-2.6003c-1.42425,2.25597 -2.1293,5.7216 -0.82137,6.54733z" data-paper-data="{&quot;index&quot;:null}"/><path d="M198.9924,116.52399c7.46599,1.21791 15.33932,11.85021 15.33932,11.85021c0,0 -9.45903,-4.6217 -14.24415,-4.93451c-4.78511,-0.3128 -10.74114,1.97596 -11.7884,3.23281c-1.53885,1.84682 -3.00055,24.11897 -26.66901,18.05811c-11.5415,-2.95547 -25.70599,-16.24334 -8.31327,-28.4233c16.29933,-11.41428 19.81189,7.29746 20.36978,7.32809c0.65582,0.036 6.50478,-10.17837 25.30572,-7.11143zM165.44605,116.23906c-1.93661,-1.18227 -6.00831,2.52898 -6.6777,3.58927c-1.37621,2.17989 -1.67201,4.46464 0.50788,5.84085c2.17989,1.37622 4.1154,0.12667 5.49161,-2.05321c0.70684,-1.11961 2.72316,-6.12849 0.6782,-7.37691zM158.37192,133.04739c-0.67996,1.07704 1.85767,-0.59368 3.16561,0.23207c1.30793,0.82574 3.70013,-2.96341 2.39219,-3.78915c-1.30793,-0.82573 -3.18337,-0.20395 -5.5578,3.55708zM154.1993,123.56802c-1.30793,-0.82574 -3.7998,3.12129 -2.49187,3.94703c1.30793,0.82573 0.24623,4.85626 1.67049,2.60029c1.42426,-2.25597 2.1293,-5.7216 0.82137,-6.54733z" data-paper-data="{&quot;index&quot;:null}"/></g><g><path d="M440.63213,244.1867c-7.4587,-1.2618 -15.26935,-11.94023 -15.26935,-11.94023c0,0 9.43167,4.67727 14.21488,5.01821c4.78319,0.34094 10.75257,-1.91275 11.8072,-3.16341c1.54968,-1.83773 3.14238,-24.10091 26.77477,-17.90094c11.52391,3.02331 25.61,16.39427 8.14594,28.47171c-16.36619,11.3182 -19.76863,-7.41387 -20.32632,-7.44778c-0.6556,-0.03986 -6.56454,10.13993 -25.34712,6.96245zM474.17622,244.66894c1.92962,1.19365 6.0231,-2.4936 6.69869,-3.54993c1.38902,-2.17175 1.69823,-4.45472 -0.47351,-5.84374c-2.17174,-1.38903 -4.11459,-0.15088 -5.50359,2.02087c-0.71341,1.11543 -2.75916,6.11237 -0.72159,7.3728zM481.3491,227.90252c0.68628,-1.07303 -1.86114,0.58273 -3.16419,-0.25068c-1.30305,-0.83342 -3.7175,2.9416 -2.41445,3.77501c1.30304,0.83341 3.18211,0.22267 5.57863,-3.52433zM485.46588,237.40627c1.30305,0.83342 3.81809,-3.09889 2.51504,-3.9323c-1.30304,-0.83341 -0.21766,-4.85762 -1.65517,-2.61008c-1.43749,2.24756 -2.16292,5.70898 -0.85987,6.54238z" data-paper-data="{&quot;index&quot;:null}"/><path d="M199.36787,115.8133c7.4587,1.2618 15.26935,11.94023 15.26935,11.94023c0,0 -9.43167,-4.67727 -14.21488,-5.01821c-4.78319,-0.34094 -10.75258,1.91275 -11.80721,3.16341c-1.54968,1.83773 -3.14238,24.10091 -26.77477,17.90093c-11.52391,-3.02331 -25.61,-16.39426 -8.14594,-28.47171c16.36619,-11.3182 19.76863,7.41388 20.32632,7.44778c0.6556,0.03986 6.56454,-10.13994 25.34712,-6.96245zM165.82377,115.33105c-1.92962,-1.19365 -6.02309,2.49361 -6.69869,3.54993c-1.38901,2.17175 -1.69824,4.45472 0.47351,5.84374c2.17175,1.38902 4.11459,0.15088 5.50359,-2.02087c0.71341,-1.11543 2.75916,-6.11237 0.72159,-7.3728zM158.6509,132.09747c-0.68628,1.07303 1.86114,-0.58273 3.16419,0.25068c1.30305,0.83342 3.7175,-2.94159 2.41445,-3.77501c-1.30305,-0.83341 -3.18212,-0.22267 -5.57864,3.52433zM154.53412,122.59373c-1.30305,-0.83342 -3.81809,3.09889 -2.51504,3.93229c1.30305,0.83341 0.21766,4.85763 1.65516,2.61008c1.4375,-2.24756 2.16292,-5.70898 0.85987,-6.54238z" data-paper-data="{&quot;index&quot;:null}"/></g><g><path d="M439.21877,246.77519c-7.42974,-1.42248 -15.0081,-12.26699 -15.0081,-12.26699c0,0 9.32853,4.87974 14.10326,5.32382c4.77472,0.44409 10.79134,-1.68024 11.87273,-2.90786c1.58898,-1.80386 3.66178,-24.02749 27.15487,-17.31892c11.45598,3.27131 25.25022,16.94315 7.52958,28.64088c-16.60665,10.96236 -19.60402,-7.83879 -20.16085,-7.88473c-0.65458,-0.054 -6.78185,9.99589 -25.49147,6.4138zM472.74465,247.98126c1.90341,1.23501 6.0755,-2.36303 6.77375,-3.40453c1.43556,-2.14127 1.79398,-4.41702 -0.34729,-5.8526c-2.14126,-1.43557 -4.11037,-0.23964 -5.54593,1.90162c-0.73732,1.09977 -2.89044,6.0514 -0.88053,7.3555zM480.2777,231.37354c0.70929,-1.05797 -1.87328,0.54242 -3.15804,-0.31891c-1.28476,-0.86135 -3.78011,2.86069 -2.49535,3.72202c1.28475,0.86134 3.17657,0.29129 5.6534,-3.40311zM484.18842,240.96393c1.28476,0.86135 3.88409,-3.01577 2.59932,-3.8771c-1.28475,-0.86134 -0.11278,-4.86119 -1.59846,-2.64519c-1.48567,2.21601 -2.28562,5.66097 -1.00087,6.52231z" data-paper-data="{&quot;index&quot;:null}"/><path d="M200.78123,113.22481c7.42974,1.42248 15.0081,12.26699 15.0081,12.26699c0,0 -9.32853,-4.87973 -14.10326,-5.32382c-4.77472,-0.44409 -10.79135,1.68024 -11.87273,2.90786c-1.58898,1.80386 -3.66178,24.02748 -27.15487,17.31892c-11.45598,-3.27131 -25.25022,-16.94314 -7.52958,-28.64087c16.60665,-10.96236 19.60401,7.83879 20.16085,7.88473c0.65458,0.054 6.78185,-9.9959 25.49147,-6.4138zM167.25535,112.01873c-1.90341,-1.23501 -6.0755,2.36304 -6.77375,3.40453c-1.43556,2.14127 -1.79398,4.41703 0.34729,5.8526c2.14126,1.43557 4.11037,0.23964 5.54593,-1.90162c0.73732,-1.09977 2.89044,-6.0514 0.88053,-7.3555zM159.7223,128.62645c-0.70929,1.05797 1.87328,-0.54243 3.15804,0.31891c1.28476,0.86135 3.78012,-2.86069 2.49535,-3.72202c-1.28476,-0.86134 -3.17658,-0.29129 -5.6534,3.40311zM155.81158,119.03607c-1.28476,-0.86135 -3.88408,3.01577 -2.59932,3.8771c1.28476,0.86134 0.11278,4.8612 1.59845,2.64519c1.48567,-2.21601 2.28562,-5.66097 1.00087,-6.52231z" data-paper-data="{&quot;index&quot;:null}"/></g><g><path d="M440.02034,242.49856c-7.46599,-1.21791 -15.33932,-11.85021 -15.33932,-11.85021c0,0 9.45903,4.62171 14.24415,4.93451c4.78511,0.3128 10.74113,-1.97596 11.78839,-3.23281c1.53885,-1.84682 3.00055,-24.11898 26.66901,-18.05812c11.54149,2.95547 25.706,16.24334 8.31328,28.4233c-16.29933,11.41428 -19.81189,-7.29746 -20.36978,-7.32809c-0.65582,-0.036 -6.50478,10.17837 -25.30572,7.11143zM473.56669,242.78348c1.93661,1.18227 6.00832,-2.52898 6.6777,-3.58927c1.37622,-2.17989 1.672,-4.46463 -0.50788,-5.84085c-2.17988,-1.37623 -4.1154,-0.12667 -5.49161,2.05321c-0.70684,1.11961 -2.72316,6.12849 -0.6782,7.37691zM480.64082,225.97515c0.67996,-1.07705 -1.85767,0.59367 -3.16561,-0.23207c-1.30793,-0.82574 -3.70013,2.96342 -2.39219,3.78915c1.30792,0.82573 3.18337,0.20395 5.5578,-3.55708zM484.81344,235.45453c1.30793,0.82574 3.7998,-3.1213 2.49187,-3.94703c-1.30792,-0.82573 -0.24623,-4.85626 -1.67049,-2.6003c-1.42425,2.25597 -2.1293,5.7216 -0.82137,6.54733z" data-paper-data="{&quot;index&quot;:null}"/><path d="M198.00514,115.54656c7.46599,1.21791 15.33932,11.85021 15.33932,11.85021c0,0 -9.45903,-4.6217 -14.24415,-4.93451c-4.78511,-0.3128 -10.74114,1.97596 -11.7884,3.23281c-1.53885,1.84682 -3.00055,24.11897 -26.66901,18.05812c-11.5415,-2.95547 -25.70599,-16.24334 -8.31327,-28.4233c16.29933,-11.41428 19.81189,7.29746 20.36978,7.32809c0.65582,0.036 6.50478,-10.17837 25.30572,-7.11143zM164.45878,115.26162c-1.93661,-1.18227 -6.00831,2.52898 -6.6777,3.58927c-1.37621,2.17989 -1.67201,4.46463 0.50788,5.84085c2.17989,1.37623 4.1154,0.12667 5.49161,-2.05321c0.70684,-1.11961 2.72316,-6.12849 0.6782,-7.37691zM157.38466,132.06995c-0.67996,1.07704 1.85767,-0.59368 3.16561,0.23207c1.30793,0.82574 3.70013,-2.96341 2.39219,-3.78915c-1.30793,-0.82573 -3.18337,-0.20395 -5.5578,3.55708zM153.21204,122.59059c-1.30793,-0.82574 -3.7998,3.12129 -2.49187,3.94703c1.30793,0.82573 0.24623,4.85626 1.67049,2.60029c1.42426,-2.25597 2.1293,-5.7216 0.82137,-6.54733z" data-paper-data="{&quot;index&quot;:null}"/></g><g><path d="M441.99486,244.45344c-7.46599,-1.21791 -15.33932,-11.85021 -15.33932,-11.85021c0,0 9.45903,4.62171 14.24415,4.93451c4.78511,0.3128 10.74113,-1.97596 11.78839,-3.23281c1.53885,-1.84682 3.00055,-24.11898 26.66901,-18.05812c11.54149,2.95547 25.706,16.24334 8.31328,28.4233c-16.29933,11.41428 -19.81189,-7.29746 -20.36978,-7.32809c-0.65582,-0.036 -6.50478,10.17837 -25.30572,7.11143zM475.54121,244.73837c1.93661,1.18227 6.00832,-2.52898 6.6777,-3.58927c1.37622,-2.17989 1.672,-4.46463 -0.50788,-5.84085c-2.17988,-1.37623 -4.1154,-0.12667 -5.49161,2.05321c-0.70684,1.11961 -2.72316,6.12849 -0.6782,7.37691zM482.61534,227.93004c0.67996,-1.07705 -1.85767,0.59367 -3.16561,-0.23207c-1.30793,-0.82574 -3.70013,2.96342 -2.39219,3.78915c1.30792,0.82573 3.18337,0.20395 5.5578,-3.55708zM486.78796,237.40941c1.30793,0.82574 3.7998,-3.1213 2.49187,-3.94703c-1.30792,-0.82573 -0.24623,-4.85626 -1.67049,-2.6003c-1.42425,2.25597 -2.1293,5.7216 -0.82137,6.54733z" data-paper-data="{&quot;index&quot;:null}"/><path d="M199.97966,117.50144c7.46599,1.21791 15.33932,11.85021 15.33932,11.85021c0,0 -9.45903,-4.6217 -14.24415,-4.93451c-4.78511,-0.3128 -10.74114,1.97596 -11.7884,3.23281c-1.53885,1.84682 -3.00055,24.11897 -26.66901,18.05812c-11.5415,-2.95547 -25.70599,-16.24334 -8.31327,-28.4233c16.29933,-11.41428 19.81189,7.29746 20.36978,7.32809c0.65582,0.036 6.50478,-10.17837 25.30572,-7.11143zM166.43331,117.21651c-1.93661,-1.18227 -6.00831,2.52898 -6.6777,3.58927c-1.37621,2.17989 -1.67201,4.46463 0.50788,5.84085c2.17989,1.37623 4.1154,0.12667 5.49161,-2.05321c0.70684,-1.11961 2.72316,-6.12849 0.6782,-7.37691zM159.35918,134.02484c-0.67996,1.07704 1.85767,-0.59368 3.16561,0.23207c1.30793,0.82574 3.70013,-2.96341 2.39219,-3.78915c-1.30793,-0.82573 -3.18337,-0.20395 -5.5578,3.55708zM155.18656,124.54547c-1.30793,-0.82574 -3.7998,3.12129 -2.49187,3.94703c1.30793,0.82573 0.24623,4.85626 1.67049,2.60029c1.42426,-2.25597 2.1293,-5.7216 0.82137,-6.54733z" data-paper-data="{&quot;index&quot;:null}"/></g></g><g fill-opacity="0.00784" fill="#ffffff" stroke="none" stroke-width="0.5"><g><path d="M441.36229,242.79518c-7.47271,-1.17594 -15.40565,-11.76385 -15.40565,-11.76385c0,0 9.48484,4.5685 14.27165,4.85441c4.7868,0.28591 10.72986,-2.03627 11.77004,-3.29899c1.52844,-1.85544 2.86501,-24.13546 26.56715,-18.20766c11.55792,2.89059 25.79684,16.09867 8.47282,28.37615c-16.23496,11.50567 -19.85258,-7.18605 -20.41063,-7.21354c-0.65601,-0.03232 -6.4475,10.21475 -25.26537,7.25348zM474.90972,242.89164c1.94322,1.17137 5.99402,-2.5627 6.65743,-3.62673c1.36395,-2.18759 1.64689,-4.47395 -0.54069,-5.83791c-2.18758,-1.36396 -4.11605,-0.10355 -5.47999,2.08404c-0.70054,1.12356 -2.68869,6.14369 -0.63676,7.38061zM481.88931,226.04383c0.6739,-1.08085 -1.85431,0.60409 -3.16686,-0.21428c-1.31256,-0.81838 -3.68343,2.98415 -2.37087,3.80253c1.31254,0.81837 3.18446,0.18606 5.53774,-3.58825zM486.11511,235.49962c1.31256,0.81838 3.7822,-3.1426 2.46966,-3.96097c-1.31254,-0.81837 -0.27351,-4.8548 -1.68508,-2.59088c-1.41155,2.26394 -2.09712,5.73347 -0.78458,6.55183z" data-paper-data="{&quot;index&quot;:null}"/><path d="M198.63771,117.2048c7.47271,1.17594 15.40565,11.76385 15.40565,11.76385c0,0 -9.48484,-4.56849 -14.27165,-4.85441c-4.7868,-0.28591 -10.72987,2.03627 -11.77005,3.29899c-1.52844,1.85544 -2.86501,24.13545 -26.56715,18.20765c-11.55793,-2.89059 -25.79683,-16.09867 -8.47281,-28.37615c16.23496,-11.50567 19.85258,7.18605 20.41063,7.21354c0.65601,0.03232 6.4475,-10.21475 25.26537,-7.25348zM165.09029,117.10833c-1.94322,-1.17137 -5.99401,2.5627 -6.65743,3.62673c-1.36394,2.18759 -1.6469,4.47396 0.54069,5.83791c2.18759,1.36395 4.11605,0.10355 5.47999,-2.08404c0.70054,-1.12356 2.68869,-6.14369 0.63676,-7.38061zM158.1107,133.95614c-0.6739,1.08084 1.85431,-0.6041 3.16686,0.21428c1.31256,0.81838 3.68343,-2.98414 2.37087,-3.80253c-1.31255,-0.81837 -3.18446,-0.18606 -5.53774,3.58825zM153.88489,124.50036c-1.31256,-0.81838 -3.7822,3.14259 -2.46966,3.96097c1.31255,0.81837 0.27351,4.8548 1.68508,2.59087c1.41156,-2.26394 2.09712,-5.73347 0.78458,-6.55183z" data-paper-data="{&quot;index&quot;:null}"/></g><g><path d="M440.99082,243.50799c-7.46567,-1.21988 -15.33619,-11.85427 -15.33619,-11.85427c0,0 9.4578,4.62421 14.24285,4.93827c4.78503,0.31406 10.74166,-1.97312 11.78924,-3.2297c1.53933,-1.84641 3.00693,-24.11819 26.67378,-18.05107c11.54072,2.95852 25.7017,16.25014 8.30576,28.4255c-16.30235,11.40996 -19.80996,-7.30269 -20.36784,-7.33347c-0.65581,-0.03618 -6.50748,10.17664 -25.3076,7.10473zM474.53708,243.80177c1.9363,1.18278 6.009,-2.5274 6.67865,-3.58751c1.3768,-2.17952 1.67317,-4.46419 -0.50634,-5.84098c-2.17951,-1.37681 -4.11537,-0.12777 -5.49215,2.05176c-0.70713,1.11942 -2.72479,6.12778 -0.68016,7.37673zM481.61566,226.99531c0.68024,-1.07687 -1.85784,0.59318 -3.16555,-0.23291c-1.30772,-0.82608 -3.70091,2.96244 -2.3932,3.78851c1.30771,0.82607 3.18331,0.2048 5.55874,-3.55561zM485.78578,236.47579c1.30772,0.82608 3.80063,-3.12029 2.49291,-3.94637c-1.30771,-0.82607 -0.24494,-4.85633 -1.6698,-2.60073c-1.42484,2.25559 -2.13081,5.72104 -0.82311,6.54711z" data-paper-data="{&quot;index&quot;:null}"/><path d="M199.00918,116.492c7.46567,1.21988 15.33619,11.85427 15.33619,11.85427c0,0 -9.4578,-4.62421 -14.24285,-4.93827c-4.78503,-0.31406 -10.74167,1.97312 -11.78925,3.2297c-1.53933,1.84641 -3.00693,24.11819 -26.67378,18.05106c-11.54072,-2.95852 -25.7017,-16.25013 -8.30576,-28.4255c16.30235,-11.40996 19.80996,7.3027 20.36784,7.33347c0.65581,0.03618 6.50748,-10.17665 25.3076,-7.10473zM165.46291,116.19821c-1.9363,-1.18278 -6.00899,2.52741 -6.67865,3.58751c-1.37679,2.17952 -1.67318,4.46419 0.50634,5.84098c2.17952,1.3768 4.11537,0.12777 5.49215,-2.05176c0.70713,-1.11942 2.72479,-6.12778 0.68016,-7.37673zM158.38434,133.00467c-0.68024,1.07687 1.85784,-0.59318 3.16555,0.23291c1.30772,0.82608 3.70091,-2.96243 2.3932,-3.78851c-1.30772,-0.82607 -3.18332,-0.2048 -5.55875,3.55561zM154.21422,123.5242c-1.30772,-0.82608 -3.80063,3.12029 -2.49291,3.94636c1.30772,0.82607 0.24494,4.85634 1.66979,2.60073c1.42485,-2.25559 2.13081,-5.72104 0.82311,-6.54711z" data-paper-data="{&quot;index&quot;:null}"/></g><g><path d="M439.59203,246.10438c-7.43761,-1.38072 -15.07678,-12.18249 -15.07678,-12.18249c0,0 9.3558,4.82725 14.13295,5.2445c4.77714,0.41726 10.78173,-1.74084 11.85621,-2.97452c1.57883,-1.81276 3.52674,-24.04768 27.05714,-17.4712c11.47418,3.2069 25.34501,16.80104 7.69035,28.59813c-16.5448,11.05548 -19.64775,-7.72853 -20.20483,-7.77134c-0.65487,-0.05032 -6.72559,10.03383 -25.45503,6.5569zM473.12415,247.12208c1.91032,1.22429 6.06213,-2.39712 6.75452,-3.44254c1.42351,-2.1493 1.76914,-4.42703 -0.38016,-5.85055c-2.14929,-1.42352 -4.11165,-0.21654 -5.53517,1.93275c-0.73113,1.1039 -2.8564,6.06754 -0.8392,7.36034zM480.56378,230.4723c0.70334,-1.06194 -1.87021,0.55294 -3.15979,-0.30117c-1.28958,-0.85411 -3.76399,2.88188 -2.4744,3.73598c1.28957,0.8541 3.17816,0.27344 5.63419,-3.43481zM484.52831,240.04057c1.28958,0.85411 3.86709,-3.03754 2.57749,-3.89165c-1.28957,-0.8541 -0.14008,-4.86048 -1.61329,-2.63617c-1.4732,2.22431 -2.25379,5.67372 -0.96421,6.52782z" data-paper-data="{&quot;index&quot;:null}"/><path d="M200.40798,113.89561c7.43761,1.38072 15.07678,12.18249 15.07678,12.18249c0,0 -9.3558,-4.82724 -14.13295,-5.2445c-4.77714,-0.41726 -10.78174,1.74084 -11.85621,2.97452c-1.57883,1.81276 -3.52674,24.04767 -27.05714,17.4712c-11.47418,-3.2069 -25.34501,-16.80103 -7.69035,-28.59812c16.5448,-11.05548 19.64774,7.72853 20.20483,7.77134c0.65487,0.05032 6.72559,-10.03384 25.45503,-6.5569zM166.87585,112.8779c-1.91032,-1.22429 -6.06213,2.39713 -6.75452,3.44254c-1.42351,2.1493 -1.76914,4.42704 0.38016,5.85055c2.14929,1.42352 4.11165,0.21654 5.53517,-1.93275c0.73113,-1.1039 2.8564,-6.06754 0.8392,-7.36034zM159.43623,129.52768c-0.70334,1.06194 1.87021,-0.55295 3.15979,0.30117c1.28958,0.85411 3.764,-2.88188 2.4744,-3.73598c-1.28958,-0.8541 -3.17817,-0.27344 -5.63419,3.43481zM155.47169,119.95942c-1.28958,-0.85411 -3.86708,3.03754 -2.57749,3.89165c1.28958,0.8541 0.14008,4.86049 1.61328,2.63617c1.4732,-2.22431 2.25379,-5.67372 0.96421,-6.52782z" data-paper-data="{&quot;index&quot;:null}"/></g><g><path d="M440.36956,241.82331c-7.47271,-1.17594 -15.40565,-11.76385 -15.40565,-11.76385c0,0 9.48484,4.5685 14.27165,4.85441c4.7868,0.28591 10.72986,-2.03627 11.77004,-3.29899c1.52844,-1.85544 2.86501,-24.13546 26.56715,-18.20766c11.55792,2.89059 25.79684,16.09867 8.47282,28.37615c-16.23496,11.50567 -19.85258,-7.18605 -20.41063,-7.21354c-0.65601,-0.03232 -6.4475,10.21475 -25.26537,7.25348zM473.91698,241.91977c1.94322,1.17137 5.99402,-2.5627 6.65743,-3.62673c1.36395,-2.18759 1.64689,-4.47395 -0.54069,-5.83791c-2.18758,-1.36396 -4.11605,-0.10355 -5.47999,2.08404c-0.70054,1.12356 -2.68869,6.14369 -0.63676,7.38061zM480.89657,225.07196c0.6739,-1.08085 -1.85431,0.60409 -3.16686,-0.21428c-1.31256,-0.81838 -3.68343,2.98415 -2.37087,3.80253c1.31254,0.81837 3.18446,0.18606 5.53774,-3.58825zM485.12238,234.52774c1.31256,0.81838 3.7822,-3.1426 2.46966,-3.96097c-1.31254,-0.81837 -0.27351,-4.8548 -1.68508,-2.59088c-1.41155,2.26394 -2.09712,5.73347 -0.78458,6.55183z" data-paper-data="{&quot;index&quot;:null}"/><path d="M197.64498,116.23293c7.47271,1.17594 15.40565,11.76385 15.40565,11.76385c0,0 -9.48484,-4.56849 -14.27165,-4.85441c-4.7868,-0.28591 -10.72987,2.03627 -11.77005,3.29899c-1.52844,1.85544 -2.86501,24.13545 -26.56715,18.20766c-11.55793,-2.89059 -25.79683,-16.09867 -8.47281,-28.37615c16.23496,-11.50567 19.85258,7.18605 20.41063,7.21354c0.65601,0.03232 6.4475,-10.21475 25.26537,-7.25348zM164.09754,116.13645c-1.94322,-1.17137 -5.99401,2.5627 -6.65743,3.62673c-1.36394,2.18759 -1.6469,4.47395 0.54069,5.83791c2.18759,1.36396 4.11605,0.10355 5.47999,-2.08404c0.70054,-1.12356 2.68869,-6.14369 0.63676,-7.38061zM157.11796,132.98426c-0.6739,1.08084 1.85431,-0.6041 3.16686,0.21428c1.31256,0.81838 3.68343,-2.98414 2.37087,-3.80253c-1.31255,-0.81837 -3.18446,-0.18606 -5.53774,3.58825zM152.89216,123.52849c-1.31256,-0.81838 -3.7822,3.14259 -2.46966,3.96097c1.31255,0.81837 0.27351,4.8548 1.68508,2.59087c1.41156,-2.26394 2.09712,-5.73347 0.78458,-6.55183z" data-paper-data="{&quot;index&quot;:null}"/></g><g><path d="M442.35503,243.76706c-7.47271,-1.17594 -15.40565,-11.76385 -15.40565,-11.76385c0,0 9.48484,4.5685 14.27165,4.85441c4.7868,0.28591 10.72986,-2.03627 11.77004,-3.29899c1.52844,-1.85544 2.86501,-24.13546 26.56715,-18.20766c11.55792,2.89059 25.79684,16.09867 8.47282,28.37615c-16.23496,11.50567 -19.85258,-7.18605 -20.41063,-7.21354c-0.65601,-0.03232 -6.4475,10.21475 -25.26537,7.25348zM475.90245,243.86353c1.94322,1.17137 5.99402,-2.5627 6.65743,-3.62673c1.36395,-2.18759 1.64689,-4.47395 -0.54069,-5.83791c-2.18758,-1.36396 -4.11605,-0.10355 -5.47999,2.08404c-0.70054,1.12356 -2.68869,6.14369 -0.63676,7.38061zM482.88204,227.01572c0.6739,-1.08085 -1.85431,0.60409 -3.16686,-0.21428c-1.31256,-0.81838 -3.68343,2.98415 -2.37087,3.80253c1.31254,0.81837 3.18446,0.18606 5.53774,-3.58825zM487.10785,236.4715c1.31256,0.81838 3.7822,-3.1426 2.46966,-3.96097c-1.31254,-0.81837 -0.27351,-4.8548 -1.68508,-2.59088c-1.41155,2.26394 -2.09712,5.73347 -0.78458,6.55183z" data-paper-data="{&quot;index&quot;:null}"/><path d="M199.63044,118.17668c7.47271,1.17594 15.40565,11.76385 15.40565,11.76385c0,0 -9.48484,-4.56849 -14.27165,-4.85441c-4.7868,-0.28591 -10.72987,2.03627 -11.77005,3.29899c-1.52844,1.85544 -2.86501,24.13545 -26.56715,18.20766c-11.55793,-2.89059 -25.79683,-16.09867 -8.47281,-28.37615c16.23496,-11.50567 19.85258,7.18605 20.41063,7.21354c0.65601,0.03232 6.4475,-10.21475 25.26537,-7.25348zM166.08302,118.08021c-1.94322,-1.17137 -5.99401,2.5627 -6.65743,3.62673c-1.36394,2.18759 -1.6469,4.47395 0.54069,5.83791c2.18759,1.36396 4.11605,0.10355 5.47999,-2.08404c0.70054,-1.12356 2.68869,-6.14369 0.63676,-7.38061zM159.10343,134.92802c-0.6739,1.08084 1.85431,-0.6041 3.16686,0.21428c1.31256,0.81838 3.68343,-2.98414 2.37087,-3.80253c-1.31255,-0.81837 -3.18446,-0.18606 -5.53774,3.58825zM154.87763,125.47225c-1.31256,-0.81838 -3.7822,3.14259 -2.46966,3.96097c1.31255,0.81837 0.27351,4.8548 1.68508,2.59087c1.41156,-2.26394 2.09712,-5.73347 0.78458,-6.55183z" data-paper-data="{&quot;index&quot;:null}"/></g></g><g fill-opacity="0.00784" fill="#ffffff" stroke="none" stroke-width="0.5"><g><path d="M438.66494,247.7545c-7.41777,-1.4836 -14.9066,-12.39014 -14.9066,-12.39014c0,0 9.28805,4.95637 14.05895,5.43976c4.7709,0.48339 10.80482,-1.59133 11.89627,-2.81001c1.60378,-1.79072 3.85949,-23.99653 27.29655,-17.09475c11.42865,3.36552 25.10986,17.15048 7.29351,28.7019c-16.69634,10.82526 -19.53881,-7.99993 -20.09525,-8.05046c-0.65412,-0.05939 -6.86392,9.93972 -25.54341,6.20369zM472.17975,249.23656c1.89318,1.25064 6.09475,-2.31292 6.80155,-3.34865c1.45314,-2.12938 1.83028,-4.40211 -0.29909,-5.85526c-2.12937,-1.45315 -4.10826,-0.27348 -5.5614,1.8559c-0.74635,1.09367 -2.94016,6.0274 -0.94106,7.34801zM479.84929,232.69143c0.71797,-1.0521 -1.87768,0.52698 -3.15531,-0.3449c-1.27763,-0.87189 -3.80354,2.82946 -2.52592,3.70136c1.27762,0.87188 3.17407,0.31743 5.68122,-3.35645zM483.68092,242.31369c1.27763,0.87189 3.90878,-2.98369 2.63116,-3.85557c-1.27762,-0.87188 -0.07275,-4.86196 -1.57662,-2.65827c-1.50386,2.2037 -2.33216,5.64195 -1.05453,6.51384z" data-paper-data="{&quot;index&quot;:null}"/><path d="M201.33506,112.24549c7.41777,1.4836 14.9066,12.39014 14.9066,12.39014c0,0 -9.28805,-4.95636 -14.05895,-5.43976c-4.7709,-0.48339 -10.80483,1.59133 -11.89628,2.81001c-1.60378,1.79072 -3.85949,23.99652 -27.29654,17.09474c-11.42866,-3.36552 -25.10985,-17.15047 -7.2935,-28.7019c16.69634,-10.82526 19.53881,7.99993 20.09525,8.05046c0.65412,0.05939 6.86392,-9.93972 25.54341,-6.20369zM167.82025,110.76342c-1.89318,-1.25064 -6.09474,2.31292 -6.80155,3.34865c-1.45313,2.12938 -1.83029,4.40212 0.29909,5.85526c2.12938,1.45314 4.10826,0.27348 5.5614,-1.8559c0.74635,-1.09367 2.94016,-6.0274 0.94106,-7.34801zM160.15071,127.30855c-0.71797,1.05209 1.87768,-0.52699 3.15531,0.3449c1.27763,0.87189 3.80354,-2.82945 2.52592,-3.70136c-1.27763,-0.87188 -3.17407,-0.31743 -5.68122,3.35645zM156.31908,117.6863c-1.27763,-0.87189 -3.90878,2.98368 -2.63116,3.85557c1.27763,0.87188 0.07275,4.86196 1.57662,2.65826c1.50387,-2.2037 2.33216,-5.64195 1.05453,-6.51384z" data-paper-data="{&quot;index&quot;:null}"/></g><g><path d="M438.26434,248.45135c-7.40892,-1.52722 -14.83345,-12.47761 -14.83345,-12.47761c0,0 9.25873,5.01092 14.02672,5.52237c4.76798,0.51144 10.81399,-1.52775 11.91259,-2.73999c1.61428,-1.78125 4.00058,-23.9734 27.39662,-16.93389c11.40867,3.43269 25.00855,17.29789 7.12455,28.74431c-16.75973,10.72685 -19.49142,-8.11472 -20.04755,-8.16852c-0.65375,-0.06323 -6.92227,9.89917 -25.57946,6.05334zM471.76985,250.13052c1.88579,1.26176 6.10826,-2.27703 6.82113,-3.30858c1.46564,-2.12079 1.85614,-4.39127 -0.26464,-5.85691c-2.12078,-1.46565 -4.10658,-0.29764 -5.57221,1.82315c-0.75277,1.08926 -2.97557,6.01 -0.98427,7.34234zM479.53657,233.63079c0.72414,-1.04785 -1.88075,0.51593 -3.15323,-0.36346c-1.27247,-0.87939 -3.82012,2.80705 -2.54764,3.68642c1.27246,0.87938 3.17214,0.3361 5.70087,-3.32298zM483.31154,243.27543c1.27247,0.87939 3.92627,-2.96064 2.65378,-3.84004c-1.27246,-0.87938 -0.04414,-4.8623 -1.56096,-2.66749c-1.5168,2.19482 -2.36531,5.62814 -1.09283,6.50753z" data-paper-data="{&quot;index&quot;:null}"/><path d="M201.73566,111.54865c7.40892,1.52722 14.83345,12.47761 14.83345,12.47761c0,0 -9.25873,-5.01092 -14.02672,-5.52237c-4.76798,-0.51144 -10.814,1.52775 -11.9126,2.73999c-1.61428,1.78125 -4.00058,23.9734 -27.39662,16.93388c-11.40867,-3.43269 -25.00855,-17.29788 -7.12455,-28.74431c16.75973,-10.72685 19.49142,8.11473 20.04755,8.16852c0.65375,0.06323 6.92227,-9.89918 25.57946,-6.05334zM168.23014,109.86947c-1.88579,-1.26176 -6.10825,2.27704 -6.82113,3.30858c-1.46563,2.12079 -1.85615,4.39127 0.26464,5.85691c2.12079,1.46564 4.10658,0.29764 5.57221,-1.82315c0.75277,-1.08926 2.97557,-6.01 0.98427,-7.34234zM160.46343,126.3692c-0.72414,1.04785 1.88075,-0.51593 3.15323,0.36346c1.27247,0.87939 3.82012,-2.80704 2.54764,-3.68642c-1.27247,-0.87938 -3.17215,-0.3361 -5.70088,3.32298zM156.68846,116.72457c-1.27247,-0.87939 -3.92627,2.96064 -2.65378,3.84003c1.27247,0.87938 0.04414,4.86231 1.56095,2.66749c1.51681,-2.19482 2.36531,-5.62814 1.09283,-6.50753z" data-paper-data="{&quot;index&quot;:null}"/></g><g><path d="M436.7595,250.98775c-7.37424,-1.68675 -14.56072,-12.79484 -14.56072,-12.79484c0,0 9.14842,5.20958 13.90426,5.82379c4.75583,0.61423 10.84444,-1.29401 11.96895,-2.48225c1.65235,-1.74599 4.51702,-23.88148 27.7557,-16.33868c11.33192,3.67811 24.6294,17.83358 6.50255,28.89138c-16.98733,10.36265 -19.31175,-8.53349 -19.86659,-8.59928c-0.65223,-0.07733 -7.13429,9.74747 -25.70414,5.49988zM470.22097,253.38964c1.85811,1.30216 6.15597,-2.14468 6.89095,-3.16059c1.51108,-2.08867 1.95048,-4.35018 -0.13818,-5.86126c-2.08866,-1.51109 -4.0992,-0.3862 -5.61027,1.70247c-0.77611,1.07275 -3.10458,5.94438 -1.1425,7.31939zM478.34198,237.06136c0.7466,-1.03198 -1.89145,0.47521 -3.14465,-0.43142c-1.2532,-0.90666 -3.87981,2.72394 -2.62661,3.63059c1.25319,0.90665 3.16414,0.40448 5.77126,-3.19917zM481.9079,246.78523c1.2532,0.90666 3.98925,-2.87522 2.73605,-3.78186c-1.25319,-0.90665 0.0608,-4.86211 -1.50302,-2.70056c-1.56381,2.16157 -2.48621,5.57578 -1.23302,6.48243z" data-paper-data="{&quot;index&quot;:null}"/><path d="M203.2405,109.01225c7.37424,1.68675 14.56072,12.79484 14.56072,12.79484c0,0 -9.14842,-5.20957 -13.90426,-5.82379c-4.75583,-0.61423 -10.84445,1.29401 -11.96895,2.48225c-1.65235,1.74599 -4.51702,23.88147 -27.7557,16.33868c-11.33192,-3.67811 -24.6294,-17.83357 -6.50255,-28.89137c16.98733,-10.36265 19.31174,8.53349 19.86659,8.59928c0.65223,0.07733 7.13429,-9.74748 25.70414,-5.49988zM169.77903,106.61035c-1.85811,-1.30216 -6.15597,2.14469 -6.89095,3.16059c-1.51108,2.08867 -1.95048,4.35019 0.13818,5.86126c2.08866,1.51109 4.0992,0.3862 5.61027,-1.70247c0.77611,-1.07275 3.10458,-5.94438 1.1425,-7.31939zM161.65803,122.93863c-0.7466,1.03198 1.89145,-0.47522 3.14465,0.43142c1.2532,0.90666 3.87982,-2.72394 2.62661,-3.63059c-1.2532,-0.90665 -3.16415,-0.40448 -5.77126,3.19917zM158.0921,113.21477c-1.2532,-0.90666 -3.98924,2.87522 -2.73605,3.78186c1.2532,0.90665 -0.0608,4.86212 1.50302,2.70056c1.56381,-2.16157 2.48621,-5.57578 1.23302,-6.48243z" data-paper-data="{&quot;index&quot;:null}"/></g><g><path d="M437.7132,246.74245c-7.41777,-1.4836 -14.9066,-12.39014 -14.9066,-12.39014c0,0 9.28805,4.95637 14.05895,5.43976c4.7709,0.48339 10.80482,-1.59133 11.89627,-2.81001c1.60378,-1.79072 3.85949,-23.99653 27.29655,-17.09475c11.42865,3.36552 25.10986,17.15048 7.29351,28.7019c-16.69634,10.82526 -19.53881,-7.99993 -20.09525,-8.05046c-0.65412,-0.05939 -6.86392,9.93972 -25.54341,6.20369zM471.22801,248.22452c1.89318,1.25064 6.09475,-2.31292 6.80155,-3.34865c1.45314,-2.12938 1.83028,-4.40211 -0.29909,-5.85526c-2.12937,-1.45315 -4.10826,-0.27348 -5.5614,1.8559c-0.74635,1.09367 -2.94016,6.0274 -0.94106,7.34801zM478.89755,231.67938c0.71797,-1.0521 -1.87768,0.52698 -3.15531,-0.3449c-1.27763,-0.87189 -3.80354,2.82946 -2.52592,3.70136c1.27762,0.87188 3.17407,0.31743 5.68122,-3.35645zM482.72917,241.30164c1.27763,0.87189 3.90878,-2.98369 2.63116,-3.85557c-1.27762,-0.87188 -0.07275,-4.86196 -1.57662,-2.65827c-1.50386,2.2037 -2.33216,5.64195 -1.05453,6.51384z" data-paper-data="{&quot;index&quot;:null}"/><path d="M200.38332,111.23344c7.41777,1.4836 14.9066,12.39014 14.9066,12.39014c0,0 -9.28805,-4.95636 -14.05895,-5.43976c-4.7709,-0.48339 -10.80483,1.59133 -11.89628,2.81001c-1.60378,1.79072 -3.85949,23.99652 -27.29655,17.09475c-11.42866,-3.36552 -25.10985,-17.15047 -7.2935,-28.7019c16.69634,-10.82526 19.53881,7.99993 20.09525,8.05046c0.65412,0.05939 6.86392,-9.93972 25.54341,-6.20369zM166.8685,109.75137c-1.89318,-1.25064 -6.09474,2.31292 -6.80155,3.34865c-1.45313,2.12938 -1.83029,4.40211 0.29909,5.85526c2.12938,1.45315 4.10826,0.27348 5.5614,-1.8559c0.74635,-1.09367 2.94016,-6.0274 0.94106,-7.34801zM159.19897,126.2965c-0.71797,1.05209 1.87768,-0.52699 3.15531,0.3449c1.27763,0.87189 3.80354,-2.82945 2.52592,-3.70136c-1.27763,-0.87188 -3.17407,-0.31743 -5.68122,3.35645zM155.36734,116.67425c-1.27763,-0.87189 -3.90878,2.98368 -2.63116,3.85557c1.27763,0.87188 0.07275,4.86196 1.57662,2.65826c1.50387,-2.2037 2.33216,-5.64195 1.05453,-6.51384z" data-paper-data="{&quot;index&quot;:null}"/></g><g><path d="M439.61668,248.76656c-7.41777,-1.4836 -14.9066,-12.39014 -14.9066,-12.39014c0,0 9.28805,4.95637 14.05895,5.43976c4.7709,0.48339 10.80482,-1.59133 11.89627,-2.81001c1.60378,-1.79072 3.85949,-23.99653 27.29655,-17.09475c11.42865,3.36552 25.10986,17.15048 7.29351,28.7019c-16.69634,10.82526 -19.53881,-7.99993 -20.09525,-8.05046c-0.65412,-0.05939 -6.86392,9.93972 -25.54341,6.20369zM473.1315,250.24862c1.89318,1.25064 6.09475,-2.31292 6.80155,-3.34865c1.45314,-2.12938 1.83028,-4.40211 -0.29909,-5.85526c-2.12937,-1.45315 -4.10826,-0.27348 -5.5614,1.8559c-0.74635,1.09367 -2.94016,6.0274 -0.94106,7.34801zM480.80103,233.70349c0.71797,-1.0521 -1.87768,0.52698 -3.15531,-0.3449c-1.27763,-0.87189 -3.80354,2.82946 -2.52592,3.70136c1.27762,0.87188 3.17407,0.31743 5.68122,-3.35645zM484.63266,243.32575c1.27763,0.87189 3.90878,-2.98369 2.63116,-3.85557c-1.27762,-0.87188 -0.07275,-4.86196 -1.57662,-2.65827c-1.50386,2.2037 -2.33216,5.64195 -1.05453,6.51384z" data-paper-data="{&quot;index&quot;:null}"/><path d="M202.2868,113.25755c7.41777,1.4836 14.9066,12.39014 14.9066,12.39014c0,0 -9.28805,-4.95636 -14.05895,-5.43976c-4.7709,-0.48339 -10.80483,1.59133 -11.89628,2.81001c-1.60378,1.79072 -3.85949,23.99652 -27.29655,17.09475c-11.42866,-3.36552 -25.10985,-17.15047 -7.2935,-28.7019c16.69634,-10.82526 19.53881,7.99993 20.09525,8.05046c0.65412,0.05939 6.86392,-9.93972 25.54341,-6.20369zM168.77199,111.77547c-1.89318,-1.25064 -6.09474,2.31292 -6.80155,3.34865c-1.45313,2.12938 -1.83029,4.40211 0.29909,5.85526c2.12938,1.45315 4.10826,0.27348 5.5614,-1.8559c0.74635,-1.09367 2.94016,-6.0274 0.94106,-7.34801zM161.10245,128.32061c-0.71797,1.05209 1.87768,-0.52699 3.15531,0.3449c1.27763,0.87189 3.80354,-2.82945 2.52592,-3.70136c-1.27763,-0.87188 -3.17407,-0.31743 -5.68122,3.35645zM157.27083,118.69836c-1.27763,-0.87189 -3.90878,2.98368 -2.63116,3.85557c1.27763,0.87188 0.07275,4.86196 1.57662,2.65826c1.50387,-2.2037 2.33216,-5.64195 1.05453,-6.51384z" data-paper-data="{&quot;index&quot;:null}"/></g></g><text transform="translate(199.01235,187.35985) rotate(-0.17303) scale(0.5,0.5)" font-size="40" xml:space="preserve" fill-opacity="0.50196" fill="#cccccc" fill-rule="nonzero" stroke="none" stroke-width="1" stroke-linecap="butt" stroke-linejoin="miter" stroke-miterlimit="10" stroke-dasharray="" stroke-dashoffset="0" font-family="Sans Serif" font-weight="normal" text-anchor="start" style="mix-blend-mode: normal"><tspan x="0" dy="0">made by the spooki team</tspan></text></g></g></svg>