<svg version="1.1" xmlns="http://www.w3.org/2000/svg" xmlns:xlink="http://www.w3.org/1999/xlink" width="59.62363" height="128.14791" viewBox="0,0,59.62363,128.14791"><g transform="translate(-290.05,-78.4324)"><g data-paper-data="{&quot;isPaintingLayer&quot;:true}" fill-rule="nonzero" stroke="none" stroke-linecap="butt" stroke-linejoin="miter" stroke-miterlimit="10" stroke-dasharray="" stroke-dashoffset="0" style="mix-blend-mode: normal"><g><path d="M299.98645,85.55873c0,-2.07107 1.67893,-3.75 3.75,-3.75c2.07107,0 3.75,1.67893 3.75,3.75c0,2.07107 -1.67893,3.75 -3.75,3.75c-2.07107,0 -3.75,-1.67893 -3.75,-3.75z" fill="#000000" stroke-width="0.5"/><path d="M333.48645,84.7254c0,-2.07107 1.67893,-3.75 3.75,-3.75c2.07107,0 3.75,1.67893 3.75,3.75c0,2.07107 -1.67893,3.75 -3.75,3.75c-2.07107,0 -3.75,-1.67893 -3.75,-3.75z" fill="#000000" stroke-width="0.5"/><path d="M292.54499,90.04382c0,-3.21278 2.60448,-5.81725 5.81725,-5.81725c3.21278,0 5.81725,2.60448 5.81725,5.81725c0,3.21278 -2.60448,5.81725 -5.81725,5.81725c-3.21278,0 -5.81725,-2.60448 -5.81725,-5.81725z" fill="#000000" stroke-width="0.5"/><path d="M336.47255,89.3833c0,-3.21278 2.60448,-5.81725 5.81725,-5.81725c3.21278,0 5.81725,2.60448 5.81725,5.81725c0,3.21278 -2.60448,5.81725 -5.81725,5.81725c-3.21278,0 -5.81725,-2.60448 -5.81725,-5.81725z" fill="#000000" stroke-width="0.5"/><path d="M293.12072,190.13715c0.48909,-10.33016 1.20557,-27.19414 1.20557,-37.33959c0,-15.3477 -1.6514,-45.96087 -1.6514,-45.96087c0,0 0.48502,-28.40429 27.48603,-28.40429c27.0085,0 27.53098,28.40429 27.53098,28.40429c0,0 -1.6514,31.16441 -1.6514,46.62143c0,10.01638 0.70852,26.48844 1.1974,36.66165c0.25747,5.35811 2.43573,8.9689 2.43573,8.9689c0,0 -0.00766,0.03539 -0.02806,0.10196c-1.00876,-0.84092 -2.30659,1.29541 -3.72258,1.29541c-2.55666,0 -1.09497,2.97043 -1.87527,5.26312c-1.12964,0.38445 -5.73618,-2.85676 -6.43311,-1.91716c-1.66562,0.20323 -3.11386,1.11044 -4.03813,2.41507c-1.06688,-1.29918 -2.68562,-2.1279 -4.4979,-2.1279c-1.96281,0 -3.69856,0.97211 -4.75209,2.46114c-0.97204,-1.85561 -2.91635,-3.1217 -5.15637,-3.1217c-1.71204,0 -3.25133,0.73958 -4.31582,1.91667c-0.99205,-0.78645 -2.24667,-1.25611 -3.61095,-1.25611c-1.91576,0 -3.61524,0.92608 -4.67519,2.35499c-1.0337,-1.61487 -2.84336,-2.68527 -4.90301,-2.68527c-0.51315,0 -1.01081,0.06646 -1.4848,0.1912c0.02366,-0.21317 0.03583,-0.42983 0.03583,-0.64932c0,-3.21278 -2.60448,-2.84471 -5.81725,-2.84471c-1.30209,0 -2.50428,-2.54475 -3.47364,-1.82203c0.56734,-1.09948 1.9932,-4.25432 2.1955,-8.5269z" fill="#a8ba9a" stroke-width="NaN"/><path d="M329.07857,204.11917c-1.96281,0 -3.69856,0.97211 -4.75209,2.46114c-0.97204,-1.85561 -2.91635,-3.1217 -5.15637,-3.1217c-1.71204,0 -3.25133,0.73958 -4.31582,1.91667c-0.99205,-0.78645 -2.24667,-1.25611 -3.61095,-1.25611c-1.91576,0 -3.61524,0.92608 -4.67519,2.35499c-1.0337,-1.61487 -2.84336,-2.68527 -4.90301,-2.68527c-0.51315,0 -1.01081,0.06646 -1.4848,0.1912c0.02366,-0.21317 0.03583,-0.42983 0.03583,-0.64932c0,-3.21278 -2.60448,-2.84471 -5.81725,-2.84471c-1.30209,0 -2.50428,-2.54475 -3.47364,-1.82203c0.45619,-0.88404 1.46739,-3.09692 1.95132,-6.15119c1.37029,0.09654 2.7537,0.14566 4.14856,0.14566c17.78946,0 33.71386,-7.98513 44.38447,-20.56666c-6.11347,9.20743 -9.67486,20.25604 -9.67486,32.13648c0,0.17771 0.00079,0.3552 0.00237,0.53253c-0.79685,-0.41016 -1.70066,-0.64169 -2.65858,-0.64169z" fill-opacity="0.09804" fill="#000000" stroke-width="NaN"/><path d="M320.16091,78.4324c23.86823,0 27.05143,22.18314 27.46899,27.34162c-7.22735,-12.71081 -19.10551,-22.43225 -33.31957,-26.84943c1.79688,-0.31911 3.74296,-0.49216 5.85057,-0.49216z" fill-opacity="0.09804" fill="#000000" stroke-width="NaN"/><path d="M302.21819,120.22442c-0.54012,0.21605 -0.75617,-0.32407 -0.75617,-0.32407l-0.085,-0.21247c-1.19263,-3.05431 -1.21052,-7.45367 -0.18529,-10.52932c0,0 0.18396,-0.55187 0.73584,-0.36793c0.55187,0.18396 0.36793,0.73584 0.36793,0.73584c-0.93616,2.80848 -0.97609,6.96483 0.16179,9.72931l0.085,0.21249c0,0 0.21605,0.5401 -0.32407,0.75615z" fill-opacity="0.09804" fill="#000000" stroke-width="0.5"/><path d="M347.23789,190.11975c0.25747,5.35811 2.43573,8.9689 2.43573,8.9689c0,0 -0.00766,0.03539 -0.02806,0.10196c-1.00876,-0.84092 -2.30659,1.29541 -3.72258,1.29541c-2.55666,0 -1.09497,2.97043 -1.87527,5.26312c-1.12964,0.38445 -5.73618,-2.85676 -6.43311,-1.91716c-1.66562,0.20323 -3.11386,1.11044 -4.03813,2.41507c-1.06688,-1.29918 -2.68562,-2.1279 -4.4979,-2.1279c-1.96281,0 -3.69856,0.97211 -4.75209,2.46114c-0.97204,-1.85561 -2.91635,-3.1217 -5.15637,-3.1217c-1.71204,0 -3.25133,0.73958 -4.31582,1.91667c-0.99205,-0.78645 -2.24667,-1.25611 -3.61095,-1.25611c-1.91576,0 -3.61524,0.92608 -4.67519,2.35499c-1.0337,-1.61487 -2.84336,-2.68527 -4.90301,-2.68527c-0.51315,0 -1.01081,0.06646 -1.4848,0.1912c0.02366,-0.21317 0.03583,-0.42983 0.03583,-0.64932c0,-3.21278 -2.60448,-2.84471 -5.81725,-2.84471c-1.30209,0 -2.50428,-2.54475 -3.47364,-1.82203c0.14639,-0.28365 0.3499,-0.70412 0.57479,-1.24529c5.51818,1.73659 11.39113,2.67291 17.48277,2.67291c14.5523,0 27.85659,-5.34345 38.05781,-14.17534c0.06806,1.48701 0.13445,2.89713 0.19723,4.20343z" fill-opacity="0.09804" fill="#000000" stroke-width="NaN"/><path d="M302.90636,114.88002c0,-5.40169 3.3801,-12.10754 6.59288,-12.10754c3.21278,0 7.36853,5.93022 7.36853,11.33191c0,5.40169 -3.3801,11.33191 -6.59288,11.33191c-3.21278,0 -7.36853,-5.15457 -7.36853,-10.55626z" fill-opacity="0.09804" fill="#000000" stroke-width="0.5"/><path d="M323.49897,114.10437c0,-5.40169 4.15575,-11.33191 7.36853,-11.33191c3.21278,0 6.59288,6.70585 6.59288,12.10754c0,5.40169 -4.15575,10.55626 -7.36853,10.55626c-3.21278,0 -6.59288,-5.93022 -6.59288,-11.33191z" fill-opacity="0.09804" fill="#000000" stroke-width="0.5"/></g><path d="" fill-opacity="0.09804" fill="#000000" stroke-width="0.5"/><g stroke-width="0.5"><path d="M302.65591,92.34448c2.40185,0 4.46372,1.45564 5.35157,3.53284c0.98488,-0.76522 2.22226,-1.22086 3.56607,-1.22086c0.66903,0 1.3117,0.11295 1.90994,0.32081c1.066,-1.20931 2.62661,-1.97221 4.36543,-1.97221c2.10373,0 3.94663,1.1167 4.96831,2.78967c0.42015,-0.09645 0.85765,-0.14743 1.30707,-0.14743c1.88779,0 3.56553,0.89921 4.62832,2.29267c0.67606,-2.46396 2.93183,-4.27438 5.61044,-4.27438c1.29813,0 2.49695,0.42519 3.46478,1.14393c0.78621,-2.10987 2.76192,-3.64047 5.11171,-3.77636c0.49915,2.87399 1.18907,2.34626 2.58027,4.79403c1.3912,2.44777 1.35985,5.22591 1.44417,5.3448c-1.02979,0.92387 -2.19091,1.48584 -3.68328,1.48584c-1.29813,0 -2.49695,-0.42519 -3.46478,-1.14393c-0.82398,2.21123 -2.95449,3.78619 -5.45286,3.78619c-1.88779,0 -7.56015,1.98171 -10.23876,1.98171c-2.10373,0 -3.94663,-1.1167 -4.96831,-2.78967c-0.42015,0.09645 -0.85765,0.14743 -1.30707,0.14743c-0.66903,0 -1.3117,-0.11295 -1.90994,-0.32081c-1.066,1.20931 -2.62661,1.97221 -4.36543,1.97221c-1.5314,0 -2.92459,-0.59175 -3.96339,-1.55905c-1.0388,0.96732 -2.43198,1.55905 -3.96339,1.55905c-2.69076,0 -4.95483,-1.82687 -5.61954,-4.30793c-0.61719,0.22299 -1.28287,0.34454 -1.97696,0.34454c-0.91465,0 -1.78001,-0.2111 -2.55,-0.58722c0.78844,-5.42685 0.90285,-4.36751 0.90285,-6.68162c0,-1.36982 -0.11017,-2.71391 -0.32214,-4.02389c0.61502,-0.22123 1.27807,-0.34177 1.96928,-0.34177c1.7831,0 3.37885,0.80227 4.44594,2.06552c0.66775,-0.26715 1.39656,-0.4141 2.15971,-0.4141z" fill-opacity="0.09804" fill="#000000"/><path d="M302.65591,89.51114c2.40185,0 4.46372,1.45564 5.35157,3.53284c0.98488,-0.76522 2.22226,-1.22086 3.56607,-1.22086c0.66903,0 1.3117,0.11295 1.90994,0.32081c1.066,-1.20931 2.62661,-1.97221 4.36543,-1.97221c2.10373,0 3.94663,1.1167 4.96831,2.78967c0.42015,-0.09645 0.85765,-0.14743 1.30707,-0.14743c1.88779,0 3.56553,0.89921 4.62832,2.29267c0.67606,-2.46396 2.93183,-4.27438 5.61044,-4.27438c1.29813,0 2.49695,0.42519 3.46478,1.14393c0.82398,-2.21123 2.95449,-3.78619 5.45286,-3.78619c3.21278,0 5.81725,2.60448 5.81725,5.81725c0,3.21278 -2.60448,5.81725 -5.81725,5.81725c-1.29813,0 -2.49695,-0.42519 -3.46478,-1.14393c-0.82398,2.21123 -2.95449,3.78619 -5.45286,3.78619c-1.88779,0 -3.56553,-0.89921 -4.62832,-2.29267c-0.67606,2.46396 -2.93183,4.27438 -5.61044,4.27438c-2.10373,0 -3.94663,-1.1167 -4.96831,-2.78967c-0.42015,0.09645 -0.85765,0.14743 -1.30707,0.14743c-0.66903,0 -1.3117,-0.11295 -1.90994,-0.32081c-1.066,1.20931 -2.62661,1.97221 -4.36543,1.97221c-1.5314,0 -2.92459,-0.59175 -3.96339,-1.55905c-1.0388,0.96732 -2.43198,1.55905 -3.96339,1.55905c-2.69076,0 -4.95483,-1.82687 -5.61954,-4.30793c-0.61719,0.22299 -1.28287,0.34454 -1.97696,0.34454c-3.21278,0 -5.81725,-2.60448 -5.81725,-5.81725c0,-3.21278 2.60448,-5.81725 5.81725,-5.81725c1.7831,0 3.37885,0.80227 4.44594,2.06552c0.66775,-0.26715 1.39656,-0.4141 2.15971,-0.4141z" fill="#1a090d"/><path d="M290.05,93.70427c0,-2.34586 1.38855,-4.36743 3.3886,-5.28758c-0.80948,0.9994 -1.29439,2.27245 -1.29439,3.65875c0,3.21278 2.60448,5.81725 5.81725,5.81725c0.86691,0 -0.26773,1.62883 -2.09421,1.62883c-3.21278,0 -5.81725,-2.60448 -5.81725,-5.81725z" fill="#4a314d"/><path d="M343.67045,100.21961c-1.82648,0 -3.45636,-0.84176 -4.52284,-2.1585c0.73912,0.34003 1.56172,0.52967 2.42863,0.52967c3.21278,0 5.81725,-2.60448 5.81725,-5.81725c0,-1.3863 -0.48493,-2.65935 -1.29441,-3.65875c2.00004,0.92015 3.38862,2.94171 3.38862,5.28758c0,3.21278 -2.60448,5.81725 -5.81725,5.81725z" data-paper-data="{&quot;index&quot;:null}" fill="#ace894"/><path d="M334.82822,103.01189c-1.82648,0 -3.45636,-0.84176 -4.52287,-2.1585c0.73912,0.34003 1.56172,0.52967 2.42863,0.52967c3.21278,0 5.81725,-2.60448 5.81725,-5.81725c0,-1.3863 -0.48493,-2.65935 -1.29439,-3.65875c2.00004,0.92015 3.38862,2.94171 3.38862,5.28758c0,3.21278 -2.60448,5.81725 -5.81725,5.81725z" data-paper-data="{&quot;index&quot;:null}" fill="#4a314d"/><path d="M296.79801,98.12538c0,-2.34586 1.38855,-4.36741 3.38862,-5.28758c-0.80946,0.9994 -1.29441,2.27245 -1.29441,3.65875c0,3.21278 2.60448,5.81725 5.81725,5.81725c0.86691,0 2.35621,-0.18964 3.0953,-0.52967c-1.06649,1.31675 -3.36304,2.1585 -5.18951,2.1585c-3.21278,0 -5.81725,-2.60448 -5.81725,-5.81725z" fill="#6b6570"/><path d="M305.21353,99.07468c-0.42871,-2.30635 0.56702,-4.54762 2.36522,-5.81781c-0.61318,1.1305 -0.8573,2.47073 -0.60395,3.83369c0.58715,3.15867 3.62373,5.24332 6.7824,4.65617c0.85232,-0.15844 2.29308,-0.49521 2.95762,-0.96459c-0.8079,1.48947 -2.92316,2.61492 -4.71887,2.94872c-3.15867,0.58715 -6.19526,-1.4975 -6.7824,-4.65617z" fill="#ace894"/><path d="M311.69018,96.26381c0,-3.21278 2.60448,-5.81725 5.81725,-5.81725c3.21278,0 5.81725,2.60448 5.81725,5.81725c0,3.21278 -2.60448,5.81725 -5.81725,5.81725c-3.21278,0 -5.81725,-2.60448 -5.81725,-5.81725z" fill="#6b6570"/><path d="M319.83432,93.0062c0,-3.21278 2.60448,-5.81725 5.81725,-5.81725c3.21278,0 5.81725,2.60448 5.81725,5.81725c0,3.21278 -2.60448,5.81725 -5.81725,5.81725c-3.21278,0 -5.81725,-2.60448 -5.81725,-5.81725z" fill="#6b6570"/><path d="M318.2055,99.75416c0,-3.21278 2.60448,-5.81725 5.81725,-5.81725c3.21278,0 5.81725,2.60448 5.81725,5.81725c0,3.21278 -2.60448,5.81725 -5.81725,5.81725c-3.21278,0 -5.81725,-2.60448 -5.81725,-5.81725z" fill="#6b6570"/><path d="M314.01707,89.05049c0,-3.21278 2.60448,-5.81725 5.81725,-5.81725c3.21278,0 5.81725,2.60448 5.81725,5.81725c0,3.21278 -2.60448,5.81725 -5.81725,5.81725c-3.21278,0 -5.81725,-2.60448 -5.81725,-5.81725z" fill="#6b6570"/><path d="M317.22269,92.4929c0.24558,0.03162 0.49593,0.04791 0.75012,0.04791c2.24886,0 4.19966,-1.2761 5.16784,-3.14367c0.80627,0.91806 1.89705,1.58006 3.13461,1.84823c-0.68544,0.95442 -1.08906,2.1249 -1.08906,3.38964c0,0.84529 0.18029,1.64845 0.5045,2.37316c-0.24144,-0.03053 -0.48749,-0.04626 -0.73719,-0.04626c-1.86133,0 -3.51848,0.87419 -4.58327,2.23438c-0.15339,-0.07274 -0.3031,-0.15197 -0.44877,-0.23737c0.09526,-0.41766 0.14557,-0.85244 0.14557,-1.29895c0,-2.14112 -1.15675,-4.01207 -2.8794,-5.02199c0.01108,-0.04861 0.02278,-0.09699 0.03507,-0.14511z" fill="#1a090d"/></g><path d="M312.1848,109.40488c-0.16893,0.00612 -0.33869,0.01525 -0.50518,0.02733c-0.49555,2.46378 -1.22847,4.26711 -2.67901,6.01171c1.06687,0.46784 2.18121,0.66489 2.74565,0.10045c0.15264,-0.15264 0.22116,-2.76915 0.39289,-3.26544c0.36715,-1.04337 0.60057,-2.28242 0.04565,-2.87404zM306.82901,114.0445c0.089,-0.75886 0.21624,-1.45471 0.41305,-2.08236c-0.22343,0.20923 -0.4434,0.41659 -0.66003,0.61656c-0.07581,0.29582 -0.14672,0.60564 -0.20789,0.92014c0.03589,0.03153 0.06763,0.06715 0.09348,0.10864c0.07435,0.13028 0.1987,0.27915 0.36138,0.43701zM307.07677,111.44707c0.196,-0.17813 0.39417,-0.35525 0.59536,-0.5285c0.37859,-0.71054 0.90704,-1.29985 1.65482,-1.75636c-0.10506,0.01535 -0.21006,0.03287 -0.31492,0.0525c-0.69353,0.61686 -1.29962,1.38142 -1.83549,2.11315c-0.0291,0.03973 -0.06263,0.07948 -0.09976,0.11921zM311.90715,107.94404c-0.00467,0.10997 -0.0111,0.21934 -0.02227,0.32453c0.08621,-0.01531 0.17389,-0.02988 0.26307,-0.04369c0.1695,-0.02625 0.38945,-0.06267 0.64509,-0.10256c-0.13757,-0.04843 -0.26503,-0.09633 -0.37663,-0.14478c-0.17329,-0.02354 -0.34301,-0.03436 -0.50926,-0.0335zM313.83203,108.47801c-0.69663,0.08782 -1.29663,0.19282 -1.60755,0.24098c-0.02029,0.00314 -0.0405,0.00632 -0.06062,0.00954c0.04161,0.01969 0.08318,0.03979 0.12468,0.0603c1.13247,-0.075 2.80587,-0.01715 2.41183,1.08417c-0.02723,0.16091 -0.05376,0.32225 -0.07998,0.48369c0.03652,0.04556 0.0719,0.09176 0.10614,0.13856c0.11666,-0.38269 0.3575,-1.29233 0.22914,-1.41624c-0.25317,-0.24438 -0.67526,-0.43566 -1.12365,-0.60099zM307.09154,116.70152c0.40705,-0.37135 0.77417,-0.73541 1.10628,-1.09846c-0.34301,-0.18063 -0.66907,-0.38097 -0.9616,-0.58701c-0.01644,0.22043 -0.03134,0.44598 -0.04551,0.67654c-0.01919,0.31223 -0.07955,0.66944 -0.09917,1.00892zM316.6528,108.39029c0.00708,0.01526 0.01356,0.03041 0.01941,0.04544c0.4011,1.03014 -0.13127,2.51874 -0.47571,3.47749c-0.1602,0.43805 -0.43618,0.99008 -0.79469,1.5928c-0.18142,0.99488 -0.73401,2.00395 -1.69777,2.88176c-0.5273,0.47457 -1.1678,1.21402 -1.84139,1.89045c0.33179,0.02862 0.62212,0.00602 0.81207,-0.10727c1.66849,-0.99515 2.69761,-3.79238 3.61286,-5.41949c0.4011,-0.71307 1.99233,-2.96987 1.48753,-3.83042c-0.17304,-0.29498 -0.58873,-0.4559 -1.1223,-0.53076zM310.05346,117.86849c0.07969,-0.08794 0.15905,-0.1783 0.23779,-0.27033c-0.13694,0.02899 -0.27875,0.05384 -0.42562,0.07437c-0.10275,0.00905 -0.22528,0.02441 -0.36239,0.04308c0.02736,0.00695 0.05472,0.0139 0.08209,0.02087c0.12249,0.03062 0.28331,0.07782 0.46814,0.13202zM305.23836,116.59843c-0.15619,-0.15519 -0.31682,-0.30982 -0.48465,-0.46138c-0.22095,-0.19953 -1.18782,-0.89474 -1.19515,-1.18492c-0.01066,-0.42203 1.04195,-1.34137 1.76876,-1.94948c0.17784,-0.42297 0.72692,-1.05111 1.01371,-1.39647c0.12577,-0.40853 0.25189,-0.76054 0.36122,-1.02292c0.11959,-0.28575 0.25007,-0.54276 0.39021,-0.77287c-1.7683,0.76821 -3.34029,2.07509 -4.28354,3.57738c-0.14199,0.39592 -0.70498,1.34326 -0.65644,1.73891c0.09331,0.76049 1.25627,0.90515 1.81096,1.08369c0.42326,0.13624 0.84838,0.2649 1.27492,0.38806zM310.57229,118.74557c-0.45789,0.24209 -0.89987,0.37957 -1.3065,0.37545c-0.06071,0.04336 -0.12118,0.08446 -0.18132,0.1231c0.28645,0.08315 0.52278,0.10866 0.64386,0.04947c0.28175,-0.13772 0.56388,-0.32672 0.84396,-0.54802zM311.92681,107.4519c0.20281,-0.00081 0.41072,0.01339 0.62398,0.04403c0.32906,0.13942 0.8351,0.29078 1.33733,0.47375c0.55097,-0.06538 1.15253,-0.11649 1.73048,-0.11976c-0.6998,-0.52995 -1.76704,-0.62755 -2.5667,-0.62755c-0.36522,0 -1.03182,-0.43325 -1.09321,-0.07322c-0.01587,0.09309 -0.02539,0.19533 -0.03189,0.30276zM316.06964,108.34178c-0.39557,-0.01429 -0.8239,0.00175 -1.24915,0.03433c0.23683,0.13151 0.43465,0.27723 0.56092,0.44068c0.38962,0.50436 0.1933,1.39479 -0.24746,2.37821c0.16872,0.37608 0.27509,0.77644 0.31594,1.18959c0.11658,-0.23654 0.20991,-0.4524 0.27605,-0.64044c0.30181,-0.84008 0.83447,-2.22788 0.4789,-3.13074c-0.0382,-0.09701 -0.08355,-0.18741 -0.1352,-0.27163zM309.27711,118.62161c0.12784,-0.10406 0.25714,-0.22086 0.38673,-0.34723c-0.07152,-0.01966 -0.13871,-0.03756 -0.20079,-0.05308c-0.34534,-0.08786 -0.91241,-0.19148 -1.58791,-0.32077c-0.19084,0.00916 -0.37893,0.01085 -0.55773,0.00131c0.51502,0.37661 1.09976,0.64476 1.85512,0.71418c0.03445,0.00324 0.06932,0.0051 0.10459,0.0056zM305.73607,116.38496c-0.13303,-0.78146 -0.05935,-1.75852 0.10569,-2.70833c-0.10907,-0.05926 -0.23972,-0.10079 -0.34901,-0.15759c-0.64306,0.54466 -1.43878,1.2451 -1.43435,1.42047c0.00288,0.1141 1.25661,1.01532 1.41001,1.17002c0.09098,0.09175 0.18,0.18374 0.26766,0.27543zM308.05117,111.21964c-0.44901,0.87514 -0.64781,1.95229 -0.76634,3.21441c0.35546,0.27295 0.78927,0.54954 1.24962,0.78723c1.4255,-1.67977 2.13859,-3.38537 2.62529,-5.74004c-0.48716,0.05772 -0.89801,0.14394 -1.10417,0.25654c-0.69726,0.38083 -1.36456,0.91353 -2.00441,1.48187zM313.58459,109.43436c0.22126,0.14118 0.42412,0.29714 0.60801,0.46576c0.01085,-0.06144 0.02185,-0.12279 0.03303,-0.18401c0.11469,-0.1412 -0.17037,-0.23393 -0.64103,-0.28175zM310.83979,116.92222c0.15834,-0.2041 0.31091,-0.40764 0.45504,-0.6033c-0.75508,0.16209 -1.72342,-0.07797 -2.62936,-0.48715c-0.39596,0.44151 -0.84046,0.88211 -1.34136,1.33165c0.29008,0.07473 0.58046,0.1485 0.87101,0.22192c0.66815,-0.06312 1.34462,-0.18595 1.61394,-0.20959c0.37992,-0.05324 0.72203,-0.13897 1.03074,-0.25352zM312.89378,109.6988c0.2193,0.77628 0.03103,1.82508 -0.28212,2.74362c-0.13882,0.4012 -0.16356,1.46484 -0.24438,2.3153c0.44967,-0.70515 0.92975,-1.42098 1.35956,-2.15584c0.13938,-0.68023 0.24723,-1.39031 0.36324,-2.0969c-0.0101,-0.01102 -0.02029,-0.022 -0.03055,-0.03293c-0.09739,0.00395 -0.17603,-0.05896 -0.17603,-0.05896c-0.31552,-0.25242 -0.64778,-0.49443 -0.98972,-0.7143zM306.14231,112.30451c0.01132,-0.04315 0.02272,-0.08596 0.03419,-0.1284c-0.23838,0.1866 -0.44093,0.37026 -0.51534,0.54884c0.11164,-0.09283 0.2023,-0.16891 0.26192,-0.22236c0.07299,-0.0654 0.14605,-0.13148 0.21923,-0.19809zM316.2274,107.86637c0.90252,0.05781 1.67059,0.27598 1.97897,0.80168c0.65375,1.11445 -0.96594,3.40932 -1.48301,4.32854c-0.94151,1.67379 -2.06226,4.70984 -3.85869,5.63687c-0.36116,0.18637 -0.89482,0.17184 -1.45087,0.07885c-0.51231,0.47375 -1.03329,0.87171 -1.52933,1.05626c-0.32289,0.12013 -0.8557,0.01409 -1.40812,-0.22127c-0.69059,0.23103 -1.288,-0.01162 -1.6349,-1.11071c-0.18974,-0.20789 -0.32911,-0.42199 -0.39187,-0.62896c-0.08979,-0.08265 -0.17856,-0.16746 -0.26688,-0.25392c-2.11164,-0.47524 -4.38392,-1.1974 -4.5266,-2.367c-0.06238,-0.51132 0.52515,-1.52978 0.70315,-2.01756c1.13782,-1.8347 3.12993,-3.37755 5.31816,-4.11601c0.56722,-0.57132 1.23202,-0.84482 1.94156,-0.89794c0.55992,-0.34872 1.1672,-0.59181 1.83155,-0.67334c0.03209,-0.30591 0.078,-0.59213 0.15465,-0.68629c0.79094,-0.97156 3.50654,0.06785 4.62224,1.07078zM311.40673,107.98242c-0.28607,0.04263 -0.56125,0.11954 -0.82614,0.2247c0.2407,0.04119 0.48367,0.10215 0.72709,0.1802c0.01917,-0.00452 0.03842,-0.00901 0.05776,-0.01344c0.00183,-0.01095 0.00367,-0.02191 0.0055,-0.03289c0.01255,-0.07532 0.02349,-0.20495 0.0358,-0.35857zM306.76616,114.65612c-0.19889,-0.16657 -0.37014,-0.33161 -0.50523,-0.48793c-0.15041,1.05743 -0.15394,2.0937 0.17002,2.76105c0.05206,0.01393 0.10413,0.02781 0.15621,0.04163c-0.00582,-0.42665 0.07945,-0.90143 0.10449,-1.30895c0.02122,-0.34542 0.04534,-0.68081 0.07451,-1.00581zM311.88829,116.33411c0.6019,-0.4825 1.01257,-1.13084 1.31193,-1.87795c-0.34643,0.50956 -0.6386,0.92751 -0.79469,1.18362c-0.1511,0.20653 -0.3254,0.44256 -0.51723,0.69432zM305.94507,113.13905c-0.02631,0.02201 -0.05373,0.04494 -0.08212,0.06869c0.0196,0.01269 0.0398,0.02474 0.06042,0.03632c0.00713,-0.03509 0.01437,-0.0701 0.0217,-0.10501zM314.50691,111.06015c-0.00153,0.00941 -0.00305,0.01882 -0.00458,0.02823c0.00298,-0.00701 0.00596,-0.01402 0.00893,-0.02103c-0.00145,-0.0024 -0.00289,-0.0048 -0.00434,-0.0072zM308.40249,118.98044c0.0558,0.02626 0.11153,0.0514 0.16684,0.07528c0.0174,-0.00645 0.03488,-0.01331 0.05244,-0.02057c-0.07467,-0.01639 -0.14772,-0.03467 -0.21928,-0.05472zM314.95619,113.28066c0.0714,-0.50973 0.02993,-1.01167 -0.11614,-1.48134c-0.21123,0.40558 -0.45082,0.81662 -0.69659,1.2141c-0.44776,1.96451 -1.20178,3.64783 -3.08909,4.3631c-0.17852,0.21077 -0.36322,0.42011 -0.55139,0.62142c0.0845,0.02354 0.1711,0.04706 0.2589,0.06994c1.49929,-0.99048 3.19108,-3.11777 4.19431,-4.78722zM307.47893,110.1356c0.19719,-0.23802 0.40096,-0.47099 0.61216,-0.69403c-0.04519,0.01379 -0.09031,0.02795 -0.13536,0.04247c-0.16982,0.18337 -0.32937,0.39954 -0.47681,0.65156zM310.11008,118.40033c-0.01719,0.01678 -0.0344,0.03346 -0.05161,0.05004c0.03002,-0.0124 0.06018,-0.02543 0.09049,-0.03906c-0.01302,-0.00367 -0.02598,-0.00733 -0.03888,-0.01097z" fill="#1a090d" stroke-width="0.5"/><path d="M329.03818,112.27893c0.17172,0.49629 0.24024,3.1128 0.39288,3.26544c0.56444,0.56444 1.67879,0.3674 2.74565,-0.10045c-1.45054,-1.7446 -2.18347,-3.54793 -2.67901,-6.01171c-0.16649,-0.01208 -0.33625,-0.02121 -0.50518,-0.02733c-0.55492,0.59162 -0.32149,1.83068 0.04566,2.87404zM334.70968,113.6075c0.02585,-0.04149 0.05759,-0.07711 0.09348,-0.10864c-0.06117,-0.3145 -0.13208,-0.62432 -0.20789,-0.92015c-0.21663,-0.19997 -0.4366,-0.40733 -0.66003,-0.61656c0.19681,0.62765 0.32406,1.3235 0.41306,2.08236c0.16267,-0.15786 0.28703,-0.30673 0.36138,-0.43701zM334.0008,111.32786c-0.53587,-0.73173 -1.14196,-1.49629 -1.83549,-2.11315c-0.10486,-0.01963 -0.20986,-0.03715 -0.31493,-0.05249c0.74777,0.45651 1.27624,1.04582 1.65482,1.75635c0.20119,0.17325 0.39935,0.35036 0.59535,0.5285c-0.03713,-0.03973 -0.07065,-0.07948 -0.09976,-0.11921zM328.7609,107.97754c-0.1116,0.04846 -0.23906,0.09634 -0.37663,0.14478c0.25564,0.0399 0.47559,0.07631 0.64508,0.10256c0.08918,0.01381 0.17687,0.02837 0.26308,0.04369c-0.01117,-0.10519 -0.01759,-0.21456 -0.02227,-0.32453c-0.16625,-0.00087 -0.33597,0.00996 -0.50926,0.0335zM326.22164,109.079c-0.12836,0.1239 0.11248,1.03355 0.22915,1.41624c0.03424,-0.0468 0.06962,-0.093 0.10614,-0.13856c-0.02621,-0.16143 -0.05275,-0.32277 -0.07998,-0.48368c-0.39404,-1.10132 1.27936,-1.15917 2.41183,-1.08417c0.0415,-0.0205 0.08307,-0.0406 0.12468,-0.06029c-0.02012,-0.00322 -0.04033,-0.0064 -0.06062,-0.00955c-0.31092,-0.04815 -0.91092,-0.15316 -1.60755,-0.24098c-0.44839,0.16533 -0.87048,0.35661 -1.12365,0.60099zM333.98661,115.6926c-0.01417,-0.23057 -0.02907,-0.45611 -0.0455,-0.67655c-0.29253,0.20603 -0.61859,0.40637 -0.9616,0.58701c0.33211,0.36306 0.69923,0.72711 1.10628,1.09846c-0.01962,-0.33948 -0.07999,-0.69669 -0.09917,-1.00892zM323.40223,108.92105c-0.50481,0.86055 1.08643,3.11735 1.48753,3.83042c0.91525,1.62711 1.94437,4.42435 3.61286,5.41949c0.18995,0.11329 0.48028,0.13589 0.81207,0.10727c-0.67359,-0.67642 -1.31409,-1.41587 -1.84139,-1.89044c-0.96376,-0.87781 -1.51636,-1.88688 -1.69778,-2.88177c-0.35851,-0.60272 -0.63449,-1.15475 -0.79469,-1.5928c-0.34444,-0.95874 -0.87681,-2.44734 -0.47571,-3.47749c0.00585,-0.01503 0.01233,-0.03018 0.01941,-0.04544c-0.53357,0.07486 -0.94926,0.23578 -1.1223,0.53076zM331.592,117.73648c0.02736,-0.00696 0.05473,-0.01391 0.08209,-0.02087c-0.13711,-0.01867 -0.25965,-0.03402 -0.3624,-0.04308c-0.14688,-0.02053 -0.28868,-0.04538 -0.42562,-0.07437c0.07874,0.09203 0.1581,0.18239 0.23779,0.27033c0.18484,-0.0542 0.34565,-0.10139 0.46814,-0.13202zM337.21389,116.21037c0.55469,-0.17854 1.71766,-0.32319 1.81097,-1.08369c0.04854,-0.39564 -0.51445,-1.34299 -0.65644,-1.73891c-0.94326,-1.50229 -2.51524,-2.80917 -4.28355,-3.57738c0.14013,0.23011 0.27063,0.48712 0.39021,0.77287c0.10933,0.26238 0.23545,0.6144 0.36122,1.02292c0.28679,0.34535 0.83587,0.9735 1.01371,1.39647c0.72681,0.6081 1.77942,1.52744 1.76876,1.94947c-0.00733,0.29018 -0.97421,0.98539 -1.19515,1.18492c-0.16782,0.15156 -0.32846,0.30619 -0.48465,0.46138c0.42654,-0.12316 0.85167,-0.25182 1.27492,-0.38806zM331.449,119.29359c0.12108,0.05918 0.35741,0.03368 0.64386,-0.04947c-0.06014,-0.03863 -0.12061,-0.07973 -0.18132,-0.12309c-0.40663,0.00411 -0.84861,-0.13336 -1.3065,-0.37545c0.28008,0.22129 0.56221,0.41029 0.84396,0.54801zM329.21862,107.14915c-0.06139,-0.36002 -0.72798,0.07322 -1.09321,0.07322c-0.79965,0 -1.8669,0.09759 -2.5667,0.62754c0.57795,0.00327 1.17952,0.05439 1.73048,0.11977c0.50223,-0.18297 1.00827,-0.33433 1.33733,-0.47375c0.21326,-0.03064 0.42118,-0.04484 0.62398,-0.04403c-0.0065,-0.10743 -0.01602,-0.20967 -0.03189,-0.30276zM324.97247,108.61342c-0.35557,0.90287 0.1771,2.29066 0.4789,3.13074c0.06615,0.18804 0.15947,0.40389 0.27605,0.64044c0.04086,-0.41315 0.14722,-0.81351 0.31594,-1.18959c-0.44076,-0.98342 -0.63709,-1.87385 -0.24746,-2.37821c0.12627,-0.16345 0.32409,-0.30917 0.56092,-0.44068c-0.42525,-0.03258 -0.85358,-0.04862 -1.24915,-0.03433c-0.05165,0.08422 -0.097,0.17462 -0.13521,0.27163zM332.0048,118.61601c0.75536,-0.06942 1.34011,-0.33757 1.85513,-0.71417c-0.17881,0.00954 -0.36689,0.00785 -0.55774,-0.00131c-0.6755,0.12929 -1.24257,0.23291 -1.58792,0.32077c-0.06209,0.01552 -0.12927,0.03342 -0.20079,0.05308c0.12959,0.12637 0.25889,0.24318 0.38673,0.34723c0.03527,-0.0005 0.07013,-0.00235 0.10458,-0.0056zM335.70892,116.10953c0.1534,-0.15471 1.40713,-1.05593 1.41001,-1.17003c0.00443,-0.17538 -0.79129,-0.87581 -1.43435,-1.42047c-0.10929,0.0568 -0.23995,0.09834 -0.34902,0.1576c0.16505,0.94981 0.23871,1.92686 0.10569,2.70833c0.08767,-0.09169 0.17669,-0.18367 0.26767,-0.27542zM331.12174,109.73777c-0.20616,-0.1126 -0.61701,-0.19882 -1.10417,-0.25654c0.4867,2.35467 1.19979,4.06027 2.62529,5.74004c0.46035,-0.23768 0.89416,-0.51429 1.24962,-0.78723c-0.11853,-1.26211 -0.31734,-2.33926 -0.76634,-3.2144c-0.63985,-0.56834 -1.30716,-1.10103 -2.00441,-1.48186zM326.95169,109.71611c0.01117,0.06122 0.02218,0.12256 0.03303,0.18401c0.18389,-0.16862 0.38676,-0.32458 0.60801,-0.46576c-0.47066,0.04781 -0.75573,0.14055 -0.64104,0.28175zM331.36828,117.17575c0.26932,0.02364 0.94579,0.14647 1.61394,0.20959c0.29055,-0.07342 0.58093,-0.14718 0.87101,-0.22192c-0.5009,-0.44954 -0.9454,-0.89014 -1.34136,-1.33165c-0.90595,0.40919 -1.87428,0.64925 -2.62936,0.48715c0.14413,0.19566 0.2967,0.3992 0.45504,0.6033c0.3087,0.11455 0.65081,0.20029 1.03073,0.25352zM327.29383,110.4131c0,0 -0.07864,0.06291 -0.17603,0.05896c-0.01027,0.01093 -0.02044,0.0219 -0.03055,0.03293c0.11602,0.70659 0.22385,1.41666 0.36324,2.0969c0.42981,0.73486 0.90989,1.45069 1.35956,2.15584c-0.08081,-0.85046 -0.10555,-1.9141 -0.24437,-2.3153c-0.31315,-0.91854 -0.50142,-1.96735 -0.28212,-2.74362c-0.34195,0.21987 -0.6742,0.46188 -0.98972,0.7143zM335.25425,112.5026c0.05962,0.05345 0.15028,0.12952 0.26192,0.22236c-0.07441,-0.17858 -0.27697,-0.36225 -0.51534,-0.54884c0.01147,0.04244 0.02287,0.08525 0.03418,0.1284c0.07318,0.0666 0.14625,0.13269 0.21924,0.19809zM329.57218,106.79559c0.07666,0.09416 0.12255,0.38038 0.15465,0.68629c0.66435,0.08152 1.27162,0.32462 1.83154,0.67334c0.70954,0.05312 1.37435,0.32662 1.94156,0.89794c2.18822,0.73846 4.18034,2.28132 5.31815,4.11601c0.178,0.48777 0.76552,1.50623 0.70315,2.01755c-0.14268,1.1696 -2.41496,1.89177 -4.5266,2.367c-0.08832,0.08646 -0.17709,0.17127 -0.26689,0.25392c-0.06277,0.20697 -0.20214,0.42107 -0.39187,0.62896c-0.3469,1.09909 -0.94432,1.34175 -1.6349,1.11071c-0.55241,0.23536 -1.08523,0.3414 -1.40812,0.22127c-0.49604,-0.18456 -1.01702,-0.58252 -1.52934,-1.05626c-0.55605,0.09299 -1.08971,0.10752 -1.45087,-0.07885c-1.79642,-0.92703 -2.91718,-3.96308 -3.85869,-5.63687c-0.51707,-0.91922 -2.13676,-3.2141 -1.48301,-4.32855c0.30838,-0.5257 1.07646,-0.74386 1.97897,-0.80168c1.1157,-1.00293 3.8313,-2.04234 4.62225,-1.07079zM329.8064,108.34099c0.00183,0.01098 0.00366,0.02193 0.00549,0.03288c0.01934,0.00444 0.03859,0.00892 0.05776,0.01345c0.24342,-0.07805 0.48639,-0.13901 0.72709,-0.18021c-0.26488,-0.10515 -0.54008,-0.18206 -0.82614,-0.22469c0.01231,0.15363 0.02324,0.28325 0.0358,0.35857zM334.48568,115.66194c0.02504,0.40752 0.1103,0.8823 0.10448,1.30894c0.05208,-0.01382 0.10416,-0.0277 0.15622,-0.04163c0.32396,-0.66736 0.32043,-1.70363 0.17001,-2.76105c-0.13509,0.15631 -0.30633,0.32135 -0.50523,0.48793c0.02917,0.32501 0.05329,0.66039 0.07452,1.00581zM328.7718,115.63979c-0.15609,-0.25611 -0.44827,-0.67406 -0.79469,-1.18363c0.29936,0.74711 0.71003,1.39545 1.31193,1.87795c-0.19183,-0.25177 -0.36613,-0.4878 -0.51724,-0.69432zM335.25394,113.24406c0.02062,-0.01158 0.04081,-0.02362 0.06041,-0.03632c-0.02839,-0.02375 -0.0558,-0.04668 -0.08211,-0.06869c0.00733,0.03491 0.01457,0.06992 0.0217,0.10501zM326.66607,111.06735c0.00297,0.00701 0.00594,0.01402 0.00893,0.02103c-0.00153,-0.00941 -0.00306,-0.01882 -0.00458,-0.02823c-0.00145,0.0024 -0.0029,0.0048 -0.00435,0.0072zM332.55555,119.03516c0.01756,0.00726 0.03503,0.01411 0.05244,0.02056c0.05532,-0.02389 0.11105,-0.04903 0.16685,-0.07528c-0.07156,0.02005 -0.14462,0.03833 -0.21928,0.05472zM330.41544,118.06789c0.08781,-0.02289 0.1744,-0.0464 0.2589,-0.06995c-0.18818,-0.20131 -0.37288,-0.41064 -0.55139,-0.62141c-1.88731,-0.71526 -2.64132,-2.39859 -3.08909,-4.3631c-0.24577,-0.39747 -0.48536,-0.80852 -0.69659,-1.2141c-0.14608,0.46966 -0.18755,0.97161 -0.11615,1.48134c1.00324,1.66945 2.69503,3.79673 4.19432,4.78722zM333.22159,109.48405c-0.04505,-0.01452 -0.09017,-0.02868 -0.13536,-0.04247c0.21121,0.22304 0.41498,0.45601 0.61217,0.69403c-0.14744,-0.25203 -0.30699,-0.46819 -0.47681,-0.65156zM331.02837,118.41131c0.0303,0.01364 0.06047,0.02666 0.09049,0.03906c-0.01722,-0.01658 -0.03442,-0.03326 -0.05161,-0.05004c-0.0129,0.00365 -0.02585,0.00731 -0.03888,0.01098z" data-paper-data="{&quot;index&quot;:null}" fill="#1a090d" stroke-width="0.5"/><g data-paper-data="{&quot;index&quot;:null}" stroke-width="0.5"><path d="M314.18726,126.33171c-0.99496,-0.99097 -3.28603,0.38664 -3.19439,1.63708c-0.00801,0.63552 0.17868,1.7528 -0.11002,2.33126c-0.85242,1.70799 -2.65333,2.14538 -2.93027,4.30396c-0.35994,2.41509 0.40185,5.40823 -1.14115,7.48453c-0.26079,0.35093 -1.86775,2.24406 -1.42929,2.72405c0.44393,0.48596 3.60556,0.59717 4.28004,0.54727c0.91335,-0.04978 2.03492,-1.07136 2.81611,-1.55096c1.30743,-0.80267 2.63397,-1.16119 4.02285,-1.76473c1.24024,-0.53781 3.18865,-1.88409 4.52719,-1.95064c0.86229,-0.04287 2.04047,1.04271 2.70839,1.49969c2.35289,1.60979 4.53385,1.84197 7.31471,1.87698c0.4081,-0.02912 2.23594,0.08627 2.48404,-0.16099c0.79503,-0.79232 -0.05474,-4.03465 -0.51191,-4.855c-0.83325,-1.49907 -2.28194,-2.89559 -2.10704,-4.7042c0.07951,-0.82215 0.74002,-1.36569 0.84414,-2.16661c-0.09745,-1.3279 -0.96198,-3.29338 -2.0108,-4.21159c-0.4537,-0.39721 -1.84758,0.21718 -2.30294,0.38288c-0.2371,0.08628 -0.84556,0.14124 -1.01021,0.24071c-0.24917,0.15054 -0.09846,2.04627 -0.81265,2.06431c-0.35742,0.00903 -0.69965,-1.18984 -0.83689,-1.43043c-0.55588,-0.97443 -1.05611,-1.01256 -2.13149,-0.95366c-1.74807,0.09445 -5.46462,-0.71144 -6.35336,1.07769l0.01349,0.19055c0.0073,0.10308 -0.07035,0.19256 -0.17343,0.19986c-0.08883,0.00629 -0.16755,-0.0505 -0.1923,-0.13228l-0.08577,-0.26263c-0.26575,-0.81369 -0.86187,-1.69833 -1.63035,-2.12765c0,0 -0.16263,-0.09254 -0.0701,-0.25517c0.0074,-0.013 0.01524,-0.02436 0.02341,-0.03428zM316.07508,128.25172c0.17589,-0.38109 0.68495,-0.73026 1.03762,-0.76917c1.84262,-0.20325 3.68166,-0.08118 5.52281,-0.18066c1.04519,-0.05575 1.61478,-0.04672 2.24522,0.82195c0.33784,0.46551 0.1589,1.57624 0.7339,1.56172c0.2554,-0.00645 0.38321,-1.80909 0.56124,-1.95853c0.12352,-0.10369 0.93896,-0.24976 1.14309,-0.32404c0.63817,-0.23222 2.0302,-0.82774 2.66881,-0.32009c1.13962,0.9059 2.05422,3.1563 2.14699,4.51096c-0.10355,0.82828 -0.77563,1.38191 -0.84721,2.20511c-0.1475,1.69632 1.27618,3.05764 2.06313,4.4734c0.52881,0.95368 1.39904,4.35508 0.44898,5.30189c-0.37772,0.37642 -2.20393,0.2324 -2.73724,0.26999c-2.85347,-0.03346 -5.12336,-0.29083 -7.537,-1.94219c-0.56499,-0.38655 -1.74791,-1.48529 -2.47561,-1.43494c-1.30251,0.09013 -3.18563,1.39388 -4.39977,1.92037c-0.8784,0.38014 -1.854,0.54344 -2.71579,0.96568c-1.31577,0.64467 -2.77708,2.25705 -4.24562,2.37996c-0.75874,0.05157 -4.10436,-0.06593 -4.59456,-0.6817c-0.63156,-0.79334 0.99164,-2.61377 1.417,-3.18614c1.48175,-1.99387 0.72406,-4.98679 1.07083,-7.3127c0.28628,-2.23221 2.0995,-2.67458 2.96679,-4.42102c0.25194,-0.50732 0.06255,-1.59006 0.0701,-2.15263c-0.1095,-1.75802 3.14839,-3.40399 4.13165,-1.49946l0.08961,0.06014c0,0 0.04574,0.03969 0.0626,0.09995c0.50416,0.42921 0.91212,1.01348 1.17242,1.61218z" fill="#1a090d"/><path d="M316.05503,127.88011l-0.00947,-0.19628c0.04557,-0.35777 0.07973,-0.88845 0.28452,-1.14818c-1.99279,-0.3885 -3.01746,0.38716 -4.82257,1.30856c-1.45687,2.67525 -3.02023,5.2208 -4.02987,8.15037c-0.74065,2.14906 -0.98128,4.35686 -1.70891,6.47012c-0.13794,0.40063 -0.40047,1.20749 -0.75338,1.52741c0.66471,0.06938 1.32927,0.1402 1.99389,0.21047c2.97002,0.31787 6.0748,0.23868 8.96878,-0.71728c1.31532,-0.54472 3.09471,-1.73578 4.51793,-1.82742c1.21289,-0.0781 3.14485,0.88509 4.35357,1.20145c3.12188,-0.16123 6.1482,1.89947 8.40962,-1.19344c0.31857,-0.53548 0.4576,-0.47433 0.95499,-0.74266c0.24223,-0.13068 -0.45666,-0.33209 -0.60042,-0.56679c-0.33596,-0.54847 -0.8771,-1.27485 -1.12231,-1.85605c-0.51916,-1.23051 -0.69804,-2.79792 -1.22489,-4.11984c-0.11888,-0.86156 0.36726,-2.93178 0.08131,-3.53937c-0.31394,-0.66704 -1.363,-0.78802 -1.30719,-1.77891c0.05604,-0.99503 0.68088,-2.30315 -0.89314,-2.18537c-0.30975,0.02193 -1.0017,-0.05926 -1.27708,0.07306c-1.0388,0.49911 -0.41307,2.56249 -1.33998,2.99644c-0.51872,0.24285 -3.35264,-1.91064 -3.5103,-2.26972c-0.24725,-0.04632 -1.27725,-0.45805 -1.47132,-0.24468c-0.25755,0.28317 -0.03509,1.03502 -0.35804,1.33951c-0.61221,0.57721 -3.94497,0.01344 -4.8389,0.07674c0,0 -0.22713,0.01608 -0.24321,-0.21105c-0.01608,-0.22713 0.21105,-0.24321 0.21105,-0.24321c0.602,-0.04263 4.33412,0.35254 4.59202,0.01763c0.22649,-0.29412 0.0005,-1.01631 0.32075,-1.30721c0.4775,-0.43375 1.56685,0.07084 2.07085,0.21564c0.36774,0.66008 1.2731,0.81473 1.89604,1.24238c0.41807,0.28701 0.95032,1.40085 1.18652,0.95212c0.90195,-1.7135 0.24715,-2.91613 2.72943,-3.09191c1.93477,-0.13014 1.51246,1.40378 1.37938,2.67444c-0.08006,0.76435 1.01983,0.99536 1.2605,1.54055c0.33116,0.75017 -0.17279,2.66994 -0.04838,3.62665c0.68649,1.68416 0.97688,3.55917 1.87305,5.05429c0.21584,0.36009 1.2078,1.51502 1.02847,1.83271c-0.23305,0.41284 -0.71294,0.28905 -0.96674,0.76187c-2.41144,3.30921 -5.52009,1.26434 -8.83851,1.39921c-1.18844,-0.29716 -3.0877,-1.26648 -4.2638,-1.20114c-1.35701,0.07539 -3.13999,1.27859 -4.40273,1.80101c-2.96369,0.97607 -6.13173,1.06079 -9.17517,0.74323c-0.73126,-0.07732 -1.46258,-0.15409 -2.19371,-0.23256l-0.01494,-0.00847l-0.00127,0.00493l-0.43603,-0.11183c-0.09483,-0.02197 -0.16841,-0.10361 -0.17565,-0.20578c-0.0088,-0.12424 0.08381,-0.23225 0.20746,-0.24293l0.16728,-0.01488c1.56845,-1.28335 1.9453,-6.29367 2.53259,-7.99775c1.02902,-2.98577 2.55903,-5.64369 4.14214,-8.32769c2.01524,-1.13081 3.27875,-1.95085 5.68484,-1.32556l0.43567,0.11322c0.09449,0.02221 0.16773,0.1037 0.17495,0.20562c0.00857,0.12108 -0.07917,0.22674 -0.19809,0.24193l-0.19889,0.02711c-0.30546,0.24455 -0.54387,0.59514 -0.59041,0.96056l0.01198,0.10656c0,0 0.01608,0.22713 -0.21105,0.24321c-0.22713,0.01608 -0.24321,-0.21105 -0.24321,-0.21105z" fill="#1a090d"/></g></g></g></svg>