<svg version="1.1" xmlns="http://www.w3.org/2000/svg" xmlns:xlink="http://www.w3.org/1999/xlink" width="80" height="234.27547" viewBox="0,0,80,234.27547"><g transform="translate(-280,-70.67282)"><g data-paper-data="{&quot;isPaintingLayer&quot;:true}" fill-rule="nonzero" stroke-linecap="butt" stroke-linejoin="miter" stroke-miterlimit="10" stroke-dasharray="" stroke-dashoffset="0" style="mix-blend-mode: normal"><g stroke="none" stroke-width="0"><path d="M280,172.53452l12.41379,-19.48276h55.17242l12.41379,19.48276z" fill="#ccc5b9"/><path d="M360,172.53454l-12.41379,13.24138h-55.17242l-12.41379,-13.24138z" fill="#403d39"/><path d="M291.72414,304.94829l0.68966,-119.17241h55.17242v119.17241z" fill="#252422"/></g><g stroke="none"><g fill="#403d39" stroke-width="0.5"><path d="M302.40386,153.16105c-1.5,2.18484 -0.9113,8.19243 -5.79474,-1.64176c-4.88344,-9.83419 -4.51164,-24.88165 3.833,-32.49873c0,0 1.95217,-1.70607 3.51391,0.42652c1.56174,2.13259 -0.39043,3.83867 -0.39043,3.83867c-6.66527,5.43362 -6.15271,18.48168 -2.567,25.61801l0.90526,0.43383c0,0 2,1.63863 0.5,3.82347z"/><path d="M338.09613,149.33756l0.90526,-0.43383c3.58571,-7.13633 4.09828,-20.1844 -2.567,-25.61801c0,0 -1.95217,-1.70608 -0.39043,-3.83867c1.56174,-2.13259 3.51391,-0.42652 3.51391,-0.42652c8.34465,7.61708 8.71644,22.66454 3.833,32.49873c-4.88344,9.83419 -4.29474,3.82661 -5.79474,1.64177c-1.5,-2.18484 0.5,-3.82347 0.5,-3.82347z" data-paper-data="{&quot;index&quot;:null}"/></g><g><path d="M328.06469,157.28812c0.92471,2.32622 4.65198,7.89345 4.84442,10.79157c0.01214,0.1197 0.01387,0.24212 0.00435,0.36629c-0.08667,1.13054 -1.07342,1.97677 -2.20396,1.8901c-0.84454,-0.06475 -1.53041,-0.63177 -1.78726,-1.3858c-0.83741,-1.1247 -1.38188,-2.65102 -1.92375,-3.76349c-2.70612,-5.55563 -4.51373,-11.36976 -6.6101,-17.15959c-0.48529,-1.34028 -3.60332,-5.39992 -3.23928,-6.81858c0.51357,-2.00137 2.52591,-2.87648 3.83575,-1.0765c2.14739,2.95094 3.25776,6.50406 4.39309,9.91755c0.81225,2.44214 1.73605,4.84681 2.68676,7.23843z" data-paper-data="{&quot;index&quot;:null}" fill="#21201f" stroke-width="0.5"/><path d="M311.97448,157.28812c0.95071,-2.39163 1.8745,-4.7963 2.68676,-7.23844c1.13533,-3.41349 2.24569,-6.96661 4.39308,-9.91755c1.30983,-1.79998 3.32219,-0.92487 3.83575,1.0765c0.36403,1.41865 -2.75399,5.4783 -3.23928,6.81858c-2.09637,5.78983 -3.90398,11.60395 -6.6101,17.15959c-0.54188,1.11247 -1.08635,2.63879 -1.92375,3.76349c-0.25684,0.75403 -0.94272,1.32105 -1.78725,1.3858c-1.13054,0.08667 -2.11729,-0.75956 -2.20396,-1.8901c-0.00952,-0.12417 -0.00778,-0.2466 0.00435,-0.3663c0.19244,-2.89812 3.9197,-8.46535 4.84442,-10.79157z" fill="#21201f" stroke-width="0.5"/><g stroke-width="0"><path d="M342.5,139.35375c0,16.04333 -10.07359,21.75099 -22.5,21.75099c-12.42641,0 -22.5,-5.70766 -22.5,-21.75099c0,-16.04333 10.07359,-29.04901 22.5,-29.04901c12.42641,0 22.5,13.00569 22.5,29.04901z" fill="#252422"/><path d="M340,120.95072c0,9.97794 -8.9543,13.75401 -20,13.75401c-11.0457,0 -20,-3.77608 -20,-13.75401c0,-9.97794 40,-9.97794 40,0z" data-paper-data="{&quot;index&quot;:null}" fill-opacity="0.09804" fill="#000000"/></g><g stroke-width="0.5"><path d="M298.00944,172.30255c-2.03517,0.27018 -2.30535,-1.76499 -2.30535,-1.76499l-0.20109,-1.73786c0.13195,-1.09726 -0.24562,-2.39184 0.39587,-3.29178c3.39633,-4.76468 9.52781,-0.91571 13.02527,1.08725c0,0 1.78019,1.02268 0.75751,2.80286c-1.02268,1.78018 -2.80286,0.7575 -2.80286,0.7575c-1.29595,-0.74703 -7.96597,-5.10161 -7.27259,-1.20261l0.16825,1.0443c0,0 0.27018,2.03517 -1.76499,2.30535z" fill="#252422"/><path d="M297.64095,166.93311c-1.9223,-0.72087 -1.20144,-2.64317 -1.20144,-2.64317l0.64168,-1.62754c0.63351,-0.90557 0.91062,-2.22531 1.90053,-2.71671c5.24104,-2.6017 8.83489,3.68273 10.97561,7.09762c0,0 1.08811,1.74097 -0.65286,2.82906c-1.74097,1.08811 -2.82907,-0.65286 -2.82907,-0.65286c-0.79093,-1.26964 -4.62149,-8.25379 -5.84749,-4.48818l-0.34377,1.00034c0,0 -0.72087,1.9223 -2.64317,1.20144z" fill="#3a3733"/><path d="M300.65472,161.75223c-1.23492,-1.64008 0.40517,-2.875 0.40517,-2.875l1.41503,-1.02873c1.0206,-0.42398 1.96282,-1.38871 3.06181,-1.27194c5.81851,0.61827 5.47728,7.84967 5.45034,11.87999c0,0 -0.0165,2.05296 -2.06946,2.03646c-2.05297,-0.01649 -2.03647,-2.06944 -2.03647,-2.06944c0.01421,-1.49579 0.53136,-9.44462 -2.52438,-6.92563l-0.82702,0.65947c0,0 -1.64009,1.23492 -2.87501,-0.40516z" fill="#403d39"/></g><g data-paper-data="{&quot;index&quot;:null}" stroke-width="0.5"><path d="M341.99056,172.30257c-2.03517,-0.27018 -1.76499,-2.30535 -1.76499,-2.30535l0.16825,-1.0443c0.69338,-3.899 -5.97663,0.45558 -7.27259,1.20261c0,0 -1.78018,1.02268 -2.80286,-0.7575c-1.02268,-1.78018 0.75751,-2.80286 0.75751,-2.80286c3.49746,-2.00296 9.62894,-5.85193 13.02527,-1.08725c0.64149,0.89993 0.26391,2.19451 0.39587,3.29178l-0.20109,1.73786c0,0 -0.27017,2.03518 -2.30535,1.76499z" fill="#252422"/><path d="M342.35904,166.93311c-1.9223,0.72087 -2.64317,-1.20144 -2.64317,-1.20144l-0.34377,-1.00034c-1.226,-3.76561 -5.05655,3.21854 -5.84749,4.48818c0,0 -1.0881,1.74097 -2.82907,0.65286c-1.74097,-1.0881 -0.65286,-2.82906 -0.65286,-2.82906c2.14072,-3.41489 5.73456,-9.69931 10.97561,-7.09762c0.98991,0.4914 1.26702,1.81114 1.90053,2.71671l0.64168,1.62754c0,0 0.72087,1.92231 -1.20144,2.64317z" fill="#3a3733"/><path d="M339.34527,161.75225c-1.23492,1.64008 -2.87501,0.40516 -2.87501,0.40516l-0.82702,-0.65947c-3.05575,-2.51899 -2.53859,5.42985 -2.52438,6.92563c0,0 0.0165,2.05295 -2.03647,2.06944c-2.05296,0.0165 -2.06946,-2.03646 -2.06946,-2.03646c-0.02693,-4.03032 -0.36817,-11.26172 5.45034,-11.87999c1.09899,-0.11677 2.04121,0.84796 3.06181,1.27194l1.41503,1.02873c0,0 1.64008,1.23492 0.40517,2.875z" fill="#403d39"/></g></g></g><g><g stroke="#3c162f" stroke-width="0"><path d="M347.01475,91.6542c0,17.82091 -9.90846,37.34478 -27.01475,37.34478c-17.10629,0 -27.01475,-19.52386 -27.01475,-37.34478c0,-8.89227 11.99998,-20.98137 26.93205,-20.98137c14.93207,0 27.09744,12.05273 27.09744,20.98137z" data-paper-data="{&quot;index&quot;:null}" fill="#252422"/><path d="M333.09499,119.26071c0,11.76797 -13.09498,21.3078 -13.09498,21.3078c0,0 -13.09498,-9.53982 -13.09498,-21.3078c0,-11.76797 26.18995,-11.76797 26.18995,0z" fill="#000000"/></g><g><path d="M333.09499,119.26071c0,11.76797 -13.09499,21.3078 -13.09499,21.3078c0,0 -13.09498,-9.53982 -13.09498,-21.3078c0,-11.76797 26.18995,-11.76797 26.18995,0z" fill="#403d39" stroke="#3c162f" stroke-width="0"/><path d="M333.09499,119.26071c0,7.69235 -5.59527,14.43267 -9.47089,18.17877c2.81151,-3.64208 4.48924,-8.24028 4.48924,-13.23886c0,-5.11499 -1.75679,-9.81074 -4.68752,-13.49176c5.22609,0.85421 9.66916,3.70482 9.66916,8.55186z" fill-opacity="0.09804" fill="#000000" stroke="#3c162f" stroke-width="0"/><path d="M323.76337,119.33599c0,-1.88154 0.3822,-3.40684 0.85367,-3.40684c0.47147,0 0.85367,1.5253 0.85367,3.40684c0,1.88154 -0.3822,3.40683 -0.85367,3.40683c-0.47147,0 -0.85367,-1.52529 -0.85367,-3.40683z" fill="#252422" stroke="none" stroke-width="0.5"/><path d="M314.5293,119.33599c0,-1.88154 0.3822,-3.40684 0.85367,-3.40684c0.47147,0 0.85367,1.5253 0.85367,3.40684c0,1.88154 -0.3822,3.40683 -0.85367,3.40683c-0.47147,0 -0.85367,-1.52529 -0.85367,-3.40683z" fill="#252422" stroke="none" stroke-width="0.5"/></g><g stroke="none" stroke-width="0"><path d="M306.44128,106.62617c-4.12363,-0.74739 -6.71409,-5.50461 -5.78594,-10.62555c0.92814,-5.12094 5.02342,-8.66641 9.14705,-7.91903c4.12363,0.74739 6.71408,5.50461 5.78594,10.62555c-0.92814,5.12094 -5.02341,8.66641 -9.14704,7.91902z" data-paper-data="{&quot;index&quot;:null}" fill="#eb5e28"/><path d="M324.41168,98.70712c-0.92814,-5.12095 1.66231,-9.87816 5.78594,-10.62554c4.12363,-0.74739 8.2189,2.79807 9.14705,7.91902c0.92814,5.12095 -1.66231,9.87816 -5.78594,10.62555c-4.12363,0.74739 -8.2189,-2.79808 -9.14704,-7.91902z" data-paper-data="{&quot;index&quot;:null}" fill="#eb5e28"/><path d="M308.36769,105.01942c-3.40907,-0.61788 -5.55064,-4.55075 -4.78333,-8.78431c0.76731,-4.23356 4.15294,-7.16466 7.56201,-6.54679c3.40907,0.61788 5.55064,4.35075 4.78333,8.58431c-0.76731,4.23356 -4.15294,7.36466 -7.56201,6.74678z" data-paper-data="{&quot;index&quot;:null}" fill="#fffcf2"/><path d="M324.0703,98.47261c-0.76731,-4.23357 1.37426,-8.16644 4.78333,-8.78431c3.40907,-0.61788 6.7947,2.31321 7.56201,6.54678c0.76731,4.23357 -1.37426,8.16644 -4.78333,8.78431c-3.40907,0.61788 -6.7947,-2.31321 -7.56201,-6.54678z" data-paper-data="{&quot;index&quot;:null}" fill="#fffcf2"/></g></g></g></g></svg>