<svg version="1.1" xmlns="http://www.w3.org/2000/svg" xmlns:xlink="http://www.w3.org/1999/xlink" width="35.17311" height="35.17311" viewBox="0,0,35.17311,35.17311"><g transform="translate(-302.41347,-162.4135)"><g data-paper-data="{&quot;isPaintingLayer&quot;:true}" stroke-miterlimit="10" stroke-dasharray="" stroke-dashoffset="0" style="mix-blend-mode: normal"><path d="M309.98314,162.9135h20.03378c3.9166,0 7.06966,3.15307 7.06966,7.06966v20.03379c0,3.91659 -3.15306,7.06966 -7.06966,7.06966h-20.03378c-3.91659,0 -7.06967,-3.15307 -7.06967,-7.06966v-20.03379c0,-3.91659 3.15308,-7.06966 7.06967,-7.06966z" fill-opacity="0.09677" fill="#191919" fill-rule="evenodd" stroke="#ffffff" stroke-width="1" stroke-linecap="round" stroke-linejoin="round"/><g data-paper-data="{&quot;index&quot;:null}" fill-rule="nonzero" stroke-linejoin="miter"><path d="M310.11971,173.03589c1.15843,-4.2539 2.31673,-6.07059 4.21483,-6.53529c2.06063,-0.50448 4.67043,1.4932 7.4921,2.2616c3.0602,0.83336 6.52503,0.43876 7.96582,2.24822c1.1114,1.39579 1.00984,3.50773 -0.04228,7.37124c-1.04548,3.83917 -3.23461,7.02902 -5.35997,9.41857c-2.78618,3.13252 -4.33715,6.83586 -9.24555,5.49911c-5.34451,-1.45551 -4.36768,-5.31521 -5.18079,-9.42815c-0.62019,-3.13715 -0.88962,-6.99634 0.15582,-10.83532z" fill="#ffffff" stroke="none" stroke-width="0" stroke-linecap="butt"/><path d="M315.08178,182.24757c-0.10252,-0.82331 0.63315,-0.70191 1.57756,-2.28503c1.21574,-2.03796 2.93709,-5.49883 3.14729,-5.88088c0.01159,-0.02107 1.06362,0.30222 1.06302,0.32331c-0.01358,0.47198 -2.00136,11.82489 -3.61436,11.38565c-1.613,-0.43926 -2.07098,-2.71973 -2.1735,-3.54304z" fill="#bfbfbf" stroke="none" stroke-width="0" stroke-linecap="butt"/><path d="M317.52288,172.22059c-1.05878,0.47968 -2.4464,0.38711 -2.4464,0.38711c0,0 2.52133,-1.05654 3.23988,-1.52208c0.94172,-0.61013 1.61426,-1.3256 1.61426,-1.3256l-0.20587,0.39164c-0.92998,1.22233 -1.14311,1.58925 -2.20188,2.06893z" data-paper-data="{&quot;index&quot;:null}" fill="#bfbfbf" stroke="none" stroke-width="0.5" stroke-linecap="butt"/><path d="M322.95493,170.58359c0,0 0.33832,1.16496 0.85503,2.2373c0.31702,0.65793 1.88497,2.67844 1.88497,2.67844c0,0 -1.24296,-0.6238 -1.91232,-1.57409c-0.66938,-0.95029 -0.66703,-1.3746 -0.84883,-2.8997l0.02114,-0.44196z" data-paper-data="{&quot;index&quot;:null}" fill="#bfbfbf" stroke="none" stroke-width="0.5" stroke-linecap="butt"/><path d="M319.99427,191.37727c0,0 -0.47999,-0.90723 -3.83936,-1.7355c-3.27805,-0.80821 -4.20982,-0.45646 -4.20982,-0.45646c0,0 -0.00342,-4.14783 5.04711,-2.8304c4.88423,1.27406 3.00207,5.02235 3.00207,5.02235z" fill="#bfbfbf" stroke="#000000" stroke-width="0" stroke-linecap="round"/><path d="M324.61161,176.70357c1.52677,1.23451 3.62715,1.27801 3.50827,2.63778c-0.23636,2.70347 -4.98635,3.91122 -7.04979,1.45794c-2.06345,-2.45328 1.06852,-7.62564 1.06852,-7.62564c0,0 0.96429,2.31002 2.47301,3.52992z" data-paper-data="{&quot;index&quot;:null}" fill="#bfbfbf" stroke="none" stroke-width="0" stroke-linecap="butt"/><path d="M317.52815,184.57357c-0.90084,-0.26056 -1.37704,-1.82716 -1.37704,-1.82716c0,0 0.41586,-0.27971 1.23059,-2.42297c0.61219,-1.61044 1.82349,-6.25262 2.40051,-6.88668c0.24569,-0.26997 1.35701,0.02882 1.43282,0.37844c0.17604,0.8119 -1.17618,5.51464 -1.4667,7.18723c-0.40535,2.33363 -0.1352,2.74533 -0.1352,2.74533c0,0 -1.18414,1.08638 -2.08499,0.82582z" fill="#ffffff" stroke="none" stroke-width="0" stroke-linecap="butt"/><path d="M315.39718,174.19428c1.91893,-0.28649 3.92136,-1.78861 3.92136,-1.78861c0,0 0.07692,6.04621 -2.94553,7.1145c-3.02245,1.0683 -6.50419,-2.38114 -5.33714,-4.83116c0.587,-1.23229 2.41942,-0.2048 4.36131,-0.49473z" data-paper-data="{&quot;index&quot;:null}" fill="#bfbfbf" stroke="none" stroke-width="0" stroke-linecap="butt"/><path d="M311.55906,182.46878c0.22083,1.04672 0.13988,1.57058 -0.03771,3.41778l-0.09547,0.54912c0,0 0.05027,-1.1407 -0.06103,-2.28422c-0.08494,-0.87252 -0.65057,-3.26585 -0.65057,-3.26585c0,0 0.62396,0.53644 0.84479,1.58316z" data-paper-data="{&quot;index&quot;:null}" fill="#000000" stroke="none" stroke-width="0.5" stroke-linecap="butt"/><path d="M323.22592,187.07411c-0.71376,1.00241 -1.39579,2.19486 -1.39579,2.19486l0.19615,-0.52173c0.78354,-1.68218 0.97938,-2.17476 1.70045,-2.96498c0.72107,-0.79022 1.53086,-0.93623 1.53086,-0.93623c0,0 -1.59375,1.61305 -2.03168,2.22807z" data-paper-data="{&quot;index&quot;:null}" fill="#bfbfbf" stroke="none" stroke-width="0.5" stroke-linecap="butt"/><path d="M310.11971,173.03589v0c1.15843,-4.2539 2.31673,-6.07059 4.21483,-6.53529c0.6633,-0.16239 1.38347,-0.06552 2.14932,0.16615c-2.25448,0.99643 -4.05732,2.96322 -4.75545,5.52684c-0.86472,3.1754 0.50745,5.27618 2.78322,7.35077c-3.49885,2.64802 -2.62188,11.27475 -0.54759,13.35428c-4.01711,-1.68292 -3.25305,-5.24828 -4.00015,-9.02743c-0.62019,-3.13715 -0.88962,-6.99634 0.15581,-10.83531z" fill="#bfbfbf" stroke="none" stroke-width="0" stroke-linecap="butt"/></g></g></g></svg>