<svg version="1.1" xmlns="http://www.w3.org/2000/svg" xmlns:xlink="http://www.w3.org/1999/xlink" width="34.17311" height="34.17311" viewBox="0,0,34.17311,34.17311"><g transform="translate(-302.78846,-162.91346)"><g data-paper-data="{&quot;isPaintingLayer&quot;:true}" stroke-miterlimit="10" stroke-dasharray="" stroke-dashoffset="0" style="mix-blend-mode: normal"><path d="M309.85812,162.91346h20.03379c3.9166,0 7.06966,3.15307 7.06966,7.06966v20.03379c0,3.91659 -3.15306,7.06966 -7.06966,7.06966h-20.03379c-3.91659,0 -7.06966,-3.15307 -7.06966,-7.06966v-20.03379c0,-3.91659 3.15307,-7.06966 7.06966,-7.06966z" fill-opacity="0.35294" fill="#bc47ff" fill-rule="evenodd" stroke="none" stroke-width="4.43922" stroke-linecap="round" stroke-linejoin="round"/><g fill-rule="nonzero" stroke-linejoin="miter"><g stroke="none" stroke-width="0" stroke-linecap="butt"><path d="M323.99034,176.00283c-3.93883,3.97082 -3.68224,-1.64669 -3.68224,-1.64669c0,0 4.02388,-2.1344 8.61228,-2.2744c4.58839,-0.14 6.71577,3.39866 6.11287,7.40315c-0.6029,4.00449 -7.38737,-7.16728 -11.0429,-3.48206z" fill="#bc47ff"/><path d="M322.86481,175.05424c-0.72581,5.54572 -3.92681,0.92231 -3.92681,0.92231c0,0 1.90661,-4.13668 5.47112,-7.0293c3.56451,-2.89262 7.40148,-1.36767 9.3493,2.18274c1.94782,3.55041 -10.22,-1.2226 -10.89361,3.92425z" fill="#bc47ff"/></g><g><path d="M326.30955,184.34215c-0.36508,5.00296 -4.49697,8.67712 -9.24291,8.43241c-11.19344,-0.57716 -8.28592,-4.68194 -7.92084,-9.68489c0.36508,-5.00295 4.50327,-8.77827 9.24291,-8.43241c4.73964,0.34587 8.28592,4.68194 7.92084,9.68489z" fill="#000000" stroke="none" stroke-width="0" stroke-linecap="butt"/><path d="M323.25638,185.67711c0,0 -8.76212,6.031 -12.60211,5.75078c-1.92765,-0.14067 -3.94986,0.70579 -3.42588,-6.96028c0.50772,-7.42815 2.4819,-6.44939 4.39424,-6.30984c3.83999,0.28021 11.63375,7.51934 11.63375,7.51934z" fill="#bc47ff" stroke="none" stroke-width="0" stroke-linecap="butt"/><path d="M309.97821,188.10327c0,0 0.02059,-2.4561 0.14898,-3.66511c0.12694,-1.19538 0.61707,-3.54852 0.61707,-3.54852" fill="none" stroke="#000000" stroke-width="1" stroke-linecap="round"/><path d="M313.45304,187.55799c0,0 0.11957,-1.97726 0.21697,-2.94206c0.09466,-0.93765 0.35945,-2.76759 0.35945,-2.76759" fill="none" stroke="#000000" stroke-width="1" stroke-linecap="round"/><path d="M307.68541,187.77618c0,0 -0.26869,-2.21562 -0.12957,-3.68586c0.13913,-1.47024 0.82776,-3.69249 0.82776,-3.69249" fill="none" stroke="#000000" stroke-width="1" stroke-linecap="round"/></g></g></g></g></svg>