<svg version="1.1" xmlns="http://www.w3.org/2000/svg" xmlns:xlink="http://www.w3.org/1999/xlink" width="34.17311" height="34.17311" viewBox="0,0,34.17311,34.17311"><g transform="translate(-302.91346,-162.91346)"><g data-paper-data="{&quot;isPaintingLayer&quot;:true}" stroke-linecap="round" stroke-miterlimit="10" stroke-dasharray="" stroke-dashoffset="0" style="mix-blend-mode: normal"><path d="M309.98314,162.91347h20.03378c3.9166,0 7.06966,3.15307 7.06966,7.06966v20.03379c0,3.91659 -3.15306,7.06966 -7.06966,7.06966h-20.03378c-3.91659,0 -7.06967,-3.15307 -7.06967,-7.06966v-20.03379c0,-3.91659 3.15308,-7.06966 7.06967,-7.06966z" fill-opacity="0.09677" fill="#191919" fill-rule="evenodd" stroke="none" stroke-width="4.43922" stroke-linejoin="round"/><g><path d="M312.39747,166.81446l1.4015,2.98771l1.65355,-1.06981l2.77814,6.29327" fill="none" fill-rule="nonzero" stroke="#ffffff" stroke-width="1" stroke-linejoin="miter"/><path d="M322.52149,175.36135l3.72312,-5.78461l1.46704,1.31397l1.84913,-2.73338" data-paper-data="{&quot;index&quot;:null}" fill="none" fill-rule="nonzero" stroke="#ffffff" stroke-width="1" stroke-linejoin="miter"/><g fill-rule="evenodd" stroke="none" stroke-width="4.43922" stroke-linejoin="round"><path d="M309.03828,191.7331l1.27924,-16.3501l19.96525,1.56209l-1.27924,16.3501z" fill="#ffffff"/><path d="M310.30902,187.64008l0.62719,-8.01622c0.12261,-1.56716 1.88914,-2.69833 3.96083,-2.53624l10.59685,0.8291c2.07168,0.16209 3.64077,1.55424 3.51815,3.1214l-0.62719,8.01623c-0.12261,1.56716 -1.88914,2.69833 -3.96082,2.53624l-10.59685,-0.8291c-2.07168,-0.16209 -3.64078,-1.55424 -3.51817,-3.1214z" fill="#bfbfbf"/><path d="M329.03632,175.04096l1.24192,1.96193l-19.96524,-1.56209l1.53194,-1.74489z" fill="#bfbfbf"/></g></g></g></g></svg>