<svg version="1.1" xmlns="http://www.w3.org/2000/svg" xmlns:xlink="http://www.w3.org/1999/xlink" width="121.74298" height="272.02258" viewBox="0,0,121.74298,272.02258"><g transform="translate(-259.12853,-55.37412)"><g data-paper-data="{&quot;isPaintingLayer&quot;:true}" fill-rule="nonzero" stroke-linecap="butt" stroke-linejoin="miter" stroke-miterlimit="10" stroke-dasharray="" stroke-dashoffset="0" style="mix-blend-mode: normal"><g fill="none" stroke="none" stroke-width="1" font-family="sans-serif" font-weight="normal" font-size="12" text-anchor="start"><g><g/></g><g><g/><g/></g><g><g/><g data-paper-data="{&quot;index&quot;:null}"/></g></g><g stroke="#000000" stroke-width="0"><path d="M320.00002,152.70653c33.61838,0 60.87149,20.76571 60.87149,33.02065c0,12.25493 -0.38345,134.86356 -60.87149,134.51391c-59.90704,-0.34629 -60.87149,-122.25897 -60.87149,-134.5139c0,-12.25493 27.2531,-33.02064 60.87149,-33.02064z" fill="#1a090d"/><path d="M320.00002,152.70653c28.09666,0 55.8775,12.66813 55.8775,28.29507c0,15.62694 -16.56991,146.39511 -55.8775,146.39511c-39.30759,0 -55.8775,-130.76816 -55.8775,-146.39511c0,-15.62694 27.78085,-28.29507 55.8775,-28.29507z" fill="#4a314d"/><path d="M359.1335,169.75916c0,18.66926 -17.60435,76.9717 -39.13346,76.9717c-21.52912,0 -39.13346,-58.30244 -39.13346,-76.9717c0,-18.66926 78.26693,-18.66926 78.26693,0z" fill="#6b6570"/><path d="M320.00002,140.10347c21.62676,0 39.15872,7.64692 39.15872,17.07987c0,8.12708 -3.57131,32.88919 -21.00549,38.89735c-2.80133,0.96538 -18.15323,-9.04229 -18.15323,-9.04229c0,0 -15.86808,9.90666 -18.89535,8.7758c-17.06008,-6.37287 -20.26336,-30.6195 -20.26336,-38.63085c0,-9.43295 17.53196,-17.07987 39.15872,-17.07987z" fill="#a8ba9a"/><path d="M302.50356,230.60987c0,-10.41111 7.83343,-41.84 17.49645,-41.84c9.66302,0 17.49645,31.4289 17.49645,41.84c0,10.41111 -17.49645,18.85099 -17.49645,18.85099c0,0 -17.49645,-8.43989 -17.49645,-18.85099z" fill="#ace894"/><path d="M320.00002,141.78764c17.02532,0 30.82708,6.01991 30.82708,13.44585c0,7.42594 -13.86769,29.84323 -30.82708,29.84323c-16.95939,0 -30.82707,-22.41729 -30.82707,-29.84323c0,-7.42594 13.80175,-13.44585 30.82707,-13.44585z" fill="#000000"/><path d="M327.40254,194.67584c0,0 4.39893,4.95447 -7.68026,4.64747c-10.40888,-0.26456 -7.69706,-4.75933 -7.69706,-4.75933z" fill="#4a314d"/><path d="M320.00002,175.03147c9.66302,0 16.10784,1.75038 16.10784,5.9651c0,4.21473 -6.44482,16.93805 -16.10784,16.93805c-9.66302,0 -16.10784,-12.72333 -16.10784,-16.93805c0,-4.21472 6.44482,-5.9651 16.10784,-5.9651z" fill="#ace894"/></g><path d="M302.35182,230.60987c0,0 6.89511,10.3556 17.64819,10.3556c10.75308,0 17.64819,-10.3556 17.64819,-10.3556c0,0 -0.69414,3.60507 -1.58795,5.28064c-4.18261,7.84086 -16.06024,13.57035 -16.06024,13.57035c0,0 -12.30653,-5.9364 -16.27727,-13.9933c-0.76381,-1.54982 -1.37092,-4.85769 -1.37092,-4.85769z" fill-opacity="0.10588" fill="#000000" stroke="#000000" stroke-width="0"/><g stroke="none"><path d="M360.47416,105.67395c0,25.32045 -2.15568,52.84672 -40.08677,52.84672c-39.14583,0 -40.08679,-27.52628 -40.08679,-52.84672c0,-25.32045 80.17357,-25.32045 80.17357,0z" fill="#1a090d" stroke-width="NaN"/><path d="M355.71685,107.26753c0,22.31552 -1.89987,40.40584 -35.32945,40.40584c-34.50018,0 -35.32948,-18.09032 -35.32948,-40.40584c0,-22.31552 70.65893,-22.31552 70.65893,0z" fill="#000000" stroke-width="NaN"/><path d="M295.3137,143.38105c0,-1.77067 3.52987,-8.33578 3.52987,-8.33578c0,0 3.52987,6.56512 3.52987,8.33578c0,1.77067 -1.58038,3.20607 -3.52987,3.20607c-1.94949,0 -3.52987,-1.43541 -3.52987,-3.20607z" fill="#ace894" stroke-width="0.5"/><path d="M337.67204,143.38105c0,-1.77067 3.52987,-8.33578 3.52987,-8.33578c0,0 3.52985,6.56512 3.52985,8.33578c0,1.77067 -1.58037,3.20607 -3.52985,3.20607c-1.94949,0 -3.52987,-1.43541 -3.52987,-3.20607z" fill="#ace894" stroke-width="0.5"/></g><g stroke="none"><path d="M362.97417,101.89576c0,12.84198 -0.43059,24.62962 -4.20366,33.86273c-4.9284,12.06032 -71.9326,12.44355 -76.81153,0.90327c-3.95785,-9.36163 -4.15837,-21.50138 -4.15837,-34.76601c0,-29.61621 85.17357,-29.61621 85.17357,0z" fill="#1a090d" stroke-width="NaN"/><path d="M315.1309,144.54357c-13.2013,8.78467 -50.16021,-5.56651 -50.16021,-5.56651c0,0 7.57537,-5.43078 17.07345,-14.25c0.13096,-0.1216 5.01013,-1.96181 7.83047,-1.04569c10.91465,3.54536 32.925,15.75914 25.25629,20.8622z" fill="#4a314d" stroke-width="NaN"/><path d="M325.64394,144.54364c-6.61803,-4.40389 11.39514,-15.78601 23.5921,-18.84253c4.16976,-1.04493 6.55374,-1.69168 7.93144,-1.68423c1.96569,0.01064 1.88288,1.00782 2.01569,1.13219c9.28507,8.6954 16.62099,13.82807 16.62099,13.82807c0,0 -36.95892,14.35116 -50.16022,5.5665z" data-paper-data="{&quot;index&quot;:null}" fill="#4a314d" stroke-width="NaN"/><path d="M320.25266,125.10119c6.82055,8.94784 5.24364,19.64274 -5.12176,26.5403c-13.2013,8.78467 -46.2887,-5.56651 -46.2887,-5.56651c0,0 8.70521,-8.26286 18.97967,-17.89837c8.61797,-8.08203 30.56475,-5.52348 32.4308,-3.07542z" fill="#4a314d" stroke-width="NaN"/><path d="M325.64391,151.64135c-10.58278,-7.0422 -12.00459,-18.0427 -4.68158,-27.10088c1.81195,-2.24128 23.18737,-4.56402 31.74359,3.40516c10.38155,9.66927 19.22667,18.12922 19.22667,18.12922c0,0 -33.08738,14.35117 -46.28868,5.5665z" data-paper-data="{&quot;index&quot;:null}" fill="#4a314d" stroke-width="NaN"/><g fill="#ace894" stroke-width="0"><path d="M332.64637,135.89645c0,1.32106 -5.48855,8.07301 -12.259,8.07301c-6.77047,0 -12.25899,-6.75193 -12.25899,-8.07301c0,-1.32106 24.51799,-1.32106 24.51799,0z"/><path d="M326.96539,136.61557c0,2.27982 -2.94507,13.93194 -6.57799,13.93194c-3.63292,0 -6.57799,-11.65212 -6.57799,-13.93194c0,-2.27982 13.15599,-2.27982 13.15599,0z"/></g></g><g stroke="none"><g><path d="M310.91015,103.18025c-9.64983,14.50142 -24.59394,15.55539 -33.37861,2.35409c-8.78467,-13.2013 1.56651,-50.16022 1.56651,-50.16022c0,0 41.46193,33.30471 31.8121,47.80613z" fill="#1a090d" stroke-width="NaN"/><path d="M277.53156,105.53437c-8.78467,-13.2013 1.56651,-50.16022 1.56651,-50.16022c0,0 7.21816,63.36152 -1.56651,50.16022z" fill="#4a314d" stroke-width="NaN"/></g><g><path d="M361.67672,55.37414c0,0 10.35118,36.95892 1.56651,50.16022c-8.78467,13.2013 -23.72879,12.14733 -33.3786,-2.35409c-9.64981,-14.50142 31.8121,-47.80613 31.8121,-47.80613z" data-paper-data="{&quot;index&quot;:null}" fill="#1a090d" stroke-width="NaN"/><path d="M361.67672,55.37414c0,0 10.35118,36.95892 1.56651,50.16022c-8.78467,13.2013 -1.5665,-50.16022 -1.5665,-50.16022z" data-paper-data="{&quot;index&quot;:null}" fill="#4a314d" stroke-width="NaN"/></g></g><g fill="#ace894" stroke="none" stroke-width="0"><g><path d="M316.19257,125.18704c-1.00386,5.55076 -32.85753,-1.27565 -32.85753,-1.27565c0,0 33.8614,-4.27511 32.85754,1.27565z"/></g><g data-paper-data="{&quot;index&quot;:null}"><path d="M357.43972,123.91143c0,0 -31.85367,6.82641 -32.85753,1.27565c-1.00386,-5.55076 32.85753,-1.27565 32.85753,-1.27565z"/></g></g><path d="M316.19257,125.18703c-1.00386,5.55076 -34.5242,-7.27565 -34.5242,-7.27565c0,0 35.52807,1.72489 34.52421,7.27565z" fill="#ace894" stroke="none" stroke-width="0"/><path d="M359.10638,117.91141c0,0 -33.52034,12.82641 -34.5242,7.27565c-1.00386,-5.55076 34.5242,-7.27565 34.5242,-7.27565z" fill="#ace894" stroke="none" stroke-width="0"/></g></g></svg>