<svg version="1.1" xmlns="http://www.w3.org/2000/svg" xmlns:xlink="http://www.w3.org/1999/xlink" width="664.13378" height="222.47237" viewBox="0,0,664.13378,222.47237"><defs><linearGradient x1="320.00005" y1="53.79887" x2="320.00005" y2="276.27121" gradientUnits="userSpaceOnUse" id="color-1"><stop offset="0" stop-color="#0d0d0d"/><stop offset="1" stop-color="#000000"/></linearGradient><linearGradient x1="224.36948" y1="57.56405" x2="224.36948" y2="195.22319" gradientUnits="userSpaceOnUse" id="color-2"><stop offset="0" stop-color="#191919"/><stop offset="1" stop-color="#0d0d0d"/></linearGradient><linearGradient x1="224.36947" y1="57.56402" x2="224.36947" y2="195.22319" gradientUnits="userSpaceOnUse" id="color-3"><stop offset="0" stop-color="#191919"/><stop offset="1" stop-color="#0d0d0d"/></linearGradient><linearGradient x1="224.36947" y1="123.91772" x2="224.36947" y2="128.86947" gradientUnits="userSpaceOnUse" id="color-4"><stop offset="0" stop-color="#191919"/><stop offset="1" stop-color="#0d0d0d"/></linearGradient><linearGradient x1="415.63063" y1="57.56402" x2="415.63063" y2="195.22319" gradientUnits="userSpaceOnUse" id="color-5"><stop offset="0" stop-color="#191919"/><stop offset="1" stop-color="#0d0d0d"/></linearGradient><linearGradient x1="415.63063" y1="57.56402" x2="415.63063" y2="195.22319" gradientUnits="userSpaceOnUse" id="color-6"><stop offset="0" stop-color="#191919"/><stop offset="1" stop-color="#0d0d0d"/></linearGradient><linearGradient x1="415.63063" y1="123.91772" x2="415.63063" y2="128.86947" gradientUnits="userSpaceOnUse" id="color-7"><stop offset="0" stop-color="#191919"/><stop offset="1" stop-color="#0d0d0d"/></linearGradient><linearGradient x1="68.03858" y1="61.95693" x2="68.03858" y2="208.98313" gradientUnits="userSpaceOnUse" id="color-8"><stop offset="0" stop-color="#191919"/><stop offset="1" stop-color="#0d0d0d"/></linearGradient><linearGradient x1="68.03857" y1="66.60152" x2="68.03857" y2="204.33849" gradientUnits="userSpaceOnUse" id="color-9"><stop offset="0" stop-color="#191919"/><stop offset="1" stop-color="#0d0d0d"/></linearGradient><linearGradient x1="68.03857" y1="128.05516" x2="68.03857" y2="142.88484" gradientUnits="userSpaceOnUse" id="color-10"><stop offset="0" stop-color="#191919"/><stop offset="1" stop-color="#0d0d0d"/></linearGradient><linearGradient x1="571.96151" y1="61.95693" x2="571.96151" y2="208.98313" gradientUnits="userSpaceOnUse" id="color-11"><stop offset="0" stop-color="#191919"/><stop offset="1" stop-color="#0d0d0d"/></linearGradient><linearGradient x1="571.96152" y1="66.60152" x2="571.96152" y2="204.33849" gradientUnits="userSpaceOnUse" id="color-12"><stop offset="0" stop-color="#191919"/><stop offset="1" stop-color="#0d0d0d"/></linearGradient><linearGradient x1="571.96152" y1="128.05516" x2="571.96152" y2="142.88484" gradientUnits="userSpaceOnUse" id="color-13"><stop offset="0" stop-color="#191919"/><stop offset="1" stop-color="#0d0d0d"/></linearGradient></defs><g transform="translate(12.0669,-53.79886)"><g data-paper-data="{&quot;isPaintingLayer&quot;:true}" fill-rule="nonzero" stroke="none" stroke-linecap="butt" stroke-linejoin="miter" stroke-miterlimit="10" stroke-dasharray="" stroke-dashoffset="0" style="mix-blend-mode: normal"><path d="M652.06688,53.79887v222.47237h-664.13378v-222.47237z" data-paper-data="{&quot;index&quot;:null}" fill="url(#color-1)" stroke-width="NaN"/><g stroke-width="0"><path d="M190.81581,195.22319v-137.65915h67.10735v137.65915z" fill="url(#color-2)"/><path d="M194.05345,188.90751v-125.02781h60.63207v125.02781z" fill="#000000"/><path d="M222.30916,195.22319v-137.65915h4.12062v137.65915z" fill="url(#color-3)"/><path d="M190.8158,128.86947v-4.95177h67.10735v4.95177z" fill="url(#color-4)"/></g><g stroke-width="0"><path d="M382.07696,195.22319v-137.65915h67.10735v137.65915z" fill="url(#color-5)"/><path d="M385.3146,188.90751v-125.02779h60.63207v125.02779z" fill="#000000"/><path d="M413.57032,195.22319v-137.65915h4.12062v137.65915z" fill="url(#color-6)"/><path d="M382.07694,128.86947v-4.95177h67.10735v4.95177z" fill="url(#color-7)"/></g><g stroke-width="0"><path d="M42.67969,208.98313l-6.09602,-137.12922l56.81381,-9.89697l6.09601,137.12923z" fill="url(#color-8)"/><path d="M45.14102,202.21427l-5.53666,-124.54649l51.33177,-8.942l5.53666,124.54649z" fill="#000000"/><path d="M69.34228,204.33849l-6.09602,-137.12923l3.48857,-0.60771l6.09602,137.12923z" fill="url(#color-9)"/><path d="M39.74131,142.88484l-0.21928,-4.9327l56.81381,-9.89697l0.21928,4.93271z" fill="url(#color-10)"/></g><g data-paper-data="{&quot;index&quot;:null}" stroke-width="0"><path d="M540.50661,199.08617l6.09602,-137.12923l56.81381,9.89697l-6.09602,137.12922z" fill="url(#color-11)"/><path d="M543.52732,193.27227l5.53666,-124.54649l51.33176,8.942l-5.53666,124.54649z" fill="#000000"/><path d="M567.16919,203.73079l6.09602,-137.12923l3.48857,0.60771l-6.09601,137.12923z" fill="url(#color-12)"/><path d="M543.44494,132.98789l0.21928,-4.93271l56.81381,9.89697l-0.21928,4.9327z" fill="url(#color-13)"/></g></g></g></svg>