<svg version="1.1" xmlns="http://www.w3.org/2000/svg" xmlns:xlink="http://www.w3.org/1999/xlink" width="84.0188" height="76.85272" viewBox="0,0,84.0188,76.85272"><g transform="translate(-278.09459,-77.97612)"><g data-paper-data="{&quot;isPaintingLayer&quot;:true}" fill-rule="nonzero" stroke-linejoin="miter" stroke-miterlimit="10" stroke-dasharray="" stroke-dashoffset="0" style="mix-blend-mode: normal"><g><path d="M362.11339,101.04692c0,11.73738 -3.75823,22.51313 -7.95517,30.96184c-5.50237,11.07662 -5.71375,22.81983 -22.05424,22.82008c-15.00716,0.00023 -16.55122,-11.74291 -22.05358,-22.81879c-4.19732,-8.44889 -7.95581,-19.22515 -7.95581,-30.96313c0,-11.81243 1.34789,-17.90245 5.59325,-21.0139c5.50354,-4.03356 15.0598,-0.22477 24.41614,-0.22477c8.62707,0 17.60389,-3.66318 23.07814,-0.63001c5.04248,2.79394 6.93127,8.86268 6.93127,21.86869z" fill="#4f0147" stroke="none" stroke-width="0" stroke-linecap="butt"/><path d="M313.59355,89.36347c3.64914,-2.00181 9.20387,-2.74548 9.20387,-2.74548c0,0 -8.78174,4.54356 -11.1084,6.26701c-3.04928,2.25873 -4.9274,4.60103 -4.9274,4.60103l0.39006,-1.16696c2.34762,-3.84614 2.79273,-4.95379 6.44187,-6.9556z" data-paper-data="{&quot;index&quot;:null}" fill-opacity="0.10588" fill="#000000" stroke="none" stroke-width="0.5" stroke-linecap="butt"/><path d="M331.91667,131.82037c-4.93163,0 -8.05652,-5.83266 -8.65819,-8.1c-0.57013,-2.14852 1.28555,-2.72869 2.77301,-7.99956c1.88554,-6.68148 4.09552,-17.75555 4.42269,-19.10949c0.01462,-0.06052 3.25965,-0.16527 3.27632,-0.0963c0.30215,1.25039 2.51913,12.4355 4.39989,19.17858c1.461,5.23812 3.64907,5.46282 2.7191,7.72676c-0.92997,2.26394 -4.00119,8.40001 -8.93282,8.40001z" fill="#470140" stroke="none" stroke-width="0" stroke-linecap="butt"/><path d="M332.07355,135.47291c9.12731,0.10812 13.56948,-2.55907 13.56948,-2.55907c0,0 4.04817,14.92695 -13.41873,14.91839c-17.15885,-0.00841 -13.66246,-14.91839 -13.66246,-14.91839c0,0 4.38666,2.45099 13.51171,2.55907z" data-paper-data="{&quot;index&quot;:null}" fill-opacity="0.10588" fill="#000000" stroke="#000000" stroke-width="0" stroke-linecap="round"/><path d="M356.99545,96.31907l0.39006,1.16696c0,0 -1.87812,-2.3423 -4.9274,-4.60103c-2.32666,-1.72345 -11.1084,-6.26701 -11.1084,-6.26701c0,0 5.55473,0.74367 9.20387,2.74548c3.64914,2.00181 4.09425,3.10946 6.44187,6.9556z" data-paper-data="{&quot;index&quot;:null}" fill="#470140" stroke="none" stroke-width="0.5" stroke-linecap="butt"/><path d="M319.79021,133.62894c0,0 2.06941,2.21024 12.27339,1.96385c9.95691,-0.24042 12.33644,-1.96385 12.33644,-1.96385c0,0 3.22483,11.80352 -12.17194,11.96839c-14.88977,0.15943 -12.43789,-11.96839 -12.43789,-11.96839z" data-paper-data="{&quot;index&quot;:null}" fill="#11001c" stroke="#000000" stroke-width="0" stroke-linecap="round"/><path d="M305.99116,111.20548c-1.42276,-7.87821 11.16121,-20.91438 18.93609,-15.5309c7.77488,5.38348 2.86941,19.03348 2.86941,19.03348c0,0 -4.84222,-4.27579 -9.96494,-5.25944c-5.56822,-1.06919 -11.46784,3.82068 -11.84056,1.75686z" data-paper-data="{&quot;index&quot;:null}" fill="#470140" stroke="none" stroke-width="0" stroke-linecap="butt"/><path d="M332.08333,128.14473c-2.76608,0.04337 -5.29447,-3.96667 -5.29447,-3.96667c0,0 1.08803,-0.96246 1.74311,-7.91897c0.46952,-4.98594 0.26583,-19.41967 1.39623,-21.59419c0.48676,-0.93638 3.88157,-0.92543 4.37161,0.03344c1.15094,2.25205 1.00048,16.40418 1.49469,21.46259c0.65772,6.73199 1.62459,7.85046 1.62459,7.85046c0,0 -2.56969,4.08997 -5.33577,4.13334z" fill="#4f0147" stroke="none" stroke-width="0" stroke-linecap="butt"/><path d="M321.84625,98.42146c9.30437,1.69097 4.13868,14.67639 3.94708,12.91747c-1.23577,-13.08773 -18.49195,-2.12762 -18.49195,-2.12762c0,0 5.2405,-12.48082 14.54487,-10.78985z" data-paper-data="{&quot;index&quot;:null}" fill="#11001c" stroke="none" stroke-width="0" stroke-linecap="butt"/><path d="M346.37189,109.44863c-5.12273,0.98364 -9.96494,5.25943 -9.96494,5.25943c0,0 -4.90547,-13.65 2.86941,-19.03348c7.77488,-5.38348 20.35885,7.65269 18.93609,15.5309c-0.37272,2.06382 -6.27234,-2.82604 -11.84056,-1.75686z" data-paper-data="{&quot;index&quot;:null}" fill="#470140" stroke="none" stroke-width="0" stroke-linecap="butt"/><path d="M334.45053,86.72939c0.73965,-3.08126 6.78601,-1.89254 6.78601,-1.89254c0,0 -2.8418,0.95117 -4.06089,1.6247c-0.99867,0.55175 -2.72514,2.12447 -2.72514,2.12447z" data-paper-data="{&quot;index&quot;:null}" fill="#470140" stroke="none" stroke-width="0.5" stroke-linecap="butt"/><path d="M346.95485,131.39456c-1.43989,-2.20954 -1.61553,-3.43215 -2.54186,-7.67742l-0.15391,-1.28805c0,0 0.74108,2.58536 1.94427,5.0785c0.91806,1.9023 4.38319,6.91738 4.38319,6.91738c0,0 -2.19181,-0.82085 -3.6317,-3.0304z" data-paper-data="{&quot;index&quot;:null}" fill="#470140" stroke="none" stroke-width="0.5" stroke-linecap="butt"/><path d="M317.67725,128.1959c1.25462,-2.6803 2.27165,-5.76685 2.27165,-5.76685l-0.15391,1.28808c-0.92634,4.24526 -1.10198,5.46787 -2.54187,7.67741c-1.43989,2.20954 -3.63169,3.03041 -3.63169,3.03041c0,0 3.28605,-4.58456 4.05582,-6.22906z" data-paper-data="{&quot;index&quot;:null}" fill-opacity="0.10588" fill="#000000" stroke="none" stroke-width="0.5" stroke-linecap="butt"/><path d="M338.28979,111.33894c-0.1916,1.75892 -5.35728,-11.2265 3.94709,-12.91748c9.30437,-1.69097 14.54487,10.78986 14.54487,10.78986c0,0 -17.25618,-10.96011 -18.49195,2.12762z" data-paper-data="{&quot;index&quot;:null}" fill="#11001c" stroke="none" stroke-width="0" stroke-linecap="butt"/><path d="M329.69662,88.58603c0,0 -1.72647,-1.57273 -2.72514,-2.12448c-1.21909,-0.67353 -4.06089,-1.6247 -4.06089,-1.6247c0,0 6.04636,-1.18873 6.78601,1.89254z" data-paper-data="{&quot;index&quot;:null}" fill-opacity="0.10588" fill="#000000" stroke="none" stroke-width="0.5" stroke-linecap="butt"/></g><g><path d="M338.11339,101.04693c0,11.73738 -3.75823,22.51313 -7.95517,30.96184c-5.50237,11.07662 -5.71375,22.81983 -22.05424,22.82008c-15.00716,0.00023 -16.55122,-11.74291 -22.05358,-22.81879c-4.19732,-8.44889 -7.95581,-19.22515 -7.95581,-30.96313c0,-11.81243 1.34789,-17.90245 5.59325,-21.0139c5.50354,-4.03356 15.0598,-0.22477 24.41614,-0.22477c8.62707,0 17.60389,-3.66318 23.07814,-0.63001c5.04248,2.79394 6.93127,8.86268 6.93127,21.86869z" fill="#35012c" stroke="none" stroke-width="0" stroke-linecap="butt"/><path d="M307.91667,131.82038c-4.93163,0 -8.05652,-5.83266 -8.65819,-8.1c-0.57013,-2.14852 1.28555,-2.72869 2.77301,-7.99956c1.88554,-6.68148 4.09552,-17.75555 4.42269,-19.10949c0.01462,-0.06052 3.25965,-0.16527 3.27632,-0.0963c0.30215,1.25039 2.51913,12.4355 4.39989,19.17858c1.461,5.23812 3.64907,5.46282 2.7191,7.72676c-0.92997,2.26394 -4.00119,8.40001 -8.93282,8.40001z" fill="#290025" stroke="none" stroke-width="0" stroke-linecap="butt"/><path d="M308.2281,132.8305c19.05923,-0.00856 13.00527,13.66839 13.00527,13.66839c0,0 -3.21039,-1.41719 -13.16977,-1.30907c-9.95691,0.10808 -13.10672,1.30907 -13.10672,1.30907c0,0 -5.45188,-13.65998 13.27122,-13.66839z" fill="#290025" stroke="#000000" stroke-width="0" stroke-linecap="round"/><path d="M313.00964,85.39234l-0.28239,-1.27434c0,0 1.35969,2.55782 3.56725,5.02438c1.68441,1.88203 8.04206,6.84366 8.04206,6.84366c0,0 -4.02141,-0.8121 -6.66325,-2.9981c-2.64184,-2.186 -2.96408,-3.39557 -4.66367,-7.5956z" data-paper-data="{&quot;index&quot;:null}" fill="#290025" stroke="none" stroke-width="0.5" stroke-linecap="butt"/><path d="M303.48072,84.11799l-0.28239,1.27436c-1.69959,4.20002 -2.02184,5.40959 -4.66368,7.59559c-2.64184,2.186 -6.66324,2.99811 -6.66324,2.99811c0,0 6.02906,-4.5357 7.4414,-6.16267c2.30192,-2.65174 4.16791,-5.70538 4.16791,-5.70538z" data-paper-data="{&quot;index&quot;:null}" fill="#290025" stroke="none" stroke-width="0.5" stroke-linecap="butt"/><path d="M308.2281,133.63052c15.39677,0.16487 12.17194,11.96839 12.17194,11.96839c0,0 -2.37953,-1.72343 -12.33644,-1.96385c-10.20398,-0.24639 -12.27339,1.96385 -12.27339,1.96385c0,0 -2.45188,-12.12782 12.43789,-11.96839z" fill="#11001c" stroke="#000000" stroke-width="0" stroke-linecap="round"/><path d="M303.79666,92.12292c0,0 4.90547,17.15 -2.86941,22.53348c-7.77488,5.38348 -20.35885,-1.73602 -18.93609,-9.61423c0.71561,-3.96253 6.72776,-2.4583 12.03035,-4.78872c5.23989,-2.30287 9.77515,-8.13053 9.77515,-8.13053z" data-paper-data="{&quot;index&quot;:null}" fill="#290025" stroke="none" stroke-width="0" stroke-linecap="butt"/><path d="M308.08333,128.14474c-2.76608,0.04337 -5.29447,-3.96667 -5.29447,-3.96667c0,0 1.08803,-0.96246 1.74311,-7.91897c0.46952,-4.98594 0.26583,-19.41967 1.39623,-21.59419c0.48676,-0.93638 3.88157,-0.92543 4.37161,0.03344c1.15094,2.25205 1.00048,16.40418 1.49469,21.46259c0.65772,6.73199 1.62459,7.85046 1.62459,7.85046c0,0 -2.56969,4.08997 -5.33577,4.13334z" fill="#35012c" stroke="none" stroke-width="0" stroke-linecap="butt"/><path d="M303.79665,94.32292c0,0 3.70547,11.11666 -4.06941,16.50014c-7.77488,5.38348 -16.06942,-2.44756 -16.06942,-2.44756c0,0 1.9402,-5.82868 3.31942,-4.72042c5.29635,4.25581 16.81941,-9.33216 16.81941,-9.33216z" data-paper-data="{&quot;index&quot;:null}" fill="#11001c" stroke="none" stroke-width="0" stroke-linecap="butt"/><path d="M322.19396,100.25345c5.30259,2.33042 11.31473,0.82619 12.03035,4.78872c1.42276,7.87821 -11.16121,14.99772 -18.93609,9.61423c-7.77488,-5.38348 -2.86941,-22.53348 -2.86941,-22.53348c0,0 4.53526,5.82766 9.77515,8.13052z" data-paper-data="{&quot;index&quot;:null}" fill="#290025" stroke="none" stroke-width="0" stroke-linecap="butt"/><path d="M329.12348,103.65507c1.37923,-1.10825 3.31943,4.72042 3.31943,4.72042c0,0 -8.29455,7.83104 -16.06943,2.44756c-7.77488,-5.38348 -4.06941,-16.50014 -4.06941,-16.50014c0,0 11.52306,13.58797 16.81941,9.33216z" data-paper-data="{&quot;index&quot;:null}" fill="#11001c" stroke="none" stroke-width="0" stroke-linecap="butt"/><path d="M308.65051,86.36283c0,0 0.70302,0.60859 1.32396,1.77815c0.47379,0.8924 1.86207,3.24506 1.86207,3.24506c0,0 -1.53114,-0.38508 -2.27423,-1.42161c-0.74309,-1.03654 -0.43373,-1.61008 -0.91179,-3.6016z" data-paper-data="{&quot;index&quot;:null}" fill="#290025" stroke="none" stroke-width="0.5" stroke-linecap="butt"/><path d="M307.55746,86.36284c-0.47806,1.99152 -0.1687,2.56507 -0.9118,3.6016c-0.74309,1.03654 -2.27423,1.42162 -2.27423,1.42162c0,0 1.29585,-2.15069 1.69311,-2.92215c0.64748,-1.25737 1.49292,-2.10107 1.49292,-2.10107z" data-paper-data="{&quot;index&quot;:null}" fill="#290025" stroke="none" stroke-width="0.5" stroke-linecap="butt"/><path d="M326.70484,126.78051c1.43989,-2.80817 3.6317,-3.85141 3.6317,-3.85141c0,0 -3.46513,6.3738 -4.38319,8.79148c-1.20319,3.16859 -1.94427,6.45439 -1.94427,6.45439l0.15391,-1.63702c0.92633,-5.39542 1.10197,-6.94926 2.54186,-9.75743z" data-paper-data="{&quot;index&quot;:null}" fill="#290025" stroke="none" stroke-width="0.5" stroke-linecap="butt"/><path d="M289.92725,130.84572c-0.76977,-2.09004 -4.05582,-7.91667 -4.05582,-7.91667c0,0 2.1918,1.04326 3.63169,3.85142c1.43989,2.80817 1.61553,4.36201 2.54187,9.75742l0.15391,1.63705c0,0 -1.01703,-3.92277 -2.27165,-7.32923z" data-paper-data="{&quot;index&quot;:null}" fill="#290025" stroke="none" stroke-width="0.5" stroke-linecap="butt"/></g></g></g></svg>