<svg version="1.1" xmlns="http://www.w3.org/2000/svg" xmlns:xlink="http://www.w3.org/1999/xlink" width="34.17311" height="34.17311" viewBox="0,0,34.17311,34.17311"><g transform="translate(-302.91346,-162.91346)"><g data-paper-data="{&quot;isPaintingLayer&quot;:true}" stroke-linecap="round" stroke-miterlimit="10" stroke-dasharray="" stroke-dashoffset="0" style="mix-blend-mode: normal"><path d="M309.98312,162.91346h20.03379c3.9166,0 7.06966,3.15307 7.06966,7.06966v20.03379c0,3.91659 -3.15306,7.06966 -7.06966,7.06966h-20.03379c-3.91659,0 -7.06966,-3.15307 -7.06966,-7.06966v-20.03379c0,-3.91659 3.15307,-7.06966 7.06966,-7.06966z" fill-opacity="0.35294" fill="#bc47ff" fill-rule="evenodd" stroke="none" stroke-width="4.43922" stroke-linejoin="round"/><g><path d="M312.39746,166.81445l1.4015,2.98771l1.65356,-1.06982l2.77814,6.29327" fill="none" fill-rule="nonzero" stroke="#bc47ff" stroke-width="1" stroke-linejoin="miter"/><path d="M322.52148,175.36133l3.72312,-5.78461l1.46704,1.31397l1.84912,-2.73338" data-paper-data="{&quot;index&quot;:null}" fill="none" fill-rule="nonzero" stroke="#bc47ff" stroke-width="1" stroke-linejoin="miter"/><g fill-rule="evenodd" stroke="none" stroke-width="4.43922" stroke-linejoin="round"><path d="M309.03827,191.73308l1.27924,-16.3501l19.96525,1.56209l-1.27924,16.3501z" fill="#bc47ff"/><path d="M310.309,187.64006l0.62719,-8.01623c0.12262,-1.56716 1.88915,-2.69833 3.96083,-2.53624l10.59685,0.8291c2.07167,0.16209 3.64077,1.55423 3.51816,3.1214l-0.62719,8.01623c-0.12262,1.56716 -1.88914,2.69833 -3.96081,2.53624l-10.59685,-0.8291c-2.07168,-0.16209 -3.64078,-1.55424 -3.51817,-3.1214z" fill="#000000"/><path d="M329.03631,175.04093l1.24192,1.96192l-19.96525,-1.56209l1.53194,-1.7449z" fill="#000000"/></g></g></g></g></svg>