<svg version="1.1" xmlns="http://www.w3.org/2000/svg" xmlns:xlink="http://www.w3.org/1999/xlink" width="93.36936" height="249.99816" viewBox="0,0,93.36936,249.99816"><g transform="translate(-272.50442,-55.50172)"><g data-paper-data="{&quot;isPaintingLayer&quot;:true}" fill-rule="nonzero" stroke-linejoin="miter" stroke-miterlimit="10" stroke-dasharray="" stroke-dashoffset="0" style="mix-blend-mode: normal"><g stroke-linecap="butt"><path d="M280.0304,304.39162c0,0 0.36464,-94.38387 0.20665,-118.01201c-0.05451,-8.15261 8.18688,-36.76129 40.20201,-36.9211c31.60235,-0.15775 39.85672,29.48704 39.84884,36.89673c-0.05641,34.0601 1.15429,117.98648 1.15429,117.98648l-10.99667,0.09614l-0.15882,-114.84311c0,0 0.07549,-3.0993 -2.81625,-3.15415c-3.43441,-0.06514 -2.94538,3.11562 -2.94538,3.11562l0.20548,114.86995l-48.21366,0.07222l-0.30539,-115.23309c0,0 0.27949,-2.919 -2.8856,-2.93443c-3.11083,-0.01515 -2.81569,2.90899 -2.81569,2.90899l0.35311,115.0668z" fill="#000000" stroke="#000000" stroke-width="2"/><path d="M277.23705,193.87961c-0.05451,-8.15261 4.18688,-44.26129 43.20201,-44.4211c39.01513,-0.15981 42.85672,36.98704 42.84884,44.39673c-0.00772,4.65759 -13.45986,12.13276 -13.45986,12.13276l-0.59749,98.43818l-57.21366,0.07222l-0.91231,-98.50872c0,0 -13.84412,-8.60969 -13.86752,-12.11006z" fill="#4a314d" stroke="#4a314d" stroke-width="2"/><g stroke="#4a314d" stroke-width="0"><path d="M299.42325,215.95802c0,0 -3.97341,-25.56495 5.59978,-34.67379c9.5732,-9.10884 21.28814,-8.45732 30.17661,0c8.88846,8.45732 5.59978,34.67379 5.59978,34.67379c0,0 -1.15857,7.6039 -21.04902,7.6039c-19.25168,0 -20.32715,-7.6039 -20.32715,-7.6039z" fill="#000000"/><path d="M298.92325,215.34456c0,0 15.08818,-26.68961 20.82715,-26.68961c5.8082,0 21.54902,26.68961 21.54902,26.68961c0,0 -1.65856,9.60696 -21.54902,9.60696c-19.25167,0 -20.82715,-9.60696 -20.82715,-9.60696z" fill="#6b6570"/><path d="M311.6156,223.69076c-8.09262,-5.23366 7.93227,-31.75894 7.93227,-31.75894c0,0 16.93345,26.27632 8.31811,31.68209c-4.60873,2.89178 -11.84484,2.92601 -16.25038,0.07686z" data-paper-data="{&quot;index&quot;:null}" fill="#a8ba9a"/><path d="M319.78626,197.81373c0,0 14.86663,26.28695 0,26.28695c-14.38918,0 0,-26.28695 0,-26.28695z" data-paper-data="{&quot;index&quot;:null}" fill="#ace894"/></g><path d="M319.93906,242.45851c25.57025,-0.10474 30.88898,-36.47052 30.88898,-36.47052l-0.59749,98.43818l-59.21366,0.07222l-0.91231,-98.50872c0,0 5.81543,36.56723 29.83448,36.46884z" fill-opacity="0.25098" fill="#000000" stroke="#4a314d" stroke-width="0"/><path d="M319.93906,265.95851c25.57025,-0.10474 30.88898,-39.47052 30.88898,-39.47052l-0.59749,77.93818l-59.21366,0.07222l-0.91231,-78.00872c0,0 5.81542,39.56723 29.83448,39.46884z" fill-opacity="0.09804" fill="#000000" stroke="#4a314d" stroke-width="0"/></g><path d="" fill="#a8ba9a" stroke="#4a314d" stroke-width="0" stroke-linecap="butt"/><path d="" fill="#a8ba9a" stroke="#4a314d" stroke-width="0" stroke-linecap="butt"/><path d="" fill-opacity="0.10588" fill="#000000" stroke="none" stroke-width="0.60142" stroke-linecap="butt"/><path d="M275.9269,103.88012c0,0 6.16329,-5.92187 6.29161,-6.78761c0.33654,-2.27063 -0.16776,-40.17317 35.96775,-41.57382c44.63633,-0.91362 39.01489,35.34872 41.53088,42.1903c3.44981,9.38084 6.15664,17.40016 6.15664,17.40016c0,0 -2.76715,-2.05351 -4.0797,-3.13397c-1.2242,-1.00773 -3.80143,-3.14585 -3.80143,-3.14585c0,0 3.09111,10.3481 1.31092,20.69498c-1.5623,9.48098 -7.29782,17.22543 -7.29782,17.22543l-1.15522,-2.34735c0,0 -1.02266,2.19794 -2.16005,3.33274c-1.1374,1.13479 -3.43873,2.91273 -3.43873,2.91273l-0.09205,-3.70421c0,0 -7.0601,11.01795 -24.35066,10.87154c-16.30625,-0.25547 -26.07151,-10.6752 -26.07151,-10.6752l-0.1162,2.65484c0,0 -3.89477,-3.29276 -6.18145,-9.70754c-2.72545,-7.64567 -3.23946,-12.24324 -3.23946,-12.24324c0,0 -2.33908,1.89916 -5.71704,2.7744c-4.23278,1.09673 -6.94665,0.34526 -6.94665,0.34526c0,0 3.60795,-2.71717 5.58396,-4.76989c1.76007,-1.8284 2.64658,-3.37722 2.64658,-3.37722c0,0 -2.10758,1.0847 -4.23277,1.61795c-2.21739,0.5564 -4.03008,0.53093 -4.03008,0.53093c0,0 4.97492,-5.03728 7.03074,-10.87429c1.94102,-5.51108 2.09972,-10.95731 2.09972,-10.95731c0,0 -1.36165,0.66163 -3.33013,0.79513c-1.24776,0.08463 -2.37785,-0.0489 -2.37785,-0.0489z" fill="#000000" stroke="none" stroke-width="1.5" stroke-linecap="butt"/><path d="M301.6609,114.83944c0.03999,-2.75843 2.30855,-4.96213 5.06696,-4.92214c2.75843,0.03999 4.96213,2.30855 4.92214,5.06696c-0.03999,2.75843 -2.30854,4.96213 -5.06696,4.92214c-2.75843,-0.03999 -4.96213,-2.30855 -4.92214,-5.06696z" fill="#ace894" stroke-opacity="0.25098" stroke="#ace895" stroke-width="8" stroke-linecap="butt"/><path d="M328.88228,114.80778c0,-2.81845 2.2848,-5.10325 5.10325,-5.10325c2.81845,0 5.10325,2.2848 5.10325,5.10325c0,2.81845 -2.28479,5.10325 -5.10325,5.10325c-2.81845,0 -5.10325,-2.2848 -5.10325,-5.10325z" fill="#ace894" stroke-opacity="0.25098" stroke="#ace895" stroke-width="8" stroke-linecap="butt"/><g><path d="M311.95552,171.18326c-0.40551,-6.20434 4.29537,-11.56269 10.49971,-11.96821c6.20434,-0.40551 11.56269,4.29537 11.96821,10.49971c0.40551,6.20434 -4.29537,11.56269 -10.49971,11.96821c-6.20434,0.40551 -11.56269,-4.29537 -11.96821,-10.49971z" fill="#544f57" stroke="none" stroke-width="0.5" stroke-linecap="butt"/><g><path d="M320.28319,124.58189c4.78418,-0.24087 9.83311,2.23782 13.44649,5.7814c2.52765,2.60552 2.46046,7.2095 3.25122,10.93826c0.82606,3.89732 0.649,7.97272 1.563,11.72259c0.62534,2.67944 1.85947,5.01219 3.01189,7.38354c1.22211,2.5161 4.83125,4.6637 3.97467,7.31809c-1.04688,3.55194 -4.96936,4.99033 -8.09866,6.13013c-4.89256,1.78114 -10.18069,1.91516 -15.31502,2.38031c-3.56808,0.13363 -7.15184,-0.01601 -10.68052,-0.61308c-3.27841,-0.5511 -6.71595,-0.92627 -9.6598,-2.69106c-1.0547,-0.64427 -1.54622,-2.69229 -1.24702,-4.15573c0.57985,-2.36863 2.79932,-3.85189 3.63983,-6.27348c0.91577,-2.63777 1.23996,-5.53358 1.56474,-8.36422c0.37991,-3.22898 0.37995,-6.71647 0.67478,-10.08922c0.35654,-4.04737 -0.95271,-9.00726 1.31038,-12.14107c2.94465,-4.176 7.84308,-7.08813 12.56403,-7.32647z" fill="#a8ba9a" stroke="none" stroke-width="0.60142" stroke-linecap="round"/><path d="M340.36238,159.82185c0,0 -1.90504,4.26234 -17.54065,4.98474c-16.06812,0.74238 -18.06401,-2.99095 -18.06401,-2.99095" fill="none" stroke="#6b6570" stroke-width="1.5" stroke-linecap="round"/><path d="M332.97669,133.86692c0,0 -1.29844,2.90514 -11.95543,3.39751c-10.95179,0.50599 -12.31214,-2.03858 -12.31214,-2.03858" fill="none" stroke="#6b6570" stroke-width="1.5" stroke-linecap="round"/><path d="M345.52058,167.57451c-1.05277,3.46181 -4.97725,4.86962 -8.10814,5.98522c-4.89503,1.74332 -10.1828,1.88282 -15.31736,2.34462c-3.56791,0.13621 -7.15102,-0.00351 -10.6783,-0.57916c-0.52668,-0.08539 -1.05748,-0.16633 -1.58967,-0.24919c-0.60612,-0.54848 -4.52254,-0.1178 -6.69356,-0.96706c-1.98184,-0.77526 -2.24994,-2.85628 -2.43601,-2.90868c-0.26892,-0.80162 -0.33931,-1.74844 -0.17479,-2.52626c0.39121,-1.54682 1.5179,-2.7076 2.47283,-4.01538c2.75008,3.54354 6.76585,5.6664 11.0961,5.38338c1.18645,-0.07755 2.32597,-0.3311 3.40182,-0.738c2.38835,1.80146 5.24964,2.76973 8.26324,2.57277c3.30178,-0.2158 6.2402,-1.79467 8.45403,-4.24867c0.56447,0.04559 1.1368,0.05068 1.71473,0.0129c3.16319,-0.20674 5.99289,-1.66453 8.17147,-3.94433c1.05607,1.23724 1.88715,2.48489 1.42359,3.87783z" fill-opacity="0.10588" fill="#000000" stroke="none" stroke-width="0.60142" stroke-linecap="butt"/><path d="M313.8325,128.22477c-0.13178,-2.0163 2.61573,-5.17062 6.24378,-5.40775c3.62805,-0.23713 6.76277,2.53274 6.89455,4.54903c0.13178,2.0163 -2.78927,2.51547 -6.41732,2.7526c-3.62805,0.23713 -6.58923,0.1224 -6.72101,-1.89389z" fill="#6b6570" stroke="none" stroke-width="0.5" stroke-linecap="butt"/></g></g></g></g></svg>