<svg version="1.1" xmlns="http://www.w3.org/2000/svg" xmlns:xlink="http://www.w3.org/1999/xlink" width="93.36936" height="249.99816" viewBox="0,0,93.36936,249.99816"><g transform="translate(-272.50442,-55.50172)"><g data-paper-data="{&quot;isPaintingLayer&quot;:true}" fill-rule="nonzero" stroke-linejoin="miter" stroke-miterlimit="10" stroke-dasharray="" stroke-dashoffset="0" style="mix-blend-mode: normal"><g stroke-linecap="butt"><path d="M280.0304,304.39162c0,0 0.36464,-94.38387 0.20665,-118.01201c-0.05451,-8.15261 8.18688,-36.76129 40.20201,-36.9211c31.60235,-0.15775 39.85672,29.48704 39.84884,36.89673c-0.05641,34.0601 1.15429,117.98648 1.15429,117.98648l-10.99667,0.09614l-0.15882,-114.84311c0,0 0.07549,-3.0993 -2.81625,-3.15415c-3.43441,-0.06514 -2.94538,3.11562 -2.94538,3.11562l0.20548,114.86995l-48.21366,0.07222l-0.30539,-115.23309c0,0 0.27949,-2.919 -2.8856,-2.93443c-3.11083,-0.01515 -2.81569,2.90899 -2.81569,2.90899l0.35311,115.0668z" fill="#000000" stroke="#000000" stroke-width="2"/><path d="M277.23705,193.87961c-0.05451,-8.15261 4.18688,-44.26129 43.20201,-44.4211c39.01513,-0.15981 42.85672,36.98704 42.84884,44.39673c-0.00772,4.65759 -13.45986,12.13276 -13.45986,12.13276l-0.59749,98.43818l-57.21366,0.07222l-0.91231,-98.50872c0,0 -13.84412,-8.60969 -13.86752,-12.11006z" fill="#4a314d" stroke="#4a314d" stroke-width="2"/><g stroke="#4a314d" stroke-width="0"><path d="M299.42325,215.95802c0,0 -3.97341,-25.56495 5.59978,-34.67379c9.5732,-9.10884 21.28814,-8.45732 30.17661,0c8.88846,8.45732 5.59978,34.67379 5.59978,34.67379c0,0 -1.15857,7.6039 -21.04902,7.6039c-19.25168,0 -20.32715,-7.6039 -20.32715,-7.6039z" fill="#000000"/><path d="M298.92325,215.34456c0,0 15.08818,-26.68961 20.82715,-26.68961c5.8082,0 21.54902,26.68961 21.54902,26.68961c0,0 -1.65856,9.60696 -21.54902,9.60696c-19.25167,0 -20.82715,-9.60696 -20.82715,-9.60696z" fill="#6b6570"/><path d="M311.6156,223.69076c-8.09262,-5.23366 7.93227,-31.75894 7.93227,-31.75894c0,0 16.93345,26.27632 8.31811,31.68209c-4.60873,2.89178 -11.84484,2.92601 -16.25038,0.07686z" data-paper-data="{&quot;index&quot;:null}" fill="#a8ba9a"/><path d="M319.78626,197.81373c0,0 14.86663,26.28695 0,26.28695c-14.38918,0 0,-26.28695 0,-26.28695z" data-paper-data="{&quot;index&quot;:null}" fill="#ace894"/></g><path d="M319.93906,242.45851c25.57025,-0.10474 30.88898,-36.47052 30.88898,-36.47052l-0.59749,98.43818l-59.21366,0.07222l-0.91231,-98.50872c0,0 5.81543,36.56723 29.83448,36.46884z" fill-opacity="0.25098" fill="#000000" stroke="#4a314d" stroke-width="0"/><path d="M319.93906,265.95851c25.57025,-0.10474 30.88898,-39.47052 30.88898,-39.47052l-0.59749,77.93818l-59.21366,0.07222l-0.91231,-78.00872c0,0 5.81542,39.56723 29.83448,39.46884z" fill-opacity="0.09804" fill="#000000" stroke="#4a314d" stroke-width="0"/></g><path d="" fill="#a8ba9a" stroke="#4a314d" stroke-width="0" stroke-linecap="butt"/><path d="" fill="#a8ba9a" stroke="#4a314d" stroke-width="0" stroke-linecap="butt"/><path d="" fill-opacity="0.10588" fill="#000000" stroke="none" stroke-width="0.60142" stroke-linecap="butt"/><g><path d="M275.9269,103.88012c0,0 6.16329,-5.92187 6.29161,-6.78761c0.33654,-2.27063 -0.16776,-40.17317 35.96775,-41.57382c44.63633,-0.91362 39.01489,35.34872 41.53088,42.1903c3.44981,9.38084 6.15664,17.40016 6.15664,17.40016c0,0 -2.76715,-2.05351 -4.0797,-3.13397c-1.2242,-1.00773 -3.80143,-3.14585 -3.80143,-3.14585c0,0 3.09111,10.3481 1.31092,20.69498c-1.5623,9.48098 -7.29782,17.22543 -7.29782,17.22543l-1.15522,-2.34735c0,0 -1.02266,2.19794 -2.16005,3.33274c-1.1374,1.13479 -3.43873,2.91273 -3.43873,2.91273l-0.09205,-3.70421c0,0 -7.0601,11.01795 -24.35066,10.87154c-16.30625,-0.25547 -26.07151,-10.6752 -26.07151,-10.6752l-0.1162,2.65484c0,0 -3.89477,-3.29276 -6.18145,-9.70754c-2.72545,-7.64567 -3.23946,-12.24324 -3.23946,-12.24324c0,0 -2.33908,1.89916 -5.71704,2.7744c-4.23278,1.09673 -6.94665,0.34526 -6.94665,0.34526c0,0 3.60795,-2.71717 5.58396,-4.76989c1.76007,-1.8284 2.64658,-3.37722 2.64658,-3.37722c0,0 -2.10758,1.0847 -4.23277,1.61795c-2.21739,0.5564 -4.03008,0.53093 -4.03008,0.53093c0,0 4.97492,-5.03728 7.03074,-10.87429c1.94102,-5.51108 2.09972,-10.95731 2.09972,-10.95731c0,0 -1.36165,0.66163 -3.33013,0.79513c-1.24776,0.08463 -2.37785,-0.0489 -2.37785,-0.0489z" fill="#000000" stroke="none" stroke-width="1.5" stroke-linecap="butt"/><path d="M301.6609,114.83944c0.03999,-2.75843 10.02909,-2.61359 9.9891,0.14482c-0.03999,2.75843 -10.02909,2.61359 -9.9891,-0.14482z" fill="#ace894" stroke-opacity="0.25098" stroke="#ace895" stroke-width="8" stroke-linecap="butt"/><path d="M328.88228,114.80778c0,-2.81845 10.2065,-2.81845 10.2065,0c0,2.81845 -10.2065,2.81845 -10.2065,0z" fill="#ace894" stroke-opacity="0.25098" stroke="#ace895" stroke-width="8" stroke-linecap="butt"/><g><path d="M308.74207,170.48784c0,-6.21758 5.04035,-11.25793 11.25793,-11.25793c6.21758,0 11.25793,5.04035 11.25793,11.25793c0,6.21758 -5.04035,11.25793 -11.25793,11.25793c-6.21758,0 -11.25793,-5.04035 -11.25793,-11.25793z" fill="#544f57" stroke="none" stroke-width="0.5" stroke-linecap="butt"/><g><path d="M320.09137,124.52883c4.7897,0.07167 9.66622,2.87437 13.0408,6.64608c2.35234,2.76483 1.98502,7.35462 2.5309,11.12702c0.57012,3.9429 0.12763,7.99807 0.79512,11.79957c0.44925,2.71452 1.52861,5.12279 2.52392,7.56426c1.05541,2.59045 4.5168,4.96887 3.48892,7.56174c-1.27631,3.4761 -5.28425,4.6556 -8.48123,5.58888c-4.99831,1.45825 -10.28392,1.24709 -15.43766,1.37639c-3.5692,-0.09937 -7.13557,-0.48242 -10.61779,-1.30836c-3.23549,-0.76375 -6.64124,-1.36231 -9.46372,-3.31535c-1.01043,-0.71169 -1.36734,-2.7874 -0.97333,-4.22821c0.7331,-2.32577 3.04458,-3.66112 4.04124,-6.02273c1.08586,-2.57243 1.59822,-5.44093 2.10693,-8.24436c0.5897,-3.19733 0.81719,-6.67739 1.33137,-10.02373c0.61975,-4.0155 -0.36322,-9.05022 2.09944,-12.02976c3.21074,-3.97506 8.28867,-6.56151 13.01511,-6.49144z" fill="#a8ba9a" stroke="none" stroke-width="0.60142" stroke-linecap="round"/><path d="M337.82945,161.00333c0,0 -2.17898,4.12902 -17.82841,3.83012c-16.08233,-0.30717 -17.83048,-4.16272 -17.83048,-4.16272" fill="none" stroke="#6b6570" stroke-width="1.5" stroke-linecap="round"/><path d="M332.15227,134.62196c0,0 -1.48515,2.81427 -12.15156,2.61054c-10.96147,-0.20937 -12.15297,-2.83724 -12.15297,-2.83724" fill="none" stroke="#6b6570" stroke-width="1.5" stroke-linecap="round"/><path d="M342.47103,169.0759c-1.27631,3.38578 -5.28425,4.53463 -8.48123,5.44366c-4.99831,1.42035 -10.28392,1.21469 -15.43766,1.34062c-3.5692,-0.09678 -7.13557,-0.46989 -10.61779,-1.27437c-0.51999,-0.11956 -1.04438,-0.23495 -1.57003,-0.35234c-0.56906,-0.58684 -4.50523,-0.41251 -6.61624,-1.40156c-1.92706,-0.90287 -2.05886,-2.99694 -2.24112,-3.06136c-0.21607,-0.81745 -0.22455,-1.76685 -0.00965,-2.53228c0.49126,-1.51801 1.69126,-2.60284 2.72945,-3.84555c2.51311,3.71536 6.38188,6.09561 10.72137,6.09561c1.18898,0 2.34261,-0.17869 3.44271,-0.51456c2.26577,1.95339 5.05782,3.10622 8.07785,3.10622c3.30882,0 6.34396,-1.38386 8.71313,-3.68825c0.56029,0.08231 1.13107,0.12471 1.71024,0.12471c3.16994,0 6.08869,-1.27013 8.41132,-3.40299c0.97313,1.30348 1.72107,2.60268 1.16765,3.96242z" fill-opacity="0.10588" fill="#000000" stroke="none" stroke-width="0.60142" stroke-linecap="butt"/><path d="M313.41682,127.74324c0,-2.0206 2.94739,-4.98901 6.58318,-4.98901c3.63579,0 6.58318,2.96842 6.58318,4.98901c0,2.0206 -2.94739,2.3282 -6.58318,2.3282c-3.63579,0 -6.58318,-0.30761 -6.58318,-2.3282z" fill="#6b6570" stroke="none" stroke-width="0.5" stroke-linecap="butt"/></g></g></g></g></g></svg>