<svg version="1.1" xmlns="http://www.w3.org/2000/svg" xmlns:xlink="http://www.w3.org/1999/xlink" width="744" height="427" viewBox="0,0,744,427"><g transform="translate(52,33.5)"><g data-paper-data="{&quot;isPaintingLayer&quot;:true}" stroke-miterlimit="10" stroke-dasharray="" stroke-dashoffset="0" style="mix-blend-mode: normal"><path d="M-52,393.5v-427h744v427z" fill="#000000" fill-rule="nonzero" stroke="none" stroke-width="0" stroke-linecap="butt" stroke-linejoin="miter"/><text transform="translate(247.29674,348.47364) scale(0.28947,0.28947)" font-size="40" xml:space="preserve" fill="#ffffff" fill-rule="nonzero" stroke="none" stroke-width="1" stroke-linecap="butt" stroke-linejoin="miter" stroke-miterlimit="10" stroke-dasharray="" stroke-dashoffset="0" font-family="Sans Serif" font-weight="normal" text-anchor="start" style="mix-blend-mode: normal"><tspan x="0" dy="0">click anywhere to advance</tspan></text><g fill="#ffffff" fill-rule="nonzero" stroke-linecap="butt" stroke-linejoin="miter" font-family="Sans Serif" font-weight="normal" font-size="40" text-anchor="start"><text transform="translate(147.7379,61.36414) scale(0.57052,0.57052)" font-size="40" xml:space="preserve" fill="#ffffff" fill-rule="nonzero" stroke="#ffffff" stroke-width="3" stroke-linecap="butt" stroke-linejoin="miter" stroke-miterlimit="10" stroke-dasharray="" stroke-dashoffset="0" font-family="Sans Serif" font-weight="normal" text-anchor="start" style="mix-blend-mode: normal"><tspan x="0" dy="0">!!! IMPORTANT - PLEASE READ !!!</tspan></text><text transform="translate(86.61507,91.87005) scale(0.39717,0.39717)" font-size="40" xml:space="preserve" fill="#ffffff" fill-rule="nonzero" stroke="none" stroke-width="1" stroke-linecap="butt" stroke-linejoin="miter" stroke-miterlimit="10" stroke-dasharray="" stroke-dashoffset="0" font-family="Sans Serif" font-weight="normal" text-anchor="start" style="mix-blend-mode: normal"><tspan x="0" dy="0">This mod has a new feature we have decided to call "B-Sides."</tspan><tspan x="0" dy="46.150000000000006px"> Certain icons, when their corresponding character has been</tspan><tspan x="0" dy="46.150000000000006px"> placed down, will have white outlines around them. Click the</tspan><tspan x="0" dy="46.150000000000006px">                  icon to switch to that character's B-Side.</tspan></text></g><g fill="#ffffff" fill-rule="nonzero" stroke="none" stroke-linecap="butt" stroke-linejoin="miter"><path d="M285.75,210.52883v-18h53.5v18z" stroke-width="NaN"/><path d="M353.25,201.52883l-21.5,16.25v-32.5z" stroke-width="0"/></g><g><g><path d="M226.77571,170.44228h36.44861c7.1257,0 12.86224,5.73656 12.86224,12.86224v36.44863c0,7.12568 -5.73654,12.86224 -12.86224,12.86224h-36.44861c-7.12568,0 -12.86226,-5.73656 -12.86226,-12.86224v-36.44863c0,-7.12568 5.73658,-12.86224 12.86226,-12.86224z" fill-opacity="0.09804" fill="#000000" fill-rule="evenodd" stroke="#bfbfbf" stroke-width="2.5" stroke-linecap="round" stroke-linejoin="round"/><g fill-rule="nonzero" stroke="none" stroke-linecap="butt" stroke-linejoin="miter"><g fill="#bfbfbf"><path d="M274.04877,205.50525c0,0 -3.80295,1.57525 -5.74295,3.87543c-1.81808,2.15563 -1.68787,5.01102 -4.29529,5.97823c-2.55421,0.94747 -22.91741,9.43715 -22.91741,9.43715c0,0 -15.51406,-15.77369 -17.41669,-17.55162c-2.17944,-2.03653 -1.00258,-4.92426 -1.83457,-7.74117c-0.77878,-2.63665 -3.63526,-5.27545 -3.63526,-5.27545c0,0 13.77197,4.24065 27.77646,7.08496c13.91004,2.82515 28.06568,4.1924 28.06568,4.1924z" stroke-width="NaN"/><path d="M238.62816,194.22876c0.92569,-4.58376 4.94585,-5.34005 9.5296,-4.41436c4.58378,0.92569 7.99533,3.18284 7.06962,7.7666c-0.92569,4.58376 -5.83808,9.75833 -10.42186,8.83262c-4.58378,-0.92569 -7.10306,-7.60111 -6.17736,-12.18486z" stroke-width="0"/><path d="M238.6108,193.68206c0.58833,-2.91317 2.33646,-14.41574 2.33646,-14.41574l7.1571,10.4124l10.79216,-6.78755c0,0 -2.82481,11.14142 -3.40757,14.02697c-0.58833,2.91317 -17.46089,-0.35057 -16.87816,-3.23613z" stroke-width="0"/></g><path d="M274.04877,205.50525c0,0 -3.80295,1.57525 -5.74295,3.87543c-1.81808,2.15565 -1.68784,5.01102 -4.29529,5.97823c-2.55421,0.94747 -22.91739,9.43715 -22.91739,9.43715c0,0 -3.97406,-4.04058 -8.14614,-8.26218c4.98733,-1.78242 15.32363,-7.91935 11.55476,-11.43423c-2.14046,-1.99618 0.13764,-8.11934 8.52324,-2.47243c11.27037,1.93594 21.02379,2.87799 21.02379,2.87799z" fill="#808080" stroke-width="NaN"/><path d="M255.22739,197.58098c-0.92569,4.58376 -5.83808,9.75833 -10.42186,8.83262c-1.83722,-0.37104 -3.34282,-1.66579 -4.42784,-3.37929c-0.32561,-0.51422 -0.61336,-1.06616 -0.86081,-1.64217c0.26699,-0.24057 3.1276,0.64225 7.82933,-4.30238c4.08992,-4.3012 0.93844,-7.56054 0.93844,-7.56054c0,0 1.85353,0.78109 2.46459,1.01102c3.1865,1.19903 5.21815,3.37651 4.47815,7.04075z" fill="#808080" stroke-width="0"/><path d="M258.89655,182.89118c0,0 -2.82481,11.14142 -3.40757,14.02697c-0.00318,0.01574 -0.00682,0.03127 -0.01095,0.04663c-2.17728,-2.65237 -4.63401,-5.0572 -7.32026,-7.17324c-0.01006,-0.04245 -0.02016,-0.08489 -0.03035,-0.1273z" fill="#808080" stroke-width="0"/></g></g><g><path d="M376.77571,170.44228h36.44861c7.1257,0 12.86224,5.73656 12.86224,12.86224v36.44863c0,7.12568 -5.73655,12.86224 -12.86224,12.86224h-36.44861c-7.12568,0 -12.86226,-5.73656 -12.86226,-12.86224v-36.44863c0,-7.12568 5.73658,-12.86224 12.86226,-12.86224z" fill-opacity="0.09804" fill="#ffffff" fill-rule="evenodd" stroke="#ffffff" stroke-width="2.5" stroke-linecap="round" stroke-linejoin="round"/><g fill="#ffffff" fill-rule="nonzero" stroke="none" stroke-linecap="butt" stroke-linejoin="miter"><g><path d="M424.04877,205.50525c0,0 -3.80295,1.57525 -5.74295,3.87543c-1.81808,2.15563 -1.68787,5.01102 -4.29528,5.97823c-2.55421,0.94746 -22.91741,9.43716 -22.91741,9.43716c0,0 -15.51406,-15.77369 -17.41669,-17.55162c-2.17944,-2.03653 -1.00258,-4.92425 -1.83457,-7.74116c-0.77877,-2.63665 -3.63526,-5.27544 -3.63526,-5.27544c0,0 13.77197,4.24065 27.77646,7.08496c13.91005,2.82515 28.06568,4.1924 28.06568,4.1924z" stroke-width="NaN"/><path d="M388.62815,194.22876c0.92569,-4.58376 4.94585,-5.34005 9.52959,-4.41436c4.58378,0.92569 7.99533,3.18284 7.06963,7.7666c-0.92569,4.58376 -5.83809,9.75832 -10.42187,8.83262c-4.58378,-0.92569 -7.10306,-7.60111 -6.17735,-12.18486z" stroke-width="0"/><path d="M388.6108,193.68206c0.58832,-2.91317 2.33646,-14.41574 2.33646,-14.41574l7.1571,10.4124l10.79215,-6.78755c0,0 -2.8248,11.14142 -3.40756,14.02697c-0.58832,2.91317 -17.46089,-0.35057 -16.87817,-3.23613z" stroke-width="0"/></g><path d="M424.04877,205.50525c0,0 -3.80295,1.57525 -5.74295,3.87543c-1.81808,2.15565 -1.68784,5.01102 -4.29528,5.97823c-2.55421,0.94746 -22.91739,9.43716 -22.91739,9.43716c0,0 -3.97406,-4.04058 -8.14614,-8.26218c4.98733,-1.78242 15.32363,-7.91935 11.55476,-11.43422c-2.14045,-1.99618 0.13765,-8.11934 8.52324,-2.47244c11.27038,1.93594 21.02379,2.87799 21.02379,2.87799z" stroke-width="NaN"/><path d="M405.22739,197.58098c-0.92569,4.58376 -5.83809,9.75832 -10.42187,8.83261c-1.83722,-0.37104 -3.34281,-1.66578 -4.42784,-3.37929c-0.32561,-0.51423 -0.61336,-1.06616 -0.86081,-1.64217c0.26699,-0.24058 3.12761,0.64225 7.82934,-4.30238c4.08992,-4.3012 0.93844,-7.56054 0.93844,-7.56054c0,0 1.85352,0.78109 2.46459,1.01102c3.18649,1.19903 5.21816,3.37651 4.47815,7.04075z" stroke-width="0"/><path d="M408.89654,182.89118c0,0 -2.82481,11.14142 -3.40757,14.02697c-0.00318,0.01574 -0.00682,0.03127 -0.01095,0.04663c-2.17728,-2.65237 -4.63401,-5.05719 -7.32026,-7.17323c-0.01006,-0.04244 -0.02016,-0.08489 -0.03035,-0.1273z" stroke-width="0"/></g></g></g><text transform="translate(97.57014,257.57902) scale(0.30771,0.30771)" font-size="40" xml:space="preserve" fill="#ffffff" fill-rule="nonzero" stroke="none" stroke-width="1" stroke-linecap="butt" stroke-linejoin="miter" stroke-miterlimit="10" stroke-dasharray="" stroke-dashoffset="0" font-family="Sans Serif" font-weight="normal" text-anchor="start" style="mix-blend-mode: normal"><tspan x="0" dy="0">When the characters are on their B-Side, their icon will be completely white.</tspan></text></g></g></svg>