<svg version="1.1" xmlns="http://www.w3.org/2000/svg" xmlns:xlink="http://www.w3.org/1999/xlink" width="484.5" height="366.5" viewBox="0,0,484.5,366.5"><g transform="translate(2.25,3.25)"><g data-paper-data="{&quot;isPaintingLayer&quot;:true}" fill-rule="nonzero" stroke-linejoin="miter" stroke-miterlimit="10" stroke-dasharray="" stroke-dashoffset="0" style="mix-blend-mode: normal"><path d="M-2.25,363.25v-366.5h484.5v366.5z" fill="#7d7d7d" stroke="none" stroke-width="0" stroke-linecap="butt"/><text transform="translate(5,26.125) scale(0.61918,0.61918)" font-size="40" xml:space="preserve" fill="#000000" fill-rule="nonzero" stroke="#000000" stroke-width="2" stroke-linecap="butt" stroke-linejoin="miter" stroke-miterlimit="10" stroke-dasharray="" stroke-dashoffset="0" font-family="Handwriting" font-weight="normal" text-anchor="start" style="mix-blend-mode: normal"><tspan x="0" dy="0">Guide - Placement #1</tspan></text><text transform="translate(17,58.75) scale(0.54334,0.54334)" font-size="40" xml:space="preserve" fill="#000000" fill-rule="nonzero" stroke="none" stroke-width="1" stroke-linecap="butt" stroke-linejoin="miter" stroke-miterlimit="10" stroke-dasharray="" stroke-dashoffset="0" font-family="Handwriting" font-weight="normal" text-anchor="start" style="mix-blend-mode: normal"><tspan x="0" dy="0">The first and most important is too know where you</tspan><tspan x="0" dy="46.150000000000006px">can put the mouths, there are 3 ways how.</tspan></text><text transform="translate(17,101.5) scale(0.23998,0.23998)" font-size="40" xml:space="preserve" fill="#000000" fill-rule="nonzero" stroke="none" stroke-width="1" stroke-linecap="butt" stroke-linejoin="miter" stroke-miterlimit="10" stroke-dasharray="" stroke-dashoffset="0" font-family="Handwriting" font-weight="normal" text-anchor="start" style="mix-blend-mode: normal"><tspan x="0" dy="0">The red line is where the end of the nose should be</tspan><tspan x="0" dy="48px">and the blue line is directly under the nostills</tspan></text><g stroke="none" stroke-width="0" stroke-linecap="butt"><path d="M14.26784,128.92692c0,0 4.10553,-0.76033 7.60277,-1.84237c3.08615,-0.95485 7.5155,-2.42247 7.5155,-2.42247c0,0 4.08685,0.50153 6.1538,0.80242c2.09884,0.30553 6.34507,1.01705 6.34507,1.01705c0,0 6.80814,-0.81782 10.44537,-0.23848c2.30399,0.36699 15.99711,7.0735 15.99711,7.0735c0,0 -12.51717,17.40966 -25.40386,16.51421c-21.17263,-1.47121 -28.65576,-20.90385 -28.65576,-20.90385z" fill="#000000"/><path d="M17.06125,130.87978c0,0 9.52499,1.66386 14.08795,2.64958c4.36787,0.94357 12.73011,3.14377 12.73011,3.14377c0,0 6.52261,-1.34186 10.05798,-1.73192c3.5272,-0.38916 11.12979,-0.41897 11.12979,-0.41897c0,0 -2.09238,3.18546 -6.29385,6.3058c-4.08298,3.03232 -10.1941,5.81634 -15.84113,5.74236c-16.85102,-0.22077 -25.87084,-15.69062 -25.87084,-15.69062z" fill="#ffffff"/><path d="M20.7971,129.38542c0,0 6.05852,-1.95552 9.05946,-2.05472c3.00095,-0.0992 12.79533,1.21415 12.79533,1.21415c0,0 6.07022,-0.94876 9.03065,-0.25128c2.9856,0.70341 8.62129,4.08055 8.62129,4.08055c0,0 -5.68857,-0.03467 -8.40505,0.19434c-2.93609,0.24752 -8.60392,1.23955 -8.60392,1.23955c0,0 -7.08666,-1.49828 -10.85596,-2.28483c-4.02453,-0.83982 -11.6418,-2.13775 -11.6418,-2.13775z" fill="#ffffff"/></g><path d="M35.95833,134.01802h14" fill="none" stroke="#ff0000" stroke-width="1.5" stroke-linecap="round"/><path d="M35.58333,126.64302h14" fill="none" stroke="#0400ff" stroke-width="1.5" stroke-linecap="round"/><text transform="translate(73.125,134.35826) scale(0.35509,0.35509)" font-size="40" xml:space="preserve" fill="#000000" fill-rule="nonzero" stroke="none" stroke-width="1" stroke-linecap="butt" stroke-linejoin="miter" stroke-miterlimit="10" stroke-dasharray="" stroke-dashoffset="0" font-family="Handwriting" font-weight="normal" text-anchor="start" style="mix-blend-mode: normal"><tspan x="0" dy="0">Most common out of the 5 mainly used for closed mouths, wide </tspan><tspan x="0" dy="48px">open mouths and smiling mouths</tspan></text><g stroke-width="0" stroke-linecap="butt"><path d="M13.70391,167.89616c0,0 3.67273,-2.33973 7.47778,-5.3636c3.77564,-3.00051 7.67262,-6.68583 10.53038,-6.5655c2.53865,0.10689 10.58706,3.01565 10.58706,3.01565c0,0 8.3002,-4.59415 11.56386,-3.17634c2.83395,1.23112 6.82864,5.80649 10.15238,9.43417c2.56769,2.80248 4.91074,4.98078 4.91074,4.98078c0,0 -0.79137,1.84794 -1.58406,4.75999c-1.39571,5.12729 -2.69382,12.81228 -7.2477,17.7713c-4.30142,4.68407 -12.52448,4.15003 -18.05274,3.91725c-5.30113,-0.22321 -12.78802,0.77079 -17.22197,-4.00024c-4.81692,-5.18312 -7.3216,-13.16356 -8.99014,-18.68393c-1.05606,-3.49392 -2.1256,-6.08952 -2.1256,-6.08952z" fill="#000000" stroke="none"/><path d="M19.08084,167.75082c0,0 1.56704,-0.91252 3.19394,-2.30426c2.77569,-2.37451 6.26809,-6.30231 8.77548,-7.02559c3.52504,-1.01684 11.28204,4.09828 11.28204,4.09828c0,0 7.57801,-4.74247 11.08203,-3.7051c1.78324,0.52793 3.74937,2.86745 5.65216,5.06183c2.18391,2.51859 4.48277,4.8921 4.48277,4.8921c0,0 -2.89505,0.61567 -5.93803,-0.21882c-4.47161,-1.22627 -7.7772,-4.12845 -14.53843,-4.16298c-8.10294,-0.04137 -9.51707,2.30034 -14.33372,3.06186c-5.47817,0.8661 -9.65825,0.30269 -9.65825,0.30269z" fill="#ffffff" stroke="none"/><path d="M17.19165,169.93066c0,0 3.38095,-0.49985 6.26873,1.98805c4.86202,4.18876 6.318,12.31433 19.1567,12.49964c12.42656,0.39398 11.93883,-7.71209 16.36819,-11.79068c2.81511,-2.59217 6.74381,-1.97041 6.74381,-1.97041c0,0 -0.85081,3.24804 -2.01666,7.60044c-1.03643,3.86925 -2.16946,8.67225 -5.49687,11.91314c-3.44833,3.35867 -11.79567,3.80127 -16.02858,3.7379c-4.83501,-0.07238 -12.02433,0.32555 -16.03603,-3.87531c-3.58629,-3.75537 -5.31867,-9.24841 -6.69476,-13.54387c-1.19535,-3.73128 -2.26453,-6.5589 -2.26453,-6.5589z" fill="#ffffff" stroke="#000000"/><path d="M31.86913,178.06863c0,0 7.40033,1.03597 10.8939,1.11192c3.15709,0.06863 9.16048,-0.67595 9.16048,-0.67595c0,0 -2.15451,3.6897 -9.4459,3.63304c-5.98388,-0.0465 -10.60848,-4.069 -10.60848,-4.069z" fill="#ffffff" stroke="#000000"/><path d="M52.65013,169.20406c0,0 -6.33187,0.18699 -9.58819,0.06457c-3.18467,-0.11972 -9.73958,-0.79118 -9.73958,-0.79118c0,0 4.94809,-1.79955 10.31784,-1.59854c5.08634,0.1904 9.00993,2.32515 9.00993,2.32515z" fill="#ffffff" stroke="#000000"/></g><path d="M35.79166,168.01802h14" fill="none" stroke="#ff0000" stroke-width="1.5" stroke-linecap="round"/><path d="M35.41666,158.80969h14" fill="none" stroke="#0400ff" stroke-width="1.5" stroke-linecap="round"/><text transform="translate(74.29167,174.85826) scale(0.35509,0.35509)" font-size="40" xml:space="preserve" fill="#000000" fill-rule="nonzero" stroke="none" stroke-width="1" stroke-linecap="butt" stroke-linejoin="miter" stroke-miterlimit="10" stroke-dasharray="" stroke-dashoffset="0" font-family="Handwriting" font-weight="normal" text-anchor="start" style="mix-blend-mode: normal"><tspan x="0" dy="0">Secondly, This mouth placement is used for the A/U and </tspan><tspan x="0" dy="48px">Clap type mouths</tspan></text><text transform="translate(73.29166,218.85826) scale(0.35509,0.35509)" font-size="40" xml:space="preserve" fill="#000000" fill-rule="nonzero" stroke="none" stroke-width="1" stroke-linecap="butt" stroke-linejoin="miter" stroke-miterlimit="10" stroke-dasharray="" stroke-dashoffset="0" font-family="Handwriting" font-weight="normal" text-anchor="start" style="mix-blend-mode: normal"><tspan x="0" dy="0">Third, is mostly used for Snare mouths</tspan></text><g><path d="M17.92993,210.8415c0,0 3.52,-0.06282 8.08566,1.70484c5.63754,2.18267 11.11175,6.40227 17.41125,6.51211c6.0889,0.10616 12.02576,-3.87345 16.18718,-5.48215c2.09953,-0.81163 6.13546,-0.49166 6.13546,-0.49166c0,0 -5.60714,15.76235 -23.5529,15.44704c-17.23923,-0.30291 -24.26662,-17.69016 -24.26662,-17.69016z" fill="#ffffff" stroke="none" stroke-width="0" stroke-linecap="butt"/><path d="M19.91816,208.34346c0,0 4.25406,-3.49849 8.03345,-3.9073c3.91394,-0.42337 15.06063,1.40927 15.06063,1.40927c0,0 7.09429,-1.19745 10.72013,-0.30895c1.59191,0.39009 3.70685,1.73101 5.77925,2.97345c2.06893,1.24035 4.09668,2.38255 4.09668,2.38255c0,0 -2.43108,0.28493 -5.60717,-0.00726c-4.40722,-0.40547 -10.18661,-1.45034 -14.3641,-1.69408c-4.78768,-0.27933 -13.23397,-0.27464 -18.56597,-0.5229c-2.87676,-0.13395 -5.15288,-0.32477 -5.15288,-0.32477z" fill="#ffffff" stroke="none" stroke-width="0" stroke-linecap="butt"/><path d="M41.38087,231.89633c-18.63292,-1.17216 -28.29406,-22.02349 -28.29406,-22.02349c0,0 10.49747,-8.63928 17.74854,-8.33043c2.84956,0.12137 12.95471,2.62724 12.95471,2.62724c0,0 6.61953,-2.34283 10.98562,-0.88502c4.3811,1.46283 14.08358,9.34114 14.08358,9.34114c0,0 -7.21681,20.54518 -27.47839,19.27056z" fill="#000000" stroke="none" stroke-width="0" stroke-linecap="butt"/><path d="M18.08288,210.8415c0,0 4.37116,0.13511 8.73196,1.87612c5.68037,2.26785 9.06581,6.19952 16.84965,6.51418c4.94208,0.19979 11.33141,-3.56996 16.19765,-5.49559c2.40436,-0.95144 5.78537,-0.75354 5.78537,-0.75354c0,0 -4.75125,15.42808 -23.24703,15.29409c-18.14972,-0.13146 -24.31761,-17.43527 -24.31761,-17.43527z" fill="#ffffff" stroke="none" stroke-width="0" stroke-linecap="butt"/><path d="M19.91816,208.64935c0,0 4.39842,-3.69221 7.83454,-4.11124c4.10747,-0.50091 15.15758,1.30731 15.15758,1.30731c0,0 7.55127,-1.18058 10.89146,-0.33726c3.51612,0.88773 9.70458,5.53725 9.70458,5.53725c0,0 -2.68702,-0.11472 -6.53852,-0.54641c-4.32623,-0.48491 -10.055,-1.30301 -13.79615,-1.50867c-7.43902,-0.40893 -23.25351,-0.341 -23.25351,-0.341z" fill="#ffffff" stroke="none" stroke-width="0" stroke-linecap="butt"/><path d="M43.11422,215.93952c-5.34582,-0.10621 -14.78429,-4.63921 -14.78429,-4.63921c0,0 8.86971,-0.29978 13.86213,-0.12552c4.73072,0.16513 13.82018,1.29807 13.82018,1.29807c0,0 -6.07597,3.6022 -12.89801,3.46666z" fill="#ffffff" stroke="none" stroke-width="0" stroke-linecap="butt"/><path d="M56.16517,212.72778c0,0 -8.16019,1.33389 -12.54443,1.14786c-4.79021,-0.20328 -15.08689,-2.32041 -15.08689,-2.32041" fill="none" stroke="#000000" stroke-width="1" stroke-linecap="round"/></g><path d="M36.20833,213.51802h14" fill="none" stroke="#ff0000" stroke-width="1.5" stroke-linecap="round"/><path d="M35.83333,203.89302h14" fill="none" stroke="#0400ff" stroke-width="1.5" stroke-linecap="round"/></g></g></svg>