<svg version="1.1" xmlns="http://www.w3.org/2000/svg" xmlns:xlink="http://www.w3.org/1999/xlink" width="744" height="427" viewBox="0,0,744,427"><g transform="translate(52,33.5)"><g data-paper-data="{&quot;isPaintingLayer&quot;:true}" fill-rule="nonzero" stroke-linecap="butt" stroke-linejoin="miter" stroke-miterlimit="10" stroke-dasharray="" stroke-dashoffset="0" style="mix-blend-mode: normal"><path d="M-52,393.5v-427h744v427z" fill="#000000" stroke="none" stroke-width="0"/><text transform="translate(199.02004,185.76875) scale(0.5,0.5)" font-size="40" xml:space="preserve" fill-opacity="0.01176" fill="#ffffff" fill-rule="nonzero" stroke="none" stroke-width="1" stroke-linecap="butt" stroke-linejoin="miter" stroke-miterlimit="10" stroke-dasharray="" stroke-dashoffset="0" font-family="Sans Serif" font-weight="normal" text-anchor="start" style="mix-blend-mode: normal"><tspan x="0" dy="0">made by the spooki team</tspan></text><text transform="translate(199.12309,187.62909) rotate(-0.88125) scale(0.5,0.5)" font-size="40" xml:space="preserve" fill-opacity="0.01176" fill="#ffffff" fill-rule="nonzero" stroke="none" stroke-width="1" stroke-linecap="butt" stroke-linejoin="miter" stroke-miterlimit="10" stroke-dasharray="" stroke-dashoffset="0" font-family="Sans Serif" font-weight="normal" text-anchor="start" style="mix-blend-mode: normal"><tspan x="0" dy="0">made by the spooki team</tspan></text><text transform="translate(200.89949,181.84463) rotate(1.85729) scale(0.5,0.5)" font-size="40" xml:space="preserve" fill-opacity="0.01176" fill="#ffffff" fill-rule="nonzero" stroke="none" stroke-width="1" stroke-linecap="butt" stroke-linejoin="miter" stroke-miterlimit="10" stroke-dasharray="" stroke-dashoffset="0" font-family="Sans Serif" font-weight="normal" text-anchor="start" style="mix-blend-mode: normal"><tspan x="0" dy="0">made by the spooki team</tspan></text><text transform="translate(200.94219,183.70732) rotate(0.97637) scale(0.5,0.5)" font-size="40" xml:space="preserve" fill-opacity="0.01176" fill="#ffffff" fill-rule="nonzero" stroke="none" stroke-width="1" stroke-linecap="butt" stroke-linejoin="miter" stroke-miterlimit="10" stroke-dasharray="" stroke-dashoffset="0" font-family="Sans Serif" font-weight="normal" text-anchor="start" style="mix-blend-mode: normal"><tspan x="0" dy="0">made by the spooki team</tspan></text><text transform="translate(199.02004,185.76875) scale(0.5,0.5)" font-size="40" xml:space="preserve" fill-opacity="0.01176" fill="#ffffff" fill-rule="nonzero" stroke="none" stroke-width="1" stroke-linecap="butt" stroke-linejoin="miter" stroke-miterlimit="10" stroke-dasharray="" stroke-dashoffset="0" font-family="Sans Serif" font-weight="normal" text-anchor="start" style="mix-blend-mode: normal"><tspan x="0" dy="0">made by the spooki team</tspan></text><text transform="translate(199.12309,187.62909) rotate(-0.88125) scale(0.5,0.5)" font-size="40" xml:space="preserve" fill-opacity="0.01176" fill="#ffffff" fill-rule="nonzero" stroke="none" stroke-width="1" stroke-linecap="butt" stroke-linejoin="miter" stroke-miterlimit="10" stroke-dasharray="" stroke-dashoffset="0" font-family="Sans Serif" font-weight="normal" text-anchor="start" style="mix-blend-mode: normal"><tspan x="0" dy="0">made by the spooki team</tspan></text><text transform="translate(200.89949,181.84463) rotate(1.85729) scale(0.5,0.5)" font-size="40" xml:space="preserve" fill-opacity="0.01176" fill="#ffffff" fill-rule="nonzero" stroke="none" stroke-width="1" stroke-linecap="butt" stroke-linejoin="miter" stroke-miterlimit="10" stroke-dasharray="" stroke-dashoffset="0" font-family="Sans Serif" font-weight="normal" text-anchor="start" style="mix-blend-mode: normal"><tspan x="0" dy="0">made by the spooki team</tspan></text><text transform="translate(200.9422,183.70733) rotate(0.97637) scale(0.5,0.5)" font-size="40" xml:space="preserve" fill-opacity="0.01176" fill="#ffffff" fill-rule="nonzero" stroke="none" stroke-width="1" stroke-linecap="butt" stroke-linejoin="miter" stroke-miterlimit="10" stroke-dasharray="" stroke-dashoffset="0" font-family="Sans Serif" font-weight="normal" text-anchor="start" style="mix-blend-mode: normal"><tspan x="0" dy="0">made by the spooki team</tspan></text><text transform="translate(199.06552,186.63182) rotate(-0.40508) scale(0.5,0.5)" font-size="40" xml:space="preserve" fill-opacity="0.01176" fill="#ffffff" fill-rule="nonzero" stroke="none" stroke-width="1" stroke-linecap="butt" stroke-linejoin="miter" stroke-miterlimit="10" stroke-dasharray="" stroke-dashoffset="0" font-family="Sans Serif" font-weight="normal" text-anchor="start" style="mix-blend-mode: normal"><tspan x="0" dy="0">made by the spooki team</tspan></text><text transform="translate(199.18173,188.49139) rotate(-1.2864) scale(0.5,0.5)" font-size="40" xml:space="preserve" fill-opacity="0.01176" fill="#ffffff" fill-rule="nonzero" stroke="none" stroke-width="1" stroke-linecap="butt" stroke-linejoin="miter" stroke-miterlimit="10" stroke-dasharray="" stroke-dashoffset="0" font-family="Sans Serif" font-weight="normal" text-anchor="start" style="mix-blend-mode: normal"><tspan x="0" dy="0">made by the spooki team</tspan></text><text transform="translate(200.91718,182.6945) rotate(1.45203) scale(0.5,0.5)" font-size="40" xml:space="preserve" fill-opacity="0.01176" fill="#ffffff" fill-rule="nonzero" stroke="none" stroke-width="1" stroke-linecap="butt" stroke-linejoin="miter" stroke-miterlimit="10" stroke-dasharray="" stroke-dashoffset="0" font-family="Sans Serif" font-weight="normal" text-anchor="start" style="mix-blend-mode: normal"><tspan x="0" dy="0">made by the spooki team</tspan></text><text transform="translate(200.97305,184.55686) rotate(0.57125) scale(0.5,0.5)" font-size="40" xml:space="preserve" fill-opacity="0.01176" fill="#ffffff" fill-rule="nonzero" stroke="none" stroke-width="1" stroke-linecap="butt" stroke-linejoin="miter" stroke-miterlimit="10" stroke-dasharray="" stroke-dashoffset="0" font-family="Sans Serif" font-weight="normal" text-anchor="start" style="mix-blend-mode: normal"><tspan x="0" dy="0">made by the spooki team</tspan></text><text transform="translate(197.02004,187.76875) scale(0.5,0.5)" font-size="40" xml:space="preserve" fill-opacity="0.01176" fill="#ffffff" fill-rule="nonzero" stroke="none" stroke-width="1" stroke-linecap="butt" stroke-linejoin="miter" stroke-miterlimit="10" stroke-dasharray="" stroke-dashoffset="0" font-family="Sans Serif" font-weight="normal" text-anchor="start" style="mix-blend-mode: normal"><tspan x="0" dy="0">made by the spooki team</tspan></text><text transform="translate(197.12309,189.62909) rotate(-0.88125) scale(0.5,0.5)" font-size="40" xml:space="preserve" fill-opacity="0.01176" fill="#ffffff" fill-rule="nonzero" stroke="none" stroke-width="1" stroke-linecap="butt" stroke-linejoin="miter" stroke-miterlimit="10" stroke-dasharray="" stroke-dashoffset="0" font-family="Sans Serif" font-weight="normal" text-anchor="start" style="mix-blend-mode: normal"><tspan x="0" dy="0">made by the spooki team</tspan></text><text transform="translate(198.89949,183.84463) rotate(1.85729) scale(0.5,0.5)" font-size="40" xml:space="preserve" fill-opacity="0.01176" fill="#ffffff" fill-rule="nonzero" stroke="none" stroke-width="1" stroke-linecap="butt" stroke-linejoin="miter" stroke-miterlimit="10" stroke-dasharray="" stroke-dashoffset="0" font-family="Sans Serif" font-weight="normal" text-anchor="start" style="mix-blend-mode: normal"><tspan x="0" dy="0">made by the spooki team</tspan></text><text transform="translate(198.94219,185.70732) rotate(0.97637) scale(0.5,0.5)" font-size="40" xml:space="preserve" fill-opacity="0.01176" fill="#ffffff" fill-rule="nonzero" stroke="none" stroke-width="1" stroke-linecap="butt" stroke-linejoin="miter" stroke-miterlimit="10" stroke-dasharray="" stroke-dashoffset="0" font-family="Sans Serif" font-weight="normal" text-anchor="start" style="mix-blend-mode: normal"><tspan x="0" dy="0">made by the spooki team</tspan></text><text transform="translate(197.02004,187.76875) scale(0.5,0.5)" font-size="40" xml:space="preserve" fill-opacity="0.01176" fill="#ffffff" fill-rule="nonzero" stroke="none" stroke-width="1" stroke-linecap="butt" stroke-linejoin="miter" stroke-miterlimit="10" stroke-dasharray="" stroke-dashoffset="0" font-family="Sans Serif" font-weight="normal" text-anchor="start" style="mix-blend-mode: normal"><tspan x="0" dy="0">made by the spooki team</tspan></text><text transform="translate(197.12309,189.62909) rotate(-0.88125) scale(0.5,0.5)" font-size="40" xml:space="preserve" fill-opacity="0.01176" fill="#ffffff" fill-rule="nonzero" stroke="none" stroke-width="1" stroke-linecap="butt" stroke-linejoin="miter" stroke-miterlimit="10" stroke-dasharray="" stroke-dashoffset="0" font-family="Sans Serif" font-weight="normal" text-anchor="start" style="mix-blend-mode: normal"><tspan x="0" dy="0">made by the spooki team</tspan></text><text transform="translate(198.89949,183.84463) rotate(1.85729) scale(0.5,0.5)" font-size="40" xml:space="preserve" fill-opacity="0.01176" fill="#ffffff" fill-rule="nonzero" stroke="none" stroke-width="1" stroke-linecap="butt" stroke-linejoin="miter" stroke-miterlimit="10" stroke-dasharray="" stroke-dashoffset="0" font-family="Sans Serif" font-weight="normal" text-anchor="start" style="mix-blend-mode: normal"><tspan x="0" dy="0">made by the spooki team</tspan></text><text transform="translate(198.9422,185.70733) rotate(0.97637) scale(0.5,0.5)" font-size="40" xml:space="preserve" fill-opacity="0.01176" fill="#ffffff" fill-rule="nonzero" stroke="none" stroke-width="1" stroke-linecap="butt" stroke-linejoin="miter" stroke-miterlimit="10" stroke-dasharray="" stroke-dashoffset="0" font-family="Sans Serif" font-weight="normal" text-anchor="start" style="mix-blend-mode: normal"><tspan x="0" dy="0">made by the spooki team</tspan></text><text transform="translate(197.06553,188.63182) rotate(-0.40508) scale(0.5,0.5)" font-size="40" xml:space="preserve" fill-opacity="0.01176" fill="#ffffff" fill-rule="nonzero" stroke="none" stroke-width="1" stroke-linecap="butt" stroke-linejoin="miter" stroke-miterlimit="10" stroke-dasharray="" stroke-dashoffset="0" font-family="Sans Serif" font-weight="normal" text-anchor="start" style="mix-blend-mode: normal"><tspan x="0" dy="0">made by the spooki team</tspan></text><text transform="translate(197.18173,190.49139) rotate(-1.2864) scale(0.5,0.5)" font-size="40" xml:space="preserve" fill-opacity="0.01176" fill="#ffffff" fill-rule="nonzero" stroke="none" stroke-width="1" stroke-linecap="butt" stroke-linejoin="miter" stroke-miterlimit="10" stroke-dasharray="" stroke-dashoffset="0" font-family="Sans Serif" font-weight="normal" text-anchor="start" style="mix-blend-mode: normal"><tspan x="0" dy="0">made by the spooki team</tspan></text><text transform="translate(198.91718,184.69451) rotate(1.45203) scale(0.5,0.5)" font-size="40" xml:space="preserve" fill-opacity="0.01176" fill="#ffffff" fill-rule="nonzero" stroke="none" stroke-width="1" stroke-linecap="butt" stroke-linejoin="miter" stroke-miterlimit="10" stroke-dasharray="" stroke-dashoffset="0" font-family="Sans Serif" font-weight="normal" text-anchor="start" style="mix-blend-mode: normal"><tspan x="0" dy="0">made by the spooki team</tspan></text><text transform="translate(198.97306,186.55686) rotate(0.57125) scale(0.5,0.5)" font-size="40" xml:space="preserve" fill-opacity="0.01176" fill="#ffffff" fill-rule="nonzero" stroke="none" stroke-width="1" stroke-linecap="butt" stroke-linejoin="miter" stroke-miterlimit="10" stroke-dasharray="" stroke-dashoffset="0" font-family="Sans Serif" font-weight="normal" text-anchor="start" style="mix-blend-mode: normal"><tspan x="0" dy="0">made by the spooki team</tspan></text><text transform="translate(199.04909,186.57119) rotate(-0.74429) scale(0.5,0.5)" font-size="40" xml:space="preserve" fill-opacity="0.01176" fill="#ffffff" fill-rule="nonzero" stroke="none" stroke-width="1" stroke-linecap="butt" stroke-linejoin="miter" stroke-miterlimit="10" stroke-dasharray="" stroke-dashoffset="0" font-family="Sans Serif" font-weight="normal" text-anchor="start" style="mix-blend-mode: normal"><tspan x="0" dy="0">made by the spooki team</tspan></text><text transform="translate(199.17629,188.43004) rotate(-1.62512) scale(0.5,0.5)" font-size="40" xml:space="preserve" fill-opacity="0.01176" fill="#ffffff" fill-rule="nonzero" stroke="none" stroke-width="1" stroke-linecap="butt" stroke-linejoin="miter" stroke-miterlimit="10" stroke-dasharray="" stroke-dashoffset="0" font-family="Sans Serif" font-weight="normal" text-anchor="start" style="mix-blend-mode: normal"><tspan x="0" dy="0">made by the spooki team</tspan></text><text transform="translate(200.87742,182.623) rotate(1.11333) scale(0.5,0.5)" font-size="40" xml:space="preserve" fill-opacity="0.01176" fill="#ffffff" fill-rule="nonzero" stroke="none" stroke-width="1" stroke-linecap="butt" stroke-linejoin="miter" stroke-miterlimit="10" stroke-dasharray="" stroke-dashoffset="0" font-family="Sans Serif" font-weight="normal" text-anchor="start" style="mix-blend-mode: normal"><tspan x="0" dy="0">made by the spooki team</tspan></text><text transform="translate(199.04909,186.57119) rotate(-0.74429) scale(0.5,0.5)" font-size="40" xml:space="preserve" fill-opacity="0.01176" fill="#ffffff" fill-rule="nonzero" stroke="none" stroke-width="1" stroke-linecap="butt" stroke-linejoin="miter" stroke-miterlimit="10" stroke-dasharray="" stroke-dashoffset="0" font-family="Sans Serif" font-weight="normal" text-anchor="start" style="mix-blend-mode: normal"><tspan x="0" dy="0">made by the spooki team</tspan></text><text transform="translate(199.17629,188.43004) rotate(-1.62512) scale(0.5,0.5)" font-size="40" xml:space="preserve" fill-opacity="0.01176" fill="#ffffff" fill-rule="nonzero" stroke="none" stroke-width="1" stroke-linecap="butt" stroke-linejoin="miter" stroke-miterlimit="10" stroke-dasharray="" stroke-dashoffset="0" font-family="Sans Serif" font-weight="normal" text-anchor="start" style="mix-blend-mode: normal"><tspan x="0" dy="0">made by the spooki team</tspan></text><text transform="translate(199.10577,187.4336) rotate(-1.14886) scale(0.5,0.5)" font-size="40" xml:space="preserve" fill-opacity="0.01176" fill="#ffffff" fill-rule="nonzero" stroke="none" stroke-width="1" stroke-linecap="butt" stroke-linejoin="miter" stroke-miterlimit="10" stroke-dasharray="" stroke-dashoffset="0" font-family="Sans Serif" font-weight="normal" text-anchor="start" style="mix-blend-mode: normal"><tspan x="0" dy="0">made by the spooki team</tspan></text><text transform="translate(199.24612,189.29151) rotate(-2.03042) scale(0.5,0.5)" font-size="40" xml:space="preserve" fill-opacity="0.01176" fill="#ffffff" fill-rule="nonzero" stroke="none" stroke-width="1" stroke-linecap="butt" stroke-linejoin="miter" stroke-miterlimit="10" stroke-dasharray="" stroke-dashoffset="0" font-family="Sans Serif" font-weight="normal" text-anchor="start" style="mix-blend-mode: normal"><tspan x="0" dy="0">made by the spooki team</tspan></text><path d="M257.49249,134.95495h125.01501" fill="none" stroke="#ffffff" stroke-width="1.5"/><path d="M257.4925,225.04505h125.01501" fill="none" stroke="#ffffff" stroke-width="1.5"/><g fill-opacity="0.00784" fill="#ffffff" stroke="none" stroke-width="0.5"><g><path d="M451.49742,217.15469c-7.55668,0.34806 -17.45353,-8.43186 -17.45353,-8.43186c0,0 10.20885,2.57152 14.95562,1.89071c4.74676,-0.68081 10.1027,-4.14874 10.86822,-5.59455c1.12487,-2.12448 -2.03826,-24.2193 22.37136,-23.17013c11.9029,0.5116 28.50338,10.59252 13.99658,26.0977c-13.59483,14.53047 -20.891,-3.05457 -21.44321,-2.96948c-0.64914,0.10003 -4.26574,11.30109 -23.29501,12.17761zM484.38133,210.51486c2.1388,0.75745 5.35758,-3.71377 5.79389,-4.88932c0.89705,-2.41685 0.71527,-4.71348 -1.70159,-5.61054c-2.41685,-0.89706 -4.05306,0.72481 -4.9501,3.14166c-0.46074,1.24132 -1.40067,6.55837 0.8578,7.35819zM487.83682,192.60892c0.44321,-1.19414 -1.69531,0.96404 -3.14542,0.42581c-1.45011,-0.53824 -3.0094,3.66283 -1.55929,4.20106c1.45011,0.53823 3.157,-0.45698 4.70471,-4.62686zM493.87476,201.02394c1.45011,0.53824 3.07437,-3.83787 1.62426,-4.37609c-1.45011,-0.53823 -1.24251,-4.70108 -2.17088,-2.19987c-0.92836,2.50121 -0.9035,6.03774 0.54661,6.57598z" data-paper-data="{&quot;index&quot;:null}"/><path d="M188.50259,142.84532c7.55667,-0.34806 17.45353,8.43186 17.45353,8.43186c0,0 -10.20886,-2.57151 -14.95562,-1.89071c-4.74675,0.68081 -10.1027,4.14874 -10.86822,5.59455c-1.12488,2.12448 2.03827,24.21929 -22.37135,23.17011c-11.90291,-0.5116 -28.50337,-10.59252 -13.99658,-26.0977c13.59483,-14.53047 20.891,3.05456 21.44321,2.96947c0.64914,-0.10003 4.26574,-11.30109 23.29502,-12.1776zM155.61867,149.48512c-2.1388,-0.75745 -5.35757,3.71377 -5.79389,4.88932c-0.89704,2.41685 -0.71528,4.71349 1.70159,5.61054c2.41685,0.89705 4.05306,-0.72481 4.95009,-3.14166c0.46074,-1.24132 1.40068,-6.55837 -0.85779,-7.35819zM152.16318,167.39107c-0.44322,1.19412 1.69531,-0.96404 3.14542,-0.4258c1.45011,0.53824 3.00941,-3.66282 1.55928,-4.20106c-1.45011,-0.53823 -3.157,0.45698 -4.70471,4.62686zM146.12525,158.97606c-1.45011,-0.53824 -3.07437,3.83786 -1.62426,4.37609c1.45011,0.53823 1.2425,4.70108 2.17087,2.19986c0.92837,-2.50121 0.9035,-6.03774 -0.5466,-6.57598z" data-paper-data="{&quot;index&quot;:null}"/></g><g><path d="M451.2766,217.92754c-7.55859,0.3036 -17.40364,-8.53437 -17.40364,-8.53437c0,0 10.19355,2.63152 14.94424,1.97864c4.75067,-0.65288 10.12692,-4.08924 10.90094,-5.53052c1.13735,-2.11783 -1.89576,-24.23086 22.50725,-23.03813c11.89969,0.58162 28.44058,10.75998 13.84283,26.17958c-13.68007,14.45025 -20.87267,-3.17739 -21.42537,-3.09555c-0.64973,0.0962 -4.33216,11.27581 -23.36625,12.04037zM484.19899,211.48126c2.13431,0.77002 5.37933,-3.68219 5.82254,-4.85516c0.91125,-2.41153 0.74297,-4.70918 -1.66855,-5.62044c-2.41152,-0.91126 -4.05724,0.70095 -4.96848,3.11248c-0.46802,1.23858 -1.43923,6.55002 0.8145,7.36312zM487.75975,193.59597c0.45022,-1.19151 -1.70094,0.95405 -3.14787,0.40728c-1.44692,-0.54676 -3.0309,3.64505 -1.58398,4.19181c1.4469,0.54674 3.15963,-0.43839 4.73184,-4.59909zM493.7481,202.04636c1.44692,0.54676 3.09689,-3.81971 1.64997,-4.36646c-1.4469,-0.54674 -1.21482,-4.70831 -2.15789,-2.2126c-0.94305,2.4957 -0.939,6.03233 0.50792,6.57907z" data-paper-data="{&quot;index&quot;:null}"/><path d="M188.72341,142.07246c7.55859,-0.30361 17.40364,8.53437 17.40364,8.53437c0,0 -10.19355,-2.63152 -14.94424,-1.97864c-4.75068,0.65288 -10.12693,4.08925 -10.90095,5.53054c-1.13735,2.11783 1.89576,24.23085 -22.50725,23.03811c-11.89969,-0.58162 -28.44057,-10.75998 -13.84283,-26.17958c13.68007,-14.45025 20.87268,3.1774 21.42537,3.09555c0.64973,-0.0962 4.33216,-11.27582 23.36625,-12.04037zM155.80101,148.51873c-2.13431,-0.77002 -5.37932,3.68221 -5.82255,4.85516c-0.91124,2.41153 -0.74299,4.70919 1.66854,5.62044c2.41153,0.91125 4.05725,-0.70096 4.96849,-3.11248c0.46802,-1.23858 1.43923,-6.55002 -0.8145,-7.36312zM152.24026,166.40403c-0.45022,1.19151 1.70094,-0.95405 3.14788,-0.40729c1.44693,0.54676 3.0309,-3.64504 1.58398,-4.19181c-1.44692,-0.54674 -3.15965,0.43839 -4.73185,4.59909zM146.25191,157.95365c-1.44693,-0.54676 -3.0969,3.81971 -1.64997,4.36645c1.44692,0.54674 1.21482,4.70832 2.15788,2.21261c0.94305,-2.49572 0.939,-6.03233 -0.50792,-6.57907z" data-paper-data="{&quot;index&quot;:null}"/></g><g><path d="M450.42748,220.75188c-7.56337,0.14041 -17.21539,-8.90799 -17.21539,-8.90799c0,0 10.13439,2.8509 14.89806,2.3007c4.76366,-0.5502 10.21281,-3.86973 11.01777,-5.29398c1.18279,-2.09278 -1.37239,-24.26614 22.99921,-22.54702c11.88437,0.8383 28.20174,11.37128 13.27461,26.47223c-13.98874,14.15165 -20.79924,-3.62712 -21.35358,-3.55724c-0.65164,0.08216 -4.57448,11.17969 -23.62065,11.53328zM483.48133,215.01763c2.1172,0.8159 5.45753,-3.56523 5.92597,-4.72836c0.96308,-2.39132 0.84444,-4.69205 -1.54686,-5.65516c-2.3913,-0.96309 -4.07142,0.61323 -5.03451,3.00453c-0.49465,1.22819 -1.58026,6.51743 0.65539,7.37897zM487.42725,197.21333c0.47584,-1.1815 -1.72113,0.9171 -3.15592,0.33926c-1.43478,-0.57786 -3.10887,3.5788 -1.67408,4.15665c1.43478,0.57785 3.16835,-0.3701 4.82999,-4.4959zM493.23183,205.791c1.43478,0.57787 3.17862,-3.75199 1.74382,-4.32983c-1.43478,-0.57785 -1.11292,-4.73342 -2.10964,-2.25865c-0.9967,2.47477 -1.06897,6.01066 0.3658,6.58851z" data-paper-data="{&quot;index&quot;:null}"/><path d="M189.57252,139.24813c7.56337,-0.14041 17.21539,8.90798 17.21539,8.90798c0,0 -10.13438,-2.85091 -14.89805,-2.3007c-4.76366,0.5502 -10.21283,3.86973 -11.01777,5.29398c-1.18279,2.09278 1.37239,24.26613 -22.99921,22.54702c-11.88437,-0.8383 -28.20174,-11.37127 -13.2746,-26.47222c13.98874,-14.15165 20.79923,3.62713 21.35357,3.55724c0.65164,-0.08216 4.57449,-11.1797 23.62065,-11.53328zM156.51867,144.98237c-2.1172,-0.8159 -5.45753,3.56524 -5.92597,4.72836c-0.96308,2.39131 -0.84444,4.69207 1.54687,5.65516c2.39131,0.96309 4.07142,-0.61323 5.03451,-3.00453c0.49465,-1.22819 1.58026,-6.51743 -0.6554,-7.37897zM152.57276,162.78666c-0.47584,1.1815 1.72114,-0.91711 3.15592,-0.33926c1.43478,0.57787 3.10888,-3.5788 1.67407,-4.15665c-1.43478,-0.57785 -3.16835,0.37011 -4.82999,4.4959zM146.76819,154.20901c-1.43478,-0.57786 -3.1786,3.75199 -1.74382,4.32984c1.43478,0.57785 1.11292,4.73343 2.10962,2.25866c0.9967,-2.47477 1.06897,-6.01066 -0.3658,-6.58851z" data-paper-data="{&quot;index&quot;:null}"/></g><g><path d="M450.3298,216.40187c-7.55668,0.34806 -17.45353,-8.43186 -17.45353,-8.43186c0,0 10.20885,2.57152 14.95562,1.89072c4.74676,-0.68081 10.10269,-4.14873 10.86822,-5.59455c1.12487,-2.12448 -2.03826,-24.2193 22.37136,-23.17013c11.9029,0.5116 28.50338,10.59251 13.99659,26.0977c-13.59483,14.53047 -20.89099,-3.05456 -21.4432,-2.96947c-0.64914,0.10003 -4.26574,11.30109 -23.29502,12.1776zM483.21371,209.76206c2.1388,0.75745 5.35758,-3.71378 5.79388,-4.88933c0.89705,-2.41685 0.71527,-4.71347 -1.70158,-5.61053c-2.41685,-0.89706 -4.05306,0.72481 -4.9501,3.14166c-0.46074,1.24132 -1.40067,6.55838 0.8578,7.3582zM486.66919,191.85612c0.44321,-1.19414 -1.69531,0.96403 -3.14542,0.4258c-1.45011,-0.53824 -3.0094,3.66283 -1.55929,4.20106c1.45011,0.53823 3.157,-0.45698 4.70471,-4.62686zM492.70715,200.27113c1.45011,0.53824 3.07437,-3.83787 1.62425,-4.37609c-1.45011,-0.53823 -1.2425,-4.70108 -2.17087,-2.19987c-0.92836,2.50121 -0.9035,6.03774 0.54661,6.57598z" data-paper-data="{&quot;index&quot;:null}"/><path d="M187.33496,142.0925c7.55667,-0.34806 17.45353,8.43186 17.45353,8.43186c0,0 -10.20886,-2.57151 -14.95562,-1.89071c-4.74675,0.68081 -10.1027,4.14874 -10.86822,5.59455c-1.12488,2.12449 2.03827,24.21928 -22.37135,23.17012c-11.90291,-0.5116 -28.50336,-10.59251 -13.99658,-26.0977c13.59483,-14.53047 20.89099,3.05456 21.4432,2.96947c0.64914,-0.10003 4.26574,-11.30109 23.29502,-12.1776zM154.45103,148.73232c-2.1388,-0.75745 -5.35756,3.71377 -5.79389,4.88932c-0.89704,2.41685 -0.71528,4.71347 1.70159,5.61054c2.41686,0.89706 4.05306,-0.72481 4.95009,-3.14166c0.46074,-1.24132 1.40067,-6.55837 -0.8578,-7.35819zM150.99556,166.63826c-0.44322,1.19412 1.69531,-0.96404 3.14542,-0.4258c1.45011,0.53824 3.00941,-3.66282 1.55928,-4.20106c-1.45011,-0.53823 -3.157,0.45698 -4.70471,4.62686zM144.95762,158.22325c-1.45011,-0.53824 -3.07437,3.83786 -1.62426,4.3761c1.45011,0.53823 1.2425,4.70108 2.17087,2.19986c0.92837,-2.50121 0.9035,-6.03774 -0.54661,-6.57598z" data-paper-data="{&quot;index&quot;:null}"/></g><g><path d="M452.66505,217.9075c-7.55668,0.34806 -17.45353,-8.43186 -17.45353,-8.43186c0,0 10.20885,2.57152 14.95562,1.89071c4.74676,-0.68081 10.1027,-4.14874 10.86822,-5.59455c1.12487,-2.12448 -2.03826,-24.2193 22.37136,-23.17013c11.9029,0.5116 28.50337,10.59251 13.99658,26.0977c-13.59483,14.53047 -20.89099,-3.05456 -21.4432,-2.96947c-0.64914,0.10003 -4.26574,11.30109 -23.29502,12.1776zM485.54896,211.26769c2.1388,0.75745 5.35758,-3.71377 5.79389,-4.88932c0.89705,-2.41685 0.71527,-4.71347 -1.70158,-5.61053c-2.41685,-0.89706 -4.05305,0.72481 -4.95009,3.14166c-0.46074,1.24132 -1.40068,6.55837 0.85779,7.35819zM489.00444,193.36174c0.44321,-1.19414 -1.69531,0.96403 -3.14542,0.4258c-1.45011,-0.53824 -3.0094,3.66283 -1.55929,4.20106c1.45011,0.53823 3.157,-0.45698 4.70471,-4.62686zM495.04238,201.77676c1.45011,0.53824 3.07437,-3.83787 1.62426,-4.3761c-1.45011,-0.53823 -1.24251,-4.70108 -2.17088,-2.19987c-0.92836,2.50121 -0.9035,6.03774 0.54661,6.57598z" data-paper-data="{&quot;index&quot;:null}"/><path d="M189.6702,143.59813c7.55667,-0.34806 17.45354,8.43186 17.45354,8.43186c0,0 -10.20885,-2.57151 -14.95562,-1.89071c-4.74675,0.68081 -10.10271,4.14874 -10.86823,5.59455c-1.12488,2.12449 2.03827,24.21928 -22.37135,23.17012c-11.90291,-0.5116 -28.50337,-10.59252 -13.99658,-26.0977c13.59483,-14.53047 20.89101,3.05457 21.44322,2.96948c0.64914,-0.10003 4.26573,-11.30109 23.29501,-12.1776zM156.78629,150.23794c-2.1388,-0.75745 -5.35757,3.71378 -5.79388,4.88933c-0.89704,2.41685 -0.71528,4.71347 1.70158,5.61053c2.41686,0.89706 4.05306,-0.72481 4.95009,-3.14166c0.46074,-1.24132 1.40068,-6.55838 -0.85779,-7.35819zM153.33081,168.14389c-0.44322,1.19412 1.69531,-0.96404 3.14542,-0.4258c1.45011,0.53824 3.00941,-3.66282 1.55929,-4.20106c-1.45011,-0.53823 -3.157,0.45698 -4.70471,4.62686zM147.29286,159.72888c-1.45011,-0.53824 -3.07437,3.83786 -1.62425,4.37609c1.45011,0.53823 1.24251,4.70108 2.17088,2.19986c0.92837,-2.50121 0.90349,-6.03774 -0.54661,-6.57598z" data-paper-data="{&quot;index&quot;:null}"/></g></g><text transform="translate(199.01235,187.35985) rotate(-0.17303) scale(0.5,0.5)" font-size="40" xml:space="preserve" fill-opacity="0.50196" fill="#666666" fill-rule="nonzero" stroke="none" stroke-width="1" stroke-linecap="butt" stroke-linejoin="miter" stroke-miterlimit="10" stroke-dasharray="" stroke-dashoffset="0" font-family="Sans Serif" font-weight="normal" text-anchor="start" style="mix-blend-mode: normal"><tspan x="0" dy="0">made by the spooki team</tspan></text></g></g></svg>