<svg version="1.1" xmlns="http://www.w3.org/2000/svg" xmlns:xlink="http://www.w3.org/1999/xlink" width="34.17311" height="34.17311" viewBox="0,0,34.17311,34.17311"><g transform="translate(-302.91346,-162.9135)"><g data-paper-data="{&quot;isPaintingLayer&quot;:true}" stroke="none" stroke-miterlimit="10" stroke-dasharray="" stroke-dashoffset="0" style="mix-blend-mode: normal"><path d="M309.98312,162.9135h20.03379c3.9166,0 7.06966,3.15307 7.06966,7.06966v20.03379c0,3.91659 -3.15306,7.06966 -7.06966,7.06966h-20.03379c-3.91659,0 -7.06966,-3.15307 -7.06966,-7.06966v-20.03379c0,-3.91659 3.15307,-7.06966 7.06966,-7.06966z" fill-opacity="0.3451" fill="#bdffa3" fill-rule="evenodd" stroke-width="4.43922" stroke-linecap="round" stroke-linejoin="round"/><g fill-rule="nonzero" stroke-linecap="butt" stroke-linejoin="miter"><path d="M305.20824,189.13836l4.00272,-17.59904l20.65973,4.69884l-4.00272,17.59904z" fill="#bdffa3" stroke-width="NaN"/><path d="M307.6221,183.02177c0.88639,-0.75215 1.63855,0.13423 1.63855,0.13423l0.17683,0.25048c1.38966,1.05993 2.64319,2.30817 4.25923,3.04432c2.35649,1.07345 5.06297,0.35386 7.46652,0.04424c2.14829,-0.27672 2.41566,0.03429 3.83383,-1.48204c0,0 0.81366,-0.83029 1.64395,-0.01661c0.83029,0.81366 0.01661,1.64395 0.01661,1.64395c-1.83981,1.81533 -2.66149,1.82986 -5.19878,2.16085c-2.86619,0.37391 -5.86547,1.0289 -8.65714,-0.20454c-1.81693,-0.80278 -3.21966,-2.16266 -4.77179,-3.33963l-0.54205,-0.5967c0,0 -0.75215,-0.88639 0.13423,-1.63855z" fill="#000000" stroke-width="0.5"/><path d="M321.03583,177.62525c0.98385,-0.61925 1.60309,0.3646 1.60309,0.3646l0.29143,0.46786c0.13772,0.19068 0.26917,0.38189 0.395,0.57418c0.333,-0.05103 0.68857,-0.09236 1.07691,-0.13137l0.5615,-0.14945c0,0 1.12919,-0.27634 1.40553,0.85284c0.27634,1.12919 -0.85284,1.40553 -0.85284,1.40553l-0.88644,0.20491c-0.03741,0.0036 -0.07435,0.00713 -0.11082,0.01061c0.16448,0.36529 0.31899,0.7399 0.46711,1.12673c0,0 0.41427,1.0862 -0.67193,1.50045c-1.0862,0.41427 -1.50045,-0.67193 -1.50045,-0.67193c-0.19265,-0.50734 -0.3957,-0.98878 -0.62256,-1.45398c-0.28797,0.1467 -0.58253,0.34492 -0.91087,0.61895c0,0 -0.90945,0.72411 -1.63355,-0.18535c-0.72411,-0.90945 0.18535,-1.63355 0.18535,-1.63355c0.4138,-0.31867 0.79723,-0.56964 1.17392,-0.77001l-0.33498,-0.52795c0,0 -0.61925,-0.98385 0.3646,-1.60309z" data-paper-data="{&quot;index&quot;:null}" fill="#000000" stroke-width="0.5"/><path d="M305.20824,189.13836l0.97581,-4.29039c1.51328,2.4305 3.91835,4.30463 6.88045,5.0905c0.69493,0.31257 1.43103,0.56108 2.20268,0.73659c0.77165,0.1755 1.54282,0.26981 2.30458,0.28855c3.48149,0.66212 6.92082,-0.3101 9.4954,-2.39892l-1.19919,5.27253z" fill="#000000" stroke-width="NaN"/><path d="M310.25573,176.85418c0.62672,-0.97911 1.60582,-0.35239 1.60582,-0.35239l0.46284,0.29932c0.20578,0.11392 0.40612,0.23102 0.60181,0.35144c0.27961,-0.1879 0.58378,-0.37667 0.91858,-0.57724l0.44449,-0.37422c0,0 0.90418,-0.73068 1.63486,0.17351c0.73068,0.90418 -0.1735,1.63485 -0.1735,1.63485l-0.71492,0.56271c-0.03233,0.01919 -0.06424,0.0381 -0.09577,0.05677c0.30432,0.26054 0.60359,0.53377 0.90226,0.82077c0,0 0.83719,0.80657 0.03061,1.64374c-0.80657,0.83718 -1.64374,0.03061 -1.64374,0.03061c-0.39027,-0.37709 -0.77892,-0.72633 -1.1822,-1.05073c-0.19814,0.25532 -0.38033,0.56006 -0.5608,0.94777c0,0 -0.51476,1.04233 -1.55708,0.52757c-1.04232,-0.51476 -0.52757,-1.55709 -0.52757,-1.55709c0.23882,-0.4645 0.47895,-0.85479 0.73454,-1.19642l-0.52784,-0.33515c0,0 -0.97911,-0.62672 -0.35239,-1.60582z" data-paper-data="{&quot;index&quot;:null}" fill="#000000" stroke-width="0.5"/><path d="M329.92553,175.99711l-1.19919,5.27253c-1.4179,-2.99688 -4.0984,-5.36098 -7.5238,-6.26977c-0.69493,-0.31257 -1.43103,-0.56109 -2.20268,-0.7366c-0.77165,-0.1755 -1.54282,-0.26981 -2.30459,-0.28854c-3.0106,-0.57256 -5.98966,0.077 -8.40529,1.61391l0.97581,-4.29039z" data-paper-data="{&quot;index&quot;:null}" fill="#000000" stroke-width="NaN"/><path d="M325.86627,193.83827l-4.29039,-0.97581c2.36724,-1.23513 4.15467,-3.25904 4.84437,-5.79829c0.28912,-0.59181 0.51336,-1.22119 0.66401,-1.88359c0.15065,-0.66239 0.22069,-1.32686 0.21596,-1.98549c0.55091,-2.99252 -0.51985,-5.99859 -2.67296,-8.29053l5.27253,1.19919z" data-paper-data="{&quot;index&quot;:null}" fill="#000000" stroke-width="NaN"/><path d="M309.31064,171.31649l6.24394,-5.22855l19.23718,4.30745l-4.82364,5.6159z" fill="#bdffa3" stroke-width="NaN"/><path d="M329.96813,176.01129l4.82364,-5.6159l-3.35572,17.77165l-5.72747,5.74502z" fill="#000000" stroke-width="NaN"/></g></g></g></svg>