<svg version="1.1" xmlns="http://www.w3.org/2000/svg" xmlns:xlink="http://www.w3.org/1999/xlink" width="93.36936" height="250.99816" viewBox="0,0,93.36936,250.99816"><g transform="translate(-272.50442,-54.50172)"><g data-paper-data="{&quot;isPaintingLayer&quot;:true}" fill-rule="nonzero" stroke-linejoin="miter" stroke-miterlimit="10" stroke-dasharray="" stroke-dashoffset="0" style="mix-blend-mode: normal"><g stroke-linecap="butt"><path d="M280.0304,304.39162c0,0 0.36464,-94.38387 0.20665,-118.01201c-0.05451,-8.15261 8.18688,-36.76129 40.20201,-36.9211c31.60235,-0.15775 39.85672,29.48704 39.84884,36.89673c-0.05641,34.0601 1.15429,117.98648 1.15429,117.98648l-10.99667,0.09614l-0.15882,-114.84311c0,0 0.07549,-3.0993 -2.81625,-3.15415c-3.43441,-0.06514 -2.94538,3.11562 -2.94538,3.11562l0.20548,114.86995l-48.21366,0.07222l-0.30539,-115.23309c0,0 0.27949,-2.919 -2.8856,-2.93443c-3.11083,-0.01515 -2.81569,2.90899 -2.81569,2.90899l0.35311,115.0668z" fill="#000000" stroke="#000000" stroke-width="2"/><path d="M277.23705,193.87961c-0.05451,-8.15261 4.18688,-44.26129 43.20201,-44.4211c39.01513,-0.15981 42.85672,36.98704 42.84884,44.39673c-0.00772,4.65759 -13.45986,12.13276 -13.45986,12.13276l-0.59749,98.43818l-57.21366,0.07222l-0.91231,-98.50872c0,0 -13.84412,-8.60969 -13.86752,-12.11006z" fill="#4a314d" stroke="#4a314d" stroke-width="2"/><g stroke="#4a314d" stroke-width="0"><path d="M299.42325,215.95802c0,0 -3.97341,-25.56495 5.59978,-34.67379c9.5732,-9.10884 21.28814,-8.45732 30.17661,0c8.88846,8.45732 5.59978,34.67379 5.59978,34.67379c0,0 -1.15857,7.6039 -21.04902,7.6039c-19.25168,0 -20.32715,-7.6039 -20.32715,-7.6039z" fill="#000000"/><path d="M298.92325,215.34456c0,0 15.08818,-26.68961 20.82715,-26.68961c5.8082,0 21.54902,26.68961 21.54902,26.68961c0,0 -1.65856,9.60696 -21.54902,9.60696c-19.25167,0 -20.82715,-9.60696 -20.82715,-9.60696z" fill="#6b6570"/><path d="M311.6156,223.69076c-8.09262,-5.23366 7.93227,-31.75894 7.93227,-31.75894c0,0 16.93345,26.27632 8.31811,31.68209c-4.60873,2.89178 -11.84484,2.92601 -16.25038,0.07686z" data-paper-data="{&quot;index&quot;:null}" fill="#a8ba9a"/><path d="M319.78626,197.81373c0,0 14.86663,26.28695 0,26.28695c-14.38918,0 0,-26.28695 0,-26.28695z" data-paper-data="{&quot;index&quot;:null}" fill="#ace894"/></g><path d="M319.93906,242.45851c25.57025,-0.10474 30.88898,-36.47052 30.88898,-36.47052l-0.59749,98.43818l-59.21366,0.07222l-0.91231,-98.50872c0,0 5.81543,36.56723 29.83448,36.46884z" fill-opacity="0.25098" fill="#000000" stroke="#4a314d" stroke-width="0"/><path d="M319.93906,265.95851c25.57025,-0.10474 30.88898,-39.47052 30.88898,-39.47052l-0.59749,77.93818l-59.21366,0.07222l-0.91231,-78.00872c0,0 5.81542,39.56723 29.83448,39.46884z" fill-opacity="0.09804" fill="#000000" stroke="#4a314d" stroke-width="0"/></g><path d="" fill="#a8ba9a" stroke="#4a314d" stroke-width="0" stroke-linecap="butt"/><path d="" fill="#a8ba9a" stroke="#4a314d" stroke-width="0" stroke-linecap="butt"/><path d="" fill-opacity="0.10588" fill="#000000" stroke="none" stroke-width="0.60142" stroke-linecap="butt"/><g><path d="M275.9269,102.88012c0,0 6.16329,-5.92187 6.29161,-6.78761c0.33654,-2.27063 -0.16776,-40.17317 35.96775,-41.57382c44.63633,-0.91362 39.01489,35.34872 41.53088,42.1903c3.44981,9.38084 6.15664,17.40016 6.15664,17.40016c0,0 -2.76715,-2.05351 -4.0797,-3.13397c-1.2242,-1.00773 -3.80143,-3.14585 -3.80143,-3.14585c0,0 3.09111,10.3481 1.31092,20.69498c-1.5623,9.48098 -7.29782,17.22543 -7.29782,17.22543l-1.15522,-2.34735c0,0 -1.02266,2.19794 -2.16005,3.33274c-1.1374,1.13479 -3.43873,2.91273 -3.43873,2.91273l-0.09205,-3.70421c0,0 -7.0601,11.01795 -24.35066,10.87154c-16.30625,-0.25547 -26.07151,-10.6752 -26.07151,-10.6752l-0.1162,2.65484c0,0 -3.89477,-3.29276 -6.18145,-9.70754c-2.72545,-7.64567 -3.23946,-12.24324 -3.23946,-12.24324c0,0 -2.33908,1.89916 -5.71704,2.7744c-4.23278,1.09673 -6.94665,0.34526 -6.94665,0.34526c0,0 3.60795,-2.71717 5.58396,-4.76989c1.76007,-1.8284 2.64658,-3.37722 2.64658,-3.37722c0,0 -2.10758,1.0847 -4.23277,1.61795c-2.21739,0.5564 -4.03008,0.53093 -4.03008,0.53093c0,0 4.97492,-5.03728 7.03074,-10.87429c1.94102,-5.51108 2.09972,-10.95731 2.09972,-10.95731c0,0 -1.36165,0.66163 -3.33013,0.79513c-1.24776,0.08463 -2.37785,-0.0489 -2.37785,-0.0489z" fill="#000000" stroke="none" stroke-width="1.5" stroke-linecap="butt"/><g><path d="M341.33783,165.73819c-3.74168,-4.96569 -2.74941,-12.02442 2.21628,-15.76611c4.96569,-3.74168 12.02442,-2.74941 15.76611,2.21628c3.74168,4.96569 2.74941,12.02442 -2.21628,15.76611c-4.96569,3.74168 -12.02442,2.74941 -15.76611,-2.21628z" fill="#544f57" stroke="none" stroke-width="0.5" stroke-linecap="butt"/><g><path d="M319.75442,124.21637c3.86845,-2.82515 9.44974,-3.5214 14.41464,-2.5399c3.54256,0.79252 6.01128,4.67923 8.71745,7.36357c2.82813,2.80593 4.91509,6.31088 7.73589,8.94528c1.99236,1.89761 4.30368,3.17144 6.56784,4.52236c2.40181,1.43374 6.59758,1.25024 7.33702,3.93962c1.07256,3.54427 -1.41859,6.89823 -3.41024,9.5675c-3.11436,4.17257 -7.46281,7.18476 -11.50106,10.38949c-2.91036,2.06855 -5.98917,3.90883 -9.2673,5.34475c-3.04365,1.33711 -6.12388,2.90862 -9.55339,3.04735c-1.23527,0.03967 -2.76946,-1.40331 -3.32184,-2.79114c-0.81413,-2.29866 0.22834,-4.75617 -0.39687,-7.24206c-0.68083,-2.70794 -1.99788,-5.30721 -3.27867,-7.85233c-1.45315,-2.90843 -3.36574,-5.8247 -4.96888,-8.8067c-1.92152,-3.57996 -5.73642,-7.00942 -5.56267,-10.87104c0.17212,-5.10689 2.67113,-10.22841 6.48809,-13.01678z" fill="#a8ba9a" stroke="none" stroke-width="0.60142" stroke-linecap="round"/><path d="M355.871,142.67228c0,0 0.74456,4.60895 -11.93381,13.7879c-13.02908,9.43286 -16.74547,7.40564 -16.74547,7.40564" fill="none" stroke="#6b6570" stroke-width="1.5" stroke-linecap="round"/><path d="M335.46086,125.01916c0,0 0.50748,3.14138 -8.1339,9.39761c-8.88042,6.42929 -11.41345,5.04757 -11.41345,5.04757" fill="none" stroke="#6b6570" stroke-width="1.5" stroke-linecap="round"/><path d="M364.43602,146.32621c1.0182,3.47214 -1.49139,6.80161 -3.49763,9.45152c-3.13717,4.1423 -7.4823,7.15888 -11.52258,10.36093c-2.9088,2.07061 -5.98163,3.91884 -9.24685,5.3719c-0.48724,0.21744 -0.97549,0.44085 -1.46595,0.66343c-0.80763,-0.12622 -3.84637,2.38175 -6.12753,2.86223c-2.08239,0.4386 -3.44785,-1.15451 -3.63218,-1.09629c-0.6645,-0.52283 -1.24261,-1.27597 -1.53161,-2.01661c-0.52117,-1.508 -0.21563,-3.09655 -0.13433,-4.71382c4.24297,1.45492 8.7652,1.02774 12.23095,-1.58373c0.94959,-0.71552 1.7634,-1.55247 2.43987,-2.48274c2.9851,0.19656 5.90874,-0.56295 8.3207,-2.38037c2.6426,-1.99122 4.23384,-4.92295 4.73923,-8.18911c0.49701,-0.27144 0.97838,-0.58106 1.44094,-0.92961c2.53169,-1.90764 4.09841,-4.67851 4.66985,-7.77966c1.56162,0.45541 2.9408,1.04292 3.3171,2.46192z" fill-opacity="0.10588" fill="#000000" stroke="none" stroke-width="0.60142" stroke-linecap="butt"/><path d="M316.35816,130.80024c-1.21598,-1.61376 -0.64839,-5.7582 2.25535,-7.94618c2.90374,-2.18798 7.04405,-1.59095 8.26002,0.0228c1.21598,1.61376 -0.95285,3.63314 -3.8566,5.82112c-2.90374,2.18798 -5.4428,3.71602 -6.65878,2.10227z" fill="#6b6570" stroke="none" stroke-width="0.5" stroke-linecap="butt"/></g></g></g><path d="M301.6609,113.83945c0.03999,-2.75843 2.30855,-4.96213 5.06696,-4.92214c2.75843,0.03999 4.96213,2.30855 4.92214,5.06696c-0.03999,2.75843 -10.02909,2.61359 -9.9891,-0.14482z" fill="#ace894" stroke-opacity="0.25098" stroke="#ace895" stroke-width="8" stroke-linecap="butt"/><path d="M328.88228,113.80779c0,-2.81845 2.2848,-5.10325 5.10325,-5.10325c2.81845,0 5.10325,2.2848 5.10325,5.10325c0,2.81845 -10.2065,2.81845 -10.2065,0z" fill="#ace894" stroke-opacity="0.25098" stroke="#ace895" stroke-width="8" stroke-linecap="butt"/></g></g></svg>