<svg version="1.1" xmlns="http://www.w3.org/2000/svg" xmlns:xlink="http://www.w3.org/1999/xlink" width="112" height="261.77335" viewBox="0,0,112,261.77335"><g transform="translate(-265,-48.70632)"><g data-paper-data="{&quot;isPaintingLayer&quot;:true}" fill-rule="nonzero" stroke-linejoin="miter" stroke-miterlimit="10" stroke-dasharray="" stroke-dashoffset="0" style="mix-blend-mode: normal"><path d="M281.03039,304.39161c0,0 -0.63536,-94.38387 -0.79335,-118.01201c-0.05451,-8.15261 8.18688,-36.76129 40.20201,-36.9211c31.60235,-0.15775 39.85672,29.48704 39.84884,36.89673c-0.07659,46.24274 0.65429,117.98648 0.65429,117.98648l-10.49667,0.09614l-0.15882,-114.84311c0,0 0.07549,-3.0993 -2.81625,-3.15415c-3.43441,-0.06514 -2.94538,3.11562 -2.94538,3.11562l0.20548,114.86995l-48.21366,0.07222l-0.30539,-115.23309c0,0 0.27949,-2.919 -2.8856,-2.93443c-3.11083,-0.01515 -2.81569,2.90899 -2.81569,2.90899l0.35311,115.0668z" fill="#000000" stroke="#000000" stroke-width="2" stroke-linecap="butt"/><g><g fill="#000000" stroke="none" stroke-width="1.5" stroke-linecap="butt"><path d="M303.55286,199.29976c0,-0.57113 0.46298,-1.03413 1.03411,-1.03413c0.57112,0 1.03411,0.463 1.03411,1.03413c0,0.57112 -0.46298,1.03411 -1.03411,1.03411c-0.57112,0 -1.03411,-0.46298 -1.03411,-1.03411z"/><path d="M336.6255,200.33387c-0.57113,0 -1.03413,-0.46298 -1.03413,-1.03411c0,-0.57113 0.463,-1.03413 1.03413,-1.03413c0.57112,0 1.03411,0.463 1.03411,1.03413c0,0.57112 -0.46298,1.03411 -1.03411,1.03411z"/></g><path d="M333.25,156.7996c0,11.60191 -2.61665,23.00707 -13.25,23.00707c-10.63335,0 -13.25,-11.40519 -13.25,-23.00707c0,-11.60191 26.5,-11.60191 26.5,0z" fill="#000000" stroke="none" stroke-width="0" stroke-linecap="butt"/><g data-paper-data="{&quot;index&quot;:null}" stroke="none" stroke-width="0.5" stroke-linecap="butt"><path d="M363.82991,189.95933c0,0.80464 -0.38014,1.52049 -0.97062,1.97777c0.47062,0.70108 0.47062,1.52223 0.47062,1.52223c0,5.88203 0.13209,12.31296 0.97411,18.14117c0.54488,3.77152 -1.72411,80.33138 -1.72411,85.60883c-0.00151,1.98774 -0.09494,3.97662 -0.25864,5.95761l0.00601,1.24654c0.53251,0.34773 -3.04715,4.21522 -3.77291,4.43857c-0.86151,0.26513 -1.38512,1.24608 -2.25,1.5c-0.23091,0.06779 -5.27906,0.16376 -5.83775,0.1047c-1.37189,-0.14503 -3.00901,0.16701 -4.07814,-0.70481c-2.771,-2.25959 -2.89032,-7.25544 -3.28934,-10.48305c-1.10053,-8.90201 -0.26924,-18.34106 -0.26924,-27.30957c0,-23.70046 -2.95885,-47.329 -1.49883,-71.07647c0.03321,-5.16118 2.0174,-8.51346 4.86432,-12.72503c0.70122,-1.03734 0.99717,-2.5424 2.11669,-3.10318c2.61846,-1.31161 8.34402,-0.27614 11.17882,0.18869l2.57935,1.29538c0,0 1.2386,0.70777 1.30988,1.98965c0.28347,0.4054 0.44977,0.89876 0.44977,1.43096z" fill="#000000"/><path d="M363.82991,189.95933c0,0.80464 -0.38014,1.52049 -0.97062,1.97777c0.47062,0.70108 0.47062,1.52223 0.47062,1.52223c0,1.11597 -13.97499,14.17403 -13.97499,14.17403c0,0 1.67039,102.88245 1.1117,102.82339c-1.37189,-0.14503 -3.00901,0.16701 -4.07814,-0.70481c-2.771,-2.25959 -2.89032,-7.25544 -3.28934,-10.48305c-1.10053,-8.90201 -0.26924,-18.34106 -0.26924,-27.30957c0,-23.70046 -2.95885,-47.329 -1.49883,-71.07647c0.03321,-5.16118 2.0174,-8.51346 4.86432,-12.72503c0.70122,-1.03734 0.99717,-2.5424 2.11669,-3.10318c2.61846,-1.31161 8.34402,-0.27614 11.17882,0.18869l2.57935,1.29538c0,0 1.2386,0.70777 1.30988,1.98965c0.28347,0.4054 0.44977,0.89876 0.44977,1.43096z" fill="#0e0e0e"/></g><g fill="#0e0e0e" stroke="none" stroke-width="0" stroke-linecap="butt"><path d="M326.25,182.94172c0,3.79141 -2.57436,6.86494 -5.75,6.86494c-3.17564,0 -5.75,-3.07354 -5.75,-6.86494c0,-3.79141 11.5,-3.79141 11.5,0z"/><path d="M320.5,244.56856c-3.17564,0 -5.75,-24.44785 -5.75,-24.44785c0,0 2.57436,-36.03118 5.75,-36.03118c3.17564,0 5.75,36.03118 5.75,36.03118c0,0 -2.57436,24.44785 -5.75,24.44785z"/></g><g stroke="none" stroke-width="0.5" stroke-linecap="butt"><path d="M277.12502,189.95932c0,-0.5322 0.1663,-1.02556 0.44977,-1.43096c0.07128,-1.28188 1.30988,-1.98965 1.30988,-1.98965l2.57935,-1.29538c2.8348,-0.46483 8.56036,-1.5003 11.17882,-0.18869c1.11952,0.56078 1.41547,2.06584 2.11669,3.10318c2.84692,4.21157 4.83111,7.56385 4.86432,12.72503c1.46002,23.74747 -1.49883,47.37601 -1.49883,71.07647c0,8.96851 0.83129,18.40756 -0.26924,27.30957c-0.39902,3.22761 -0.51834,8.22346 -3.28934,10.48305c-1.06913,0.87182 -2.70625,0.55978 -4.07814,0.70481c-0.55869,0.05906 -5.60684,-0.03691 -5.83775,-0.1047c-0.86488,-0.25392 -1.38849,-1.23487 -2.25,-1.5c-0.72576,-0.22335 -4.30542,-4.09084 -3.77291,-4.43857l0.00601,-1.24654c-0.1637,-1.98099 -0.25713,-3.96987 -0.25864,-5.95761c0,-5.27745 -2.26899,-81.83731 -1.72411,-85.60883c0.84202,-5.82821 0.97411,-12.25914 0.97411,-18.14117c0,0 0,-0.82115 0.47062,-1.52223c-0.59048,-0.45728 -0.97062,-1.17313 -0.97062,-1.97777z" fill="#000000"/><path d="M277.12502,189.95932c0,-0.5322 0.1663,-1.02556 0.44977,-1.43096c0.07128,-1.28188 1.30988,-1.98965 1.30988,-1.98965l2.57935,-1.29538c2.8348,-0.46483 8.56036,-1.5003 11.17882,-0.18869c1.11952,0.56078 1.41547,2.06584 2.11669,3.10318c2.84692,4.21157 4.83111,7.56385 4.86432,12.72503c1.46002,23.74747 -1.49883,47.37601 -1.49883,71.07647c0,8.96851 0.83129,18.40756 -0.26924,27.30957c-0.39902,3.22761 -0.51834,8.22346 -3.28934,10.48305c-1.06913,0.87182 -2.70625,0.55978 -4.07814,0.70481c-0.55869,0.05906 1.1117,-102.82339 1.1117,-102.82339c0,0 -13.97499,-13.05806 -13.97499,-14.17403c0,0 0,-0.82115 0.47062,-1.52223c-0.59048,-0.45728 -0.97062,-1.17313 -0.97062,-1.97777z" fill="#0e0e0e"/></g><path d="M299.37502,160.72967c0,0 2.29307,28.72091 5.19257,41.43408c2.43605,10.68115 14.39076,29.81592 14.39076,29.81592l0.75,78.5l-26.08333,-2c0,0 0,-10.57052 0,-19.75c0,-9.17948 0.5,-23.5 0.5,-23.5l0.25,-59.5l-17.5,-15.25c0,0 0.78817,-18.9227 8.5,-25.25c4.43676,-3.64022 14,-4.5 14,-4.5z" fill="#000000" stroke="#000000" stroke-width="0" stroke-linecap="round"/><path d="M289.6496,185.3146c0,0 4.15199,-7.88156 2.93947,-12.901c-1.21252,-5.01944 -8.214,-8.93389 -8.214,-8.93389l19,-13.25c0,0 -1.91889,10.34068 1.66667,34.91667c3.58555,24.576 14,47.33333 14,47.33333z" fill="#0e0e0e" stroke="#000000" stroke-width="0" stroke-linecap="round"/><path d="M355.59295,165.22967c7.71183,6.3273 8.5,25.25 8.5,25.25l-17.5,15.25l0.25,59.5c0,0 0.5,14.32052 0.5,23.5c0,9.17948 0,19.75 0,19.75l-26.08333,2l0.75,-78.5c0,0 11.95471,-19.13477 14.39076,-29.81592c2.89949,-12.71317 5.19257,-41.43408 5.19257,-41.43408c0,0 9.56324,0.85978 14,4.5z" fill="#000000" stroke="#000000" stroke-width="0" stroke-linecap="round"/><path d="M321.92624,232.47971c0,0 10.41444,-22.75734 13.99999,-47.33333c3.58556,-24.57599 1.66667,-34.91667 1.66667,-34.91667l19,13.25c0,0 -7.10188,4.33005 -8.214,8.93389c-1.11212,4.60384 2.93947,12.901 2.93947,12.901z" fill="#0e0e0e" stroke="#000000" stroke-width="0" stroke-linecap="round"/><path d="M318.83333,310.40003v-78.26666h3.33333v78.26666z" fill="#0e0e0e" stroke="none" stroke-width="0" stroke-linecap="butt"/></g><path d="M275.9269,103.88011c0,0 6.16329,-5.92187 6.29161,-6.78761c0.33654,-2.27063 -0.16776,-40.17317 35.96775,-41.57382c44.63633,-0.91362 39.01489,35.34872 41.53088,42.1903c3.44981,9.38084 6.15664,17.40016 6.15664,17.40016c0,0 -2.76715,-2.05351 -4.0797,-3.13397c-1.2242,-1.00773 -3.80143,-3.14585 -3.80143,-3.14585c0,0 3.09111,10.3481 1.31092,20.69498c-1.5623,9.48098 -7.29782,17.22543 -7.29782,17.22543l-1.15522,-2.34735c0,0 -1.02266,2.19794 -2.16005,3.33274c-1.1374,1.13479 -3.43873,2.91273 -3.43873,2.91273l-0.09205,-3.70421c0,0 -7.0601,11.01795 -24.35066,10.87154c-16.30625,-0.25547 -26.07151,-10.6752 -26.07151,-10.6752l-0.1162,2.65484c0,0 -3.89477,-3.29276 -6.18145,-9.70754c-2.72545,-7.64567 -3.23946,-12.24324 -3.23946,-12.24324c0,0 -2.33908,1.89916 -5.71704,2.7744c-4.23278,1.09673 -6.94665,0.34526 -6.94665,0.34526c0,0 3.60795,-2.71717 5.58396,-4.76989c1.76007,-1.8284 2.64658,-3.37722 2.64658,-3.37722c0,0 -2.10758,1.0847 -4.23277,1.61795c-2.21739,0.5564 -4.03008,0.53093 -4.03008,0.53093c0,0 4.97492,-5.03728 7.03074,-10.87429c1.94102,-5.51108 2.09972,-10.95731 2.09972,-10.95731c0,0 -1.36165,0.66163 -3.33013,0.79513c-1.24776,0.08463 -2.37785,-0.0489 -2.37785,-0.0489z" fill="#000000" stroke="none" stroke-width="1.5" stroke-linecap="butt"/><path d="M292.71279,115.20173c-0.57709,-7.29323 0.335,-17.15448 0.335,-17.15448c0,0 3.41059,-0.04124 13.91429,-3.14424c8.0696,-2.38394 20.54731,-9.48722 20.54731,-9.48722c0,0 -2.16005,3.00503 -3.40781,4.46015c-1.32651,1.54696 -3.99292,4.56297 -3.99292,4.56297c0,0 7.838,-1.66761 14.67476,-4.72931c8.56837,-3.53575 10.59252,-6.05309 12.95042,-4.5927c2.7829,1.72362 1.03006,23.1827 0.71846,28.74062c-0.42163,5.66922 -2.53327,9.49969 -3.15031,12.52053c-0.61704,3.02084 -0.4096,6.13662 -2.20622,16.0397c-1.12121,6.18021 -4.16183,8.92466 -10.01942,14.66081c-5.85759,5.73616 -9.05378,9.25275 -13.01359,9.32173c-3.81077,0.06639 -8.93565,-5.1002 -13.93542,-10.38244c-5.32393,-5.62474 -8.87489,-8.47713 -9.71551,-15.13975c-0.75707,-6.00039 -0.77653,-9.90853 -1.12266,-15.24835c-0.25298,-3.90273 -2.26119,-6.44504 -2.57636,-10.42801z" fill="#000000" stroke="#000000" stroke-width="1.5" stroke-linecap="butt"/><path d="M297.22324,114.72149c0.07093,-4.89188 4.83834,-8.93609 10.21137,-8.8582c5.37302,0.0779 9.02724,4.2484 8.95632,9.14029c-0.07093,4.89188 -4.12352,8.79439 -9.49655,8.7165c-5.37302,-0.0779 -9.74207,-4.1067 -9.67114,-8.99859z" fill="#ffffff" stroke="#000000" stroke-width="1.4" stroke-linecap="butt"/><path d="M301.66088,114.83943c0.03999,-2.75843 2.30855,-4.96213 5.06696,-4.92214c2.75843,0.03999 4.96213,2.30855 4.92214,5.06696c-0.03999,2.75843 -2.30854,4.96213 -5.06696,4.92214c-2.75843,-0.03999 -4.96213,-2.30855 -4.92214,-5.06696z" fill="#404040" stroke="none" stroke-width="1.5" stroke-linecap="butt"/><path d="M324.27952,114.72222c0.20353,-4.88817 4.45264,-8.85847 9.77048,-8.85847c5.31783,0 9.27453,3.96607 9.27453,8.85847c0,4.8924 -3.88585,9.07104 -9.69964,9.14188c-5.52997,0.06739 -9.55792,-4.03692 -9.34537,-9.14188z" fill="#ffffff" stroke="#000000" stroke-width="1.4" stroke-linecap="butt"/><path d="M328.88227,114.80777c0,-2.81845 2.2848,-5.10325 5.10325,-5.10325c2.81845,0 5.10325,2.2848 5.10325,5.10325c0,2.81845 -2.28479,5.10325 -5.10325,5.10325c-2.81845,0 -5.10325,-2.2848 -5.10325,-5.10325z" fill="#404040" stroke="none" stroke-width="1.5" stroke-linecap="butt"/><path d="M297.15481,114.18931c0,0 0.06357,-9.01512 10.60111,-8.8249c9.47101,0.16586 9.55554,9.40723 9.55554,9.40723z" fill="#000000" stroke="#000000" stroke-width="1.15" stroke-linecap="butt"/><path d="M323.90187,114.32021c0,0 -0.24686,-9.4582 11.19813,-9.1032c9.71427,0.33347 9.54677,9.65229 9.54677,9.65229z" fill="#000000" stroke="#000000" stroke-width="1.15" stroke-linecap="butt"/><g stroke-linecap="butt"><path d="M317.74924,114.56326c0,10.58418 -5.65223,13.68677 -12.62462,13.68677c-6.97238,0 -12.62462,-3.10258 -12.62462,-13.68677c0,-5.32772 25.24924,-5.25646 25.24924,0z" fill-opacity="0.50196" fill="#000000" stroke="#1b1b1b" stroke-width="1.5"/><path d="M348.66667,114.56326c0,10.58418 -5.65223,13.68677 -12.62462,13.68677c-6.97238,0 -12.62462,-3.10258 -12.62462,-13.68677c0,-5.34988 25.24924,-5.2343 25.24924,0z" fill-opacity="0.50196" fill="#000000" stroke="#1b1b1b" stroke-width="1.5"/><path d="M324.2285,114.82111c1.74919,0.88205 1.50835,3.81672 0.09758,3.61321c-1.48576,-0.21433 -7.09236,-0.24526 -7.65109,-0.15272c-1.42255,0.23561 -1.54464,-2.67316 0.23089,-3.57286c0.83733,-0.42429 6.31658,-0.39495 7.32263,0.11237z" fill="#1b1b1b" stroke="none" stroke-width="0.5"/></g><g fill="#000000" stroke="none" stroke-width="0" stroke-linecap="butt"><path d="M377,95.4432c0,10.26012 -112,10.26012 -112,0c0,-10.26012 112,-10.26012 112,0z"/><path d="M357.65455,86.86159c0,21.90953 -73.30909,21.90953 -73.30909,0c0,-43.81906 16.4108,-37.88583 36.65455,-37.88583c20.24375,0 36.65455,-5.93323 36.65455,37.88583z"/></g><path d="M328.31389,151.29794c-0.01032,0.74986 -0.53831,0.7352 -0.53831,0.7352l-0.06717,-0.04036c-0.57723,0.25511 -12.80679,0.32034 -15.1951,0.28336c0,0 -0.52799,-0.01466 -0.51767,-0.76452c0.01032,-0.74986 0.53831,-0.7352 0.53831,-0.7352c1.90848,0.08284 14.34982,0.01069 14.86011,-0.21567l0.40216,-0.02733c0,0 0.52799,0.01466 0.51767,0.76452z" fill="#1b1b1b" stroke="none" stroke-width="0.5" stroke-linecap="butt"/><g data-paper-data="{&quot;index&quot;:null}" fill="#1b1b1b" stroke="none" stroke-width="0.5" stroke-linecap="butt"><path d="M313.04622,107.78569l-0.40216,-0.02733c-0.51029,-0.22636 -12.95163,-0.29851 -14.86011,-0.21567c0,0 -0.52799,0.01466 -0.53831,-0.7352c-0.01032,-0.74986 0.51767,-0.76452 0.51767,-0.76452c2.38831,-0.03698 14.61787,0.02825 15.1951,0.28336l0.06717,-0.04036c0,0 0.52799,-0.01466 0.53831,0.7352c0.01032,0.74986 -0.51767,0.76452 -0.51767,0.76452z"/><path d="M327.24564,107.02117c0.01033,-0.74985 0.53832,-0.7352 0.53832,-0.7352l0.06717,0.04036c0.57723,-0.25511 12.80679,-0.32035 15.1951,-0.28336c0,0 0.528,0.01467 0.51767,0.76452c-0.01033,0.74985 -0.53832,0.73519 -0.53832,0.73519c-1.90848,-0.08285 -14.34982,-0.01069 -14.86011,0.21567l-0.40216,0.02733c0,0 -0.528,-0.01467 -0.51767,-0.76452z" data-paper-data="{&quot;index&quot;:null}"/></g></g></g></svg>