<svg version="1.1" xmlns="http://www.w3.org/2000/svg" xmlns:xlink="http://www.w3.org/1999/xlink" width="35.125" height="35.12434" viewBox="0,0,35.125,35.12434"><g transform="translate(-302.43752,-162.43783)"><g data-paper-data="{&quot;isPaintingLayer&quot;:true}" stroke-linecap="round" stroke-miterlimit="10" stroke-dasharray="" stroke-dashoffset="0" style="mix-blend-mode: normal"><path d="M337.56251,169.8317v20.49804c0,4.00745 -3.22497,7.23243 -7.23242,7.23243h-20.5c-3.66107,0 -6.66147,-2.69385 -7.1543,-6.21484c0.7952,3.03475 3.54108,5.26367 6.83204,5.26367h20.0332c3.9166,0 7.07032,-3.15372 7.07032,-7.07031v-20.03321c0,-3.2976 -2.23906,-6.0451 -5.28321,-6.83398c3.52994,0.48496 6.23438,3.49081 6.23438,7.15821z" fill-opacity="0.29839" fill="#000000" fill-rule="evenodd" stroke="none" stroke-width="4.54219" stroke-linejoin="round"/><path d="M309.50719,162.43783h20.03378c3.9166,0 7.06966,3.15307 7.06966,7.06966v20.03379c0,3.91659 -3.15307,7.06966 -7.06966,7.06966h-20.03378c-3.91659,0 -7.06967,-3.15307 -7.06967,-7.06966v-20.03379c0,-3.91659 3.15308,-7.06966 7.06967,-7.06966z" fill-opacity="0.35294" fill="#bc47ff" fill-rule="evenodd" stroke="none" stroke-width="4.43922" stroke-linejoin="round"/><g><path d="M312.39746,166.81445l1.4015,2.98771l1.65355,-1.06981l2.77814,6.29327" fill="none" fill-rule="nonzero" stroke="#bc47ff" stroke-width="1" stroke-linejoin="miter"/><path d="M322.52148,175.36133l3.72312,-5.78461l1.46704,1.31397l1.84913,-2.73338" data-paper-data="{&quot;index&quot;:null}" fill="none" fill-rule="nonzero" stroke="#bc47ff" stroke-width="1" stroke-linejoin="miter"/><g fill-rule="evenodd" stroke="none" stroke-width="4.43922" stroke-linejoin="round"><path d="M309.03827,191.73308l1.27924,-16.3501l19.96525,1.56209l-1.27924,16.3501z" fill="#bc47ff"/><path d="M310.30901,187.64006l0.62719,-8.01622c0.12261,-1.56716 1.88914,-2.69833 3.96083,-2.53624l10.59685,0.8291c2.07168,0.16209 3.64077,1.55424 3.51815,3.1214l-0.62719,8.01623c-0.12261,1.56716 -1.88914,2.69833 -3.96082,2.53624l-10.59685,-0.8291c-2.07168,-0.16209 -3.64078,-1.55424 -3.51817,-3.1214z" fill="#000000"/><path d="M329.03631,175.04094l1.24192,1.96193l-19.96524,-1.56209l1.53194,-1.74489z" fill="#000000"/></g></g></g></g></svg>