<svg version="1.1" xmlns="http://www.w3.org/2000/svg" xmlns:xlink="http://www.w3.org/1999/xlink" width="35.125" height="35.12434" viewBox="0,0,35.125,35.12434"><g transform="translate(-302.43752,-162.43783)"><g data-paper-data="{&quot;isPaintingLayer&quot;:true}" stroke="none" stroke-miterlimit="10" stroke-dasharray="" stroke-dashoffset="0" style="mix-blend-mode: normal"><path d="M337.56251,169.8317v20.49804c0,4.00745 -3.22497,7.23243 -7.23242,7.23243h-20.5c-3.66107,0 -6.66147,-2.69385 -7.1543,-6.21484c0.7952,3.03475 3.54108,5.26367 6.83204,5.26367h20.0332c3.9166,0 7.07032,-3.15372 7.07032,-7.07031v-20.03321c0,-3.2976 -2.23906,-6.0451 -5.28321,-6.83398c3.52994,0.48496 6.23438,3.49081 6.23438,7.15821z" fill-opacity="0.29839" fill="#000000" fill-rule="evenodd" stroke-width="4.54219" stroke-linecap="round" stroke-linejoin="round"/><path d="M309.50719,162.43783h20.03378c3.9166,0 7.06966,3.15307 7.06966,7.06966v20.03379c0,3.91659 -3.15307,7.06966 -7.06966,7.06966h-20.03378c-3.91659,0 -7.06967,-3.15307 -7.06967,-7.06966v-20.03379c0,-3.91659 3.15308,-7.06966 7.06967,-7.06966z" fill-opacity="0.35294" fill="#bc47ff" fill-rule="evenodd" stroke-width="4.43922" stroke-linecap="round" stroke-linejoin="round"/><g fill-rule="nonzero" stroke-linecap="butt" stroke-linejoin="miter"><g stroke-width="0"><path d="M326.11244,188.94215c-0.65062,3.69128 -4.07834,4.43822 -8.02174,3.74316c-3.94339,-0.69506 -6.90918,-2.5689 -6.25856,-6.26019c0.13099,-0.74315 0.9184,-3.07563 1.27526,-3.70126c1.41565,-2.4819 4.18992,-3.96098 7.3394,-3.40586c3.26744,0.57591 5.42478,3.07442 5.77894,6.02813c0.07327,0.61105 -0.00178,2.96328 -0.11331,3.59602z" fill="#000000"/><path d="M326.32282,190.95657c0,0 -2.39837,2.30629 -5.90096,2.2802c-0.76838,-0.00573 -4.06449,-0.59385 -4.81912,-0.86943c-3.23909,-1.18288 -4.65697,-4.12111 -4.65697,-4.12111c0,0 0.68369,-1.03316 1.91479,-0.53825c1.91333,0.76917 4.38255,1.8288 4.52187,2.17931c0.21464,0.54 1.91449,0.83597 2.29222,0.39687c0.2809,-0.32654 2.99245,-0.45198 5.05843,-0.50017c1.31417,-0.03065 1.58974,1.17258 1.58974,1.17258z" fill="#000000"/><path d="M315.09193,188.12746c-0.04022,0.22818 -0.5805,0.32368 -1.20675,0.21329c-0.62626,-0.11038 -1.10133,-0.38484 -1.06111,-0.61302c0.04022,-0.22818 0.5805,-0.32367 1.20675,-0.21329c0.62626,0.11038 1.10133,0.38484 1.06111,0.61302z" fill="#bc47ff"/><path d="M323.77871,189.23259c0.62626,0.11038 1.10132,0.38484 1.06111,0.61302c-0.04022,0.22818 -0.5805,0.32368 -1.20675,0.21329c-0.62626,-0.11038 -1.10133,-0.38484 -1.06111,-0.61302c0.04022,-0.22818 0.5805,-0.32367 1.20675,-0.21329z" fill="#bc47ff"/><g fill="#bc47ff"><path d="M319.92136,189.2359c-0.02541,0.14418 -0.68621,0.78748 -1.34112,0.67204c-0.65491,-0.11543 -1.05595,-0.94589 -1.03054,-1.09007c0.02541,-0.14418 2.39708,0.27385 2.37167,0.41803z"/><path d="M319.35801,189.21752c-0.04385,0.24881 -0.55288,1.47027 -0.9043,1.40833c-0.35142,-0.06194 -0.41216,-1.38382 -0.3683,-1.63264c0.04385,-0.24881 1.31645,-0.0245 1.2726,0.22431z"/></g></g><g stroke-width="1"><g fill="#bc47ff"><path d="M324.67742,180.40015c3.59151,0.85151 9.80146,4.98141 9.80146,4.98141c-4.87007,3.41676 -13.71137,1.42264 -13.71137,1.42264c-12.99895,-2.32826 -15.24634,-6.64398 -15.24634,-6.64398c1.53743,-0.85276 9.74648,-1.29523 9.74648,-1.29523c1.36344,0.70328 9.39949,1.55919 9.40977,1.53516z"/></g><g><path d="M314.6873,179.00167c0.07303,-0.24949 0.14607,-0.49898 0.19095,-0.76121c0.0098,-0.10152 0.04774,-0.1903 0.05754,-0.29183c0.01264,-0.02959 0.12077,-0.4398 0.03509,-0.16071c0.12362,-0.36786 0.08407,-0.66831 -0.01178,-0.99426c0.22013,-0.1339 2.65924,-2.7826 2.96076,-4.91169c0.38241,-2.70028 -1.3908,-4.99521 -1.3908,-4.99521c0,0 6.8847,-1.51371 9.50863,6.04907c1.10248,3.17761 -0.12498,6.83872 -0.12747,7.47333c0.00161,0.38924 -11.27065,-1.2172 -11.22291,-1.4075z" fill="#bc47ff"/><g fill="#4f0147"><path d="M314.99044,177.72578c-0.00599,0.02051 -0.0125,0.04121 -0.01953,0.06214c0.00821,-0.02671 0.01462,-0.04711 0.01953,-0.06214z"/></g></g><g fill="#000000"><path d="M325.99379,181.47125c-1.01576,0.1759 -2.04701,0.30947 -3.08112,0.37111c-1.32575,0.06576 -3.75429,-0.3809 -5.51713,-0.98468c-2.07046,-0.70913 -3.38907,-1.59913 -3.38907,-1.59913c0,0 -0.16271,-0.36865 0.21526,-1.33503c0.51492,-1.31652 0.72189,-1.17219 0.72189,-1.17219c0,0 1.38002,0.72783 3.20051,1.27464c1.21269,0.36425 2.76598,0.56452 3.70605,0.7218c1.61538,0.30747 4.39384,-0.37725 4.39384,-0.37725c0,0 0.2151,0.03839 0.51403,1.33965c0.27988,1.21832 0.01368,1.51284 0.01368,1.51284c0,0 -0.53032,0.21907 -0.77793,0.24824z"/></g></g></g><g fill="#000000" fill-rule="nonzero" stroke-width="1" stroke-linecap="butt" stroke-linejoin="miter"><path d="M324.67741,180.40014c3.59151,0.85151 9.80146,4.98141 9.80146,4.98141c-4.87007,3.41676 -13.71137,1.67264 -13.71137,1.67264c-2.00937,-0.3599 -3.76184,-0.89229 -5.28881,-1.32389c0.41972,-0.12176 0.82806,-0.27301 1.22306,-0.451c3.12658,-0.43455 5.79071,-2.31467 7.29557,-4.94358c0.42429,0.04529 0.67827,0.06867 0.68009,0.06441z"/><path d="M326.0377,172.93582c1.10248,3.17761 -0.12498,6.83872 -0.12747,7.47333c0.00043,0.10243 -0.77988,0.06666 -1.92917,-0.04514c0.84692,-1.46838 1.33146,-3.17209 1.33146,-4.98898c0,-3.19463 -1.49802,-6.03938 -3.82993,-7.87012c1.72346,0.78725 3.49018,2.36157 4.5551,5.43091z"/></g></g></g></svg>