<svg version="1.1" xmlns="http://www.w3.org/2000/svg" xmlns:xlink="http://www.w3.org/1999/xlink" width="34.17311" height="34.17311" viewBox="0,0,34.17311,34.17311"><g transform="translate(-302.91345,-162.9135)"><g data-paper-data="{&quot;isPaintingLayer&quot;:true}" stroke="none" stroke-miterlimit="10" stroke-dasharray="" stroke-dashoffset="0" style="mix-blend-mode: normal"><path d="M309.98311,162.9135h20.03379c3.9166,0 7.06966,3.15307 7.06966,7.06966v20.03379c0,3.91659 -3.15306,7.06966 -7.06966,7.06966h-20.03379c-3.91659,0 -7.06966,-3.15307 -7.06966,-7.06966v-20.03379c0,-3.91659 3.15307,-7.06966 7.06966,-7.06966z" fill-opacity="0.35294" fill="#ff2e5f" fill-rule="evenodd" stroke-width="4.43922" stroke-linecap="round" stroke-linejoin="round"/><g fill-rule="nonzero" stroke-linecap="butt" stroke-linejoin="miter"><g fill="#ff2e5f"><path d="M335.9665,182.18566c0,0 -2.09027,0.86583 -3.15658,2.13012c-0.9993,1.18483 -0.92773,2.75428 -2.36088,3.2859c-1.40392,0.52077 -12.59644,5.18709 -12.59644,5.18709c0,0 -8.52721,-8.66993 -9.57298,-9.64715c-1.19792,-1.11938 -0.55106,-2.70659 -1.00837,-4.25488c-0.42805,-1.44922 -1.99809,-2.89962 -1.99809,-2.89962c0,0 7.56969,2.33084 15.26718,3.89421c7.64558,1.55283 15.42616,2.30433 15.42616,2.30433z" stroke-width="NaN"/><path d="M316.49775,175.9876c0.50881,-2.51944 2.71845,-2.93513 5.23789,-2.42634c2.51944,0.50881 4.39459,1.74943 3.88578,4.26887c-0.50881,2.51944 -3.20888,5.36361 -5.72832,4.8548c-2.51944,-0.50881 -3.90416,-4.17791 -3.39535,-6.69734z" stroke-width="0"/><path d="M316.48822,175.68711c0.32337,-1.60121 1.28423,-7.92353 1.28423,-7.92353l3.93387,5.72312l5.93185,-3.73074c0,0 -1.55265,6.12381 -1.87295,7.70985c-0.32337,1.60121 -9.59728,-0.19269 -9.27699,-1.77872z" stroke-width="0"/></g><path d="M335.9665,182.18566c0,0 -2.09027,0.86583 -3.15658,2.13012c-0.9993,1.18484 -0.92772,2.75428 -2.36088,3.2859c-1.40392,0.52077 -12.59643,5.18709 -12.59643,5.18709c0,0 -2.18431,-2.22088 -4.47748,-4.54126c2.74126,-0.9797 8.42255,-4.35284 6.35101,-6.28477c-1.17648,-1.09719 0.07566,-4.46275 4.68475,-1.35896c6.19469,1.06408 11.55561,1.58187 11.55561,1.58187z" fill="#000000" stroke-width="NaN"/><path d="M325.62143,177.83013c-0.50881,2.51944 -3.20888,5.36361 -5.72832,4.8548c-1.00982,-0.20393 -1.83735,-0.91559 -2.43374,-1.85741c-0.17897,-0.28264 -0.33713,-0.58601 -0.47314,-0.90261c0.14676,-0.13223 1.71907,0.35301 4.30335,-2.36478c2.248,-2.36413 0.5158,-4.15561 0.5158,-4.15561c0,0 1.01878,0.42932 1.35465,0.5557c1.75144,0.65905 2.86813,1.85588 2.46139,3.86991z" fill="#000000" stroke-width="0"/><path d="M327.63817,169.75596c0,0 -1.55265,6.12381 -1.87295,7.70985c-0.00175,0.00864 -0.00375,0.01719 -0.00602,0.02564c-1.19673,-1.45786 -2.54706,-2.77967 -4.02354,-3.94274c-0.00553,-0.02333 -0.01108,-0.04666 -0.01668,-0.06997z" fill="#000000" stroke-width="0"/></g></g></g></svg>