<svg version="1.1" xmlns="http://www.w3.org/2000/svg" xmlns:xlink="http://www.w3.org/1999/xlink" width="35.17311" height="35.17311" viewBox="0,0,35.17311,35.17311"><defs><linearGradient x1="321.90867" y1="168.88923" x2="319.73873" y2="189.52901" gradientUnits="userSpaceOnUse" id="color-1"><stop offset="0" stop-color="#ffffff"/><stop offset="1" stop-color="#ffffff" stop-opacity="0.38039"/></linearGradient><linearGradient x1="321.81212" y1="184.70984" x2="321.37609" y2="188.85739" gradientUnits="userSpaceOnUse" id="color-2"><stop offset="0" stop-color="#ffffff" stop-opacity="0.61176"/><stop offset="1" stop-color="#ffffff" stop-opacity="0.39608"/></linearGradient><linearGradient x1="316.26354" y1="175.0413" x2="315.51144" y2="182.19501" gradientUnits="userSpaceOnUse" id="color-3"><stop offset="0" stop-color="#ffffff" stop-opacity="0.71765"/><stop offset="1" stop-color="#ffffff" stop-opacity="0.54902"/></linearGradient></defs><g transform="translate(-302.41345,-162.41344)"><g data-paper-data="{&quot;isPaintingLayer&quot;:true}" stroke-miterlimit="10" stroke-dasharray="" stroke-dashoffset="0" style="mix-blend-mode: normal"><path d="M309.98312,162.91345h20.03378c3.9166,0 7.06966,3.15307 7.06966,7.06966v20.03379c0,3.91659 -3.15306,7.06966 -7.06966,7.06966h-20.03378c-3.91659,0 -7.06967,-3.15307 -7.06967,-7.06966v-20.03379c0,-3.91659 3.15308,-7.06966 7.06967,-7.06966z" fill-opacity="0.09677" fill="#191919" fill-rule="evenodd" stroke="#ffffff" stroke-width="1" stroke-linecap="round" stroke-linejoin="round"/><g fill-rule="nonzero" stroke="none" stroke-width="0" stroke-linecap="butt" stroke-linejoin="miter"><g><path d="M309.77711,191.51991l0.29818,-2.8362l17.81415,1.87287l-0.29818,2.8362c0,0 -0.46011,3.04853 -9.10777,2.0996c-8.84001,-0.97004 -8.70638,-3.97247 -8.70638,-3.97247z" fill="#bfbfbf"/><path d="M313.38872,194.46075c0.03402,-0.37615 0.06501,-0.74962 0.09203,-1.11888c0.09343,-1.27677 0.11618,-2.56439 0.21747,-3.84079c0.01262,-0.15905 0.03003,-0.30198 0.04987,-0.43122l1.61563,0.16986c-0.07781,0.79972 -0.1596,1.59907 -0.23131,2.39936c-0.04828,0.53885 -0.09251,1.0781 -0.14629,1.61643c-0.06534,0.65409 -0.2071,1.16247 -0.32083,1.57986c-0.46908,-0.11859 -0.89316,-0.24425 -1.27656,-0.37461z" fill="#ffffff"/><path d="M309.77711,191.51991l0.29818,-2.8362l2.84522,0.29913c-0.01435,0.14859 5.95552,3.56477 5.95552,3.56477c0,0 -2.50201,-0.15819 -3.61066,-0.26054c-0.88597,-0.08179 -2.52423,-0.30584 -2.52423,-0.30584c0,0 -0.04004,0.86907 -0.08028,1.30064c-0.02711,0.29066 -0.05544,0.58119 -0.08469,0.87164c-2.86265,-1.20476 -2.79906,-2.63359 -2.79906,-2.63359z" fill="#ffffff"/><path d="M327.90567,190.52097c-0.17234,1.63921 -4.29856,2.54893 -9.21618,2.03192c-4.91762,-0.51701 -8.76443,-2.26496 -8.5921,-3.90417c0.17234,-1.63921 4.29856,-2.54893 9.21618,-2.03192c4.91762,0.51701 8.76443,2.26496 8.5921,3.90417z" fill="#bfbfbf"/></g><g><path d="M310.82084,188.63893c0,0 1.23019,-11.70121 1.71207,-16.28471c0.3521,-3.34904 1.83256,-8.51248 8.99487,-7.84458c7.67641,0.71584 7.91973,5.93214 7.57908,9.17234c-0.4836,4.59986 -1.7552,16.6949 -1.7552,16.6949c0,0 -1.47062,2.22508 -8.87283,1.55553c-6.73526,-0.60921 -7.658,-3.29348 -7.658,-3.29348z" fill="#ffffff"/><path d="M310.81316,188.63812c0,0 1.23019,-11.70121 1.71207,-16.28471c0.34942,-3.32358 1.81012,-8.43407 8.83248,-7.85881c-1.05144,1.42478 -1.93733,2.63355 -2.78608,8.03882c-1.07964,6.87569 -2.00075,18.14245 -2.05352,19.13994c-0.43928,-0.07872 -0.84548,-0.16726 -1.22101,-0.26325c0.56509,-5.18206 1.10587,-10.36681 1.6258,-15.55359c0.00058,-0.00551 0.0011,-0.01101 0.00155,-0.0165c0.01105,-0.12587 -1.23728,5.50308 -2.18312,10.4339c-0.34019,1.7735 -0.77209,3.32738 -0.90847,4.67224c-2.5692,-0.99748 -3.01971,-2.30804 -3.01971,-2.30804z" fill="#bfbfbf"/><path d="M328.15925,170.92584c0.09558,1.73752 -1.40092,3.7048 -1.40092,3.7048c0,0 0.55647,0.18986 0.71671,0.56239c0.16899,0.39288 -0.09136,0.96917 -1.45773,0.95567c-0.97952,-0.0484 -1.39927,-0.21593 -1.46246,-0.70629c-0.06808,-0.52838 0.84159,-0.89447 0.84159,-0.89447c0,0 -0.08958,-0.05972 -0.13344,-0.09317c-0.7452,-0.56826 -1.30563,-1.8174 -1.38682,-3.29334c-0.11354,-2.0641 0.34196,-3.62599 1.52469,-3.69105c1.18273,-0.06506 2.64482,1.39135 2.75836,3.45545z" fill="#bfbfbf"/><path d="M326.87564,177.47917c-0.01965,0.1869 -0.35238,0.30511 -0.74316,0.26402c-0.39079,-0.04109 -0.69166,-0.2259 -0.67201,-0.4128c0.01965,-0.1869 0.35238,-0.30511 0.74316,-0.26402c0.39079,0.04109 0.69166,0.2259 0.67201,0.4128z" fill="#bfbfbf"/></g></g><path d="M321.75604,168.87318c2.61939,0.27539 4.62651,2.37831 5.00521,4.98701c0.02895,0.19941 0.06401,0.54791 0.06401,0.54791c0,0 0.38194,0.75597 0.21786,1.43144c-0.1239,0.51008 -0.52189,0.80462 -0.52189,0.80462c0,0 -0.44756,0.19633 -0.68408,0.21525c-0.2794,0.02235 -0.88521,-0.08972 -0.88521,-0.08972c0,0 0.40207,0.22536 0.79212,0.37119c0.28518,0.10662 0.59522,0.13541 0.5813,0.17829c-0.50748,1.56281 -1.4499,3.44694 -2.96299,5.64423c-0.96097,1.3955 -3.30188,3.14243 -3.76234,4.21522c-0.72347,1.68557 1.95509,2.31505 1.95509,2.31505c0,0 -4.92142,0.54301 -5.72095,-2.01114c-0.55265,-1.76547 0.68862,-1.7386 1.53621,-2.39257c0.07698,-0.0594 -0.84863,0.94684 -0.84863,0.94684c0,0 0.88749,-0.33377 1.19064,-0.80921c0.30246,-0.47435 0.3561,-1.35094 0.36405,-1.67146c0.06928,-2.79233 -3.07513,-4.87186 -2.60702,-9.3244c0.34569,-3.28812 3.16031,-5.68723 6.28661,-5.35854zM320.85031,183.53603c0.99226,0.12312 2.51737,-5.37859 2.53996,-5.788c0.07852,-1.42308 -1.39851,-1.71115 -1.80629,-1.75402c-0.40778,-0.04287 -2.4595,0.28894 -2.13092,1.67187c0.04153,0.17478 0.39729,1.48309 0.5901,2.70587c0.24727,1.5682 -0.1408,3.05642 0.80714,3.16427zM316.72085,175.36425c0.45584,0.87898 2.4684,0.24102 3.41958,-0.74248c1.46011,-1.50971 0.71636,-3.4558 -0.20709,-3.55288c-0.40778,-0.04287 -1.01114,0.71374 -1.89219,1.76806c-0.26293,0.31463 -2.09228,1.03869 -1.3203,2.5273zM325.54344,176.31549c0.17396,0.01829 1.239,-0.0831 1.08575,-0.98741c-0.20598,-1.21546 -0.77827,-1.56258 -0.87823,-1.77538c-0.64871,-1.38104 -1.03408,-2.58523 -1.44186,-2.62811c-0.40778,-0.04287 -0.7731,0.25295 -0.81598,0.66072c-0.02116,0.20129 -0.11269,2.30152 0.34684,3.41436c0.4714,1.14158 1.49698,1.2941 1.70347,1.31581z" fill="url(#color-1)" fill-rule="nonzero" stroke-opacity="0.21176" stroke="#000000" stroke-width="0.5" stroke-linecap="butt" stroke-linejoin="miter"/><path d="M321.3828,187.6389c-0.01519,0.72602 0.64856,1.28738 0.64856,1.28738c0,0 -1.70694,-0.23703 -1.65956,-1.47662c0.02812,-0.73586 1.05211,-0.9194 1.7703,-1.59065c0.52607,-0.49169 0.804,-1.02995 0.804,-1.02995c0,0 0.01971,0.51083 -0.3628,1.18649c-0.34291,0.60571 -1.18871,1.05999 -1.2005,1.62335z" fill="url(#color-2)" fill-rule="nonzero" stroke-opacity="0.21176" stroke="#000000" stroke-width="0.5" stroke-linecap="butt" stroke-linejoin="miter"/><path d="M314.86771,174.89455c0,0 -0.37048,2.54181 0.52727,4.41939c0.55174,1.15392 1.7926,3.05729 1.7926,3.05729c0,0 -1.92192,-0.90318 -2.53173,-2.71052c-0.83084,-2.46241 0.21186,-4.76615 0.21186,-4.76615z" fill="url(#color-3)" fill-rule="nonzero" stroke-opacity="0.21176" stroke="#000000" stroke-width="0.5" stroke-linecap="butt" stroke-linejoin="miter"/></g></g></svg>