<svg version="1.1" xmlns="http://www.w3.org/2000/svg" xmlns:xlink="http://www.w3.org/1999/xlink" width="45.74834" height="76.04124" viewBox="0,0,45.74834,76.04124"><g transform="translate(-297.34045,-105.70455)"><g data-paper-data="{&quot;isPaintingLayer&quot;:true}" fill-rule="nonzero" stroke-linejoin="miter" stroke-miterlimit="10" stroke-dasharray="" stroke-dashoffset="0" style="mix-blend-mode: normal"><path d="" fill="#a8ba9a" stroke="#4a314d" stroke-width="0" stroke-linecap="butt"/><path d="" fill="#a8ba9a" stroke="#4a314d" stroke-width="0" stroke-linecap="butt"/><path d="" fill-opacity="0.10588" fill="#000000" stroke="none" stroke-width="0.60142" stroke-linecap="butt"/><g><path d="M308.74207,170.48787c0,-6.21758 5.04035,-11.25793 11.25793,-11.25793c6.21758,0 11.25793,5.04035 11.25793,11.25793c0,6.21758 -5.04035,11.25793 -11.25793,11.25793c-6.21758,0 -11.25793,-5.04035 -11.25793,-11.25793z" fill="#544f57" stroke="none" stroke-width="0.5" stroke-linecap="butt"/><g><path d="M320.09137,124.52886c4.7897,0.07167 9.66622,2.87437 13.0408,6.64608c2.35234,2.76483 1.98502,7.35462 2.5309,11.12702c0.57012,3.9429 0.12763,7.99807 0.79512,11.79957c0.44925,2.71452 1.52861,5.12279 2.52392,7.56426c1.05541,2.59045 4.5168,4.96887 3.48892,7.56174c-1.27631,3.4761 -5.28425,4.6556 -8.48123,5.58888c-4.99831,1.45825 -10.28392,1.24709 -15.43766,1.37639c-3.5692,-0.09937 -7.13557,-0.48242 -10.61779,-1.30836c-3.23549,-0.76375 -6.64124,-1.36231 -9.46372,-3.31535c-1.01043,-0.71169 -1.36734,-2.7874 -0.97333,-4.22821c0.7331,-2.32577 3.04458,-3.66112 4.04124,-6.02273c1.08586,-2.57243 1.59822,-5.44093 2.10693,-8.24436c0.5897,-3.19733 0.81719,-6.67739 1.33137,-10.02373c0.61975,-4.0155 -0.36322,-9.05022 2.09944,-12.02976c3.21074,-3.97506 8.28867,-6.56151 13.01511,-6.49144z" fill="#a8ba9a" stroke="none" stroke-width="0.60142" stroke-linecap="round"/><path d="M337.82945,161.00336c0,0 -2.17898,4.12902 -17.82841,3.83012c-16.08233,-0.30717 -17.83048,-4.16272 -17.83048,-4.16272" fill="none" stroke="#6b6570" stroke-width="1.5" stroke-linecap="round"/><path d="M332.15227,134.62196c0,0 -1.48515,2.81427 -12.15156,2.61054c-10.96147,-0.20937 -12.15297,-2.83724 -12.15297,-2.83724" fill="none" stroke="#6b6570" stroke-width="1.5" stroke-linecap="round"/><path d="M342.47103,169.07593c-1.27631,3.38578 -5.28425,4.53463 -8.48123,5.44366c-4.99831,1.42035 -10.28392,1.21469 -15.43766,1.34062c-3.5692,-0.09678 -7.13557,-0.46989 -10.61779,-1.27437c-0.51999,-0.11956 -1.04438,-0.23495 -1.57003,-0.35234c-0.56906,-0.58684 -4.50523,-0.41251 -6.61624,-1.40156c-1.92706,-0.90287 -2.05886,-2.99694 -2.24112,-3.06136c-0.21607,-0.81745 -0.22455,-1.76685 -0.00965,-2.53228c0.49126,-1.51801 1.69126,-2.60284 2.72945,-3.84555c2.51311,3.71536 6.38188,6.09561 10.72137,6.09561c1.18898,0 2.34261,-0.17869 3.44271,-0.51456c2.26577,1.95339 5.05782,3.10622 8.07785,3.10622c3.30882,0 6.34396,-1.38386 8.71313,-3.68825c0.56029,0.08231 1.13107,0.12471 1.71024,0.12471c3.16994,0 6.08869,-1.27013 8.41132,-3.40299c0.97313,1.30348 1.72107,2.60268 1.16765,3.96242z" fill-opacity="0.10588" fill="#000000" stroke="none" stroke-width="0.60142" stroke-linecap="butt"/><path d="M313.41682,127.74327c0,-2.0206 2.94739,-4.98901 6.58318,-4.98901c3.63579,0 6.58318,2.96842 6.58318,4.98901c0,2.0206 -2.94739,2.3282 -6.58318,2.3282c-3.63579,0 -6.58318,-0.30761 -6.58318,-2.3282z" fill="#6b6570" stroke="none" stroke-width="0.5" stroke-linecap="butt"/></g></g><g fill="#ace894" stroke-opacity="0.25098" stroke="#ace895" stroke-width="8" stroke-linecap="butt"><path d="M301.6609,114.83947c0.03999,-2.75843 2.30855,-4.96213 5.06696,-4.92214c2.75843,0.03999 4.96213,2.30855 4.92214,5.06696c-0.03999,2.75843 -2.30854,4.96213 -5.06696,4.92214c-2.75843,-0.03999 -4.96213,-2.30855 -4.92214,-5.06696z"/><path d="M328.88228,114.80781c0,-2.81845 2.2848,-5.10325 5.10325,-5.10325c2.81845,0 5.10325,2.2848 5.10325,5.10325c0,2.81845 -2.28479,5.10325 -5.10325,5.10325c-2.81845,0 -5.10325,-2.2848 -5.10325,-5.10325z"/></g></g></g></svg>