<svg version="1.1" xmlns="http://www.w3.org/2000/svg" xmlns:xlink="http://www.w3.org/1999/xlink" width="664.13378" height="222.47237" viewBox="0,0,664.13378,222.47237"><defs><linearGradient x1="320.00005" y1="53.79884" x2="320.00005" y2="276.27119" gradientUnits="userSpaceOnUse" id="color-1"><stop offset="0" stop-color="#191919"/><stop offset="1" stop-color="#0c0c0c"/></linearGradient><linearGradient x1="224.36946" y1="57.56402" x2="224.36946" y2="195.22319" gradientUnits="userSpaceOnUse" id="color-2"><stop offset="0" stop-color="#7e7e7e"/><stop offset="1" stop-color="#3f3f3f"/></linearGradient><linearGradient x1="224.36946" y1="63.87967" x2="224.36946" y2="188.90748" gradientUnits="userSpaceOnUse" id="color-3"><stop offset="0" stop-color="#ffffff"/><stop offset="1" stop-color="#595959"/></linearGradient><linearGradient x1="224.36945" y1="57.56402" x2="224.36945" y2="195.22319" gradientUnits="userSpaceOnUse" id="color-4"><stop offset="0" stop-color="#7e7e7e"/><stop offset="1" stop-color="#3f3f3f"/></linearGradient><linearGradient x1="224.36946" y1="123.91769" x2="224.36946" y2="128.86945" gradientUnits="userSpaceOnUse" id="color-5"><stop offset="0" stop-color="#7e7e7e"/><stop offset="1" stop-color="#3f3f3f"/></linearGradient><linearGradient x1="415.63061" y1="57.56402" x2="415.63061" y2="195.22319" gradientUnits="userSpaceOnUse" id="color-6"><stop offset="0" stop-color="#7e7e7e"/><stop offset="1" stop-color="#3f3f3f"/></linearGradient><linearGradient x1="415.63061" y1="63.87968" x2="415.63061" y2="188.90748" gradientUnits="userSpaceOnUse" id="color-7"><stop offset="0" stop-color="#ffffff"/><stop offset="1" stop-color="#595959"/></linearGradient><linearGradient x1="415.6306" y1="57.56402" x2="415.6306" y2="195.22319" gradientUnits="userSpaceOnUse" id="color-8"><stop offset="0" stop-color="#7e7e7e"/><stop offset="1" stop-color="#3f3f3f"/></linearGradient><linearGradient x1="415.6306" y1="123.91769" x2="415.6306" y2="128.86945" gradientUnits="userSpaceOnUse" id="color-9"><stop offset="0" stop-color="#7e7e7e"/><stop offset="1" stop-color="#3f3f3f"/></linearGradient><linearGradient x1="68.03856" y1="61.95692" x2="68.03856" y2="208.98312" gradientUnits="userSpaceOnUse" id="color-10"><stop offset="0" stop-color="#7e7e7e"/><stop offset="1" stop-color="#3f3f3f"/></linearGradient><linearGradient x1="68.03855" y1="68.72575" x2="68.03855" y2="202.21424" gradientUnits="userSpaceOnUse" id="color-11"><stop offset="0" stop-color="#ffffff"/><stop offset="1" stop-color="#595959"/></linearGradient><linearGradient x1="68.03853" y1="66.60152" x2="68.03853" y2="204.33847" gradientUnits="userSpaceOnUse" id="color-12"><stop offset="0" stop-color="#7e7e7e"/><stop offset="1" stop-color="#3f3f3f"/></linearGradient><linearGradient x1="68.03856" y1="128.05516" x2="68.03856" y2="142.88483" gradientUnits="userSpaceOnUse" id="color-13"><stop offset="0" stop-color="#7e7e7e"/><stop offset="1" stop-color="#3f3f3f"/></linearGradient><linearGradient x1="571.96152" y1="61.9569" x2="571.96152" y2="208.98312" gradientUnits="userSpaceOnUse" id="color-14"><stop offset="0" stop-color="#7e7e7e"/><stop offset="1" stop-color="#3f3f3f"/></linearGradient><linearGradient x1="571.9615" y1="68.72575" x2="571.9615" y2="202.21424" gradientUnits="userSpaceOnUse" id="color-15"><stop offset="0" stop-color="#ffffff"/><stop offset="1" stop-color="#595959"/></linearGradient><linearGradient x1="571.96151" y1="66.60153" x2="571.96151" y2="204.33849" gradientUnits="userSpaceOnUse" id="color-16"><stop offset="0" stop-color="#7e7e7e"/><stop offset="1" stop-color="#3f3f3f"/></linearGradient><linearGradient x1="571.9615" y1="128.05516" x2="571.9615" y2="142.88484" gradientUnits="userSpaceOnUse" id="color-17"><stop offset="0" stop-color="#7e7e7e"/><stop offset="1" stop-color="#3f3f3f"/></linearGradient><linearGradient x1="224.36947" y1="63.87968" x2="224.36947" y2="275.99458" gradientUnits="userSpaceOnUse" id="color-18"><stop offset="0" stop-color="#ffffff" stop-opacity="0.50196"/><stop offset="1" stop-color="#ffffff" stop-opacity="0"/></linearGradient><linearGradient x1="224.36946" y1="63.87968" x2="224.36946" y2="275.99458" gradientUnits="userSpaceOnUse" id="color-19"><stop offset="0" stop-color="#ffffff" stop-opacity="0.50196"/><stop offset="1" stop-color="#ffffff" stop-opacity="0"/></linearGradient><linearGradient x1="415.63062" y1="63.87968" x2="415.63062" y2="275.99456" gradientUnits="userSpaceOnUse" id="color-20"><stop offset="0" stop-color="#ffffff" stop-opacity="0.50196"/><stop offset="1" stop-color="#ffffff" stop-opacity="0"/></linearGradient><linearGradient x1="415.63062" y1="63.87968" x2="415.63062" y2="275.99458" gradientUnits="userSpaceOnUse" id="color-21"><stop offset="0" stop-color="#ffffff" stop-opacity="0.50196"/><stop offset="1" stop-color="#ffffff" stop-opacity="0"/></linearGradient><linearGradient x1="61.36947" y1="63.87969" x2="61.36947" y2="275.99458" gradientUnits="userSpaceOnUse" id="color-22"><stop offset="0" stop-color="#ffffff" stop-opacity="0.50196"/><stop offset="1" stop-color="#ffffff" stop-opacity="0"/></linearGradient><linearGradient x1="61.36947" y1="63.87969" x2="61.36947" y2="275.99458" gradientUnits="userSpaceOnUse" id="color-23"><stop offset="0" stop-color="#ffffff" stop-opacity="0.50196"/><stop offset="1" stop-color="#ffffff" stop-opacity="0"/></linearGradient><linearGradient x1="579.36948" y1="63.87969" x2="579.36948" y2="275.99458" gradientUnits="userSpaceOnUse" id="color-24"><stop offset="0" stop-color="#ffffff" stop-opacity="0.50196"/><stop offset="1" stop-color="#ffffff" stop-opacity="0"/></linearGradient><linearGradient x1="579.36948" y1="63.87968" x2="579.36948" y2="275.99458" gradientUnits="userSpaceOnUse" id="color-25"><stop offset="0" stop-color="#ffffff" stop-opacity="0.50196"/><stop offset="1" stop-color="#ffffff" stop-opacity="0"/></linearGradient></defs><g transform="translate(12.0669,-53.79884)"><g data-paper-data="{&quot;isPaintingLayer&quot;:true}" fill-rule="nonzero" stroke="none" stroke-linecap="butt" stroke-linejoin="miter" stroke-miterlimit="10" stroke-dasharray="" stroke-dashoffset="0" style="mix-blend-mode: normal"><path d="M652.06688,53.79884v222.47237h-664.13378v-222.47237z" data-paper-data="{&quot;index&quot;:null}" fill="url(#color-1)" stroke-width="NaN"/><g stroke-width="0"><path d="M190.81579,195.22319v-137.65915h67.10735v137.65915z" fill="url(#color-2)"/><path d="M194.05343,188.90748v-125.02781h60.63207v125.02781z" fill="url(#color-3)"/><path d="M222.30914,195.22319v-137.65915h4.12062v137.65915z" fill="url(#color-4)"/><path d="M190.81578,128.86945v-4.95177h67.10735v4.95177z" fill="url(#color-5)"/></g><g stroke-width="0"><path d="M382.07694,195.22319v-137.65915h67.10735v137.65915z" fill="url(#color-6)"/><path d="M385.31458,188.90748v-125.02779h60.63207v125.02779z" fill="url(#color-7)"/><path d="M413.5703,195.22319v-137.65915h4.12062v137.65915z" fill="url(#color-8)"/><path d="M382.07692,128.86945v-4.95177h67.10735v4.95177z" fill="url(#color-9)"/></g><g stroke-width="0"><path d="M42.67967,208.98312l-6.09602,-137.12922l56.81381,-9.89697l6.09601,137.12923z" fill="url(#color-10)"/><path d="M45.141,202.21424l-5.53666,-124.54649l51.33177,-8.942l5.53666,124.54649z" fill="url(#color-11)"/><path d="M69.34226,204.33847l-6.09602,-137.12923l3.48857,-0.60771l6.09602,137.12923z" fill="url(#color-12)"/><path d="M39.74129,142.88483l-0.21928,-4.9327l56.81381,-9.89697l0.21928,4.93271z" fill="url(#color-13)"/></g><g data-paper-data="{&quot;index&quot;:null}" stroke-width="0"><path d="M540.50662,199.08615l6.09602,-137.12923l56.81381,9.89697l-6.09602,137.12922z" fill="url(#color-14)"/><path d="M543.52729,193.27226l5.53666,-124.54649l51.33176,8.942l-5.53666,124.54649z" fill="url(#color-15)"/><path d="M567.16919,203.73078l6.09602,-137.12923l3.48857,0.60771l-6.09601,137.12923z" fill="url(#color-16)"/><path d="M543.44494,132.98787l0.21928,-4.93271l56.81381,9.89697l-0.21928,4.9327z" fill="url(#color-17)"/></g><g stroke-width="0"><path d="M156.51589,275.99458l37.53754,-212.11489h60.63207l55.55556,212.1149z" fill="url(#color-18)"/><path d="M171.5309,275.99458l22.52252,-212.1149h60.63207l40.54054,212.1149z" fill="url(#color-19)"/><path d="M329.75901,275.99456l55.55556,-212.11486h60.63207l37.53754,212.11487z" fill="url(#color-20)"/><path d="M344.77404,275.99458l40.54054,-212.11486h60.63207l22.52252,212.11486z" fill="url(#color-21)"/><path d="M20.53091,275.99458l18.52252,-199.1149l52.63207,-8l73.52252,207.1149z" fill="url(#color-22)"/><path d="M35.53091,275.99458l3.52252,-199.1149l52.63207,-8l63.52252,207.1149z" fill="url(#color-23)"/><path d="M475.5309,275.99458l73.52252,-207.1149l52.63207,8l18.52252,199.1149z" data-paper-data="{&quot;index&quot;:null}" fill="url(#color-24)"/><path d="M485.53092,275.99458l63.52252,-207.1149l52.63207,8l3.52252,199.1149z" data-paper-data="{&quot;index&quot;:null}" fill="url(#color-25)"/></g></g></g></svg>