<svg version="1.1" xmlns="http://www.w3.org/2000/svg" xmlns:xlink="http://www.w3.org/1999/xlink" width="744" height="427" viewBox="0,0,744,427"><g transform="translate(52,33.5)"><g data-paper-data="{&quot;isPaintingLayer&quot;:true}" fill-rule="nonzero" stroke="none" stroke-linecap="butt" stroke-linejoin="miter" stroke-miterlimit="10" stroke-dasharray="" stroke-dashoffset="0" style="mix-blend-mode: normal"><path d="M-52,393.5v-427h744v427z" fill="#000000" stroke-width="0"/><g fill-opacity="0.01176" fill="#ffffff" stroke-width="1" font-family="Sans Serif" font-weight="normal" font-size="40" text-anchor="start"><g><g><g><g><text transform="translate(199.02004,185.76875) scale(0.5,0.5)" font-size="40" xml:space="preserve" fill-opacity="0.01176" fill="#ffffff" fill-rule="nonzero" stroke="none" stroke-width="1" stroke-linecap="butt" stroke-linejoin="miter" stroke-miterlimit="10" stroke-dasharray="" stroke-dashoffset="0" font-family="Sans Serif" font-weight="normal" text-anchor="start" style="mix-blend-mode: normal"><tspan x="0" dy="0">made by the spooki team</tspan></text><text transform="translate(199.12309,187.62909) rotate(-0.88125) scale(0.5,0.5)" font-size="40" xml:space="preserve" fill-opacity="0.01176" fill="#ffffff" fill-rule="nonzero" stroke="none" stroke-width="1" stroke-linecap="butt" stroke-linejoin="miter" stroke-miterlimit="10" stroke-dasharray="" stroke-dashoffset="0" font-family="Sans Serif" font-weight="normal" text-anchor="start" style="mix-blend-mode: normal"><tspan x="0" dy="0">made by the spooki team</tspan></text></g><g><text transform="translate(200.89949,181.84463) rotate(1.85729) scale(0.5,0.5)" font-size="40" xml:space="preserve" fill-opacity="0.01176" fill="#ffffff" fill-rule="nonzero" stroke="none" stroke-width="1" stroke-linecap="butt" stroke-linejoin="miter" stroke-miterlimit="10" stroke-dasharray="" stroke-dashoffset="0" font-family="Sans Serif" font-weight="normal" text-anchor="start" style="mix-blend-mode: normal"><tspan x="0" dy="0">made by the spooki team</tspan></text><text transform="translate(200.94219,183.70732) rotate(0.97637) scale(0.5,0.5)" font-size="40" xml:space="preserve" fill-opacity="0.01176" fill="#ffffff" fill-rule="nonzero" stroke="none" stroke-width="1" stroke-linecap="butt" stroke-linejoin="miter" stroke-miterlimit="10" stroke-dasharray="" stroke-dashoffset="0" font-family="Sans Serif" font-weight="normal" text-anchor="start" style="mix-blend-mode: normal"><tspan x="0" dy="0">made by the spooki team</tspan></text></g></g><g><g><text transform="translate(199.02004,185.76875) scale(0.5,0.5)" font-size="40" xml:space="preserve" fill-opacity="0.01176" fill="#ffffff" fill-rule="nonzero" stroke="none" stroke-width="1" stroke-linecap="butt" stroke-linejoin="miter" stroke-miterlimit="10" stroke-dasharray="" stroke-dashoffset="0" font-family="Sans Serif" font-weight="normal" text-anchor="start" style="mix-blend-mode: normal"><tspan x="0" dy="0">made by the spooki team</tspan></text><text transform="translate(199.12309,187.62909) rotate(-0.88125) scale(0.5,0.5)" font-size="40" xml:space="preserve" fill-opacity="0.01176" fill="#ffffff" fill-rule="nonzero" stroke="none" stroke-width="1" stroke-linecap="butt" stroke-linejoin="miter" stroke-miterlimit="10" stroke-dasharray="" stroke-dashoffset="0" font-family="Sans Serif" font-weight="normal" text-anchor="start" style="mix-blend-mode: normal"><tspan x="0" dy="0">made by the spooki team</tspan></text></g><g><text transform="translate(200.89949,181.84463) rotate(1.85729) scale(0.5,0.5)" font-size="40" xml:space="preserve" fill-opacity="0.01176" fill="#ffffff" fill-rule="nonzero" stroke="none" stroke-width="1" stroke-linecap="butt" stroke-linejoin="miter" stroke-miterlimit="10" stroke-dasharray="" stroke-dashoffset="0" font-family="Sans Serif" font-weight="normal" text-anchor="start" style="mix-blend-mode: normal"><tspan x="0" dy="0">made by the spooki team</tspan></text><text transform="translate(200.9422,183.70733) rotate(0.97637) scale(0.5,0.5)" font-size="40" xml:space="preserve" fill-opacity="0.01176" fill="#ffffff" fill-rule="nonzero" stroke="none" stroke-width="1" stroke-linecap="butt" stroke-linejoin="miter" stroke-miterlimit="10" stroke-dasharray="" stroke-dashoffset="0" font-family="Sans Serif" font-weight="normal" text-anchor="start" style="mix-blend-mode: normal"><tspan x="0" dy="0">made by the spooki team</tspan></text></g></g><g><g><text transform="translate(199.06552,186.63182) rotate(-0.40508) scale(0.5,0.5)" font-size="40" xml:space="preserve" fill-opacity="0.01176" fill="#ffffff" fill-rule="nonzero" stroke="none" stroke-width="1" stroke-linecap="butt" stroke-linejoin="miter" stroke-miterlimit="10" stroke-dasharray="" stroke-dashoffset="0" font-family="Sans Serif" font-weight="normal" text-anchor="start" style="mix-blend-mode: normal"><tspan x="0" dy="0">made by the spooki team</tspan></text><text transform="translate(199.18173,188.49139) rotate(-1.2864) scale(0.5,0.5)" font-size="40" xml:space="preserve" fill-opacity="0.01176" fill="#ffffff" fill-rule="nonzero" stroke="none" stroke-width="1" stroke-linecap="butt" stroke-linejoin="miter" stroke-miterlimit="10" stroke-dasharray="" stroke-dashoffset="0" font-family="Sans Serif" font-weight="normal" text-anchor="start" style="mix-blend-mode: normal"><tspan x="0" dy="0">made by the spooki team</tspan></text></g><g><text transform="translate(200.91718,182.6945) rotate(1.45203) scale(0.5,0.5)" font-size="40" xml:space="preserve" fill-opacity="0.01176" fill="#ffffff" fill-rule="nonzero" stroke="none" stroke-width="1" stroke-linecap="butt" stroke-linejoin="miter" stroke-miterlimit="10" stroke-dasharray="" stroke-dashoffset="0" font-family="Sans Serif" font-weight="normal" text-anchor="start" style="mix-blend-mode: normal"><tspan x="0" dy="0">made by the spooki team</tspan></text><text transform="translate(200.97305,184.55686) rotate(0.57125) scale(0.5,0.5)" font-size="40" xml:space="preserve" fill-opacity="0.01176" fill="#ffffff" fill-rule="nonzero" stroke="none" stroke-width="1" stroke-linecap="butt" stroke-linejoin="miter" stroke-miterlimit="10" stroke-dasharray="" stroke-dashoffset="0" font-family="Sans Serif" font-weight="normal" text-anchor="start" style="mix-blend-mode: normal"><tspan x="0" dy="0">made by the spooki team</tspan></text></g></g></g><g><g><g><text transform="translate(197.02004,187.76875) scale(0.5,0.5)" font-size="40" xml:space="preserve" fill-opacity="0.01176" fill="#ffffff" fill-rule="nonzero" stroke="none" stroke-width="1" stroke-linecap="butt" stroke-linejoin="miter" stroke-miterlimit="10" stroke-dasharray="" stroke-dashoffset="0" font-family="Sans Serif" font-weight="normal" text-anchor="start" style="mix-blend-mode: normal"><tspan x="0" dy="0">made by the spooki team</tspan></text><text transform="translate(197.12309,189.62909) rotate(-0.88125) scale(0.5,0.5)" font-size="40" xml:space="preserve" fill-opacity="0.01176" fill="#ffffff" fill-rule="nonzero" stroke="none" stroke-width="1" stroke-linecap="butt" stroke-linejoin="miter" stroke-miterlimit="10" stroke-dasharray="" stroke-dashoffset="0" font-family="Sans Serif" font-weight="normal" text-anchor="start" style="mix-blend-mode: normal"><tspan x="0" dy="0">made by the spooki team</tspan></text></g><g><text transform="translate(198.89949,183.84463) rotate(1.85729) scale(0.5,0.5)" font-size="40" xml:space="preserve" fill-opacity="0.01176" fill="#ffffff" fill-rule="nonzero" stroke="none" stroke-width="1" stroke-linecap="butt" stroke-linejoin="miter" stroke-miterlimit="10" stroke-dasharray="" stroke-dashoffset="0" font-family="Sans Serif" font-weight="normal" text-anchor="start" style="mix-blend-mode: normal"><tspan x="0" dy="0">made by the spooki team</tspan></text><text transform="translate(198.94219,185.70732) rotate(0.97637) scale(0.5,0.5)" font-size="40" xml:space="preserve" fill-opacity="0.01176" fill="#ffffff" fill-rule="nonzero" stroke="none" stroke-width="1" stroke-linecap="butt" stroke-linejoin="miter" stroke-miterlimit="10" stroke-dasharray="" stroke-dashoffset="0" font-family="Sans Serif" font-weight="normal" text-anchor="start" style="mix-blend-mode: normal"><tspan x="0" dy="0">made by the spooki team</tspan></text></g></g><g><g><text transform="translate(197.02004,187.76875) scale(0.5,0.5)" font-size="40" xml:space="preserve" fill-opacity="0.01176" fill="#ffffff" fill-rule="nonzero" stroke="none" stroke-width="1" stroke-linecap="butt" stroke-linejoin="miter" stroke-miterlimit="10" stroke-dasharray="" stroke-dashoffset="0" font-family="Sans Serif" font-weight="normal" text-anchor="start" style="mix-blend-mode: normal"><tspan x="0" dy="0">made by the spooki team</tspan></text><text transform="translate(197.12309,189.62909) rotate(-0.88125) scale(0.5,0.5)" font-size="40" xml:space="preserve" fill-opacity="0.01176" fill="#ffffff" fill-rule="nonzero" stroke="none" stroke-width="1" stroke-linecap="butt" stroke-linejoin="miter" stroke-miterlimit="10" stroke-dasharray="" stroke-dashoffset="0" font-family="Sans Serif" font-weight="normal" text-anchor="start" style="mix-blend-mode: normal"><tspan x="0" dy="0">made by the spooki team</tspan></text></g><g><text transform="translate(198.89949,183.84463) rotate(1.85729) scale(0.5,0.5)" font-size="40" xml:space="preserve" fill-opacity="0.01176" fill="#ffffff" fill-rule="nonzero" stroke="none" stroke-width="1" stroke-linecap="butt" stroke-linejoin="miter" stroke-miterlimit="10" stroke-dasharray="" stroke-dashoffset="0" font-family="Sans Serif" font-weight="normal" text-anchor="start" style="mix-blend-mode: normal"><tspan x="0" dy="0">made by the spooki team</tspan></text><text transform="translate(198.9422,185.70733) rotate(0.97637) scale(0.5,0.5)" font-size="40" xml:space="preserve" fill-opacity="0.01176" fill="#ffffff" fill-rule="nonzero" stroke="none" stroke-width="1" stroke-linecap="butt" stroke-linejoin="miter" stroke-miterlimit="10" stroke-dasharray="" stroke-dashoffset="0" font-family="Sans Serif" font-weight="normal" text-anchor="start" style="mix-blend-mode: normal"><tspan x="0" dy="0">made by the spooki team</tspan></text></g></g><g><g><text transform="translate(197.06553,188.63182) rotate(-0.40508) scale(0.5,0.5)" font-size="40" xml:space="preserve" fill-opacity="0.01176" fill="#ffffff" fill-rule="nonzero" stroke="none" stroke-width="1" stroke-linecap="butt" stroke-linejoin="miter" stroke-miterlimit="10" stroke-dasharray="" stroke-dashoffset="0" font-family="Sans Serif" font-weight="normal" text-anchor="start" style="mix-blend-mode: normal"><tspan x="0" dy="0">made by the spooki team</tspan></text><text transform="translate(197.18173,190.49139) rotate(-1.2864) scale(0.5,0.5)" font-size="40" xml:space="preserve" fill-opacity="0.01176" fill="#ffffff" fill-rule="nonzero" stroke="none" stroke-width="1" stroke-linecap="butt" stroke-linejoin="miter" stroke-miterlimit="10" stroke-dasharray="" stroke-dashoffset="0" font-family="Sans Serif" font-weight="normal" text-anchor="start" style="mix-blend-mode: normal"><tspan x="0" dy="0">made by the spooki team</tspan></text></g><g><text transform="translate(198.91718,184.69451) rotate(1.45203) scale(0.5,0.5)" font-size="40" xml:space="preserve" fill-opacity="0.01176" fill="#ffffff" fill-rule="nonzero" stroke="none" stroke-width="1" stroke-linecap="butt" stroke-linejoin="miter" stroke-miterlimit="10" stroke-dasharray="" stroke-dashoffset="0" font-family="Sans Serif" font-weight="normal" text-anchor="start" style="mix-blend-mode: normal"><tspan x="0" dy="0">made by the spooki team</tspan></text><text transform="translate(198.97306,186.55686) rotate(0.57125) scale(0.5,0.5)" font-size="40" xml:space="preserve" fill-opacity="0.01176" fill="#ffffff" fill-rule="nonzero" stroke="none" stroke-width="1" stroke-linecap="butt" stroke-linejoin="miter" stroke-miterlimit="10" stroke-dasharray="" stroke-dashoffset="0" font-family="Sans Serif" font-weight="normal" text-anchor="start" style="mix-blend-mode: normal"><tspan x="0" dy="0">made by the spooki team</tspan></text></g></g></g></g><g><g><g><g><text transform="translate(199.04909,186.57119) rotate(-0.74429) scale(0.5,0.5)" font-size="40" xml:space="preserve" fill-opacity="0.01176" fill="#ffffff" fill-rule="nonzero" stroke="none" stroke-width="1" stroke-linecap="butt" stroke-linejoin="miter" stroke-miterlimit="10" stroke-dasharray="" stroke-dashoffset="0" font-family="Sans Serif" font-weight="normal" text-anchor="start" style="mix-blend-mode: normal"><tspan x="0" dy="0">made by the spooki team</tspan></text><text transform="translate(199.17629,188.43004) rotate(-1.62512) scale(0.5,0.5)" font-size="40" xml:space="preserve" fill-opacity="0.01176" fill="#ffffff" fill-rule="nonzero" stroke="none" stroke-width="1" stroke-linecap="butt" stroke-linejoin="miter" stroke-miterlimit="10" stroke-dasharray="" stroke-dashoffset="0" font-family="Sans Serif" font-weight="normal" text-anchor="start" style="mix-blend-mode: normal"><tspan x="0" dy="0">made by the spooki team</tspan></text></g><g><text transform="translate(200.87742,182.623) rotate(1.11333) scale(0.5,0.5)" font-size="40" xml:space="preserve" fill-opacity="0.01176" fill="#ffffff" fill-rule="nonzero" stroke="none" stroke-width="1" stroke-linecap="butt" stroke-linejoin="miter" stroke-miterlimit="10" stroke-dasharray="" stroke-dashoffset="0" font-family="Sans Serif" font-weight="normal" text-anchor="start" style="mix-blend-mode: normal"><tspan x="0" dy="0">made by the spooki team</tspan></text><text transform="translate(200.94431,184.48498) rotate(0.23205) scale(0.5,0.5)" font-size="40" xml:space="preserve" fill-opacity="0.01176" fill="#ffffff" fill-rule="nonzero" stroke="none" stroke-width="1" stroke-linecap="butt" stroke-linejoin="miter" stroke-miterlimit="10" stroke-dasharray="" stroke-dashoffset="0" font-family="Sans Serif" font-weight="normal" text-anchor="start" style="mix-blend-mode: normal"><tspan x="0" dy="0">made by the spooki team</tspan></text></g></g><g><g><text transform="translate(199.04909,186.57119) rotate(-0.74429) scale(0.5,0.5)" font-size="40" xml:space="preserve" fill-opacity="0.01176" fill="#ffffff" fill-rule="nonzero" stroke="none" stroke-width="1" stroke-linecap="butt" stroke-linejoin="miter" stroke-miterlimit="10" stroke-dasharray="" stroke-dashoffset="0" font-family="Sans Serif" font-weight="normal" text-anchor="start" style="mix-blend-mode: normal"><tspan x="0" dy="0">made by the spooki team</tspan></text><text transform="translate(199.17629,188.43004) rotate(-1.62512) scale(0.5,0.5)" font-size="40" xml:space="preserve" fill-opacity="0.01176" fill="#ffffff" fill-rule="nonzero" stroke="none" stroke-width="1" stroke-linecap="butt" stroke-linejoin="miter" stroke-miterlimit="10" stroke-dasharray="" stroke-dashoffset="0" font-family="Sans Serif" font-weight="normal" text-anchor="start" style="mix-blend-mode: normal"><tspan x="0" dy="0">made by the spooki team</tspan></text></g><g><text transform="translate(200.87742,182.623) rotate(1.11333) scale(0.5,0.5)" font-size="40" xml:space="preserve" fill-opacity="0.01176" fill="#ffffff" fill-rule="nonzero" stroke="none" stroke-width="1" stroke-linecap="butt" stroke-linejoin="miter" stroke-miterlimit="10" stroke-dasharray="" stroke-dashoffset="0" font-family="Sans Serif" font-weight="normal" text-anchor="start" style="mix-blend-mode: normal"><tspan x="0" dy="0">made by the spooki team</tspan></text><text transform="translate(200.94432,184.48499) rotate(0.23205) scale(0.5,0.5)" font-size="40" xml:space="preserve" fill-opacity="0.01176" fill="#ffffff" fill-rule="nonzero" stroke="none" stroke-width="1" stroke-linecap="butt" stroke-linejoin="miter" stroke-miterlimit="10" stroke-dasharray="" stroke-dashoffset="0" font-family="Sans Serif" font-weight="normal" text-anchor="start" style="mix-blend-mode: normal"><tspan x="0" dy="0">made by the spooki team</tspan></text></g></g><g><g><text transform="translate(199.10577,187.4336) rotate(-1.14886) scale(0.5,0.5)" font-size="40" xml:space="preserve" fill-opacity="0.01176" fill="#ffffff" fill-rule="nonzero" stroke="none" stroke-width="1" stroke-linecap="butt" stroke-linejoin="miter" stroke-miterlimit="10" stroke-dasharray="" stroke-dashoffset="0" font-family="Sans Serif" font-weight="normal" text-anchor="start" style="mix-blend-mode: normal"><tspan x="0" dy="0">made by the spooki team</tspan></text><text transform="translate(199.24612,189.29151) rotate(-2.03042) scale(0.5,0.5)" font-size="40" xml:space="preserve" fill-opacity="0.01176" fill="#ffffff" fill-rule="nonzero" stroke="none" stroke-width="1" stroke-linecap="butt" stroke-linejoin="miter" stroke-miterlimit="10" stroke-dasharray="" stroke-dashoffset="0" font-family="Sans Serif" font-weight="normal" text-anchor="start" style="mix-blend-mode: normal"><tspan x="0" dy="0">made by the spooki team</tspan></text></g><g><text transform="translate(200.90615,183.47257) rotate(0.7082) scale(0.5,0.5)" font-size="40" xml:space="preserve" fill-opacity="0.01176" fill="#ffffff" fill-rule="nonzero" stroke="none" stroke-width="1" stroke-linecap="butt" stroke-linejoin="miter" stroke-miterlimit="10" stroke-dasharray="" stroke-dashoffset="0" font-family="Sans Serif" font-weight="normal" text-anchor="start" style="mix-blend-mode: normal"><tspan x="0" dy="0">made by the spooki team</tspan></text><text transform="translate(200.9862,185.33405) rotate(-0.17303) scale(0.5,0.5)" font-size="40" xml:space="preserve" fill-opacity="0.01176" fill="#ffffff" fill-rule="nonzero" stroke="none" stroke-width="1" stroke-linecap="butt" stroke-linejoin="miter" stroke-miterlimit="10" stroke-dasharray="" stroke-dashoffset="0" font-family="Sans Serif" font-weight="normal" text-anchor="start" style="mix-blend-mode: normal"><tspan x="0" dy="0">made by the spooki team</tspan></text></g></g></g><g><g><g><text transform="translate(197.07523,188.597) rotate(-0.74429) scale(0.5,0.5)" font-size="40" xml:space="preserve" fill-opacity="0.01176" fill="#ffffff" fill-rule="nonzero" stroke="none" stroke-width="1" stroke-linecap="butt" stroke-linejoin="miter" stroke-miterlimit="10" stroke-dasharray="" stroke-dashoffset="0" font-family="Sans Serif" font-weight="normal" text-anchor="start" style="mix-blend-mode: normal"><tspan x="0" dy="0">made by the spooki team</tspan></text><text transform="translate(197.20243,190.45584) rotate(-1.62512) scale(0.5,0.5)" font-size="40" xml:space="preserve" fill-opacity="0.01176" fill="#ffffff" fill-rule="nonzero" stroke="none" stroke-width="1" stroke-linecap="butt" stroke-linejoin="miter" stroke-miterlimit="10" stroke-dasharray="" stroke-dashoffset="0" font-family="Sans Serif" font-weight="normal" text-anchor="start" style="mix-blend-mode: normal"><tspan x="0" dy="0">made by the spooki team</tspan></text></g><g><text transform="translate(198.90356,184.6488) rotate(1.11333) scale(0.5,0.5)" font-size="40" xml:space="preserve" fill-opacity="0.01176" fill="#ffffff" fill-rule="nonzero" stroke="none" stroke-width="1" stroke-linecap="butt" stroke-linejoin="miter" stroke-miterlimit="10" stroke-dasharray="" stroke-dashoffset="0" font-family="Sans Serif" font-weight="normal" text-anchor="start" style="mix-blend-mode: normal"><tspan x="0" dy="0">made by the spooki team</tspan></text><text transform="translate(198.97045,186.51078) rotate(0.23205) scale(0.5,0.5)" font-size="40" xml:space="preserve" fill-opacity="0.01176" fill="#ffffff" fill-rule="nonzero" stroke="none" stroke-width="1" stroke-linecap="butt" stroke-linejoin="miter" stroke-miterlimit="10" stroke-dasharray="" stroke-dashoffset="0" font-family="Sans Serif" font-weight="normal" text-anchor="start" style="mix-blend-mode: normal"><tspan x="0" dy="0">made by the spooki team</tspan></text></g></g><g><g><text transform="translate(197.07523,188.597) rotate(-0.74429) scale(0.5,0.5)" font-size="40" xml:space="preserve" fill-opacity="0.01176" fill="#ffffff" fill-rule="nonzero" stroke="none" stroke-width="1" stroke-linecap="butt" stroke-linejoin="miter" stroke-miterlimit="10" stroke-dasharray="" stroke-dashoffset="0" font-family="Sans Serif" font-weight="normal" text-anchor="start" style="mix-blend-mode: normal"><tspan x="0" dy="0">made by the spooki team</tspan></text><text transform="translate(197.20243,190.45584) rotate(-1.62512) scale(0.5,0.5)" font-size="40" xml:space="preserve" fill-opacity="0.01176" fill="#ffffff" fill-rule="nonzero" stroke="none" stroke-width="1" stroke-linecap="butt" stroke-linejoin="miter" stroke-miterlimit="10" stroke-dasharray="" stroke-dashoffset="0" font-family="Sans Serif" font-weight="normal" text-anchor="start" style="mix-blend-mode: normal"><tspan x="0" dy="0">made by the spooki team</tspan></text></g><g><text transform="translate(198.90356,184.6488) rotate(1.11333) scale(0.5,0.5)" font-size="40" xml:space="preserve" fill-opacity="0.01176" fill="#ffffff" fill-rule="nonzero" stroke="none" stroke-width="1" stroke-linecap="butt" stroke-linejoin="miter" stroke-miterlimit="10" stroke-dasharray="" stroke-dashoffset="0" font-family="Sans Serif" font-weight="normal" text-anchor="start" style="mix-blend-mode: normal"><tspan x="0" dy="0">made by the spooki team</tspan></text><text transform="translate(198.97046,186.51079) rotate(0.23205) scale(0.5,0.5)" font-size="40" xml:space="preserve" fill-opacity="0.01176" fill="#ffffff" fill-rule="nonzero" stroke="none" stroke-width="1" stroke-linecap="butt" stroke-linejoin="miter" stroke-miterlimit="10" stroke-dasharray="" stroke-dashoffset="0" font-family="Sans Serif" font-weight="normal" text-anchor="start" style="mix-blend-mode: normal"><tspan x="0" dy="0">made by the spooki team</tspan></text></g></g><g><g><text transform="translate(197.13192,189.4594) rotate(-1.14943) scale(0.5,0.5)" font-size="40" xml:space="preserve" fill-opacity="0.01176" fill="#ffffff" fill-rule="nonzero" stroke="none" stroke-width="1" stroke-linecap="butt" stroke-linejoin="miter" stroke-miterlimit="10" stroke-dasharray="" stroke-dashoffset="0" font-family="Sans Serif" font-weight="normal" text-anchor="start" style="mix-blend-mode: normal"><tspan x="0" dy="0">made by the spooki team</tspan></text><text transform="translate(197.27226,191.31731) rotate(-2.03042) scale(0.5,0.5)" font-size="40" xml:space="preserve" fill-opacity="0.01176" fill="#ffffff" fill-rule="nonzero" stroke="none" stroke-width="1" stroke-linecap="butt" stroke-linejoin="miter" stroke-miterlimit="10" stroke-dasharray="" stroke-dashoffset="0" font-family="Sans Serif" font-weight="normal" text-anchor="start" style="mix-blend-mode: normal"><tspan x="0" dy="0">made by the spooki team</tspan></text></g><g><text transform="translate(198.93229,185.49838) rotate(0.7082) scale(0.5,0.5)" font-size="40" xml:space="preserve" fill-opacity="0.01176" fill="#ffffff" fill-rule="nonzero" stroke="none" stroke-width="1" stroke-linecap="butt" stroke-linejoin="miter" stroke-miterlimit="10" stroke-dasharray="" stroke-dashoffset="0" font-family="Sans Serif" font-weight="normal" text-anchor="start" style="mix-blend-mode: normal"><tspan x="0" dy="0">made by the spooki team</tspan></text><text transform="translate(199.01235,187.35985) rotate(-0.17303) scale(0.5,0.5)" font-size="40" xml:space="preserve" fill-opacity="0.01176" fill="#ffffff" fill-rule="nonzero" stroke="none" stroke-width="1" stroke-linecap="butt" stroke-linejoin="miter" stroke-miterlimit="10" stroke-dasharray="" stroke-dashoffset="0" font-family="Sans Serif" font-weight="normal" text-anchor="start" style="mix-blend-mode: normal"><tspan x="0" dy="0">made by the spooki team</tspan></text></g></g></g></g></g><text transform="translate(199.01235,187.35985) rotate(-0.17303) scale(0.5,0.5)" font-size="40" xml:space="preserve" fill-opacity="0.50196" fill="#ffffff" fill-rule="nonzero" stroke="none" stroke-width="1" stroke-linecap="butt" stroke-linejoin="miter" stroke-miterlimit="10" stroke-dasharray="" stroke-dashoffset="0" font-family="Sans Serif" font-weight="normal" text-anchor="start" style="mix-blend-mode: normal"><tspan x="0" dy="0">made by the spooki team</tspan></text><g fill-opacity="0.00784" fill="#ffffff" stroke-width="0.5"><g><g><g><path d="M440.68871,244.08023c-7.45981,-1.25522 -15.27988,-11.92676 -15.27988,-11.92676c0,0 9.4358,4.66895 14.2193,5.00567c4.78349,0.33672 10.75088,-1.92223 11.80441,-3.17383c1.54806,-1.8391 3.12111,-24.10368 26.75897,-17.92455c11.52657,3.01314 25.62446,16.37166 8.17106,28.46451c-16.3562,11.33264 -19.77516,-7.39643 -20.33289,-7.42985c-0.65563,-0.03928 -6.55559,10.14572 -25.34096,6.98481zM474.23322,244.53288c1.93067,1.19194 6.02089,-2.49891 6.69556,-3.55584c1.3871,-2.17298 1.6943,-4.45621 -0.47867,-5.84332c-2.17297,-1.38711 -4.11472,-0.14725 -5.50181,2.02573c-0.71243,1.11606 -2.75377,6.1148 -0.71508,7.37343zM481.3913,227.76013c0.68534,-1.07364 -1.86062,0.58437 -3.16441,-0.24789c-1.30379,-0.83227 -3.7149,2.94488 -2.41111,3.77714c1.30378,0.83226 3.18231,0.21986 5.57552,-3.52925zM485.51647,237.26025c1.30379,0.83227 3.81536,-3.10226 2.51157,-3.93452c-1.30378,-0.83226 -0.22195,-4.85743 -1.65747,-2.60862c-1.43551,2.24882 -2.15788,5.71088 -0.8541,6.54314z" data-paper-data="{&quot;index&quot;:null}"/><path d="M199.31129,115.91976c7.45981,1.25522 15.27988,11.92676 15.27988,11.92676c0,0 -9.4358,-4.66894 -14.2193,-5.00567c-4.78349,-0.33672 -10.75089,1.92223 -11.80442,3.17383c-1.54806,1.8391 -3.12111,24.10367 -26.75897,17.92454c-11.52658,-3.01314 -25.62445,-16.37166 -8.17105,-28.46451c16.3562,-11.33264 19.77516,7.39643 20.33289,7.42985c0.65563,0.03928 6.55559,-10.14572 25.34096,-6.98481zM165.76678,115.4671c-1.93067,-1.19194 -6.02088,2.49891 -6.69556,3.55584c-1.38709,2.17298 -1.69431,4.45622 0.47867,5.84332c2.17298,1.3871 4.11472,0.14725 5.50181,-2.02573c0.71243,-1.11606 2.75377,-6.1148 0.71508,-7.37343zM158.6087,132.23985c-0.68534,1.07363 1.86062,-0.58438 3.16441,0.24789c1.30379,0.83227 3.7149,-2.94487 2.41111,-3.77714c-1.30379,-0.83226 -3.18231,-0.21986 -5.57552,3.52925zM154.48353,122.73974c-1.30379,-0.83227 -3.81536,3.10225 -2.51157,3.93452c1.30379,0.83226 0.22195,4.85743 1.65747,2.60861c1.43552,-2.24882 2.15788,-5.71088 0.8541,-6.54314z" data-paper-data="{&quot;index&quot;:null}"/></g><g><path d="M440.30969,244.78905c-7.4523,-1.29908 -15.20946,-12.01643 -15.20946,-12.01643c0,0 9.40817,4.72437 14.18961,5.08922c4.78143,0.36485 10.762,-1.85896 11.82287,-3.10434c1.55885,-1.82996 3.26284,-24.0849 26.86394,-17.76684c11.50865,3.08089 25.52771,16.52211 8.00348,28.51208c-16.42258,11.23623 -19.73131,-7.51262 -20.28883,-7.54932c-0.65539,-0.04314 -6.61516,10.10698 -25.38161,6.83563zM473.85095,245.439c1.92363,1.20328 6.03549,-2.46345 6.71636,-3.51639c1.39986,-2.16478 1.72048,-4.44617 -0.44429,-5.84603c-2.16477,-1.39987 -4.11378,-0.17145 -5.51363,1.99333c-0.71898,1.11185 -2.78969,6.0985 -0.75844,7.3691zM481.10757,228.70865c0.69164,-1.06959 -1.86403,0.57342 -3.1629,-0.2665c-1.29887,-0.83992 -3.73216,2.92298 -2.43329,3.76289c1.29886,0.83991 3.18096,0.23858 5.59618,-3.49639zM485.17679,238.23287c1.29887,0.83992 3.83354,-3.07976 2.53467,-3.91968c-1.29886,-0.83991 -0.19337,-4.85865 -1.6421,-2.61832c-1.44871,2.24034 -2.19144,5.69809 -0.89257,6.538z" data-paper-data="{&quot;index&quot;:null}"/><path d="M199.69031,115.21095c7.4523,1.29908 15.20946,12.01643 15.20946,12.01643c0,0 -9.40817,-4.72437 -14.18961,-5.08922c-4.78143,-0.36485 -10.76201,1.85896 -11.82288,3.10434c-1.55885,1.82996 -3.26284,24.0849 -26.86394,17.76683c-11.50865,-3.08089 -25.52771,-16.5221 -8.00348,-28.51208c16.42258,-11.23623 19.73131,7.51263 20.28883,7.54932c0.65539,0.04314 6.61516,-10.10699 25.38161,-6.83563zM166.14904,114.56099c-1.92363,-1.20328 -6.03548,2.46346 -6.71636,3.51639c-1.39985,2.16478 -1.72049,4.44617 0.44429,5.84603c2.16478,1.39986 4.11378,0.17145 5.51363,-1.99333c0.71898,-1.11185 2.78969,-6.0985 0.75844,-7.3691zM158.89243,131.29134c-0.69164,1.06959 1.86403,-0.57342 3.1629,0.2665c1.29887,0.83992 3.73216,-2.92297 2.43329,-3.76289c-1.29887,-0.83991 -3.18097,-0.23858 -5.59619,3.49639zM154.82321,121.76713c-1.29887,-0.83992 -3.83354,3.07976 -2.53467,3.91967c1.29887,0.83991 0.19337,4.85866 1.64209,2.61832c1.44872,-2.24034 2.19144,-5.69809 0.89257,-6.538z" data-paper-data="{&quot;index&quot;:null}"/></g><g><path d="M438.88341,247.37044c-7.42253,-1.45961 -14.94658,-12.34188 -14.94658,-12.34188c0,0 9.30402,4.92632 14.07647,5.39427c4.77244,0.46796 10.79961,-1.62626 11.88712,-2.84846c1.59798,-1.79589 3.78187,-24.00888 27.24112,-17.18293c11.43948,3.32855 25.16519,17.06919 7.38628,28.67817c-16.66125,10.87919 -19.56458,-7.93671 -20.12118,-7.98543c-0.6543,-0.05727 -6.83174,9.96186 -25.52322,6.28626zM472.40284,248.74412c1.89721,1.24451 6.08724,-2.33262 6.79069,-3.37062c1.44625,-2.13407 1.81604,-4.408 -0.31802,-5.85426c-2.13406,-1.44626 -4.10912,-0.26019 -5.55537,1.87387c-0.74281,1.09607 -2.92066,6.03687 -0.9173,7.35101zM480.01883,232.17427c0.71457,-1.05441 -1.87597,0.53305 -3.15641,-0.3347c-1.28044,-0.86776 -3.79437,2.84175 -2.51393,3.7095c1.28043,0.86775 3.17507,0.30717 5.67034,-3.3748zM483.88155,241.7841c1.28044,0.86776 3.89912,-2.99631 2.61867,-3.86406c-1.28043,-0.86775 -0.08847,-4.86169 -1.58521,-2.65315c-1.49673,2.20855 -2.3139,5.64947 -1.03347,6.51722z" data-paper-data="{&quot;index&quot;:null}"/><path d="M201.11659,112.62956c7.42253,1.45961 14.94658,12.34188 14.94658,12.34188c0,0 -9.30402,-4.92631 -14.07647,-5.39427c-4.77244,-0.46796 -10.79962,1.62626 -11.88712,2.84846c-1.59798,1.79589 -3.78187,24.00887 -27.24112,17.18293c-11.43948,-3.32855 -25.16519,-17.06918 -7.38628,-28.67816c16.66125,-10.87919 19.56457,7.93671 20.12118,7.98543c0.6543,0.05727 6.83174,-9.96187 25.52322,-6.28626zM167.59716,111.25587c-1.89721,-1.24451 -6.08724,2.33263 -6.79069,3.37062c-1.44625,2.13407 -1.81604,4.40801 0.31802,5.85426c2.13406,1.44626 4.10912,0.26019 5.55537,-1.87387c0.74281,-1.09607 2.92066,-6.03687 0.9173,-7.35101zM159.98117,127.82572c-0.71457,1.05441 1.87597,-0.53306 3.15641,0.3347c1.28044,0.86776 3.79438,-2.84175 2.51393,-3.7095c-1.28044,-0.86775 -3.17508,-0.30717 -5.67034,3.3748zM156.11845,118.2159c-1.28044,-0.86776 -3.89911,2.99631 -2.61867,3.86406c1.28044,0.86775 0.08847,4.8617 1.5852,2.65315c1.49673,-2.20855 2.3139,-5.64947 1.03347,-6.51722z" data-paper-data="{&quot;index&quot;:null}"/></g><g><path d="M439.70635,243.09787c-7.45981,-1.25522 -15.27988,-11.92676 -15.27988,-11.92676c0,0 9.4358,4.66895 14.2193,5.00567c4.78349,0.33672 10.75088,-1.92223 11.80441,-3.17383c1.54806,-1.8391 3.12111,-24.10368 26.75897,-17.92455c11.52657,3.01314 25.62446,16.37166 8.17106,28.46451c-16.3562,11.33264 -19.77516,-7.39643 -20.33289,-7.42985c-0.65563,-0.03928 -6.55559,10.14572 -25.34096,6.98481zM473.25086,243.55052c1.93067,1.19194 6.02089,-2.49891 6.69556,-3.55584c1.3871,-2.17298 1.6943,-4.45621 -0.47867,-5.84332c-2.17297,-1.38711 -4.11472,-0.14725 -5.50181,2.02573c-0.71243,1.11606 -2.75377,6.1148 -0.71508,7.37343zM480.40894,226.77777c0.68534,-1.07364 -1.86062,0.58437 -3.16441,-0.24789c-1.30379,-0.83227 -3.7149,2.94488 -2.41111,3.77714c1.30378,0.83226 3.18231,0.21986 5.57552,-3.52925zM484.53411,236.27789c1.30379,0.83227 3.81536,-3.10226 2.51157,-3.93452c-1.30378,-0.83226 -0.22195,-4.85743 -1.65747,-2.60862c-1.43551,2.24882 -2.15788,5.71088 -0.8541,6.54314z" data-paper-data="{&quot;index&quot;:null}"/><path d="M198.32893,114.9374c7.45981,1.25522 15.27988,11.92676 15.27988,11.92676c0,0 -9.4358,-4.66894 -14.2193,-5.00567c-4.78349,-0.33672 -10.75089,1.92223 -11.80442,3.17383c-1.54806,1.8391 -3.12111,24.10367 -26.75897,17.92455c-11.52658,-3.01314 -25.62445,-16.37166 -8.17105,-28.46451c16.3562,-11.33264 19.77516,7.39643 20.33289,7.42985c0.65563,0.03928 6.55559,-10.14572 25.34096,-6.98481zM164.78441,114.48474c-1.93067,-1.19194 -6.02088,2.49891 -6.69556,3.55584c-1.38709,2.17298 -1.69431,4.45621 0.47867,5.84332c2.17298,1.38711 4.11472,0.14725 5.50181,-2.02573c0.71243,-1.11606 2.75377,-6.1148 0.71508,-7.37343zM157.62634,131.25749c-0.68534,1.07363 1.86062,-0.58438 3.16441,0.24789c1.30379,0.83227 3.7149,-2.94487 2.41111,-3.77714c-1.30379,-0.83226 -3.18231,-0.21986 -5.57552,3.52925zM153.50117,121.75738c-1.30379,-0.83227 -3.81536,3.10225 -2.51157,3.93452c1.30379,0.83226 0.22195,4.85743 1.65747,2.60861c1.43552,-2.24882 2.15788,-5.71088 0.8541,-6.54314z" data-paper-data="{&quot;index&quot;:null}"/></g><g><path d="M441.67107,245.0626c-7.45981,-1.25522 -15.27988,-11.92676 -15.27988,-11.92676c0,0 9.4358,4.66895 14.2193,5.00567c4.78349,0.33672 10.75088,-1.92223 11.80441,-3.17383c1.54806,-1.8391 3.12111,-24.10368 26.75897,-17.92455c11.52657,3.01314 25.62446,16.37166 8.17106,28.46451c-16.3562,11.33264 -19.77516,-7.39643 -20.33289,-7.42985c-0.65563,-0.03928 -6.55559,10.14572 -25.34096,6.98481zM475.21558,245.51525c1.93067,1.19194 6.02089,-2.49891 6.69556,-3.55584c1.3871,-2.17298 1.6943,-4.45621 -0.47867,-5.84332c-2.17297,-1.38711 -4.11472,-0.14725 -5.50181,2.02573c-0.71243,1.11606 -2.75377,6.1148 -0.71508,7.37343zM482.37366,228.7425c0.68534,-1.07364 -1.86062,0.58437 -3.16441,-0.24789c-1.30379,-0.83227 -3.7149,2.94488 -2.41111,3.77714c1.30378,0.83226 3.18231,0.21986 5.57552,-3.52925zM486.49883,238.24262c1.30379,0.83227 3.81536,-3.10226 2.51157,-3.93452c-1.30378,-0.83226 -0.22195,-4.85743 -1.65747,-2.60862c-1.43551,2.24882 -2.15788,5.71088 -0.8541,6.54314z" data-paper-data="{&quot;index&quot;:null}"/><path d="M200.29365,116.90213c7.45981,1.25522 15.27988,11.92676 15.27988,11.92676c0,0 -9.4358,-4.66894 -14.2193,-5.00567c-4.78349,-0.33672 -10.75089,1.92223 -11.80442,3.17383c-1.54806,1.8391 -3.12111,24.10367 -26.75897,17.92455c-11.52658,-3.01314 -25.62445,-16.37166 -8.17105,-28.46451c16.3562,-11.33264 19.77516,7.39643 20.33289,7.42985c0.65563,0.03928 6.55559,-10.14572 25.34096,-6.98481zM166.74914,116.44947c-1.93067,-1.19194 -6.02088,2.49891 -6.69556,3.55584c-1.38709,2.17298 -1.69431,4.45621 0.47867,5.84332c2.17298,1.38711 4.11472,0.14725 5.50181,-2.02573c0.71243,-1.11606 2.75377,-6.1148 0.71508,-7.37343zM159.59106,133.22222c-0.68534,1.07363 1.86062,-0.58438 3.16441,0.24789c1.30379,0.83227 3.7149,-2.94487 2.41111,-3.77714c-1.30379,-0.83226 -3.18231,-0.21986 -5.57552,3.52925zM155.46589,123.72211c-1.30379,-0.83227 -3.81536,3.10225 -2.51157,3.93452c1.30379,0.83226 0.22195,4.85743 1.65747,2.60861c1.43552,-2.24882 2.15788,-5.71088 0.8541,-6.54314z" data-paper-data="{&quot;index&quot;:null}"/></g></g><g><g><path d="M441.0468,243.4012c-7.46674,-1.21329 -15.34664,-11.84073 -15.34664,-11.84073c0,0 9.46188,4.61587 14.2472,4.92571c4.78531,0.30984 10.73991,-1.9826 11.78639,-3.2401c1.5377,-1.84777 2.98565,-24.12083 26.65785,-18.0746c11.54332,2.94834 25.71603,16.22745 8.33084,28.41816c-16.29228,11.42435 -19.8164,-7.28522 -20.37431,-7.3155c-0.65584,-0.0356 -6.49849,10.18239 -25.30132,7.12706zM474.59333,243.66539c1.93734,1.18107 6.00676,-2.5327 6.67548,-3.5934c1.37487,-2.18074 1.66924,-4.46566 -0.51149,-5.84054c-2.18073,-1.37488 -4.11548,-0.12413 -5.49034,2.05661c-0.70615,1.12004 -2.71937,6.13017 -0.67365,7.37733zM481.65707,226.85269c0.6793,-1.07747 -1.85731,0.59481 -3.16575,-0.23011c-1.30845,-0.82493 -3.6983,2.9657 -2.38985,3.79063c1.30843,0.82492 3.18349,0.20198 5.55561,-3.56052zM485.83554,236.32949c1.30845,0.82493 3.79787,-3.12365 2.48943,-3.94857c-1.30843,-0.82492 -0.24923,-4.85611 -1.6721,-2.59927c-1.42285,2.25685 -2.12576,5.72291 -0.81733,6.54783z" data-paper-data="{&quot;index&quot;:null}"/><path d="M198.9532,116.59878c7.46674,1.21329 15.34664,11.84073 15.34664,11.84073c0,0 -9.46188,-4.61586 -14.2472,-4.92571c-4.78531,-0.30984 -10.73992,1.9826 -11.7864,3.2401c-1.5377,1.84777 -2.98565,24.12082 -26.65785,18.07459c-11.54333,-2.94834 -25.71602,-16.22745 -8.33083,-28.41816c16.29228,-11.42435 19.8164,7.28522 20.37431,7.3155c0.65584,0.0356 6.49849,-10.18239 25.30132,-7.12706zM165.40668,116.33458c-1.93734,-1.18107 -6.00675,2.5327 -6.67548,3.5934c-1.37486,2.18074 -1.66925,4.46567 0.51149,5.84054c2.18074,1.37487 4.11548,0.12413 5.49034,-2.05661c0.70615,-1.12004 2.71937,-6.13017 0.67365,-7.37733zM158.34294,133.14728c-0.6793,1.07746 1.85731,-0.59482 3.16575,0.23011c1.30845,0.82493 3.6983,-2.96569 2.38985,-3.79063c-1.30844,-0.82492 -3.18349,-0.20198 -5.55561,3.56052zM154.16446,123.67049c-1.30845,-0.82493 -3.79787,3.12364 -2.48943,3.94857c1.30844,0.82492 0.24923,4.85611 1.6721,2.59926c1.42286,-2.25685 2.12576,-5.72291 0.81733,-6.54783z" data-paper-data="{&quot;index&quot;:null}"/></g><g><path d="M440.67177,244.11214c-7.45948,-1.25719 -15.27673,-11.9308 -15.27673,-11.9308c0,0 9.43456,4.67144 14.21798,5.00942c4.7834,0.33798 10.75139,-1.91939 11.80524,-3.17071c1.54854,-1.83869 3.12748,-24.10285 26.7637,-17.91748c11.52578,3.01619 25.62013,16.37844 8.16353,28.46667c-16.3592,11.32831 -19.7732,-7.40165 -20.33092,-7.43522c-0.65562,-0.03946 -6.55828,10.14398 -25.34281,6.97811zM474.21615,244.57364c1.93036,1.19245 6.02156,-2.49732 6.6965,-3.55407c1.38768,-2.17261 1.69547,-4.45577 -0.47713,-5.84344c-2.1726,-1.38769 -4.11468,-0.14834 -5.50234,2.02427c-0.71272,1.11587 -2.75539,6.11408 -0.71703,7.37324zM481.37867,227.80279c0.68562,-1.07346 -1.86078,0.58388 -3.16435,-0.24873c-1.30357,-0.83261 -3.71568,2.9439 -2.41211,3.7765c1.30356,0.8326 3.18225,0.22071 5.57645,-3.52777zM485.50133,237.304c1.30357,0.83261 3.81618,-3.10125 2.51261,-3.93386c-1.30356,-0.8326 -0.22066,-4.85749 -1.65678,-2.60905c-1.4361,2.24844 -2.15939,5.71031 -0.85583,6.54291z" data-paper-data="{&quot;index&quot;:null}"/><path d="M199.32823,115.88785c7.45948,1.25719 15.27673,11.9308 15.27673,11.9308c0,0 -9.43456,-4.67144 -14.21798,-5.00942c-4.7834,-0.33798 -10.7514,1.91939 -11.80525,3.17071c-1.54854,1.83869 -3.12748,24.10285 -26.7637,17.91747c-11.52578,-3.01619 -25.62013,-16.37843 -8.16353,-28.46667c16.3592,-11.32831 19.7732,7.40166 20.33092,7.43522c0.65562,0.03946 6.55828,-10.14399 25.34281,-6.97811zM165.78384,115.42634c-1.93036,-1.19245 -6.02155,2.49733 -6.6965,3.55407c-1.38767,2.17261 -1.69548,4.45577 0.47713,5.84344c2.17261,1.38768 4.11468,0.14834 5.50234,-2.02427c0.71272,-1.11587 2.75539,-6.11408 0.71703,-7.37324zM158.62133,132.19719c-0.68562,1.07346 1.86078,-0.58388 3.16435,0.24873c1.30357,0.83261 3.71568,-2.94389 2.41211,-3.7765c-1.30357,-0.8326 -3.18226,-0.22071 -5.57646,3.52777zM154.49867,122.69599c-1.30357,-0.83261 -3.81618,3.10125 -2.51261,3.93385c1.30357,0.8326 0.22066,4.8575 1.65677,2.60905c1.43611,-2.24844 2.15939,-5.71031 0.85583,-6.54291z" data-paper-data="{&quot;index&quot;:null}"/></g><g><path d="M439.26002,246.7015c-7.43061,-1.41789 -15.01568,-12.25772 -15.01568,-12.25772c0,0 9.33155,4.87397 14.10655,5.3151c4.77499,0.44114 10.7903,-1.68691 11.87093,-2.9152c1.58787,-1.80484 3.64693,-24.02975 27.14416,-17.3357c11.458,3.26423 25.26069,16.92755 7.54727,28.63622c-16.59987,10.97262 -19.60886,-7.82667 -20.16572,-7.87227c-0.65461,-0.05359 -6.77567,10.00008 -25.4875,6.42955zM472.78663,247.88685c1.90417,1.23383 6.07404,-2.36678 6.77165,-3.40872c1.43424,-2.14216 1.79125,-4.41813 -0.3509,-5.85238c-2.14215,-1.43425 -4.11052,-0.2371 -5.54476,1.90505c-0.73664,1.10023 -2.8867,6.05318 -0.87599,7.35605zM480.30942,231.27447c0.70864,-1.05841 -1.87295,0.54358 -3.15824,-0.31696c-1.28529,-0.86055 -3.77835,2.86302 -2.49305,3.72356c1.28528,0.86054 3.17675,0.28933 5.65129,-3.4066zM484.22606,240.86245c1.28529,0.86055 3.88223,-3.01817 2.59692,-3.87871c-1.28528,-0.86054 -0.11578,-4.86112 -1.60009,-2.6442c-1.4843,2.21692 -2.28213,5.66238 -0.99684,6.52292z" data-paper-data="{&quot;index&quot;:null}"/><path d="M200.73999,113.29849c7.43061,1.41789 15.01568,12.25772 15.01568,12.25772c0,0 -9.33155,-4.87396 -14.10655,-5.3151c-4.77499,-0.44114 -10.79031,1.68691 -11.87093,2.9152c-1.58787,1.80484 -3.64693,24.02974 -27.14416,17.3357c-11.458,-3.26423 -25.26069,-16.92754 -7.54727,-28.63621c16.59987,-10.97262 19.60885,7.82667 20.16572,7.87227c0.65461,0.05359 6.77567,-10.00009 25.4875,-6.42955zM167.21337,112.11313c-1.90417,-1.23383 -6.07404,2.36679 -6.77165,3.40872c-1.43424,2.14216 -1.79125,4.41814 0.3509,5.85238c2.14215,1.43425 4.11052,0.2371 5.54476,-1.90505c0.73664,-1.10023 2.8867,-6.05318 0.87599,-7.35605zM159.69059,128.72551c-0.70864,1.05841 1.87295,-0.54359 3.15824,0.31696c1.28529,0.86055 3.77836,-2.86302 2.49305,-3.72356c-1.28529,-0.86054 -3.17676,-0.28933 -5.65129,3.4066zM155.77394,119.13754c-1.28529,-0.86055 -3.88222,3.01817 -2.59692,3.87871c1.28529,0.86054 0.11578,4.86113 1.60008,2.6442c1.4843,-2.21692 2.28213,-5.66238 0.99684,-6.52292z" data-paper-data="{&quot;index&quot;:null}"/></g><g><path d="M440.05894,242.42437c-7.46674,-1.21329 -15.34664,-11.84073 -15.34664,-11.84073c0,0 9.46188,4.61587 14.2472,4.92571c4.78531,0.30984 10.73991,-1.9826 11.78639,-3.2401c1.5377,-1.84777 2.98565,-24.12083 26.65785,-18.0746c11.54332,2.94834 25.71603,16.22745 8.33084,28.41816c-16.29228,11.42435 -19.8164,-7.28522 -20.37431,-7.3155c-0.65584,-0.0356 -6.49849,10.18239 -25.30132,7.12706zM473.60546,242.68857c1.93734,1.18107 6.00676,-2.5327 6.67548,-3.5934c1.37487,-2.18074 1.66924,-4.46566 -0.51149,-5.84054c-2.18073,-1.37488 -4.11548,-0.12413 -5.49034,2.05661c-0.70615,1.12004 -2.71937,6.13017 -0.67365,7.37733zM480.6692,225.87587c0.6793,-1.07747 -1.85731,0.59481 -3.16575,-0.23011c-1.30845,-0.82493 -3.6983,2.9657 -2.38985,3.79063c1.30843,0.82492 3.18349,0.20198 5.55561,-3.56052zM484.84768,235.35266c1.30845,0.82493 3.79787,-3.12365 2.48943,-3.94857c-1.30843,-0.82492 -0.24923,-4.85611 -1.6721,-2.59927c-1.42285,2.25685 -2.12576,5.72291 -0.81733,6.54783z" data-paper-data="{&quot;index&quot;:null}"/><path d="M197.96534,115.62196c7.46674,1.21329 15.34664,11.84073 15.34664,11.84073c0,0 -9.46188,-4.61586 -14.2472,-4.92571c-4.78531,-0.30984 -10.73992,1.9826 -11.7864,3.2401c-1.5377,1.84777 -2.98565,24.12082 -26.65785,18.0746c-11.54333,-2.94834 -25.71602,-16.22745 -8.33083,-28.41816c16.29228,-11.42435 19.8164,7.28522 20.37431,7.3155c0.65584,0.0356 6.49849,-10.18239 25.30132,-7.12706zM164.4188,115.35775c-1.93734,-1.18107 -6.00675,2.5327 -6.67548,3.5934c-1.37486,2.18074 -1.66925,4.46566 0.51149,5.84054c2.18074,1.37488 4.11548,0.12413 5.49034,-2.05661c0.70615,-1.12004 2.71937,-6.13017 0.67365,-7.37733zM157.35507,132.17045c-0.6793,1.07746 1.85731,-0.59482 3.16575,0.23011c1.30845,0.82493 3.6983,-2.96569 2.38985,-3.79063c-1.30844,-0.82492 -3.18349,-0.20198 -5.55561,3.56052zM153.1766,122.69367c-1.30845,-0.82493 -3.79787,3.12364 -2.48943,3.94857c1.30844,0.82492 0.24923,4.85611 1.6721,2.59926c1.42286,-2.25685 2.12576,-5.72291 0.81733,-6.54783z" data-paper-data="{&quot;index&quot;:null}"/></g><g><path d="M442.03467,244.37803c-7.46674,-1.21329 -15.34664,-11.84073 -15.34664,-11.84073c0,0 9.46188,4.61587 14.2472,4.92571c4.78531,0.30984 10.73991,-1.9826 11.78639,-3.2401c1.5377,-1.84777 2.98565,-24.12083 26.65785,-18.0746c11.54332,2.94834 25.71603,16.22745 8.33084,28.41816c-16.29228,11.42435 -19.8164,-7.28522 -20.37431,-7.3155c-0.65584,-0.0356 -6.49849,10.18239 -25.30132,7.12706zM475.58119,244.64223c1.93734,1.18107 6.00676,-2.5327 6.67548,-3.5934c1.37487,-2.18074 1.66924,-4.46566 -0.51149,-5.84054c-2.18073,-1.37488 -4.11548,-0.12413 -5.49034,2.05661c-0.70615,1.12004 -2.71937,6.13017 -0.67365,7.37733zM482.64493,227.82953c0.6793,-1.07747 -1.85731,0.59481 -3.16575,-0.23011c-1.30845,-0.82493 -3.6983,2.9657 -2.38985,3.79063c1.30843,0.82492 3.18349,0.20198 5.55561,-3.56052zM486.82341,237.30632c1.30845,0.82493 3.79787,-3.12365 2.48943,-3.94857c-1.30843,-0.82492 -0.24923,-4.85611 -1.6721,-2.59927c-1.42285,2.25685 -2.12576,5.72291 -0.81733,6.54783z" data-paper-data="{&quot;index&quot;:null}"/><path d="M199.94106,117.57562c7.46674,1.21329 15.34664,11.84073 15.34664,11.84073c0,0 -9.46188,-4.61586 -14.2472,-4.92571c-4.78531,-0.30984 -10.73992,1.9826 -11.7864,3.2401c-1.5377,1.84777 -2.98565,24.12082 -26.65785,18.0746c-11.54333,-2.94834 -25.71602,-16.22745 -8.33083,-28.41816c16.29228,-11.42435 19.8164,7.28522 20.37431,7.3155c0.65584,0.0356 6.49849,-10.18239 25.30132,-7.12706zM166.39454,117.31141c-1.93734,-1.18107 -6.00675,2.5327 -6.67548,3.5934c-1.37486,2.18074 -1.66925,4.46566 0.51149,5.84054c2.18074,1.37488 4.11548,0.12413 5.49034,-2.05661c0.70615,-1.12004 2.71937,-6.13017 0.67365,-7.37733zM159.3308,134.12411c-0.6793,1.07746 1.85731,-0.59482 3.16575,0.23011c1.30845,0.82493 3.6983,-2.96569 2.38985,-3.79063c-1.30844,-0.82492 -3.18349,-0.20198 -5.55561,3.56052zM155.15233,124.64733c-1.30845,-0.82493 -3.79787,3.12364 -2.48943,3.94857c1.30844,0.82492 0.24923,4.85611 1.6721,2.59926c1.42286,-2.25685 2.12576,-5.72291 0.81733,-6.54783z" data-paper-data="{&quot;index&quot;:null}"/></g></g></g><g><g><g><path d="M438.32469,248.34697c-7.41026,-1.52067 -14.84446,-12.46452 -14.84446,-12.46452c0,0 9.26315,5.00275 14.03158,5.50999c4.76842,0.50724 10.81264,-1.53729 11.91017,-2.75049c1.61271,-1.78268 3.97942,-23.97693 27.38168,-16.95806c11.41168,3.42262 25.0238,17.27581 7.14991,28.73801c-16.75026,10.74164 -19.49857,-8.09752 -20.05475,-8.15083c-0.65381,-0.06266 -6.91353,9.90528 -25.57411,6.0759zM471.83167,249.99658c1.8869,1.26009 6.10624,-2.28242 6.81821,-3.3146c1.46377,-2.12209 1.85227,-4.3929 -0.26981,-5.85668c-2.12208,-1.46378 -4.10684,-0.29402 -5.57061,1.82807c-0.75181,1.08992 -2.97026,6.01262 -0.97779,7.34321zM479.58384,233.49c0.72322,-1.0485 -1.88029,0.51759 -3.15355,-0.36067c-1.27325,-0.87827 -3.81764,2.81041 -2.54439,3.68868c1.27324,0.87826 3.17244,0.3333 5.69793,-3.328zM483.36731,243.1313c1.27325,0.87827 3.92365,-2.96411 2.6504,-3.84237c-1.27324,-0.87826 -0.04844,-4.86226 -1.56331,-2.66612c-1.51486,2.19615 -2.36034,5.63022 -1.08709,6.50849z" data-paper-data="{&quot;index&quot;:null}"/><path d="M201.67531,111.65302c7.41026,1.52067 14.84446,12.46452 14.84446,12.46452c0,0 -9.26315,-5.00274 -14.03158,-5.50999c-4.76842,-0.50724 -10.81265,1.53729 -11.91018,2.75049c-1.61271,1.78268 -3.97942,23.97692 -27.38167,16.95805c-11.41169,-3.42262 -25.02379,-17.2758 -7.1499,-28.73801c16.75026,-10.74164 19.49857,8.09752 20.05475,8.15083c0.65381,0.06266 6.91353,-9.90528 25.57411,-6.0759zM168.16833,110.0034c-1.8869,-1.26009 -6.10623,2.28242 -6.81821,3.3146c-1.46376,2.12209 -1.85228,4.39291 0.26981,5.85668c2.12209,1.46377 4.10684,0.29402 5.57061,-1.82807c0.75181,-1.08992 2.97026,-6.01262 0.97779,-7.34321zM160.41616,126.50998c-0.72322,1.04849 1.88029,-0.5176 3.15355,0.36067c1.27325,0.87827 3.81764,-2.8104 2.54439,-3.68868c-1.27325,-0.87826 -3.17244,-0.3333 -5.69793,3.328zM156.63269,116.86869c-1.27325,-0.87827 -3.92365,2.9641 -2.6504,3.84237c1.27325,0.87826 0.04844,4.86226 1.56331,2.66611c1.51487,-2.19615 2.36034,-5.63022 1.08709,-6.50849z" data-paper-data="{&quot;index&quot;:null}"/></g><g><path d="M437.92061,249.04181c-7.40119,-1.56424 -14.77088,-12.55162 -14.77088,-12.55162c0,0 9.23356,5.05715 13.99893,5.59243c4.76536,0.53527 10.82149,-1.47366 11.92614,-2.68039c1.62317,-1.77316 4.12039,-23.9531 27.48095,-16.7967c11.39136,3.48969 24.92175,17.42271 6.98074,28.77957c-16.81315,10.64292 -19.4506,-8.21207 -20.00646,-8.26865c-0.65343,-0.0665 -6.97168,9.86444 -25.60941,5.92537zM471.41731,250.88848c1.87946,1.27117 6.11957,-2.24646 6.83759,-3.27443c1.47623,-2.11344 1.87807,-4.38193 -0.23535,-5.85816c-2.11343,-1.47624 -4.10504,-0.31817 -5.58126,1.79527c-0.75821,1.08548 -3.00558,5.99505 -1.02097,7.33733zM479.26643,234.42779c0.72937,-1.04422 -1.88331,0.50652 -3.15137,-0.37922c-1.26806,-0.88574 -3.83411,2.78791 -2.56604,3.67364c1.26805,0.88573 3.17042,0.35196 5.71741,-3.29443zM482.99313,244.09118c1.26806,0.88574 3.94102,-2.94097 2.67295,-3.82672c-1.26805,-0.88573 -0.01983,-4.86246 -1.5476,-2.67526c-1.52775,2.18721 -2.39342,5.61624 -1.12535,6.50198z" data-paper-data="{&quot;index&quot;:null}"/><path d="M202.07939,110.95819c7.40119,1.56424 14.77088,12.55162 14.77088,12.55162c0,0 -9.23356,-5.05715 -13.99893,-5.59243c-4.76536,-0.53527 -10.8215,1.47366 -11.92615,2.68039c-1.62317,1.77316 -4.12039,23.9531 -27.48095,16.79669c-11.39136,-3.48969 -24.92175,-17.4227 -6.98074,-28.77957c16.81315,-10.64292 19.4506,8.21208 20.00646,8.26865c0.65343,0.0665 6.97168,-9.86445 25.60941,-5.92537zM168.58268,109.11151c-1.87946,-1.27117 -6.11956,2.24647 -6.83759,3.27443c-1.47622,2.11344 -1.87808,4.38193 0.23535,5.85816c2.11344,1.47623 4.10504,0.31817 5.58126,-1.79527c0.75821,-1.08548 3.00558,-5.99505 1.02097,-7.33733zM160.73357,125.5722c-0.72937,1.04422 1.88331,-0.50652 3.15137,0.37922c1.26806,0.88574 3.83411,-2.7879 2.56604,-3.67364c-1.26806,-0.88573 -3.17043,-0.35196 -5.71742,3.29443zM157.00687,115.90882c-1.26806,-0.88574 -3.94102,2.94097 -2.67295,3.82671c1.26806,0.88573 0.01983,4.86247 1.54759,2.67526c1.52776,-2.18721 2.39342,-5.61624 1.12535,-6.50198z" data-paper-data="{&quot;index&quot;:null}"/></g><g><path d="M436.40311,251.57065c-7.36571,-1.7236 -14.49656,-12.86748 -14.49656,-12.86748c0,0 9.12226,5.25526 13.87497,5.89324c4.7527,0.638 10.85077,-1.23977 11.98121,-2.42238c1.66106,-1.73771 4.63637,-23.8586 27.83705,-16.1997c11.31339,3.73472 24.53993,17.9565 6.35801,28.92353c-17.03893,10.27759 -19.26884,-8.62994 -19.82335,-8.6985c-0.65184,-0.08059 -7.18294,9.71168 -25.73132,5.37129zM469.85215,254.13981c1.85158,1.31143 6.16662,-2.11387 6.90667,-3.1261c1.5215,-2.08109 1.97221,-4.34037 -0.10887,-5.86188c-2.08108,-1.52151 -4.09722,-0.40669 -5.61871,1.6744c-0.78146,1.06886 -3.13426,5.92878 -1.17908,7.31359zM478.0547,237.85234c0.75175,-1.02823 -1.8938,0.46575 -3.14245,-0.44714c-1.24865,-0.91291 -3.89338,2.70451 -2.64473,3.61741c1.24864,0.9129 3.16208,0.4203 5.78718,-3.17027zM481.57196,247.59392c1.24865,0.91291 4.00358,-2.85524 2.75492,-3.76813c-1.24864,-0.9129 0.08511,-4.86175 -1.4895,-2.70804c-1.5746,2.15372 -2.51406,5.56328 -1.26542,6.47618z" data-paper-data="{&quot;index&quot;:null}"/><path d="M203.59689,108.42935c7.36571,1.7236 14.49656,12.86748 14.49656,12.86748c0,0 -9.12226,-5.25525 -13.87497,-5.89324c-4.7527,-0.638 -10.85078,1.23977 -11.98121,2.42238c-1.66106,1.73771 -4.63637,23.85859 -27.83705,16.1997c-11.31339,-3.73472 -24.53993,-17.95649 -6.35801,-28.92352c17.03893,-10.27759 19.26883,8.62994 19.82335,8.6985c0.65184,0.08059 7.18294,-9.71169 25.73132,-5.37129zM170.14785,105.86018c-1.85158,-1.31143 -6.16662,2.11388 -6.90667,3.1261c-1.5215,2.08109 -1.97221,4.34038 0.10887,5.86188c2.08108,1.52151 4.09722,0.40669 5.61871,-1.6744c0.78146,-1.06886 3.13426,-5.92878 1.17908,-7.31359zM161.94531,122.14765c-0.75175,1.02823 1.8938,-0.46576 3.14245,0.44714c1.24865,0.91291 3.89339,-2.70451 2.64473,-3.61741c-1.24865,-0.9129 -3.16209,-0.4203 -5.78718,3.17027zM158.42804,112.40608c-1.24865,-0.91291 -4.00357,2.85524 -2.75492,3.76813c1.24865,0.9129 -0.08511,4.86176 1.4895,2.70804c1.5746,-2.15372 2.51406,-5.56328 1.26542,-6.47618z" data-paper-data="{&quot;index&quot;:null}"/></g><g><path d="M437.37802,247.33017c-7.41026,-1.52067 -14.84446,-12.46452 -14.84446,-12.46452c0,0 9.26315,5.00275 14.03158,5.50999c4.76842,0.50724 10.81264,-1.53729 11.91017,-2.75049c1.61271,-1.78268 3.97942,-23.97693 27.38168,-16.95806c11.41168,3.42262 25.0238,17.27581 7.14991,28.73801c-16.75026,10.74164 -19.49857,-8.09752 -20.05475,-8.15083c-0.65381,-0.06266 -6.91353,9.90528 -25.57411,6.0759zM470.885,248.97979c1.8869,1.26009 6.10624,-2.28242 6.81821,-3.3146c1.46377,-2.12209 1.85227,-4.3929 -0.26981,-5.85668c-2.12208,-1.46378 -4.10684,-0.29402 -5.57061,1.82807c-0.75181,1.08992 -2.97026,6.01262 -0.97779,7.34321zM478.63717,232.47321c0.72322,-1.0485 -1.88029,0.51759 -3.15355,-0.36067c-1.27325,-0.87827 -3.81764,2.81041 -2.54439,3.68868c1.27324,0.87826 3.17244,0.3333 5.69793,-3.328zM482.42063,242.11451c1.27325,0.87827 3.92365,-2.96411 2.6504,-3.84237c-1.27324,-0.87826 -0.04844,-4.86226 -1.56331,-2.66612c-1.51486,2.19615 -2.36034,5.63022 -1.08709,6.50849z" data-paper-data="{&quot;index&quot;:null}"/><path d="M200.72864,110.63623c7.41026,1.52067 14.84446,12.46452 14.84446,12.46452c0,0 -9.26315,-5.00274 -14.03158,-5.50999c-4.76842,-0.50724 -10.81265,1.53729 -11.91018,2.75049c-1.61271,1.78268 -3.97942,23.97692 -27.38168,16.95806c-11.41169,-3.42262 -25.02379,-17.2758 -7.1499,-28.73801c16.75026,-10.74164 19.49857,8.09752 20.05475,8.15083c0.65381,0.06266 6.91353,-9.90528 25.57411,-6.0759zM167.22165,108.9866c-1.8869,-1.26009 -6.10623,2.28242 -6.81821,3.3146c-1.46376,2.12209 -1.85228,4.3929 0.26981,5.85668c2.12209,1.46378 4.10684,0.29402 5.57061,-1.82807c0.75181,-1.08992 2.97026,-6.01262 0.97779,-7.34321zM159.46949,125.49318c-0.72322,1.04849 1.88029,-0.5176 3.15355,0.36067c1.27325,0.87827 3.81764,-2.8104 2.54439,-3.68868c-1.27325,-0.87826 -3.17244,-0.3333 -5.69793,3.328zM155.68602,115.85189c-1.27325,-0.87827 -3.92365,2.9641 -2.6504,3.84237c1.27325,0.87826 0.04844,4.86226 1.56331,2.66611c1.51487,-2.19615 2.36034,-5.63022 1.08709,-6.50849z" data-paper-data="{&quot;index&quot;:null}"/></g><g><path d="M439.27136,249.36377c-7.41026,-1.52067 -14.84446,-12.46452 -14.84446,-12.46452c0,0 9.26315,5.00275 14.03158,5.50999c4.76842,0.50724 10.81264,-1.53729 11.91017,-2.75049c1.61271,-1.78268 3.97942,-23.97693 27.38168,-16.95806c11.41168,3.42262 25.0238,17.27581 7.14991,28.73801c-16.75026,10.74164 -19.49857,-8.09752 -20.05475,-8.15083c-0.65381,-0.06266 -6.91353,9.90528 -25.57411,6.0759zM472.77835,251.01339c1.8869,1.26009 6.10624,-2.28242 6.81821,-3.3146c1.46377,-2.12209 1.85227,-4.3929 -0.26981,-5.85668c-2.12208,-1.46378 -4.10684,-0.29402 -5.57061,1.82807c-0.75181,1.08992 -2.97026,6.01262 -0.97779,7.34321zM480.53051,234.50681c0.72322,-1.0485 -1.88029,0.51759 -3.15355,-0.36067c-1.27325,-0.87827 -3.81764,2.81041 -2.54439,3.68868c1.27324,0.87826 3.17244,0.3333 5.69793,-3.328zM484.31398,244.14811c1.27325,0.87827 3.92365,-2.96411 2.6504,-3.84237c-1.27324,-0.87826 -0.04844,-4.86226 -1.56331,-2.66612c-1.51486,2.19615 -2.36034,5.63022 -1.08709,6.50849z" data-paper-data="{&quot;index&quot;:null}"/><path d="M202.62198,112.66983c7.41026,1.52067 14.84446,12.46452 14.84446,12.46452c0,0 -9.26315,-5.00274 -14.03158,-5.50999c-4.76842,-0.50724 -10.81265,1.53729 -11.91018,2.75049c-1.61271,1.78268 -3.97942,23.97692 -27.38168,16.95806c-11.41169,-3.42262 -25.02379,-17.2758 -7.1499,-28.73801c16.75026,-10.74164 19.49857,8.09752 20.05475,8.15083c0.65381,0.06266 6.91353,-9.90528 25.57411,-6.0759zM169.115,111.0202c-1.8869,-1.26009 -6.10623,2.28242 -6.81821,3.3146c-1.46376,2.12209 -1.85228,4.3929 0.26981,5.85668c2.12209,1.46378 4.10684,0.29402 5.57061,-1.82807c0.75181,-1.08992 2.97026,-6.01262 0.97779,-7.34321zM161.36283,127.52678c-0.72322,1.04849 1.88029,-0.5176 3.15355,0.36067c1.27325,0.87827 3.81764,-2.8104 2.54439,-3.68868c-1.27325,-0.87826 -3.17244,-0.3333 -5.69793,3.328zM157.57937,117.88549c-1.27325,-0.87827 -3.92365,2.9641 -2.6504,3.84237c1.27325,0.87826 0.04844,4.86226 1.56331,2.66611c1.51487,-2.19615 2.36034,-5.63022 1.08709,-6.50849z" data-paper-data="{&quot;index&quot;:null}"/></g></g><g><g><path d="M438.70679,247.68115c-7.41868,-1.47902 -14.91425,-12.38094 -14.91425,-12.38094c0,0 9.29111,4.95064 14.06232,5.43108c4.7712,0.48044 10.80383,-1.59801 11.89452,-2.81736c1.60268,-1.79171 3.84466,-23.9989 27.28598,-17.11162c11.43073,3.35846 25.12047,17.13495 7.31125,28.69739c-16.68965,10.83557 -19.54375,-7.98786 -20.10023,-8.03803c-0.65415,-0.05898 -6.85777,9.94396 -25.53958,6.21948zM472.22251,249.1425c1.89395,1.24947 6.09333,-2.31669 6.79948,-3.35285c1.45183,-2.13028 1.82756,-4.40324 -0.30271,-5.85507c-2.13027,-1.45184 -4.10843,-0.27094 -5.56025,1.85934c-0.74568,1.09413 -2.93644,6.02921 -0.93653,7.34859zM479.88182,232.59263c0.71732,-1.05254 -1.87735,0.52814 -3.15552,-0.34295c-1.27817,-0.8711 -3.80179,2.83182 -2.52363,3.70291c1.27816,0.87109 3.17426,0.31548 5.67915,-3.35996zM483.71939,242.21252c1.27817,0.8711 3.90694,-2.98611 2.62877,-3.8572c-1.27816,-0.87109 -0.07575,-4.86191 -1.57826,-2.65729c-1.5025,2.20463 -2.32867,5.6434 -1.05051,6.51449z" data-paper-data="{&quot;index&quot;:null}"/><path d="M201.29321,112.31883c7.41868,1.47902 14.91425,12.38094 14.91425,12.38094c0,0 -9.29111,-4.95063 -14.06232,-5.43108c-4.7712,-0.48044 -10.80384,1.59801 -11.89453,2.81736c-1.60268,1.79171 -3.84466,23.99889 -27.28597,17.11161c-11.43074,-3.35846 -25.12046,-17.13495 -7.31124,-28.69739c16.68965,-10.83557 19.54375,7.98786 20.10023,8.03803c0.65415,0.05898 6.85777,-9.94396 25.53958,-6.21948zM167.7775,110.85747c-1.89395,-1.24947 -6.09332,2.31669 -6.79948,3.35285c-1.45182,2.13028 -1.82757,4.40325 0.30271,5.85507c2.13028,1.45183 4.10843,0.27094 5.56025,-1.85934c0.74568,-1.09413 2.93644,-6.02921 0.93653,-7.34859zM160.11818,127.40734c-0.71732,1.05253 1.87735,-0.52815 3.15552,0.34295c1.27817,0.8711 3.80179,-2.83181 2.52363,-3.70291c-1.27817,-0.87109 -3.17426,-0.31548 -5.67915,3.35996zM156.28061,117.78746c-1.27817,-0.8711 -3.90694,2.9861 -2.62877,3.8572c1.27817,0.87109 0.07575,4.86191 1.57826,2.65728c1.50251,-2.20463 2.32867,-5.6434 1.05051,-6.51449z" data-paper-data="{&quot;index&quot;:null}"/></g><g><path d="M438.30662,248.37825c-7.40986,-1.52263 -14.84116,-12.46844 -14.84116,-12.46844c0,0 9.26182,5.0052 14.03012,5.51369c4.76829,0.5085 10.81305,-1.53443 11.91089,-2.74734c1.61318,-1.78225 3.98576,-23.97587 27.38615,-16.95083c11.41078,3.42564 25.01923,17.28243 7.14231,28.7399c-16.7531,10.73721 -19.49643,-8.10268 -20.05259,-8.15612c-0.65379,-0.06283 -6.91616,9.90344 -25.57572,6.06914zM471.81316,250.03671c1.88657,1.26059 6.10685,-2.28081 6.81908,-3.31279c1.46433,-2.1217 1.85343,-4.39242 -0.26826,-5.85675c-2.12169,-1.46434 -4.10676,-0.2951 -5.57109,1.8266c-0.75209,1.08972 -2.97185,6.01184 -0.97974,7.34296zM479.56969,233.53218c0.7235,-1.04831 -1.88043,0.5171 -3.15345,-0.36151c-1.27302,-0.87861 -3.81839,2.80941 -2.54537,3.688c1.27301,0.8786 3.17235,0.33414 5.69881,-3.3265zM483.35061,243.17449c1.27302,0.87861 3.92444,-2.96306 2.65141,-3.84167c-1.27301,-0.8786 -0.04715,-4.86227 -1.5626,-2.66653c-1.51544,2.19576 -2.36183,5.6296 -1.08881,6.5082z" data-paper-data="{&quot;index&quot;:null}"/><path d="M201.69338,111.62174c7.40986,1.52263 14.84116,12.46844 14.84116,12.46844c0,0 -9.26182,-5.0052 -14.03012,-5.51369c-4.76829,-0.5085 -10.81306,1.53443 -11.9109,2.74734c-1.61318,1.78225 -3.98576,23.97587 -27.38615,16.95082c-11.41078,-3.42564 -25.01923,-17.28242 -7.14231,-28.7399c16.7531,-10.73721 19.49643,8.10269 20.05259,8.15612c0.65379,0.06283 6.91616,-9.90345 25.57572,-6.06914zM168.18683,109.96327c-1.88657,-1.26059 -6.10684,2.28082 -6.81908,3.31279c-1.46432,2.1217 -1.85344,4.39242 0.26826,5.85675c2.1217,1.46433 4.10676,0.2951 5.57109,-1.8266c0.75209,-1.08972 2.97185,-6.01184 0.97974,-7.34296zM160.43031,126.4678c-0.7235,1.04831 1.88043,-0.5171 3.15345,0.36151c1.27302,0.87861 3.81839,-2.8094 2.54537,-3.688c-1.27302,-0.8786 -3.17236,-0.33414 -5.69882,3.32649zM156.64939,116.82551c-1.27302,-0.87861 -3.92444,2.96306 -2.65141,3.84166c1.27302,0.8786 0.04715,4.86228 1.56259,2.66653c1.51545,-2.19576 2.36183,-5.6296 1.08881,-6.5082z" data-paper-data="{&quot;index&quot;:null}"/></g><g><path d="M436.80335,250.91557c-7.37527,-1.6822 -14.56862,-12.78584 -14.56862,-12.78584c0,0 9.15164,5.20393 13.90786,5.8152c4.75621,0.61129 10.84364,-1.30071 11.96741,-2.48965c1.65127,-1.74702 4.50226,-23.88427 27.7456,-16.35583c11.33419,3.6711 24.64042,17.81835 6.5204,28.88735c-16.98092,10.37315 -19.31702,-8.52156 -19.8719,-8.58699c-0.65228,-0.07692 -7.12827,9.75188 -25.70075,5.51577zM470.2663,253.29679c1.85892,1.30101 6.15464,-2.14849 6.88899,-3.16486c1.50978,-2.0896 1.9478,-4.35138 -0.1418,-5.86118c-2.08959,-1.50979 -4.09943,-0.38366 -5.60922,1.70594c-0.77544,1.07323 -3.10091,5.9463 -1.13798,7.3201zM478.37721,236.96349c0.74596,-1.03244 -1.89115,0.47639 -3.14491,-0.42949c-1.25376,-0.90588 -3.87812,2.72634 -2.62436,3.63221c1.25375,0.90587 3.16439,0.40253 5.76928,-3.20273zM481.94916,246.68515c1.25376,0.90588 3.98747,-2.87768 2.7337,-3.78355c-1.25375,-0.90587 0.05779,-4.86215 -1.50469,-2.69962c-1.56248,2.16254 -2.48277,5.57731 -1.22902,6.48319z" data-paper-data="{&quot;index&quot;:null}"/><path d="M203.19666,109.08442c7.37527,1.6822 14.56862,12.78584 14.56862,12.78584c0,0 -9.15165,-5.20392 -13.90786,-5.8152c-4.75621,-0.61129 -10.84365,1.30071 -11.96741,2.48965c-1.65127,1.74702 -4.50226,23.88426 -27.7456,16.35583c-11.33419,-3.6711 -24.64042,-17.81834 -6.5204,-28.88734c16.98092,-10.37315 19.31701,8.52156 19.8719,8.58699c0.65228,0.07692 7.12827,-9.75189 25.70075,-5.51577zM169.7337,106.70319c-1.85892,-1.30101 -6.15464,2.1485 -6.88899,3.16486c-1.50978,2.0896 -1.9478,4.35139 0.1418,5.86118c2.08959,1.50979 4.09943,0.38366 5.60922,-1.70594c0.77544,-1.07323 3.10091,-5.9463 1.13798,-7.3201zM161.6228,123.03649c-0.74596,1.03244 1.89115,-0.4764 3.14491,0.42949c1.25376,0.90588 3.87813,-2.72634 2.62436,-3.63221c-1.25376,-0.90587 -3.1644,-0.40253 -5.76928,3.20273zM158.05085,113.31484c-1.25376,-0.90588 -3.98746,2.87768 -2.7337,3.78355c1.25376,0.90587 -0.05779,4.86216 1.50468,2.69962c1.56248,-2.16254 2.48277,-5.57731 1.22902,-6.48319z" data-paper-data="{&quot;index&quot;:null}"/></g><g><path d="M437.75442,246.66968c-7.41868,-1.47902 -14.91425,-12.38093 -14.91425,-12.38093c0,0 9.2911,4.95064 14.06231,5.43108c4.7712,0.48044 10.80383,-1.59801 11.89453,-2.81736c1.60268,-1.79171 3.84466,-23.9989 27.28598,-17.11162c11.43073,3.35846 25.12046,17.13495 7.31124,28.69739c-16.68965,10.83557 -19.54375,-7.98786 -20.10023,-8.03803c-0.65415,-0.05898 -6.85777,9.94396 -25.53958,6.21948zM471.27015,248.13104c1.89395,1.24947 6.09332,-2.31669 6.79948,-3.35285c1.45183,-2.13028 1.82756,-4.40323 -0.30271,-5.85507c-2.13027,-1.45184 -4.10843,-0.27094 -5.56025,1.85934c-0.74568,1.09413 -2.93644,6.02921 -0.93652,7.34859zM478.92946,231.58117c0.71732,-1.05254 -1.87736,0.52815 -3.15553,-0.34295c-1.27817,-0.8711 -3.80179,2.83182 -2.52362,3.70291c1.27816,0.87109 3.17426,0.31547 5.67915,-3.35996zM482.76703,241.20106c1.27817,0.8711 3.90694,-2.98611 2.62877,-3.8572c-1.27816,-0.87109 -0.07575,-4.86191 -1.57826,-2.65729c-1.5025,2.20463 -2.32867,5.6434 -1.05051,6.51449z" data-paper-data="{&quot;index&quot;:null}"/><path d="M200.34085,111.30737c7.41868,1.47902 14.91425,12.38093 14.91425,12.38093c0,0 -9.2911,-4.95062 -14.06231,-5.43107c-4.7712,-0.48044 -10.80384,1.59801 -11.89454,2.81736c-1.60268,1.79171 -3.84466,23.99889 -27.28598,17.11162c-11.43074,-3.35846 -25.12045,-17.13495 -7.31123,-28.69739c16.68965,-10.83557 19.54375,7.98786 20.10023,8.03803c0.65415,0.05898 6.85777,-9.94396 25.53958,-6.21948zM166.82511,109.84601c-1.89395,-1.24947 -6.09332,2.31669 -6.79948,3.35285c-1.45182,2.13028 -1.82757,4.40324 0.30271,5.85507c2.13028,1.45184 4.10843,0.27094 5.56025,-1.85934c0.74568,-1.09413 2.93644,-6.02921 0.93652,-7.34859zM159.16581,126.39588c-0.71732,1.05253 1.87735,-0.52815 3.15552,0.34295c1.27817,0.8711 3.80179,-2.83181 2.52363,-3.70291c-1.27817,-0.87109 -3.17426,-0.31548 -5.67915,3.35996zM155.32824,116.77599c-1.27817,-0.8711 -3.90694,2.9861 -2.62877,3.8572c1.27817,0.87109 0.07575,4.86191 1.57826,2.65728c1.50251,-2.20463 2.32867,-5.6434 1.05051,-6.51449z" data-paper-data="{&quot;index&quot;:null}"/></g><g><path d="M439.65916,248.69262c-7.41868,-1.47902 -14.91425,-12.38093 -14.91425,-12.38093c0,0 9.2911,4.95063 14.06231,5.43107c4.7712,0.48044 10.80383,-1.59801 11.89453,-2.81736c1.60268,-1.79171 3.84466,-23.9989 27.28598,-17.11162c11.43073,3.35846 25.12046,17.13495 7.31124,28.69739c-16.68965,10.83557 -19.54375,-7.98786 -20.10023,-8.03803c-0.65415,-0.05898 -6.85777,9.94396 -25.53958,6.21948zM473.17488,250.15397c1.89395,1.24947 6.09333,-2.31669 6.79948,-3.35285c1.45183,-2.13028 1.82756,-4.40324 -0.30271,-5.85507c-2.13027,-1.45184 -4.10843,-0.27094 -5.56025,1.85934c-0.74568,1.09413 -2.93644,6.02921 -0.93652,7.34859zM480.83419,233.6041c0.71732,-1.05254 -1.87736,0.52814 -3.15552,-0.34295c-1.27817,-0.8711 -3.80179,2.83182 -2.52362,3.70291c1.27816,0.87109 3.17426,0.31548 5.67915,-3.35996zM484.67176,243.224c1.27817,0.8711 3.90694,-2.98611 2.62877,-3.8572c-1.27816,-0.87109 -0.07575,-4.86191 -1.57826,-2.65729c-1.5025,2.20463 -2.32867,5.6434 -1.05051,6.51449z" data-paper-data="{&quot;index&quot;:null}"/><path d="M202.24558,113.33031c7.41868,1.47902 14.91425,12.38093 14.91425,12.38093c0,0 -9.2911,-4.95063 -14.06231,-5.43108c-4.7712,-0.48044 -10.80384,1.59801 -11.89454,2.81736c-1.60268,1.79171 -3.84466,23.99889 -27.28598,17.11162c-11.43074,-3.35846 -25.12045,-17.13495 -7.31123,-28.69739c16.68965,-10.83557 19.54375,7.98786 20.10023,8.03803c0.65415,0.05898 6.85777,-9.94396 25.53958,-6.21948zM168.72986,111.86894c-1.89395,-1.24947 -6.09331,2.31669 -6.79948,3.35285c-1.45182,2.13028 -1.82757,4.40323 0.30271,5.85507c2.13028,1.45184 4.10843,0.27094 5.56025,-1.85934c0.74568,-1.09413 2.93644,-6.02921 0.93652,-7.34859zM161.07055,128.41881c-0.71732,1.05253 1.87736,-0.52816 3.15553,0.34295c1.27817,0.8711 3.80179,-2.83181 2.52362,-3.70291c-1.27817,-0.87109 -3.17426,-0.31547 -5.67915,3.35996zM157.23298,118.79893c-1.27817,-0.8711 -3.90694,2.9861 -2.62877,3.8572c1.27817,0.87109 0.07575,4.86191 1.57826,2.65728c1.50251,-2.20463 2.32867,-5.6434 1.05051,-6.51449z" data-paper-data="{&quot;index&quot;:null}"/></g></g></g></g></g></g></svg>