<svg version="1.1" xmlns="http://www.w3.org/2000/svg" xmlns:xlink="http://www.w3.org/1999/xlink" width="121.74298" height="282.04575" viewBox="0,0,121.74298,282.04575"><g transform="translate(-259.12853,-45.35091)"><g data-paper-data="{&quot;isPaintingLayer&quot;:true}" fill-rule="nonzero" stroke-linecap="butt" stroke-linejoin="miter" stroke-miterlimit="10" stroke-dasharray="" stroke-dashoffset="0" style="mix-blend-mode: normal"><g stroke="#000000" stroke-width="0"><path d="M320.00002,152.70648c33.61838,0 60.87149,20.76571 60.87149,33.02065c0,12.25493 -0.38345,134.86356 -60.87149,134.51391c-59.90704,-0.34629 -60.87149,-122.25897 -60.87149,-134.5139c0,-12.25493 27.2531,-33.02064 60.87149,-33.02064z" fill="#1a090d"/><path d="M320.00002,152.70648c28.09666,0 55.8775,12.66813 55.8775,28.29507c0,15.62694 -16.56991,146.39511 -55.8775,146.39511c-39.30759,0 -55.8775,-130.76816 -55.8775,-146.39511c0,-15.62694 27.78085,-28.29507 55.8775,-28.29507z" fill="#4a314d"/><path d="M359.1335,169.7591c0,18.66926 -17.60435,76.9717 -39.13346,76.9717c-21.52912,0 -39.13346,-58.30244 -39.13346,-76.9717c0,-18.66926 78.26693,-18.66926 78.26693,0z" fill="#6b6570"/><path d="M320.00002,140.10343c21.62676,0 39.15872,7.64692 39.15872,17.07987c0,8.12708 -3.57131,32.88919 -21.00549,38.89735c-2.80133,0.96538 -18.15323,-9.04229 -18.15323,-9.04229c0,0 -15.86808,9.90666 -18.89535,8.7758c-17.06008,-6.37287 -20.26336,-30.6195 -20.26336,-38.63085c0,-9.43295 17.53196,-17.07987 39.15872,-17.07987z" fill="#a8ba9a"/><path d="M302.50356,230.60977c0,-10.41111 7.83343,-41.84 17.49645,-41.84c9.66302,0 17.49645,31.4289 17.49645,41.84c0,10.41111 -17.49645,18.85099 -17.49645,18.85099c0,0 -17.49645,-8.43989 -17.49645,-18.85099z" fill="#ace894"/><path d="M320.00002,141.78758c17.02532,0 30.82708,6.01991 30.82708,13.44585c0,7.42594 -13.86769,29.84323 -30.82708,29.84323c-16.95939,0 -30.82707,-22.41729 -30.82707,-29.84323c0,-7.42594 13.80175,-13.44585 30.82707,-13.44585z" fill="#000000"/><path d="M327.40254,194.67576c0,0 4.39893,4.95447 -7.68026,4.64747c-10.40888,-0.26456 -7.69706,-4.75933 -7.69706,-4.75933z" fill="#4a314d"/><path d="M320.00002,175.03141c9.66302,0 16.10784,1.75038 16.10784,5.9651c0,4.21473 -6.44482,16.93805 -16.10784,16.93805c-9.66302,0 -16.10784,-12.72333 -16.10784,-16.93805c0,-4.21472 6.44482,-5.9651 16.10784,-5.9651z" fill="#ace894"/></g><g stroke="none"><path d="M359.38176,95.65523c1.10604,25.29628 0.15479,52.89044 -37.74009,54.54732c-39.10847,1.70995 -41.25092,-25.74896 -42.35695,-51.04523c-1.10604,-25.29628 78.99101,-28.79838 80.09705,-3.50209z" fill="#1a090d" stroke-width="NaN"/><path d="M354.6986,97.4551c0.97477,22.29422 -0.13307,40.45026 -33.53074,41.91051c-34.46725,1.50702 -36.08597,-16.52981 -37.06074,-38.82404c-0.97477,-22.29422 69.61671,-25.38071 70.59148,-3.08649z" fill="#000000" stroke-width="NaN"/><path d="M295.93059,136.17263c-0.07734,-1.76898 3.16238,-8.48201 3.16238,-8.48201c0,0 3.81328,6.40467 3.89062,8.17364c0.07734,1.76898 -1.43882,3.27204 -3.38645,3.3572c-1.94763,0.08516 -3.5892,-1.27985 -3.66655,-3.04882z" fill="#ace894" stroke-width="0.5"/><path d="M338.2485,134.32236c-0.07734,-1.76898 3.16238,-8.48201 3.16238,-8.48201c0,0 3.81326,6.40467 3.8906,8.17364c0.07734,1.76898 -1.43881,3.27204 -3.38643,3.3572c-1.94763,0.08516 -3.5892,-1.27985 -3.66655,-3.04882z" fill="#ace894" stroke-width="0.5"/></g><g stroke="none"><g><path d="M361.71435,91.77145c0.56095,12.82972 0.64568,24.62492 -2.72048,34.01403c-4.39688,12.26409 -71.32039,15.57379 -76.69876,4.25765c-4.36301,-9.17981 -5.09361,-21.29921 -5.67303,-34.55118c-1.29368,-29.58794 83.79859,-33.30844 85.09227,-3.72051z" fill="#1a090d" stroke-width="NaN"/><path d="M315.77966,136.46843c-12.80497,9.35294 -50.18076,0.62606 -50.18076,0.62606c0,0 8.14951,-11.10642 18.11867,-20.82662c9.61857,-9.37839 44.86708,10.84763 32.0621,20.20056z" fill="#4a314d" stroke-width="NaN"/><path d="M376.32657,132.25319c0,0 -36.47148,11.95571 -50.04391,3.75608c-13.57242,-8.19963 19.66536,-31.49018 30.03198,-23.03993c10.84272,8.83835 20.01194,19.28387 20.01194,19.28387z" data-paper-data="{&quot;index&quot;:null}" fill="#4a314d" stroke-width="NaN"/><path d="M320.04726,116.82088c7.20489,8.64137 6.09666,19.39494 -3.95755,26.73869c-12.80497,9.35294 -46.31295,0.45694 -46.31295,0.45694c0,0 8.16124,-12.63141 18.005,-22.70653c8.25671,-8.45076 30.2943,-6.85332 32.26551,-4.4891z" fill="#4a314d" stroke-width="NaN"/><path d="M326.59267,143.10021c-10.88029,-6.5732 -12.78126,-17.5011 -5.86092,-26.87051c1.71232,-2.31829 22.96587,-5.57252 31.86203,2.0153c10.79401,9.20656 20.17495,21.26825 20.17495,21.26825c0,0 -32.60364,11.7866 -46.17608,3.58696z" data-paper-data="{&quot;index&quot;:null}" fill="#4a314d" stroke-width="NaN"/><g fill="#ace894" stroke-width="0"><path d="M332.90069,127.06447c0.0577,1.3198 -5.13067,8.30506 -11.89466,8.6008c-6.76401,0.29574 -12.54223,-6.20999 -12.59993,-7.52982c-0.0577,-1.3198 24.43688,-2.39078 24.49459,-1.07098z"/><path d="M327.25655,128.03105c0.09959,2.27765 -2.33369,14.04729 -5.96314,14.20597c-3.62945,0.15869 -7.08069,-11.35366 -7.18028,-13.63131c-0.09959,-2.27765 13.04384,-2.85231 13.14343,-0.57468z"/></g></g><g><g><path d="M309.75613,95.32896c-9.00718,14.9091 -23.89098,16.61485 -33.24392,3.80986c-9.35294,-12.80497 -0.62606,-50.18077 -0.62606,-50.18077c0,0 42.87716,31.46181 33.86998,46.3709z" fill="#1a090d" stroke-width="NaN"/><path d="M276.51223,99.13884c-9.35294,-12.80497 -0.62606,-50.18077 -0.62606,-50.18077c0,0 9.979,62.98574 0.62606,50.18077z" fill="#4a314d" stroke-width="NaN"/></g><g><path d="M358.386,45.35091c0,0 11.95572,36.47149 3.75608,50.04392c-8.19964,13.57242 -23.17553,13.17224 -33.44957,-0.89382c-10.27404,-14.06606 29.69349,-49.1501 29.69349,-49.1501z" data-paper-data="{&quot;index&quot;:null}" fill="#1a090d" stroke-width="NaN"/><path d="M358.386,45.35091c0,0 11.95572,36.47149 3.75608,50.04392c-8.19964,13.57242 -3.75607,-50.04392 -3.75607,-50.04392z" data-paper-data="{&quot;index&quot;:null}" fill="#4a314d" stroke-width="NaN"/></g></g><g stroke-width="0"><g><path d="M315.9948,117.08399c-0.76044,5.58932 -33.84618,1.08793 -33.08574,-4.50138c0.76044,-5.58932 33.84619,-1.08793 33.08575,4.50138z" fill="#ace894"/><path d="M303.06309,104.5302c0,0 0.4042,8.88253 0.09925,15.11747c-0.64785,-0.13884 -1.318,-0.21462 -2.00338,-0.22085c0.46761,-6.21701 1.90414,-14.89662 1.90414,-14.89662z" fill="#1a090d"/></g><g data-paper-data="{&quot;index&quot;:null}"><path d="M356.94301,109.34565c1.24537,5.50161 -31.32123,12.87352 -32.5666,7.37191c-1.24537,-5.50161 31.32123,-12.87352 32.5666,-7.37191z" fill="#ace894"/><path d="M336.1631,103.08298c0,0 2.1898,8.52569 3.19789,14.67866c-0.68183,0.07209 -1.34204,0.21214 -1.97411,0.41299c-0.85025,-6.18599 -1.22378,-15.09165 -1.22378,-15.09165z" fill="#1a090d"/></g></g></g><path d="M302.35182,230.60977c0,0 6.89511,10.3556 17.64819,10.3556c10.75308,0 17.64819,-10.3556 17.64819,-10.3556c0,0 -0.69414,3.60507 -1.58795,5.28064c-4.18261,7.84086 -16.06024,13.57035 -16.06024,13.57035c0,0 -12.30653,-5.9364 -16.27727,-13.9933c-0.76381,-1.54982 -1.37092,-4.85769 -1.37092,-4.85769z" fill-opacity="0.10588" fill="#000000" stroke="#000000" stroke-width="0"/></g></g></svg>