<svg version="1.1" xmlns="http://www.w3.org/2000/svg" xmlns:xlink="http://www.w3.org/1999/xlink" width="99.61445" height="122.18334" viewBox="0,0,99.61445,122.18334"><g transform="translate(-264.57441,-109.81088)"><g data-paper-data="{&quot;isPaintingLayer&quot;:true}" fill="none" fill-rule="nonzero" stroke-linecap="butt" stroke-linejoin="miter" stroke-miterlimit="10" stroke-dasharray="" stroke-dashoffset="0" style="mix-blend-mode: normal"><path d="M350.22859,178.96063c1.11569,0.34698 2.23681,0.61919 3.3579,0.81944c-3.27825,3.11875 -5.82957,7.09307 -7.26871,11.7205c-1.2823,4.12315 -1.54328,8.32004 -0.92617,12.31811c-1.66882,-0.94196 -3.46233,-1.72243 -5.36641,-2.31461c-12.07999,-3.75687 -24.79287,1.25298 -31.28467,11.42745c0.79156,-12.35219 -6.90454,-24.10239 -19.24659,-27.94078c-1.02366,-0.31836 -2.05186,-0.57377 -3.08043,-0.76841c6.73415,-1.89654 12.63851,-6.33509 16.27493,-12.55983c8.45409,-2.53268 15.53633,-9.08954 18.35427,-18.15046c0.66575,-2.14069 1.05621,-4.30125 1.1914,-6.44355c1.40915,6.7602 5.34417,12.84273 11.08553,16.8785c3.1065,6.94731 9.07083,12.57596 16.90895,15.01362z" stroke="#5c162e" stroke-width="10"/><path d="M350.22859,178.96063c1.11569,0.34698 2.23681,0.61919 3.3579,0.81944c-3.27825,3.11875 -5.82957,7.09307 -7.26871,11.7205c-1.2823,4.12315 -1.54328,8.32004 -0.92617,12.31811c-1.66882,-0.94196 -3.46233,-1.72243 -5.36641,-2.31461c-12.07999,-3.75687 -24.79287,1.25298 -31.28467,11.42745c0.79156,-12.35219 -6.90454,-24.10239 -19.24659,-27.94078c-1.02366,-0.31836 -2.05186,-0.57377 -3.08043,-0.76841c6.73415,-1.89654 12.63851,-6.33509 16.27493,-12.55983c8.45409,-2.53268 15.53633,-9.08954 18.35427,-18.15046c0.66575,-2.14069 1.05621,-4.30125 1.1914,-6.44355c1.40915,6.7602 5.34417,12.84273 11.08553,16.8785c3.1065,6.94731 9.07083,12.57596 16.90895,15.01362z" stroke="#7c162e" stroke-width="2.5"/></g></g></svg>