<svg version="1.1" xmlns="http://www.w3.org/2000/svg" xmlns:xlink="http://www.w3.org/1999/xlink" width="202.99999" height="199.87692" viewBox="0,0,202.99999,199.87692"><defs><radialGradient cx="320.12308" cy="179.85641" r="89.00769" gradientUnits="userSpaceOnUse" id="color-1"><stop offset="0" stop-color="#7c162e"/><stop offset="1" stop-color="#7c162e" stop-opacity="0"/></radialGradient><radialGradient cx="320.12308" cy="179.85641" r="89.00769" gradientUnits="userSpaceOnUse" id="color-2"><stop offset="0" stop-color="#7c162e"/><stop offset="1" stop-color="#7c162e" stop-opacity="0"/></radialGradient><radialGradient cx="320.12308" cy="179.85641" r="89.00769" gradientUnits="userSpaceOnUse" id="color-3"><stop offset="0" stop-color="#7c162e"/><stop offset="1" stop-color="#7c162e" stop-opacity="0"/></radialGradient><radialGradient cx="320.12308" cy="179.85641" r="89.00769" gradientUnits="userSpaceOnUse" id="color-4"><stop offset="0" stop-color="#7c162e"/><stop offset="1" stop-color="#7c162e" stop-opacity="0"/></radialGradient><radialGradient cx="377.37949" cy="152.78974" r="41.12051" gradientUnits="userSpaceOnUse" id="color-5"><stop offset="0" stop-color="#7c162e"/><stop offset="1" stop-color="#7c162e" stop-opacity="0"/></radialGradient><radialGradient cx="377.37949" cy="152.78974" r="41.12051" gradientUnits="userSpaceOnUse" id="color-6"><stop offset="0" stop-color="#7c162e"/><stop offset="1" stop-color="#7c162e" stop-opacity="0"/></radialGradient><radialGradient cx="377.37949" cy="152.78974" r="41.12051" gradientUnits="userSpaceOnUse" id="color-7"><stop offset="0" stop-color="#7c162e"/><stop offset="1" stop-color="#7c162e" stop-opacity="0"/></radialGradient><radialGradient cx="377.37949" cy="152.78974" r="41.12051" gradientUnits="userSpaceOnUse" id="color-8"><stop offset="0" stop-color="#7c162e"/><stop offset="1" stop-color="#7c162e" stop-opacity="0"/></radialGradient><radialGradient cx="283.68718" cy="145.50256" r="41.12051" gradientUnits="userSpaceOnUse" id="color-9"><stop offset="0" stop-color="#7c162e"/><stop offset="1" stop-color="#7c162e" stop-opacity="0"/></radialGradient><radialGradient cx="283.68718" cy="145.50256" r="41.12051" gradientUnits="userSpaceOnUse" id="color-10"><stop offset="0" stop-color="#7c162e"/><stop offset="1" stop-color="#7c162e" stop-opacity="0"/></radialGradient><radialGradient cx="283.68718" cy="145.50256" r="41.12051" gradientUnits="userSpaceOnUse" id="color-11"><stop offset="0" stop-color="#7c162e"/><stop offset="1" stop-color="#7c162e" stop-opacity="0"/></radialGradient><radialGradient cx="283.68718" cy="145.50256" r="41.12051" gradientUnits="userSpaceOnUse" id="color-12"><stop offset="0" stop-color="#7c162e"/><stop offset="1" stop-color="#7c162e" stop-opacity="0"/></radialGradient><radialGradient cx="351.35385" cy="218.37436" r="41.12051" gradientUnits="userSpaceOnUse" id="color-13"><stop offset="0" stop-color="#7c162e"/><stop offset="1" stop-color="#7c162e" stop-opacity="0"/></radialGradient><radialGradient cx="351.35385" cy="218.37436" r="41.12051" gradientUnits="userSpaceOnUse" id="color-14"><stop offset="0" stop-color="#7c162e"/><stop offset="1" stop-color="#7c162e" stop-opacity="0"/></radialGradient><radialGradient cx="351.35385" cy="218.37436" r="41.12051" gradientUnits="userSpaceOnUse" id="color-15"><stop offset="0" stop-color="#7c162e"/><stop offset="1" stop-color="#7c162e" stop-opacity="0"/></radialGradient><radialGradient cx="351.35385" cy="218.37436" r="41.12051" gradientUnits="userSpaceOnUse" id="color-16"><stop offset="0" stop-color="#7c162e"/><stop offset="1" stop-color="#7c162e" stop-opacity="0"/></radialGradient><radialGradient cx="258.70256" cy="217.33333" r="32.79231" gradientUnits="userSpaceOnUse" id="color-17"><stop offset="0" stop-color="#7c162e"/><stop offset="1" stop-color="#7c162e" stop-opacity="0"/></radialGradient><radialGradient cx="258.70256" cy="217.33333" r="32.79231" gradientUnits="userSpaceOnUse" id="color-18"><stop offset="0" stop-color="#7c162e"/><stop offset="1" stop-color="#7c162e" stop-opacity="0"/></radialGradient><radialGradient cx="258.70256" cy="217.33333" r="32.79231" gradientUnits="userSpaceOnUse" id="color-19"><stop offset="0" stop-color="#7c162e"/><stop offset="1" stop-color="#7c162e" stop-opacity="0"/></radialGradient><radialGradient cx="258.70256" cy="217.33333" r="32.79231" gradientUnits="userSpaceOnUse" id="color-20"><stop offset="0" stop-color="#7c162e"/><stop offset="1" stop-color="#7c162e" stop-opacity="0"/></radialGradient><radialGradient cx="333.1359" cy="142.9" r="59.33846" gradientUnits="userSpaceOnUse" id="color-21"><stop offset="0" stop-color="#7c162e"/><stop offset="1" stop-color="#7c162e" stop-opacity="0"/></radialGradient><radialGradient cx="333.1359" cy="142.9" r="59.33846" gradientUnits="userSpaceOnUse" id="color-22"><stop offset="0" stop-color="#7c162e"/><stop offset="1" stop-color="#7c162e" stop-opacity="0"/></radialGradient><radialGradient cx="333.1359" cy="142.9" r="59.33846" gradientUnits="userSpaceOnUse" id="color-23"><stop offset="0" stop-color="#7c162e"/><stop offset="1" stop-color="#7c162e" stop-opacity="0"/></radialGradient><radialGradient cx="333.1359" cy="142.9" r="59.33846" gradientUnits="userSpaceOnUse" id="color-24"><stop offset="0" stop-color="#7c162e"/><stop offset="1" stop-color="#7c162e" stop-opacity="0"/></radialGradient><radialGradient cx="300.34359" cy="237.11282" r="32.79231" gradientUnits="userSpaceOnUse" id="color-25"><stop offset="0" stop-color="#7c162e"/><stop offset="1" stop-color="#7c162e" stop-opacity="0"/></radialGradient><radialGradient cx="269.11282" cy="227.74359" r="32.79231" gradientUnits="userSpaceOnUse" id="color-26"><stop offset="0" stop-color="#7c162e"/><stop offset="1" stop-color="#7c162e" stop-opacity="0"/></radialGradient><radialGradient cx="335.73846" cy="250.64615" r="32.79231" gradientUnits="userSpaceOnUse" id="color-27"><stop offset="0" stop-color="#7c162e"/><stop offset="1" stop-color="#7c162e" stop-opacity="0"/></radialGradient><radialGradient cx="248.29231" cy="174.65128" r="32.79231" gradientUnits="userSpaceOnUse" id="color-28"><stop offset="0" stop-color="#7c162e"/><stop offset="1" stop-color="#7c162e" stop-opacity="0"/></radialGradient><radialGradient cx="382.58462" cy="203.8" r="32.79231" gradientUnits="userSpaceOnUse" id="color-29"><stop offset="0" stop-color="#7c162e"/><stop offset="1" stop-color="#7c162e" stop-opacity="0"/></radialGradient><radialGradient cx="273.29231" cy="185.65128" r="32.79231" gradientUnits="userSpaceOnUse" id="color-30"><stop offset="0" stop-color="#7c162e"/><stop offset="1" stop-color="#7c162e" stop-opacity="0"/></radialGradient><radialGradient cx="297.29231" cy="225.65128" r="32.79231" gradientUnits="userSpaceOnUse" id="color-31"><stop offset="0" stop-color="#7c162e"/><stop offset="1" stop-color="#7c162e" stop-opacity="0"/></radialGradient></defs><g transform="translate(-215.5,-83.56154)"><g data-paper-data="{&quot;isPaintingLayer&quot;:true}" fill-rule="nonzero" stroke="none" stroke-width="0" stroke-linecap="butt" stroke-linejoin="miter" stroke-miterlimit="10" stroke-dasharray="" stroke-dashoffset="0" style="mix-blend-mode: normal"><path d="M231.11538,179.85641c0,-49.15758 39.85011,-89.00769 89.00769,-89.00769c49.15758,0 89.00769,39.85011 89.00769,89.00769c0,49.15758 -39.85011,89.00769 -89.00769,89.00769c-49.15758,0 -89.00769,-39.85011 -89.00769,-89.00769z" fill="url(#color-1)"/><path d="M231.11538,179.85641c0,-49.15758 39.85011,-89.00769 89.00769,-89.00769c49.15758,0 89.00769,39.85011 89.00769,89.00769c0,49.15758 -39.85011,89.00769 -89.00769,89.00769c-49.15758,0 -89.00769,-39.85011 -89.00769,-89.00769z" fill="url(#color-2)"/><path d="M231.11538,179.85641c0,-49.15758 39.85011,-89.00769 89.00769,-89.00769c49.15758,0 89.00769,39.85011 89.00769,89.00769c0,49.15758 -39.85011,89.00769 -89.00769,89.00769c-49.15758,0 -89.00769,-39.85011 -89.00769,-89.00769z" fill="url(#color-3)"/><path d="M231.11538,179.85641c0,-49.15758 39.85011,-89.00769 89.00769,-89.00769c49.15758,0 89.00769,39.85011 89.00769,89.00769c0,49.15758 -39.85011,89.00769 -89.00769,89.00769c-49.15758,0 -89.00769,-39.85011 -89.00769,-89.00769z" fill="url(#color-4)"/><path d="M336.25897,152.78974c0,-22.71022 18.41029,-41.12051 41.12051,-41.12051c22.71022,0 41.12051,18.41029 41.12051,41.12051c0,22.71022 -18.41029,41.12051 -41.12051,41.12051c-22.71022,0 -41.12051,-18.41029 -41.12051,-41.12051z" fill="url(#color-5)"/><path d="M336.25897,152.78974c0,-22.71022 18.41029,-41.12051 41.12051,-41.12051c22.71022,0 41.12051,18.41029 41.12051,41.12051c0,22.71022 -18.41029,41.12051 -41.12051,41.12051c-22.71022,0 -41.12051,-18.41029 -41.12051,-41.12051z" fill="url(#color-6)"/><path d="M336.25897,152.78974c0,-22.71022 18.41029,-41.12051 41.12051,-41.12051c22.71022,0 41.12051,18.41029 41.12051,41.12051c0,22.71022 -18.41029,41.12051 -41.12051,41.12051c-22.71022,0 -41.12051,-18.41029 -41.12051,-41.12051z" fill="url(#color-7)"/><path d="M336.25897,152.78974c0,-22.71022 18.41029,-41.12051 41.12051,-41.12051c22.71022,0 41.12051,18.41029 41.12051,41.12051c0,22.71022 -18.41029,41.12051 -41.12051,41.12051c-22.71022,0 -41.12051,-18.41029 -41.12051,-41.12051z" fill="url(#color-8)"/><path d="M242.56667,145.50256c0,-22.71023 18.41028,-41.12051 41.12051,-41.12051c22.71023,0 41.12051,18.41028 41.12051,41.12051c0,22.71023 -18.41028,41.12051 -41.12051,41.12051c-22.71023,0 -41.12051,-18.41028 -41.12051,-41.12051z" fill="url(#color-9)"/><path d="M242.56667,145.50256c0,-22.71023 18.41028,-41.12051 41.12051,-41.12051c22.71023,0 41.12051,18.41028 41.12051,41.12051c0,22.71023 -18.41028,41.12051 -41.12051,41.12051c-22.71023,0 -41.12051,-18.41028 -41.12051,-41.12051z" fill="url(#color-10)"/><path d="M242.56667,145.50256c0,-22.71023 18.41028,-41.12051 41.12051,-41.12051c22.71023,0 41.12051,18.41028 41.12051,41.12051c0,22.71023 -18.41028,41.12051 -41.12051,41.12051c-22.71023,0 -41.12051,-18.41028 -41.12051,-41.12051z" fill="url(#color-11)"/><path d="M242.56667,145.50256c0,-22.71023 18.41028,-41.12051 41.12051,-41.12051c22.71023,0 41.12051,18.41028 41.12051,41.12051c0,22.71023 -18.41028,41.12051 -41.12051,41.12051c-22.71023,0 -41.12051,-18.41028 -41.12051,-41.12051z" fill="url(#color-12)"/><path d="M310.23333,218.37436c0,-22.71023 18.41028,-41.12051 41.12051,-41.12051c22.71023,0 41.12051,18.41028 41.12051,41.12051c0,22.71023 -18.41028,41.12051 -41.12051,41.12051c-22.71023,0 -41.12051,-18.41028 -41.12051,-41.12051z" fill="url(#color-13)"/><path d="M310.23333,218.37436c0,-22.71023 18.41028,-41.12051 41.12051,-41.12051c22.71023,0 41.12051,18.41028 41.12051,41.12051c0,22.71023 -18.41028,41.12051 -41.12051,41.12051c-22.71023,0 -41.12051,-18.41028 -41.12051,-41.12051z" fill="url(#color-14)"/><path d="M310.23333,218.37436c0,-22.71023 18.41028,-41.12051 41.12051,-41.12051c22.71023,0 41.12051,18.41028 41.12051,41.12051c0,22.71023 -18.41028,41.12051 -41.12051,41.12051c-22.71023,0 -41.12051,-18.41028 -41.12051,-41.12051z" fill="url(#color-15)"/><path d="M310.23333,218.37436c0,-22.71023 18.41028,-41.12051 41.12051,-41.12051c22.71023,0 41.12051,18.41028 41.12051,41.12051c0,22.71023 -18.41028,41.12051 -41.12051,41.12051c-22.71023,0 -41.12051,-18.41028 -41.12051,-41.12051z" fill="url(#color-16)"/><path d="M225.91026,217.33333c0,-18.11069 14.68162,-32.79231 32.79231,-32.79231c18.11069,0 32.79231,14.68162 32.79231,32.79231c0,18.11069 -14.68162,32.79231 -32.79231,32.79231c-18.11069,0 -32.79231,-14.68162 -32.79231,-32.79231z" fill="url(#color-17)"/><path d="M225.91026,217.33333c0,-18.11069 14.68162,-32.79231 32.79231,-32.79231c18.11069,0 32.79231,14.68162 32.79231,32.79231c0,18.11069 -14.68162,32.79231 -32.79231,32.79231c-18.11069,0 -32.79231,-14.68162 -32.79231,-32.79231z" fill="url(#color-18)"/><path d="M225.91026,217.33333c0,-18.11069 14.68162,-32.79231 32.79231,-32.79231c18.11069,0 32.79231,14.68162 32.79231,32.79231c0,18.11069 -14.68162,32.79231 -32.79231,32.79231c-18.11069,0 -32.79231,-14.68162 -32.79231,-32.79231z" fill="url(#color-19)"/><path d="M225.91026,217.33333c0,-18.11069 14.68162,-32.79231 32.79231,-32.79231c18.11069,0 32.79231,14.68162 32.79231,32.79231c0,18.11069 -14.68162,32.79231 -32.79231,32.79231c-18.11069,0 -32.79231,-14.68162 -32.79231,-32.79231z" fill="url(#color-20)"/><path d="M273.79744,142.9c0,-32.77173 26.56673,-59.33846 59.33846,-59.33846c32.77173,0 59.33846,26.56673 59.33846,59.33846c0,32.77173 -26.56673,59.33846 -59.33846,59.33846c-32.77173,0 -59.33846,-26.56673 -59.33846,-59.33846z" fill="url(#color-21)"/><path d="M273.79744,142.9c0,-32.77173 26.56673,-59.33846 59.33846,-59.33846c32.77173,0 59.33846,26.56673 59.33846,59.33846c0,32.77173 -26.56673,59.33846 -59.33846,59.33846c-32.77173,0 -59.33846,-26.56673 -59.33846,-59.33846z" fill="url(#color-22)"/><path d="M273.79744,142.9c0,-32.77173 26.56673,-59.33846 59.33846,-59.33846c32.77173,0 59.33846,26.56673 59.33846,59.33846c0,32.77173 -26.56673,59.33846 -59.33846,59.33846c-32.77173,0 -59.33846,-26.56673 -59.33846,-59.33846z" fill="url(#color-23)"/><path d="M273.79744,142.9c0,-32.77173 26.56673,-59.33846 59.33846,-59.33846c32.77173,0 59.33846,26.56673 59.33846,59.33846c0,32.77173 -26.56673,59.33846 -59.33846,59.33846c-32.77173,0 -59.33846,-26.56673 -59.33846,-59.33846z" fill="url(#color-24)"/><path d="M267.55128,237.11282c0,-18.11069 14.68162,-32.79231 32.79231,-32.79231c18.11069,0 32.79231,14.68162 32.79231,32.79231c0,18.11069 -14.68162,32.79231 -32.79231,32.79231c-18.11069,0 -32.79231,-14.68162 -32.79231,-32.79231z" fill="url(#color-25)"/><path d="M236.32051,227.74359c0,-18.11069 14.68162,-32.79231 32.79231,-32.79231c18.11069,0 32.79231,14.68162 32.79231,32.79231c0,18.11069 -14.68162,32.79231 -32.79231,32.79231c-18.11069,0 -32.79231,-14.68162 -32.79231,-32.79231z" fill="url(#color-26)"/><path d="M302.94615,250.64615c0,-18.11069 14.68162,-32.79231 32.79231,-32.79231c18.11069,0 32.79231,14.68162 32.79231,32.79231c0,18.11069 -14.68162,32.79231 -32.79231,32.79231c-18.11069,0 -32.79231,-14.68162 -32.79231,-32.79231z" fill="url(#color-27)"/><path d="M215.5,174.65128c0,-18.11069 14.68162,-32.79231 32.79231,-32.79231c18.11069,0 32.79231,14.68162 32.79231,32.79231c0,18.11069 -14.68162,32.79231 -32.79231,32.79231c-18.11069,0 -32.79231,-14.68162 -32.79231,-32.79231z" fill="url(#color-28)"/><path d="M349.79231,203.8c0,-18.11069 14.68162,-32.79231 32.79231,-32.79231c18.11069,0 32.79231,14.68162 32.79231,32.79231c0,18.11069 -14.68162,32.79231 -32.79231,32.79231c-18.11069,0 -32.79231,-14.68162 -32.79231,-32.79231z" fill="url(#color-29)"/><path d="M240.5,185.65128c0,-18.11069 14.68162,-32.79231 32.79231,-32.79231c18.11069,0 32.79231,14.68162 32.79231,32.79231c0,18.11069 -14.68162,32.79231 -32.79231,32.79231c-18.11069,0 -32.79231,-14.68162 -32.79231,-32.79231z" fill="url(#color-30)"/><path d="M264.5,225.65128c0,-18.11069 14.68162,-32.79231 32.79231,-32.79231c18.11069,0 32.79231,14.68162 32.79231,32.79231c0,18.11069 -14.68162,32.79231 -32.79231,32.79231c-18.11069,0 -32.79231,-14.68162 -32.79231,-32.79231z" fill="url(#color-31)"/></g></g></svg>