<svg version="1.1" xmlns="http://www.w3.org/2000/svg" xmlns:xlink="http://www.w3.org/1999/xlink" width="20.25" height="20.25" viewBox="0,0,20.25,20.25"><defs><radialGradient cx="320" cy="180" r="10.125" gradientUnits="userSpaceOnUse" id="color-1"><stop offset="0" stop-color="#ace894"/><stop offset="1" stop-color="#ace894" stop-opacity="0"/></radialGradient><radialGradient cx="320" cy="180" r="10.125" gradientUnits="userSpaceOnUse" id="color-2"><stop offset="0" stop-color="#ace894"/><stop offset="1" stop-color="#ace894" stop-opacity="0"/></radialGradient></defs><g transform="translate(-309.875,-169.875)"><g data-paper-data="{&quot;isPaintingLayer&quot;:true}" fill-rule="nonzero" stroke="none" stroke-width="0" stroke-linecap="butt" stroke-linejoin="miter" stroke-miterlimit="10" stroke-dasharray="" stroke-dashoffset="0" style="mix-blend-mode: normal"><path d="M309.875,180c0,-5.59188 4.53312,-10.125 10.125,-10.125c5.59188,0 10.125,4.53312 10.125,10.125c0,5.59188 -4.53312,10.125 -10.125,10.125c-5.59188,0 -10.125,-4.53312 -10.125,-10.125z" fill="url(#color-1)"/><path d="M309.875,180c0,-5.59188 4.53312,-10.125 10.125,-10.125c5.59188,0 10.125,4.53312 10.125,10.125c0,5.59188 -4.53312,10.125 -10.125,10.125c-5.59188,0 -10.125,-4.53312 -10.125,-10.125z" fill="url(#color-2)"/></g></g></svg>