<svg version="1.1" xmlns="http://www.w3.org/2000/svg" xmlns:xlink="http://www.w3.org/1999/xlink" width="161.74056" height="276.0226" viewBox="0,0,161.74056,276.0226"><g transform="translate(-219.13094,-51.37411)"><g data-paper-data="{&quot;isPaintingLayer&quot;:true}" fill-rule="nonzero" stroke-linecap="butt" stroke-linejoin="miter" stroke-miterlimit="10" stroke-dasharray="" stroke-dashoffset="0" style="mix-blend-mode: normal"><g stroke="#000000" stroke-width="0"><path d="M320.00002,152.70653c33.61838,0 60.87149,20.76571 60.87149,33.02065c0,12.25493 -0.38345,134.86356 -60.87149,134.51391c-59.90704,-0.34629 -60.87149,-122.25897 -60.87149,-134.5139c0,-12.25493 27.2531,-33.02064 60.87149,-33.02064z" fill="#1a090d"/><path d="M320.00002,152.70653c28.09666,0 55.8775,12.66813 55.8775,28.29507c0,15.62694 -16.56991,146.39511 -55.8775,146.39511c-39.30759,0 -55.8775,-130.76816 -55.8775,-146.39511c0,-15.62694 27.78085,-28.29507 55.8775,-28.29507z" fill="#4a314d"/><path d="M359.1335,169.75918c0,18.66926 -17.60435,76.9717 -39.13346,76.9717c-21.52912,0 -39.13346,-58.30244 -39.13346,-76.9717c0,-18.66926 78.26693,-18.66926 78.26693,0z" fill="#6b6570"/><path d="M320.00002,140.10347c21.62676,0 39.15872,7.64692 39.15872,17.07987c0,8.12708 -3.57131,32.88919 -21.00549,38.89735c-2.80133,0.96538 -18.15323,-9.04229 -18.15323,-9.04229c0,0 -15.86808,9.90666 -18.89535,8.7758c-17.06008,-6.37287 -20.26336,-30.6195 -20.26336,-38.63085c0,-9.43295 17.53196,-17.07987 39.15872,-17.07987z" fill="#a8ba9a"/><path d="M302.50356,230.60983c0,-10.41111 7.83343,-41.84 17.49645,-41.84c9.66302,0 17.49645,31.4289 17.49645,41.84c0,10.41111 -17.49645,18.85099 -17.49645,18.85099c0,0 -17.49645,-8.43989 -17.49645,-18.85099z" fill="#ace894"/><path d="M320.00002,141.7876c17.02532,0 30.82708,6.01991 30.82708,13.44585c0,7.42594 -13.86769,29.84323 -30.82708,29.84323c-16.95939,0 -30.82707,-22.41729 -30.82707,-29.84323c0,-7.42594 13.80175,-13.44585 30.82707,-13.44585z" fill="#000000"/><path d="M327.40254,194.67581c0,0 4.39893,4.95447 -7.68026,4.64747c-10.40888,-0.26456 -7.69706,-4.75933 -7.69706,-4.75933z" fill="#4a314d"/><path d="M320.00002,175.03148c9.66302,0 16.10784,1.75038 16.10784,5.9651c0,4.21473 -6.44482,16.93805 -16.10784,16.93805c-9.66302,0 -16.10784,-12.72333 -16.10784,-16.93805c0,-4.21472 6.44482,-5.9651 16.10784,-5.9651z" fill="#ace894"/></g><g stroke="none"><path d="M350.47417,103.87387c0,25.32045 -1.61793,52.84672 -30.08677,52.84672c-29.38056,0 -30.08679,-27.52628 -30.08679,-52.84672c0,-25.32045 60.17357,-25.32045 60.17357,0z" fill="#1a090d" stroke-width="NaN"/><path d="M346.90361,105.46744c0,22.31552 -1.42593,40.40584 -26.51621,40.40584c-25.89381,0 -26.51623,-18.09032 -26.51623,-40.40584c0,-22.31552 53.03244,-22.31552 53.03244,0z" fill="#000000" stroke-width="NaN"/><path d="M301.56856,141.581c0,-1.77067 2.64931,-8.33578 2.64931,-8.33578c0,0 2.64931,6.56512 2.64931,8.33578c0,1.77067 -1.18614,3.20607 -2.64931,3.20607c-1.46317,0 -2.64931,-1.43541 -2.64931,-3.20607z" fill="#ace894" stroke-width="0.5"/><path d="M333.36024,141.581c0,-1.77067 2.64931,-8.33578 2.64931,-8.33578c0,0 2.6493,6.56512 2.6493,8.33578c0,1.77067 -1.18613,3.20607 -2.6493,3.20607c-1.46317,0 -2.64931,-1.43541 -2.64931,-3.20607z" fill="#ace894" stroke-width="0.5"/></g><g stroke="none"><g><path d="M362.97417,97.89573c0,12.84198 -0.43059,24.62962 -4.20366,33.86273c-4.9284,12.06032 -71.9326,12.44355 -76.81153,0.90327c-3.95785,-9.36163 -4.15837,-21.50138 -4.15837,-34.76601c0,-29.61621 85.17357,-29.61621 85.17357,0z" fill="#1a090d" stroke-width="NaN"/><path d="M315.1309,140.54357c-13.2013,8.78467 -50.16021,-1.56651 -50.16021,-1.56651c0,0 8.62688,-10.73984 19.01111,-20.01529c1.55751,-1.39121 42.2982,14.16275 31.14911,21.5818z" fill="#4a314d" stroke-width="NaN"/><path d="M375.80415,138.97713c0,0 -36.95891,10.35117 -50.16021,1.56651c-10.85359,-7.2224 29.23354,-23.28798 31.00973,-21.7061c10.4463,9.30354 19.15049,20.13961 19.15049,20.13961z" data-paper-data="{&quot;index&quot;:null}" fill="#4a314d" stroke-width="NaN"/><path d="M320.10857,120.91399c6.98622,8.98547 5.4601,19.78174 -4.97768,26.72745c-13.2013,8.78467 -46.2887,-1.56651 -46.2887,-1.56651c0,0 3.60859,-5.08335 8.92124,-11.27596c5.27402,-6.14758 28.68142,-16.68375 35.38612,-15.43324c3.80225,0.70916 6.80295,1.34752 6.95902,1.54826z" fill="#4a314d" stroke-width="NaN"/><path d="M325.64391,147.64135c-10.38736,-6.91216 -11.94896,-17.63776 -5.07833,-26.5971c0.1481,-0.19312 4.35943,-1.07847 9.15224,-1.99487c6.33703,-1.21166 22.20464,3.99607 26.01155,7.82765c9.0187,9.07715 16.20321,19.19784 16.20321,19.19784c0,0 -33.08738,10.35117 -46.28868,1.5665z" data-paper-data="{&quot;index&quot;:null}" fill="#4a314d" stroke-width="NaN"/><g fill="#ace894" stroke-width="0"><path d="M332.64637,131.89646c0,1.32106 -5.48855,8.07301 -12.259,8.07301c-6.77047,0 -12.25899,-6.75193 -12.25899,-8.07301c0,-1.32106 24.51799,-1.32106 24.51799,0z"/><path d="M326.96539,132.61556c0,2.27982 -2.94507,13.93194 -6.57799,13.93194c-3.63292,0 -6.57799,-11.65212 -6.57799,-13.93194c0,-2.27982 13.15599,-2.27982 13.15599,0z"/></g></g><g><g><path d="M310.91015,99.18024c-9.64983,14.50142 -24.59394,15.55539 -33.37861,2.35409c-8.78467,-13.2013 1.56651,-50.16022 1.56651,-50.16022c0,0 41.46193,33.30471 31.8121,47.80613z" fill="#1a090d" stroke-width="NaN"/><path d="M277.53156,101.53433c-8.78467,-13.2013 1.56651,-50.16022 1.56651,-50.16022c0,0 7.21816,63.36152 -1.56651,50.16022z" fill="#4a314d" stroke-width="NaN"/></g><g><path d="M361.67672,51.37411c0,0 10.35118,36.95892 1.56651,50.16022c-8.78467,13.2013 -23.72879,12.14733 -33.3786,-2.35409c-9.64981,-14.50142 31.8121,-47.80613 31.8121,-47.80613z" data-paper-data="{&quot;index&quot;:null}" fill="#1a090d" stroke-width="NaN"/><path d="M361.67672,51.37411c0,0 10.35118,36.95892 1.56651,50.16022c-8.78467,13.2013 -1.5665,-50.16022 -1.5665,-50.16022z" data-paper-data="{&quot;index&quot;:null}" fill="#4a314d" stroke-width="NaN"/></g></g><g fill="#ace894" stroke-width="0"><g><path d="M316.41143,121.18704c-0.49997,2.76451 -33.36142,1.87778 -32.85753,-0.90847c0.52858,-2.92271 33.33282,-1.71958 32.85754,0.90847z"/></g><g data-paper-data="{&quot;index&quot;:null}"><path d="M357.65858,120.27859c0.43449,2.40247 -32.28816,4.05676 -32.85753,0.90847c-0.47814,-2.64384 32.33181,-3.81539 32.85753,-0.90847z"/></g></g></g><path d="M302.35182,230.60983c0,0 6.89511,10.3556 17.64819,10.3556c10.75308,0 17.64819,-10.3556 17.64819,-10.3556c0,0 -0.69414,3.60507 -1.58795,5.28064c-4.18261,7.84086 -16.06024,13.57035 -16.06024,13.57035c0,0 -12.30653,-5.9364 -16.27727,-13.9933c-0.76381,-1.54982 -1.37092,-4.85769 -1.37092,-4.85769z" fill-opacity="0.10588" fill="#000000" stroke="#000000" stroke-width="0"/><path d="M242.41371,113.49336c-0.36739,2.47286 -2.84025,2.10547 -2.84025,2.10547l-0.65943,-0.09797c-3.71924,-0.55256 -7.13724,-0.77235 -10.89694,-0.65094c-1.04846,0.03386 -2.15577,0.62095 -3.13706,0.25018c-0.17177,-0.06491 -0.34055,-0.13575 -0.50671,-0.21177l-0.03005,0.08366l-3.15559,-1.13362c-1.12494,-0.3793 -1.85181,-1.5203 -1.67122,-2.73583c0.12501,-0.84144 0.65572,-1.5223 1.36416,-1.87357l2.52326,-1.2905c3.57901,-1.78821 6.43429,-4.86505 9.38683,-7.56962c0.47854,-0.43834 0.90722,-0.94054 1.3688,-1.39969c-0.29263,-0.0836 -0.58647,-0.15658 -0.88114,-0.16313c-4.23227,-0.09401 -8.06243,0.20917 -12.23608,-0.80053c0,0 -2.42403,-0.61162 -1.8124,-3.03565c0.61162,-2.42403 3.03565,-1.8124 3.03565,-1.8124c4.59517,1.22159 9.31041,0.00994 13.92607,1.05033c1.55766,0.35111 3.97051,-0.18971 4.61897,1.26942c0.78658,1.76994 -0.64764,3.89088 -1.56839,5.59488c-0.67583,1.25073 -2.02423,1.99709 -3.06008,2.97079c-2.1492,2.02027 -4.28753,4.09288 -6.63043,5.86519c0.32086,0.01042 0.65337,0.01559 0.99917,0.00648c3.19588,-0.08409 5.93026,0.16998 9.09799,0.6406l0.65943,0.09797c0,0 2.47286,0.36739 2.10547,2.84025z" fill-opacity="0.50196" fill="#ace895" stroke="none" stroke-width="0.5"/><path d="M257.00465,129.61114c0.39063,1.70584 -1.31521,2.09648 -1.31521,2.09648l-0.69964,0.13579c-1.97388,0.80545 -7.68114,5.01981 -9.69428,2.11656c-0.72909,-1.05145 0.43533,-2.53273 0.84966,-3.74329c0.59135,-1.72777 1.37658,-3.56261 2.01438,-5.35342c0.00958,-0.0269 0.28871,-1.30627 0.68196,-2.40714c-0.19956,0.10202 -0.38745,0.19486 -0.53716,0.27545c-2.91171,1.56743 -5.2033,2.73582 -8.59022,3.04138c0,0 -1.74394,0.14546 -1.8894,-1.59848c-0.14546,-1.74394 1.59848,-1.8894 1.59848,-1.8894c3.71131,-0.27843 5.85291,-2.65334 9.25469,-3.48076c1.18638,-0.28856 2.63597,-1.24305 3.62482,-0.52685c0.92808,0.67219 0.35607,2.27228 0.36717,3.41817c0.01586,1.63719 -0.96636,5.62297 -2.15988,8.19313c1.09946,-0.50267 2.29965,-0.93063 3.14827,-1.28217l1.24989,-0.31065c0,0 1.70584,-0.39063 2.09648,1.31521z" fill-opacity="0.50196" fill="#ace895" stroke="none" stroke-width="0.5"/></g></g></svg>